<?xml version="1.0" encoding="utf-8" ?>
<svg xmlns="http://www.w3.org/2000/svg" xmlns:xlink="http://www.w3.org/1999/xlink" width="1024" height="1024">
	<path fill="#303030" transform="scale(2 2)" d="M250.897 147.029C272.732 146.376 293.051 151.494 312.106 162.105C316.922 164.787 321.16 168.466 326.01 171.06L326.375 171.253C330.497 171.695 334.744 171.255 338.891 171.242C396.116 171.066 444.241 216.64 444.384 274.338L444.396 291.247C444.387 305.98 443.612 316.024 435.739 329.135C420.015 355.319 399.847 359.166 372.534 359.151L260.688 359.135L135.416 359.145C93.9076 359.102 67.5658 336.715 67.5566 294.345L67.5744 276.436C67.9084 223.747 105.427 178.486 158.587 171.906C167.279 170.83 175.906 171.193 184.63 171.253C204.229 156.233 226.391 149.201 250.897 147.029ZM152.432 208.705C135.525 212.454 121.446 223.175 112.217 237.706C101.333 254.844 101.432 268.281 101.43 287.595C101.43 293.071 100.967 299.014 102.202 304.375C108.018 329.638 134.312 326.031 153.511 326.017L359.625 326.018L374.9 326.034C399.798 326.039 411.31 317.709 411.192 291.665C411.152 282.901 411.629 273.818 410.706 265.102C407.772 237.38 383.472 212.681 356.568 206.762C360.656 215.353 367.825 230.534 364.396 239.984C359.332 253.941 339.573 255.151 333.73 240.811C332.255 237.194 331.658 233.296 330.139 229.67C325.479 218.552 314.809 204.693 304.768 197.864C293.296 210.019 281.458 221.919 269.617 233.717C265.275 238.043 258.391 245.694 253.57 248.938C242.798 256.185 229.013 247.707 228.831 235.27C228.698 226.275 236.289 221.115 242.017 215.377L257.807 199.334C263.528 193.614 269.399 187.983 274.957 182.104C268.104 180.544 260.281 179.69 253.245 180.104C223.476 181.793 195.145 198.704 182.006 226.062C176.943 236.605 176.338 250.644 161.574 251.531C152.096 252.1 143.381 244.123 143.058 234.634C142.803 227.186 148.533 215.054 152.432 208.705Z"/>
</svg>
