<?xml version="1.0" encoding="utf-8" ?>
<svg xmlns="http://www.w3.org/2000/svg" xmlns:xlink="http://www.w3.org/1999/xlink" width="1024" height="1024">
	<path fill="#303030" transform="scale(2 2)" d="M251.681 67.7523C278.568 65.2021 300.182 90.9121 293.174 116.785C289.595 130.001 282.197 136.429 270.782 142.946C270.778 147.63 270.89 152.313 270.782 156.997C276.833 157.281 283.024 157.004 289.089 157L325.438 156.99C349.431 156.989 347.04 154.483 367.077 168.841L392.477 186.971C403.403 194.739 414.467 202.247 425.2 210.288C449.455 228.458 442.496 230.977 428.484 253.1C419.878 266.686 411.094 280.237 403.009 294.135C389.938 316.601 374.509 301.723 358.244 292.231L358.253 414.772C358.26 425.837 360.085 441.777 344.651 444.129C339.639 444.893 334.198 444.532 329.132 444.531L210.871 444.523C197.973 444.523 185.072 444.457 172.174 444.63C153.474 444.882 154.233 430.109 154.241 416.434L154.254 292.231C146.025 296.674 138.287 306.618 128.665 307.286C117.17 308.084 114.073 300.671 108.843 292.434L81.1818 249.027C65.5512 224.75 70.093 222.919 90.2864 208.62L109.663 194.657C124.552 183.965 140.609 171.225 155.693 161.292C162.492 156.814 166.768 156.97 174.675 156.983L241.567 156.997C241.651 149.423 239.962 132.566 244.198 126.724C247.779 121.787 252.927 122.873 258.089 122.026C271.721 119.789 275.328 101.804 263.955 94.4408C256.367 89.5284 246.226 92.4656 241.92 100.253C239.341 104.916 237.918 110.042 231.907 111.373C225.109 112.878 218.478 108.25 217.422 101.422C214.888 85.0271 236.965 70.0224 251.681 67.7523ZM107.27 234.068C114.579 242.09 124.515 261.276 131.308 271.232C137.125 266.228 155.613 251.636 161.129 249.378C167.483 246.776 175.821 249.107 180.209 254.229C185.408 260.297 184.085 268.554 184.02 275.933L183.986 400.143C183.979 404.068 183.676 408.231 183.999 412.132C186.261 414.464 187.75 414.506 190.864 414.549C218.44 414.923 246.074 414.544 273.656 414.543L305.758 414.558C331.604 414.597 327.756 418.84 327.759 393.835L327.749 362.375L327.719 271.899C327.682 268.057 327.24 263.886 327.922 260.098C329.616 250.69 340.822 246.133 349.164 249.947C351.815 251.158 354.289 252.937 356.735 254.507L369.006 262.427C373.337 265.238 377.928 267.183 381.307 271.232C383.041 267.582 385.416 264.395 387.552 260.983C392.793 252.611 400.065 241.801 404.571 233.266L352.833 196.189C337.387 185.288 343.586 188.347 323.618 188.237C292.251 243.01 221.344 243.87 188.684 188.237L177.492 188.199C175.772 188.193 173.809 188.007 172.117 188.237C166.678 191.577 161.671 195.435 156.48 199.127L131.486 216.817C124.838 221.543 112.688 228.742 107.27 234.068ZM279.34 192.241C281.867 190.911 284.375 189.555 286.557 187.693L246.551 187.696C241.086 187.695 233.394 187.219 228.163 187.693L226.91 187.823L226.762 188.142C228.429 190.985 239.51 195.088 242.982 195.983C255.569 199.23 267.69 197.817 279.34 192.241Z"/>
</svg>
