<?xml version="1.0" encoding="utf-8" ?>
<svg xmlns="http://www.w3.org/2000/svg" xmlns:xlink="http://www.w3.org/1999/xlink" width="1024" height="1024">
	<path fill="#303030" transform="scale(2 2)" d="M137.634 156.6C146.14 155.81 154.047 158.653 160.226 164.492C165.555 169.528 174.782 176.625 174.852 184.299C174.941 194.071 163.815 200.494 155.329 195.498C151.717 193.371 143.654 184.275 140.178 180.748C133.446 190.212 118.062 215.642 113.978 225.542C119.159 225.252 124.476 225.532 129.672 225.536L187.5 225.535C197.983 225.529 207.681 225.218 217.58 229.258C230.776 234.645 226.455 233.628 241.505 233.624L265.912 233.614C270.4 233.614 277.983 232.438 281.968 234.555C296.823 225.366 306.089 225.531 322.76 225.536L382.896 225.54C387.982 225.536 393.198 225.186 398.261 225.542C396.188 221.066 374.972 184 373.116 182.603C370.335 180.509 360.32 192.878 357.277 195.055C345.534 203.46 331.046 188.519 339.75 176.869C345.376 169.337 357.769 158.075 366.877 156.864C385.169 154.433 392.02 165.047 399.779 178.197L433.013 234.374C443.652 252.322 450.578 262.997 435.156 282.719C434.178 284.273 432.867 285.62 431.88 287.205C430.795 303.644 434.796 316.676 424.758 331.9C417.031 343.619 405.253 351.403 391.569 354.169C381.83 356.139 339.748 355.977 330.344 354.073C295.131 346.941 291.074 313.319 281.66 284.837L276.304 268.976C275.118 265.473 273.76 261.94 273.045 258.306C269.265 258.094 265.38 258.288 261.587 258.289L239.302 258.306C235.79 270.621 231.456 282.657 227.637 294.872L221.811 313.488C211.407 346.094 195.252 355.183 160.863 355.218L140.014 355.217C117.828 355.217 98.4654 350.632 86.2211 329.523C80.1085 318.985 79.6856 311.214 79.6976 299.44L79.7092 283.887C68.7489 276.28 64.7076 262.25 69.6928 249.968C73.1805 241.375 81.353 229.351 86.1282 221.086L108.395 182.93C115.886 170.293 120.844 158.328 137.634 156.6ZM193.098 317.608C196.01 312.158 197.328 305.724 199.269 299.872C204.296 284.711 208.849 269.296 214.191 254.259C205.093 250.915 198.015 250.834 188.45 250.835L168.981 250.839C150.662 250.846 132.291 250.547 113.978 250.845C102.119 253.235 105.15 266.501 105.152 275.395L105.153 295.814C105.155 300.389 104.598 306.084 105.75 310.515C111.346 332.03 130.805 330.066 147.592 330.049C163.728 330.034 183.091 333.569 193.098 317.608ZM297.827 254.259C299.454 258.788 300.814 263.422 302.353 267.984L313.315 300.459C318.159 314.928 320.018 328.294 339.178 330.072C345.667 330.674 352.667 330.022 359.208 330.025L376.174 330.071C382.703 330.104 387.656 330.366 393.658 327.077C411.206 316.329 406.75 296.417 406.756 278.468C406.766 249.064 408.507 251.838 382.338 251.863L318.722 251.815C315.113 251.8 311.656 251.231 308.056 251.861C304.531 252.005 300.973 252.56 297.827 254.259Z"/>
</svg>
