<?xml version="1.0" encoding="utf-8" ?>
<svg xmlns="http://www.w3.org/2000/svg" xmlns:xlink="http://www.w3.org/1999/xlink" width="1024" height="1024">
	<path fill="#303030" transform="scale(2 2)" d="M255.875 135.22C258.487 136.06 288.077 162.732 293.252 167.178L377.062 239.359C380.815 242.645 385.429 246.041 388.609 249.868L388.907 250.232C393.582 255.868 391.966 266.258 391.968 272.981L392.083 402.852C392.307 422.972 383.057 425.795 365.421 425.772L256.989 425.753L145.511 425.76C141.687 425.76 137.231 426.194 133.498 425.524C117.965 422.735 120.23 407.062 120.235 395.767L120.246 251.9C131.292 240.46 150.326 226.227 162.904 215.285L218.546 167.257C230.958 156.55 243.204 145.626 255.875 135.22ZM150.878 265.339C150.524 279.685 150.877 294.134 150.878 308.489L150.878 395.247L199.252 395.247L199.234 303.165C199.201 276.349 207.966 277.982 229.703 277.985L255.875 277.998L285.976 277.986C306.139 277.963 312.455 277.45 312.416 302.24L312.403 395.247L360.759 395.247L360.776 281.58C360.792 264.921 362.714 265.881 348.968 254.619C344.841 251.238 340.772 247.791 336.736 244.304L278.692 194.484C276.45 192.526 256.891 175.317 255.875 175.159L161.26 256.026C157.76 259.006 153.925 261.889 150.878 265.339ZM230.499 395.247L281.306 395.247L281.306 308.279L230.499 308.279L230.499 395.247Z"/>
	<path fill="#303030" transform="scale(2 2)" d="M254.476 85.835C262.936 85.0854 279.644 102.347 287.234 108.817L426.542 227.79C432.55 232.893 442.28 238.484 443.849 246.837C445.433 255.265 439.637 263.62 431.148 265.007C421.232 266.627 412.627 255.983 405.34 249.828C390.149 236.997 375.468 223.585 360.352 210.663L271.704 134.313C266.804 130.107 261.727 126.055 256.989 121.671C255.256 120.308 253.503 123.109 252.186 124.212L110.32 245.923C104.756 250.741 93.0936 263.142 85.9373 264.498C77.9563 266.011 69.1041 260.616 67.7838 252.386C65.9523 240.97 77.1112 235.478 84.527 229.213L234.988 99.8499C240.423 95.2008 247.22 87.0911 254.476 85.835Z"/>
</svg>
