<?xml version="1.0" encoding="utf-8" ?>
<svg xmlns="http://www.w3.org/2000/svg" xmlns:xlink="http://www.w3.org/1999/xlink" width="1024" height="1024">
	<path fill="#303030" transform="scale(2 2)" d="M300.973 67.751C367.645 63.7492 416.193 133.474 384.476 194.404C370.557 221.145 349.879 224.047 340.603 256.911C346.145 259.764 351.567 262.834 357.127 265.654C369.736 272.049 386.547 277.311 390.599 292.505C393.215 302.316 389.543 312.821 381.721 319.123C374.073 325.286 365.497 324.98 356.211 325.408L337.086 326.376C333.573 326.561 329.845 326.482 326.438 327.405L325.999 327.526C325.805 331.624 326.181 335.601 326.171 339.689C326.045 390.293 281.947 436.097 232.027 441.266C225.439 441.948 218.803 441.759 212.189 441.751C209.039 441.028 205.774 440.649 202.592 440.053C118.453 424.293 86.3406 315.844 151.011 257.97C155.562 253.897 160.721 250.235 165.77 246.808C160.339 238.764 140.87 210.752 137.747 202.691C132.854 190.064 138.97 175.495 151.776 170.754C169.481 164.199 188.952 180.34 205.305 187.846C217.821 164.2 217.492 171.694 220.99 143.874C226.435 100.577 259.555 73.3828 300.973 67.751ZM250.841 399.809C277.545 387.408 295.119 356.889 289.945 327.526C255.204 324.064 228.766 314.716 200.929 291.905C195.41 287.382 190.421 282.312 185.215 277.452C131.917 309.38 145.203 389.593 204.627 404.214C220.525 408.125 235.91 406.44 250.841 399.809ZM236.276 204.276C249.702 209.84 266.052 218.552 279.281 225.468C285.182 228.554 290.985 231.935 297.077 234.635C300.645 236.384 304.666 238.013 307.938 240.264C314.688 224.465 316.9 218.012 328.791 203.521C332.507 198.993 338.175 196.579 342.415 192.561C378.678 158.198 351.628 98.3551 303.726 102.251C276.895 105.839 257.898 124.555 255.519 151.556C253.73 171.857 245.171 186.822 236.276 204.276ZM325.999 291.003C326.049 287.691 303.032 277.793 299.359 275.916L206.704 229.035C203.292 227.296 194.708 222.219 191.837 221.635C195.535 228.442 199.135 235.417 203.724 241.679C226.919 273.326 269.471 291.44 308.333 290.989C314.196 290.921 320.16 290.359 325.999 291.003Z"/>
</svg>
