<?xml version="1.0" encoding="utf-8" ?>
<svg xmlns="http://www.w3.org/2000/svg" xmlns:xlink="http://www.w3.org/1999/xlink" width="1024" height="1024">
	<path fill="#303030" transform="scale(2 2)" d="M205.528 67.5921L305.529 67.585C325.299 67.5852 346.157 70.9735 349.454 95.5523C350.608 104.155 350.123 123.973 346.867 131.127C342.755 140.163 335.714 146.689 326.408 150.137C326.568 159.231 326.41 168.351 326.408 177.447C352.342 184.664 375.547 206.702 382.366 232.966C386.02 247.036 384.551 266.917 384.548 281.508L384.553 370.267C384.551 391.125 386.095 408.971 370.187 425.26C349.92 446.01 333.1 443.774 306.875 443.747L193.091 443.757C186.766 443.758 180.265 444.058 174.009 443.019C149.101 438.885 132.371 420.411 128.009 396.321C126.534 388.175 127.25 379.243 127.253 370.964L127.247 276.558C127.24 249.552 125.915 230.609 142.523 207.133C151.299 194.729 170.352 180.092 186.038 177.447L186.041 160.72C186.029 143.704 186.557 153.761 176.489 145.728C162.518 134.581 162.511 127.274 162.618 111.824C162.708 98.9318 160.335 88.259 170.648 77.9933C181.838 66.8557 190.903 67.6006 205.528 67.5921ZM306.05 408.347L320.245 408.366C345.633 408.525 349.763 402.715 349.755 377.645L349.741 350.621C349.727 318.607 350.115 286.551 349.724 254.543C349.462 233.046 338.715 214.794 316.372 209.619C309.944 208.13 303.036 208.491 296.473 208.495L205.528 208.512C184.729 209.92 166.84 224.034 163.08 245.207C162.02 251.17 162.606 260.082 162.606 266.323L162.605 379.654C162.551 392.826 163.703 405.771 180.65 408.082C185.251 408.71 190.229 408.359 194.882 408.356L306.05 408.347ZM198.229 103.391L198.229 117.295L248.625 117.295L313.247 117.295L313.247 103.391C296.511 103.057 279.698 103.394 262.954 103.391L198.229 103.391Z"/>
	<path fill="#303030" transform="scale(2 2)" d="M254.384 252.317C274.715 251.281 270.282 274.897 270.271 287.962L286.369 287.949C292.895 287.949 299.91 286.964 305.004 291.943C312.758 299.522 308.185 312.945 297.995 315.578C294.346 316.52 290.035 316.035 286.28 316.028L270.271 316.001C270.09 329.951 274.778 353.047 257.113 355.489C236.961 356.458 241.756 328.878 241.778 316.001L225.308 316.026C218.867 316.033 211.613 316.955 206.546 312.084C201.234 306.977 201.175 296.985 206.507 291.854C211.608 286.946 219.168 287.93 225.643 287.937L241.778 287.962L241.746 273.144C241.722 263.034 242.221 254.228 254.384 252.317Z"/>
	<path fill="#FEFEFE" transform="scale(2 2)" d="M226.845 151.99L291.695 151.99L291.695 174.512L239.516 174.52C236.239 174.52 223.959 174.004 221.585 174.512L220.652 174.128C220.185 171.912 220.484 169.074 220.487 166.788L220.518 151.99L226.845 151.99Z"/>
</svg>
