<?xml version="1.0" encoding="utf-8" ?>
<svg xmlns="http://www.w3.org/2000/svg" xmlns:xlink="http://www.w3.org/1999/xlink" width="1024" height="1024">
	<path fill="#303030" transform="scale(2 2)" d="M201.109 99.6156C208.969 99.4774 216.857 99.6103 224.72 99.6111L297.262 99.6116C301.448 99.6093 311.83 98.4599 315.405 100.963C319.969 104.16 338.874 129.767 343.559 135.38L377.752 135.368C396.721 135.361 415.727 133.998 430.316 148.498C441.81 159.923 444.443 169.459 444.488 185.238L444.494 349.99C444.493 356.574 445.148 364.585 443.82 370.989C440.85 385.308 428.403 400.548 413.922 404.461C405.543 406.724 397.487 406.35 388.926 406.334L309.937 406.324L131.909 406.321C120.412 406.324 107.656 407.481 96.7011 403.127C79.9773 396.481 67.8128 378.084 67.6161 360.168C67.4594 345.896 67.5974 331.607 67.5971 317.333L67.584 195.454C67.5826 188.182 66.9026 180.102 68.3122 172.976C71.8456 155.117 85.4775 140.298 103.386 136.354C111.229 134.627 121.661 135.372 129.867 135.372L169.038 135.38C170.674 132.953 173.141 129.973 175.103 127.156C179.921 120.235 192.313 100.354 201.109 99.6156ZM283.68 370.126L384.326 370.133C393.012 370.136 406.641 371.992 408.14 359.986C408.931 353.641 408.417 344.373 408.392 337.771L408.385 225.021C408.382 210.273 411.913 186.924 403.48 175.209C395.878 172.008 391.422 172.89 383.269 172.894L348.19 172.921C340.485 172.927 330.296 174.693 323.646 169.739C319.5 166.65 304.289 145.961 301.01 141.411C299.485 139.296 298.164 137.197 296.265 135.38L229.22 135.38C215.687 135.314 217.232 132.735 209.244 143.268C204.116 150.031 198.242 159.719 192.861 165.787C184.607 175.094 170.416 172.921 159.308 172.92L124.536 172.892C116.879 172.873 107.286 170.611 104.16 179.856C102.79 183.908 103.485 207.786 103.487 213.603L103.482 331.085C103.481 340.709 103.176 350.418 103.49 360.031C103.898 372.509 120.094 370.133 128.276 370.135L283.68 370.126Z"/>
	<path fill="#303030" transform="scale(2 2)" d="M251.121 195.019C277.688 194.228 301.78 204.121 319.067 224.241C344.836 254.231 344.183 300.438 318.985 330.571C303.469 349.126 284.533 357.51 261.215 359.713C230.129 360.18 201.536 345.977 185.337 319.035C168.49 291.015 171.178 250.7 192.277 225.696C207.715 207.4 227.357 197.047 251.121 195.019ZM258.003 322.485C263.082 322.017 269.739 321.145 274.424 319.169C296.016 310.063 306.473 282.967 298.629 261.092C292.476 243.931 272.481 229.921 253.93 231.984C209.917 234.003 194.062 291.882 232.417 315.905C240.976 321.266 247.581 322.815 258.003 322.485Z"/>
	<path fill="#303030" transform="scale(2 2)" d="M253.93 258.818C278.422 257.461 281.586 291.437 259.689 295.29C235.181 298.93 229.625 263.338 253.93 258.818Z"/>
	<path fill="#303030" transform="scale(2 2)" d="M354.86 184.252C361.155 184.031 378.165 183.541 383.539 184.692C403.747 189.02 404.389 220.459 380.897 222.974L366.299 222.997C359.274 222.989 351.888 223.605 345.798 219.453C331.24 209.528 336.331 187.322 354.86 184.252Z"/>
</svg>
