<?xml version="1.0" encoding="utf-8" ?>
<svg xmlns="http://www.w3.org/2000/svg" xmlns:xlink="http://www.w3.org/1999/xlink" width="1024" height="1024">
	<path fill="#303030" transform="scale(2 2)" d="M86.3665 67.4925C99.0348 67.0866 111.863 67.4879 124.548 67.4912L186.511 67.3689C202.07 67.4113 205.301 78.3383 205.308 90.7879L205.304 152.144C226.983 152.39 248.694 152.151 270.377 152.141L288.327 152.135C312.701 152.14 331.976 156.347 345.549 179.765C353.589 193.636 353.246 205.866 353.25 221.158L353.243 246.044L364.626 246.048C371.612 246.099 377.531 246.163 382.89 251.254C391.257 259.203 392.138 272.522 383.919 280.94C378.297 286.697 372.383 286.929 364.796 286.899L353.243 286.885L353.25 322.986C353.26 344.478 355.261 355.064 330.123 354.996L106.994 354.981C106.889 370.289 106.688 385.696 106.994 400.997L405.027 400.997L405.034 175.946C405.034 166.407 405.783 155.293 404.164 145.995C400.806 126.718 385.297 110.787 366.243 106.584C359.631 105.125 352.658 105.573 345.924 105.585L240.906 105.601C240.682 93.4827 240.458 79.6261 240.906 67.4925L343.532 67.4842C355.375 67.4835 364.791 67.3197 376.555 69.7075C409.204 77.7918 435.106 104.275 441.509 137.464C443.797 149.325 442.884 162.862 442.884 174.992L442.884 439.402L68.76 439.402C68.5224 435.561 68.7507 431.602 68.7522 427.747L68.5045 334.73C68.3891 313.517 95.0448 316.98 108.428 316.983L314.012 316.979L314.01 217.726C314.086 194.027 311.569 190.192 289.115 190.223L205.304 190.239C204.308 214.706 205.009 219.737 177.686 219.724L157.672 219.714L157.672 270.385L120.327 270.385L120.327 219.714C110.233 219.755 91.2976 220.815 83.0514 218.901C64.1154 214.506 68.754 187.467 68.7605 172.471L68.7543 95.9138C68.7554 82.497 68.5704 68.0013 86.3665 67.4925ZM106.994 181.324L166.772 181.324L166.772 105.601L126.834 105.61C120.252 105.612 113.566 105.859 106.994 105.601L106.996 156.409C106.998 164.658 107.389 173.094 106.994 181.324Z"/>
</svg>
