<?xml version="1.0" encoding="utf-8" ?>
<svg xmlns="http://www.w3.org/2000/svg" xmlns:xlink="http://www.w3.org/1999/xlink" width="1024" height="1024">
	<path transform="scale(2 2)" d="M292.199 46.2502C301.421 45.3012 313.595 47.7338 322.872 48.6688L399.809 56.3427C404.603 56.8078 409.554 56.9586 414.207 58.2883C429.338 62.613 437.613 76.5868 436.369 91.9654C435.755 99.5447 434.418 118.988 432.584 125.548C429.947 134.978 420.348 132.486 412.851 131.695C412.281 135.184 411.963 138.074 412.851 141.55C414.028 144.614 416.753 145.804 419.136 147.828C433.632 160.142 441.194 173.312 439.652 193.172C438.621 206.446 437.185 219.722 435.87 232.972L420.014 400.082C418.36 419.247 418.402 440.758 402.539 454.234C392.593 462.684 382.227 464.392 369.598 463.314C363.182 463.01 356.736 462.299 350.341 461.714L251.48 452.802C231.416 450.864 215.379 434.792 213.697 414.687C212.445 399.726 217.979 365.105 219.799 347.859L236.023 189.951C238.492 166.848 241.912 143.797 266.388 133.954C276.985 129.693 275.796 133.92 276.79 119.106C272.362 118.319 260.291 119.423 259.314 113.697C258.649 109.805 260.661 98.3007 261.141 93.6305C263.559 70.1475 263.758 50.951 292.199 46.2502ZM226.163 402.748C266.789 397.978 296.486 397.525 338.048 403.278C340.185 403.574 342.442 403.758 344.543 404.232C340.88 402.05 324.917 400.38 319.899 399.607L256.298 389.358C238.093 386.354 239.826 388.704 242.008 368.623C242.562 363.528 242.75 358.199 243.726 353.174C243.68 352.536 243.496 351.964 243.324 351.353C239.368 337.257 240.198 329.601 247.424 316.744C246.929 310.978 248.562 304.63 249.214 298.891C250.083 291.243 248.981 281.735 255.187 276.196C252.923 273.637 252.832 269.704 255.617 267.445C260.043 263.856 294.966 263.718 301.726 263.773C335.827 264.048 373.251 268.607 406.132 277.94C410.284 279.119 414.671 280.183 418.471 282.264C421.129 260.512 422.981 238.62 425.103 216.809L426.806 198.701C428.036 186.083 428.85 177.601 420.485 166.809C410.015 153.3 395.547 151.467 400.474 130.341C393.778 129.424 386.989 129.02 380.26 128.394L306.838 121.881C300.876 121.35 294.772 120.525 288.789 120.459C287.868 154.57 269.021 135.092 254.506 161.025C247.915 172.8 243.866 230.514 242.463 245.68L231.63 353.269C229.84 369.707 228.642 386.399 226.163 402.748ZM326.206 342.579C322.03 344.106 318.139 346.557 314.271 348.731C311.024 356.946 310.489 358.535 304.755 366.048C335.135 370.132 362.778 372.455 392.733 381.856C398.063 383.529 403.308 385.516 408.675 387.057C409.269 383.276 409.501 379.459 409.853 375.652L416.976 296.715C415.335 299.754 414.134 306.966 413.103 310.665C409.36 324.091 400.576 346.713 387.737 354.415C388.745 352.081 390.912 350.007 392.212 347.751C397.554 338.48 399.567 328.186 396.715 317.754C384.037 271.38 310.377 288.255 326.206 342.579ZM226.163 414.851C227.972 434.703 243.658 439.613 259.985 441.061L348.368 448.935C352.185 449.24 356.216 449.313 359.987 449.933C379.506 451.929 394.652 452.79 402.778 431.988C362.634 418.428 312.236 408.85 269.321 410.736C263.359 411.365 257.339 411.341 251.365 411.924C242.959 412.744 234.557 414.142 226.163 414.851ZM275.98 313.098C284.559 326.568 288.965 337.643 293.554 353.174C296.572 340.051 293.632 320.107 280.744 313.098C279.149 312.781 277.585 313.003 275.98 313.098ZM264.553 316.744C246.239 329.908 251.396 357.279 272.669 362.359C276.181 362.947 279.72 363.003 283.222 363.503C281.535 355.43 270.876 321.294 264.553 316.744ZM284.379 62.1455C274.097 67.8838 275.111 79.2499 274.168 89.2945C273.642 94.9078 272.615 100.537 272.669 106.181C275.724 106.72 278.886 106.862 281.978 107.133L343.941 112.746C346.91 113.035 349.836 113.576 352.794 113.905C351.518 112.969 324.075 106.768 320.501 105.845C306.493 102.227 292.794 98.9301 285.585 84.7106C281.751 77.1466 281.758 70.1086 284.379 62.1455Z"/>
	<path transform="scale(2 2)" d="M281.946 171.75C335.019 169.572 338.574 241.648 292.199 247.901C261.051 253.819 236.584 214.764 255.82 187.297C262.653 177.54 270.516 173.735 281.946 171.75ZM272.669 187.652C260.617 197.368 256.466 213.518 266.855 226.206C271.113 231.406 274.541 232.032 279.604 235.513C283.392 236.113 286.907 236.346 290.735 236.048C288.711 220.863 284.041 199.402 272.952 187.754L272.669 187.652ZM301.732 227.695C306.553 213.563 302.043 193.969 290.735 184.191C288.48 183.656 286.637 183.83 284.379 184.191C290.307 193.628 294.961 202.933 298.015 213.69C299.312 218.26 299.912 223.33 301.732 227.695Z"/>
	<path fill="#FF5D15" transform="scale(2 2)" d="M290.735 184.191C302.335 182.385 326.996 213.396 301.732 231.733C301.646 230.36 301.617 229.069 301.732 227.695C306.553 213.563 302.043 193.969 290.735 184.191Z"/>
	<path transform="scale(2 2)" d="M374.9 182.505C408.462 180.781 427.99 221.657 404.638 246.847C398.61 253.349 389.504 257.914 380.563 258.245C330.796 259.5 324.142 189.04 374.9 182.505ZM371.529 245.69C374.984 245.867 378.348 246.072 381.798 245.69C380.527 234.625 372.404 206.439 363.437 199.093C344.046 213.534 350.184 236.694 371.529 245.69ZM392.922 237.711L392.957 237.699C393.653 236.804 394.161 230.346 394.3 228.775C395.368 216.763 391.234 205.026 383.569 195.866C380.681 194.934 377.902 194.964 374.9 195.004C386.593 211.671 387.241 220.462 392.922 237.711Z"/>
	<path fill="#FF5D15" transform="scale(2 2)" d="M383.569 195.866C401.017 196.791 410.406 228.332 392.922 241.149C392.93 240.003 392.944 238.857 392.922 237.711L392.957 237.699C393.653 236.804 394.161 230.346 394.3 228.775C395.368 216.763 391.234 205.026 383.569 195.866Z"/>
	<path fill="#FF5D15" transform="scale(2 2)" d="M255.187 276.196C258.426 279.778 264.917 277.529 269.101 277.133C310.901 273.179 362.073 278.15 401.829 289.674C405.793 290.823 417.978 292.365 416.976 296.715C415.335 299.754 414.134 306.966 413.103 310.665C409.36 324.091 400.576 346.713 387.737 354.415C377.612 363.407 364.318 367.887 350.886 364.241C338.184 360.792 332.248 353.199 326.206 342.579C322.03 344.106 318.139 346.557 314.271 348.731C314.711 344.358 315.935 340.826 315.58 336.276C313.098 304.522 274.729 288.476 252.823 310.404C250.86 312.369 249.206 314.619 247.424 316.744C246.929 310.978 248.562 304.63 249.214 298.891C250.083 291.243 248.981 281.735 255.187 276.196ZM387.737 354.415C388.745 352.081 390.912 350.007 392.212 347.751C397.554 338.48 399.567 328.186 396.715 317.754C384.037 271.38 310.377 288.255 326.206 342.579C332.248 353.199 338.184 360.792 350.886 364.241C364.318 367.887 377.612 363.407 387.737 354.415Z"/>
	<path transform="scale(2 2)" d="M326.206 342.579C310.377 288.255 384.037 271.38 396.715 317.754C399.567 328.186 397.554 338.48 392.212 347.751C390.912 350.007 388.745 352.081 387.737 354.415C377.612 363.407 364.318 367.887 350.886 364.241C338.184 360.792 332.248 353.199 326.206 342.579ZM355.664 353.174C358.783 353.68 362.661 353.777 365.768 353.174C365.742 344.417 353.903 311.551 347.051 307.215C329.321 320.21 333.65 347.543 355.664 353.174ZM359.987 302.673L358.966 302.782L358.732 303.081C359.384 305.422 362.237 309.091 363.555 311.341C370.27 322.804 371.617 332.344 376.71 342.579C379.128 326.003 375.814 311.059 359.987 302.673Z"/>
	<path fill="#FF5D15" transform="scale(2 2)" d="M359.987 302.673C363.029 301.682 370.093 304.295 372.898 305.742C388.798 313.946 390.157 335.035 376.71 346.643C376.521 345.426 376.448 343.789 376.71 342.579C379.128 326.003 375.814 311.059 359.987 302.673Z"/>
	<path fill="#FF5D15" transform="scale(2 2)" d="M284.379 62.1455C292.261 56.3701 303.391 58.9682 312.303 59.9154L397.429 68.1021C409.421 69.1328 422.166 69.7294 424.105 85.5729C425.124 93.8928 421.483 110.172 421.283 119.928C398.502 118.074 375.632 114.803 352.794 113.905C351.518 112.969 324.075 106.768 320.501 105.845C306.493 102.227 292.794 98.9301 285.585 84.7106C281.751 77.1466 281.758 70.1086 284.379 62.1455Z"/>
	<path fill="#FF5D15" transform="scale(2 2)" d="M243.726 353.174C245.489 354.753 246.159 357.004 247.469 358.907C259.782 376.795 276.844 375.467 296.205 377.509C335.892 381.694 369.983 386.396 407.513 399.759C406.747 406.41 405.956 413.081 405.447 419.757C383.26 412.316 366.764 408.966 344.543 404.232C340.88 402.05 324.917 400.38 319.899 399.607L256.298 389.358C238.093 386.354 239.826 388.704 242.008 368.623C242.562 363.528 242.75 358.199 243.726 353.174Z"/>
	<path fill="#FF5D15" transform="scale(2 2)" d="M280.744 313.098C289.979 309.789 310.445 331.19 300.727 350.379C299.185 353.425 296.892 356.011 294.75 358.642C294.209 356.814 293.753 355.074 293.554 353.174C296.572 340.051 293.632 320.107 280.744 313.098Z"/>
	<path transform="scale(2 2)" d="M111.71 269.748C125.938 267.919 142.093 275.344 150.857 286.342C153.332 289.448 155.431 292.988 157.663 296.284L186.71 339.918C189.566 344.221 192.837 348.422 195.184 353.027C202.16 366.713 200.197 385.442 191.184 397.62C183.008 408.665 172.356 412.862 159.437 414.851C134.56 415.247 124.646 402.948 111.694 384.114C102.401 370.603 93.3717 355.186 83.4969 342.297C80.8304 338.817 77.896 335.76 75.7479 331.891C60.186 303.868 81.6415 274.387 111.71 269.748ZM107.372 337.426C96.4177 324.574 89.5801 306.13 95.1755 289.535C84.5399 297.776 79.8525 313.682 86.5359 325.851C88.9025 330.16 97.2721 341.308 100.542 345.094C102.755 342.469 105.02 339.927 107.372 337.426ZM127.434 383.603C135.897 399.193 147.805 404.227 164.687 401.591C164.099 401.091 156.822 398.727 154.81 397.557C143.827 391.172 141.312 384.483 134.145 375.976L133.965 375.766C131.648 378.261 129.528 380.919 127.434 383.603ZM107.372 356.188L114.511 366.771C116.058 369.076 117.528 371.522 119.334 373.632C121.694 371.124 123.777 368.08 126.568 366.048C122.89 359.777 118.157 354.168 114.567 347.765C112.09 350.395 109.37 353.175 107.372 356.188Z"/>
	<path fill="#FF5D15" transform="scale(2 2)" d="M95.1755 289.535C100.997 284.084 109.794 281.883 117.563 282.153C134.937 282.756 143.415 295.707 151.255 309.155C135.36 314.97 119.431 325.601 107.372 337.426C96.4177 324.574 89.5801 306.13 95.1755 289.535Z"/>
	<path fill="#FF5D15" transform="scale(2 2)" d="M133.965 375.766C142.772 363.683 162.221 351.09 176.295 346.643C182.42 354.408 188.252 364.572 187.024 374.788C185.5 387.459 176.537 397.505 164.687 401.591C164.099 401.091 156.822 398.727 154.81 397.557C143.827 391.172 141.312 384.483 134.145 375.976L133.965 375.766Z"/>
	<path fill="#FF5D15" transform="scale(2 2)" d="M114.567 347.765C122.894 337.13 147.16 323.158 159.437 319.64C161.056 325.378 166.333 331.014 169.519 336.125C153.106 342.203 137.47 352.178 126.568 366.048C122.89 359.777 118.157 354.168 114.567 347.765Z"/>
	<path transform="scale(2 2)" d="M127.434 164.608C146.348 162.756 157.622 178.438 169.397 190.353C177.061 198.108 190.498 209.909 195.739 218.618C203.08 230.817 200.634 248.669 191.453 259.104C184.315 267.216 175.213 270.579 164.687 271.217C145.254 271.149 138.099 261.479 125.576 249.491C112.657 237.124 93.6824 223.175 92.1018 204.268C90.3576 183.405 107.039 166.163 127.434 164.608ZM126.568 233.341C128.982 230.955 131.385 228.593 133.965 226.386C122.464 218.139 109.215 202.315 109.782 187.652C100.931 195.206 103.588 209.361 110.39 217.294C115.303 223.024 121.09 228.163 126.568 233.341ZM135.595 241.945C147.037 254.264 165.061 267.784 180.488 252.703C157.785 252.062 160.374 251.127 142.038 235.513C139.754 237.499 137.697 239.769 135.595 241.945Z"/>
	<path fill="#FF5D15" transform="scale(2 2)" d="M109.782 187.652C113.354 177.041 132.775 173.806 142.234 180.91C147.434 184.815 156.127 194.154 160.945 199.093C152.817 207.984 141.077 217.499 133.965 226.386C122.464 218.139 109.215 202.315 109.782 187.652Z"/>
	<path fill="#FF5D15" transform="scale(2 2)" d="M169.519 207.953C181.294 219.7 197.653 235.548 181.087 252.115L180.488 252.703C157.785 252.062 160.374 251.127 142.038 235.513L160.44 217.183C163.474 214.133 166.628 211.137 169.519 207.953Z"/>
</svg>
