<?xml version="1.0" encoding="utf-8" ?>
<svg xmlns="http://www.w3.org/2000/svg" xmlns:xlink="http://www.w3.org/1999/xlink" width="1024" height="1024">
	<path transform="scale(2 2)" d="M177.78 106.251C206.272 102.351 237.885 140.348 250.366 161.905C251.609 164.052 252.956 167.778 255.258 169.001C257.549 168.886 259.784 168.397 262.068 168.233C269.517 167.696 273.704 176.418 268.493 181.677C271.582 186.175 277.141 192.784 281.423 196.059C292.172 192.493 300.519 198.437 292.967 208.157C295.572 210.534 298.393 212.574 301.402 214.405C303.31 213.441 305.333 212.37 307.43 211.891C314.867 210.192 318.962 218.12 314.799 223.779C319.339 226.798 327.145 230.757 332.317 232.496C336.225 231.417 341.295 228.384 345.298 230.059C349.695 231.898 350.414 236.904 348.514 240.81C349.911 241.536 351.326 242.176 352.773 242.796C355.869 241.295 358.59 238.905 362.223 239.003C370.179 239.219 368.327 247.041 369.328 248.274C370.796 250.08 407.24 261.991 415.552 263.917C430.2 267.312 447.002 266.307 458.982 276.794C468.664 285.27 475.694 308.334 476.462 321.499C477.536 339.897 462.81 351.261 449.416 360.927C413.252 387.024 367.488 400.137 323.03 400.604C318.224 400.654 313.405 400.29 308.605 400.506C270.364 399.306 225.275 384.271 190.716 369.324C164.851 358.137 162.384 361.013 134.998 360.065C110.197 359.206 91.9675 354.707 68.7147 346.369C53.0875 340.766 44.6175 340.097 39.2459 322.684C34.6685 307.845 35.6691 291.06 43.0065 277.299C40.3757 231.162 44.833 199.19 64.5202 155.822C66.3253 151.846 68.2734 145.818 72.0781 143.464C86.3253 134.647 107.671 138.746 116.993 152.894C118.492 155.17 119.581 157.695 121.032 160.002C127.817 170.787 145.163 175.4 156.899 178.055C158.585 177.538 160.033 176.814 161.591 175.999C151.6 154.834 147.789 111.818 177.78 106.251ZM142.737 308.892C149.952 310.648 157.224 312.214 164.408 314.09C211.609 326.42 259.591 349.222 308.751 349.446C313.584 349.468 318.399 349.17 323.234 349.366C324.668 343.595 326.123 337.715 326.581 331.768C326.786 329.099 325.691 322.338 328.018 320.496C339.596 311.33 331.653 346.563 331.193 348.494C334.422 348.581 337.679 348.606 340.906 348.494C341.055 343.792 342.632 339.313 343.274 334.67C344.386 326.621 343.876 319.242 343.191 311.245C322.052 311.636 298.431 310.46 279.058 301.104C253.518 288.769 224.316 260.388 204.142 240.707C198.2 234.91 186.51 220.535 177.306 221.866C171.799 222.662 154.579 229.755 148.955 232.496C159.013 239.209 176.486 245.652 187.784 251.258C201.965 258.295 234.885 277.38 246.187 288.5C251.154 293.387 253.03 299.2 249.021 305.512C240.985 318.166 212.839 306.414 201.7 302.564C191.013 298.869 180.307 295.187 169.38 292.255C150.959 287.311 142.361 286.804 142.737 308.892ZM56.2501 325.801C80.7071 335.722 104.319 344.369 131.157 345.599C138.3 345.927 145.426 345.472 152.566 345.559C173.184 345.811 185.109 350.868 203.91 358.401C268.858 384.426 333.572 398.668 401.315 369.974C419.14 362.424 438.057 352.653 452.485 339.571C456.56 335.732 459.397 332.511 461.613 327.304C399.672 378.017 305.925 375.045 233.564 351.283C201.092 340.62 169.619 327.6 136.422 319.126C113.506 313.276 91.0835 307.38 69.0548 298.614C63.5523 296.424 58.2684 293.671 52.7254 291.588C50.0402 301.915 50.9836 316.376 56.2501 325.801ZM67.9544 191.249C77.2488 183.796 76.934 192.607 80.6625 199.664C91.5677 220.303 113.807 218.152 132.867 219.127C135.627 221.393 138.33 224.197 140.544 226.997C144.593 224.962 149.265 223.961 153.509 222.358C186.717 209.814 184.369 210.504 210.259 236.348C223.27 249.336 236.908 261.833 251.32 273.253C281.729 297.349 302.479 305.83 340.906 303.724C336.18 291.247 331.158 286.801 322.309 278.175L317.822 281.337C317.752 284.312 317.733 287.661 316.158 290.308C310.655 300.953 295.639 297.513 294.767 285.47C294.446 277.711 298.615 273.399 306.184 272.069C306.999 271.418 307.8 270.749 308.605 270.084C304.327 267.427 299.394 264.772 294.767 262.79C292.423 264.561 290.07 265.81 288.023 267.985C288.345 270.161 288.003 272.397 286.938 274.336C280.809 286.554 263.803 283.445 264.821 267.985C263.332 260.22 272.383 256.348 278.773 256.724C279.642 255.984 280.534 255.274 281.423 254.559C277.041 251.278 272.163 248.401 267.58 245.4C265.187 246.849 262.372 247.691 260.095 249.254C259.76 250.691 259.493 252.165 258.893 253.517C255.253 263.606 239.223 264.265 238.559 247.727C238.408 237.302 246.381 234.874 255.258 235.446L255.343 235.187C251.742 231.668 245.841 227.162 243.144 223.202C240.909 224.514 238.657 225.772 236.373 226.997C235.988 229.074 235.477 231.411 234.403 233.252C227.86 247.948 206.853 235.752 215.414 219.962C217.977 215.419 226.295 212.611 231.458 212.287C226.933 208.393 222.893 203.837 218.583 199.696C216.635 200.477 214.507 201.321 213.019 202.848C212.63 205.179 212.112 207.412 210.951 209.497C205.743 220.248 190.377 215.858 189.664 202.848C188.118 193.65 196.754 188.617 204.772 190.372C209.234 188.021 201.527 185.926 199.016 185.119C170.056 175.81 140.522 214.289 108.369 204.273C90.9921 198.859 82.264 182.224 75.3967 166.753C73.2198 171.457 66.269 186.636 67.9544 191.249ZM350.608 311.245C352.836 327.514 350.088 333.253 348.514 347.61C355.694 347.311 362.775 345.798 369.939 345.722C373.785 344.628 377.764 344.222 381.703 343.593C404.864 339.89 442.266 328.667 458.73 310.275C455.83 295.196 452.169 283.323 434.413 282.169C427.515 306.589 387.371 308.412 366.472 310.119C361.366 310.535 355.556 310.061 350.608 311.245ZM174.851 170.615C193.576 166.704 206.374 169.386 220.422 181.677C223.919 179.622 227.645 178.151 231.458 176.8C219.26 151.897 202.287 128.904 171.572 128.726C165.764 142.092 168.628 157.861 174.851 170.615ZM109.868 300.791C112.753 301.556 115.627 302.295 118.548 302.909C116.068 290.365 106.931 257.877 101.211 249.159C91.9864 235.099 68.4118 232.165 63.7627 210.898C63.381 209.152 63.4817 207.35 62.593 205.743C61.5253 208.77 58.1852 221.5 59.3382 224.037C60.1585 225.841 64.5038 228.629 66.2516 229.963C89.4384 247.662 95.6204 249.152 104.059 279.306C105.911 285.923 108.482 293.582 109.762 300.249L109.868 300.791ZM57.962 233.252C54.8484 243.733 56.1267 269.08 57.962 280.225C71.2458 283.983 83.785 293.84 100.689 297.835L101.277 297.815C102.016 295.043 92.8015 266.584 89.1844 260.389C83.5932 250.811 67.8598 239.992 57.962 233.252ZM355.763 258.282C353.911 259.405 352.281 260.6 350.608 261.976C358.095 264.254 390.245 274.251 394.428 273.711C382.816 267.676 368.204 264.574 355.763 258.282ZM231.458 192.76C234.132 195.154 243.119 205.657 246.184 205.743C245.839 199.649 244.09 194.299 243.144 188.373C239.268 189.681 235.113 190.931 231.458 192.76ZM344.084 293.744C346.184 296.953 347.283 300.113 348.514 303.724C368.741 302.392 417.382 302.681 427.521 281.337C426.039 280.906 424.573 280.428 423.039 280.225C408.153 291.23 362.01 293.764 344.084 293.744ZM87.8646 153.768C88.6055 165.245 95.4905 178.203 104.139 185.721C113.049 193.465 123.585 191.776 133.931 188.373L136.458 187.238C125.664 183.085 113.777 177.289 108.034 166.629C103.099 157.47 100.053 153.341 87.8646 153.768Z"/>
	<path fill="#FF5D15" transform="scale(2 2)" d="M64.1234 200.652C77.7572 230.361 107.66 240.643 138.255 234.721C141.309 234.13 145.961 232.354 148.955 232.496C159.013 239.209 176.486 245.652 187.784 251.258C201.965 258.295 234.885 277.38 246.187 288.5C251.154 293.387 253.03 299.2 249.021 305.512C240.985 318.166 212.839 306.414 201.7 302.564C191.013 298.869 180.307 295.187 169.38 292.255C150.959 287.311 142.361 286.804 142.737 308.892C134.659 307.027 126.559 305.041 118.548 302.909C116.068 290.365 106.931 257.877 101.211 249.159C91.9864 235.099 68.4118 232.165 63.7627 210.898C63.381 209.152 63.4817 207.35 62.593 205.743C62.752 203.936 63.4132 202.303 64.1234 200.652Z"/>
	<path fill="#FF5D15" transform="scale(2 2)" d="M329.217 273.711C335.043 270.141 344.31 263.664 350.608 261.976C358.095 264.254 390.245 274.251 394.428 273.711C401.211 273.892 413.633 279.328 423.039 280.225C408.153 291.23 362.01 293.764 344.084 293.744C341.793 286.345 334.714 278.916 329.217 273.711Z"/>
	<path fill="#FF5D15" transform="scale(2 2)" d="M171.572 128.726C175.27 118.915 181.79 119.548 190.63 122.95C210.892 130.746 231.395 154.857 240.767 174.005C237.646 174.883 234.523 175.74 231.458 176.8C219.26 151.897 202.287 128.904 171.572 128.726Z"/>
	<path fill="#FF5D15" transform="scale(2 2)" d="M67.9544 191.249C77.2488 183.796 76.934 192.607 80.6625 199.664C91.5677 220.303 113.807 218.152 132.867 219.127C135.627 221.393 138.33 224.197 140.544 226.997C104.421 231.209 85.0186 226.284 67.9544 191.249Z"/>
	<path fill="#FF5D15" transform="scale(2 2)" d="M275.779 212.287C276.861 212.135 286.675 221.686 288.023 223.202C282.504 224.038 273.574 227.113 268.493 229.495L255.928 217.825C262.579 216.089 269.165 214.155 275.779 212.287Z"/>
	<path fill="#FF5D15" transform="scale(2 2)" d="M264.821 267.985C263.332 260.22 272.383 256.348 278.773 256.724C272.443 260.676 266.125 270.302 276.011 272.581C279.759 273.446 284.464 269.194 288.023 267.985C288.345 270.161 288.003 272.397 286.938 274.336C280.809 286.554 263.803 283.445 264.821 267.985Z"/>
	<path transform="scale(2 2)" d="M264.821 267.985C265.306 269.083 265.512 270.267 265.985 271.361C269.978 280.597 280.009 279.488 286.938 274.336C280.809 286.554 263.803 283.445 264.821 267.985Z"/>
	<path fill="#FF5D15" transform="scale(2 2)" d="M189.664 202.848C188.118 193.65 196.754 188.617 204.772 190.372L204.392 190.692C201.471 193.12 197.374 194.708 196.911 199.017C195.637 210.867 207.431 206.096 213.019 202.848C212.63 205.179 212.112 207.412 210.951 209.497C205.743 220.248 190.377 215.858 189.664 202.848Z"/>
	<path transform="scale(2 2)" d="M189.664 202.848C189.695 202.489 189.636 201.936 189.897 201.691C192.625 209.012 199.179 214.28 207.222 211.331C208.503 210.861 209.656 209.75 210.951 209.497C205.743 220.248 190.377 215.858 189.664 202.848Z"/>
	<path fill="#FF5D15" transform="scale(2 2)" d="M231.458 212.287L231.823 212.493C230.37 214.797 222.133 216.042 220.422 223.779C223.033 234.526 229.449 230.282 236.373 226.997C235.988 229.074 235.477 231.411 234.403 233.252C227.86 247.948 206.853 235.752 215.414 219.962C217.977 215.419 226.295 212.611 231.458 212.287Z"/>
	<path transform="scale(2 2)" d="M215.414 219.962L215.429 220.444C215.457 221.728 215.171 223.006 215.222 224.285C215.647 234.987 225.539 238.295 234.403 233.252C227.86 247.948 206.853 235.752 215.414 219.962Z"/>
	<path fill="#FF5D15" transform="scale(2 2)" d="M238.559 247.727C238.408 237.302 246.381 234.874 255.258 235.446C252.016 238.053 246.138 239.258 245.451 244.051C244.011 254.094 254.157 252.364 260.095 249.254C259.76 250.691 259.493 252.165 258.893 253.517C255.253 263.606 239.223 264.265 238.559 247.727Z"/>
	<path transform="scale(2 2)" d="M238.559 247.727C240.775 251.226 243.044 255.258 247.398 256.348C253.842 257.96 255.444 254.209 258.893 253.517C255.253 263.606 239.223 264.265 238.559 247.727Z"/>
	<path fill="#FF5D15" transform="scale(2 2)" d="M243.144 188.373C246.663 187.33 250.176 186.276 253.724 185.338C257.136 190.65 261.606 195.307 264.821 200.652C258.754 201.305 251.701 203.116 246.184 205.743C245.839 199.649 244.09 194.299 243.144 188.373Z"/>
	<path fill="#FF5D15" transform="scale(2 2)" d="M294.767 285.47C294.446 277.711 298.615 273.399 306.184 272.069C304.03 275.456 299.007 277.761 299.715 282.381C301.657 295.037 314.076 283.722 317.822 281.337C317.752 284.312 317.733 287.661 316.158 290.308C310.655 300.953 295.639 297.513 294.767 285.47Z"/>
	<path transform="scale(2 2)" d="M294.767 285.47C298.181 291.887 304.683 297.552 312.129 293.159C313.384 292.418 314.799 290.653 316.158 290.308C310.655 300.953 295.639 297.513 294.767 285.47Z"/>
	<path fill="#FF5D15" transform="scale(2 2)" d="M301.402 232.496C302.263 232.649 311.307 238.394 313.173 239.414C307.086 242.029 300.361 244.174 294.767 247.727C290.723 244.824 286.395 242.358 282.367 239.414C288.709 237.92 295.517 235.307 301.402 232.496Z"/>
	<path fill="#FF5D15" transform="scale(2 2)" d="M331.193 248.248C332.796 248.191 336.901 250.552 338.539 251.322C335.982 253.014 320.828 263.056 318.623 261.976C315.579 260.167 312.469 258.461 309.383 256.724C316.397 253.444 323.818 250.611 331.193 248.248Z"/>
</svg>
