<?xml version="1.0" encoding="utf-8" ?>
<svg xmlns="http://www.w3.org/2000/svg" xmlns:xlink="http://www.w3.org/1999/xlink" width="1024" height="1024">
	<path transform="scale(2 2)" d="M226.232 71.3199C233.072 71.1032 239.863 71.422 246.651 72.2986C260.582 74.0977 256.143 73.3369 269.357 71.8664C279.527 70.7347 290.26 71.3608 300.375 72.6776C382.507 83.3704 421.788 151.121 428.761 227.753C429.961 240.947 429.81 254.284 431.485 267.411C434.355 289.893 440.603 310.77 437.491 333.763C434.441 356.293 422.255 379.602 403.875 393.541C400.312 396.243 388.89 406.376 384.83 400.329C382.454 396.79 386.006 392.271 386.723 388.641C380.991 397.892 371.795 412.181 380.486 422.507C382.878 425.348 389.322 431.453 381.65 434.438C377.456 436.069 372.219 431.483 369.187 429.122C360.009 421.975 354.475 413.462 350.705 402.528C345.62 418.194 350.87 420.999 352.769 432.965C353.905 440.123 346.219 442.534 341.038 438.182C324.859 424.592 318.92 398.195 318.27 377.858C318.021 370.1 318.931 362.128 318.244 354.435C311.543 364.559 294.457 377.347 283.369 382.494C256.971 395.224 227.678 386.54 206.375 367.812C202.279 364.211 199.167 359.289 194.63 356.227C197.746 379.233 194.863 408.097 180.467 427.101C176.403 432.467 170.824 439.478 163.752 440.45C155.753 438.069 158.293 432.57 160.918 426.53C164.084 419.246 164.384 412.02 162.515 404.275C156.808 415.797 151.042 423.53 140.014 431.039C136.595 433.367 130.817 436.51 128.012 431.569C122.52 421.895 147.18 424.214 125.256 387.87C126.718 393.218 132.201 400.341 123.944 402.528C117.65 399.734 109.161 393.619 103.981 389.008C73.145 361.555 69.8316 325.641 77.6834 287.638C79.6426 278.155 82.1706 268.863 83.8106 259.304C86.3189 244.684 87.1423 229.838 89.2796 215.164C100.683 136.873 141.474 76.1655 226.232 71.3199ZM234.185 369.645C272.515 386.628 303.818 356.093 322.356 325.187C340.399 295.106 348.548 259.887 349.957 225.033C350.153 220.189 350.631 214.975 350.136 210.163C341.27 200.411 332.362 192.81 320.624 186.679C309.772 181.01 299.282 176.057 291.328 166.387C289.939 164.698 287.99 161.121 286.431 159.927C254.654 192.36 202.555 181.066 172.215 228.145C161.702 244.459 163.985 247.168 167.708 265.623C175.782 305.652 195.665 350.622 234.185 369.645ZM287.419 88.6376C291.639 88.2698 295.558 88.6885 299.748 89.1708C370.597 97.3254 404.759 168.573 410.244 233.077C411.198 244.293 410.239 255.511 411.826 266.703C418.461 313.499 429.362 331.752 398.75 374.465C398.806 377.6 398.754 380.745 398.75 383.881C416.997 370.434 428.202 342.406 427.936 320.375C427.724 302.832 423.153 285.932 421.307 268.592C416.099 219.681 419.174 190.287 392.437 143.532C369.036 102.61 328.648 82.6459 281.545 83.2068C283.926 84.8086 285.6 86.4136 287.419 88.6376ZM247.884 166.1C253.55 164.918 263.993 159.292 268.528 155.949C286.76 142.511 291.114 109.599 277.884 91.9673C272.82 85.2177 270.019 85.3258 262.677 84.2977C283.349 105.127 276.873 145.5 253.426 162.507C251.887 163.623 248.992 164.647 247.884 166.1Z"/>
	<path fill="#FF5D15" transform="scale(2 2)" d="M116.425 389.596C106.156 379.683 94.0164 363.117 89.1907 349.749C78.7934 320.947 88.7028 292.904 93.9089 264.644C96.4532 250.833 97.0913 236.873 99.1052 223.013C105.447 179.372 119.249 134.334 156.106 106.838C188.853 82.4073 223.929 78.6429 262.677 84.2977C283.349 105.127 276.873 145.5 253.426 162.507C251.887 163.623 248.992 164.647 247.884 166.1C218.862 178.005 195.354 180.045 171.4 205.699C147.213 231.604 136.92 270.662 141.805 305.545C143.358 316.637 148.092 334.565 156.428 342.317C156.255 339.838 155.721 337.381 155.329 334.929C151.993 314.04 148.847 291.209 154.727 270.612C156.97 287.386 165.093 309.01 172.817 324.026C180.512 338.984 182.858 371.681 180.643 387.325C179.532 395.173 177.148 402.386 174.734 409.9C169.594 390.817 160.606 376.332 141.575 367.748C154.752 381.878 158.406 396.546 145.488 411.972C142.986 388.94 133.104 386.605 128.065 371.544C127.485 369.81 128.282 368.138 127.883 366.49C127.617 365.39 126.418 365.083 126.5 363.764C126.773 359.361 134.422 352.328 137.528 349.344C118.326 356.968 110.084 369.155 116.425 389.596Z"/>
	<path transform="scale(2 2)" d="M220.262 101.234C234.652 100.37 251.043 102.038 262.677 111.136C173.575 100 136.561 164.134 122.309 241.047C119.666 253.284 118.737 265.848 116.425 278.153C113.35 268.076 114.162 253.545 114.832 243.188C118.738 182.8 152.879 109.046 220.262 101.234Z"/>
	<path transform="scale(2 2)" d="M239.273 131.201C247.254 130.737 255.196 131.459 262.677 134.42C212.511 142.346 188.027 156.888 158.484 198.795C155.146 203.614 152.419 208.812 149.109 213.622C149.879 209.497 150.195 205.395 151.293 201.312C160.845 165.789 202.425 131.682 239.273 131.201Z"/>
	<path fill="#FF5D15" transform="scale(2 2)" d="M287.419 88.6376C291.639 88.2698 295.558 88.6885 299.748 89.1708C370.597 97.3254 404.759 168.573 410.244 233.077C411.198 244.293 410.239 255.511 411.826 266.703C418.461 313.499 429.362 331.752 398.75 374.465C396.382 362.681 391.961 354.906 379.482 352.783C384.275 357.105 387.128 363.356 388.163 369.645C379.869 386.021 369.72 389.753 367.265 413.08C355.314 397.133 356.995 379.73 370.749 365.511C348.088 375.482 342.129 395.082 337.592 416.448C329.243 393.954 327.489 376.953 329.944 352.544C331.484 337.229 331.75 337.169 338.5 324.621C351.976 299.57 362.268 260.891 363.348 231.693C376.644 256.511 374.917 304.528 368.251 331.358C366.131 339.891 363.079 348.125 359.701 356.227C384.098 327.873 390.363 296.891 385.202 259.803C380.591 226.673 366.358 198.465 337.725 179.871C325.711 172.069 311.673 168.211 302.261 156.755C292.048 144.324 297.967 138.856 299.263 125.234C383.003 144.425 385.292 189.81 401.774 259.038C401.892 255.152 402.382 251.286 402.466 247.397C403.282 209.552 392.085 164.709 360.056 141.712C343.078 129.521 320.204 121.818 299.263 125.234C300.058 112.638 296.614 97.6876 287.419 88.6376Z"/>
</svg>
