<?xml version="1.0" encoding="utf-8" ?>
<svg xmlns="http://www.w3.org/2000/svg" xmlns:xlink="http://www.w3.org/1999/xlink" width="1024" height="1024">
	<path transform="scale(2 2)" d="M200.487 115.247C234.738 114.43 281.223 121.623 306.33 147.698C336.021 126.846 397.691 109.11 424.882 143.523C441.426 164.461 441.036 191.516 438.144 216.657C465.595 229.248 484.013 259.875 481.752 290.008C480.835 302.238 476.667 313.852 467.036 321.84C464.395 324.031 461.22 325.462 458.64 327.723L458.349 327.982C457.26 351.746 470.005 369.803 437.498 374.653L423.871 376.692C395.594 380.924 362.047 385.453 333.434 386.804C318.489 388.403 303.216 389.017 288.197 389.599C219.52 392.261 154.059 389.07 86.0404 380.556C65.6847 378.008 62.5118 376.217 61.0988 355.162C60.4146 344.966 59.8468 334.684 59.4564 324.471C47.8807 321.151 36.115 317.015 32.0948 304.22C21.7823 271.399 65.7081 224.593 94.3938 215.626C91.7993 193.743 91.6689 170.441 106.354 152.357C127.326 126.53 168.632 118.557 200.487 115.247ZM343.965 224.541C353.681 230.941 361.745 238.146 364.179 250.038C367.96 268.507 347.267 311.051 337.477 325.863C325.677 343.719 339.539 302.275 340.068 300.628C343.282 290.619 343.573 291.888 339.983 281.649C332.381 259.966 324.357 243.43 303.493 232.335C296.191 233.71 288.246 235.184 281.196 237.441C300.261 252.255 291.658 265.718 281.384 283.215C278.276 288.509 253.536 331.989 247.338 326.22C245.269 320.904 252.827 306.382 255.708 300.653C253.49 284.042 248.076 260.808 235.465 249.159C226.866 252.64 217.959 255.309 209.365 258.899C188.036 267.807 148.449 287.703 139.028 309.883C135.662 317.807 135.508 327.903 141.516 334.589C153.658 346.082 181.739 341.142 197.538 340.044L230.823 338.055C251.839 336.798 272.946 336.348 293.993 335.795L367.16 333.749C383.403 333.434 399.675 333.353 415.885 332.169C443.85 330.126 470.576 325.641 469.618 291.358C468.752 260.377 447.88 231.282 416.944 224.541C439.664 247.17 421.686 287.009 406.96 308.983C404.825 312.169 402.76 315.514 399.989 318.198C399.947 310.912 402.382 303.074 404.729 296.204C408.02 286.573 408.722 287.077 405.423 277.219C396.787 251.414 383.155 237.254 360.411 222.845C359.398 222.758 358.464 222.749 357.451 222.845C352.982 223.416 348.451 224.186 343.965 224.541ZM185.978 163.472C187.315 161.182 193.049 141.188 197.965 149.53C199.454 152.057 197.045 158.188 196.349 160.891C207.021 160.369 217.278 157.07 228.163 158.1C230.449 154.149 235.73 140.154 240.495 139.559L240.856 139.86C241.731 143.202 238.177 153.743 236.855 157.417C245.986 157.598 255.206 158.79 264.093 160.891C266.356 157.88 271.264 149.113 274.798 148.093C277.671 149.04 272.381 161.277 271.558 163.472C275.199 164.001 279.263 165.42 282.609 166.96C286.312 163.148 290.609 159.715 294.099 155.755C264.091 132.976 224.154 126.973 187.426 132.024C165.675 135.015 131.268 144.877 117.485 163.284C103.953 181.355 107.162 210.31 113.655 230.973C114.724 229.24 115.468 223.818 116.08 221.509C124.385 190.213 157.626 173.292 185.978 163.472ZM428.067 336.283L428.246 336.607C434.766 337.831 444.145 335.022 452.008 336.283C452.702 333.813 453.75 331.401 454.665 329.003C446.141 332.269 437.07 334.776 428.067 336.283ZM276.473 211.575C280.715 205.869 284.108 199.889 289.109 194.724C311.733 171.354 377.151 146.675 410.108 158.523C413.469 159.732 416.442 161.578 419.446 163.472C398.046 107.097 277.112 159.766 276.473 211.575ZM95.4221 221.279C78.2864 227.843 56.0234 256.735 49.0105 272.442C38.5555 295.859 42.1519 305.632 66.9765 311.175C72.4677 312.401 119.429 320.841 121.728 320.415C121.962 319.662 122.038 318.984 122.092 318.198C120.392 315.293 119.526 312.248 118.526 309.059C115.115 298.885 116.806 288.053 114.498 277.677C111.812 265.597 106.296 254.344 102.126 242.752C99.5852 235.688 98.0169 228.275 95.4221 221.279Z"/>
	<path fill="#FF5D15" transform="scale(2 2)" d="M228.163 158.1C230.449 154.149 235.73 140.154 240.495 139.559L240.856 139.86C241.731 143.202 238.177 153.743 236.855 157.417C245.986 157.598 255.206 158.79 264.093 160.891C266.356 157.88 271.264 149.113 274.798 148.093C277.671 149.04 272.381 161.277 271.558 163.472C275.199 164.001 279.263 165.42 282.609 166.96C268.099 183.268 257.015 203.89 264.093 226.311C254.078 227.787 236.466 233.102 226.658 236.446C193.924 247.608 124.501 276.441 122.092 318.198C120.392 315.293 119.526 312.248 118.526 309.059C119.573 306.402 120.818 298.873 121.572 295.506C128.401 264.999 119.937 256.99 113.655 230.973C114.724 229.24 115.468 223.818 116.08 221.509C124.385 190.213 157.626 173.292 185.978 163.472C187.315 161.182 193.049 141.188 197.965 149.53C199.454 152.057 197.045 158.188 196.349 160.891C207.021 160.369 217.278 157.07 228.163 158.1Z"/>
	<path transform="scale(2 2)" d="M185.978 163.472C187.315 161.182 193.049 141.188 197.965 149.53C199.454 152.057 197.045 158.188 196.349 160.891C189.243 182.817 175.186 219.672 150.727 224.541C153.578 217.449 159.083 211.069 163.402 204.798C170.751 194.125 181.943 175.648 185.978 163.472Z"/>
	<path transform="scale(2 2)" d="M228.163 158.1C230.449 154.149 235.73 140.154 240.495 139.559L240.856 139.86C241.731 143.202 238.177 153.743 236.855 157.417C231.988 170.962 211.584 220.181 192.557 216.735L192.312 216.391C193.197 213.267 203.635 199.836 206.187 196.008C214.709 183.219 220.471 170.819 228.163 158.1Z"/>
	<path transform="scale(2 2)" d="M264.093 160.891C266.356 157.88 271.264 149.113 274.798 148.093C277.671 149.04 272.381 161.277 271.558 163.472C262.63 179.609 257.663 196.101 240.047 207.078C238.352 208.135 231.494 212.118 230.004 209.386C232.85 204.073 237.779 198.877 241.502 194.113C248.314 185.393 258.865 171.228 263.934 161.209L264.093 160.891Z"/>
	<path transform="scale(2 2)" d="M134.786 209.244C140.374 209.636 140.912 215.458 136.188 217.527C130.441 217.381 130.051 211.342 134.786 209.244Z"/>
	<path transform="scale(2 2)" d="M146.589 188.691C152.018 188.479 152.483 194.524 147.712 196.447C142.28 196.312 141.096 189.748 146.589 188.691Z"/>
	<path fill="#FF5D15" transform="scale(2 2)" d="M65.034 325.414C76.6484 327.787 95.0859 328.358 106.619 327.822C111.956 327.574 117.246 326.664 122.593 326.737C123.701 335.421 128.923 343.819 135.968 348.941C150.892 359.791 174.386 356.311 191.626 354.998L292.815 347.034C338.51 343.446 382.565 343.608 428.067 336.283L428.246 336.607C434.766 337.831 444.145 335.022 452.008 336.283C449.97 343.964 447.232 351.453 444.47 358.896C435.794 359.89 427.212 361.607 418.567 362.836C361.087 371.012 303.123 373.739 245.135 375.008C194.136 376.124 142.456 372.515 91.8975 365.9C86.5691 365.203 81.1779 364.776 75.9013 363.737C72.213 350.93 70.1791 337.851 65.034 325.414Z"/>
	<path fill="#FF5D15" transform="scale(2 2)" d="M276.473 211.575C280.715 205.869 284.108 199.889 289.109 194.724C311.733 171.354 377.151 146.675 410.108 158.523C413.469 159.732 416.442 161.578 419.446 163.472C426.294 174.992 426.492 198.448 426.449 211.575C383.565 199.611 335.897 209.057 293.594 219.534C288.592 220.773 283.593 222.19 278.473 222.845C276.367 219.278 276.326 215.609 276.473 211.575Z"/>
	<path transform="scale(2 2)" d="M329.334 181.282C335.114 180.972 335.984 186.06 331.542 188.691C326.292 189.225 324.129 183.006 329.334 181.282Z"/>
	<path transform="scale(2 2)" d="M378.759 162.257C384.534 161.699 385.812 166.735 381.391 169.662C376.32 171.392 374.715 165.419 378.759 162.257Z"/>
	<path transform="scale(2 2)" d="M402.476 174.254C407.914 173.999 409.18 179.528 404.933 182.156C399.826 182.572 398.24 176.721 402.476 174.254Z"/>
	<path transform="scale(2 2)" d="M353.987 177.284C359.473 176.88 361.718 180.977 357.451 184.401C352.727 185.483 349.295 179.461 353.987 177.284Z"/>
	<path transform="scale(2 2)" d="M381.391 184.401C386.443 183.594 387.713 188.97 383.315 190.906C378.112 191.364 376.266 186.334 381.391 184.401Z"/>
	<path transform="scale(2 2)" d="M134.786 163.472C140.401 164.121 140.874 169.706 136.188 171.917C130.227 171.952 129.495 165.194 134.786 163.472Z"/>
	<path transform="scale(2 2)" d="M122.092 187.281C127.557 187.17 128.042 193.004 123.939 195.408C118.123 195.522 116.753 189.155 122.092 187.281Z"/>
	<path transform="scale(2 2)" d="M171.825 141.746C177.594 141.442 179.012 146.653 174.238 149.326C168.802 150.345 167.294 144.177 171.825 141.746Z"/>
	<path transform="scale(2 2)" d="M155.061 155.513C160.784 155.231 161.372 160.977 157.024 163.472C151.321 163.927 150.649 157.826 155.061 155.513Z"/>
	<path transform="scale(2 2)" d="M215.116 135.262C220.554 135.276 221.14 140.813 216.721 142.986C211.405 143.176 210.223 136.918 215.116 135.262Z"/>
	<path transform="scale(2 2)" d="M84.421 246.53C90.2519 247.661 89.4522 253.728 84.421 255.119C78.6512 254.099 79.3987 247.85 84.421 246.53Z"/>
	<path transform="scale(2 2)" d="M97.7817 275.2C104.221 275.379 102.027 281.904 97.7817 283.691C95.3817 282.894 94.1585 281.128 93.0006 278.995C94.0897 276.401 94.8027 275.345 97.7817 275.2Z"/>
	<path transform="scale(2 2)" d="M84.421 291.252C90.1693 291.157 91.538 296.916 86.6319 299.326C81.1603 300.186 79.6989 293.41 84.421 291.252Z"/>
	<path transform="scale(2 2)" d="M65.034 271.253C70.6873 270.996 72.4917 276.212 67.7295 278.995C65.8385 279.603 64.8181 279.105 63.2319 277.959C62.7594 277.08 62.4732 276.142 62.159 275.2L62.2545 274.789C62.7246 272.85 63.3261 272.297 65.034 271.253Z"/>
	<path transform="scale(2 2)" d="M367.532 145.539C373.184 145.065 374.549 149.498 370.32 152.595C364.909 153.821 363.713 148.845 367.532 145.539Z"/>
	<path transform="scale(2 2)" d="M390.099 146.556C395.405 145.581 395.71 151.924 391.406 153.809C386.135 154.45 385.816 148.678 390.099 146.556Z"/>
	<path fill="#FF5D15" transform="scale(2 2)" d="M272.595 239.291C275.565 238.933 279.868 245.76 280.689 248.137C284.772 259.96 270.984 273.877 266.349 283.691C265.372 281.496 264.738 279.247 264.093 276.94C261.212 266.407 256.279 253.673 247.732 246.53C253.053 243.558 266.159 240.834 272.595 239.291Z"/>
	<path fill="#FF5D15" transform="scale(2 2)" d="M333.434 226.311C335.067 226.05 337.013 228.143 338.206 229.093C357.311 244.315 354.413 261.133 346.581 281.384C346.101 278.518 345.516 275.662 344.973 272.807C340.102 245.462 335.05 244.251 316.384 229.077C322.155 228.465 327.736 227.37 333.434 226.311Z"/>
	<path fill="#FF5D15" transform="scale(2 2)" d="M379.902 221.279C391.869 219.834 407.571 230.876 412.187 241.238C415.861 249.487 414.565 262.962 411.371 271.253C411.082 269.644 411.312 267.698 411.371 266.058C409.818 261.855 408.849 257.486 406.941 253.41C398.943 236.325 384.305 231.955 371.729 221.279L379.902 221.279Z"/>
</svg>
