<?xml version="1.0" encoding="utf-8" ?>
<svg xmlns="http://www.w3.org/2000/svg" xmlns:xlink="http://www.w3.org/1999/xlink" width="1024" height="1024">
	<path transform="scale(2 2)" d="M298.696 32.8346C310.711 31.7031 318.136 39.2454 327.1 46.0435C333.707 51.0536 340.852 54.6517 348.673 57.3795C367.367 63.8988 378.883 65.6614 377.455 88.676C376.587 102.668 367.562 118.277 351.77 117.21C350.392 123.568 348.43 129.797 346.611 136.039C333.924 179.576 318.405 222.263 303.784 265.171C292.899 297.116 282.742 329.282 271.624 361.155C260.137 394.087 244.052 444.491 214.41 465.935C211.9 467.751 209.147 469.211 206.544 470.89C199.753 473.98 184.887 479.914 177.704 475.142C173.474 472.332 173.918 468.18 171.203 465.428C169.263 463.462 166.437 461.996 164.135 460.474C148.807 450.334 134.304 436.457 132.595 417.041C130.704 395.562 142.006 378.698 150.705 360.084C172.413 313.633 187.256 264.335 204.859 216.287C212.062 196.624 219.945 176.968 228.223 157.716C238.009 134.954 254.31 95.6171 270.279 76.6714C269.661 56.1363 275.259 37.1651 298.696 32.8346ZM236.167 241.836C253.187 220.491 261.829 193.058 255.63 192.549C242.296 196.633 237.587 225.143 235.954 236.455C235.866 237.067 234.029 244.542 236.167 241.836ZM254.495 148.626C251.151 147.802 247.793 146.914 244.376 146.465C242.274 150.363 240.682 154.683 239.032 158.791L230.87 179.654C209.593 234.358 194.449 291.665 171.606 345.144C168.097 353.358 163.919 361.285 160.476 369.513C164.268 369.762 168.074 370.067 171.825 370.692C172.511 368.69 173.541 366.705 174.391 364.762C181.832 347.763 188.6 330.473 194.611 312.915L204.367 284.023C214.662 252.565 225.916 221.489 237.795 190.589L247.544 165.401C249.731 159.775 251.756 154.013 254.495 148.626ZM246.733 137.723C274.405 142.095 296.359 151.204 316.664 170.975C318.267 168.282 319.227 165.236 320.712 162.467C313.647 159.368 310.255 154.269 304.942 149.047C295.281 139.553 283.109 135.467 270.279 132.252C267.499 131.74 252.103 129.376 261.673 124.95C269.064 121.532 283.318 125.362 290.74 128.262C308.23 135.097 311.193 144.695 323.75 154.119C325.789 150.796 327.401 147.111 329.024 143.568C312.113 122.939 283.083 117.537 258.089 113.416C253.709 121.162 250.589 129.7 246.733 137.723ZM158.166 442.735C153.341 425.246 151.777 411.256 160.476 393.542C156.602 393.097 152.93 392.642 149.019 392.75C142.138 408.139 144.776 431.283 158.166 442.735ZM153.015 384.369C156.709 384.237 160.397 384.607 164.082 384.369C164.546 384.2 166.824 379.488 167.418 378.625C164.037 378.057 160.674 377.401 157.299 376.801C155.896 379.303 154.576 381.969 153.015 384.369ZM274.304 106.553C276.571 100.835 285.294 88.6881 288.843 83.2722C284.78 82.3267 280.562 81.4252 276.397 81.127C271.109 88.7715 265.606 97.0238 262.097 105.668C266.224 105.651 270.23 105.851 274.304 106.553ZM298.696 45.2375C292.138 47.6126 287.473 51.4168 284.441 57.8196C283.516 59.7726 278.518 73.4617 281.708 73.4558C283.362 73.6795 285.03 73.8669 286.662 74.2153C288.495 68.9609 298.853 45.7867 298.794 45.3499L298.696 45.2375Z"/>
	<path fill="#FF5D15" transform="scale(2 2)" d="M254.495 148.626C283.648 157.008 290.654 162.858 313.05 179.834C307.285 197.203 300.653 214.324 294.89 231.725L273.764 297.585C260.604 338.104 246.003 376.765 231.941 416.71C222.19 390.956 198.968 374.623 171.825 370.692C172.511 368.69 173.541 366.705 174.391 364.762C181.832 347.763 188.6 330.473 194.611 312.915L204.367 284.023C214.662 252.565 225.916 221.489 237.795 190.589L247.544 165.401C249.731 159.775 251.756 154.013 254.495 148.626ZM236.167 241.836C253.187 220.491 261.829 193.058 255.63 192.549C242.296 196.633 237.587 225.143 235.954 236.455C235.866 237.067 234.029 244.542 236.167 241.836Z"/>
	<path transform="scale(2 2)" d="M254.495 184.092C262.247 183.948 266.428 189.653 266.326 197.121C266.062 216.429 249.421 241.883 235.316 255.566C230.823 259.433 227.104 258.759 226.421 252.655C224.692 237.179 233.342 186.445 254.495 184.092ZM236.167 241.836C253.187 220.491 261.829 193.058 255.63 192.549C242.296 196.633 237.587 225.143 235.954 236.455C235.866 237.067 234.029 244.542 236.167 241.836Z"/>
	<path transform="scale(2 2)" d="M215.597 265.044C219.136 265.409 222.331 267.822 225.764 268.805C229.64 269.915 241.417 269.453 238.185 276.607C237.565 277.977 236.676 278.478 235.316 278.981C223.035 281.585 203.518 268.206 215.597 265.044Z"/>
	<path transform="scale(2 2)" d="M206.544 285.766C209.185 285.713 240.167 292.22 227.332 298.501C221.787 299.716 200.713 296.508 204.136 287.652C204.57 286.528 205.516 286.215 206.544 285.766Z"/>
	<path fill="#FF5D15" transform="scale(2 2)" d="M160.476 393.542C175.564 397.306 187.207 402.627 197.749 414.383C196.43 420.274 190.596 459.21 179.872 456.7C174.975 455.554 161.646 446.641 158.166 442.735C153.341 425.246 151.777 411.256 160.476 393.542Z"/>
	<path transform="scale(2 2)" d="M167.418 405.964C171.654 405.552 176.63 409.138 180.556 410.506C182.197 411.078 202.151 414.713 193.607 419.272C183.062 422.666 162.698 414.539 167.418 405.964Z"/>
	<path transform="scale(2 2)" d="M162.351 417.499C166.687 417.337 169.777 420.331 173.426 422.218C178.107 424.638 193.408 427.025 186.327 431.078C174.177 435.897 157.431 424.057 162.351 417.499Z"/>
	<path fill="#FF5D15" transform="scale(2 2)" d="M288.843 83.2722C305.295 87.2583 330.213 103.567 344.339 113.416C340.156 120.006 336.82 127.113 333.532 134.183C318.147 118.906 295.727 109.579 274.304 106.553C276.571 100.835 285.294 88.6881 288.843 83.2722Z"/>
	<path fill="#FF5D15" transform="scale(2 2)" d="M309.068 47.1113C311.89 49.0278 314.238 51.8525 317.027 53.8948C324.992 59.7269 333.619 62.9061 342.805 66.1411C342.826 71.838 343.339 77.338 341.347 82.8158C340.45 85.2825 335.359 95.3268 332.123 94.0018C321.19 86.9024 309.324 81.4797 297.243 76.6714C302 67.1667 305.761 57.1943 309.068 47.1113Z"/>
	<path fill="#FF5D15" transform="scale(2 2)" d="M167.418 378.625C171.948 380.658 176.869 381.592 181.513 383.313C206.817 392.693 216.945 402.232 226.268 426.521C224.815 428.56 223.489 430.547 222.454 432.834L222.363 432.592C220.976 428.801 220.208 424.875 218.63 421.123C210.937 402.844 193.686 391.252 174.879 386.777C171.753 386.033 166.873 385.755 164.082 384.369C164.546 384.2 166.824 379.488 167.418 378.625Z"/>
	<path fill="#FF5D15" transform="scale(2 2)" d="M354.003 69.4616C365.512 80.5605 366.489 94.7961 351.77 102.868C348.658 104.127 346.788 101.913 344.339 100.138C352.723 89.2585 354.72 84.0703 354.003 69.4616Z"/>
	<path fill="#FF5D15" transform="scale(2 2)" d="M208.35 426.521C210.328 431.089 211.089 436.76 211.464 441.714C208.768 446.191 204.911 449.921 200.892 453.213L198.825 454.845C204.9 442.759 205.347 438.864 208.35 426.521Z"/>
</svg>
