<?xml version="1.0" encoding="utf-8" ?>
<svg xmlns="http://www.w3.org/2000/svg" xmlns:xlink="http://www.w3.org/1999/xlink" width="1024" height="1024">
	<path transform="scale(2 2)" d="M352.307 66.1153C362.807 65.8974 371.556 70.2979 378.288 78.4247C386.93 88.8581 405.67 135.762 408.824 148.438C411.557 159.425 410.528 169.192 404.009 178.693C394.459 192.609 364.781 217.437 349.463 229.253C344.8 232.85 339.693 235.996 335.188 239.775L334.859 240.053C336.866 246.27 338.3 252.802 339.983 259.124C344.133 274.72 349.586 282.548 339.814 297.462C343.637 305.019 357.193 329.428 357.718 335.948C358.199 341.915 356.113 346.859 352.307 351.35C359.572 360.552 357.587 364.918 350.298 372.586C352.6 377.973 355.837 383.2 358.585 388.393L376.326 421.522C379.636 427.636 390.294 440.499 377.702 443.271C370.997 440.866 368.768 432.513 365.418 426.276L348.857 394.876C346.125 389.587 341.774 382.967 339.814 377.634C329.777 378.593 325.904 375.138 322.319 365.676C306.522 363.379 304.989 351.112 300.385 338.389C298.196 332.338 295.537 326.174 293.983 319.942C290.756 319.397 287.676 318.583 284.693 317.231C276.448 313.053 273.696 306.499 270.039 298.526L262.371 281.391C257.597 270.511 252.521 259.75 247.87 248.816C240.49 231.466 240.224 228.495 224.118 217.178C210.109 223.823 192.165 232.623 177.831 237.716C169.46 240.691 161.725 234.145 156.661 227.966C145.333 233.919 134.479 240.882 123.195 246.976C110.26 253.962 114.302 251.668 100.165 247.965C95.4585 246.732 82.4787 246.196 84.3063 238.659C85.211 234.927 93.5308 216.753 95.6419 213.354C100.975 210.219 107.151 214.682 111.946 217.178C117.026 211.867 135.495 203.051 142.96 197.903C144.158 183.86 149.82 179.682 162.407 173.953L191.799 160.056C195.824 158.137 199.853 155.976 204.113 154.644C201.549 125.199 252.215 106.488 273.692 100.856C290.525 96.441 290.115 97.3743 305.127 88.8239L331.059 74.2545C338.142 70.3669 344.094 66.6964 352.307 66.1153ZM343.123 181.71L344.659 183.89C349.26 178.179 370.689 161.752 370.092 155.929C369.633 151.451 357.049 118.629 353.37 112.491C352.349 112.474 351.317 112.426 350.298 112.491C340.092 118.135 329.976 123.962 319.645 129.378C327.604 146.532 337.473 163.594 343.123 181.71ZM239.758 214.553L232.007 191.071C228.028 179.322 220.525 164.693 227.149 152.73C238.873 131.556 275.654 118.938 297.638 112.491C296.637 110.686 295.625 108.913 294.495 107.186C286.807 109.568 278.892 111.118 271.152 113.305C249.271 119.488 206.244 136.403 215.725 166.52C217.143 171.024 231.868 207.939 233.175 209.598C234.609 211.417 236.888 212.852 238.725 214.258C250.049 222.925 252.124 230.388 257.746 242.644L276.052 283.457C280.535 293.358 282.661 305.568 293.983 308.049C289.95 298.07 286.259 289.286 281.574 279.439L264.547 243.019C258.039 229.008 254.843 221.208 239.758 214.553ZM304.645 318.048C307.614 324.527 309.947 331.492 312.351 338.207C314.339 343.761 315.055 351.213 321.278 353.473C328.511 355.372 345.516 343.679 346.399 339.125C346.636 337.902 333.286 307.098 330.429 304.046C322.85 307.232 312.531 313.999 304.645 318.048ZM161.022 187.36C151.775 192.379 153.925 201.624 158.756 209.493C160.665 203.749 157.709 197.717 163.602 193.552L161.022 187.36ZM102.316 236.783C105.534 237.823 108.816 238.771 111.946 240.053C124.774 232.685 137.892 225.791 150.589 218.198C149.949 216.996 146.568 209.68 146.275 209.493C138.184 213.609 118.788 227.419 111.946 229.353C108.738 228.204 105.35 227.075 102.316 225.521C100.93 228.889 99.3235 232.212 98.0197 235.604C99.4414 236.123 100.838 236.467 102.316 236.783ZM202.495 175.949C203.683 174.637 204.79 173.637 206.313 172.745L204.113 166.541C202.67 167.43 201.213 168.299 199.811 169.251C200.643 171.512 201.563 173.729 202.495 175.949ZM173.938 188.781C175.267 187.932 176.548 187.044 178.061 186.556C177.437 184.485 176.416 182.568 175.464 180.632C174.004 181.228 172.647 181.844 171.287 182.647C172.128 184.715 172.995 186.757 173.938 188.781ZM185.473 175.949C186.224 177.915 187.003 179.824 187.939 181.71C189.262 180.7 190.518 179.852 192.033 179.155C191.349 177.369 190.699 175.566 189.813 173.868C188.361 174.55 186.902 175.22 185.473 175.949ZM304.645 102.386C305.937 104.577 307.199 106.791 308.613 108.906C311.477 107.741 314.42 107.088 317.199 105.656C329.237 99.4527 353.448 82.7862 365.997 81.9308C353.278 71.5734 340.989 81.9644 329.442 88.3668C321.156 92.9611 312.7 97.4023 304.645 102.386ZM364.703 109.93L374.267 133.749C384.174 158.982 386.038 159.338 365.58 179.047L348.772 195.566C349.723 198.033 350.387 200.603 351.387 203.05C356.025 199.499 359.931 194.777 364.246 190.818C375.386 180.598 391.868 172.608 387.975 154.922C386.202 146.869 375.421 117.961 370.801 112.185C369.189 110.169 367.086 110.158 364.703 109.93Z"/>
	<path fill="#FF5D15" transform="scale(2 2)" d="M297.638 112.491C312.199 135.254 326.971 169.485 336.335 194.383C339.383 202.487 341.401 211.024 344.659 219.004C338.118 222.68 331.73 228.255 325.14 232.387C320.48 235.309 295.264 248.752 294.142 252.369C293.342 254.95 295.209 258.153 297.8 258.817C302.775 260.092 319.099 248.971 324.843 246.321C325.308 248.462 325.889 250.543 326.523 252.64C320.767 256.048 307.729 262.071 303.234 265.937C299.889 268.814 301.854 274.437 306.055 275.283C309.678 276.014 325.993 266.157 329.356 264.031C330.023 265.892 330.672 267.761 331.413 269.593C325.997 272.717 314.929 277.801 310.495 281.304C307.291 283.836 308.632 289.745 312.639 290.666C317.352 291.749 329.173 283.41 334.103 281.416C332.61 291.938 324.856 293.448 316.086 298.623C312.239 300.892 298.669 310.423 293.983 308.049C289.95 298.07 286.259 289.286 281.574 279.439L264.547 243.019C258.039 229.008 254.843 221.208 239.758 214.553L232.007 191.071C228.028 179.322 220.525 164.693 227.149 152.73C238.873 131.556 275.654 118.938 297.638 112.491Z"/>
	<path transform="scale(2 2)" d="M275.703 129.378C280.116 128.496 284.046 131.924 282.033 136.638C280.416 140.423 256.54 151.162 251.999 153.17C247.181 154.606 243.303 148.943 246.148 144.796C248.203 141.8 270.158 130.481 275.703 129.378Z"/>
	<path transform="scale(2 2)" d="M287.667 146.037C291.89 145.457 295.883 149.553 293.936 153.79C292.513 156.887 268.074 168.629 263.852 170.303C259.721 171.379 255.914 166.177 257.454 162.415C258.733 159.291 283.356 147.828 287.667 146.037Z"/>
	<path fill="#FF5D15" transform="scale(2 2)" d="M365.997 81.9308C375.095 90.1744 391.842 131.347 395.984 144.08C400.716 158.626 401.031 165.553 390.056 177.648C379.928 188.81 365.467 201.547 353.37 210.784C352.66 208.222 352.15 205.593 351.387 203.05C356.025 199.499 359.931 194.777 364.246 190.818C375.386 180.598 391.868 172.608 387.975 154.922C386.202 146.869 375.421 117.961 370.801 112.185C369.189 110.169 367.086 110.158 364.703 109.93C356.042 93.002 342.801 103.863 330.837 110.275C325.525 113.121 319.344 115.673 314.537 119.295C312.431 115.928 310.429 112.438 308.613 108.906C311.477 107.741 314.42 107.088 317.199 105.656C329.237 99.4527 353.448 82.7862 365.997 81.9308Z"/>
	<path fill="#FF5D15" transform="scale(2 2)" d="M163.602 193.552C166.276 199.246 176.726 221.928 176.067 226.098C171.769 230.11 159.979 213.259 158.756 209.493C160.665 203.749 157.709 197.717 163.602 193.552Z"/>
	<path fill="#FF5D15" transform="scale(2 2)" d="M187.939 181.71C189.262 180.7 190.518 179.852 192.033 179.155C197.325 190.301 200.969 202.193 206.313 213.354C205.003 213.679 203.713 213.955 202.495 214.553C198.849 209.642 190.544 189.331 187.939 181.71Z"/>
	<path fill="#FF5D15" transform="scale(2 2)" d="M178.061 186.556C181.435 194.724 187.744 212.52 192.033 219.004C190.394 219.662 188.687 220.264 187.157 221.152C183.915 210.269 177.992 199.476 173.938 188.781C175.267 187.932 176.548 187.044 178.061 186.556Z"/>
	<path fill="#FF5D15" transform="scale(2 2)" d="M206.313 172.745L213.489 191.248C215.568 196.472 217.791 201.655 219.598 206.984L216.346 208.526C212.274 199.879 206.765 182.981 202.495 175.949C203.683 174.637 204.79 173.637 206.313 172.745Z"/>
	<path fill="#FF5D15" transform="scale(2 2)" d="M343.123 357.701C343.815 358.209 344.659 360.413 345.11 361.24C342.664 362.841 338.706 366.149 335.987 366.63C334.87 365.511 334.01 364.4 333.135 363.087C336.645 361.545 339.848 359.677 343.123 357.701Z"/>
</svg>
