<?xml version="1.0" encoding="utf-8" ?>
<svg xmlns="http://www.w3.org/2000/svg" xmlns:xlink="http://www.w3.org/1999/xlink" width="1024" height="1024">
	<path transform="scale(2 2)" d="M274.495 63.0476C284.36 62.8303 309.355 59.9202 312.281 70.3175C314.32 77.5621 312.395 94.66 308.246 102.013C307.198 134.04 308.04 176.083 322.862 204.02C326.725 211.301 331.958 217.175 336.782 223.767C354.634 248.166 352.986 275.943 351.798 304.403L349.045 382.064C348.867 388.403 350.436 397.159 346.062 402.435C336.486 413.983 311.657 414.817 297.727 416.227C297.685 419.945 297.703 423.661 297.727 427.379C304.792 427.08 324.36 433.122 324.554 442.412C324.742 451.414 308.092 448.344 302.125 448.33L277.852 448.278C274.096 448.283 269.984 448.715 266.264 448.279C259.959 447.54 260.867 440.854 264.004 437.181C269.54 430.699 280.274 428.028 288.393 427.379L288.393 416.227C274.453 416.487 244.752 413.589 234.478 403.653C227.049 396.469 228.935 385.345 228.651 375.925L225.69 302.503C223.993 270.66 222.963 247.526 243.826 219.91C247.591 214.925 251.657 210.108 255.016 204.833C271.472 178.995 270.503 131.677 270.006 100.607C265.292 94.9025 259.167 64.9114 274.495 63.0476ZM234.886 304.371C242.385 305.684 249.438 307.677 257.138 307.769C257.062 291.117 259.317 275.03 261.383 258.528C262.291 251.277 261 239.42 270.09 237.078C274.261 236.003 286.102 236.604 291.094 236.619L305.676 236.595C325.509 236.582 323.325 241.234 325.02 258.311C326.63 274.543 326.994 290.756 328.533 306.635C332.308 306.25 335.925 305.306 339.591 304.371L339.543 303.891C339.043 298.599 339.617 292.975 339.801 287.668C340.632 263.591 337.462 244.033 322.909 224.257C320.31 220.726 317.467 217.376 315.086 213.688C294.784 182.245 296.264 138.638 296.299 102.013L281.312 102.013C277.668 102.469 279.26 110.818 279.233 114.295C279.064 136.629 279.132 170.104 271.817 190.86C260.388 223.288 236.438 230.367 233.601 272.007C233.088 279.535 233.505 296.944 234.886 304.371ZM266.774 288.049C269.322 288.75 271.958 289.066 274.495 289.764C276.066 288.698 282.759 286.172 284.856 285.353C293.483 276.733 306.31 273.74 317.521 278.602C316.957 269.596 316.208 254.538 314.411 245.75C300.256 245.605 286.086 245.752 271.929 245.75L266.774 288.049ZM307.149 438.736L307.365 438.451C304.814 436.893 301.42 436.551 298.499 436.348C296.515 440.258 305.183 438.624 307.149 438.736ZM298.499 93.2483C300.751 91.7006 300.263 75.3752 300.255 72.2905L276.308 72.2905C271.883 72.928 274.96 89.0776 275.92 92.0392L276.308 93.2483L298.499 93.2483ZM286.194 436.348C283.03 436.639 280.129 437.528 277.199 438.736L281.312 438.736C283.28 438.78 288.127 439.834 288.71 437.243L288.47 436.414C287.755 436.139 286.943 436.294 286.194 436.348ZM317.521 286.302L317.416 286.645C316.325 290.334 316.53 294.684 316.314 298.523C315.52 312.658 312.846 326.039 304.218 337.48C301.327 341.314 290.432 352.565 293.937 357.53C308.138 337.407 320.079 331.719 320.264 304.107C320.289 300.335 320.1 288.931 317.521 286.302Z"/>
	<path fill="#FF5D15" transform="scale(2 2)" d="M234.886 312.786C242.323 314.768 249.472 315.971 257.138 316.554C259.745 325.103 260.784 330.36 265.798 338.362C280.627 362.028 288.417 355.924 288.411 387.525L288.393 405.949C275.997 406.148 239.862 406.274 237.88 391.881C237.296 387.641 237.506 383.01 237.361 378.719L235.425 326.563C235.258 322.011 234.689 317.328 234.886 312.786Z"/>
	<path fill="#FF5D15" transform="scale(2 2)" d="M338.24 314.066L338.753 314.032L338.935 314.387C338.229 331.761 337.362 349.141 336.855 366.525C336.62 374.558 337.402 382.864 336.558 390.843C335.263 403.076 307.555 405.066 298.499 405.949C296.633 405.642 297.745 392.124 297.737 389.546C297.718 383.521 297.132 376.927 298.642 371.056C303.891 350.645 327.782 339.576 327.994 315.403C331.441 315.164 334.841 314.675 338.24 314.066Z"/>
	<path fill="#FF5D15" transform="scale(2 2)" d="M284.856 285.353C287.279 286.095 293.805 284.455 296.753 284.316C303.974 283.976 310.478 284.938 317.521 286.302L317.416 286.645C316.325 290.334 316.53 294.684 316.314 298.523C315.52 312.658 312.846 326.039 304.218 337.48C301.327 341.314 290.432 352.565 293.937 357.53L292.781 359.604C275.85 329.439 265.918 339.929 265.997 295.141C282.271 296.528 298.103 301.025 314.411 292.736C300.754 291.83 288.361 291.389 274.495 289.764C276.066 288.698 282.759 286.172 284.856 285.353Z"/>
	<path transform="scale(2 2)" d="M162.582 169.726L192.214 169.708C210.87 169.704 213.859 166.749 215.699 188.098C216.352 195.684 216.861 203.311 217.678 210.879C220.254 234.743 227.28 251.701 210.907 273.296C203.11 283.58 193.037 291.571 189.846 304.855C188.098 312.136 188.863 325.418 188.862 333.346L188.873 375.582C198.377 375.731 214.07 380.088 215.325 391.479C215.007 396.791 212.214 397.313 207.44 397.263L173.135 397.265C168.529 397.27 161.937 397.773 157.544 397.199C150.638 396.296 151.591 388.968 155.222 385.073C160.953 378.926 171.339 375.852 179.501 375.582C179.218 358.79 181.754 320.493 178.705 305.697C174.976 287.599 156.794 277.007 150.75 260.062C144.367 242.169 150.201 215.445 152.609 196.628C153.813 187.216 152.242 172.886 162.582 169.726ZM158.337 221.987C162.563 220.395 167.18 220.326 171.543 219.296C181.594 210.621 196.022 206.734 208.607 211.723C208.218 201.813 207.348 188.452 205.976 178.569L177.569 178.558C173.182 178.556 168.534 178.191 164.187 178.569C163.213 182.385 162.933 186.475 162.45 190.38L159.886 210.498C159.403 214.287 159.116 218.253 158.337 221.987ZM186.448 289.764C200.894 265.174 215.727 264.905 211.723 229.573C211.401 226.729 211.546 220.071 208.607 218.494C206.36 231.354 209.971 242.882 203.829 257.159C200.663 264.518 184.616 282.78 186.448 289.764ZM166.555 386.873C168.213 386.885 169.887 386.944 171.543 386.873C172.953 386.89 182.715 387.883 178.898 383.997C178.201 383.893 177.618 383.99 176.933 384.101C173.457 384.474 169.803 385.566 166.555 386.873ZM200.247 386.873L200.089 386.474C196.435 384.9 192.828 384.327 188.873 384.101C188.832 389.353 195.142 386.658 200.247 386.873Z"/>
	<path fill="#FF5D15" transform="scale(2 2)" d="M171.543 219.296C173.301 219.342 175.176 219.061 176.939 218.942C187.256 218.245 199.105 219.501 208.607 218.494C206.36 231.354 209.971 242.882 203.829 257.159C200.663 264.518 184.616 282.78 186.448 289.764C186.028 291.216 185.12 292.707 184.442 294.07C181.931 289.752 179.781 285.471 176.689 281.501C163.407 264.451 151.069 253.789 158.337 228.509C170.886 231.909 192.522 232.86 203.486 225.606C194.654 225.069 165.22 224.99 158.337 221.987C162.563 220.395 167.18 220.326 171.543 219.296Z"/>
	<path transform="scale(2 2)" d="M376.847 210.528C386.221 209.966 395.856 210.513 405.259 210.508C412.943 210.505 426.502 208.123 429.371 218.028C430.646 222.433 431.337 234.805 432.064 240.25L434.451 259.33C437.957 287.741 437.198 300.172 418.985 322.032C402.576 341.727 403.974 344.781 403.992 369.747C403.997 376.371 403.91 383.001 403.999 389.625C413.119 391.306 432.208 395.591 431.728 407.394C430.689 409.186 429.757 410.171 427.99 411.259C425.582 411.418 423.103 411.278 420.687 411.259L389.082 411.274C383.886 411.275 362.82 414.007 366.555 402.718C368.256 397.574 382.184 392.744 387.378 391.277C396.162 388.795 394.501 391.365 394.5 381.399L394.489 366.965C394.447 333.561 392.666 340.884 373.005 314.405C363.644 301.798 361.92 290.645 362.257 275.356C362.58 260.67 365.074 233.83 368.393 219.154C369.48 214.35 371.856 211.625 376.847 210.528ZM372.307 261.346C376.26 262.406 380.384 263.485 384.468 263.838C385.892 262.357 387.776 261.228 389.45 260.039C399.028 250.677 412.512 249.946 424.743 253.092C423.904 244.454 422.629 227.524 420.687 219.296C406.395 219.723 392.014 219.156 377.709 219.296C374.52 229.197 373.918 250.21 372.307 261.346ZM426.211 266.304C424.926 267.294 423.891 267.841 422.308 268.252C422.045 274.844 422.865 281.385 421.77 287.939C418.545 307.244 402.344 315.31 397.32 330.478L398.931 332.978C419.743 301.491 429.297 307.957 426.211 266.304ZM385.727 401.742C388.647 401.65 391.561 401.587 394.48 401.742C394.528 400.865 394.796 399.49 394.48 398.691C392.043 399.335 387.027 400.249 385.154 401.672L385.727 401.742ZM403.999 398.691C404.002 399.708 404.014 400.726 403.999 401.742L414.243 401.742L414.086 401.414C410.791 400.318 407.356 399.58 403.999 398.691Z"/>
	<path fill="#FF5D15" transform="scale(2 2)" d="M389.45 260.039C396.889 262.796 426.358 253.043 426.211 266.304C424.926 267.294 423.891 267.841 422.308 268.252C422.045 274.844 422.865 281.385 421.77 287.939C418.545 307.244 402.344 315.31 397.32 330.478C387.668 317.368 373.33 304.642 371.586 288.334C370.916 282.061 371.535 275.767 371.255 269.482C385.337 272.695 400.772 274.042 414.956 270.733C433.311 266.45 407.819 266.319 403.898 266.083C397.339 265.69 390.94 264.984 384.468 263.838C385.892 262.357 387.776 261.228 389.45 260.039Z"/>
	<path transform="scale(2 2)" d="M92.4849 221.987C100.855 221.346 109.491 221.99 117.892 221.985C126.726 221.979 139.25 219.103 142.722 230.056C144.264 234.921 144.414 245.394 145.194 251.142C150.022 286.707 157.504 303.799 133.223 332.512C115.712 353.217 117.826 358 117.741 383.769C117.721 389.768 117.407 395.747 117.75 401.742C128.435 400.088 152.033 412.916 143.158 421.164C140.703 423.446 136.173 422.651 133.088 422.537L83.9603 422.537C70.5936 414.533 96.5402 400.286 108.378 401.742L108.389 376.85C108.388 370.835 108.919 364.124 107.581 358.25C104.072 342.848 92.0303 334.735 84.0756 322.494C69.5869 300.197 76.9616 268.61 80.6812 244.064C81.9971 235.38 80.9695 223.525 92.4849 221.987ZM102.092 269.482C109.381 259.847 126.09 257.909 136.793 261.346C136.806 256.792 134.893 234.783 133.535 231.874C131.706 230.32 98.697 230.723 94.1119 231.071C89.49 231.421 90.0101 241.703 89.5167 245.176C88.3691 253.251 86.9314 261.338 86.4012 269.482L86.5722 269.946C88.4746 270.188 98.7388 269.462 102.092 269.482ZM112.093 344.696L112.511 345.322L112.966 345.144C115.329 342.418 117.909 337.573 120.217 334.414C129.361 321.898 138.364 315.118 140.153 298.782C140.837 292.531 140.622 275.416 138.021 269.989C134.137 279.714 137.443 295.191 131.424 310.514C126.802 322.282 113.629 332.207 112.093 344.696ZM96.9411 412.251C99.1259 412.246 106.366 412.871 107.833 411.933C107.974 411.47 108.271 409.536 107.374 409.703C105.3 409.8 98.1129 411.04 96.4703 412.208L96.9411 412.251ZM129.362 412.251C125.922 410.831 121.486 409.727 117.75 409.703C117.673 414.415 124.754 412.285 129.362 412.251Z"/>
	<path fill="#FF5D15" transform="scale(2 2)" d="M102.092 269.482C109.197 271.349 126.364 264.675 138.021 269.989C134.137 279.714 137.443 295.191 131.424 310.514C126.802 322.282 113.629 332.207 112.093 344.696C109.569 336.992 98.3825 326.535 93.014 319.523C84.0123 307.764 83.4122 291.161 85.3378 277.038C98.8534 281.874 120.662 283.841 133.088 277.038C129.175 275.302 92.4832 272.379 86.4012 271.929L86.4012 269.482L86.5722 269.946C88.4746 270.188 98.7388 269.462 102.092 269.482Z"/>
</svg>
