<?xml version="1.0" encoding="utf-8" ?>
<svg xmlns="http://www.w3.org/2000/svg" xmlns:xlink="http://www.w3.org/1999/xlink" width="1024" height="1024">
	<path transform="scale(2 2)" d="M199.295 122.057C202.882 122.892 197.622 128.081 196.926 129.104C193.814 133.682 193.093 139.39 193.184 144.771C193.394 157.258 201.489 161.021 209.763 167.609C223.7 178.705 226.969 194.124 217.824 210.031C206.573 229.603 199.919 237.701 213.985 260.067C226.133 257.526 238.21 260.86 248.915 266.722C273.783 252.651 293.854 274.181 299.738 298.158C305.055 298.738 310.276 299.389 315.639 298.918C341.06 296.685 367.081 280.877 389.643 305.192C392.078 307.816 393.784 311.049 396.368 313.539C418.107 318.208 443.156 325.567 460.225 340.536C479.973 357.854 467.921 378.192 447.755 388.786C436.504 394.696 438.573 391.644 430.304 400.756C405.672 427.901 343.966 439.837 306.347 441.765L304.19 441.983C288.712 443.487 273.04 443.765 257.5 443.768C205.433 443.775 119.668 438.531 82.6337 402.873C75.2753 395.788 77.3413 396 68.3099 391.169C57.2737 385.264 42.8608 375.661 41.7581 362.001C39.6375 335.729 85.3715 321.678 104.4 316.297C116.65 312.832 117.652 315.24 127.342 307.252C135.224 300.754 142.797 299.964 152.512 299.119C156.063 295.317 158.941 291.017 162.717 287.368C175.101 275.4 196.675 262.472 213.985 260.067C207.071 252.734 202.735 249.312 201.463 238.319C199.026 217.273 217.735 206.202 214.981 189.771C211.912 171.458 189.21 171.156 185.932 151.177C184.425 141.992 187.844 123.858 199.295 122.057ZM408.059 327.047C405.647 326.425 403.312 325.998 400.845 325.688C401.956 330.462 401.921 335.492 401.918 340.371C410.075 343.931 421.212 348.404 424.577 357.427C440.182 399.269 260.776 399.615 227.573 398.864C195.492 398.138 128.688 393.472 100.446 379.875C70.9607 365.678 91.3109 346.212 113.053 342.069C70.4211 358.432 105.632 373.355 128.151 378.13C108.385 356.977 117.172 324.207 116.874 323.742L116.172 323.759C90.0419 331.088 16.5392 352.324 72.4927 381.602C140.67 417.276 311.605 414.492 390.194 397.135C407.873 393.231 467.25 378.548 459.35 356.49C454.155 341.983 422.435 331.062 408.059 327.047ZM99.0638 402.357C101.953 404.247 104.82 406.176 107.83 407.873C171.708 440.366 333.828 443.64 403.121 408.123C406.69 406.293 410.075 404.131 413.617 402.251L413.161 402.357C406.995 403.303 400.937 405.317 394.836 406.66C310.006 425.337 180.839 426.189 99.0638 402.357ZM247.471 279.7C223.135 255.448 181.051 280.628 162.749 302.537C165.053 304.112 167.466 305.489 169.786 307.027C182.741 289.414 218.748 267.46 241.596 277.287C243.456 278.087 245.366 279.795 247.471 279.7ZM290.842 303.292C288.143 289.654 273.274 264.364 256.76 274.352C257.958 275.846 259.161 277.325 260.239 278.909C283.372 274.639 287.414 302.962 290.842 303.292ZM135.142 370.016C134.734 367.275 133.169 364.261 132.447 361.518C127.431 342.458 134.642 308.495 161.136 316.553C163.357 317.229 165.39 318.514 167.75 318.671C156.963 309.233 142.197 305.363 131.743 317.501C121.407 329.501 123.682 359.225 135.142 370.016ZM419.425 359.361C418.444 351.602 408.877 344.636 401.918 342.069C400.248 357.601 395.142 363.392 391.462 375.926C395.591 373.92 400.038 372.785 404.246 370.988C410.096 368.334 416.746 365.651 419.425 359.361Z"/>
	<path fill="#FE5D15" transform="scale(2 2)" d="M135.142 370.016C134.734 367.275 133.169 364.261 132.447 361.518C127.431 342.458 134.642 308.495 161.136 316.553C163.357 317.229 165.39 318.514 167.75 318.671C173.055 322.734 177.575 327.25 183.39 330.706C189.839 334.538 196.841 337.045 203.408 340.576C217.737 348.279 239.739 370.171 221.836 385.31C214.812 385.782 207.56 385.156 200.539 384.743C187.729 383.99 141.937 382.969 135.142 370.016Z"/>
	<path transform="scale(2 2)" d="M166.102 366.491C170.686 366.259 170.357 370.95 166.981 372.593C162.136 372.604 162.107 367.979 166.102 366.491Z"/>
	<path transform="scale(2 2)" d="M136.692 344.806C140.7 345.699 140.147 350.144 136.692 351.248C131.828 350.276 132.584 345.953 136.692 344.806Z"/>
	<path transform="scale(2 2)" d="M144.837 331.476C149.165 332.023 149.297 335.901 146.027 337.902C141.294 337.855 141.145 333.288 144.837 331.476Z"/>
	<path transform="scale(2 2)" d="M150.282 357.013C154.766 356.65 155.651 360.68 152.512 363.13C148.14 363.978 147.228 359.269 150.282 357.013Z"/>
	<path transform="scale(2 2)" d="M158.524 343.749C162.491 343.44 164.371 347.336 160.773 349.767C156.186 350.094 155.275 346.272 158.524 343.749Z"/>
	<path transform="scale(2 2)" d="M175.075 355.027C179.143 355.163 179.821 359.139 176.801 361.238C171.811 361.988 171.575 357.211 175.075 355.027Z"/>
	<path fill="#FE5D15" transform="scale(2 2)" d="M229.896 313.539C244.241 310.916 259.041 322.281 269.668 330.514C288.167 344.845 306.039 366.374 288.496 388.733C281.158 387.724 273.219 388.748 265.763 388.733L233.12 388.733C250.232 364.774 225.73 341.36 205.275 330.491C210.982 321.507 218.734 314.467 229.896 313.539Z"/>
	<path transform="scale(2 2)" d="M261.862 343.749C266.824 343.852 266.738 349.022 263.317 351.248C258.356 350.351 257.644 346.062 261.862 343.749Z"/>
	<path transform="scale(2 2)" d="M263.788 366.491C268.971 366.349 268.873 371.349 265.135 373.403C260.316 373.44 259.905 368.325 263.788 366.491Z"/>
	<path transform="scale(2 2)" d="M246.748 349.767C251.89 349.108 252.207 354.019 248.915 357.013C244.139 356.789 243.209 352.376 246.748 349.767Z"/>
	<path transform="scale(2 2)" d="M277.634 355.027C282.256 355.455 281.967 360.082 278.518 361.914C273.426 361.327 272.989 356.41 277.634 355.027Z"/>
	<path fill="#FE5D15" transform="scale(2 2)" d="M353.837 302.537C361.626 301.366 371.269 303.646 377.622 308.319C399.505 324.412 392.614 356.906 378.524 375.845C375.728 379.604 373.634 379.621 369.35 380.239C371.976 371.761 372.01 363.121 367.996 355.027C359.129 330.519 327.587 324.047 304.762 322.504C304.181 318.151 303.606 313.835 302.846 309.506C309.051 309.644 315.112 309.955 321.279 308.91C332.267 307.049 342.555 302.8 353.837 302.537Z"/>
	<path fill="#FE5D15" transform="scale(2 2)" d="M286.256 332.17C309.85 331.052 349.198 334.468 359.242 360.536C362.542 369.102 360.951 374.826 357.388 382.878C355.858 382.817 354.337 382.726 352.809 382.878C337.732 385.168 317.004 386.809 301.633 386.777C311.296 367.519 302.393 344.954 286.256 332.17Z"/>
	<path transform="scale(2 2)" d="M331.8 370.016C336.514 370.255 337.383 375.129 333.474 377.214C328.612 376.955 328.015 372.272 331.8 370.016Z"/>
	<path transform="scale(2 2)" d="M344.29 368.987C349.257 369.135 349.477 373.829 345.702 375.926C340.903 375.752 340.373 370.908 344.29 368.987Z"/>
	<path transform="scale(2 2)" d="M315.016 363.13C320.441 362.309 319.889 367.527 316.78 370.016C312.458 370.008 311.16 364.991 315.016 363.13Z"/>
	<path transform="scale(2 2)" d="M327.789 355.027C332.435 353.944 333.507 358.555 330.011 361.238C325.635 361.989 324.045 357.093 327.789 355.027Z"/>
	<path fill="#FE5D15" transform="scale(2 2)" d="M169.786 307.027C182.741 289.414 218.748 267.46 241.596 277.287C243.456 278.087 245.366 279.795 247.471 279.7C255.437 286.586 256.999 298.709 254.81 308.523C231.65 297.718 209.314 303.311 196.262 325.688C183.506 320.244 180.075 314.231 169.786 307.027Z"/>
	<path fill="#FE5D15" transform="scale(2 2)" d="M260.239 278.909C283.372 274.639 287.414 302.962 290.842 303.292C292.478 307.79 294.052 316.9 294.635 321.732L275.342 321.732C271.258 319.155 267.364 316.198 263.317 313.539C268.067 301.711 265.962 289.979 260.239 278.909Z"/>
	<path transform="scale(2 2)" d="M253.929 68.2403C258.25 69.4172 253.624 73.1174 252.419 74.9699C241.617 91.5826 244.995 114.963 260.708 127.296C267.094 132.308 274.056 136.88 279.309 143.157C292.928 159.431 289.809 180.531 279.846 197.857C267.018 220.165 262.715 236.112 281.119 258.166L278.518 256.447C263.715 242.987 259.546 224.212 267.999 205.767C270.262 200.83 273.067 196.151 275.378 191.233C296.568 146.158 250.916 144.263 240.196 114.159C235.509 100.998 239.371 73.3731 253.929 68.2403Z"/>
	<path transform="scale(2 2)" d="M322.756 146.503C324.331 146.434 324.977 147.849 325.755 149.008C319.387 154.153 317.283 163.073 317.959 170.932C319.646 190.566 343.806 194.26 347.265 213.669C350.806 233.539 331.503 246.425 330.821 266.223C330.315 280.937 341.482 288.872 341.616 290.422L341.105 290.234C316.614 273.907 326.232 255.222 336.619 234.186C351.738 203.567 319.703 201.962 312.025 178.826C308.643 168.634 310.707 150.368 322.756 146.503Z"/>
	<path transform="scale(2 2)" d="M164.566 158.241C170.037 158.034 162.079 164.954 161.333 169.993C159.568 181.923 171.795 187.402 177.614 195.435C189.977 212.501 170.615 223.287 169.967 238.027C169.639 245.47 175.526 256.152 175.453 256.625L175.075 256.447C165.775 246.468 162.582 236.342 169.444 223.331C184.194 195.363 168.124 201.533 157.932 182.854C153.173 174.13 155.504 163.042 164.566 158.241Z"/>
</svg>
