<?xml version="1.0" encoding="utf-8" ?>
<svg xmlns="http://www.w3.org/2000/svg" xmlns:xlink="http://www.w3.org/1999/xlink" width="1024" height="1024">
	<path transform="scale(2 2)" d="M383.52 81.829C399.663 79.4503 418.529 93.6594 424.323 108.276C433.719 105.575 454.899 104.892 463.841 108.13C488.167 116.937 459.69 173.945 454.729 175.495C449.918 176.998 455.055 155.077 455.785 152.131L459.415 137.742C460.849 132.022 462.893 125.934 460.778 120.126C457.464 116.942 433.011 116.592 426.038 115.366C425.121 134.233 414.487 145.439 408.172 162.25C414.667 162.035 443.56 162.482 448.564 165.513C452.536 169.594 448.084 180.207 446.982 185.133L424.677 280.75C416.642 315.003 418.924 326.462 379.404 329.131C336.805 332.007 291.866 333.448 249.013 333.394C231.718 333.372 208.525 334.267 193.523 324.317C181.551 314.298 180.791 297.723 178.04 283.403L161.595 198.807C160.621 193.547 158.895 187.946 158.676 182.628C157.692 182.626 137.156 183.373 143.87 176.703C148.951 171.656 190.045 169.57 198.551 168.859C253.852 164.237 309.522 161.74 365.029 161.357C374.348 161.293 383.688 161.59 393.003 161.411L404.083 138.344C406.398 133.576 409.303 128.801 410.794 123.7C414.699 110.334 402.76 99.751 390.974 96.4512C371.24 90.9264 353.345 116.489 343.306 130.239C340.079 134.658 323.256 159.24 320.044 160.959C309.659 166.515 319.819 149.619 320.623 148.083C333.826 122.858 351.373 85.276 383.52 81.829ZM408.172 279.812C402.06 280.019 395.926 280.145 389.819 280.43C387.862 287.356 389.421 301.532 379.319 302.211C371.863 302.713 364.373 302.592 356.91 302.861L252.106 306.471C245.712 306.623 222.08 307.386 217.011 306.194C210.24 304.601 208.101 291.077 206.829 285.698C204.87 278.454 203.56 271.059 202.019 263.721L194.634 229.223C193.559 224.234 192.27 219.282 191.115 214.31C188.144 201.525 189.515 200.391 202.28 200.232C200.328 193.632 198.545 187.013 196.736 180.374C187.865 180.622 177.63 180.165 169.072 182.628C176.294 208.183 182.954 237.196 188.452 263.21L194.438 290.983C199.273 314.281 199.119 316.431 226.743 318.122C248.942 319.481 274.027 318.486 296.264 317.774C324.507 316.871 352.78 316.39 380.979 314.439C402.007 312.983 401.299 312.531 405.67 290.895C406.42 287.185 407.286 283.493 408.172 279.812ZM384.803 193.267C407.035 193.266 410.431 191.435 403.608 218.249C410.485 218.344 417.476 217.728 424.323 218.249C428.487 204.554 432.358 190.834 436.897 177.249C426.947 175.799 402.833 175.409 391.949 176.248C388.95 181.151 387.167 187.891 384.803 193.267ZM320.698 195.455C334.408 194.756 360.004 192.621 373.348 194.241C375.62 188.159 378.414 181.983 381.454 176.248C374.608 175.637 367.511 176.22 360.634 176.253C347.47 176.317 334.421 176.242 321.268 176.768C321.685 182.996 320.781 189.233 320.698 195.455ZM400.373 230.023C397.955 239.925 393.062 257.75 391.949 267.62C397.482 267.392 406.973 266.885 412.064 267.62C415.469 256.561 419.432 241.268 421.892 230.023C414.754 229.578 407.529 230.264 400.373 230.023ZM212.604 199.184C224.218 197.897 244.353 197.097 255.749 197.648L255.264 178.625C248.738 177.811 239.723 178.664 232.974 178.863L217.992 179.323C213.756 179.461 209.238 179.356 205.109 180.374C207.384 185.684 210.123 194.641 212.604 199.184ZM263.907 177.748C264.574 184.382 265.318 191.1 266.6 197.648C273.921 195.592 301.518 195.017 310.693 195.455C311.667 189.305 311.702 182.971 312.297 176.768C296.177 176.817 280.028 177.909 263.907 177.748Z"/>
	<path fill="#FF5D15" transform="scale(2 2)" d="M212.604 199.184C224.218 197.897 244.353 197.097 255.749 197.648C256.893 204.317 257.745 215.392 257.43 222.027C254.736 221.872 225.9 222.184 234.29 229.963C237.632 233.062 254.247 232.526 259.398 232.503C259.392 242.56 262.249 274.222 265.43 281.064L266.155 281.425C266.936 281.092 267.182 280.497 267.665 279.812C272.245 264.178 268.663 248.32 269.185 232.503L308.579 232.503C307.615 245.917 307.196 259.474 307.228 272.921C299.542 273.523 277.104 275.199 271.733 280.43C273.96 283.939 301.915 282.813 307.228 282.799C307.052 287.99 306.509 293.547 309.793 297.905C312.555 293.538 312.857 288.237 313.751 283.282C336.734 281.525 366.88 280.3 389.819 280.43C387.862 287.356 389.421 301.532 379.319 302.211C371.863 302.713 364.373 302.592 356.91 302.861L252.106 306.471C245.712 306.623 222.08 307.386 217.011 306.194C210.24 304.601 208.101 291.077 206.829 285.698C204.87 278.454 203.56 271.059 202.019 263.721L194.634 229.223C193.559 224.234 192.27 219.282 191.115 214.31C188.144 201.525 189.515 200.391 202.28 200.232C210.136 225.398 219.098 258.947 229.938 282.799C232.304 289.054 235.23 297.32 241.599 300.447C243.181 294.835 241.892 288.302 240.443 282.799C238.69 274.569 235.271 266.396 232.628 258.406L219.604 219.156C217.333 212.475 214.749 205.911 212.604 199.184Z"/>
	<path fill="#FF5D15" transform="scale(2 2)" d="M370.327 230.652C380.347 230.657 390.368 230.67 400.373 230.023C397.955 239.925 393.062 257.75 391.949 267.62C368.089 269.751 338.124 271.903 314.39 272.225C314.732 259.698 316.539 244.514 317.799 231.805C331.487 232.684 345.386 230.883 359.132 231.235C356.354 239.266 350.585 253.059 351.733 261.247C353.181 271.585 362.82 250.539 370.327 230.652Z"/>
	<path fill="#FF5D15" transform="scale(2 2)" d="M320.698 195.455C334.408 194.756 360.004 192.621 373.348 194.241C369.878 202.582 366.469 210.869 363.582 219.436L318.996 219.436C318.891 214.533 319.626 200.515 320.698 195.455Z"/>
	<path fill="#FF5D15" transform="scale(2 2)" d="M266.6 197.648C273.921 195.592 301.518 195.017 310.693 195.455C310.943 203.449 309.652 211.43 309.793 219.436C300.647 220.878 277.614 221.794 268.318 221.182C268.372 213.219 267.386 205.544 266.6 197.648Z"/>
	<path fill="#FF5D15" transform="scale(2 2)" d="M384.803 193.267C407.035 193.266 410.431 191.435 403.608 218.249C395.039 219.317 384.369 218.879 375.624 218.684L384.803 193.267Z"/>
	<path transform="scale(2 2)" d="M80.8759 116.002C85.3091 115.303 88.8799 115.67 91.1097 120.126C99.9226 120.516 109.222 118.714 117.524 122.473C135.511 130.616 137.438 161.994 141.31 180.118L172.369 333.381C176.573 355.445 176.979 353.279 201.353 353.799L385.299 356.578C414.013 357.106 408.287 361.653 427.264 337.528C430.193 333.804 436.849 322.819 440.416 333.375C438.462 343.076 426.453 363.107 418.234 368.595C411.749 372.925 403.009 371.385 395.668 371.314L374.657 370.934C370.669 370.834 366.457 371.011 362.541 370.248C377.097 377.395 379.687 381.967 384.803 396.77C383.981 402.431 384.165 407.621 381.623 412.963C366.212 445.359 305.322 426.925 323.807 389.396C328.778 379.303 336.377 373.792 346.841 370.248C331.266 371.15 313.177 369.967 297.478 369.682L193.328 367.964C168.5 367.493 162.557 360.694 158.104 337.177L123.198 165.005C121.922 158.735 120.941 152.226 119.167 146.079C115.181 132.261 103.758 135.335 92.3589 135.227C87.2181 141.055 74.7956 138.779 67.7645 138.823C61.3865 138.863 55.0071 139.287 48.6334 139.287C38.8641 139.287 38.7305 133.401 38.9607 124.989C39.0972 120.004 41.4586 117.814 46.1311 117.182C53.2694 116.216 74.1204 115.419 80.8759 116.002ZM355.19 415.201C364.999 413.247 371.846 407.299 369.617 396.509C368.013 388.745 355.653 379.055 348.938 383.148C327.96 383.701 324.994 415.945 355.19 415.201Z"/>
	<path transform="scale(2 2)" d="M355.19 389.053C358.817 388.641 361.744 391.77 362.541 395.028C360.521 402.16 356.202 413.101 346.841 409.567C334.213 403.618 343.089 393.105 348.513 398.518C348.766 398.77 348.568 398.666 349.059 398.704C352.067 395.183 348.447 390.492 355.19 389.053Z"/>
	<path transform="scale(2 2)" d="M226.692 369.742C265.527 363.95 274.615 425.171 231.379 428.743C216.829 428.994 198.614 420.903 196.875 404.581C195.195 388.806 211.372 371.303 226.692 369.742ZM227.503 414.257C253.263 414.362 251.115 381.489 227.503 383.148C203.247 384.963 205.214 414.748 227.503 414.257Z"/>
	<path transform="scale(2 2)" d="M231.379 389.053C244.184 387.412 240.302 412.74 224.358 409.567C222.171 407.55 212.737 399.483 220.239 397.532C223.014 396.81 225.191 397.88 227.503 399.248C227.61 394.68 226.024 390.88 231.379 389.053Z"/>
	<path fill="#FF5D15" transform="scale(2 2)" d="M383.52 108.276C389.203 107.976 395.248 112.417 394.06 118.66C393.163 123.378 387.501 128.299 384.466 131.739L372.599 145.172C368.255 150.078 364.641 156.016 359.132 159.737C351.969 159.64 344.839 153.798 348.696 146.448C351.448 141.203 376.888 110.356 383.52 108.276Z"/>
	<path fill="#FF5D15" transform="scale(2 2)" d="M441.179 124.285C446.371 124.052 450.136 126.379 451.299 131.614C449.99 136.971 446.159 141.932 443.428 146.713C440.618 151.633 438.641 158.303 432.557 159.737C423.884 159.594 420.327 154.355 424.284 146.714C427.348 140.797 434.617 126.343 441.179 124.285Z"/>
</svg>
