<?xml version="1.0" encoding="utf-8" ?>
<svg xmlns="http://www.w3.org/2000/svg" xmlns:xlink="http://www.w3.org/1999/xlink" width="612" height="612">
	<path d="M401.117 174.372C419.55 174.079 414.506 177.1 420.057 186.67C422.991 191.727 426.407 196.524 429.358 201.591C440.737 221.136 479.036 290.718 475.156 313.788C472.405 330.147 461.293 341.958 448.221 351.193C445.355 374.921 455.02 407.664 471.424 424.383C486.308 423.923 505.948 412.859 519.058 420.963C525.411 424.889 526.232 432.05 522.125 438.006C511.755 453.045 404.869 507.146 401.128 471.964C398.808 450.137 443.027 444.863 440.952 430.714C440.194 425.544 437.607 419.979 435.882 415.025C429.18 395.772 424.503 380.646 407.291 368.101C376.141 369.923 369.791 368.871 354.361 340.702C338.515 311.776 322.821 275.711 312.665 243.896C306.914 261.544 301.836 279.431 295.109 296.756C289.461 311.301 282.436 325.197 276.601 339.624C270.837 348.925 267.881 359.814 258.711 366.603C246.914 375.336 233.05 375.83 219.103 373.809C198.454 388.007 182.4 412.58 183.946 438.284C184.924 454.562 219.145 460.529 219.577 476.331C219.783 483.852 212.175 490.401 204.946 490.27C181.684 489.851 140.393 471.472 120.157 458.879C112.54 454.139 95.5621 442.647 95.9449 432.269C96.7289 411.015 133.474 425.11 144.246 428.054C148.677 429.265 150.999 431.827 154.906 427.836C158.629 424.034 160.804 418.183 162.983 413.406C173.209 390.996 176.065 379.28 175.709 355.495C163.006 346.584 153.214 333.463 151.722 317.604C149.276 291.591 187.346 215.622 200.134 194.177C209.871 177.849 211.082 176.929 231.994 180.403C257.192 184.59 290.841 198.153 309.9 215.367C319.365 195.793 376.503 175.776 401.117 174.372ZM447.349 339.624C457.691 328.016 465.562 322.672 465.269 304.292C457.284 297.101 444.022 291.336 434.159 287.163C403.6 274.23 363.787 261.112 329.938 261.412C335.577 281.816 350.935 312.016 360.801 330.821C365.284 339.367 369.236 349.723 378.02 354.733C399.038 366.72 428.598 350.586 447.349 339.624ZM162.65 468.082C171.346 471.206 203.503 485.748 209.333 476.78C200.692 465.252 183.497 459.821 177.833 452.781C164.559 436.279 182.995 395.423 193.566 382.189C197.31 377.502 202.069 373.739 205.88 369.054C200.909 369.483 190.526 364.769 186.225 362.297C186.507 382.231 175.268 422.199 163.265 434.514C148.815 449.339 127.1 428.365 106.683 431.347C106.641 432.532 106.577 433.708 106.683 434.892C122.163 450.503 142.411 460.123 162.65 468.082ZM162.65 307.123C158.852 324.091 169.216 337.83 181.971 347.347C197.879 357.813 220.891 367.79 240.264 363.682C257.264 360.078 260.99 347.364 267.605 333.451C271.084 326.135 293.637 275.708 293.586 270.246C292.799 270.204 292.073 270.208 291.287 270.269C255.461 272.218 194.732 288.437 162.65 307.123ZM207.508 200.996C190.958 232.312 178.482 259.692 166.438 293.271C183.623 283.853 219.024 272.931 237.512 268.615C256.093 263.924 277.979 259.762 297.115 260.087C298.643 254.329 300.637 248.683 302.095 242.921C275.897 246.126 226.344 220.957 207.508 200.996ZM394.08 261.412C400.919 264.166 408.147 265.834 415.045 268.425C431.765 274.705 444.373 280.611 460.103 288.422C454.139 274.161 448.437 259.875 441.714 245.939C436.934 236.03 421.124 204.95 414.238 197.251C392.325 223.071 354.497 237.214 321.096 236.965C323.01 241.476 324.459 246.101 326.079 250.719C354.026 250.698 369.319 257.28 394.08 261.412ZM456.532 462.715C474.47 455.858 493.57 447.651 509.102 436.238C510.56 435.167 515.85 432.182 513.885 429.819C508.818 423.725 478.166 437.14 468.992 435.07C452.892 431.438 437.504 379.216 436.634 364.914C436.54 363.368 437.154 359.148 436.686 358.019L436.569 358.003C431.045 360.259 425.676 363.212 419.745 364.273C424.98 369.001 429.351 374.09 432.951 380.203C437.214 387.443 451.313 423.502 451.687 431.157C452.088 439.377 446.955 445.456 440.42 449.636C436.606 452.074 405.597 467.32 412.885 472.726C418.679 477.024 450.36 465.047 456.532 462.715ZM324.815 226.509C347.239 228.545 379.977 214.084 397.022 199.836C400.631 196.819 417.03 183.388 402.708 184.546C382.004 186.247 317.127 207.642 317.779 223.592C317.907 226.735 322.639 226.315 324.815 226.509ZM303.616 231.586C305.168 230.904 306.094 230.361 307.128 229.012C298.262 209.409 237.355 188.083 215.842 189.187C213.965 190.539 213.049 191.519 214.637 193.643C223.581 205.607 286.595 240.921 303.616 231.586Z"/>
	<path fill="#FF5D15" d="M351.27 277.133C365.648 279.772 452.607 302.979 450.219 315.349C448.983 321.754 440.379 327.592 435.344 330.847C424.306 337.995 397.547 350.078 385.729 343.79C380.213 340.855 361.723 300.237 358.226 292.745C355.889 287.74 352.752 282.448 351.27 277.133ZM373.269 294.191C373.049 299.392 386.189 325.245 389.88 329.152C391.83 329.32 393.586 329.37 395.541 329.152C397.239 328.221 398.333 327.126 399.421 325.535C400.414 318.738 396.285 314.443 393.266 308.671C389.358 301.201 386.931 289.272 377.699 289.564C375.543 290.868 374.528 292.042 373.269 294.191Z"/>
	<path fill="#FF5D15" d="M271.7 285.464C272.318 285.385 272.403 285.302 272.999 285.563C272.621 290.018 256.887 321.942 253.668 328.826C250.395 335.826 248.008 346.575 240.14 349.583C223.558 355.924 184.088 340.105 177.789 323.043C174.056 312.933 185.862 310.625 192.821 308.043C209.65 302.333 226.738 297.533 243.403 291.902C239.433 302.294 228.11 321.496 226.224 330.847C233.084 345.139 239.218 331.844 242.786 324.324C245.609 318.374 248.719 312.53 251.391 306.516C258.625 290.234 254.171 288.98 271.7 285.464Z"/>
	<path d="M152.485 172.437C158.161 171.928 159.704 176.404 162.693 180.471L171.787 192.879C174.969 197.313 175.672 200.134 170.914 203.451C164.265 203.846 151.586 183.822 149.388 178.897C148.702 177.361 149.367 175.843 149.881 174.372C150.693 173.666 151.609 173.063 152.485 172.437Z"/>
	<path d="M492.001 205.343C495.657 205.352 497.019 207.119 498.028 210.467L497.044 213.768C492.106 217.357 478.747 221.981 472.515 224.384C470.065 224.582 467.401 223.606 466.48 221.103C463.867 213.997 485.764 207.477 492.001 205.343Z"/>
	<path d="M120.386 208.321C125.79 207.83 145.65 214.394 148.596 217.007C150.033 218.282 149.84 220.457 149.881 222.202C148.86 223.555 147.853 224.534 146.435 225.47C142.981 226.325 122.838 218.923 118.804 216.897C116.863 213.246 116.849 210.828 120.386 208.321Z"/>
	<path d="M460.103 169.425C462.244 169.217 463.395 169.643 465.269 170.632C465.842 171.832 466.224 173.113 466.646 174.372C464.741 179.814 455.804 196.775 450.401 199.677C446.529 199.659 445.268 198.487 443.783 194.921C445.476 189.923 455.162 172.033 460.103 169.425Z"/>
	<path d="M352.578 140.145C355.928 140.266 357.281 142.064 358.261 145.143C357.955 146.374 357.616 147.595 357.282 148.818C353.155 151.67 348.861 153.778 345.134 157.265C342.268 159.947 340.161 163.815 336.955 166.034C317.687 163.449 345.783 143.184 352.578 140.145Z"/>
	<path d="M255.215 142.581C263.299 141.302 276.485 153.67 279.832 161.232C278.902 163.041 278.28 164.786 276.601 166.034C270.963 167.385 267.701 161.548 263.882 158.251C260.274 155.135 255.225 152.763 252.521 148.818C252.404 145.802 252.676 144.573 255.215 142.581Z"/>
	<path d="M303.616 121.091C306.495 121.287 307.765 122.335 309.274 124.838C309.419 131.088 311.186 151.26 303.616 152.947C299.527 152.673 298.076 151.072 297.98 147.182C297.791 139.513 296.316 124.27 303.616 121.091Z"/>
</svg>
