<?xml version="1.0" encoding="utf-8" ?>
<svg xmlns="http://www.w3.org/2000/svg" xmlns:xlink="http://www.w3.org/1999/xlink" width="1024" height="1024">
	<path transform="scale(2 2)" d="M126.211 82.8154C134.122 81.7028 135.769 90.2443 138.323 95.8987C153.121 128.655 167.788 161.389 180.721 194.951C183.384 201.862 184.331 205.433 188.512 211.601C191.023 215.304 193.697 219.032 195.847 222.951C201.618 223.255 207.341 223.664 213.087 224.305C212.657 164.81 282.353 93.6129 340.585 114.272C342.716 115.028 344.995 115.865 346.901 117.098C368.306 96.1419 398.304 87.0709 423.332 107.953C472.996 149.391 452.685 217.999 407.498 254.483C404.407 256.979 400.69 259.357 398.154 262.432L397.912 262.728C400.008 268.122 402.921 273.015 405.238 278.288C412.443 294.679 419.306 314.006 420.487 332.006C421.17 336.162 421.273 340.639 421.296 344.851C421.544 389.008 396.683 413.922 354.127 423.336C318.843 431.142 269.951 429.121 239.406 407.296C236.905 405.509 234.559 403.526 231.966 401.869C224.001 402.47 215.596 401.259 207.64 400.638L152.066 396.118C132.133 394.664 113.65 387.294 111.946 363.865C111.519 357.996 112.503 352.029 113.115 346.196L119.821 283.586C121.763 265.788 119.821 256.821 136.568 245.678C129.747 232.984 126.51 231.902 116.084 222.057L76.5035 184.527C66.1165 174.551 57.1174 171.541 58.0473 156.709C60.4437 118.485 90.2019 91.0033 126.211 82.8154ZM269.371 263.501C312.173 264.767 360.997 206.683 362.03 166.459C362.676 141.322 344.426 121.395 318.78 123.375C272.071 126.832 222.468 178.611 226.122 225.345C227.964 248.914 245.637 265.004 269.371 263.501ZM91.14 114.276L105.476 127.259C110.405 131.701 121.749 140.703 108.782 144.435C102.153 142.63 89.4592 128.173 82.9002 123.375C74.2989 133.817 70.5198 147.307 70.1746 160.636C71.7988 159.707 73.3016 158.779 75.149 158.37C79.0053 159.239 97.4461 163.661 99.2709 166.492C100.869 168.972 100.878 172.908 98.0817 174.518C93.6821 177.05 87.3774 174.222 82.9002 172.902C85.4053 175.865 87.9991 178.605 91.14 180.897C99.0053 190.84 121.993 210.727 131.9 219.585C141.329 208.31 152.653 200.027 167.734 198.651L167.937 198.635C162.732 187.693 158.017 176.473 152.962 165.451L127.541 111.361C126.387 108.879 122.307 98.3088 119.856 97.2125C111.24 100.841 96.6801 106.847 91.14 114.276ZM386.026 344.777C385.96 339.89 387.102 330.224 382.065 329.002C363.165 349.401 343.862 369.356 324.162 388.986C325.756 388.999 327.35 389.031 328.943 388.986C334.268 388.628 339.786 387.445 344.94 387.227L386.026 344.777ZM358.241 322.714C347.887 331.842 337.209 343.561 327.042 353.319L303.254 375.999C299.382 379.697 295.22 383.276 291.611 387.227C297.383 387.752 303.234 388.313 308.987 388.986C310.541 388.987 312.1 389.016 313.653 388.986C318.624 384.227 323.059 378.812 327.728 373.752C340.472 359.94 353.477 346.298 367.122 333.37C369.536 331.083 372.25 329.012 374.503 326.581C368.992 324.768 363.124 324.312 358.241 322.714ZM153.594 250.684C157.499 258.737 162.392 266.518 166.804 274.315C170.113 280.163 172.401 288.369 179.479 290.389C181.581 289.813 183.463 289.16 185.379 288.1C177.359 273.027 168.255 256.498 159.411 241.872C156.851 244.69 154.799 246.99 153.594 250.684ZM246.024 351.127C251.603 343.257 261.775 334.164 268.7 327.067C269.018 326.741 276.166 320.905 272.52 322.714C264.157 322.384 254.316 326.274 246.024 328.005C246.968 335.612 244.147 343.364 245.296 351.155L245.605 351.347L246.024 351.127ZM140.722 228.558C142.633 231.736 144.379 235.065 146.562 238.062L148.71 234.941C155.893 225.686 167.276 220.852 178.424 218.393C176.923 216.112 175.479 213.544 173.577 211.579C171.978 211.315 169.415 210.746 167.937 211.579C157.037 211.865 147.188 220.314 140.722 228.558ZM380.917 273.134C390.554 294.245 393.863 309.963 397.912 332.006C399.621 328.561 403.97 318.335 404.631 315.243C401.693 302.752 394.16 281.159 386.775 270.119C384.86 271.217 382.851 272.086 380.917 273.134ZM348.312 320.857C341.894 319.598 335.368 319.7 328.943 318.624C321.89 326.446 313.662 333.359 306.022 340.607L264.6 379.789C269.328 381.744 278.347 384.982 283.309 385.284C286.334 383.084 289.043 379.506 291.618 376.77L306.863 360.783C320.124 347.013 334.017 333.549 348.312 320.857ZM250.143 315.243C252.057 314.405 253.913 313.443 256.02 313.206C259.213 301.496 262.969 287.511 267.6 276.298C265.919 276.317 264.236 276.353 262.555 276.298C258.69 284.305 250.375 306.899 250.143 315.243ZM360.723 383.411C370.365 379.605 378.991 375.02 383.391 365.054C383.867 363.977 386.224 357.583 386.026 356.963C381.969 359.758 361.908 380.344 360.573 383.135L360.723 383.411ZM306.785 318.624C302.246 318.771 293.449 318.588 289.355 320.175C283.856 322.305 251.204 351.695 246.024 358.155C247.282 364.754 249.708 369.628 254.66 374.191L257.756 376.765C264.45 370.401 270.656 363.237 276.931 356.449C288.223 344.233 301.552 329.898 313.653 318.624C311.364 318.692 309.075 318.651 306.785 318.624ZM357.485 124.504C360.589 126.77 363.683 130.199 365.912 133.343C378.342 118.672 389.08 112.749 407.676 112.88L407.902 112.879C389.772 104.801 370.672 110.226 357.485 124.504ZM243.151 271.474C228.95 299.164 217.209 337.006 226.889 367.198C231.386 381.221 239.119 393.351 252.192 400.725C250.613 396.338 249.533 390.979 250.914 386.407C217.549 364.727 237.37 302.568 250.143 274.449C247.829 273.417 245.49 272.447 243.151 271.474ZM140.054 381.931C131.151 368.707 134.944 359.038 136.609 344.378L141.117 302.444C142.188 292.411 143.048 269.673 145.425 261.488C144.803 260.122 144.161 258.845 143.363 257.572C137.359 258.791 134.782 262.004 133.914 267.708C131.622 282.75 130.77 298.094 129.057 313.213L125.673 345.182C124.042 361.215 121.086 375.627 140.054 381.931Z"/>
	<path fill="#FF5D15" transform="scale(2 2)" d="M205.003 236.301C208.376 236.06 211.757 236.215 215.133 236.301C216.578 245.788 225.192 258.746 232.756 264.529C217.005 292.578 205.096 336.246 213.84 367.084C216.105 375.071 219.677 382.105 223.25 389.544C208.329 388.568 193.469 387.08 178.571 385.866L156.066 384.1C150.962 383.672 144.822 383.926 140.054 381.931C131.151 368.707 134.944 359.038 136.609 344.378L141.117 302.444C142.188 292.411 143.048 269.673 145.425 261.488L145.583 261.708C147.326 264.195 148.716 267.016 150.216 269.658L158.781 284.905C161.074 289.039 163.191 293.616 166.604 296.957C178.673 308.772 189.147 300.509 199.952 293.675C208.935 287.994 219.941 283.021 221.84 271.386C223.323 262.299 210.741 244.403 205.003 236.301Z"/>
	<path fill="#FF5D15" transform="scale(2 2)" d="M365.912 133.343C378.342 118.672 389.08 112.749 407.676 112.88L407.902 112.879C450.589 140.23 411.045 200.18 385.425 225.378C373.696 236.914 338.233 265.576 319.965 257.572C342.699 243.647 366.386 208.615 372.373 183.561C376.894 164.645 375.21 150.61 365.912 133.343Z"/>
	<path transform="scale(2 2)" d="M108.782 104.531C116.389 104.012 122.378 117.92 125.796 123.893C128.385 128.416 128.293 131.631 123.369 134.12C116.953 135.112 114.412 127.725 111.552 123.26C108.501 118.496 99.5622 108.181 108.782 104.531Z"/>
	<path transform="scale(2 2)" d="M81.9731 138.272C86.2984 138.026 117.219 151.602 99.8638 158.37C95.098 158.233 79.8992 151.087 76.833 146.543C76.1967 142.044 77.6102 139.698 81.9731 138.272Z"/>
	<path fill="#FF5D15" transform="scale(2 2)" d="M267.6 276.298C282.629 276.507 297.959 272.522 310.741 264.529C324.522 280.348 349.554 281.799 368.774 277.519C373.684 288.636 380.164 303.262 382.065 315.243C340.963 304.123 297.42 302.05 256.02 313.206C259.213 301.496 262.969 287.511 267.6 276.298Z"/>
	<path fill="#FF5D15" transform="scale(2 2)" d="M159.411 241.872C165.257 234.966 175.953 230.899 184.78 230.177L185.379 230.133C188.568 233.002 205.774 260.032 208.792 265.992C212.579 273.475 200.969 277.993 196.157 281.15C192.725 283.402 189.098 286.428 185.379 288.1C177.359 273.027 168.255 256.498 159.411 241.872Z"/>
	<path fill="#FF5D15" transform="scale(2 2)" d="M404.631 315.243C406.195 320.303 406.945 326.112 407.577 331.37C412.265 370.373 400.166 396.3 360.96 408.276C349.162 411.88 336.513 414.177 324.162 414.336L324.162 401.311C364.923 400.561 399.808 390.306 398.707 343.827C398.618 340.073 398.666 335.669 397.912 332.006C399.621 328.561 403.97 318.335 404.631 315.243Z"/>
	<path fill="#FF5D15" transform="scale(2 2)" d="M438.919 152.917C442.656 175.444 436.87 196.875 424.6 215.868C406.302 244.194 382.585 265.029 348.312 267.689C344.989 267.771 353.051 264.676 353.412 264.492C389.209 246.231 426.687 206.696 435.949 166.198C436.968 161.743 437.502 157.289 438.919 152.917Z"/>
	<path fill="#FF5D15" transform="scale(2 2)" d="M250.914 386.407C265.547 396.398 294.082 401.054 311.709 401.311L311.709 414.336C293.236 415.029 268.427 410.19 252.192 400.725C250.613 396.338 249.533 390.979 250.914 386.407Z"/>
</svg>
