<?xml version="1.0" encoding="utf-8" ?>
<svg xmlns="http://www.w3.org/2000/svg" xmlns:xlink="http://www.w3.org/1999/xlink" width="1024" height="1024">
	<path transform="scale(2 2)" d="M179.694 92.424C180.145 74.7545 190.272 43.5333 208.669 37.9952C222.951 33.6957 239.15 43.1317 253.713 44.161C268.677 45.2187 282.171 36.7366 295.077 36.7762C323.485 36.8633 326.372 72.258 332.284 91.9473L332.429 92.424C346.914 96.8051 366.673 101.116 376.087 113.935C384.091 124.834 376.645 135.275 367.162 141.965C326.048 170.97 246.791 170.047 196.505 161.434C197.326 165.045 198.231 168.806 198.6 172.489C207.711 172.372 209.798 181.337 202.182 185.242C207.355 206.569 227.515 239.911 249.61 245.287C284.473 253.77 313.654 187.619 319.749 162.513C319.9 185.001 310.826 208.589 300.086 228.004C304.998 232.158 307.154 237.09 309.117 243.071C314.379 245.605 320.008 247.482 325.348 249.879C347.062 259.625 372.35 272.707 387.49 291.801C409.683 319.792 415.265 367.461 415.27 402.808C415.272 421.573 412.685 427.74 397.804 438.498C368.538 459.655 326.689 468.911 290.94 472.119C286.005 472.562 281.055 472.806 276.145 473.5C279.248 472.315 282.715 471.753 285.952 471.013C310.739 465.349 393.356 441.883 403.299 416.951C405.398 411.688 404.487 404.596 404.332 399.004C403.611 372.967 400.387 342.175 389.9 318.133C377.839 290.481 351.819 272.513 324.374 261.719C336.765 291.335 315.042 331.56 293.335 353.029C290.233 344.697 287.805 339.632 283.032 332.187C280.671 337.708 276.247 345.577 274.95 351.061C275.035 355.633 276.236 360.074 277.182 364.528L280.334 379.68C284.177 398.406 287.852 420.611 293.335 438.816C288.857 443.642 285.209 449.229 280.758 454.109C273.377 462.202 265.004 467.874 256.436 474.476C264.877 462.849 272.228 447.404 280.923 436.839C278.199 415.619 271.342 391.941 267.148 370.654C266.225 365.969 265.016 361.273 264.401 356.541C262.933 356.591 261.447 356.542 259.977 356.541C260.024 363.534 262.192 370.36 263.505 377.177C264.759 383.685 275.018 433.513 274.641 435.295C274.301 436.902 259.524 461.55 256.436 465.585C248.353 457.107 241.92 442.342 232.277 431.918C231.786 433.527 231.499 435.192 231.171 436.839C237.687 448.072 247.669 465.052 255.614 474.476C241.922 463.927 227.727 455.301 219.373 438.816C221.217 430.738 222.778 422.603 224.502 414.5L233.173 373.575C234.717 366.098 235.905 358.485 237.655 351.061C235.164 344.348 231.795 337.943 228.926 331.383C223.877 339.167 221.089 345.045 218.498 353.964C196.909 335.23 176.154 289.553 188.487 261.719C170.897 265.404 138.987 289.777 129.514 304.14C111.931 330.795 108.961 372.021 108.744 403.516C108.699 410.122 107.845 416.676 112.166 422.238C126.368 440.52 204.806 469.142 233.424 472.59C226.367 473.298 218.508 471.942 211.512 471.074C179.876 467.15 143.229 458.548 116.464 440.555C99.8459 429.384 97.794 423.646 97.6345 405.389C97.3896 377.347 99.9491 345.96 109.707 319.452C123.792 281.186 153.373 264.722 188.124 248.794C191.352 247.315 198.383 245.139 200.622 242.96C201.346 242.255 205.81 229.658 208.621 225.477C197.127 204.55 186.123 184.36 185.25 159.399C170.445 155.564 153.596 150.568 141.835 140.36C112.564 114.955 159.33 93.3501 179.694 92.424ZM246.587 72.5935C263.499 69.7712 287.553 54.9766 301.654 57.9409C306.61 58.9826 310.741 63.2346 312.817 63.6858C301.622 35.1386 279.659 54.8243 257.762 55.7377C243.05 56.3514 220.712 45.15 210.397 49.3617C195.12 55.5994 188.356 95.2452 188.487 111.895C228.624 126.73 282.845 125.767 322.666 111.895C306.489 43.1148 274.775 88.128 246.587 72.5935ZM334.846 111.895C333.218 116.359 328.468 118.595 324.405 120.478C292.521 135.249 205.374 141.509 177.753 113.402C177.636 106.739 178.693 100.22 179.694 93.6696C170.605 96.8409 134.52 111.001 143.591 125.483C146.527 126.393 149.505 128.092 152.331 129.346C191.665 146.802 242.477 149.149 285.02 142.323C300.337 139.866 336.897 132.246 343.526 116.385C346.029 110.396 338.319 103.736 333.49 101.881C333.899 105.223 334.464 108.554 334.846 111.895ZM216.139 234.339C211.36 243.966 214.722 256.585 220.748 265.023C228.499 278.242 242.703 288.031 256.436 294.225C281.339 281.994 302.997 258.984 299.625 229.477C296.601 232.668 294.013 236.213 291.035 239.439C266.838 265.649 237.7 262.274 216.139 234.339ZM259.977 345.77C261.774 345.716 263.552 345.663 265.348 345.77C267.694 338.113 272.631 331.358 274.95 323.729C273.531 322.508 271.99 321.427 270.481 320.32C268.579 323.304 260.341 342.585 259.977 345.77ZM265.348 302.661C272.865 308.192 280.183 313.616 286.708 320.32C290.48 324.432 293.724 328.563 296.526 333.406C307.873 320.674 317.232 293.062 316.251 276.603C315.998 272.362 312.164 256.792 308.269 254.334C299.049 279.011 288.342 288.741 265.348 302.661ZM203.412 255.426C187.408 278.998 201.235 312.066 214.726 333.406C217.481 328.462 221.563 322.947 225.939 319.31C231.65 313.882 239.935 306.766 246.587 302.661L246.262 302.411C229.525 289.669 216.984 285.289 206.732 263.003C205.798 260.974 204.802 256.964 203.412 255.426Z"/>
	<path fill="#FF5D15" transform="scale(2 2)" d="M247.635 356.541L259.977 356.541C260.024 363.534 262.192 370.36 263.505 377.177C264.759 383.685 275.018 433.513 274.641 435.295C274.301 436.902 259.524 461.55 256.436 465.585C248.353 457.107 241.92 442.342 232.277 431.918C232.447 428.907 233.568 425.572 234.219 422.622L238.341 403.54C241.749 387.949 244.65 372.218 247.635 356.541Z"/>
	<path fill="#FF5D15" transform="scale(2 2)" d="M332.429 95C342.836 98.3384 363.281 107.499 368.393 117.291C375.826 131.529 341.384 143.108 331.109 146.138C287.088 159.12 216.596 159.31 172.949 144.08C163.757 140.872 147.959 134.776 143.591 125.483C146.527 126.393 149.505 128.092 152.331 129.346C191.665 146.802 242.477 149.149 285.02 142.323C300.337 139.866 336.897 132.246 343.526 116.385C346.029 110.396 338.319 103.736 333.49 101.881C333.119 99.5898 332.735 97.3006 332.429 95Z"/>
	<path fill="#FF5D15" transform="scale(2 2)" d="M246.587 72.5935C263.499 69.7712 287.553 54.9766 301.654 57.9409C306.61 58.9826 310.741 63.2346 312.817 63.6858C319.47 75.8303 323.119 97.3252 325.337 110.76L322.666 111.895C306.489 43.1148 274.775 88.128 246.587 72.5935Z"/>
	<path fill="#FF5D15" transform="scale(2 2)" d="M255.614 309.499C260.473 313.252 265.757 316.361 270.481 320.32C268.579 323.304 260.341 342.585 259.977 345.77L247.635 345.77C244.73 340.331 239.164 329.417 237.655 323.729C241.504 318.891 250.475 313.309 255.614 309.499Z"/>
</svg>
