<?xml version="1.0" encoding="utf-8" ?>
<svg xmlns="http://www.w3.org/2000/svg" xmlns:xlink="http://www.w3.org/1999/xlink" width="1024" height="1024">
	<path transform="scale(2 2)" d="M246.638 50.9982C302.529 48.5586 331.64 91.1717 340.914 142.409C342.916 153.472 348.174 204.716 359.131 209.895C362.721 211.591 366.347 209.775 369.759 208.537C376.234 211.061 377.042 222.026 376.73 227.995C375.503 251.413 357.956 266.985 341.917 281.309C344.735 282.448 347.571 283.562 350.359 284.775C400.522 306.604 406.373 373.292 412.218 421.125C413.068 428.075 415.978 441.318 413.216 447.666C406.54 453.117 371.701 459.328 363.427 460.08C355.609 460.791 347.789 460.735 339.95 460.737L252.312 460.736L157.035 460.745C138.136 460.741 134.505 459.11 116.799 454.267C111.662 452.862 106.034 451.94 101.094 449.977C94.9923 447.553 97.8011 440.278 98.2328 435.201C101.343 398.629 109.025 331.889 134.399 303.728C147.03 289.71 156.998 288.361 170.656 279.928L171.001 279.712C154.279 271.198 132.895 262.543 130.504 240.538C130.036 236.226 131.144 228.798 134.048 225.473C138.43 220.455 148.177 235.595 158.727 222.635C180.323 196.106 139.591 137.992 182.482 85.1386C199.399 64.292 220.528 53.751 246.638 50.9982ZM196.528 173.257C198.334 173.11 200.063 173.237 201.866 173.257C207.396 176.463 207.289 185.805 209.826 192.193C216.187 208.21 231.781 231.049 248.42 237.495C273.847 247.538 299.385 204.148 304.822 184.521C306.641 177.952 305.979 169.508 315.526 173.257C322.565 169.427 326.166 156.287 322.416 149.225C318.059 141.022 291.174 146.314 273.916 115.783C273.053 114.256 269.894 106.949 269.417 106.44C246.038 145.324 206.356 127.365 195.112 146.142C190.446 153.935 191.202 165.811 196.528 173.257ZM106.893 441.935L126.674 447.343C136.947 450.154 142.871 451.309 153.648 451.241L153.539 450.805C152.329 446.132 149.859 441.807 148.443 437.172C142.489 417.687 144.869 404.84 153.648 387.755C154.294 396.69 153.783 409.005 153.648 418.375C155.645 429.687 157.892 442.351 165.756 451.241L232.855 451.241C228.352 444.157 222.528 437.708 217.488 430.982L172.743 372.041C171.422 370.309 168.06 367.229 168.815 364.748C169.247 363.332 184.085 345.553 186.182 343.412L185.806 343.109C181.365 339.571 167.379 332.511 165.22 328.785C165.009 324.164 168.158 317.805 169.597 313.429L175.801 293.969C176.087 293.065 177.94 288.121 177.484 287.481C132.141 302.073 122.655 339.857 114.952 381.777C111.153 402.453 109.947 421.651 106.893 441.935ZM326.315 343.412C331.599 350.628 339.812 358.857 344.222 366.061C342.391 369.069 340.002 371.857 337.851 374.648L278.753 451.241C286.122 450.772 293.749 451.239 301.148 451.242L347.713 451.241C353.411 438.177 357.72 432.961 358.603 418.375C359.027 407.663 360.038 396.406 359.255 385.7C370.112 403.988 370.281 424.824 361.857 443.812C360.764 446.276 359.465 448.685 358.603 451.241C368.742 450.69 379.141 448.658 388.943 446.054C394.044 444.699 399.532 442.174 404.822 441.935C403.562 425.956 401.523 409.999 399.116 394.157C394.334 362.686 388.97 325.289 363.252 303.369C357.41 298.39 341.523 289.658 333.52 287.481C335.076 295.516 343.565 321.329 347.713 329.305C340.389 333.263 332.98 338.353 326.315 343.412ZM280.63 242.129C260.857 253.864 250.881 254.761 231.947 242.129C229.369 252.517 228.53 257.515 223.242 267.329C223.463 275.791 224.194 284.239 230.687 290.422C242.354 301.535 268.176 300.449 279.817 289.829C285.721 284.133 287.813 278.338 287.973 270.141C288.077 264.755 281.375 251.531 280.63 242.129ZM246.638 408.785C247.98 415.016 253.434 431.782 256.286 437.179C258.162 432.842 259.385 428.216 260.767 423.706C271.837 387.578 280.129 350.265 285.465 312.881C285.841 310.24 287.533 303.575 286.883 301.234C268.591 313.353 244.548 314.123 225.534 302.767C230.271 334.712 235.961 378.157 246.638 408.785ZM273.011 451.241C279.021 441.126 287.547 428.821 294.626 419.132L317.245 386.696C322.2 379.601 327.036 372.433 332.219 365.5C326.162 357.262 314.162 341.929 307.056 334.928C311.043 335.301 314.823 336.349 318.559 337.77C324.406 333.607 330.311 329.375 336.403 325.583C331.474 311.261 326.91 296.731 321.701 282.516C317.149 280.123 308.694 276.348 303.858 275.23C302.732 282.07 302.223 289.092 301.282 295.973C295.122 340.978 286.021 383.102 273.501 426.873C271.167 435.035 268.443 443.081 266.107 451.241L273.011 451.241ZM209.406 274.072L196.066 279.683C193.765 280.628 191.331 281.43 189.102 282.516C184.915 294.9 180.281 314.329 174.988 325.583C181.444 328.996 188.146 333.032 193.712 337.77C197.112 336.199 201.046 335.552 204.725 334.928C196.289 344.218 187.891 355.683 179.651 365.5C185.153 372.249 189.908 379.782 194.833 386.965L217.776 420.538C224.801 430.561 231.556 440.923 238.139 451.241L247.661 451.241C227.621 399.496 218.15 348.634 211.52 293.496C211.121 290.173 210.785 275.786 209.406 274.072ZM142.335 245.236C156.698 251.515 172.957 247.287 179.749 232.479C187.482 215.622 182.375 196.123 179.944 178.655C174.52 139.665 192.073 94.7613 230.826 79.9341C256.333 70.175 283.848 77.8203 305.906 92.0954C308.769 93.9488 311.481 96.204 314.656 97.516C310.194 88.0084 299.473 77.1902 290.613 71.4811C248.405 44.2849 192.363 69.5526 176.413 114.835C167.865 139.103 171.228 161.323 174.285 185.689C177.151 208.538 170.833 244.971 140.137 235.441C139.963 239.096 140.458 242.033 142.335 245.236Z"/>
	<path fill="#FF5D15" transform="scale(2 2)" d="M142.335 245.236C156.698 251.515 172.957 247.287 179.749 232.479C187.482 215.622 182.375 196.123 179.944 178.655C174.52 139.665 192.073 94.7613 230.826 79.9341C256.333 70.175 283.848 77.8203 305.906 92.0954C308.769 93.9488 311.481 96.204 314.656 97.516C321.71 106.412 328.848 132.041 330.818 142.78C324.314 134.997 318.691 135.577 309.868 132.514C296.13 127.744 281.231 112.313 278.88 97.6445C277.998 92.1361 279.948 88.1861 272.256 87.5377C266.148 87.0229 265.195 92.284 262.904 96.6501C246.252 128.385 200.778 113.152 184.929 141.932C177.25 155.878 179.276 176.972 194.544 184.43C199.443 201.536 208.187 219.171 220.912 231.848C219.762 242.532 217.162 254.411 211.39 263.483C204.37 266.785 191.66 272.138 184.388 274.072C169.835 270.673 148.962 259.724 142.335 245.236Z"/>
	<path fill="#FF5D15" transform="scale(2 2)" d="M333.52 161.411C338.421 176.611 337.212 202.523 349.653 214.897C354.458 219.677 360.286 219.973 366.676 219.947C368.702 244.71 349.157 263.521 329.215 275.23L326.315 274.072C318.998 270.872 305.757 266.186 299.466 262.338C295.47 255.345 291.555 240.185 292.563 231.848C294.91 227.43 298.582 223.937 301.392 219.814C309.279 208.239 313.863 196.88 317.604 183.466C327.538 179.457 330.813 171.289 333.52 161.411Z"/>
</svg>
