<?xml version="1.0" encoding="utf-8" ?>
<svg xmlns="http://www.w3.org/2000/svg" xmlns:xlink="http://www.w3.org/1999/xlink" width="1024" height="1024">
	<path transform="scale(2 2)" d="M242.698 55.7448C256.908 54.3494 273.319 58.2573 285.712 65.2634C294.863 70.4369 293.944 69.8787 303.867 73.4164C335.117 84.5581 343.099 121.131 336.079 150.515C355.852 155.877 345.6 187.926 323.384 188.518C319.654 196.415 315.042 203.488 308.767 209.61C323.235 219.209 342.908 235.43 337.885 255.255C358.344 277.66 373.714 330.764 376.009 359.358C377.888 382.772 372.967 393.363 353.292 408.595C354.497 416.199 357.562 428.348 357.713 435.565C357.788 439.111 356.03 440.744 352.658 441.618C349.846 441.032 348.377 440.308 346.874 437.672C326.461 445.853 304.6 451.092 282.789 453.917C278.769 454.438 274.817 454.707 270.944 455.979C265.453 455.469 260.049 455.93 254.55 455.989C219.462 456.366 195.309 447.955 163.421 437.672C162.189 439.661 159.971 441.401 157.461 440.962C150.566 439.754 154.359 427.735 154.894 423.293C155.598 417.454 155.971 411.306 157.189 405.56C135.415 383.504 132.988 380.326 137.653 347.861C140.813 325.868 154.511 272.872 173.57 258.623C167.497 237.71 186.791 219.678 203.462 210.606C198.599 203.615 192.715 198.24 190.125 189.728C175.231 188.077 158.559 168.375 168.826 154.112C162.202 115.589 184.6 71.6755 223.022 59.6368C229.504 57.6056 235.967 56.5804 242.698 55.7448ZM174.32 338.095C178.653 318.358 177.675 302.053 188.698 282.844C186.846 289.679 186.773 297.48 186.263 304.546C185.096 320.736 183.571 340.627 184.5 356.896C187.664 361.136 206.886 379.794 211.098 380.365C213.781 380.729 215.817 380.022 217.736 382.484C224.844 391.606 204.905 415.056 199.028 421.197C202.498 426.851 201.785 432.053 199.028 437.672C214.85 443.028 243.1 445.333 259.253 445.193C262.384 423.514 263.87 379.189 259.253 360.566L259.215 360.842C258.996 362.506 259.6 364.31 258.396 365.648C254.034 367.387 255.557 358.322 255.525 356.336C255.354 345.698 253.932 327.331 249.176 317.403C239.891 298.017 204.647 287.127 187.371 275.082C184.31 272.948 181.6 270.46 178.873 267.929C160.572 286.386 149.505 333.844 146.615 358.175C145.534 367.274 143.778 371.718 148.99 380.008C150.381 375.038 150.989 369.558 152.088 364.482C155.332 349.499 160.179 330.44 167.037 316.814C169.907 323.717 171.283 331.207 174.32 338.095ZM190.752 152.903C192.136 173.884 199.703 193.743 215.892 207.945C220.334 211.841 225.491 214.298 230.381 217.51C233.142 217.873 235.619 219.139 238.251 219.957C283.403 233.984 322.72 193.418 322.139 149.075C309.178 143.264 296.188 134.144 289.768 121.123C289.596 120.774 289.692 120.898 289.398 120.672C265.076 141.171 252.199 147.222 218.538 149.791C209.466 150.483 199.594 150.621 190.752 152.903ZM317.874 435.748L317.874 434.813C314.967 435.265 311.362 433.582 310.497 430.615C309.492 427.169 313.196 422.912 314.826 420.082C306.29 413.814 284.677 388.016 293.943 380.8C295.9 379.276 298.41 380.245 300.536 379.209C306.763 376.176 322.704 364.552 327.396 359.399C331.186 355.238 329.091 345.652 328.827 340.436C327.855 321.278 324.99 301.66 324.457 282.844C329.544 297.377 333.264 306.528 335.716 322.643C336.339 326.736 336.782 330.924 337.885 334.919C343.443 324.885 347.522 314.254 352.658 305.025C349.392 295.34 338.784 271.327 331.594 264.466C305.548 285.749 279.289 286.62 262.582 323.323C274.124 351.533 274.142 403.35 271.227 432.605C270.842 436.467 270.145 440.532 270.238 444.415C284.164 443.83 304.73 439.409 317.874 435.748ZM242.698 98.2566L242.463 98.4019C238.602 100.739 234.221 102.337 230.246 104.506C214.33 113.19 202.958 123.794 195.249 140.756C217.863 140.478 241.261 125.329 257.564 111.075C263.031 104.347 268.395 98.2124 272.751 90.5897C268.629 114.408 260.37 124.888 237.765 136.739C267.196 128.962 277.578 119.877 296.006 97.0272C294.879 100.097 293.207 103.043 292.238 106.141C298.634 120.234 312.626 133.056 327.14 138.513L327.514 138.65C329.03 116.758 322.348 89.1101 298.213 82.9295C288.251 80.3785 291.026 80.6274 282.228 75.819C270.713 69.5259 257.165 65.6399 243.948 66.5012C204.274 71.7213 180.49 97.5045 178.952 138.388C178.764 143.387 177.189 158.129 182.763 143.94C193.756 115.955 214.61 102.675 242.698 98.2566ZM184.5 183.928C185.382 184.285 186.227 184.619 187.152 184.844C184.829 177.95 181.516 159.308 174.93 159.475C171.947 159.918 171.193 161.866 171.691 164.696C173.551 175.276 179.242 177.183 184.5 183.928ZM215.743 221.433C214.381 220.443 212.877 219.486 211.633 218.358C198.933 225.089 176.019 240.975 184.689 257.25C190.736 268.601 209.315 275.003 220.293 280.965C226.153 284.148 231.758 288.107 237.765 290.947C236.832 287.569 229.559 278.978 227.077 275.744C222.326 270.354 219.079 267.4 213.976 262.595C192.427 242.302 188.007 235.172 215.743 221.433ZM330.042 181.764C336.567 176.632 346.205 159.746 333.513 159.475C330.971 160.716 327.014 179.284 325.265 183.928C326.967 183.346 328.5 182.709 330.042 181.764ZM234.252 229.478C234.02 232.948 234.673 236.433 234.252 239.899C247.07 248.397 262.672 245.733 276.288 241.168L278.632 239.899C277.836 236.351 277.659 233.09 277.63 229.478C262.591 234.646 249.095 233.421 234.252 229.478ZM292.238 263.231C291.516 263.127 291.497 262.947 291.008 262.389C289.213 264.208 287.417 266.018 285.718 267.929L286.73 268.97C284.31 272.262 282.52 275.975 280.128 279.249L279.672 278.958C279.526 279.668 278.973 280.175 278.516 280.712C278.895 279.73 278.991 279.158 278.632 278.179C276.223 282.165 274.199 286.529 272.751 290.947C273.949 289.957 275.133 288.961 276.288 287.92C282.334 283.367 288.283 278.718 294.712 274.708C316.883 260.876 348.578 252.946 311.055 224.134C311.368 225.587 312.564 226.739 313.353 227.956C322.059 241.387 300.596 254.837 292.238 263.231Z"/>
	<path transform="scale(2 2)" d="M255.515 397.479C261.478 398.016 257.201 415.733 256.58 416.719C251.493 417.024 253.841 410.467 254.067 406.465C254.218 403.787 253.406 399.509 255.515 397.479Z"/>
	<path transform="scale(2 2)" d="M256.58 373.184C262.037 373.405 259.351 389.045 257.564 390.89C252.14 389.654 255.444 374.317 256.58 373.184Z"/>
	<path transform="scale(2 2)" d="M253.202 423.432C259.066 423.945 253.658 438.682 252.248 439.878C246.621 438.923 251.888 425.057 253.202 423.432Z"/>
	<path transform="scale(2 2)" d="M240.745 189.728C243.626 189.223 249.25 194.376 254.334 194.576C262.307 194.89 265.649 190.295 269.988 190.206C273.705 190.13 272.845 194.186 270.238 196.018C250.981 206.842 231.676 193.966 240.745 189.728Z"/>
	<path transform="scale(2 2)" d="M224.185 157.91Q224.392 157.863 224.602 157.83Q224.811 157.797 225.023 157.777Q225.234 157.758 225.446 157.753Q225.658 157.747 225.871 157.756Q226.083 157.765 226.294 157.787Q226.505 157.81 226.714 157.847Q226.923 157.883 227.129 157.933Q227.335 157.984 227.538 158.047Q227.74 158.111 227.938 158.188Q228.136 158.265 228.328 158.355Q228.521 158.444 228.707 158.547Q228.893 158.649 229.071 158.763Q229.25 158.878 229.421 159.004Q229.592 159.13 229.754 159.266Q229.917 159.403 230.069 159.551Q230.222 159.698 230.365 159.855Q230.508 160.012 230.64 160.178Q230.772 160.344 230.893 160.519Q231.014 160.693 231.123 160.875Q231.232 161.057 231.329 161.246Q231.426 161.435 231.51 161.629Q231.594 161.824 231.665 162.024Q231.737 162.224 231.794 162.428Q231.852 162.632 231.896 162.84Q231.941 163.048 231.971 163.258Q232.002 163.468 232.018 163.679Q232.035 163.891 232.037 164.103Q232.04 164.315 232.029 164.527Q232.017 164.739 231.992 164.95Q231.966 165.16 231.927 165.369Q231.888 165.577 231.835 165.783Q231.782 165.988 231.716 166.19Q231.65 166.392 231.57 166.588Q231.491 166.785 231.399 166.976Q231.306 167.168 231.202 167.352Q231.097 167.537 230.98 167.714Q230.864 167.892 230.736 168.061Q230.608 168.23 230.469 168.391Q230.33 168.551 230.18 168.702Q230.031 168.853 229.872 168.994Q229.713 169.135 229.546 169.265Q229.378 169.395 229.202 169.513Q229.026 169.632 228.842 169.739Q228.659 169.845 228.469 169.94Q228.279 170.034 228.083 170.116Q227.887 170.198 227.686 170.266Q227.485 170.335 227.28 170.39Q227.075 170.445 226.867 170.487Q226.713 170.518 226.559 170.541Q226.404 170.564 226.248 170.58Q226.092 170.595 225.936 170.603Q225.78 170.611 225.623 170.611Q225.466 170.612 225.31 170.605Q225.154 170.597 224.998 170.583Q224.842 170.568 224.687 170.545Q224.532 170.523 224.378 170.493Q224.225 170.463 224.073 170.426Q223.921 170.388 223.771 170.344Q223.621 170.299 223.473 170.247Q223.325 170.195 223.18 170.136Q223.035 170.077 222.893 170.011Q222.752 169.944 222.613 169.872Q222.475 169.799 222.34 169.719Q222.205 169.64 222.074 169.554Q221.943 169.467 221.817 169.375Q221.69 169.283 221.569 169.185Q221.447 169.086 221.33 168.982Q221.213 168.878 221.101 168.768Q220.99 168.658 220.883 168.543Q220.777 168.428 220.677 168.308Q220.576 168.188 220.482 168.064Q220.387 167.939 220.299 167.809Q220.211 167.68 220.129 167.547Q220.047 167.413 219.971 167.276Q219.896 167.139 219.827 166.998Q219.759 166.857 219.697 166.714Q219.636 166.57 219.581 166.423Q219.526 166.276 219.479 166.127Q219.432 165.978 219.392 165.826Q219.352 165.675 219.319 165.522Q219.286 165.369 219.261 165.214Q219.236 165.06 219.218 164.904Q219.201 164.749 219.191 164.593Q219.181 164.436 219.178 164.28Q219.176 164.123 219.181 163.967Q219.186 163.81 219.199 163.654Q219.212 163.498 219.232 163.343Q219.253 163.188 219.281 163.034Q219.309 162.88 219.344 162.727Q219.379 162.575 219.422 162.424Q219.465 162.274 219.515 162.125Q219.565 161.977 219.622 161.831Q219.679 161.685 219.744 161.543Q219.808 161.4 219.879 161.26Q219.95 161.121 220.028 160.985Q220.106 160.849 220.19 160.717Q220.274 160.586 220.365 160.458Q220.455 160.33 220.552 160.207Q220.649 160.084 220.752 159.966Q220.854 159.848 220.962 159.735Q221.071 159.621 221.184 159.514Q221.298 159.406 221.417 159.304Q221.535 159.202 221.659 159.106Q221.782 159.01 221.911 158.92Q222.039 158.83 222.171 158.746Q222.303 158.662 222.44 158.585Q222.576 158.508 222.716 158.438Q222.855 158.367 222.998 158.304Q223.142 158.24 223.288 158.184Q223.434 158.127 223.582 158.078Q223.731 158.029 223.882 157.987Q224.032 157.945 224.185 157.91Z"/>
	<path transform="scale(2 2)" d="M284.632 157.952Q284.783 157.92 284.934 157.896Q285.086 157.872 285.239 157.855Q285.392 157.838 285.545 157.829Q285.699 157.819 285.852 157.817Q286.006 157.815 286.16 157.82Q286.314 157.826 286.467 157.838Q286.62 157.851 286.772 157.871Q286.925 157.891 287.076 157.919Q287.227 157.946 287.377 157.981Q287.527 158.016 287.675 158.057Q287.823 158.099 287.969 158.148Q288.115 158.197 288.258 158.253Q288.401 158.309 288.541 158.372Q288.682 158.435 288.819 158.504Q288.956 158.573 289.09 158.649Q289.223 158.725 289.353 158.808Q289.483 158.89 289.609 158.979Q289.735 159.067 289.856 159.161Q289.977 159.256 290.094 159.356Q290.211 159.456 290.322 159.562Q290.434 159.668 290.54 159.779Q290.647 159.89 290.748 160.006Q290.849 160.122 290.944 160.242Q291.039 160.363 291.129 160.488Q291.218 160.613 291.301 160.743Q291.384 160.872 291.461 161.005Q291.538 161.138 291.608 161.275Q291.679 161.412 291.742 161.552Q291.806 161.692 291.863 161.834Q291.92 161.977 291.97 162.123Q292.02 162.268 292.062 162.416Q292.105 162.563 292.141 162.713Q292.177 162.863 292.205 163.014Q292.233 163.165 292.255 163.317Q292.276 163.469 292.289 163.622Q292.303 163.776 292.31 163.929Q292.316 164.083 292.315 164.237Q292.314 164.39 292.305 164.544Q292.297 164.697 292.281 164.85Q292.265 165.003 292.242 165.155Q292.219 165.307 292.188 165.458Q292.158 165.609 292.12 165.758Q292.082 165.907 292.037 166.054Q291.992 166.201 291.94 166.346Q291.889 166.49 291.83 166.632Q291.771 166.774 291.705 166.914Q291.64 167.053 291.567 167.188Q291.495 167.324 291.416 167.456Q291.338 167.588 291.253 167.716Q291.168 167.844 291.077 167.968Q290.986 168.092 290.889 168.212Q290.792 168.331 290.689 168.446Q290.587 168.56 290.479 168.67Q290.371 168.779 290.258 168.883Q290.145 168.987 290.027 169.086Q289.909 169.184 289.786 169.277Q289.663 169.37 289.536 169.457Q289.409 169.543 289.278 169.624Q289.147 169.705 289.013 169.779Q288.878 169.853 288.74 169.92Q288.602 169.988 288.461 170.049Q288.319 170.109 288.175 170.163Q288.031 170.217 287.885 170.264Q287.739 170.311 287.59 170.351Q287.385 170.406 287.176 170.447Q286.968 170.488 286.757 170.516Q286.547 170.543 286.335 170.556Q286.123 170.569 285.91 170.568Q285.698 170.567 285.486 170.552Q285.274 170.537 285.064 170.508Q284.853 170.479 284.645 170.436Q284.438 170.392 284.233 170.336Q284.028 170.279 283.828 170.208Q283.627 170.138 283.432 170.054Q283.237 169.971 283.047 169.875Q282.858 169.778 282.676 169.669Q282.493 169.561 282.318 169.44Q282.144 169.319 281.977 169.188Q281.811 169.055 281.654 168.913Q281.496 168.77 281.349 168.617Q281.202 168.464 281.065 168.302Q280.928 168.139 280.802 167.968Q280.676 167.797 280.562 167.618Q280.448 167.439 280.346 167.252Q280.244 167.066 280.155 166.873Q280.066 166.681 279.989 166.483Q279.913 166.284 279.85 166.081Q279.787 165.879 279.738 165.672Q279.689 165.465 279.653 165.256Q279.618 165.047 279.596 164.835Q279.575 164.624 279.568 164.412Q279.56 164.2 279.567 163.987Q279.574 163.775 279.595 163.564Q279.616 163.352 279.651 163.143Q279.686 162.933 279.735 162.727Q279.784 162.52 279.846 162.317Q279.908 162.114 279.984 161.916Q280.06 161.717 280.149 161.524Q280.238 161.331 280.339 161.145Q280.441 160.958 280.555 160.779Q280.668 160.599 280.794 160.428Q280.919 160.257 281.056 160.094Q281.192 159.931 281.339 159.778Q281.486 159.625 281.643 159.481Q281.8 159.338 281.966 159.206Q282.133 159.074 282.307 158.953Q282.482 158.832 282.664 158.722Q282.846 158.613 283.035 158.516Q283.224 158.42 283.419 158.336Q283.615 158.252 283.815 158.181Q284.015 158.11 284.22 158.053Q284.424 157.996 284.632 157.952Z"/>
	<path transform="scale(2 2)" d="M285.127 306.258C293.474 306.519 301.844 305.898 310.158 306.218C317.678 306.508 317.236 315.176 310.061 316.814C304.798 316.572 285.272 317.992 282.138 315.976C277.064 312.711 280.149 306.972 285.127 306.258Z"/>
	<path fill="#FF5D15" transform="scale(2 2)" d="M352.658 305.025C359.829 322.947 364.227 342.276 365.572 361.526C366.495 374.74 365.421 381.665 356.391 391.658C350.653 398.008 331.241 415.01 321.49 410.568C314.861 407.548 307.605 396.147 304.431 389.525C314.366 385.249 338.653 366.134 341.908 358.424C343.127 355.538 341.229 353.659 339.049 352.066C338.747 346.429 337.839 340.538 337.885 334.919C343.443 324.885 347.522 314.254 352.658 305.025Z"/>
	<path fill="#FF5D15" transform="scale(2 2)" d="M148.99 380.008C150.381 375.038 150.989 369.558 152.088 364.482C155.332 349.499 160.179 330.44 167.037 316.814C169.907 323.717 171.283 331.207 174.32 338.095C174.886 342.659 174.179 347.452 174.32 352.066C166.019 355.145 173.901 361.683 177.358 365.201C187.506 375.526 195.815 382.712 206.781 392.038C202.412 401.311 197.162 407.158 190.125 414.374C176.091 407.704 156.427 393.799 148.99 380.008Z"/>
	<path fill="#FF5D15" transform="scale(2 2)" d="M289.398 241.168C291.209 241.57 293.009 242.183 294.791 242.706C274.156 262.79 264.867 276.956 256.58 305.025C251.593 292.309 247.447 282.572 239.439 271.376C231.24 260.321 222.352 254.608 214.222 245.508C217.071 243.982 220.085 242.865 223.172 241.925C235.649 261.589 281.11 258.938 289.398 241.168Z"/>
	<path transform="scale(2 2)" d="M210.14 266.371C212.162 266.629 222.578 271.433 219.201 275.045C217.024 275.018 207.188 270.158 210.14 266.371Z"/>
	<path transform="scale(2 2)" d="M193.311 248.943C194.72 249.21 203.766 255.07 199.028 258.623C196.857 257.601 188.745 251.68 193.311 248.943Z"/>
	<path transform="scale(2 2)" d="M322.139 244.48C328.556 246.499 316.977 254.335 314.826 255.255C308.198 255.292 316.976 249.903 317.294 249.606C319.025 247.991 320.238 245.926 322.139 244.48Z"/>
	<path transform="scale(2 2)" d="M294.791 264.466C301.463 265.121 292.653 271.245 291.008 272.847C284.195 271.752 292.668 265.897 294.791 264.466Z"/>
	<path fill="#FF5D15" transform="scale(2 2)" d="M301.271 217.51C304.46 219.856 308.054 221.488 311.055 224.134C311.368 225.587 312.564 226.739 313.353 227.956C322.059 241.387 300.596 254.837 292.238 263.231C291.516 263.127 291.497 262.947 291.008 262.389C295.009 257.428 299.372 252.431 303.764 247.813C305.868 245.6 311.531 242.119 308.944 238.441C305.943 234.175 292.155 231.383 286.73 230.367L286.73 226.822C291.933 224.032 296.553 221.053 301.271 217.51Z"/>
	<path fill="#FF5D15" transform="scale(2 2)" d="M215.743 221.433C218.764 223.192 221.753 224.997 224.734 226.822L224.734 231.241C177.134 242.034 217.54 255.985 228.434 275.045C232.07 276.748 238.797 289.516 240.745 293.542C239.734 292.898 238.263 292.064 237.765 290.947C236.832 287.569 229.559 278.978 227.077 275.744C222.326 270.354 219.079 267.4 213.976 262.595C192.427 242.302 188.007 235.172 215.743 221.433Z"/>
	<path fill="#FF5D15" transform="scale(2 2)" d="M167.037 412.849C172.4 417.189 183.526 424.116 190.125 425.693C191.076 429.008 190.651 431.002 188.698 433.97C186.463 436.219 169.125 428.054 165.159 426.574C165.421 422.01 165.96 417.289 167.037 412.849Z"/>
	<path fill="#FF5D15" transform="scale(2 2)" d="M326.505 422.26C332.858 421.616 338.079 418.575 343.536 415.514C344.149 419.169 344.981 422.894 345.349 426.574C339.282 429.082 324.413 435.24 317.874 435.748L317.874 434.813C321.426 431.87 324.117 426.196 326.505 422.26Z"/>
	<path fill="#FF5D15" transform="scale(2 2)" d="M278.632 278.179C279.99 274.742 283.115 270.569 285.718 267.929L286.73 268.97C284.31 272.262 282.52 275.975 280.128 279.249L279.672 278.958C279.526 279.668 278.973 280.175 278.516 280.712C278.895 279.73 278.991 279.158 278.632 278.179Z"/>
</svg>
