<?xml version="1.0" encoding="utf-8" ?>
<svg xmlns="http://www.w3.org/2000/svg" xmlns:xlink="http://www.w3.org/1999/xlink" width="1024" height="1024">
	<path transform="scale(2 2)" d="M258.958 260.902C245.711 261.056 228.177 259.806 215.362 261.458L215.429 261.173C232.872 256.334 302.278 251.41 311.381 256.802C317.721 260.557 315.511 267.343 315.516 273.452C315.521 279.602 315.562 331.996 313.449 335.569C310.549 340.471 293.763 349.329 288.144 350.532C283.367 351.555 266.511 350.042 260.675 349.674C251.058 349.068 206.43 347.576 200.339 343.411C193.574 338.784 195.394 316.049 195.182 307.076L194.478 285.413C194.291 277.197 192.509 267.113 203.658 266.102C212.247 265.322 221.154 266.707 229.425 265.896C232.342 265.81 235.219 264.692 238.135 264.345C242.198 263.851 256.182 262.563 258.958 260.902ZM282.377 341.667C285.142 339.569 283.45 329.417 283.376 326.068L282.471 293.293C281.945 276.067 287.702 275.11 270.821 274.598L255.138 274.168C237.959 273.631 220.661 272.79 203.477 273.244C200.885 275.211 202.349 284.911 202.421 287.991L203.363 317.912C203.488 322.709 202.839 330.44 203.625 334.906C208.122 338.99 248.308 340.31 256.626 340.733L273.467 341.494C276.314 341.596 279.211 341.814 282.058 341.684L282.377 341.667Z"/>
	<path fill="#FF5D15" transform="scale(2 2)" d="M258.958 260.902C270.175 260.861 290.639 260.659 300.792 262.212C289.449 267.418 290.947 268.059 278.639 267.36C264.382 266.552 247.836 267.424 234.495 265.896C232.812 265.958 231.11 265.902 229.425 265.896C232.342 265.81 235.219 264.692 238.135 264.345C242.198 263.851 256.182 262.563 258.958 260.902Z"/>
	<path fill="#FF5D15" transform="scale(2 2)" d="M308.218 267.72C309.18 268.217 308.227 273.772 308.22 274.992C308.169 283.845 308.889 325.921 306.959 330.514C305.621 333.698 294.812 338.157 291.444 339.457C291.666 325.169 291.773 310.705 291.398 296.42C291.207 289.164 290.514 282.726 290.524 275.176C296.517 273.573 302.521 270.21 308.218 267.72Z"/>
	<path transform="scale(2 2)" d="M355.8 262.212C367.525 256.575 416.931 254.756 431.62 254.483C439.956 254.328 453.409 251.877 453.77 264.244C453.957 270.657 453.377 277.264 453.121 283.684L451.825 317.508C451.646 321.85 452.239 331.312 450.982 334.873C448.348 342.335 428.878 350.862 420.67 351.211C414.659 351.467 407.883 350.4 401.848 349.912L359.669 346.106C350.353 345.195 335.863 347.34 335.099 334.893C334.741 329.062 335.058 323.054 335.051 317.204L335.048 283.914C335.087 279.213 335.621 274.415 335.047 269.741C346.67 267.03 366.191 266.492 377.947 266.516C383.21 266.032 390.813 262.935 397.403 261.959C399.733 261.614 402.329 261.632 404.559 260.902C392.039 260.276 367.004 260.096 355.8 262.212ZM418.793 341.667C419.746 337.822 418.801 331.667 418.796 327.531L418.723 300.804C418.726 297.046 419.354 277.798 417.961 275.321C417.376 274.281 406.502 274.18 404.87 274.083L353.501 271.433C347.917 271.212 342.338 270.907 336.749 270.963C336.929 278.588 337.973 286.348 338.479 293.976L340.487 321.249C341.842 338.638 338.811 335.8 357.453 337.334L404.781 341.097C409.337 341.479 414.241 342.41 418.793 341.667Z"/>
	<path fill="#FF5D15" transform="scale(2 2)" d="M404.559 260.902C413.932 260.08 430.976 260.714 440.288 261.466C422.68 268.319 422.247 267.265 404.198 266.748C395.443 266.497 386.704 266.561 377.947 266.516C383.21 266.032 390.813 262.935 397.403 261.959C399.733 261.614 402.329 261.632 404.559 260.902Z"/>
	<path fill="#FF5D15" transform="scale(2 2)" d="M443.561 269.741C443.861 269.651 444.278 269.616 444.591 269.566L444.952 269.834C445.637 273.604 444.533 279.607 444.436 283.593C444.127 296.218 445.321 320.368 442.746 332.119C439.643 335.622 432.482 338.189 428.117 340.02C426.185 339.501 427.002 325.674 426.999 323.77L426.598 287.473C426.517 283.465 426.11 279.118 426.842 275.176C430.929 272.461 438.665 270.191 443.561 269.741Z"/>
	<path transform="scale(2 2)" d="M147.705 160.493C153.323 160.516 165.107 159.788 170.139 160.999C179.167 163.171 178.369 171.046 178.378 178.289C178.39 187.265 178.467 227.719 176.649 234.254C174.658 241.41 169.298 242.153 162.857 243.344C159.623 243.942 156.551 245.309 153.266 245.656C137.405 247.328 108.486 244.233 92.0631 243.321C86.8746 242.884 81.476 243.041 76.2614 242.902C56.9615 242.387 60.6991 233.088 60.4172 218.31C60.2351 208.762 58.1054 178.641 60.2449 170.604C62.1377 163.494 70.551 163.514 76.4777 163.16L92.2239 162.367C110.718 161.447 129.182 160.439 147.705 160.493ZM70.7075 234.514C73.5465 234.407 76.3485 234.314 79.1875 234.514C85.9036 234.467 143.339 237.308 145.862 236.269C146.465 233.359 146.174 229.999 146.164 227.024L146.138 188.529C146.126 175.598 149.952 168.181 136.221 169.251C116.836 169.2 91.9001 169.176 72.5751 170.884C66.2648 171.442 67.8475 175.49 67.6958 180.323C67.255 194.368 68.4902 208.432 68.7186 222.478C68.7774 226.096 67.5361 232.021 70.7075 234.514Z"/>
	<path fill="#FF5D15" transform="scale(2 2)" d="M154.094 168.73C157.235 168.716 167.818 168.085 170.215 169.78C171.303 173.184 169.8 203.542 169.669 208.501C169.535 213.588 171.48 232.454 167.346 233.782C162.968 234.906 158.606 236.191 154.094 236.612C153.762 215.746 152.871 189.411 154.094 168.73Z"/>
	<path transform="scale(2 2)" d="M412.682 160.493C419.328 160.613 425.998 160.48 432.647 160.473C440.606 160.463 453.021 160.083 452.733 171.791C452.407 185.069 451.424 198.391 450.787 211.661L450.151 226.78C449.941 230.943 450.38 235.786 446.983 238.863C438.511 246.535 417.335 246.055 406.315 245.53L375.797 243.974C368.417 243.489 360.995 243.409 353.604 243.2C334.311 242.654 333.578 241.108 333.555 223.726L334.137 181.213C334.243 177.058 334.106 172.844 334.752 168.73C346.294 164.85 377.212 162.595 389.773 161.716C397.393 161.183 405.082 161.166 412.682 160.493ZM336.749 170.381C336.299 178.135 337.783 187.186 338.368 195.063L340.059 218.609C341.286 236.545 337.864 234.705 357.688 234.514C364.809 234.751 413.834 237.775 417.463 236.928C419.925 236.353 418.799 221.144 418.801 218.592L418.795 188.17C418.682 169.506 424.56 165.22 399.332 168.73C391.816 167.549 374.478 168.925 366.525 169.2C356.662 169.542 346.547 169.208 336.749 170.381Z"/>
	<path fill="#FF5D15" transform="scale(2 2)" d="M435.281 169.735C437.846 169.473 441.787 168.776 443.942 170.372C445.519 175.414 442.734 222.758 442.746 231.783C439.907 232.881 437.091 233.852 434.115 234.514C432.365 235.231 428.68 237.08 426.853 236.067C425.447 232.616 426.89 178.426 426.842 170.381C429.653 169.96 432.444 169.805 435.281 169.735Z"/>
	<path transform="scale(2 2)" d="M277.916 160.493C283.955 160.462 306.067 159.451 310.335 162.765C316.452 167.517 315.137 172.324 314.791 179.097L312.891 223.699C312.361 235.219 314.728 238.939 302.331 242.434C291.407 245.514 284.338 246.218 273.178 245.851L252.265 244.957C247.311 244.705 242.268 244.275 237.312 244.47C230.808 243.996 224.331 243.596 217.816 243.278C193.996 242.116 197.447 241.043 197.442 219.601C197.437 202.6 198.168 185.709 198.793 168.73C217.487 162.201 258.721 160.334 277.916 160.493ZM200.147 169.735C202.315 188.241 204.341 215.686 203.96 234.514C207.842 234.822 211.674 234.783 215.553 235.218C221.48 235.014 227.476 235.305 233.403 235.478L262.522 236.464C267.73 236.652 274.744 237.383 279.789 236.97C284.765 236.562 282.383 221.812 282.379 217.451L282.377 171.322C281.478 170.063 280.678 169.451 279.334 168.73C276.063 168.466 272.859 168.509 269.588 168.73C248.818 168.607 219.864 171.968 200.147 169.735Z"/>
	<path fill="#FF5D15" transform="scale(2 2)" d="M293.369 169.735C311.449 167.702 307.989 170.979 307.519 184.98C307.047 199.077 305.713 218.826 306.714 232.597C305.439 232.869 304.123 233.388 302.875 233.782C300.257 233.995 293.461 236.485 291.259 234.996C289.842 230.079 290.525 221.944 290.525 216.658L290.515 178.867C290.488 175.824 290.299 172.773 290.524 169.735C291.471 169.697 292.421 169.726 293.369 169.735Z"/>
	<path transform="scale(2 2)" d="M77.9647 260.902C89.2233 257.055 117.829 256.855 130.272 256.117L154.499 254.683C162.144 254.277 174.457 251.634 177.52 261.21C179.326 266.859 179.299 329.196 175.909 335.776C173.124 341.182 158.082 348.163 152.094 349.936C143.19 352.574 114.652 348.771 104.028 347.875L83.6903 346.069C55.6748 343.423 61.5366 340.583 61.7242 315.935C61.8449 300.071 61.9384 281.739 63.2383 265.896C66.7422 279.49 66.2371 306.38 67.2336 321.073C67.6777 327.622 65.3103 335.501 73.6539 336.818C80.9001 337.961 89.6006 338.197 97.0819 338.852C113.228 340.265 129.901 342.169 146.139 341.667C146.584 334.874 146.152 278.393 144.887 275.551C139.326 272.112 67.2575 272.708 65.3192 270.088C67.2518 268.031 78.1838 267.445 81.4416 267.202C92.1337 264.719 120.991 264.843 126.985 261.466C111.436 261.463 93.0387 260.3 77.9647 260.902Z"/>
	<path fill="#FF5D15" transform="scale(2 2)" d="M126.985 261.466L152.492 261.46C156.222 261.462 163.963 261.132 167.181 261.942L167.431 262.235C166.866 262.698 149.995 267.699 148.597 267.866C142.27 268.622 130.954 267.225 124.066 267.185L94.8816 267.217C90.7193 267.238 85.4591 268.28 81.4416 267.202C92.1337 264.719 120.991 264.843 126.985 261.466Z"/>
	<path fill="#FF5D15" transform="scale(2 2)" d="M169.626 269.741C172.214 269.897 170.873 280.23 170.831 283.036L170.39 311.017C170.282 317.57 170.366 324.196 169.626 330.713C165.675 334.49 159.692 337.365 154.65 339.457L154.433 339.414C153.521 338.102 154.179 300.294 154.063 296.561C153.831 289.123 152.813 281.781 153.377 274.318L169.626 269.741Z"/>
</svg>
