<?xml version="1.0" encoding="utf-8" ?>
<svg xmlns="http://www.w3.org/2000/svg" xmlns:xlink="http://www.w3.org/1999/xlink" width="1024" height="1024">
	<path transform="scale(2 2)" d="M251.933 230.096C257.385 223.988 261.517 216.289 266.077 209.474L346.472 88.9441C352.048 80.4597 356.537 74.1676 358.991 64.079C359.696 61.1821 361.211 42.0506 368.439 48.5199C380.135 58.9878 373.844 108.079 370.956 121.394C362.132 162.08 340.4 206.523 312.083 237.442C294.899 250.656 296.017 254.639 284.567 268.842C290.58 278.851 302.901 291.328 301.446 302.565C304.562 304.43 307.707 306.211 310.575 308.449L310.978 308.635C314.026 310.067 317.358 313.106 320.673 313.551C326.493 314.333 336.575 310.433 343.036 309.844C372.982 307.117 401.055 321.423 417.109 346.713C417.977 348.257 418.746 349.7 419.275 351.396C422.674 353.345 422.593 358.854 422.497 352.518C456.08 402.711 422.322 473.631 355.551 465.06C356.125 463.099 359.24 462.445 360.711 461.133C359.067 460.96 356.947 461.595 355.551 460.513C348.92 460.332 342.835 458.944 336.486 457.165C303.186 446.713 282.851 412.132 283.493 378.268C283.695 367.64 286.491 362.861 283.434 352.048C279.784 339.138 272.79 327.035 263.945 316.987C259.369 318.487 257.837 314.496 254.246 313.231C244.56 318.451 231.874 345.837 228.882 355.852C225.701 366.501 228.076 377.146 228 388.025C227.814 414.574 216.063 442.572 191.84 455.743C177.179 463.714 156.446 466.82 140.315 461.951C139.029 461.563 136.958 460.985 136.103 459.92L136.858 459.714L136.922 459.501C91.2172 452.719 67.395 404.609 82.5029 361.876C95.7359 324.446 136.097 300.161 174.695 314.139C183.388 311.184 190.159 308.327 198.08 303.601C201.263 291.438 206.604 281.933 213.361 271.474C206.01 264.158 198.957 252.463 191.448 244.182C188.152 240.547 183.545 238.034 179.922 234.663C174.168 229.308 169.291 222.989 164.458 216.813C137.515 182.382 114.131 132.355 112.797 88.9677C112.58 81.9122 115.546 54.4666 120.919 49.041C129.629 40.2458 129.77 61.4675 130.093 63.6303C133.42 85.907 146.087 100.386 159.503 117.202L230.9 204.813C237.844 213.27 244.463 222.093 251.933 230.096ZM263.945 300.564C264.642 301.112 273.544 312.559 274.745 314.079C284.387 326.285 296.079 347.125 294.89 363.494C294.494 368.961 293.43 374.325 293.527 379.832C294.053 409.444 311.439 440.028 341.428 447.822C357.834 456.34 387.137 447.073 399.67 434.923C426.501 408.914 425.088 366.617 399.515 340.422C393.928 334.699 378.974 323.266 370.794 323.191C348.525 312.797 333.796 325.979 319.591 323.504C311.15 322.033 305.278 314.939 297.47 312.2L297.039 312.051C296.58 310.999 289.774 305.252 288.308 303.601C290.172 302.747 291.539 300.655 292.659 299C289.686 294.855 287.159 290.454 284.391 286.178L268.736 262.471C262.472 253.063 259.128 246.481 248.155 242.086C238.318 241.119 207.84 240.674 200.121 238.32C207.971 250.17 247.757 297.428 252.779 299.752C257.375 299.292 261.051 300.71 263.945 300.564ZM237.921 299C234.296 295.461 231.006 291.592 227.323 288.107L220.5 279.417C215.641 286.731 211.224 293.983 208.99 302.565C213.668 308.845 210.108 317.118 202.655 312.051C194.461 317.483 181.179 325.897 171.431 323.947C167.128 323.087 163.049 321.364 158.682 320.682C145.177 318.575 129.899 323.524 118.635 330.891C68.4979 363.681 82.7534 447.874 144.99 449.292C146.536 449.883 149.405 449.66 151.047 449.55C186.621 447.167 210.57 415.8 209.071 381.075C208.845 375.841 207.596 370.757 207.278 365.557C205.861 342.415 222.899 316.192 237.921 299ZM200.121 237.442C200.074 237.268 183.878 215.312 182.652 213.526C161.038 182.044 137.907 138.029 132.931 99.9092C129.022 92.3864 126.276 85.6623 122.75 78.1579C119.4 125.359 149.443 184.729 179.416 219.317C185.309 226.117 192.273 232.969 200.121 237.442ZM259.641 237.442C263.138 239.467 265.662 241.954 268.405 244.899C274.181 241.161 277.134 234.765 280.765 229.162L357.361 112.288C359.547 108.848 361.593 104.767 364.348 101.761C365.728 96.3647 365.88 83.7437 365.525 78.1579C362.569 82.0409 360.071 86.3657 357.419 90.463L340.774 116.204L268.052 225.198C265.291 229.316 262.768 233.579 259.641 237.442Z"/>
	<path fill="#FEFEFE" transform="scale(2 2)" d="M243.81 308.449C249.747 311.669 252.684 310.073 258.815 310.878C260.596 312.847 262.253 314.94 263.945 316.987C259.369 318.487 257.837 314.496 254.246 313.231C244.56 318.451 231.874 345.837 228.882 355.852C225.701 366.501 228.076 377.146 228 388.025C227.814 414.574 216.063 442.572 191.84 455.743C177.179 463.714 156.446 466.82 140.315 461.951C139.029 461.563 136.958 460.985 136.103 459.92L136.858 459.714L136.922 459.501C140.084 459.268 143.212 459.589 146.373 459.685C192.916 461.091 225.262 417.009 218.782 372.497C217.038 360.518 216.724 358.057 221.095 346.07C226.04 332.512 233.187 318.445 243.81 308.449Z"/>
	<path fill="#FEFEFE" transform="scale(2 2)" d="M419.275 351.396C422.674 353.345 422.593 358.854 422.497 352.518C456.08 402.711 422.322 473.631 355.551 465.06C356.125 463.099 359.24 462.445 360.711 461.133C359.067 460.96 356.947 461.595 355.551 460.513C408.024 463.649 443.117 409.288 424.105 360.914C423.088 358.326 422.04 355.63 420.515 353.297L419.275 351.396Z"/>
	<path fill="#FF5D15" transform="scale(2 2)" d="M252.779 299.752C260.791 280.697 277.891 294.856 288.308 303.601C289.774 305.252 296.58 310.999 297.039 312.051C302.319 318.178 320.432 328.806 328.529 329.439C336.999 330.101 349.522 325.063 358.309 323.751C361.109 323.333 369.584 323.557 370.794 323.191C378.974 323.266 393.928 334.699 399.515 340.422C425.088 366.617 426.501 408.914 399.67 434.923C387.137 447.073 357.834 456.34 341.428 447.822C340.725 446.784 337.071 445.017 335.816 444.271C315.177 432.015 303.213 407.049 303.361 383.447C303.418 374.384 305.945 366.292 303.621 357.28C299.434 341.046 287.132 320.351 275.796 308.094C273.299 305.394 268.245 299.263 263.945 300.564C261.051 300.71 257.375 299.292 252.779 299.752ZM339.648 430.858C346.673 438.589 360.865 441.665 370.861 440.93C416.771 437.557 423.674 378.359 389.695 349.758C385.019 345.823 372.194 337.903 366.377 338.415C363.534 337.722 360.736 336.927 357.83 336.521C311.089 329.998 297.367 398.05 334.582 427.365C336.168 428.615 338.146 429.554 339.648 430.858Z"/>
	<path transform="scale(2 2)" d="M339.648 430.858C338.146 429.554 336.168 428.615 334.582 427.365C297.367 398.05 311.089 329.998 357.83 336.521C360.736 336.927 363.534 337.722 366.377 338.415C380.57 344.11 390.096 353.038 396.172 367.259C412.917 406.45 381.121 448.142 340.02 431.014L339.648 430.858ZM369.358 351.396C364.865 347.661 356.255 346.1 350.552 346.596C318.492 349.384 316.398 395.923 336.486 414.824C337.523 415.664 338.561 416.476 339.648 417.249C340.052 418.88 342.775 420.509 344.145 421.273C359.487 429.819 378.012 422.884 386.195 407.912C396.473 389.106 388.09 361.573 369.358 351.396Z"/>
	<path fill="#FF5D15" transform="scale(2 2)" d="M227.323 288.107C231.006 291.592 234.296 295.461 237.921 299C222.899 316.192 205.861 342.415 207.278 365.557C207.596 370.757 208.845 375.841 209.071 381.075C210.57 415.8 186.621 447.167 151.047 449.55C149.405 449.66 146.536 449.883 144.99 449.292C144.746 448.59 142.623 448.473 141.866 448.31C98.5098 438.971 87.4228 389.259 110.184 355.343C121.599 338.334 135.329 331.558 154.369 326.309C161.956 324.218 163.267 322.849 170.864 325.477C177.524 327.782 182.79 329.266 189.878 327.854C196.271 326.58 212.535 320.514 215.841 314.889C217.593 311.907 217.146 308.308 218.211 305.096C219.891 300.03 224.324 292.564 227.323 288.107ZM131.299 431.889C136.229 436.735 146.378 438.837 153.013 439.103C192.713 440.695 214.125 381.916 185.914 352.222C182.788 348.932 173.939 340.914 169.195 340.785C132.367 321.255 96.8967 369.284 108.753 405.85C112.66 417.901 119.738 426.739 131.299 431.889Z"/>
	<path transform="scale(2 2)" d="M131.299 431.889C119.738 426.739 112.66 417.901 108.753 405.85C96.8967 369.284 132.367 321.255 169.195 340.785C193.183 356.878 194.063 390.643 178.898 413.183C166.762 431.22 151.565 436.443 131.299 431.889ZM165.8 351.396C154.426 341.623 137.691 348.527 129.033 358.552C116.878 372.626 110.328 401.814 125.645 415.574C139.237 429.672 158.802 423.335 169.213 409.001C180.891 392.923 184.019 364.283 165.8 351.396Z"/>
	<path fill="#FF5D15" transform="scale(2 2)" d="M132.931 99.9092C135.296 102.091 137.103 105.694 139.162 108.262L241.723 234.213C243.745 236.638 246.596 239.371 248.155 242.086C238.318 241.119 207.84 240.674 200.121 238.32C200.067 237.717 200.064 238.009 200.121 237.442C200.074 237.268 183.878 215.312 182.652 213.526C161.038 182.044 137.907 138.029 132.931 99.9092Z"/>
	<path fill="#FF5D15" transform="scale(2 2)" d="M364.348 101.761C362.796 137.784 328.045 208.774 302.572 232.179C293.472 240.54 284.237 248.029 279.132 259.762L271.806 249.635C270.694 248.101 269.345 246.534 268.405 244.899C274.181 241.161 277.134 234.765 280.765 229.162L357.361 112.288C359.547 108.848 361.593 104.767 364.348 101.761Z"/>
	<path transform="scale(2 2)" d="M245.36 250.952Q245.671 250.914 245.984 250.891Q246.296 250.868 246.61 250.86Q246.923 250.853 247.236 250.86Q247.55 250.868 247.862 250.892Q248.175 250.915 248.486 250.953Q248.797 250.992 249.106 251.046Q249.414 251.1 249.72 251.169Q250.026 251.238 250.328 251.322Q250.63 251.406 250.927 251.504Q251.225 251.603 251.517 251.716Q251.809 251.829 252.096 251.957Q252.382 252.084 252.662 252.226Q252.941 252.367 253.214 252.522Q253.486 252.677 253.751 252.845Q254.015 253.013 254.271 253.194Q254.527 253.375 254.774 253.569Q255.02 253.762 255.257 253.967Q255.494 254.173 255.721 254.389Q255.947 254.606 256.163 254.833Q256.378 255.061 256.582 255.299Q256.786 255.537 256.978 255.784Q257.171 256.032 257.35 256.289Q257.53 256.546 257.697 256.811Q257.864 257.076 258.018 257.349Q258.171 257.623 258.311 257.903Q258.451 258.183 258.577 258.47Q258.703 258.757 258.815 259.05Q258.927 259.343 259.024 259.641Q259.121 259.939 259.204 260.241Q259.286 260.544 259.354 260.85Q259.421 261.156 259.474 261.465Q259.526 261.774 259.563 262.085Q259.6 262.396 259.622 262.709Q259.644 263.022 259.65 263.335Q259.656 263.648 259.647 263.962Q259.638 264.275 259.614 264.587Q259.589 264.9 259.549 265.211Q259.509 265.522 259.454 265.83Q259.399 266.139 259.329 266.444Q259.259 266.75 259.174 267.051Q259.089 267.353 258.989 267.65Q258.889 267.947 258.775 268.239Q258.66 268.531 258.532 268.817Q258.403 269.102 258.26 269.382Q258.118 269.661 257.962 269.933Q257.806 270.204 257.637 270.468Q257.467 270.732 257.285 270.987Q257.103 271.242 256.909 271.488Q256.715 271.734 256.509 271.97Q256.302 272.206 256.085 272.432Q255.867 272.658 255.639 272.872Q255.411 273.087 255.172 273.29Q254.933 273.493 254.685 273.684Q254.436 273.876 254.179 274.054Q253.922 274.233 253.656 274.399Q253.39 274.565 253.116 274.717Q252.842 274.87 252.561 275.009Q252.28 275.148 251.993 275.273Q251.705 275.397 251.412 275.508Q251.119 275.619 250.82 275.715Q250.522 275.811 250.219 275.892Q249.917 275.973 249.61 276.04Q249.304 276.106 248.995 276.157Q248.685 276.208 248.374 276.244Q248.064 276.28 247.753 276.3Q247.442 276.321 247.13 276.326Q246.818 276.331 246.507 276.321Q246.195 276.311 245.884 276.286Q245.573 276.26 245.264 276.22Q244.955 276.179 244.648 276.124Q244.341 276.068 244.037 275.998Q243.734 275.927 243.434 275.842Q243.134 275.757 242.838 275.657Q242.543 275.557 242.253 275.443Q241.963 275.329 241.678 275.2Q241.394 275.072 241.117 274.93Q240.839 274.788 240.569 274.633Q240.298 274.477 240.036 274.309Q239.773 274.14 239.52 273.959Q239.266 273.778 239.021 273.585Q238.776 273.391 238.541 273.186Q238.307 272.981 238.082 272.765Q237.857 272.548 237.644 272.321Q237.43 272.094 237.227 271.857Q237.025 271.62 236.835 271.373Q236.644 271.126 236.466 270.87Q236.288 270.614 236.122 270.35Q235.957 270.086 235.804 269.813Q235.652 269.541 235.513 269.262Q235.374 268.983 235.249 268.697Q235.124 268.411 235.014 268.12Q234.903 267.829 234.806 267.532Q234.71 267.236 234.628 266.935Q234.546 266.634 234.479 266.329Q234.412 266.025 234.36 265.717Q234.308 265.41 234.271 265.1Q234.234 264.79 234.212 264.479Q234.191 264.168 234.184 263.856Q234.178 263.545 234.186 263.233Q234.195 262.921 234.219 262.61Q234.243 262.299 234.283 261.99Q234.322 261.68 234.376 261.373Q234.43 261.066 234.5 260.762Q234.569 260.458 234.653 260.158Q234.737 259.857 234.836 259.562Q234.935 259.266 235.048 258.975Q235.161 258.684 235.288 258.4Q235.415 258.115 235.556 257.837Q235.697 257.558 235.851 257.287Q236.006 257.017 236.173 256.753Q236.341 256.49 236.521 256.236Q236.701 255.981 236.893 255.736Q237.086 255.49 237.29 255.254Q237.494 255.019 237.71 254.793Q237.925 254.568 238.151 254.353Q238.378 254.138 238.614 253.935Q238.85 253.732 239.097 253.54Q239.343 253.349 239.598 253.17Q239.853 252.99 240.117 252.824Q240.381 252.657 240.652 252.504Q240.924 252.35 241.202 252.211Q241.481 252.071 241.766 251.944Q242.052 251.818 242.343 251.706Q242.634 251.594 242.93 251.497Q243.226 251.399 243.527 251.316Q243.827 251.233 244.132 251.165Q244.436 251.097 244.743 251.043Q245.05 250.99 245.36 250.952Z"/>
	<path fill="#FF5D15" transform="scale(2 2)" d="M245.884 259.82Q245.983 259.793 246.083 259.77Q246.184 259.748 246.285 259.731Q246.386 259.713 246.488 259.701Q246.59 259.689 246.693 259.681Q246.795 259.674 246.898 259.672Q247.001 259.669 247.103 259.672Q247.206 259.675 247.309 259.683Q247.411 259.69 247.513 259.703Q247.615 259.716 247.716 259.734Q247.817 259.751 247.917 259.774Q248.018 259.797 248.117 259.824Q248.216 259.852 248.313 259.884Q248.411 259.917 248.506 259.954Q248.602 259.991 248.696 260.033Q248.79 260.075 248.882 260.121Q248.973 260.168 249.063 260.218Q249.152 260.269 249.238 260.324Q249.325 260.38 249.409 260.439Q249.493 260.498 249.574 260.562Q249.655 260.625 249.732 260.692Q249.81 260.76 249.884 260.831Q249.959 260.902 250.029 260.976Q250.1 261.051 250.167 261.129Q250.234 261.207 250.297 261.288Q250.36 261.369 250.419 261.453Q250.478 261.537 250.533 261.624Q250.587 261.711 250.638 261.8Q250.688 261.89 250.734 261.982Q250.78 262.074 250.822 262.168Q250.863 262.262 250.9 262.358Q250.937 262.454 250.969 262.551Q251.001 262.649 251.028 262.748Q251.055 262.847 251.077 262.947Q251.1 263.048 251.117 263.149Q251.134 263.25 251.147 263.352Q251.159 263.454 251.166 263.557Q251.174 263.659 251.176 263.762Q251.178 263.865 251.175 263.967Q251.173 264.07 251.165 264.173Q251.157 264.275 251.144 264.377Q251.132 264.479 251.114 264.58Q251.096 264.681 251.073 264.781Q251.05 264.882 251.023 264.981Q250.995 265.08 250.963 265.177Q250.93 265.275 250.893 265.37Q250.856 265.466 250.814 265.56Q250.772 265.654 250.726 265.745Q250.679 265.837 250.628 265.926Q250.577 266.016 250.522 266.102Q250.467 266.189 250.408 266.273Q250.348 266.357 250.285 266.438Q250.222 266.518 250.154 266.596Q250.087 266.674 250.016 266.748Q249.945 266.822 249.87 266.893Q249.796 266.964 249.718 267.03Q249.64 267.097 249.559 267.16Q249.477 267.223 249.393 267.282Q249.309 267.341 249.222 267.396Q249.135 267.451 249.046 267.501Q248.956 267.552 248.864 267.598Q248.772 267.644 248.678 267.685Q248.584 267.726 248.488 267.763Q248.392 267.8 248.295 267.832Q248.197 267.864 248.098 267.891Q247.999 267.918 247.899 267.94Q247.798 267.963 247.697 267.98Q247.596 267.997 247.494 268.009Q247.392 268.022 247.29 268.029Q247.187 268.036 247.084 268.039Q246.982 268.041 246.879 268.038Q246.776 268.035 246.674 268.027Q246.572 268.02 246.47 268.007Q246.368 267.994 246.267 267.976Q246.166 267.958 246.065 267.936Q245.965 267.913 245.866 267.885Q245.767 267.858 245.67 267.825Q245.573 267.793 245.477 267.755Q245.381 267.718 245.287 267.676Q245.194 267.634 245.102 267.588Q245.01 267.542 244.921 267.491Q244.832 267.44 244.745 267.385Q244.659 267.33 244.575 267.27Q244.491 267.211 244.41 267.148Q244.329 267.084 244.252 267.017Q244.174 266.95 244.1 266.879Q244.026 266.808 243.955 266.733Q243.884 266.659 243.818 266.581Q243.751 266.503 243.688 266.422Q243.625 266.341 243.566 266.257Q243.507 266.172 243.452 266.086Q243.397 265.999 243.347 265.909Q243.296 265.82 243.25 265.728Q243.204 265.636 243.163 265.542Q243.122 265.448 243.085 265.352Q243.048 265.256 243.016 265.159Q242.984 265.061 242.957 264.962Q242.93 264.863 242.908 264.763Q242.885 264.662 242.868 264.561Q242.851 264.46 242.838 264.358Q242.826 264.256 242.819 264.154Q242.811 264.051 242.809 263.949Q242.807 263.846 242.81 263.743Q242.812 263.641 242.82 263.538Q242.828 263.436 242.841 263.334Q242.853 263.232 242.871 263.131Q242.889 263.03 242.912 262.93Q242.934 262.829 242.962 262.73Q242.99 262.632 243.022 262.534Q243.054 262.437 243.092 262.341Q243.129 262.245 243.171 262.151Q243.212 262.058 243.259 261.966Q243.305 261.874 243.356 261.785Q243.407 261.696 243.462 261.609Q243.517 261.522 243.576 261.439Q243.636 261.355 243.699 261.274Q243.762 261.193 243.83 261.115Q243.897 261.038 243.968 260.964Q244.039 260.889 244.113 260.819Q244.188 260.748 244.266 260.681Q244.344 260.614 244.425 260.551Q244.506 260.488 244.59 260.429Q244.674 260.37 244.761 260.315Q244.848 260.261 244.937 260.21Q245.027 260.16 245.118 260.114Q245.21 260.068 245.304 260.026Q245.398 259.985 245.494 259.948Q245.59 259.911 245.687 259.879Q245.785 259.847 245.884 259.82Z"/>
</svg>
