<?xml version="1.0" encoding="utf-8" ?>
<svg xmlns="http://www.w3.org/2000/svg" xmlns:xlink="http://www.w3.org/1999/xlink" width="1024" height="1024">
	<path fill="#010101" transform="scale(2 2)" d="M244.787 47.8289C262.142 45.8186 273.58 61.4684 279.761 75.6377C283.996 74.694 288.322 74.5649 292.638 74.2848L338.819 71.493C343.82 71.1721 352.77 68.9939 356.559 73.1172C358.879 75.641 358.823 121.893 358.489 126.676C370.412 120.618 389.207 104.652 402.362 104.105C414.105 103.616 420.773 114.932 414.478 125.078C404.52 141.124 378.448 158.389 363.768 173.221C363.372 178.827 363.853 184.416 364.097 190.019L365.118 214.24C366.174 239.019 367.05 263.868 367.376 288.659L367.473 304.747C367.478 309.269 367.748 314.558 366.773 318.977C373.54 318.743 381.703 318.012 382.416 326.881C382.661 329.931 380.437 352.626 379.59 355.506C377.061 364.106 363.74 361.951 356.944 362.292C344.761 362.902 332.545 363.406 320.384 364.365C322.396 370.578 323.999 376.872 325.682 383.176L334.565 417.496C336.972 426.849 344.289 441.186 337.24 448.593C341.643 448.89 379.634 454.206 381.531 457.605C382.538 459.412 381.659 461.19 379.848 461.952C372.047 465.232 328.901 461.611 320.85 458.381C312.462 455.017 310.736 448.927 307.669 441.107L302.658 428.514C300.535 423.271 298.163 418.137 295.956 412.929C292.643 405.048 289.506 397.055 285.983 389.267C265.906 395.643 217.052 393.758 195.573 393.755L195.495 394.095C191.787 409.699 186.79 424.232 180.854 439.109C176.157 450.882 174.932 457.253 160.925 459.58C154.431 460.659 111.2 465.128 108.771 460.642C109.136 455.878 141.135 451.904 145.938 451.535C140.315 442.242 147.119 427.727 150.057 418.34C155.182 401.967 160.752 385.828 166.665 369.728C151.067 369.761 135.507 370.125 119.913 370.3C112.592 370.382 96.7753 374.254 95.6016 363.216C95.2867 360.256 98.4619 338.157 99.3368 334.295C100.346 329.84 102.776 329.584 106.985 329.202C107.805 324.026 108.144 318.711 108.72 313.497L133.898 98.4449C135.734 83.3203 134.379 84.1397 150.372 83.2211L197.683 80.3615C203.307 80.0061 208.926 79.4103 214.564 79.7385C218.205 65.4944 229.527 50.3369 244.787 47.8289ZM121.258 328.24C126.936 328.348 132.692 327.732 138.373 327.504L313.487 320.474C329.497 319.954 345.546 319.087 361.562 318.977L352.791 203.115C352.336 196.847 351.566 190.4 351.672 184.121C347.594 187.163 343.864 190.704 340.031 194.048L311.415 219.109C309.032 221.163 306.274 223.182 304.375 225.712C305.499 231.971 306.236 238.234 307.135 244.524L311.126 272.177C312.965 285.43 315.093 298.73 316.559 312.027C304.963 311.987 293.273 312.834 281.746 314.008C281.33 307.01 280.408 300.122 279.638 293.161L276.861 266.727C276.203 260.409 275.149 254.183 275.242 247.812C273.852 248.603 272.532 249.396 271.256 250.364C269.056 253.942 267.82 258.051 265.675 261.691C245.037 296.709 185.796 311.34 149.443 293.172C143.942 290.422 139.329 286.709 134.078 283.629L134.289 283.643C154.126 284.859 180.395 279.691 191.81 261.413C205.738 239.111 209.978 220.312 239.754 217.366C250.137 216.339 250.998 210.852 258.973 202.968C263.448 198.544 268.123 194.39 272.845 190.236C272.242 183.371 271.245 176.498 270.431 169.653L264.88 124.848C263.727 115.85 262.328 106.777 261.654 97.7312C270.743 98.5725 281.881 96.9059 290.898 95.4265C293.427 118.987 297.016 143.866 300.848 167.36C315.524 156.341 335.715 139.973 351.672 131.475L349.129 97.3392C348.819 93.182 348.354 89.021 348.13 84.8598C282.705 90.4948 211.425 91.2213 145.938 91.3489C143.977 116.103 141.189 140.823 138.662 165.526L121.258 328.24ZM254.459 223.293C258.308 228.471 262.735 233.447 267.111 238.188C269.371 236.69 271.663 235.123 273.697 233.324C272.869 232.458 271.989 231.61 271.256 230.662C267.308 226.278 262.553 222.802 262.765 216.459C268.31 206.204 276.903 221.139 283.587 225.712C286.838 222.39 290.795 219.58 294.409 216.659C304.35 208.624 402.784 122.642 405.05 117.527C404.464 115.956 402.128 116.369 400.792 116.533C390.701 119.836 379.909 126.604 370.873 132.129C338.742 151.776 302.98 178.185 274.694 203.197C267.485 209.572 261.438 216.822 254.459 223.293ZM305.649 365.329C299.667 365.238 293.718 365.789 287.755 365.743C289.135 369.67 291.1 373.459 292.845 377.234C302.269 397.613 310.529 418.453 319.123 439.187C319.994 441.334 320.914 443.472 321.732 445.639C324.241 445.638 326.757 445.603 329.266 445.639C325.241 435.024 322.939 423.99 320.37 412.958L312.389 379.868C311.235 375.041 310.37 370.133 309.127 365.329L305.649 365.329ZM198.06 385.629C200.931 385.158 203.807 384.758 206.69 384.375C234.4 381.198 256.017 379.283 283.587 382.377C282.85 380.572 277.043 366.07 276.685 365.743C268.943 367.486 258.589 367.17 250.503 367.394L216.351 368.515C211.292 368.678 205.802 368.344 200.83 369.25C200.436 374.608 199.206 380.368 198.06 385.629ZM244.787 336.697C232.388 336.227 219.831 336.928 207.425 337.229L123.127 339.394C118.35 339.496 113.571 339.716 108.8 339.367C108.353 345.965 106.94 358.411 105.907 364.928C109.924 365.148 114.037 364.452 118.063 364.365C117.959 346.286 132.984 348.809 147.342 347.483L174.523 344.922C190.05 343.479 205.521 341.194 221.033 339.563L237.238 337.809C239.655 337.529 242.486 337.47 244.787 336.697ZM173.177 289.229C177.887 289.339 188.45 288.377 192.303 289.229C204.588 280.07 210.585 274.022 218.604 261.068C227.02 247.473 233.775 236.295 251.935 235.685C250.135 233.172 248.006 230.853 246.421 228.2C227.207 228.973 215.144 241.208 206.883 257.292C197.187 276.172 193.781 279.664 173.177 289.229ZM221.978 78.6717C230.368 78.6277 238.711 77.5229 247.105 77.5067C255.679 76.7621 264.282 76.439 272.845 75.6377C265.883 69.612 256.716 59.0806 246.421 60.5445C235.952 62.6283 228.685 71.0101 221.978 78.6717ZM163.586 447.289C173.122 421.134 182.761 395.024 193.295 369.25C192.056 369.237 190.803 369.183 189.566 369.25C183.492 369.249 177.458 369.194 171.402 369.728C170.461 372.6 169.944 375.659 169.31 378.613L158.667 426.551C157.171 433.295 155.814 440.105 154.148 446.806L157.802 446.806C159.739 447.119 161.627 447.246 163.586 447.289Z"/>
	<path fill="#FF5D15" transform="scale(2 2)" d="M189.566 120.507C207.029 119.962 234.485 124.65 240.982 144.007C247.132 162.332 226.999 181.919 214.8 192.555C203.641 202.285 193.676 211.566 187.169 225.119C184.662 230.342 182.658 235.795 180.074 240.985C173.466 253.836 159.859 255.014 155.778 240.118C147.19 208.768 190.434 171.856 179.986 153.57C175.652 145.987 166.154 144.313 163.586 135.119C166.441 123.711 179.485 121.535 189.566 120.507Z"/>
	<path fill="#FF5D15" transform="scale(2 2)" d="M244.787 336.697C250.472 335.441 257.93 335.935 263.86 335.669L349.834 331.886C356.303 331.557 363.09 330.578 369.53 331.076C368.565 337.238 367.961 343.505 367.452 349.72C357.93 349.71 348.471 350.569 338.976 351.12L221.508 357.102C213.115 357.571 204.716 357.745 196.331 358.392L125.634 363.772C123.131 363.963 120.565 364.297 118.063 364.365C117.959 346.286 132.984 348.809 147.342 347.483L174.523 344.922C190.05 343.479 205.521 341.194 221.033 339.563L237.238 337.809C239.655 337.529 242.486 337.47 244.787 336.697Z"/>
	<path fill="#FF5D15" transform="scale(2 2)" d="M304.375 225.712C305.499 231.971 306.236 238.234 307.135 244.524L311.126 272.177C312.965 285.43 315.093 298.73 316.559 312.027C304.963 311.987 293.273 312.834 281.746 314.008C281.33 307.01 280.408 300.122 279.638 293.161L276.861 266.727C276.203 260.409 275.149 254.183 275.242 247.812C275.359 247.62 301.908 227.219 304.375 225.712Z"/>
	<path fill="#FF5D15" transform="scale(2 2)" d="M261.654 97.7312C270.743 98.5725 281.881 96.9059 290.898 95.4265C293.427 118.987 297.016 143.866 300.848 167.36C291.714 174.518 281.813 183.634 272.845 190.236C272.242 183.371 271.245 176.498 270.431 169.653L264.88 124.848C263.727 115.85 262.328 106.777 261.654 97.7312Z"/>
	<path fill="#FF5D15" transform="scale(2 2)" d="M251.935 235.685C254.655 238.667 257.128 241.83 259.967 244.708C253.031 270.405 222.581 284.402 198.352 288.276C196.434 288.582 194.217 289.189 192.303 289.229C204.588 280.07 210.585 274.022 218.604 261.068C227.02 247.473 233.775 236.295 251.935 235.685Z"/>
</svg>
