<?xml version="1.0" encoding="utf-8" ?>
<svg xmlns="http://www.w3.org/2000/svg" xmlns:xlink="http://www.w3.org/1999/xlink" width="4854" height="4854">
	<path transform="scale(9.48025 9.48025)" d="M431.891 52.012C442.63 51.9249 436.263 68.2726 433.082 73.393C433.352 75.9531 434.25 78.528 434.904 81.0206C445.438 121.212 413.59 192.826 384.436 217.425C375.312 225.123 377.043 225.399 370.995 236.054C367.769 241.738 359.739 253.468 357.956 258.899C363.459 262.206 370.035 264.201 375.971 266.642C392.043 273.253 407.714 282.431 418.724 296.129C449.814 334.81 415.298 388.207 383.219 413.715C354.908 436.227 317.585 451.526 281.525 454.925C215.646 461.135 140.959 432.829 99.7663 380.908C93.0654 373.393 87.2768 364.265 82.5354 355.398C40.5737 276.925 75.6409 174.023 153.283 132.76C185.945 115.401 227.921 106.618 264.064 117.695C333.374 138.937 301.585 192.327 324.454 235.514C327.35 230.286 339.604 203.22 340.264 198.93C338.666 183.69 348.961 159.755 355.494 146.033C368.555 118.602 385.605 90.4557 411.113 72.8975C413.268 71.4146 416.07 70.4598 417.893 68.5564C422.769 63.4633 424.838 54.5139 431.891 52.012ZM344.286 280.198C399.567 297.672 425.036 323.986 383.03 374.378C359.101 403.084 321.833 422.346 284.597 425.679C274.884 426.548 258.778 427.26 250.92 420.555C239.926 411.175 252.469 398.845 255.281 388.599C264.022 356.752 232.339 330.365 260.58 298.529C269.569 288.395 292.605 277.941 306.706 277.148C311.128 265.711 316.069 254.521 320.801 243.213C294.001 214.332 311.32 174.43 289.854 149.773C276.81 134.792 253.213 130.787 234.527 130.082C183.833 128.168 131.189 156.62 105.404 200.574C30.0436 329.037 139.786 436.47 268.198 440.624C309.652 441.965 351.943 426.074 382.152 397.573C408.295 372.908 435.234 327.401 405.081 295.64C390.66 280.448 370.474 275.799 353.525 264.685C350.694 269.996 347.465 275.092 344.286 280.198ZM385.143 337.895C381.416 341.965 379.517 347.314 376.213 351.692C362.722 369.57 343.51 384.364 323.653 394.723C320.753 396.235 302.837 402.769 312.448 406.979C325.344 409.062 346.069 397.288 356.357 389.843C369.92 380.027 378.625 369.263 384.196 353.231C385.095 350.645 390.225 338.558 385.143 337.895ZM350.243 195.141C351.955 201.393 356.638 207.044 362.255 210.221C372.383 215.949 374.692 209.991 380.338 202.291C371.069 204.299 362.392 203.355 358.834 193.456C357.791 189.566 357.484 186.266 357.956 182.249C361.099 198.218 370.921 196.8 383.307 198.93C392.091 183.347 402.85 168.885 410.1 152.43C398.536 156.232 387.332 150.869 380.93 141.089C379.771 139.317 379.237 135.274 378.185 134.17C369.474 150.987 355.366 176.871 350.243 195.141ZM381.265 132.182C385.159 128.119 387.945 122.331 391.062 117.62C395.753 110.532 411.217 88.9797 417.828 85.5592C419.808 84.5349 421.825 84.6167 423.945 84.2332C421.23 77.0284 413.155 85.3116 410.036 88.2157C404.72 93.1656 376.186 126.842 381.265 132.182ZM319.988 298.146L322.628 293.143C336.344 268.619 351.367 244.953 365.427 220.65C354.572 216.231 355.288 213.031 349.2 208.894C343.95 219.612 339.663 230.814 334.754 241.693C327.053 258.756 318.043 277.442 311.505 294.946C314.419 295.799 317.226 296.886 319.988 298.146ZM304.325 306.175C276.706 321.211 278.549 351.932 277.627 378.24C280.504 376.562 283.771 374.577 286.222 372.298C301.591 360.825 325.121 333.934 317.462 312.63C315.752 311.741 305.205 306.295 304.325 306.175Z"/>
	<path transform="scale(9.48025 9.48025)" d="M129.716 249.44Q130.729 249.352 131.745 249.315Q132.761 249.277 133.778 249.29Q134.795 249.302 135.81 249.364Q136.825 249.426 137.835 249.539Q138.846 249.651 139.85 249.812Q140.854 249.974 141.849 250.185Q142.843 250.396 143.826 250.655Q144.81 250.915 145.779 251.222Q146.748 251.53 147.701 251.885Q148.654 252.239 149.588 252.641Q150.523 253.042 151.436 253.488Q152.35 253.935 153.24 254.426Q154.13 254.917 154.996 255.451Q155.861 255.986 156.699 256.562Q157.537 257.138 158.345 257.754Q159.154 258.371 159.931 259.026Q160.708 259.682 161.453 260.375Q162.197 261.068 162.906 261.797Q163.615 262.526 164.287 263.288Q164.96 264.051 165.594 264.846Q166.228 265.641 166.822 266.466Q167.417 267.291 167.97 268.144Q168.523 268.997 169.033 269.877Q169.544 270.756 170.01 271.66Q170.477 272.563 170.898 273.489Q171.32 274.414 171.696 275.359Q172.071 276.304 172.4 277.266Q172.728 278.228 173.009 279.206Q173.29 280.183 173.523 281.173Q173.756 282.163 173.939 283.163Q174.123 284.163 174.257 285.171Q174.391 286.179 174.476 287.192Q174.561 288.205 174.595 289.222Q174.63 290.238 174.614 291.254Q174.599 292.271 174.534 293.286Q174.468 294.301 174.353 295.311Q174.238 296.321 174.074 297.325Q173.909 298.328 173.695 299.322Q173.481 300.316 173.219 301.299Q172.957 302.281 172.646 303.249Q172.336 304.218 171.978 305.169Q171.621 306.121 171.217 307.055Q170.813 307.988 170.363 308.9Q169.914 309.812 169.42 310.701Q168.927 311.59 168.39 312.454Q167.853 313.317 167.275 314.153Q166.696 314.99 166.077 315.796Q165.458 316.603 164.8 317.378Q164.142 318.154 163.447 318.896Q162.752 319.638 162.021 320.345Q161.29 321.052 160.526 321.722Q159.761 322.392 158.964 323.024Q158.167 323.656 157.341 324.248Q156.514 324.84 155.659 325.39Q154.804 325.941 153.923 326.448Q153.042 326.956 152.137 327.42Q151.232 327.884 150.306 328.303Q149.379 328.722 148.433 329.095Q147.487 329.467 146.524 329.793Q145.561 330.119 144.583 330.397Q143.605 330.675 142.614 330.905Q141.623 331.134 140.623 331.315Q139.622 331.496 138.614 331.627Q137.606 331.758 136.592 331.84Q135.582 331.921 134.57 331.953Q133.557 331.985 132.544 331.967Q131.532 331.949 130.521 331.881Q129.51 331.814 128.504 331.697Q127.498 331.58 126.498 331.414Q125.499 331.248 124.509 331.033Q123.519 330.818 122.541 330.555Q121.563 330.292 120.598 329.981Q119.634 329.671 118.686 329.313Q117.738 328.956 116.809 328.552Q115.88 328.149 114.972 327.7Q114.064 327.252 113.178 326.759Q112.293 326.267 111.433 325.732Q110.573 325.196 109.74 324.62Q108.907 324.043 108.104 323.426Q107.3 322.81 106.528 322.154Q105.755 321.499 105.016 320.806Q104.276 320.114 103.572 319.386Q102.867 318.658 102.199 317.897Q101.531 317.135 100.901 316.342Q100.271 315.549 99.6806 314.726Q99.0902 313.902 98.5408 313.051Q97.9915 312.2 97.4844 311.323Q96.9774 310.446 96.5139 309.546Q96.0504 308.645 95.6316 307.722Q95.2128 306.8 94.8397 305.858Q94.4666 304.917 94.14 303.958Q93.8134 302.999 93.5342 302.025Q93.255 301.051 93.0239 300.065Q92.7927 299.079 92.6101 298.082Q92.4275 297.086 92.2939 296.082Q92.1603 295.077 92.0761 294.068Q91.9919 293.058 91.9571 292.046Q91.9224 291.034 91.9374 290.021Q91.9523 289.008 92.0168 287.997Q92.0813 286.986 92.1952 285.979Q92.3092 284.973 92.4723 283.973Q92.6354 282.973 92.8473 281.983Q93.0591 280.992 93.3193 280.013Q93.5794 279.034 93.8872 278.069Q94.1949 277.104 94.5496 276.155Q94.9043 275.206 95.305 274.275Q95.7057 273.345 96.1515 272.435Q96.5973 271.526 97.0871 270.639Q97.5769 269.752 98.1096 268.891Q98.6422 268.029 99.2165 267.194Q99.7907 266.36 100.405 265.555Q101.019 264.749 101.673 263.975Q102.326 263.2 103.016 262.459Q103.706 261.717 104.432 261.011Q105.158 260.304 105.917 259.634Q106.677 258.963 107.468 258.331Q108.259 257.699 109.081 257.106Q109.902 256.513 110.752 255.961Q111.601 255.409 112.477 254.899Q113.352 254.39 114.252 253.924Q115.151 253.458 116.072 253.036Q116.993 252.614 117.934 252.239Q118.875 251.863 119.832 251.533Q120.79 251.204 121.763 250.922Q122.736 250.64 123.722 250.406Q124.707 250.171 125.703 249.986Q126.699 249.8 127.703 249.664Q128.707 249.527 129.716 249.44ZM154.279 270.344Q153.932 269.922 153.568 269.515Q153.205 269.107 152.826 268.714Q152.447 268.32 152.053 267.942Q151.659 267.564 151.251 267.201Q150.842 266.839 150.42 266.492Q149.997 266.146 149.562 265.816Q149.126 265.487 148.678 265.174Q148.23 264.862 147.771 264.567Q147.311 264.272 146.84 263.996Q146.369 263.719 145.887 263.461Q145.406 263.203 144.915 262.964Q144.424 262.725 143.924 262.506Q143.424 262.286 142.915 262.086Q142.407 261.886 141.892 261.706Q141.376 261.526 140.854 261.366Q140.331 261.206 139.803 261.067Q139.275 260.927 138.742 260.809Q138.209 260.69 137.672 260.592Q137.134 260.495 136.593 260.418Q136.053 260.341 135.509 260.286Q134.966 260.23 134.421 260.196Q133.876 260.161 133.33 260.148Q132.784 260.135 132.238 260.143Q131.692 260.151 131.146 260.181Q130.601 260.21 130.057 260.261Q129.513 260.312 128.972 260.384Q128.43 260.456 127.892 260.549Q127.354 260.641 126.82 260.755Q126.286 260.869 125.756 261.004Q125.227 261.138 124.703 261.294Q124.179 261.449 123.662 261.624Q123.145 261.8 122.635 261.995Q122.125 262.19 121.623 262.406Q121.121 262.621 120.628 262.855Q120.135 263.09 119.651 263.344Q119.167 263.597 118.694 263.87Q118.22 264.142 117.758 264.433Q117.295 264.723 116.845 265.031Q116.394 265.34 115.955 265.666Q115.517 265.991 115.091 266.334Q114.666 266.676 114.254 267.035Q113.843 267.394 113.445 267.769Q113.048 268.143 112.665 268.533Q112.283 268.923 111.916 269.328Q111.549 269.732 111.198 270.151Q110.847 270.569 110.512 271.001Q110.178 271.433 109.861 271.877Q109.544 272.322 109.244 272.779Q108.944 273.235 108.662 273.703Q108.381 274.171 108.117 274.65Q107.854 275.128 107.61 275.617Q107.365 276.105 107.14 276.603Q106.915 277.1 106.71 277.606Q106.504 278.112 106.318 278.626Q106.133 279.14 105.967 279.66Q105.802 280.181 105.657 280.707Q105.511 281.234 105.387 281.765Q105.263 282.297 105.159 282.833Q105.055 283.37 104.973 283.91Q104.89 284.45 104.828 284.992Q104.767 285.535 104.727 286.08Q104.686 286.624 104.667 287.17Q104.648 287.716 104.65 288.262Q104.652 288.808 104.676 289.354Q104.7 289.9 104.744 290.444Q104.789 290.988 104.855 291.53Q104.921 292.073 105.008 292.612Q105.095 293.151 105.203 293.686Q105.311 294.222 105.44 294.753Q105.569 295.283 105.718 295.809Q105.867 296.334 106.037 296.853Q106.207 297.372 106.397 297.884Q106.587 298.396 106.796 298.901Q107.006 299.405 107.235 299.901Q107.465 300.396 107.713 300.883Q107.961 301.369 108.228 301.846Q108.495 302.322 108.781 302.788Q109.066 303.253 109.37 303.708Q109.673 304.162 109.994 304.604Q110.315 305.046 110.653 305.475Q110.991 305.904 111.345 306.319Q111.7 306.735 112.07 307.136Q112.44 307.538 112.826 307.925Q113.211 308.311 113.612 308.683Q114.012 309.054 114.427 309.41Q114.842 309.765 115.27 310.104Q115.698 310.443 116.139 310.766Q116.58 311.088 117.033 311.392Q117.487 311.697 117.951 311.984Q118.416 312.271 118.892 312.539Q119.367 312.807 119.853 313.057Q120.339 313.307 120.834 313.537Q121.329 313.768 121.833 313.979Q122.337 314.19 122.848 314.381Q123.36 314.573 123.878 314.744Q124.397 314.915 124.922 315.066C124.152 313.793 122.82 312.561 121.881 311.358C104.801 289.488 122.407 267.713 147.201 269.23C149.143 269.349 152.558 270.871 154.279 270.344Z"/>
	<path fill="#FF5D15" transform="scale(9.48025 9.48025)" d="M124.922 315.066C124.152 313.793 122.82 312.561 121.881 311.358C104.801 289.488 122.407 267.713 147.201 269.23C149.143 269.349 152.558 270.871 154.279 270.344Q154.632 270.773 154.968 271.216Q155.304 271.658 155.622 272.114Q155.94 272.57 156.24 273.038Q156.54 273.506 156.821 273.985Q157.102 274.464 157.364 274.955Q157.626 275.445 157.868 275.945Q158.11 276.445 158.332 276.955Q158.554 277.464 158.756 277.982Q158.958 278.5 159.139 279.025Q159.32 279.551 159.48 280.083Q159.64 280.615 159.778 281.153Q159.917 281.691 160.034 282.235Q160.152 282.778 160.247 283.325Q160.343 283.873 160.417 284.424Q160.491 284.974 160.543 285.528Q160.595 286.081 160.625 286.636Q160.655 287.191 160.663 287.747Q160.671 288.302 160.657 288.858Q160.643 289.413 160.607 289.968Q160.57 290.523 160.512 291.075Q160.454 291.628 160.374 292.178Q160.294 292.728 160.193 293.274Q160.091 293.821 159.968 294.362Q159.844 294.904 159.7 295.441Q159.555 295.977 159.389 296.508Q159.223 297.038 159.036 297.562Q158.849 298.085 158.642 298.601Q158.435 299.116 158.207 299.623Q157.979 300.13 157.732 300.628Q157.484 301.125 157.217 301.612Q156.95 302.1 156.663 302.576Q156.377 303.052 156.072 303.517Q155.767 303.982 155.444 304.434Q155.121 304.886 154.78 305.325Q154.439 305.764 154.081 306.189Q153.723 306.614 153.348 307.025Q152.974 307.435 152.583 307.83Q152.193 308.226 151.787 308.605Q151.381 308.985 150.96 309.348Q150.54 309.711 150.105 310.058Q149.67 310.404 149.222 310.732Q148.774 311.061 148.313 311.372Q147.852 311.682 147.379 311.974Q146.907 312.267 146.423 312.54Q145.939 312.813 145.444 313.067Q144.95 313.32 144.445 313.554Q143.941 313.788 143.428 314.002Q142.915 314.216 142.394 314.409Q141.873 314.602 141.345 314.774Q140.816 314.947 140.282 315.098Q139.747 315.249 139.207 315.379Q138.666 315.509 138.121 315.617Q137.576 315.726 137.027 315.813Q136.478 315.899 135.926 315.964Q135.374 316.029 134.82 316.072Q134.266 316.115 133.711 316.136Q133.155 316.157 132.6 316.155Q132.044 316.154 131.489 316.131Q130.933 316.108 130.379 316.063Q129.826 316.018 129.274 315.95Q128.722 315.883 128.174 315.794Q127.625 315.705 127.08 315.595Q126.536 315.484 125.996 315.352Q125.456 315.22 124.922 315.066Z"/>
	<path transform="scale(9.48025 9.48025)" d="M203.229 328.86C253.279 329.788 258.571 403.258 202.314 409.999C150.984 412.461 149.231 332.883 203.229 328.86ZM228.001 364.318C224.844 343.296 195.894 333.254 182.981 351.416C175.394 362.087 175.356 379.854 185.949 388.69C185.3 382.232 183.669 379.275 185.866 372.053C191.574 353.291 216.294 342.079 228.001 364.318Z"/>
	<path fill="#FF5D15" transform="scale(9.48025 9.48025)" d="M185.949 388.69C185.3 382.232 183.669 379.275 185.866 372.053C191.574 353.291 216.294 342.079 228.001 364.318C232.93 384.436 197.501 402.561 185.949 388.69Z"/>
	<path transform="scale(9.48025 9.48025)" d="M165.45 167.75C217.174 166.76 217.267 226.285 177.75 231.909C168.732 233.061 159.608 230.908 152.131 225.689C126.129 207.54 135.755 172.623 165.45 167.75ZM181.072 185.439C154.62 172.079 137.083 202.812 162.45 216.633C161.617 213.695 160.029 211.429 159.749 208.24C158.511 194.15 167.879 186.57 181.072 185.439Z"/>
	<path fill="#FF5D15" transform="scale(9.48025 9.48025)" d="M181.072 185.439C202.879 198.791 180.942 229.764 162.45 216.633C161.617 213.695 160.029 211.429 159.749 208.24C158.511 194.15 167.879 186.57 181.072 185.439Z"/>
	<path transform="scale(9.48025 9.48025)" d="M244.76 149.599C259.012 148.014 278.142 157.126 282.716 171.387C288.304 188.81 274.164 205.671 257.95 210.797C213.162 220.589 204.973 153.619 244.76 149.599ZM252.261 163.338C225.942 160.118 229.389 191.396 244.76 197.153C235.31 185.046 242.793 172.681 252.261 163.338Z"/>
	<path fill="#FF5D15" transform="scale(9.48025 9.48025)" d="M252.261 163.338C270.835 166.865 275.394 185.101 259.017 195.171C255.281 197.469 248.954 199.208 244.76 197.153C235.31 185.046 242.793 172.681 252.261 163.338Z"/>
	<path fill="#FF5D15" transform="scale(9.48025 9.48025)" d="M344.286 280.198C399.567 297.672 425.036 323.986 383.03 374.378C359.101 403.084 321.833 422.346 284.597 425.679C274.884 426.548 258.778 427.26 250.92 420.555C239.926 411.175 252.469 398.845 255.281 388.599C264.022 356.752 232.339 330.365 260.58 298.529C269.569 288.395 292.605 277.941 306.706 277.148C305.232 281.184 303.492 285.036 301.603 288.893C268.272 298.948 257.031 334.878 260.956 366.468C263.354 385.761 263.715 387.701 260.207 406.979C264.321 419.312 272.097 408.032 276.086 403.802C283.826 395.592 293.543 389.58 302.423 382.724C324.822 365.431 349.088 330.934 331.28 302.646L339.296 288.513C340.801 285.856 342.277 282.496 344.286 280.198ZM312.448 406.979C325.344 409.062 346.069 397.288 356.357 389.843C369.92 380.027 378.625 369.263 384.196 353.231C385.095 350.645 390.225 338.558 385.143 337.895C381.416 341.965 379.517 347.314 376.213 351.692C362.722 369.57 343.51 384.364 323.653 394.723C320.753 396.235 302.837 402.769 312.448 406.979Z"/>
	<path fill="#FF5D15" transform="scale(9.48025 9.48025)" d="M423.945 84.2332C430.414 101.086 417.811 134.171 411.454 149.599C398.976 146.522 390.119 141.778 381.265 132.182C385.159 128.119 387.945 122.331 391.062 117.62C395.753 110.532 411.217 88.9797 417.828 85.5592C419.808 84.5349 421.825 84.6167 423.945 84.2332Z"/>
</svg>
