<?xml version="1.0" encoding="utf-8" ?>
<svg xmlns="http://www.w3.org/2000/svg" xmlns:xlink="http://www.w3.org/1999/xlink" width="1024" height="1024">
	<path transform="scale(2 2)" d="M279.637 41.5982C314.195 38.0774 308.336 112.536 309.487 132.734L311.454 165.357C311.685 169.451 312.453 174.861 311.991 178.851C320.621 185.081 319.274 189.775 319.28 199.121L319.246 222.334C319.208 227.095 318.944 231.785 319.258 236.544C333.485 238.991 332.726 260.643 333.268 271.573L338.561 408.12C339.312 432.347 341.841 448.816 315.455 459.734C291.252 469.749 256.287 470.69 231.94 460.625C221.153 455.975 215.215 449.622 211.565 438.801C202.949 438.299 190.942 437.538 186.344 428.895C179.307 415.668 172.178 294.526 173.901 289.664C176.774 281.554 195.513 272.144 203.045 268.407C201.748 255.473 208.082 246.049 217.469 237.737C215.458 227.779 214.281 203.968 214.232 193.137C214.188 183.561 217.819 178.972 223.204 171.296C223.535 166.103 222.547 160.905 221.929 155.754C217.351 117.58 209.607 102.992 237.797 69.205C248.204 56.7311 262.781 43.1299 279.637 41.5982ZM319.258 422.196C302.515 436.086 267.162 439.942 244.994 438.554C242.84 438.419 240.376 437.967 238.25 438.184C259.456 447.863 307.674 443.2 324.413 428.661C330.28 423.566 328.414 419.412 327.952 412.342C326.808 394.845 326.502 377.238 325.849 359.715L323.196 294.185C322.89 288.762 322.281 283.241 322.637 277.815C319.631 279.37 316.799 281.287 313.995 283.176C313.07 294.846 314.885 314.123 315.343 326.431L317.785 392.908C318.038 402.034 318.058 413.545 319.258 422.196Z"/>
	<path fill="#FF5D15" transform="scale(2 2)" d="M215.747 283.176L216.276 283.436C249.417 299.447 281.171 294.527 313.995 283.176C313.07 294.846 314.885 314.123 315.343 326.431L317.785 392.908C318.038 402.034 318.058 413.545 319.258 422.196C302.515 436.086 267.162 439.942 244.994 438.554C242.84 438.419 240.376 437.967 238.25 438.184C230.38 436.087 224.296 430.467 223.204 422.196C225.953 423.305 228.076 425.201 230.639 426.616C243.653 433.803 269.464 435.19 281.031 425.336C268.097 429.049 255.049 428.782 242.062 425.366C237.849 424.258 225.893 420.738 223.709 417.001L223.801 416.657C226.326 417.007 229.342 418.578 231.814 419.415C241.746 422.777 255.053 424.058 264.702 419.297C254.089 418.835 247.927 419.929 236.769 416.1C232.296 414.565 228.143 412.209 223.663 410.685L223.204 410.532L223.204 405.62C230.261 408.547 237.404 410.943 245.041 411.72C248.116 412.033 265.974 412.646 266.653 409.487C265.504 408.959 262.594 409.363 261.2 409.347C246.91 409.184 235.808 405.732 222.466 400.589C222.771 395.338 222.139 390.084 221.85 384.845L217.353 307.486C216.884 299.409 216.69 291.21 215.747 283.176Z"/>
	<path fill="white" transform="scale(2 2)" d="M302.324 299.776C304 299.802 306.394 300.159 307.153 301.889C308.093 304.031 311.202 361.293 309.995 364.126C309.334 365.677 308.13 366.21 306.621 366.741C304.992 366.647 303.238 366.189 302.219 364.814C301.328 363.612 300.761 339.583 300.614 336.391C300.22 327.866 294.696 302.733 302.324 299.776Z"/>
	<path fill="#FF5D15" transform="scale(2 2)" d="M279.637 53.3132C285.434 52.6749 288.804 56.3002 289.146 61.9667C290.102 77.8116 269.64 99.3764 256.046 108.031C252.175 110.496 236.42 114.278 245.323 120.495C265.58 121.132 286.427 98.8745 294.949 82.4574C297.065 90.8663 296.745 100.007 297.018 108.627C297.534 124.922 297.538 151.275 300.436 167.134C300.179 175.113 301.367 183.114 301.329 191.118C280.514 203.477 260.879 202.223 238.25 195.901C238.697 189.128 237.124 182.205 236.225 175.506C234.425 162.1 227.419 120.948 229.625 108.579C233.28 88.0742 259.824 56.7805 279.637 53.3132Z"/>
	<path fill="white" transform="scale(2 2)" d="M288.184 115.529C290.244 115.634 291.788 116.376 292.641 118.387C293.527 120.476 295.303 151.262 295.107 155.564C294.991 158.108 293.826 159.854 291.39 160.778C289.179 160.803 286.827 160.652 286.151 158.182C284.931 153.731 283.433 126.907 283.666 120.367C283.768 117.496 285.487 116.191 288.184 115.529Z"/>
	<path fill="white" transform="scale(2 2)" d="M291.39 167.134C298.369 166.228 299.544 182.369 292.3 183.409C284.041 182.687 284.557 168.279 291.39 167.134Z"/>
	<path fill="white" transform="scale(2 2)" d="M307.274 201.256C307.934 202.092 306.606 246.551 307.274 252.119C284.199 267.382 255.63 266.435 229.998 258.09C230.112 256.082 230.099 254.127 229.998 252.119C228.61 238.094 227.397 217.321 227.449 203.385C253.188 216.575 282.477 215.597 307.274 201.256Z"/>
	<path fill="#FF5D15" transform="scale(2 2)" d="M181.301 308.655C189.395 313.119 197.371 314.577 206.432 315.611C206.101 323.211 206.914 330.936 207.217 338.534L208.772 376.874C209.031 383.528 209.459 390.146 209.516 396.811C202.807 396.471 194.664 394.576 188.828 391.237C187.778 384.696 187.271 377.947 186.702 371.35L182.591 324.345C182.092 319.132 181.463 313.891 181.301 308.655Z"/>
	<path fill="white" transform="scale(2 2)" d="M319.258 252.119C321.247 255.031 321.082 260.319 321.314 263.746C317.823 266.141 314.92 269.013 311.158 271.112C295.481 279.859 273.035 282.096 255.424 280.731C247.786 280.139 214.693 275.747 215.747 264.495C215.435 260.877 216.136 258.523 217.469 255.189C218.45 264.148 222.459 266.694 230.954 269.703C253.698 277.76 309.176 281.133 319.258 252.119Z"/>
	<path fill="#FF5D15" transform="scale(2 2)" d="M203.045 277.014C203.333 277.05 203.138 277.01 203.596 277.242C204.404 286.829 205.624 297.052 205.253 306.649C199.161 306.323 192.876 304.791 187.333 302.253C167.867 291.932 193.516 280.302 203.045 277.014Z"/>
	<path fill="#FF5D15" transform="scale(2 2)" d="M190.429 410.532C196.92 413.413 203.384 414.316 210.444 414.226C210.207 419.857 210.897 425.494 210.786 431.139C193.569 429.176 193.521 426.822 190.429 410.532Z"/>
	<path fill="#FF5D15" transform="scale(2 2)" d="M189.614 395.931C196.206 398.306 202.513 399.246 209.516 398.904C209.644 400.738 209.673 402.568 209.516 404.401C202.363 403.466 195.994 402.509 189.614 398.904C189.725 397.921 189.647 396.918 189.614 395.931Z"/>
	<path fill="#FF5D15" transform="scale(2 2)" d="M190.429 403.594C196.388 407.018 203.776 406.995 210.444 406.753C210.365 408.463 210.368 410.135 210.444 411.844C203.485 411.487 196.887 409.172 190.429 406.753L190.429 403.594Z"/>
</svg>
