<?xml version="1.0" encoding="utf-8" ?>
<svg xmlns="http://www.w3.org/2000/svg" xmlns:xlink="http://www.w3.org/1999/xlink" width="1024" height="1024">
	<path fill="#303030" transform="scale(2 2)" d="M394.525 68.3584C432.697 65.0934 459.688 113.146 433.59 145.227C429.197 150.626 423.801 155.305 418.88 160.22L369.563 209.602C349.851 229.464 334.785 238.892 305.419 227.996C301.933 232.318 296.48 237.353 292.488 241.512C288.506 245.66 287.42 244.744 289.235 249.325C290.64 252.873 291.028 257.54 291.313 261.339C294.945 309.669 260.304 367.678 231.102 403.599C227.19 408.412 223.403 413.525 218.843 417.745C193.439 441.256 155.604 450.062 123.209 436.243C109.823 430.21 95.7928 416.638 86.1054 405.256C64.1106 379.413 62.2479 341.165 79.1757 312.087C101.673 273.441 216.174 196.33 263.814 224.016C266.948 221.468 269.762 218.433 272.594 215.556L283.673 204.432C270.167 167.47 292.18 153.331 314.215 130.647L350.107 94.0707C364.91 79.2444 371.861 70.0477 394.525 68.3584ZM131.906 403.493C133.41 404.51 134.893 405.496 136.554 406.244C182.625 426.547 215.125 372.852 234.413 340.02C242.624 326.044 261.169 291.035 258.863 274.66L258.642 274.437C253.144 280.117 248.191 286.303 242.7 292.011C214.676 321.145 185.362 350.735 156.466 378.954C148.204 387.023 140.433 395.707 131.906 403.493ZM106.495 375.427C106.978 376.378 107.44 377.331 108.034 378.219C116.134 369.581 124.655 361.353 133.087 353.042L201.163 285.164C206.619 279.784 234.011 254.825 236.338 250.327L236.209 250.051C235.669 249.995 235.253 250.007 234.718 250.103C198.996 253.566 137.346 292.798 112.659 322.679C100.313 337.622 98.0759 358.163 106.495 375.427ZM328.805 199.969C337.26 198.494 351.772 180.639 358.599 173.788L391.957 140.152C396.334 135.77 404.214 128.94 407.618 124.169C414.89 113.979 407.234 100.667 394.525 101.799C386.126 103.938 375.307 117.067 368.718 123.588L333.336 158.967C325.634 166.692 310.904 176.741 312.94 188.496C314.328 196.514 320.945 200.771 328.805 199.969Z"/>
</svg>
