<?xml version="1.0" encoding="utf-8" ?>
<svg xmlns="http://www.w3.org/2000/svg" xmlns:xlink="http://www.w3.org/1999/xlink" width="1024" height="1024">
	<path fill="#303030" transform="scale(2 2)" d="M300.1 100.7C300.69 100.645 301.283 100.598 301.876 100.595L396.537 100.682C401.178 100.68 406.254 100.302 410.814 101.181C430.639 105.002 443.469 120.812 443.657 140.962L443.655 331.673C443.657 339.665 444.325 348.993 443.008 356.822C440.493 371.759 428.408 383.443 413.938 386.949C404.857 389.15 394.568 388.376 385.267 388.375L311.844 388.353C295.252 388.252 296.749 388.019 283.743 398.821C267.422 412.376 243.298 410.243 228.242 396.038C219.453 387.746 219.762 388.376 207.562 388.375L116.18 388.39C98.2596 388.41 85.2038 386.845 73.966 370.068C67.3771 360.231 68.1026 349.676 68.1125 338.45L68.1113 145.298C68.0823 123.493 76.247 104.225 101.116 101.05C107.012 100.297 113.262 100.694 119.203 100.7L191.204 100.689C200.55 100.685 211.015 99.8707 220.129 101.781C231.764 104.22 249.055 113.686 255.884 124.169C266.814 111.141 282.827 101.46 300.1 100.7ZM275.854 357.255C289.512 346.439 304.154 349.125 320.607 349.136L367.711 349.138L405.111 349.138L405.111 139.502L314.467 139.478C311.494 139.471 308.141 139.13 305.214 139.502C276.395 142.79 275.831 164.503 275.848 187.668L275.855 312.344C275.855 327.304 276.064 342.298 275.854 357.255ZM107.392 139.502L107.392 349.138L199.919 349.138C214.018 349.112 224.631 348.102 236.495 357.255C236.289 352.059 236.49 346.83 236.493 341.628L236.506 184.341C236.516 164.765 237.121 145.977 212.384 140.429C204.924 138.756 195.67 139.495 187.987 139.495L151.576 139.502L107.392 139.502Z"/>
	<path fill="#303030" transform="scale(2 2)" d="M135.106 274.25C139.202 274.076 143.384 274.25 147.487 274.251L195.087 274.226C199.65 274.214 207.73 273.159 211.917 275.197C221.5 279.863 220.592 294.334 209.298 297.928C205.221 298.214 200.967 297.939 196.872 297.934L149.282 297.94C145.021 297.951 140.617 298.203 136.372 297.845C122.459 296.672 122.091 277.155 135.106 274.25Z"/>
	<path fill="#303030" transform="scale(2 2)" d="M138.848 210.118L199.483 210.112C204.904 210.065 209.929 209.445 214.417 213.123C223.024 220.176 218.223 232.775 205.438 233.452L144.583 233.459C139.404 233.455 133.336 234.179 129.208 230.382C121.227 223.04 126.06 210.589 138.848 210.118Z"/>
</svg>
