<?xml version="1.0" encoding="utf-8" ?>
<svg xmlns="http://www.w3.org/2000/svg" xmlns:xlink="http://www.w3.org/1999/xlink" width="1024" height="1024">
	<path fill="#303030" transform="scale(2 2)" d="M225.183 100.648L384.971 100.641C403.964 100.641 414.586 99.602 429.349 113.98C439.612 123.976 444.42 137.081 444.515 151.239L444.513 187.917C444.523 213.489 446.417 231.296 421.814 247.802C412.409 254.113 404.171 255.887 392.982 255.871C392.762 266.928 392.981 278.03 392.982 289.093L392.996 381.063C393.013 407.027 391.029 409.322 365.984 409.269L317.916 409.257C308.347 409.258 299.857 410.696 293.457 401.994C290.171 397.068 290.716 391.649 290.724 386.002L290.737 319.914C262.065 310.877 245.162 285.186 242.076 255.871C230.248 255.008 218.568 257.535 207.084 253.329C191.917 247.775 181.962 235.763 175.39 221.483L159.712 221.497C143.449 221.596 136.816 220.158 136.688 201.91L98.0525 201.916C89.3547 201.922 78.9285 204.04 72.0747 197.405C64.5692 190.14 66.7513 173.43 77.8811 171.074C83.3074 169.925 92.549 170.551 98.3254 170.552L136.688 170.565L136.679 155.095C136.676 138.221 139.369 135.172 158.002 135.314C163.789 135.358 169.606 135.519 175.39 135.352C180.233 114.021 204.218 100.889 225.183 100.648ZM273.336 134.193L244.322 134.193C233.358 134.172 217.614 131.319 209.388 139.587C202.332 146.679 204.913 159.95 204.646 169.235C192.77 169.405 180.868 169.233 168.988 169.235L168.988 188.257L204.646 188.257L204.61 198.802C204.526 216.216 211.16 223.225 228.549 223.254L378.243 223.254C394.356 223.272 411.609 225.125 411.623 203.288L411.596 194.437L411.606 164.606C411.604 154.099 414.165 138.147 400.658 134.658C395.499 133.325 381.465 134.259 375.514 134.193L375.523 158.388C375.525 166.015 376.957 174.986 370.946 180.904C361.74 189.965 345.811 185.413 343.049 172.643C342.006 167.821 342.627 162.129 342.651 157.206L342.663 134.193L306.955 134.193L306.962 158.543C306.965 166.702 308.391 175.271 301.987 181.579C293.354 190.083 276.881 185.843 273.975 173.865C272.686 168.552 273.315 162.172 273.321 156.698L273.336 134.193ZM310.072 255.871L272.31 255.871C275.624 267.641 285.798 279.622 296.208 285.417C305.761 290.735 319.251 287.906 323.312 301.273C324.929 306.596 324.126 323.007 324.125 329.499L324.134 374.277C324.334 378.174 332.617 376.364 336.674 376.363L359.749 376.357L359.749 255.871C343.207 255.616 326.619 255.872 310.072 255.871Z"/>
</svg>
