<?xml version="1.0" encoding="utf-8" ?>
<svg xmlns="http://www.w3.org/2000/svg" xmlns:xlink="http://www.w3.org/1999/xlink" width="1024" height="1024">
	<path fill="#303030" transform="scale(2 2)" d="M362.164 211.65C378.609 210.093 382.909 219.644 387.156 232.126L413.816 312.81C417.47 323.81 416.068 319.855 424.143 327.316C444.227 345.873 450.907 375.313 438.137 400.138C413.748 447.545 345.9 440.008 330.644 390.375C320.186 356.35 341.739 324.365 374.52 314.528C369.69 299.172 365.092 283.725 359.992 268.46C353.753 277.498 346.815 286.217 340.14 294.94L317.992 324.432C313.405 330.572 308.702 336.592 304.261 342.844C280.604 374.66 258.804 373.506 223.655 373.507L178.368 373.5C176.659 375.762 174.441 377.737 172.639 379.967L155.645 401.395C149.44 409.077 143.19 417.846 136.626 425.12C120.985 442.453 94.5081 425.173 104.577 404.632C107.714 398.234 115.774 389.541 120.406 383.674C131.295 369.886 142.228 356.16 152.88 342.187C160.2 332.585 171.75 335.034 182.418 335.06L227.791 335.056C257.876 335.046 260.655 337.515 280.285 310.704L344.422 223.959C349.556 217.131 353.314 212.911 362.164 211.65Z"/>
	<path fill="#303030" transform="scale(2 2)" d="M214.934 166.111C221.349 165.9 226.814 168.798 232.744 170.819L300.429 194.539C307.615 197.064 319.675 199.614 325.016 205.325C339.498 220.812 324.243 234.231 313.756 244.229L258.44 298.188C242.189 314.125 242.767 320.414 218.221 312.332L195.03 304.801C187.961 302.462 174.879 297.336 167.983 297.145C155.947 296.812 146.825 308.386 138.715 316.079L100.659 352.42C80.3734 370.224 57.2493 345.12 71.2059 328.287C74.1205 324.772 77.7545 321.589 81.0735 318.443L114.52 286.549C157.762 244.409 177.841 261.453 227.531 275.798C230.899 271.948 234.653 268.479 238.28 264.881L270.158 232.965C272.174 230.933 274.167 228.717 276.446 226.979C269.949 224.074 261.963 221.987 255.102 219.7C247.77 217.256 209.366 205.015 204.397 201.015C190.723 190.006 198.062 167.875 214.934 166.111Z"/>
	<path fill="#303030" transform="scale(2 2)" d="M343.415 77.3824L345.057 77.3732C394.251 77.5201 419.307 137.415 383.166 172.643C373.535 182.031 359.991 187.98 346.482 187.751C317.057 189.461 291.668 164.816 289.846 135.955C287.868 104.629 312.681 79.123 343.415 77.3824ZM347.94 149.037C363.482 145.672 367.3 126.153 354.159 118.07C351.618 116.506 346.403 114.463 343.415 115.587C320.558 118.386 325.183 152.058 347.94 149.037Z"/>
</svg>
