<?xml version="1.0" encoding="utf-8" ?>
<svg xmlns="http://www.w3.org/2000/svg" xmlns:xlink="http://www.w3.org/1999/xlink" width="1024" height="1024">
	<path fill="#303030" transform="scale(2 2)" d="M214.872 109.789L267.09 109.786C277.107 109.788 287.29 109.416 297.291 109.876C352.115 112.402 402.315 149.268 415.957 203.546C443.386 208.531 452.224 248.106 432.248 268.994C416.588 285.37 386.434 285.795 365.486 280.589C358.953 278.965 353.132 276.056 346.84 273.83C327.111 266.85 308.899 269.936 289.814 277.581C262.078 287.831 239.774 284.325 213.55 274.055C186.444 263.439 173.668 272.247 150.322 279.595C135.033 284.407 109.47 284.999 94.6244 279.027C58.1787 264.367 58.893 218.648 95.4651 203.546C110.339 146.717 158.559 114.058 214.872 109.789ZM128.833 200.885C134.415 201.333 140.25 200.884 145.87 200.884L296.625 200.885L354.513 200.885C363.948 200.887 373.535 201.304 382.947 200.885C372.015 175.68 354.644 156.95 328.498 146.593C312.68 140.327 299.925 139.926 283.265 139.935L214.872 139.941C175.012 143.537 145.367 163.336 128.833 200.885ZM378.056 252.267C387.754 252.26 413.559 256.564 413.105 241.207C412.778 230.112 398.02 231.802 390.522 231.824L110.439 231.825C99.3798 232.714 94.3087 242.858 102.358 249.44C107.171 253.375 113.744 252.296 119.48 252.255C140.018 252.105 136.893 251.48 156.088 244.49C171.979 238.704 199.954 239.122 215.843 243.005C222.547 244.643 228.642 247.675 235.136 249.859C244.907 253.146 263.079 253.442 273.377 250.555C279.726 248.776 285.654 245.696 292.005 243.847C309.576 238.732 337.045 239.295 354.68 244.214C362.227 246.319 370.124 249.833 378.056 252.267Z"/>
	<path fill="#303030" transform="scale(2 2)" d="M89.3292 291.758C101.597 291.927 113.889 291.756 126.16 291.755L421.997 291.758C422.013 322.607 427.786 355.37 403.823 378.691C383.542 397.82 364.325 396.418 338.409 396.402L152.288 396.622C135.321 396.611 119.499 389.202 107.644 377.264C89.8561 359.35 89.314 344.215 89.318 321.264L89.3292 291.758ZM120.752 321.574C120.687 348.64 126.008 366.72 157.311 366.781L319.375 366.77L344.843 366.782C358.726 366.784 371.314 368.004 381.952 357.386C392.066 347.291 392.384 335.005 392.006 321.574L193.341 321.574L120.752 321.574Z"/>
</svg>
