<?xml version="1.0" encoding="utf-8" ?>
<svg xmlns="http://www.w3.org/2000/svg" xmlns:xlink="http://www.w3.org/1999/xlink" width="1024" height="1024">
	<path fill="#303030" transform="scale(2 2)" d="M207.255 67.8089C211.985 67.4078 217.065 67.7946 221.828 67.7979L288.431 67.8062C294.228 67.8034 300.234 67.4278 305.999 67.8089C310.788 73.985 316.894 86.6713 320.956 93.7605C334.322 117.088 336.797 108.463 318.5 127.438C306.859 139.51 294.949 151.333 283.418 163.507C330.105 172.92 372.089 207.916 388.287 252.937C412.006 318.857 384.737 391.873 323.381 425.417C315.418 429.77 307.219 433.067 298.692 436.132C269.025 445.08 238.688 444.794 209.233 434.539C120.104 403.509 87.4556 295.005 141.932 219.086C161.809 191.386 194.686 169.088 228.601 163.507C219.528 152.946 206.322 140.301 196.374 130.514C191.926 126.138 182.703 117.912 179.629 113.07C180.781 108.3 192.033 90.8166 195.373 84.9368C198.202 79.9563 201.959 69.373 207.255 67.8089ZM261.313 414.25C293.374 411.361 321.456 399.604 342.699 374.208C383.5 325.433 375.693 254.274 327.121 213.995C307.869 198.029 276.132 186.149 250.701 188.489C243.798 189.202 236.884 189.985 230.122 191.601C174.314 204.94 137.997 258.634 144.004 315.366C149.363 365.986 189.376 406.577 239.594 413.204C246.819 414.158 254.037 414.287 261.313 414.25ZM248.486 161.386L248.476 133.374C248.488 129.475 248.252 125.511 248.486 121.623L221.517 121.607C217.361 121.6 212.949 121.225 208.835 121.623C209.271 122.922 245.091 159.045 248.089 161.377L248.486 161.386ZM298.692 83.7257C292.437 87.143 277.167 100.798 271.902 106.06C276.395 106.169 280.883 106.002 285.375 106.06L301.5 106.082C304.614 106.098 307.737 106.252 310.846 106.06C310.118 104.453 298.97 83.9456 298.692 83.7257ZM240.489 106.06C232.669 98.9664 222.62 88.9973 213.507 83.7257C209.744 89.2119 203.847 99.926 200.981 106.06L228.601 106.06C232.558 106.129 236.536 106.276 240.489 106.06ZM265.719 121.623C261.825 121.901 263.66 131.768 263.661 135.926L263.677 161.386C271.001 156.076 276.114 147.95 283.418 142.625C286.53 137.666 298.664 126.573 303.434 121.623L265.719 121.623Z"/>
</svg>
