<?xml version="1.0" encoding="utf-8" ?>
<svg xmlns="http://www.w3.org/2000/svg" xmlns:xlink="http://www.w3.org/1999/xlink" width="1024" height="1024">
	<path fill="#303030" transform="scale(2 2)" d="M144.938 100.19L257.77 100.183C280.035 100.18 284.377 102.104 284.376 125.077L284.369 209.725C284.27 232.609 268.538 229.97 251.313 229.973C239.164 229.975 226.998 230.126 214.851 229.979L214.851 239.77L423.497 239.768C432.89 239.784 444.454 240.601 444.768 253.481C445.026 264.032 444.757 274.654 444.751 285.214L444.757 380.055C444.757 384.762 445.189 391.32 444.632 395.835C442.46 413.43 416.4 414.353 413.198 397.853C412.22 392.813 412.797 382.074 412.798 376.606L412.809 333.483C409.798 333.649 406.709 333.495 403.69 333.494L328.914 333.483L328.929 374.839C328.938 381.161 329.444 389.571 328.751 395.706C327.45 407.22 315.631 414.81 305.152 409.126C295.982 403.894 297.746 392.769 297.75 383.859L297.758 270.763L98.7424 270.763L98.757 384C98.7605 390.754 100.192 399.831 95.3201 405.341C85.8787 416.018 68.6657 410.392 68.2168 394.762C67.9155 384.27 68.1724 373.699 68.1725 363.2L68.1657 268.77C68.1466 242.528 68.4017 239.763 93.5446 239.761L184.496 239.77L184.496 229.979C174.254 231.139 158.773 229.982 147.925 229.983C132.916 229.986 113.287 233.661 113.237 211.929L113.235 125.1C113.237 107.292 115.264 100.165 135.101 100.17L144.938 100.19ZM144.938 199.226L241.991 199.231C245.8 199.233 249.742 199.443 253.536 199.226C253.328 191.429 253.534 183.642 253.54 175.843L253.536 131.335L157.266 131.327C153.199 131.315 148.986 131.066 144.938 131.335L144.938 199.226ZM328.914 302.116L408.625 302.116L412.809 302.116L412.809 270.763L333.908 270.763L328.914 270.763L328.914 302.116Z"/>
	<path fill="#303030" transform="scale(2 2)" d="M184.496 322.871L215.593 322.871L215.593 380.043L229.645 380.022C236.872 380.004 243.654 379.14 249.261 384.59C257.429 392.528 253.962 407.08 242.638 409.933C238.909 410.872 234.699 410.424 230.877 410.416L215.593 410.396C198.139 410.402 180.636 410.689 163.188 410.358C141.829 409.952 141.767 384.194 157.464 380.383C161.667 379.362 179.034 379.844 184.496 380.043L184.495 342.153C184.494 335.736 184.313 329.282 184.496 322.871Z"/>
</svg>
