<?xml version="1.0" encoding="utf-8" ?>
<svg xmlns="http://www.w3.org/2000/svg" xmlns:xlink="http://www.w3.org/1999/xlink" width="1024" height="1024">
	<path fill="#303030" transform="scale(2 2)" d="M234.643 160.606C241.99 159.937 245.327 164.459 250.213 168.876C261.911 179.45 274.213 189.448 286.292 199.578C310.171 219.606 342.076 244.525 375.792 237.022C382.258 235.583 387.992 233.59 394.73 233.486C421.581 233.07 443.552 254.684 443.742 281.497L443.755 300.284C443.786 307.808 445.167 317.219 439.284 323.107C428.86 333.54 381.652 343.799 363.269 346.787C331.111 352.013 299.02 351.291 266.592 351.279L115.733 351.289C108.398 351.29 100.807 351.707 93.5395 350.645C69.7388 347.165 67.4055 328.908 67.4914 310.038L67.4993 265.5C67.4327 238.837 69.7048 211.476 84.1681 188.225C97.2657 167.17 100.128 172.893 118.305 180.059C152.058 193.366 182.027 191.447 213.687 172.339C219.885 168.598 227.707 161.295 234.643 160.606ZM109.952 211.985C103.4 224.027 98.9087 240.53 98.5361 254.273C98.396 259.438 99.1373 264.582 98.7521 269.754L139.696 269.75C199.792 269.763 261.056 278.211 309.051 318.001L315.313 318.001C345.875 316.033 368.774 313.186 398.491 304.85C402.894 303.615 407.178 301.985 411.578 300.749L411.606 289.46C411.634 268.042 405.454 264.029 384.493 268.412C359.681 273.6 330.979 268.038 309.051 256.01C302.658 261.677 296.35 269.834 286.937 269.232C277.913 268.655 271.162 260.492 271.913 251.564C272.445 245.244 277.058 241.683 280.777 237.08C276.797 234.189 273.021 231.081 269.347 227.811C263.716 233.372 258.229 239.433 249.735 239.329C240.5 239.216 233.913 231.904 234.127 222.794C234.311 214.967 239.465 211.748 244.177 206.703C242.452 205.278 234.599 198.412 233.242 197.955C198.752 222.382 149.151 224.222 109.952 211.985ZM111.463 301.664L100.522 301.664C100.619 307.55 100.51 313.438 100.522 319.324L237.438 319.324C241.657 319.451 245.838 319.564 250.056 319.324C223.891 311.531 201.879 305.208 174.004 302.756C153.266 300.932 132.264 301.66 111.463 301.664Z"/>
</svg>
