<?xml version="1.0" encoding="utf-8" ?>
<svg xmlns="http://www.w3.org/2000/svg" xmlns:xlink="http://www.w3.org/1999/xlink" width="1024" height="1024">
	<path fill="#303030" transform="scale(2 2)" d="M252.634 67.9353C326.189 65.9912 395.584 110.424 426.158 177.251C466.152 264.669 433.336 369.758 350.586 418.12C326.312 432.305 286.359 444.23 258.7 442.985C230.039 444.955 197.204 435.491 171.804 423.12C78.3913 377.622 41.2756 260.993 89.7362 168.787C107.36 135.255 135.416 107.603 168.703 89.6869C194.157 75.9864 223.828 68.5036 252.634 67.9353ZM258.7 405.917C281.345 405.203 306.902 399.32 326.813 387.974C341.06 379.854 352.4 372.248 363.911 359.926C405.571 315.334 417.081 254.035 394.28 197.942C380.548 164.16 354.525 136.953 321.735 120.952C301.514 111.085 275.506 103.67 252.634 105.231C228.297 105.227 204.496 112.896 183.202 124.295C126.706 154.54 96.164 222.796 108.309 285.234C121.77 354.441 187.484 409.184 258.7 405.917Z"/>
	<path fill="#303030" transform="scale(2 2)" d="M252.634 125.283C262.308 124.707 271.907 129.608 273.712 139.998C274.281 143.275 273.923 147.034 273.922 150.374L273.921 170.819C273.919 194.666 274.224 218.554 273.917 242.395C280.522 246.587 286.649 251.387 293.147 255.68L340.033 286.096C356.147 296.719 352.059 318.367 335.939 321.403C325.794 323.061 322.222 318.612 314.317 313.512L268.165 283.438C264.832 281.239 261.677 278.785 258.315 276.621C238.514 263.882 237.266 264.568 237.259 242.208L237.254 166.86C237.256 150.516 232.466 130.326 252.634 125.283Z"/>
</svg>
