<?xml version="1.0" encoding="utf-8" ?>
<svg xmlns="http://www.w3.org/2000/svg" xmlns:xlink="http://www.w3.org/1999/xlink" width="1024" height="1024">
	<path transform="scale(2 2)" d="M329.814 71.4976C370.52 68.0802 413.347 103.53 422.619 142.527C434.089 190.768 373.01 284.618 344.081 323.555C340.689 328.121 336.643 332.526 333.715 337.388L333.499 337.749C310.145 310.888 279.354 261.381 266.791 229.893C261.236 231.695 256.13 236.026 250.123 233.918C244.622 231.987 236.055 226.958 230.54 224.117C210.785 213.94 191.408 203.364 172.48 191.707L163.552 305.389C167.122 307.488 169.28 308.432 168.65 312.989C167.43 314.393 166.306 314.882 164.612 315.526L162.271 314.758C161.299 318.411 161.137 322.44 160.672 326.197L158.016 348.438C156.439 362.101 154.213 375.698 152.665 389.357C176.384 393.029 198.179 403.687 220.197 412.639L237.323 419.563C241.318 421.181 245.38 422.72 249.218 424.688C253.471 423.399 257.664 421.202 261.795 419.525C291.26 407.567 324.441 397.992 352.812 385.096C353.689 381.567 353.893 377.894 354.215 374.281L355.591 358.245C355.963 353.445 356.146 348.568 357.152 343.852C353.309 347.593 334.682 367.359 328.785 365.729C326.818 365.186 325.768 362.644 326.337 360.776C326.853 359.084 339.213 350.041 341.855 347.498C346.191 343.326 351.401 334.106 357.152 335.971C357.96 326.813 358.255 327.406 363.366 319.987C367.604 313.836 372.026 307.684 375.976 301.351C376.304 319.575 373.964 342.067 372.122 360.232C371.325 368.087 369.789 377.28 369.735 385.096C386.712 395.377 410.074 406.733 428.012 415.603C429.017 408.02 429.383 400.323 430.031 392.704C432.248 366.644 436.058 340.774 438.562 314.758C440.27 299.154 442.432 283.467 444.643 267.931L450.125 231.404C440.156 227.269 429.235 225.986 419.255 222.013C420.771 216.799 424.483 207.459 427.059 202.703C434.769 206.473 464.443 217.108 467.039 223.177C469.342 228.56 454.429 325.123 452.188 339.001C448.13 364.137 443.024 389.102 439.023 414.248C435.697 435.151 438.001 435.943 415.741 426.273L394.788 417.171C383.337 412.185 371.528 407.858 360.184 402.653C335.654 412.519 307.915 421.198 282.741 429.33L261.208 436.283C257.226 437.568 253.073 438.685 249.218 440.304L147.659 399.826C120.159 407.615 87.4165 419.472 61.4525 430.428C58.0782 431.852 55.2003 433.813 51.5787 434.618C46.6094 433.231 45.2383 429.604 45.845 424.636C50.075 389.996 90.75 219.092 92.7029 217.679C109.165 205.769 132.623 193.431 150.524 183.473C172.714 171.128 165.364 171.45 185.84 183.674C203.226 194.053 220.636 204.266 238.502 213.804C243.543 216.495 248.904 220.189 254.343 221.887L254.755 222.013C257.387 221.032 260.014 219.679 262.505 218.379C259.954 214.624 258.511 210.186 256.942 205.952C242.307 166.442 236.176 134.05 266.64 101.34C283.131 83.6324 305.473 72.4201 329.814 71.4976ZM337.799 193.311C357.332 192.129 374.532 174.038 373.199 154.186C371.658 131.233 353.118 115.046 330.306 116.391C275.111 120.878 289.384 196.357 337.799 193.311Z"/>
	<path fill="#ffffff" transform="scale(2 2)" d="M329.814 85.5507C332.433 85.0467 335.099 85.283 337.738 85.4783C371.779 87.9982 403.877 115.482 410.214 149.272C412.117 159.422 409.191 169.685 406.537 179.452C392.831 229.883 364.742 269.901 335.791 311.999C334.99 313.143 334.259 314.353 333.499 315.526C330.374 310.745 326.731 306.226 323.434 301.547C295.854 262.413 257.66 195.594 256.394 147.283C256.044 133.914 264.774 122.1 273.614 112.793C288.202 97.4321 308.293 86.1695 329.814 85.5507ZM337.799 193.311C357.332 192.129 374.532 174.038 373.199 154.186C371.658 131.233 353.118 115.046 330.306 116.391C275.111 120.878 289.384 196.357 337.799 193.311Z"/>
	<path transform="scale(2 2)" d="M331.426 101.736C360.826 97.9285 385.375 122.934 386.278 151.554C387.168 179.727 364.924 208.333 335.791 209.229L335.353 209.257C287.512 211.977 261.587 153.028 293.928 118.054C303.048 108.191 318.139 102.199 331.426 101.736ZM337.799 193.311C357.332 192.129 374.532 174.038 373.199 154.186C371.658 131.233 353.118 115.046 330.306 116.391C275.111 120.878 289.384 196.357 337.799 193.311Z"/>
	<path fill="#FF5D15" transform="scale(2 2)" d="M162.271 191.707L162.558 191.837C162.443 194.296 161.785 196.881 161.344 199.317L158.29 215.494C155.086 233.229 147.139 275.595 147.659 292.822C144.186 290.673 140.93 288.109 137.109 286.599C127.589 291.717 141.34 297.734 145.37 301.067L145.71 301.351C145.821 306.938 144.964 312.577 144.393 318.128C142.008 341.313 141.717 364.364 141.731 387.662C119.414 388.621 86.5371 399.138 67.1022 409.01C69.4616 393.363 73.35 377.821 76.5092 362.311C81.6758 336.945 86.4901 311.534 91.0724 286.058L97.4462 245.171C98.4364 238.581 99.0153 231.82 100.337 225.296C109.467 221.36 118.15 215.603 126.93 210.916C124.494 222.276 122.538 233.705 120.387 245.118L103.393 332.393C102.699 336.117 99.636 345.36 101.453 348.811C102.485 350.772 105.389 351.588 107.26 350.36C110.081 348.509 111.584 334.064 112.214 330.71L131.404 232.306C133.05 223.639 134.137 214.844 135.888 206.205C144.608 201.269 153.425 196.413 162.271 191.707Z"/>
	<path transform="scale(2 2)" d="M121.305 360.024C124.196 359.523 126.086 362.893 124.909 365.409C123.617 368.174 116.95 369.777 114.356 370.78L99.2002 376.641C94.2468 378.585 89.4974 381.141 84.4649 382.861C80.2689 382.502 79.605 378.621 81.5441 375.592C90.0582 370.575 112.121 362.686 121.305 360.024Z"/>
	<path transform="scale(2 2)" d="M311.763 368.261C315.642 368.073 316.113 370.703 315.671 373.978C312.793 376.847 290.641 384.998 285.391 387.662C282.414 387.783 281.549 386.444 280.512 383.77C282.752 378.475 292.083 376.469 297.445 374.222C302.163 372.245 306.904 369.842 311.763 368.261Z"/>
	<path transform="scale(2 2)" d="M177.19 319.02C177.781 319.111 205.656 340.015 192.423 343.852C188.289 343.165 184.989 336.678 182.366 333.785C179.612 330.748 167.433 321.339 177.19 319.02Z"/>
	<path transform="scale(2 2)" d="M202.542 353.286C208.911 352.394 216.015 368.572 217.591 373.163C218.335 375.33 217.48 377.016 215.682 378.303C210.269 379.341 208.83 372.333 206.324 367.94C204.178 364.176 197.302 356.949 202.542 353.286Z"/>
	<path transform="scale(2 2)" d="M404.366 299.717C410.823 298.969 414.739 322.954 414.703 323.11C414.411 324.375 412.991 325.112 411.98 325.742C410.736 325.799 409.083 325.686 408.3 324.579C407.266 323.118 401.296 303.313 401.548 302.344C401.908 300.955 403.211 300.351 404.366 299.717Z"/>
	<path transform="scale(2 2)" d="M414.77 337.749C421.608 337.708 422.498 352.787 424.039 358.943C423.012 359.734 421.986 360.293 420.831 360.858C413.831 362.427 412.278 340.504 412.349 340.182C412.619 338.969 413.786 338.319 414.77 337.749Z"/>
	<path transform="scale(2 2)" d="M422.903 372.225C428.879 373.088 430.138 389.069 429.579 391.05C429.226 392.303 428.117 392.806 427.059 393.372C419.682 394.385 420.26 374.295 420.423 373.953C420.943 372.864 421.843 372.611 422.903 372.225Z"/>
	<path transform="scale(2 2)" d="M250.306 389.357C251.739 388.95 253.782 388.957 254.519 390.538C255.212 392.024 256.398 407.54 251.255 409.01C249.655 408.967 247.827 408.613 247.191 406.896C246.42 404.818 245.754 390.703 250.306 389.357Z"/>
	<path transform="scale(2 2)" d="M258.277 251.25C265.547 250.971 262.952 265.702 261.741 268.895C261.267 270.145 259.902 270.704 258.794 271.255C253.014 271.517 252.516 254.302 258.277 251.25Z"/>
	<path transform="scale(2 2)" d="M253.307 354.197C255.294 354.371 256.225 355.772 257.268 357.332C256.741 362.131 258.414 371.319 253.307 373.978C251.205 373.7 250.263 372.801 249.218 370.94C248.698 365.563 247.36 356.373 253.307 354.197Z"/>
	<path transform="scale(2 2)" d="M257.268 286.058C259.529 286.2 260.094 287.017 261.212 288.964C261.545 292.55 261.012 299.96 260.262 303.494C259.321 304.383 258.47 304.899 257.268 305.389C249.534 303.621 253.353 286.694 257.268 286.058Z"/>
	<path transform="scale(2 2)" d="M253.954 320.073C263.093 318.986 258.621 336.965 256.48 338.626L256.217 338.688C247.806 340.753 250.899 321.805 253.954 320.073Z"/>
	<path transform="scale(2 2)" d="M395.799 269.897C397.627 271.679 406.969 287.644 397.662 288.964C393.922 287.004 392.79 280.752 391.248 277.125C392.699 274.685 394.086 272.164 395.799 269.897Z"/>
</svg>
