<?xml version="1.0" encoding="utf-8" ?>
<svg xmlns="http://www.w3.org/2000/svg" xmlns:xlink="http://www.w3.org/1999/xlink" width="1024" height="1024">
	<path fill="#303030" transform="scale(2 2)" d="M112.118 111.13L402.511 111.12C415.433 111.097 425.688 109.907 435.634 119.916C447.436 131.794 444.736 146.009 444.735 161.388L444.756 363.165C444.746 372.206 443.093 379.617 436.437 386.183C425.62 396.854 414.94 394.758 401.125 394.724L105.481 394.736C83.3388 394.747 67.9401 388.632 67.7559 363.756L67.7323 145.488C67.7023 113.987 85.1479 111.072 112.118 111.13ZM220.814 268.125C214.289 274.204 207.342 279.868 200.711 285.838L126.969 352.128C122.719 355.94 118.354 359.655 114.161 363.526C122.966 363.949 131.961 363.523 140.792 363.522L194.875 363.526L397.523 363.526C394.718 360.4 391.431 357.654 388.322 354.836L302.91 278.634C299.838 275.854 294.128 270.032 290.91 268.125C285.874 271.326 276.713 279.894 271.976 284.319C257.504 297.838 254.037 297.663 238.162 283.35C232.455 278.205 226.733 273.021 220.814 268.125ZM98.5129 159.201L98.51 277.799C98.5094 297.478 98.2615 317.192 98.5129 336.866C115.108 320.088 133.707 305.308 150.686 288.916C157.79 282.3 165.161 275.946 172.412 269.49L197.908 246.49C193.155 242.546 188.631 238.401 183.97 234.361L107.735 167.006C104.815 164.413 101.979 161.027 98.5129 159.201ZM414.181 159.201C406.374 164.557 396.302 174.923 388.802 181.442L340.927 223.536C331.865 231.584 322.919 239.672 313.633 247.475C328.162 262.161 345.904 275.248 360.999 289.92L406.538 330.434C409.011 332.617 411.385 335.093 414.181 336.866L414.178 182.872C414.176 180.424 414.525 159.594 414.181 159.201ZM125.324 141.502C128.087 144.995 132.043 147.761 135.371 150.734L238.186 241.814C244.098 246.998 250.224 252.117 255.785 257.677C260.046 254.748 263.882 250.953 267.705 247.48L280.859 235.669C283.864 232.943 287.093 230.474 290.106 227.756L314.676 205.922C318.213 202.816 321.661 199.601 325.274 196.583C340.32 182.734 355.681 169.27 370.85 155.558C375.735 151.143 382.467 146.463 386.486 141.502C383.311 141.784 380.064 141.534 376.876 141.513L125.324 141.502Z"/>
</svg>
