<?xml version="1.0" encoding="utf-8" ?>
<svg xmlns="http://www.w3.org/2000/svg" xmlns:xlink="http://www.w3.org/1999/xlink" width="1242" height="1242">
	<path transform="scale(2.42558 2.42558)" d="M257.24 73.75C347.75 68.6827 427.495 139.269 436.483 229.44C445.608 320.973 382.527 420.171 288.619 435.25C277.599 437.02 266.443 437.515 255.296 437.486C166.175 433.608 84.2557 372.233 75.6766 279.853C66.7898 184.159 135.266 98.1363 227.713 77.901C237.471 75.7651 247.309 74.6543 257.24 73.75ZM254.125 423.241C299.108 423.384 334.557 411.303 367.56 378.729C443.374 303.901 446.312 173.109 354.637 109.848C324.753 89.2262 292.615 81.2782 256.677 82.2447C248.695 82.971 240.689 83.8615 232.842 85.5375C135.983 106.226 64.1043 207.392 93.5179 305.449C112.54 368.865 170.258 411.126 234.105 421.268C240.765 422.326 247.457 422.413 254.125 423.241Z"/>
	<path transform="scale(2.42558 2.42558)" d="M189.267 225.742L189.024 225.604C184.202 222.813 189.222 216.396 191.246 212.204C200.8 192.421 247.591 110.216 259.155 119.172C261.486 120.977 270.481 136.294 273.612 141.009C286.9 161.027 301.273 180.786 316.797 199.162C318.58 201.273 329.537 212.431 320.382 212.975C318.298 213.099 312.881 210.55 310.718 209.755L287.062 201.33C284.514 200.443 278.003 196.871 275.504 198.168C275.205 198.708 271.737 223.681 271.535 226.173C268.952 258.093 275.486 352.822 308.45 371.06C326.971 381.307 346.929 372.244 358.795 356.255C360.889 353.433 363.552 346.581 368.08 348.786C374.531 351.927 355.977 368.564 351.361 372.686C350.936 374.234 351.239 375.898 351.361 377.482C358.781 380.121 355.113 381.55 350.57 387.147C343.397 395.982 339.202 400.168 328.068 403.661C314.566 407.898 297.208 406.474 286.487 396.401C223.473 372.857 230.569 261.103 241.542 204.414L241.254 204.099C233.811 206.329 209.759 220.01 201.822 224.946C198.386 227.083 190.633 236.641 189.689 226.881L189.583 225.875L189.267 225.742ZM255.296 126.363C240.864 140.343 215.194 177.559 207.123 197.682C208.61 197.039 243.844 147.955 250.637 139.853C253.046 136.98 255.579 134.218 257.787 131.181C257.051 129.493 256.263 127.931 255.296 126.363ZM248.685 336.768C249.626 339.474 250.212 342.301 251.175 344.992C257.819 339.403 262.251 331.82 268.36 325.796L265.495 317.036C260.932 324.381 254.046 330.021 248.685 336.768ZM256.677 358.211C257.982 360.701 259.339 363.157 260.907 365.494L276.002 347.02C275.181 344.661 274.153 342.401 273.134 340.123C270.528 344.148 260.146 354.989 256.677 358.211ZM244.914 318.456C249.963 314.7 258.603 303.705 262.269 301.726C261.455 298.663 261.037 295.95 260.907 292.779C257.318 293.82 248.152 307.615 243.436 308.987C243.795 312.179 244.227 315.315 244.914 318.456ZM307.512 381.14C304.597 385.164 300.928 388.326 297.8 392.131C303.003 392.405 308.277 392.811 313.471 393.228C313.138 389.946 313.422 386.768 313.471 383.483C311.512 382.545 309.577 381.819 307.512 381.14ZM243.436 231.529C247.292 229.006 254.508 222.249 258.522 221.268C258.86 218.869 259.218 216.484 259.33 214.061C254.024 217.19 249.21 220.729 244.093 224.109C243.724 226.582 243.699 229.05 243.436 231.529ZM271.856 378.861C274.272 380.912 276.651 382.961 279.388 384.582C283.538 380.195 287.072 375.215 291.267 370.909C289.137 368.699 287.194 366.237 285.202 363.898C283.034 368.716 276.375 376.177 271.856 378.861ZM246.117 205.994C251.339 205.016 255.463 200.819 260.907 199.974C261.546 197.513 261.828 194.807 262.269 192.288C257.042 194.11 252.392 197.906 247.136 199.974C246.826 201.968 246.611 204.04 246.117 205.994ZM338.229 379.686C337.858 381.589 337.092 383.975 337.186 385.892L337.427 385.966C339.989 383.808 342.24 381.2 343.196 377.92L343.085 377.538L342.856 377.482C341.309 378.173 339.679 378.81 338.229 379.686ZM258.522 277.813C258.236 274.527 257.75 271.272 257.24 268.016C254.433 271.209 245.214 279.464 241.542 281.445C241.638 285.252 241.764 288.971 241.542 292.779C243.968 291.686 254.027 280.75 258.522 277.813ZM257.24 239.884C252.494 243.546 246.413 249.098 241.542 252.04C241.72 255.603 241.598 259.187 241.542 262.753C246.813 258.303 251.394 252.935 257.24 249.174C257.305 246.082 257.242 242.977 257.24 239.884Z"/>
	<path fill="#FECA04" transform="scale(2.42558 2.42558)" d="M351.361 377.482C358.781 380.121 355.113 381.55 350.57 387.147C343.397 395.982 339.202 400.168 328.068 403.661C314.566 407.898 297.208 406.474 286.487 396.401C289.755 396.86 293.033 398.256 296.291 398.956C311.989 402.327 337.558 399.978 347.375 385.116C348.941 382.744 350.054 380.007 351.361 377.482Z"/>
	<path fill="#FECA04" transform="scale(2.42558 2.42558)" d="M189.267 225.742C194.113 224.844 198.693 221.209 203.062 218.968C214.908 212.891 229.217 204.8 241.542 199.974C241.64 201.484 241.685 202.906 241.542 204.414L241.254 204.099C233.811 206.329 209.759 220.01 201.822 224.946C198.386 227.083 190.633 236.641 189.689 226.881L189.583 225.875L189.267 225.742Z"/>
	<path fill="#FECA04" transform="scale(2.42558 2.42558)" d="M257.787 131.181C260.921 134.434 265.055 142.265 267.746 146.522C275.157 158.24 283.306 170.129 292.024 180.911C295.527 185.244 299.429 189.053 302.501 193.75L276.966 185.87C273.174 184.741 269.343 183.452 265.495 182.541C260.881 185.041 262.938 188.002 262.269 192.288C257.042 194.11 252.392 197.906 247.136 199.974C247.464 196.026 254.57 182.126 243.502 187.613C228.957 194.823 213.743 205.167 199.129 213.103C201.493 208.004 204.034 202.364 207.123 197.682C208.61 197.039 243.844 147.955 250.637 139.853C253.046 136.98 255.579 134.218 257.787 131.181Z"/>
	<path fill="#FECA04" transform="scale(2.42558 2.42558)" d="M276.002 347.02C278.868 352.842 281.773 358.379 285.202 363.898C283.034 368.716 276.375 376.177 271.856 378.861C268.001 375.294 263.305 370.114 260.907 365.494L276.002 347.02Z"/>
	<path fill="#FECA04" transform="scale(2.42558 2.42558)" d="M262.269 301.726C262.928 306.991 264.534 311.866 265.495 317.036C260.932 324.381 254.046 330.021 248.685 336.768C247.173 330.756 245.545 324.634 244.914 318.456C249.963 314.7 258.603 303.705 262.269 301.726Z"/>
	<path fill="#FECA04" transform="scale(2.42558 2.42558)" d="M268.36 325.796C269.87 330.599 271.642 335.322 273.134 340.123C270.528 344.148 260.146 354.989 256.677 358.211C254.413 354.13 252.607 349.429 251.175 344.992C257.819 339.403 262.251 331.82 268.36 325.796Z"/>
	<path fill="#FECA04" transform="scale(2.42558 2.42558)" d="M257.24 249.174C257.071 255.372 257.9 261.884 257.24 268.016C254.433 271.209 245.214 279.464 241.542 281.445C241.387 275.232 241.493 268.97 241.542 262.753C246.813 258.303 251.394 252.935 257.24 249.174Z"/>
	<path fill="#FECA04" transform="scale(2.42558 2.42558)" d="M291.267 370.909C296.253 375.421 301.351 378.489 307.512 381.14C304.597 385.164 300.928 388.326 297.8 392.131C291.503 389.559 285.399 387.988 279.388 384.582C283.538 380.195 287.072 375.215 291.267 370.909Z"/>
	<path fill="#FECA04" transform="scale(2.42558 2.42558)" d="M258.522 277.813C258.954 282.421 259.101 288.519 260.907 292.779C257.318 293.82 248.152 307.615 243.436 308.987C242.879 303.941 243.058 297.536 241.542 292.779C243.968 291.686 254.027 280.75 258.522 277.813Z"/>
	<path fill="#FECA04" transform="scale(2.42558 2.42558)" d="M258.522 221.268C258.163 226.24 258.328 235.484 257.24 239.884C252.494 243.546 246.413 249.098 241.542 252.04C242.533 245.232 242.654 238.36 243.436 231.529C247.292 229.006 254.508 222.249 258.522 221.268Z"/>
	<path fill="#FECA04" transform="scale(2.42558 2.42558)" d="M246.117 205.994C251.339 205.016 255.463 200.819 260.907 199.974C260.474 203.548 260.268 211.065 259.33 214.061C254.024 217.19 249.21 220.729 244.093 224.109C244.712 218.117 245.034 211.911 246.117 205.994Z"/>
	<path fill="#FECA04" transform="scale(2.42558 2.42558)" d="M331.015 382.332L331.362 382.357L331.477 382.875C329.661 389.117 325.276 391.055 319.089 392.131C317.738 390.056 318.66 385.729 319.089 383.483C323.185 383.495 327.001 383.073 331.015 382.332Z"/>
	<path transform="scale(2.42558 2.42558)" d="M280.901 103.776C323.076 102.06 370.262 127.144 393.021 162.252C411.134 190.194 415.56 218.452 408.736 250.297C408.445 251.852 408.116 253.391 407.759 254.933C408.937 178.466 372.537 129.652 298.454 110.078C295.121 109.198 281.575 107.148 280.901 103.776Z"/>
	<path transform="scale(2.42558 2.42558)" d="M194.943 112.561C198.776 112.22 199.807 116.723 196.59 118.525C181.132 127.184 173.611 132.278 161.66 146.526C135.671 177.508 122.038 225.214 123.028 265.27C123.338 277.798 125.812 288.507 126.857 300.316L126.691 300.404L126.506 299.949C111.293 250.514 116.544 202.99 144.159 158.235C153.989 142.304 175.405 117.216 194.943 112.561Z"/>
</svg>
