<?xml version="1.0" encoding="utf-8" ?>
<svg xmlns="http://www.w3.org/2000/svg" xmlns:xlink="http://www.w3.org/1999/xlink" width="1024" height="1024">
	<path transform="scale(2 2)" d="M256.941 194.774C263.681 194.418 266.345 204.099 268.872 209.048L277.448 225.538C281.827 234.039 286.939 242.375 290.693 251.157C296.163 251.002 301.734 252.306 307.117 253.18L330.277 256.956C342.036 258.916 363.468 258.087 346.365 274.229C333.423 286.445 320.337 300.891 307.197 312.43L315.404 350.48C316.533 355.789 324.608 378.792 310.454 373.126C305.75 371.243 301.115 368.015 296.612 365.618C284.527 359.187 272.278 352.768 260.399 345.967C259.562 345.569 258.782 344.991 258.002 344.488C252.567 348.021 209.15 373.406 204.854 373.362C194.305 373.256 199.214 359.878 200.336 354.056L205.197 327.767C206.143 322.654 207.589 317.114 207.799 311.931L207.81 311.594C198.457 301.787 188.43 292.559 178.559 283.276C175.462 280.364 154.182 264.224 167.327 260.18C172.502 258.587 181.036 257.798 186.579 256.965L226.537 251.157C233.96 234.572 243.035 216.831 251.158 200.457C252.656 197.438 253.661 195.874 256.941 194.774ZM235.755 262.322C218.863 265.533 201.807 267.755 184.92 271.004C191.111 275.677 221.597 305.809 221.926 307.791C222.358 310.394 214.401 350.006 213.064 355.404C216.531 353.526 219.966 351.524 223.468 349.721C224.992 342.532 226.24 335.308 227.57 328.082C230.83 310.377 232.591 312.84 219.892 300.213L208.251 288.658C205.107 285.536 201.865 282.462 199.104 278.988C211.733 275.752 228.256 274.77 239.67 271.151C245.47 269.311 255.204 240.134 261.821 232.751C268.477 242.043 273.18 253.001 278.941 262.863L282.578 263.764C283.329 265.035 284.129 266.224 285.006 267.411C295.138 271.393 313.919 272.188 325.738 275.303C327.328 273.766 328.912 272.361 330.654 271.004C314.714 267.664 298.479 265.806 282.578 262.322C279.203 258.319 276.96 252.682 274.545 248.044L264.128 228.345C262.067 224.42 260.227 220.386 258.002 216.546C250.938 229.664 241.214 248.478 235.755 262.322Z"/>
	<path fill="#FF5D15" transform="scale(2 2)" d="M261.821 232.751C268.477 242.043 273.18 253.001 278.941 262.863L282.578 263.764C283.329 265.035 284.129 266.224 285.006 267.411C295.138 271.393 313.919 272.188 325.738 275.303C319.44 282.508 312.296 289.174 305.447 295.851C289.846 311.06 292.486 306.867 296.958 326.27C299.099 335.556 300.868 344.929 303.046 354.204C289.669 348.518 269.764 333.527 258.002 330.604C247.178 333.716 234.224 344.597 223.468 349.721C224.992 342.532 226.24 335.308 227.57 328.082C230.83 310.377 232.591 312.84 219.892 300.213L208.251 288.658C205.107 285.536 201.865 282.462 199.104 278.988C211.733 275.752 228.256 274.77 239.67 271.151C245.47 269.311 255.204 240.134 261.821 232.751Z"/>
	<path transform="scale(2 2)" d="M398.183 279.775C405.938 278.958 408.568 289.072 411.781 295.113C415.936 302.923 420.314 310.694 424.034 318.721C426.843 319.323 429.814 319.479 432.666 319.892L452.014 322.751C458.608 323.718 467.36 322.953 466.503 332.03C464.366 336.421 441.449 355.676 436.29 360.321C437.141 366.574 444.129 402.254 442.406 405.533C438.226 413.483 424.908 401.843 420.568 399.244C413.728 395.147 406.636 391.361 399.645 387.526C394.984 386.857 354.613 422.332 355.204 402.535C355.518 392.034 361.562 372.662 363.49 361.11C355.12 353.283 342.214 342.571 334.943 334.339C332.112 331.133 332.258 325.084 336.812 323.438C344.545 320.644 367.411 319.6 377.068 317.888C379.349 311.677 382.927 305.777 385.764 299.793C388.789 293.412 391.67 282.399 398.183 279.775ZM354.068 334.186C356.729 336.778 359.56 339.212 362.185 341.833C368.513 332.743 383.842 340.466 389.789 333.638C393.813 329.018 399.845 312.815 402.947 306.471C402.059 304.357 401.039 302.433 399.645 300.606L390.714 319.363C385.911 329.389 387.06 329.647 375.18 331.326C368.211 332.311 360.967 332.855 354.068 334.186ZM371.555 387.526C372.807 387.002 374.038 386.449 375.265 385.868C379.5 382.146 381.093 369.956 382.424 364.451C381.553 361.663 380.054 360.362 377.835 358.609C375.639 368.232 373.696 377.897 371.555 387.526ZM424.034 385.868C422.407 379.012 402.131 369.931 400.302 370.642C402.534 374.222 419.234 383.614 424.034 385.868Z"/>
	<path fill="#FF5D15" transform="scale(2 2)" d="M402.947 306.471L403.101 306.717C406.638 312.478 412.615 329.295 418.197 330.64C426.831 332.72 436.007 332.418 444.475 335.378C439.404 339.321 424.74 351.845 421.973 356.641C422.992 366.237 425.349 378.174 426.947 387.97C425.925 387.315 424.928 386.698 424.034 385.868C422.407 379.012 402.131 369.931 400.302 370.642C395.608 373.772 379.398 385.645 375.265 385.868C379.5 382.146 381.093 369.956 382.424 364.451C381.553 361.663 380.054 360.362 377.835 358.609C377.519 353.86 365.837 345.574 362.185 341.833C368.513 332.743 383.842 340.466 389.789 333.638C393.813 329.018 399.845 312.815 402.947 306.471Z"/>
	<path transform="scale(2 2)" d="M111.316 280.802C117.548 279.846 121.844 292.614 124.048 296.794C127.827 303.96 132.267 311.202 135.266 318.721C139.551 318.605 173.354 321.272 176.824 323.726C184.497 329.154 175.791 336.282 171.891 339.769L156.423 353.526C153.702 355.943 150.492 358.113 148.367 361.11C148.732 365.407 149.846 369.614 150.766 373.819L154.541 391.486C155.584 396.543 158.903 411.554 147.552 407.284C137.813 403.621 123.932 392.69 113.176 387.526C111.52 386.47 83.1231 405.766 77.2105 408.013C72.6858 409.733 68.1529 405.629 68.4049 400.988C68.9577 390.804 74.1298 371.829 76.1367 361.11C73.1865 358.005 69.8749 355.215 66.6731 352.378L54.7266 341.644C52.2333 339.388 49.3617 337.134 47.19 334.566C44.1388 330.958 44.8287 325.122 49.828 323.566C59.0318 320.701 77.512 320.845 88.5028 318.721C91.2595 311.951 94.9748 305.395 98.2088 298.831C101.72 291.706 103.436 282.305 111.316 280.802ZM96.8183 330.604C88.9004 330.97 75.1532 332.531 67.1586 334.186C68.7856 335.933 70.3318 337.387 72.3188 338.723C76.2517 337.36 96.1456 335.816 101.14 335.378C105.584 326.824 110.945 316.585 114.524 307.755C113.465 305.955 112.426 304.14 111.316 302.372C105.797 310.304 102.561 321.798 96.8183 330.604ZM84.6272 387.97C87.0621 387.041 88.9221 385.348 91.2224 384.303C91.1856 378.901 93.5079 368.19 94.3609 362.331C92.8993 360.859 91.3194 359.431 90.1293 357.724C88.4974 362.07 84.9652 383.054 84.6272 387.97ZM155.047 336.463C155.976 335.635 157.044 334.925 158.047 334.186C152.31 332.632 133.687 330.466 127.678 330.604C130.754 335.788 134.129 334.859 139.687 335.283C144.797 335.672 149.954 335.906 155.047 336.463Z"/>
	<path fill="#FF5D15" transform="scale(2 2)" d="M114.524 307.755C116.138 310.394 126.063 330.153 127.678 330.604C130.754 335.788 134.129 334.859 139.687 335.283C144.797 335.672 149.954 335.906 155.047 336.463C150.211 341.566 136.216 352.278 134.32 357.724C134.005 365.293 138.923 379.225 139.867 387.97C133.721 384.01 119.814 374.505 113.176 372.103C105.242 374.688 98.6783 380.739 91.2224 384.303C91.1856 378.901 93.5079 368.19 94.3609 362.331C92.8993 360.859 91.3194 359.431 90.1293 357.724C90.2 355.27 75.0749 342.561 72.3188 338.723C76.2517 337.36 96.1456 335.816 101.14 335.378C105.584 326.824 110.945 316.585 114.524 307.755Z"/>
	<path transform="scale(2 2)" d="M161.474 98.3143C166.586 98.2789 172.212 106.753 175.248 110.089C180.5 115.861 185.708 121.604 191.246 127.108C203.083 124.974 217.314 119.327 228.599 118.254C233.591 117.78 237.073 122.015 235.437 126.952C231.833 137.823 220.185 150.09 216.113 161.051L215.962 161.463C217.087 164.462 219.147 167.282 220.782 170.035L229.307 184.326C231.559 188.076 234.01 191.866 235.755 195.885C234.586 206.643 224.082 202.132 217.094 200.724C208.542 199 199.903 196.999 191.246 195.885C186.81 194.633 175.084 212.589 171.708 216.981C168.176 221.579 164.433 230.017 157.45 225.302C154.618 223.39 149.795 187.724 148.865 182.735C144.705 180.955 113.051 165.422 111.66 162.595C107.248 153.629 124.452 149.929 130.359 147.534C136.407 145.082 142.377 142.416 148.367 139.826C150.49 132.983 154.24 103.69 156.124 100.973C157.461 99.0439 159.319 98.6843 161.474 98.3143ZM159.988 149.757C151.407 152.236 142.43 156.116 134.32 159.934C136.342 161.149 138.331 162.403 140.501 163.341L140.751 163.451C146.311 159.501 157.734 156.236 164.452 152.7C166.926 146.736 169.037 130.874 170.175 124.082C168.727 122.642 167.306 121.155 165.81 119.766C163.558 129.714 162.188 139.815 159.988 149.757ZM165.81 203.193C166.799 202.049 167.819 200.922 168.774 199.75C167.488 192.888 167.665 185.867 165.81 179.063C164.54 177.555 163.195 176.747 161.474 175.858C161.85 181.9 164.231 197.571 165.81 203.193Z"/>
	<path fill="#FF5D15" transform="scale(2 2)" d="M170.175 124.082C176.14 129.511 181.359 135.578 187.019 141.304C195.152 140.019 208.189 137.285 215.962 134.488C210.918 143.499 205.234 152.314 200.479 161.463L209.539 177.149C211.333 180.255 213.278 183.316 214.85 186.539C206.42 184.881 192.101 181.52 183.717 181.176L172.448 195.096C171.205 196.617 170.06 198.275 168.774 199.75C167.488 192.888 167.665 185.867 165.81 179.063C164.54 177.555 163.195 176.747 161.474 175.858C160.474 173.12 144.104 165.423 140.751 163.451C146.311 159.501 157.734 156.236 164.452 152.7C166.926 146.736 169.037 130.874 170.175 124.082Z"/>
	<path transform="scale(2 2)" d="M442.948 172.766C451.908 172.228 452.196 181.203 453.936 187.842C455.629 194.301 457.346 200.756 458.939 207.24L459.284 207.263C463.469 207.563 484.498 213.082 489.638 215.199C493.411 216.753 495.385 221.614 492.283 224.897C487.016 230.472 473.209 237.451 466.255 243.114L465.958 243.358C466.603 247.714 467.804 268.024 467.376 272.413C466.956 276.723 462.3 280.435 458.038 278.368C455.123 276.954 452.473 274.394 449.901 272.436L434.885 261.125L432.043 259.149C423.421 262.863 413.646 267.42 404.804 270.249C400.255 271.705 397.412 269.646 396.153 265.2L396.285 264.61C398.417 254.893 403.367 242.569 406.367 232.751C403.598 230.098 390.445 213.501 388.683 210.533C381.81 198.959 397.247 200.146 403.017 200.379L424.034 201.375C427.181 195.695 437.689 174.809 442.948 172.766ZM411.355 217.627L424.39 217.682C440.211 217.787 435.367 215.452 444.475 204.048C443.67 201.846 443.059 199.549 442.016 197.446L441.765 197.697C438.145 201.356 434.48 210.645 431.21 212.931C427.902 215.245 413.118 213.753 407.511 213.532C408.748 214.924 409.956 216.396 411.355 217.627ZM414.863 249.46L415.089 249.568L420.482 247.061C421.825 243.271 423.287 239.421 424.034 235.467C423.067 233.668 421.804 232.151 420.482 230.605C419.615 236.278 416.563 243.752 414.863 249.46Z"/>
	<path fill="#FF5D15" transform="scale(2 2)" d="M444.475 204.048C445.436 208.095 446.293 213.021 448.556 216.546C452.626 219.036 464.468 221.675 470.49 223.844C466.503 226.283 453.057 234.599 452.116 238.251C451.394 241.051 453.248 254.416 453.476 259.149C449.774 255.567 438.672 246.577 434.124 244.809C428.242 245.433 418.952 249.925 413.793 252.91C414.147 251.759 414.488 250.603 414.863 249.46L415.089 249.568L420.482 247.061C421.825 243.271 423.287 239.421 424.034 235.467C423.067 233.668 421.804 232.151 420.482 230.605C420.108 226.739 413.49 221.101 411.355 217.627L424.39 217.682C440.211 217.787 435.367 215.452 444.475 204.048Z"/>
	<path transform="scale(2 2)" d="M65.7793 173.753C71.561 173.504 73.5275 178.127 76.0794 182.5L82.7009 193.856C84.1794 196.396 85.549 199.077 87.3917 201.375C96.5235 202.207 122.677 195.35 123.966 205.248C124.727 211.085 108.682 227.406 104.706 232.751L104.918 233.17C107.523 238.38 115.478 257.527 116.694 263.136C117.681 267.688 113.564 272.007 108.911 271.261C103.118 270.331 87.5797 262.611 81.0745 259.979C80.433 259.768 79.7902 259.427 79.1718 259.149C72.8664 263.849 60.6525 274.812 54.4467 278.083C50.2889 280.274 45.1792 277.655 44.6866 273.033C44.0898 267.435 46.1757 249.807 46.9537 243.358C41.7239 240.104 20.8014 226.681 19.6086 222.916C16.8076 214.075 31.3881 212.765 36.7361 211.428C41.9674 210.12 47.1619 208.715 52.3487 207.24C54.5225 200.798 56.2634 194.141 58.0775 187.59C59.7306 181.62 59.4896 176.194 65.7793 173.753ZM45.9842 226.536C49.9566 225.765 64.3229 223.902 66.5024 220.608C68.4873 217.608 69.9082 208.033 72.1315 203.565L72.3188 203.193C71.3606 201.133 70.1624 199.324 68.8958 197.446C66.903 202.405 64.4992 216.765 60.578 218.542C55.9204 220.652 47.463 222.17 42.1829 223.844C43.3713 224.885 44.5393 225.858 45.9842 226.536ZM63.9503 254.362C63.6373 248.451 66.6107 241.629 61.2464 238.424C60.1949 242.383 59.2972 253.226 59.1947 257.558C60.7727 256.522 62.4772 255.538 63.9503 254.362Z"/>
	<path fill="#FF5D15" transform="scale(2 2)" d="M72.3188 203.193C74.5186 206.794 76.4902 213.851 81.013 215.033C84.3944 215.917 98.1204 214.261 102.773 214.234C99.0292 218.423 91.3523 225.127 90.1293 230.605C91.4477 237.487 95.7327 246.134 98.2633 252.91C70.5471 240.697 82.3014 241.651 63.9503 254.362C63.6373 248.451 66.6107 241.629 61.2464 238.424C59.9145 234.933 49.321 229.061 45.9842 226.536C49.9566 225.765 64.3229 223.902 66.5024 220.608C68.4873 217.608 69.9082 208.033 72.1315 203.565L72.3188 203.193Z"/>
	<path transform="scale(2 2)" d="M332.492 110.514C340.503 110.024 340.84 119.188 342.567 124.948C344.369 130.959 346.54 137.057 347.854 143.19C355.376 145.139 371.568 148.696 378.267 152.026C392.934 159.317 357.243 175.611 353.39 178.27C353.699 186.941 354.105 201.766 353.423 210.262C353.079 214.543 348.359 217.014 344.668 215.018C339.271 212.1 324.877 193.47 320.438 194.774C313.796 196.724 307.174 198.878 300.593 201.03C293.435 203.37 285.855 208.465 282.578 198.438C286.124 188.065 293.294 177.881 296.776 166.741C292.645 160.637 287.11 155.081 282.277 149.503C278.678 145.35 271.793 138.869 278.193 133.767C282.012 130.721 289.757 133.513 294.132 134.1C300.161 134.91 306.201 135.574 312.249 136.219C314.733 130.262 325.734 112.785 332.492 110.514ZM299.43 147.648C299.995 148.422 300.537 149.099 301.236 149.757C308.12 150.848 314.914 152.585 321.844 153.626C324.951 150.068 329.792 142.663 332.492 138.505C331.933 136.597 331.435 134.636 330.654 132.806C326.311 137.887 321.888 145.447 317.288 149.757C312.951 149.798 303.861 148.545 299.43 147.648ZM303.046 185.757C304.95 185.269 306.786 184.686 308.64 184.032C310.436 180.126 312.941 176.604 314.867 172.766C314.188 170.951 313.208 169.284 312.249 167.605C309.327 170.422 304.525 181.645 303.046 185.757Z"/>
	<path fill="#FF5D15" transform="scale(2 2)" d="M321.844 153.626C324.951 150.068 329.792 142.663 332.492 138.505C334.131 143.561 335.766 148.616 337.544 153.626C344.479 155.13 351.26 157.345 358.12 159.15C352.145 163.33 346.181 167.455 340.047 171.398C340.021 178.505 340.217 185.636 340.047 192.738C336.119 189.474 328.359 183.114 325.738 179.063C319.938 180.399 314.399 182.729 308.64 184.032C310.436 180.126 312.941 176.604 314.867 172.766C314.188 170.951 313.208 169.284 312.249 167.605C312.503 165.29 302.923 152.661 301.236 149.757C308.12 150.848 314.914 152.585 321.844 153.626Z"/>
</svg>
