<?xml version="1.0" encoding="utf-8" ?>
<svg xmlns="http://www.w3.org/2000/svg" xmlns:xlink="http://www.w3.org/1999/xlink" width="1024" height="1024">
	<path transform="scale(2 2)" d="M176.344 104.007C185.784 103.502 223.278 104.554 230.435 110.809C243.671 122.376 237.635 171.838 236.039 187.378C234.917 198.305 232.222 232.035 225.255 240C234.357 240.049 243.416 240.506 252.541 240.42C259.28 223.76 244.708 226.779 240.24 216.922C237.106 210.006 240.601 200.366 247.558 197.265C260.432 191.527 277.621 200.168 283.349 213.136C292.246 209.121 297.338 210.021 306.393 208.974C303.171 199.199 308.239 189.041 310.746 179.737C315.024 163.862 311.642 158.854 329.46 155.657C349.975 151.975 370.639 151.989 391.39 151.198C400.095 150.866 422.665 145.965 422.166 160.144C421.937 166.648 414.787 189.418 412.853 196.371C424.869 198.692 446.355 197.511 450.563 212.383C452.561 219.446 446.919 227.24 445.165 235.276C440.92 254.714 440.968 275.568 440.456 295.375C440.069 310.374 441.793 395.166 436.778 403.698C435.417 406.014 433.759 406.66 431.307 407.324C423.592 404.996 424.556 397.712 425.003 390.929C411.65 391.577 398.382 393.671 384.99 394.173C357.374 395.209 328.932 392.944 301.505 389.463C300.221 396.133 302.487 405.306 294.005 407.324C285.926 403.907 288.441 390.27 288.229 382.379L285.629 306.402C285.318 298.194 284.716 289.935 284.76 281.723C276.249 281.444 267.641 281.714 259.119 281.723C265.049 315.183 231.624 311.358 210.249 313.64C201.807 312.913 191.001 313.7 182.288 313.64C181.995 324.926 183.85 336.528 183.379 347.403C202.495 354.475 219.95 359.656 236.249 373.404C241.025 377.433 237.24 377.056 243.776 379.05C249.652 380.843 252.844 388.743 251.17 394.345C245.799 412.325 218.99 406.238 226.14 385.587C217.618 378.381 192.993 365.213 182.288 362.961C181.89 369.625 181.22 376.151 180.557 382.792C185.954 388.473 187.595 395.966 181.757 402.147C171.377 413.134 147.995 397.856 165.335 381.001C166.138 375.607 166.375 369.633 166.186 364.198C154.281 369.199 141.44 375.067 130.971 382.792C132.839 386.786 133.659 391.124 131.749 395.312C124.219 411.83 99.1614 399.26 107.319 383.211C108.026 381.82 120.003 372.421 122.38 370.591C135.954 360.136 151.037 352.636 167.256 347.403C167.515 336.763 165.741 325.893 166.186 314.736C155.351 313.703 140.756 315.239 129.614 315.393C107.431 315.7 99.3788 310.529 96.897 287.75C90.0905 287.655 83.031 288.931 76.3185 287.498C59.8407 283.979 56.6201 264.666 72.5961 254.666C65.8873 241.912 54.8108 218.029 68.4916 206.907C80.1427 197.435 107.682 196.34 104.558 219.413C103.717 225.624 97.9923 229.576 93.419 233.158C94.6521 238.69 96.3669 244.068 98.0583 249.473C107.192 247.989 121.565 246.744 129.545 244.834C126.79 239.568 123.853 234.268 121.657 228.74C114.53 210.791 92.4202 134.432 109.544 118.363C121.207 107.42 160.712 103.418 176.344 104.007ZM366.555 232.123C364.171 232.099 350.905 232.134 349.706 233.447C347.516 235.843 350.343 255.487 350.659 259.003C352.728 282.026 355.085 309.545 352.613 332.034C352.283 335.042 350.776 341.174 351.396 343.858C353.187 343.161 354.525 341.134 355.647 339.663C367.055 324.706 360.148 282.531 358.783 263.896C357.958 252.632 354.97 238.593 366.555 232.123ZM221.215 126.708C220.744 125.332 220.205 123.126 218.777 122.463C216.458 121.387 189.985 119.949 186.249 119.813C171.907 119.29 126.946 119.062 118.878 134.15C118.847 142.363 119.407 153.323 121.946 161.033C122.429 159.723 121.979 157.665 122.005 156.229C122.416 133.106 136.732 129.694 157.57 127.077C166.887 125.908 212.901 123.02 221.215 126.708ZM179.578 269.375L207.951 267.82C227.002 266.933 246.302 265.923 265.381 266.082C277.596 266.183 293.415 266.399 305.239 265.574C306.121 265.512 309.68 264.489 308.752 263.018C305.652 258.103 218.151 254.197 199.381 255.385C186.855 255.673 83.7496 260.699 76.2422 268.292C74.6504 269.902 75.4785 272.785 77.115 274.034C80.8217 276.862 170.557 269.745 179.578 269.375ZM108.65 286.688C104.896 287.119 107.032 289.98 108.264 292.252C114.451 303.663 122.021 302.698 133.443 302.381L157.823 301.464C162.602 301.262 167.519 300.784 172.291 301.157C158.206 289.534 123.415 297.956 108.65 286.688ZM321.582 275.381C323.88 289.462 326.178 300.069 326.985 314.736C332.273 313.575 337.532 312.318 342.842 311.232C343.345 306.389 342.928 299.477 342.873 294.435L342.833 262.339C342.814 253.302 342.389 243.994 343.656 235.028C345.462 222.244 371.772 222.918 377.676 226.295C387.317 231.808 385.019 247.026 384.845 256.164C384.637 267.088 384.176 294.247 386.997 304.742L387.059 304.969C390.534 303.785 393.91 302.293 397.389 301.157C398.266 277.04 398.52 238.202 410.291 218.428C404.045 217.768 397.359 218.071 391.232 216.787C372.255 216.798 353.252 217.009 334.294 216.354C325.697 216.057 320.168 216.234 311.525 214.993L308.814 214.993C308.653 216.927 308.715 219.499 307.637 221.175C316.514 225.767 321.62 248.503 323.979 258.367C325.929 266.52 326.402 267.551 321.582 275.381ZM301.505 382.256C316.242 383.496 337.748 382.06 352.566 381.371C359.038 381.07 365.535 380.313 372.01 380.313C368.098 378.267 311.621 372.211 301.505 372.997C301.428 376.077 301.256 379.182 301.505 382.256ZM93.419 213.136C92.5776 212.304 91.7525 211.462 90.8384 210.709C80.3978 212.503 74.8605 213.176 75.2565 224.081C79.8871 216.939 84.4437 214.048 93.419 213.136ZM371.121 166.629C358.488 166.973 347.037 168.437 334.67 169.258C331.347 169.479 328.055 168.839 324.72 169.248C323.047 175.414 316.132 198.676 316.249 202.657C327.038 203.012 337.898 201.154 348.688 201.745C364.487 201.222 380.404 203.285 395.629 202.657C399.157 191.121 401.207 178.767 404.945 166.629C395.132 167.547 381.353 166.52 371.121 166.629Z"/>
	<path fill="#FF5D15" transform="scale(2 2)" d="M410.291 210.709C413.935 210.753 435.955 213.901 437.283 216.191C436.573 218.909 434.911 221.428 433.945 224.089C424.549 249.99 425 287.202 424.998 314.322L425.003 372.997C410.51 376.937 387.505 380.482 372.01 380.313C368.098 378.267 311.621 372.211 301.505 372.997C301.545 347.999 300.403 304.786 294.005 280.79C301.938 280.814 308.498 281.088 316.249 278.772C316.25 281.825 316.774 284.821 317.162 287.841L318.852 301.415C319.711 308.791 320.551 316.22 321.282 323.61C321.512 325.931 321.053 336.402 324.383 336.523C329.049 336.692 326.991 318.446 326.985 314.736C332.273 313.575 337.532 312.318 342.842 311.232C343.345 306.389 342.928 299.477 342.873 294.435L342.833 262.339C342.814 253.302 342.389 243.994 343.656 235.028C345.462 222.244 371.772 222.918 377.676 226.295C387.317 231.808 385.019 247.026 384.845 256.164C384.637 267.088 384.176 294.247 386.997 304.742L387.059 304.969C390.534 303.785 393.91 302.293 397.389 301.157C398.266 277.04 398.52 238.202 410.291 218.428C404.045 217.768 397.359 218.071 391.232 216.787L391.552 216.741C399.302 215.677 404.44 217.344 410.291 210.709ZM366.555 232.123C364.171 232.099 350.905 232.134 349.706 233.447C347.516 235.843 350.343 255.487 350.659 259.003C352.728 282.026 355.085 309.545 352.613 332.034C352.283 335.042 350.776 341.174 351.396 343.858C353.187 343.161 354.525 341.134 355.647 339.663C367.055 324.706 360.148 282.531 358.783 263.896C357.958 252.632 354.97 238.593 366.555 232.123Z"/>
	<path transform="scale(2 2)" d="M342.842 311.232C343.345 306.389 342.928 299.477 342.873 294.435L342.833 262.339C342.814 253.302 342.389 243.994 343.656 235.028C345.462 222.244 371.772 222.918 377.676 226.295C387.317 231.808 385.019 247.026 384.845 256.164C384.637 267.088 384.176 294.247 386.997 304.742L387.059 304.969C386.56 313.461 389.231 331.404 389.965 340.875C390.479 347.507 392.12 353.586 383.931 355.985C375.774 358.375 336.392 363.183 338.384 345.893C338.79 342.363 340.248 338.82 340.929 335.298C342.431 327.529 342.845 319.136 342.842 311.232ZM366.555 232.123C364.171 232.099 350.905 232.134 349.706 233.447C347.516 235.843 350.343 255.487 350.659 259.003C352.728 282.026 355.085 309.545 352.613 332.034C352.283 335.042 350.776 341.174 351.396 343.858C353.187 343.161 354.525 341.134 355.647 339.663C367.055 324.706 360.148 282.531 358.783 263.896C357.958 252.632 354.97 238.593 366.555 232.123Z"/>
	<path fill="#FF5D15" transform="scale(2 2)" d="M366.555 232.123C381.086 228.199 373.549 250.559 373.198 257.151C372.662 267.243 372.538 279.948 372.776 290.178C373.06 302.348 382.436 333.982 376.443 343.651C373.823 347.877 355.343 345.076 351.396 343.858C353.187 343.161 354.525 341.134 355.647 339.663C367.055 324.706 360.148 282.531 358.783 263.896C357.958 252.632 354.97 238.593 366.555 232.123Z"/>
	<path transform="scale(2 2)" d="M414.133 211.939C419.522 218.949 412.441 244.015 411.176 253.094C408.714 270.765 407.734 288.322 407.757 306.15C407.766 313.385 408.213 336.169 404.99 341.37C404.478 342.196 404.11 342.357 403.239 341.904C400.138 337.797 398.089 308.045 397.389 301.157C398.266 277.04 398.52 238.202 410.291 218.428C411.229 215.878 412.178 213.886 414.133 211.939Z"/>
	<path fill="#FF5D15" transform="scale(2 2)" d="M121.946 161.033C122.429 159.723 121.979 157.665 122.005 156.229C122.416 133.106 136.732 129.694 157.57 127.077C166.887 125.908 212.901 123.02 221.215 126.708C224.647 152.579 220.108 196.127 217.506 222.062C216.894 228.161 215.554 234.333 215.171 240.42C196.543 240.726 155.648 240.177 138.002 244.834C134.266 229.578 131.336 214.193 128.194 198.812C126.085 188.488 122.047 171.431 121.946 161.033Z"/>
	<path transform="scale(2 2)" d="M189.327 148.854C208.609 147.488 182.785 172.806 142.473 159.768C140.012 158.905 132.121 156.019 134.203 152.758C136.198 149.632 151.076 152.54 154.708 152.47C166.455 152.241 177.7 149.739 189.327 148.854Z"/>
	<path transform="scale(2 2)" d="M195.432 172.608C202.329 172.065 204.751 176.698 198.443 180.194C186.201 186.977 166.079 188.854 152.473 185.056C144.423 182.466 139.609 175.812 151.004 176.553C168.435 177.686 178.726 174.096 195.432 172.608Z"/>
	<path fill="#FF5D15" transform="scale(2 2)" d="M108.65 286.688C112.899 285.967 117.552 286.178 121.873 285.897C132.267 285.223 239.146 278.708 244.39 282.413C247.059 284.299 244.282 291.645 242.564 293.255C236.85 298.613 182.763 300.02 172.291 301.157C158.206 289.534 123.415 297.956 108.65 286.688Z"/>
	<path fill="#FF5D15" transform="scale(2 2)" d="M284.76 220.108C291.935 216.444 300.918 216.024 308.814 214.993C308.653 216.927 308.715 219.499 307.637 221.175C306.436 222.573 313.221 242.829 313.588 248.079C301.211 242.854 293.854 245.067 283.349 242.322C282.727 235.101 287.055 228.883 284.76 220.108Z"/>
	<path fill="#FF5D15" transform="scale(2 2)" d="M93.419 213.136C95.6024 222.87 73.7917 222.736 88.8134 251.138C85.7617 251.774 82.7107 252.42 79.7361 253.365C78.7556 247.287 76.7482 228.997 75.2565 224.081C79.8871 216.939 84.4437 214.048 93.419 213.136Z"/>
	<path fill="#FF5D15" transform="scale(2 2)" d="M253.501 208.974C258.885 208.831 266.426 210.863 269.742 215.275C273.05 219.677 275.197 235.292 274.453 241.327C273.74 241.735 272.743 241.573 271.938 241.544C270.369 241.422 268.799 241.329 267.229 241.231C266.77 232.03 268.644 220.391 258.764 215.241C256.491 214.055 250.214 212.278 253.501 208.974Z"/>
</svg>
