<?xml version="1.0" encoding="utf-8" ?>
<svg xmlns="http://www.w3.org/2000/svg" xmlns:xlink="http://www.w3.org/1999/xlink" width="1024" height="1024">
	<path transform="scale(2 2)" d="M328.107 106.649C350.504 104.029 370.969 139.108 377.753 156.247C391.709 156.33 402.003 153.473 415.729 159.556C440.685 170.615 441.283 189.208 442.501 212.55C444.197 245.036 444.671 286.533 439.422 318.886C428.608 385.537 353.719 421.427 294.116 392.054C291.166 390.6 288.335 388.869 285.326 387.544L285.051 387.425C248.087 389.506 209.724 396.131 172.44 399.348C159.231 400.971 125.168 404.176 112.968 402.348C95.4814 399.729 80.755 385.093 76.0845 368.413C73.4836 359.125 72.9842 348.98 72.0151 339.404C68.5517 305.177 67 270.202 67.9733 235.786C68.1341 230.1 68.0184 224.236 68.8347 218.6C71.748 198.487 88.0649 183.346 107.242 178.12C107.268 171.105 107.132 160.615 112.496 155.362C122.027 146.026 167.427 142.448 179.009 154.685C183.141 159.05 182.619 164.234 182.464 169.75C186.929 169.748 191.466 169.066 195.912 168.657L219.483 166.457C226.157 150.512 245.12 120.271 259.723 114.034C265.132 111.724 272.176 111.938 277.998 111.414L328.107 106.649ZM189.724 232.109C204.507 225.056 205.086 208.352 191.724 209.292C176.561 213.754 176.218 233.819 189.724 232.109ZM372.355 260.313C350.561 243.174 316.92 246.705 299.838 268.609C281.999 291.484 285.588 328.238 310.63 343.932C345.856 328.411 367.311 297.789 372.355 260.313ZM132.284 387.425C114.2 383.839 104.901 373.288 103.014 354.263C102.339 354.824 95.7925 360.273 95.8461 356.996C95.8882 354.417 100.401 350.007 102.13 348.323C101.633 341.356 101.012 334.037 101.461 327.066C98.5458 328.439 92.3926 333.807 89.3664 333.15L89.1158 332.687C89.7226 328.546 97.6031 322.395 100.839 319.685C99.6952 313.198 100.204 305.92 100.188 299.334C99.2991 299.914 89.0611 307.217 89.5887 303.375C90.0088 300.315 97.6992 293.499 100.188 291.662C99.0627 284.114 99.3414 273.96 99.5407 266.227C98.5235 266.922 88.6299 274.165 88.9998 270.448C89.3344 267.086 96.9545 261.173 99.5407 258.786L99.5407 242.005C98.7891 242.546 89.4831 249.11 90.6446 245.014C91.672 241.391 97.0173 236.341 100.188 234.512C101.955 209.142 117.884 202.742 139.308 200.579L220.787 191.902C225.157 191.438 239.473 191.236 242.69 188.676C247.521 184.832 251.761 168.927 256.456 163.055L256.747 162.695C250.789 161.251 245.659 159.495 239.974 157.994C227.636 176.151 235.553 179.076 212.946 181.079L193.767 182.837C173.835 184.634 153.917 186.523 134.024 188.701C125.464 189.637 116.394 189.593 108.216 192.491C85.3353 200.599 82.3367 216.54 82.2242 237.178C82.0387 271.209 82.739 304.9 86.2031 338.774C87.9856 356.204 87.0609 372.206 103.337 383.32C112.28 389.426 122.068 389.249 132.284 387.425ZM350.821 203.384C340.787 201.285 330.027 199.424 319.798 199.998C294.005 202.652 270.449 212.921 253.824 233.333C227.104 266.141 226.502 310.308 251.579 343.932C249.483 338.407 247.306 332.855 246.037 327.066C232.088 265.392 276.328 204.341 339.995 203.435C343.622 203.384 347.192 203.664 350.821 203.384ZM262.081 149.38C262.427 149.032 262.341 149.178 262.539 148.777C272.801 127.96 274.856 129.908 294.289 127.205C308.94 125.167 319.846 123.293 334.616 122.386L334.832 122.371C329.88 119.646 321.853 121.653 316.273 122.113L277.457 125.506C273.813 125.853 267.935 125.808 264.614 126.773C259.624 128.224 249.928 140.85 247.447 145.69C252.068 147.4 257.211 148.595 262.081 149.38ZM134.007 174.449C133.79 159.65 135.629 163.023 148.254 159.257C143.007 158.988 124.835 158.918 121.247 162.061C119.158 163.89 119.897 173.362 119.947 176.092C124.62 175.449 129.313 174.909 134.007 174.449ZM386.6 180.211C395.614 176.639 408.899 175.106 418.234 178.12C408.352 167.472 395.648 170.097 382.981 170.501C384.216 173.718 385.278 177.036 386.6 180.211ZM296.181 376.383C295.118 373.916 285.757 363.993 283.177 359.809C272.39 342.316 274.136 319.074 274.334 299.334C275.725 271.126 293.404 247.698 319.798 237.531C338.854 224.563 365.071 220.187 386.541 229.774C388.292 230.555 389.9 231.543 391.746 232.109C389.271 229.862 386.348 228.201 383.422 226.613C349.006 207.932 305.408 217.331 279.473 245.97C246.608 282.26 249.92 337.338 286.315 369.957C289.291 372.625 292.457 374.883 296.181 376.383Z"/>
	<path fill="#FF5D15" transform="scale(2 2)" d="M256.747 162.695C261.003 162.223 265.578 163.003 269.848 163.231C300.205 164.853 331.257 159.947 360.446 151.98C366.353 169.181 374.267 189.116 380.986 206.001C341.343 171.466 277.271 185.133 244.664 222.599C205.024 268.146 212.578 341.229 264.374 373.988C243.555 377.326 217.515 380.511 196.524 382.186C196.602 375.91 196.056 369.717 195.984 363.461C195.82 349.257 195.448 259.345 193.692 255.807L193.28 255.725C188.027 261.018 183.441 334.603 183.203 343.96C182.862 357.381 183.172 370.891 183.177 384.321C168.687 383.465 144.974 390.127 132.284 387.425C114.2 383.839 104.901 373.288 103.014 354.263C102.339 354.824 95.7925 360.273 95.8461 356.996C95.8882 354.417 100.401 350.007 102.13 348.323C101.633 341.356 101.012 334.037 101.461 327.066C98.5458 328.439 92.3926 333.807 89.3664 333.15L89.1158 332.687C89.7226 328.546 97.6031 322.395 100.839 319.685C99.6952 313.198 100.204 305.92 100.188 299.334C99.2991 299.914 89.0611 307.217 89.5887 303.375C90.0088 300.315 97.6992 293.499 100.188 291.662C99.0627 284.114 99.3414 273.96 99.5407 266.227C98.5235 266.922 88.6299 274.165 88.9998 270.448C89.3344 267.086 96.9545 261.173 99.5407 258.786L99.5407 242.005C98.7891 242.546 89.4831 249.11 90.6446 245.014C91.672 241.391 97.0173 236.341 100.188 234.512C101.955 209.142 117.884 202.742 139.308 200.579L220.787 191.902C225.157 191.438 239.473 191.236 242.69 188.676C247.521 184.832 251.761 168.927 256.456 163.055L256.747 162.695ZM189.724 232.109C204.507 225.056 205.086 208.352 191.724 209.292C176.561 213.754 176.218 233.819 189.724 232.109Z"/>
	<path transform="scale(2 2)" d="M99.5407 258.786C108.273 252.567 116.936 243.967 127.566 241.204C122.856 252.296 106.802 257.987 99.5407 266.227C98.5235 266.922 88.6299 274.165 88.9998 270.448C89.3344 267.086 96.9545 261.173 99.5407 258.786Z"/>
	<path transform="scale(2 2)" d="M100.188 291.662C108.686 284.387 115.63 276.244 126.535 272.406C118.843 285.112 105.548 291.38 100.188 299.334C99.2991 299.914 89.0611 307.217 89.5887 303.375C90.0088 300.315 97.6992 293.499 100.188 291.662Z"/>
	<path transform="scale(2 2)" d="M100.839 319.685C106.945 315.01 112.678 311.036 119.947 308.317C115.677 317.346 106.521 320.191 101.461 327.066C98.5458 328.439 92.3926 333.807 89.3664 333.15L89.1158 332.687C89.7226 328.546 97.6031 322.395 100.839 319.685Z"/>
	<path transform="scale(2 2)" d="M100.188 234.512C104.917 230.481 109.561 228.048 115.673 226.849C111 232.934 105.498 237.31 99.5407 242.005C98.7891 242.546 89.4831 249.11 90.6446 245.014C91.672 241.391 97.0173 236.341 100.188 234.512Z"/>
	<path transform="scale(2 2)" d="M102.13 348.323C106.764 344.019 110.384 341.317 116.673 339.94C113.148 345.306 107.774 349.986 103.014 354.263C102.339 354.824 95.7925 360.273 95.8461 356.996C95.8882 354.417 100.401 350.007 102.13 348.323Z"/>
	<path transform="scale(2 2)" d="M184.779 198.093C210.208 194.978 219.05 235.229 189.724 238.435C160.151 239.029 157.411 201.462 184.779 198.093ZM189.724 232.109C204.507 225.056 205.086 208.352 191.724 209.292C176.561 213.754 176.218 233.819 189.724 232.109Z"/>
	<path transform="scale(2 2)" d="M319.798 237.531C338.854 224.563 365.071 220.187 386.541 229.774C388.292 230.555 389.9 231.543 391.746 232.109C399.416 235.476 409.306 247.816 413.663 255.005C428.182 278.962 430.281 310.499 419.014 336.119C398.709 382.292 345.74 399.129 300.757 378.876C299.201 378.176 297.56 377.403 296.181 376.383C295.118 373.916 285.757 363.993 283.177 359.809C272.39 342.316 274.136 319.074 274.334 299.334C275.725 271.126 293.404 247.698 319.798 237.531ZM372.355 260.313C350.561 243.174 316.92 246.705 299.838 268.609C281.999 291.484 285.588 328.238 310.63 343.932C345.856 328.411 367.311 297.789 372.355 260.313Z"/>
	<path fill="#FF5D15" transform="scale(2 2)" d="M319.798 237.531C338.854 224.563 365.071 220.187 386.541 229.774C388.292 230.555 389.9 231.543 391.746 232.109C399.416 235.476 409.306 247.816 413.663 255.005C428.182 278.962 430.281 310.499 419.014 336.119C398.709 382.292 345.74 399.129 300.757 378.876C299.201 378.176 297.56 377.403 296.181 376.383C295.118 373.916 285.757 363.993 283.177 359.809C272.39 342.316 274.136 319.074 274.334 299.334C274.488 301.703 274.359 304.11 274.48 306.487C276.275 341.648 308.191 370.075 343.258 368.18C379.476 366.223 408.299 334.019 406.127 297.737C403.732 257.715 366.681 226.152 326.895 235.85C324.537 236.425 322.255 237.464 319.798 237.531Z"/>
	<path fill="#FF5D15" transform="scale(2 2)" d="M372.355 260.313C407.254 285.78 392.387 346.685 347.35 353.313C336.403 354.925 318.754 352.164 310.63 343.932C345.856 328.411 367.311 297.789 372.355 260.313Z"/>
	<path fill="#FF5D15" transform="scale(2 2)" d="M386.6 180.211C395.614 176.639 408.899 175.106 418.234 178.12C429.238 184.717 427.749 201.129 428.212 211.988C428.81 226.056 429.442 239.882 429.203 253.982C418.933 234.871 411.678 230.011 396.854 217.014C396.817 206.139 390.91 190.644 386.6 180.211Z"/>
	<path fill="#FF5D15" transform="scale(2 2)" d="M334.832 122.371C340.862 125.271 349.054 134.193 352.479 140.098C334.601 145.46 307.109 148.865 288.99 149.365C280.052 149.611 270.985 148.822 262.081 149.38C262.427 149.032 262.341 149.178 262.539 148.777C272.801 127.96 274.856 129.908 294.289 127.205C308.94 125.167 319.846 123.293 334.616 122.386L334.832 122.371Z"/>
	<path fill="#FF5D15" transform="scale(2 2)" d="M148.254 159.257C154.837 159.253 163.763 159.233 168.825 164.136C168.806 166.567 168.796 168.995 168.825 171.426C157.229 171.753 145.592 173.634 134.007 174.449C133.79 159.65 135.629 163.023 148.254 159.257Z"/>
</svg>
