<?xml version="1.0" encoding="utf-8" ?>
<svg xmlns="http://www.w3.org/2000/svg" xmlns:xlink="http://www.w3.org/1999/xlink" width="1024" height="1024">
	<path transform="scale(2 2)" d="M155.647 122.251C158.945 122.136 162.291 122.77 165.582 123.033L188.128 124.98C229.564 128.609 271.4 129.44 312.821 125.138C316.378 124.769 323.243 122.407 325.986 125.753C333.423 134.826 332.488 183.153 331.633 194.363C351.408 195.982 393.307 189.829 406.817 199.868C424.675 213.137 418.884 232.323 421.248 248.492C424.224 248.843 427.256 248.548 430.246 248.525L448.628 248.422C452.559 248.424 457.57 247.627 460.944 250.2C468.226 255.754 467.209 277.401 467.409 286.821C467.582 294.945 469.14 307.027 458.898 309.957C448.452 312.946 427.319 309.221 414.817 310.602C408.073 324.381 401.105 348.841 382.983 350.393C377.841 350.834 372.224 349.912 367.036 349.743L333.381 348.466C327.639 348.285 321.388 347.525 315.867 349.341C299.032 354.878 295.344 361.304 288.403 374.862L288.236 375.185C283.919 379.238 279.223 377.744 273.774 377.424L248.686 375.969C244.297 375.732 235.978 374.679 231.859 375.758C226.129 377.258 223.303 385.308 217.487 387.911C212.957 389.939 200.952 388.909 195.619 388.974C154.944 389.471 114.137 388.395 73.8396 382.444C68.8643 381.709 46.4598 379.472 44.2857 374.657L44.5255 374.212C48.0835 372.47 52.9708 374.475 56.7293 373.648C58.1361 370.766 60.3171 369.618 62.7608 367.629C77.9856 355.237 87.8512 330.191 93.5053 311.27C79.5263 309.156 58.456 313.652 51.4731 299.272C47.9104 291.935 45.1715 274.134 44.4636 265.731C42.845 246.519 52.5301 245.768 68.7375 246.113C75.0926 246.249 81.6989 246.594 88.028 246.151C91.8608 242.2 94.9427 237.497 98.4264 233.234C107.295 222.384 128.286 199.026 139.85 192.617C146.588 188.883 154.28 189.226 161.742 189.25C160.548 173.193 157.869 156.764 153.885 141.159C152.262 134.804 146.848 125.461 155.647 122.251ZM62.5468 372.163C69.4461 370.801 77.9493 372.115 85.0215 372.455L152.682 375.516C156.669 375.673 161.077 376.131 165.028 375.632C173.729 376.735 202.939 377.784 212.461 376.479C251.159 343.262 228.92 291.463 263.442 266.065C230.994 262.954 194.32 262.1 161.742 262.872C150.006 262.986 138.245 263.395 126.513 263.301C104.066 275.842 105.926 285.848 100.795 307.248C94.9098 331.794 84.5026 357.751 62.5468 372.163ZM313.304 224.392C319.386 202.85 323.188 161.006 316.377 138.703C312.298 138.248 308.435 138.845 304.378 139.228C265.61 142.885 226.763 141.4 188.04 138.11C180.647 137.482 173.232 136.369 165.807 136.232C173.933 169.908 175.105 193.154 175.523 226.6C184.349 227.27 195.536 226.264 204.516 225.812C237.391 224.16 262.064 229.207 293.434 232.088C299.316 232.629 305.164 232.011 311.018 232.368C311.725 229.689 312.48 227.038 313.304 224.392ZM335.798 232.368C330.44 247.164 297.559 245.02 285.871 243.336C251.921 238.443 226.268 237.543 192.188 238.688C172.99 239.333 164.481 241.731 146.832 232.368C151.29 250.155 191.275 245.846 203.741 245.477C222.883 244.909 242.479 245.217 261.504 247.19L288.679 250.001C303.856 251.462 327.637 253.48 336.483 238.072C337.874 235.649 337.873 234.224 335.798 232.368ZM350.817 287.292L350.983 287.574C357.526 298.939 362.582 334.506 377.723 338.426C379.489 338.884 381.439 338.778 383.25 338.708C373.033 323.991 359.986 303.375 361.6 284.903C363.229 266.261 396.044 228.204 409.481 216.822C407.79 213.902 405.996 211.129 403.879 208.495C381.848 232.043 362.023 256.343 350.817 287.292ZM80.914 256.419C73.1205 257.442 58.2882 252.829 55.0149 260.693C55.8134 267.902 59.2701 293.612 64.1453 297.622C65.5886 298.809 68.5282 299.036 70.3132 299.375C71.103 295.375 58.161 271.03 64.8817 263.897C67.924 260.669 74.055 261.717 78.1022 261.637L80.914 256.419ZM159.01 220.379C157.184 220.711 155.969 221.912 154.683 223.17C156.021 224.363 157.431 225.351 159.01 226.203C160.158 226.392 161.271 226.563 162.437 226.6C162.35 224.511 162.304 222.467 162.437 220.379C161.305 220.377 160.138 220.314 159.01 220.379ZM91.9811 295.827C92.9719 297.588 94.1803 298.349 95.8463 299.375C96.1121 294.456 97.1905 287.961 98.9892 283.359C99.345 282.449 100.834 279.793 100.443 278.966L99.9639 279.015C96.0413 279.048 91.9268 279.379 88.028 279.015C87.9536 284.683 89.6229 290.69 91.9811 295.827ZM442.237 258.476L441.757 258.513C425.99 259.645 407.49 255.746 392.565 258.011C383.133 259.442 382.495 264.218 383.493 272.982C384.321 280.25 386.949 292.951 391.504 298.635L397.759 298.635C393.579 289.745 389.154 278.59 392.169 268.685C397.237 263.232 407.307 265.245 413.991 265.244L439.859 265.253C440.525 262.961 441.226 260.643 442.237 258.476ZM95.8463 272.5C95.3808 264.156 100.456 260.026 105.219 253.745C115.773 239.831 126.692 226.099 138.901 213.586C148.146 204.11 149.089 203.395 162.437 203.231C162.308 200.723 162.35 198.257 162.437 195.75C141.186 195.154 143.116 197.19 129.075 212.266C116.163 226.128 104.816 239.811 93.7416 255.191C88.5087 262.458 86.1103 263.184 86.523 272.5L95.8463 272.5ZM331.633 198.248C330.418 202.053 330.23 206.144 329.31 210.036C332.05 211.009 335.658 210.079 338.522 210.044C345.139 209.964 384.525 208.934 389.163 210.736C391.707 208.39 394.091 205.822 396.383 203.231C379.111 199.982 349.67 198.235 331.633 198.248Z"/>
	<path transform="scale(2 2)" d="M239.708 178.001C259.605 178.001 279.238 178.656 299.063 180.45C285.964 182.694 268.851 183.332 255.328 183.249C247.693 183.609 199.401 182.709 196.334 180.553L196.562 180.218C203.303 177.673 230.975 177.772 239.708 178.001Z"/>
	<path transform="scale(2 2)" d="M207.698 161.929C224.07 161.748 240.643 161.474 257.009 161.964C269.252 162.33 285.1 162.44 296.54 164.545C291.078 165.101 285.664 165.701 280.186 166.125C262.998 167.232 204.407 168.258 191.779 163.207C196.828 161.923 202.518 162.1 207.698 161.929Z"/>
	<path transform="scale(2 2)" d="M232.691 194.363C253.149 193.954 275.038 194.239 295.302 197.247C285.435 199.216 275.049 198.364 265.102 199.721C255.271 199.031 244.508 199.889 234.544 199.724C223.748 199.546 212.974 198.175 202.236 197.247C211.983 194.547 222.626 194.666 232.691 194.363Z"/>
	<path fill="#FE5D15" transform="scale(2 2)" d="M162.437 203.231L162.437 213.989C155.291 212.679 145.608 215.923 144.356 223.77C143.787 227.333 146.239 229.232 146.832 232.368C151.29 250.155 191.275 245.846 203.741 245.477C222.883 244.909 242.479 245.217 261.504 247.19L288.679 250.001C303.856 251.462 327.637 253.48 336.483 238.072C337.874 235.649 337.873 234.224 335.798 232.368C335.947 225.238 331.251 223.015 325.433 226.203C326.85 220.829 328.22 215.488 329.31 210.036C332.05 211.009 335.658 210.079 338.522 210.044C345.139 209.964 384.525 208.934 389.163 210.736C373.649 227.334 360.7 245.782 350.492 266.05C341.821 283.267 341.595 280.801 323.999 279.95L305.02 279.12C299.44 278.846 293.824 278.438 288.236 278.525C288.319 261.73 284.985 260.771 269.314 259.872L216.881 257.041C204.223 256.473 192.556 256.411 179.847 256.409C168.344 256.406 133.704 255.019 123.866 257.518C116.559 259.374 108.29 266.208 103.914 272.5C101.226 272.513 98.5329 272.564 95.8463 272.5C95.3808 264.156 100.456 260.026 105.219 253.745C115.773 239.831 126.692 226.099 138.901 213.586C148.146 204.11 149.089 203.395 162.437 203.231Z"/>
	<path fill="#FE5D15" transform="scale(2 2)" d="M383.25 338.708C373.033 323.991 359.986 303.375 361.6 284.903C363.229 266.261 396.044 228.204 409.481 216.822C416.663 229.841 412.839 236.928 414.236 249.087C404.691 249.007 387.599 248.895 380.543 255.864C371.925 264.374 377.742 297.808 384.056 304.198C388.124 308.315 398.265 307.637 403.879 308.186C399.984 317.209 394.292 336.336 383.25 338.708Z"/>
	<path fill="#FE5D15" transform="scale(2 2)" d="M257.021 283.556C273.134 284.024 289.277 285.212 305.375 286.078L324.129 287.046C343.185 287.972 344.521 287.657 347.897 309.207C345.447 309.087 343.006 308.907 340.562 308.714C311.229 309.115 278.658 305.286 248.774 304.499C249.991 297.481 252.553 289.13 257.021 283.556Z"/>
	<path fill="#FE5D15" transform="scale(2 2)" d="M246.497 317.078C252.377 316.999 258.282 317.472 264.152 317.787L287.926 318.963C309.597 320.004 331.363 320.668 353.001 322.212C355.252 328.143 358.975 333.804 362.577 338.978L362.469 339.304L361.563 339.229C352.393 339.054 343.151 338.146 333.981 337.706L244.906 332.933C245.226 327.68 245.524 322.256 246.497 317.078Z"/>
	<path fill="#FE5D15" transform="scale(2 2)" d="M392.169 268.685C397.237 263.232 407.307 265.245 413.991 265.244L439.859 265.253C438.231 277.73 439.292 287.062 441.41 299.375L418.325 299.381C411.541 299.376 404.491 299.467 397.759 298.635C393.579 289.745 389.154 278.59 392.169 268.685Z"/>
	<path fill="#FE5D15" transform="scale(2 2)" d="M242.622 343.272C260.064 343.953 280.443 346.701 297.536 346.089C291.347 350.38 284.19 355.544 281.189 362.711C279.295 362.796 277.428 362.904 275.538 362.711C277.649 357.692 281.248 352.959 284.183 348.375C276.454 350.888 270.764 354.73 265.945 361.214L265.102 362.711C262.408 362.679 259.715 362.698 257.021 362.711C261.224 357.055 265.927 351.501 270.44 346.089C262.201 349.937 251.59 352.835 248.774 362.711C246.729 362.634 244.669 362.697 242.622 362.711C244.674 356.12 250.143 349.814 255.328 345.431C249.001 347.037 244.325 348.582 239.708 353.374C240.754 350.029 241.675 346.646 242.622 343.272Z"/>
	<path fill="#FE5D15" transform="scale(2 2)" d="M70.3132 299.375C71.103 295.375 58.161 271.03 64.8817 263.897C67.924 260.669 74.055 261.717 78.1022 261.637C74.7875 271.691 79.5929 290.116 83.3449 299.779C79.0171 299.496 74.6508 299.18 70.3132 299.375Z"/>
	<path fill="#FE5D15" transform="scale(2 2)" d="M452.305 262.872L456.079 262.872C455.457 272.862 456.918 286.476 456.903 297.332L453.688 297.332C448.294 297.301 448.527 264.824 452.305 262.872Z"/>
	<path fill="#FE5D15" transform="scale(2 2)" d="M273.792 268.685C280.01 267.182 282.085 272.065 281.189 277.405C277.168 277.713 273.211 277.539 269.188 277.405C266.404 277.284 263.653 277.325 260.87 277.405L261.148 277.033C264.417 272.681 268.266 269.472 273.792 268.685Z"/>
</svg>
