<?xml version="1.0" encoding="utf-8" ?>
<svg xmlns="http://www.w3.org/2000/svg" xmlns:xlink="http://www.w3.org/1999/xlink" width="1024" height="1024">
	<path transform="scale(2 2)" d="M207.944 69.5819C211.268 69.242 217.216 73.7093 220.311 75.2021C239.646 84.5293 266.482 84.7501 285.829 75.3248C299.366 68.7299 302.837 66.084 315.369 79.6112C323.216 88.0804 327.739 86.7937 338.782 89.0434C367.179 94.8284 380.931 101.849 396.757 128.119C418.723 164.583 438.208 239.393 447.634 283.116C455.534 319.762 459.799 356.883 465.857 393.815C467.225 402.151 470.685 411.734 461.287 416.955C453.654 421.195 427.068 426.084 418.589 423.452C411.394 421.219 410.357 407.465 408.89 401.393L401.772 372.827C393.222 338.851 384.063 307.212 371.375 274.528C368.306 266.621 365.637 258.386 361.75 250.839C361.743 303.207 361.785 352.781 370.077 404.651C373.112 423.637 338.693 428.597 323.808 430.9C319.883 432.116 315.143 432.347 311.038 432.944C288.89 436.161 266.206 438.599 243.79 438.436C222.523 438.281 160.32 434.698 145.37 421.486C136.23 413.408 140.161 390.738 141.229 380.097L144.096 352.152C147.191 323.147 149.091 296.479 147.194 267.272C143.466 274.285 140.921 282.157 137.926 289.521C125.347 320.453 112.089 354.511 107.456 387.855C103.892 413.506 112.083 426.132 78.6236 425.384C41.8327 424.561 41.0885 419.987 47.286 381.432C56.0169 327.117 70.4875 273.628 84.719 220.549L94.4595 184.78C107.738 137.552 118.218 110.751 167.019 93.566C173.049 91.4423 179.864 89.5027 185.383 86.2909C193.527 81.5518 197.201 71.0491 207.944 69.5819ZM133.153 128.948C157.422 148.307 159.067 184.39 158.187 213.097C157.579 232.918 158.617 248.244 159.594 267.996C161.481 306.149 159.353 338.844 153.93 376.467C152.884 383.723 147.943 404.152 151.508 410.779C153.179 413.885 157.103 415.415 160.272 416.386C197.57 430.241 272.759 424.484 310.515 418.343C327.089 415.647 343.444 412.699 358.101 404.146C348.215 358.302 346.635 299.381 348.135 251.586C349.418 210.724 354.886 184.78 370.752 147.171C373.759 140.043 377.291 133.122 380.033 125.882C370.47 108.714 361.039 110.748 344.642 105.874C336.489 103.45 328.565 100.273 320.327 98.1138C314.377 114.232 301.014 126.286 285.654 133.419C264.828 143.091 242.971 140.306 222.12 132.54C204.353 125.923 195.869 115.472 187.868 99.406C166.408 110.444 153.535 106.646 133.153 128.948ZM59.8035 383.63C63.8574 384.425 68.0474 384.344 72.0501 385.37C73.1929 379.01 73.7381 372.555 74.7966 366.177C81.6648 324.797 89.1659 283.335 98.7164 242.482C105.9 211.754 115.379 173.776 134.285 147.713C131.893 144.16 129.378 141.083 126.135 138.276C111.677 156.273 100.62 199.948 94.815 222.823L86.0853 257.923C76.0207 299.658 66.3773 341.153 59.8035 383.63ZM196.059 93.8467C198.199 98.7235 200.373 103.297 203.45 107.678C206.21 103.492 206.985 98.1655 209.683 93.8467C208.752 90.8383 207.356 87.6967 205.73 85.0036C202.387 87.7804 199.071 90.7122 196.059 93.8467ZM287.287 89.2752C265.411 96.5479 242.562 98.1883 220.65 89.2752C222.369 91.2125 224.045 93.2524 225.867 95.0917C228.956 96.1832 231.571 98.2411 234.617 99.4185C250.837 105.686 277.27 106.155 287.844 89.4766C287.532 89.1959 287.717 89.2666 287.287 89.2752ZM57.9569 395.701C57.3223 400.122 55.7116 405.587 57.9569 409.668C61.3187 412.383 65.1155 412.302 69.2103 412.508C69.7647 407.342 70.4205 402.199 71.1155 397.051C66.8683 396.959 62.1136 396.556 57.9569 395.701Z"/>
	<path transform="scale(2 2)" d="M161.482 239.383C163.2 240.578 164.033 243.552 164.892 245.39C181.077 280.033 185.753 333.975 180.248 371.311C179.569 375.919 179.193 382.151 176.363 385.983C173.33 388.271 168.535 387.602 167.683 383.494C167.161 380.978 168.403 375.868 168.772 373.192C175.509 324.293 171.123 286.639 161.482 239.383Z"/>
	<path transform="scale(2 2)" d="M340.736 244.182L342.24 244.304C344.072 245.664 338.333 269.589 337.594 273.927C332.263 305.23 330.251 338.036 333.209 369.749C333.516 373.047 337.371 391.738 327.419 385.37C314.484 373.661 324.88 300.773 328.037 285.497C330.184 275.111 336.012 252.721 340.736 244.182Z"/>
	<path fill="#FF5D15" transform="scale(2 2)" d="M386.632 139.643C391.299 142.623 404.175 179.034 406.748 186.138C427.63 243.78 437.317 298.515 447.702 358.433C448.783 364.671 449.387 371.574 451.34 377.577C444.007 381.523 436.287 384.108 428.061 385.37C424.325 385.352 420.601 385.545 416.865 385.37C416.499 382.318 415.469 379.22 414.68 376.252L411.033 362.173C400.352 320.109 388.354 283.77 371.501 244.149C365.781 230.7 362.781 224.883 364.57 209.718C366.731 191.407 377.476 155.425 386.632 139.643Z"/>
	<path fill="#FF5D15" transform="scale(2 2)" d="M134.285 147.713C150.97 173.481 142.117 206.216 147.194 234.906C128.547 256.397 110.417 324.165 102.425 356.531C100.012 366.305 98.1523 376.256 95.5769 385.983C87.7644 386.539 79.8939 385.156 72.0501 385.37C73.1929 379.01 73.7381 372.555 74.7966 366.177C81.6648 324.797 89.1659 283.335 98.7164 242.482C105.9 211.754 115.379 173.776 134.285 147.713Z"/>
	<path fill="#FF5D15" transform="scale(2 2)" d="M301.407 85.0036C304.89 86.958 307.394 89.7734 310.085 92.6681C302.374 109.458 292.397 118.588 274.513 125.229C252.647 133.35 217.371 128.764 203.45 107.678C206.21 103.492 206.985 98.1655 209.683 93.8467C212.043 96.8678 214.234 100.067 216.92 102.811C241.229 127.64 288.892 119.351 301.407 85.0036Z"/>
	<path fill="#FF5D15" transform="scale(2 2)" d="M452.748 389.957L452.914 390.001C453.632 390.948 455.592 403.454 456.004 405.534C451.492 407.319 428.419 413.599 424.232 411.809C422.754 406.924 421.451 401.972 420.096 397.051C431.727 397.696 442.533 395.643 452.748 389.957Z"/>
	<path fill="#FF5D15" transform="scale(2 2)" d="M71.1155 397.051C78.6432 398.072 86.2202 398.287 93.8088 398.25C93.1053 420.111 89.4423 411.319 69.2103 412.508C69.7647 407.342 70.4205 402.199 71.1155 397.051Z"/>
</svg>
