<?xml version="1.0" encoding="utf-8" ?>
<svg xmlns="http://www.w3.org/2000/svg" xmlns:xlink="http://www.w3.org/1999/xlink" width="1024" height="1024">
	<path transform="scale(2 2)" d="M89.5116 251.743C74.9399 246.832 63.8629 232.062 61.968 217.014C60.2908 203.696 60.2768 202.878 67.5271 193.373L106.643 141.442C110.631 136.209 114.897 131.133 118.783 125.834C121.994 121.457 121.884 116.464 126.01 112.23C131.816 106.27 138.744 105.998 146.482 105.727C186.321 104.329 226.222 103.096 266.088 102.757C293.228 103.737 321.374 102.658 348.778 103.235C362.222 103.518 377.383 99.9746 386.631 112.388C389.862 116.724 389.921 121.102 392.538 125.046C394.853 128.536 397.869 131.803 400.461 135.11L442.351 188.703C449.407 197.852 450.453 195.072 450.514 207.541C450.617 228.853 440.542 248.507 417.889 252.624C417.716 257.946 418.238 263.365 418.531 268.682L420.03 295.872C421.506 323.561 421.266 350.173 421.982 377.606C422.324 390.695 422.237 406.317 404.327 408.57C400.786 409.015 393.788 408.491 389.713 408.492L288.612 408.501C276.064 408.509 262.606 409.207 250.188 407.793C247.213 408.239 239.655 407.806 236.21 407.799L123.264 407.785C114.287 407.797 103.837 408.835 97.2455 401.327C89.2254 392.19 91.5336 376.024 91.1696 364.779C90.4367 342.141 90.2037 319.625 90.0947 296.984C90.0252 282.54 88.5841 265.958 89.5116 251.743ZM379.676 123.627C373.136 115.571 352.397 118.332 341.737 118.063C283.905 116.601 226.049 118.488 168.217 117.594C161.018 117.483 137.944 114.744 133.519 118.523C129.128 122.272 130.235 125.29 127.73 129.305C126.009 132.063 121.994 136.599 119.851 139.351C105.255 158.091 88.5655 178.709 75.2788 198.369C79.0502 198.786 82.9015 198.393 86.693 198.377L103.695 198.399C108.064 198.371 112.436 198.192 116.803 198.369L136.196 198.369C138.146 193.667 139.095 188.572 140.344 183.649L150.986 142.894C151.924 139.301 153.233 135.488 153.678 131.806C155.708 124.705 161.512 122.574 163.527 130.115C158.807 151.9 152.018 175.714 146.259 197.467C158.039 197.706 180.747 198.509 192 196.885L213.12 196.885L213.722 150.489C213.762 144.594 214.352 138.484 213.991 132.621C214.151 128.125 214.184 126.059 218.683 124.643C224.058 126.38 222.644 130.163 222.58 134.603L222.48 178.399C222.478 184.333 222.267 190.346 222.493 196.271C232.619 197.475 259.057 196.692 269.481 196.01C276.291 196.317 283.147 195.585 289.953 196.01C289.526 191.462 288.736 186.922 288.065 182.404L283.652 154.146C282.576 147.246 281.963 138.334 280.2 131.806C280.36 126.714 284.257 122.779 287.883 126.774C290.071 129.185 290.05 135.836 290.497 138.899L296.721 179.428C297.515 184.94 298.417 190.467 298.949 196.01C313.95 194.68 329.133 195.243 344.183 195.25L366.174 195.25C364.686 189.336 361.843 183.437 359.695 177.719L346.425 142.013C345.118 138.456 342.161 132.599 342.116 129.049C342.403 127.668 342.799 126.708 344.015 125.901C350.355 121.692 352.801 133.713 354.195 137.456L368.772 176.538C371.044 182.543 373.589 188.562 375.316 194.75L416.764 194.75C422.935 194.924 429.162 194.751 435.34 194.75C433.159 191.1 430.346 187.774 427.729 184.431L379.676 123.627ZM348.694 204.039C332.53 203.984 316.397 204.764 300.25 204.743C300.202 223.547 304.814 232.248 319.861 242.288C332.058 247.818 346.244 245.337 355.757 235.845C365.219 226.404 366.169 216.73 366.174 204.039L348.694 204.039ZM421.981 204.039C406.435 203.868 390.866 204.043 375.316 204.039C375.337 223.112 380.761 232.535 396.324 242.288C422.172 252.611 444.159 230.713 441.728 204.039L421.981 204.039ZM270.831 205.347C266.454 205.05 262.073 205.334 257.692 205.344L235.197 205.363C230.984 205.396 226.679 205.87 222.493 205.347C221.768 221.407 230.982 236.802 246.339 242.288C257.344 247.008 272.465 243.382 280.65 235.039C289.04 226.487 291.285 216.33 291.232 204.743C284.569 204.718 277.397 204.173 270.831 205.347ZM194.221 206.004C180.767 206.676 158.405 207.569 145.358 206.454C145.527 222.76 152.906 235.129 167.359 242.288C179.394 247.713 193.207 244.795 202.648 235.697C211.574 227.093 212.891 217.159 213.12 205.347C206.837 206.104 200.537 206.002 194.221 206.004ZM119.686 207.214C103.869 207.362 86.4315 208.553 70.7493 207.737C70.5824 224.558 77.5881 237.483 94.1941 243.818C119.582 252.925 136.43 231.638 136.196 207.214C130.807 206.767 125.114 207.197 119.686 207.214ZM218.683 228.998C217.047 231.685 215.471 234.483 213.594 237.009C193.331 264.282 158.523 257.268 141.683 230.35C132.037 249.8 118.56 254.503 98.4984 254.567C98.3866 268.893 99.4002 283.123 100.179 297.415C101.677 324.881 103.101 352.386 105.24 379.813C106.526 396.298 106.694 394.545 122.607 394.514L262.422 394.507C270.853 394.507 279.326 394.705 287.75 394.498C287.819 385.5 287.057 376.423 286.666 367.432L284.631 320.779C284.037 308.749 280.627 289.617 289.216 281.091C295.228 275.123 303.292 276.021 311.062 275.422C325.227 276.994 349.665 270.6 358.528 281.765C365.08 290.019 362.731 311.524 363.022 323.118L364.135 379.651C364.22 384.765 364.494 389.858 364.088 394.966L388.766 394.975C409.121 394.979 408.41 394.904 408.394 376.147L408.384 286.42C408.382 275.448 407.548 264.157 408.38 253.246C392.032 253.793 378.448 242.548 370.841 228.998C355.084 263.581 308.148 260.985 295.76 228.998C294.519 231.291 293.33 233.696 291.843 235.839C273.049 262.933 234.193 257.091 218.683 228.998ZM335.952 284.781C328.672 284.132 300.131 283.736 295.929 287.369C290.631 291.949 293.416 308.066 293.721 315.422L296.26 370.778C296.558 377.362 297.626 388.374 296.897 394.498C301.615 394.593 306.343 394.517 311.062 394.498L354.629 394.498C355.319 388.199 354.716 381.398 354.639 375.058L353.628 320.781C353.516 312.248 353.931 301.539 353.248 293.321C352.436 283.566 343.834 283.679 335.952 284.781Z"/>
	<path fill="#FF5D15" transform="scale(2 2)" d="M379.676 123.627L427.729 184.431C430.346 187.774 433.159 191.1 435.34 194.75C429.162 194.751 422.935 194.924 416.764 194.75C415.269 189.554 387.461 149.366 383.145 142.573C380.337 138.155 376.708 133.821 374.59 129.049C375.121 127.199 375.497 126.012 376.941 124.643C377.824 124.218 378.747 123.931 379.676 123.627Z"/>
	<path fill="#FF5D15" transform="scale(2 2)" d="M205.168 126.44C208.835 127.61 211.509 129.736 213.991 132.621C214.352 138.484 213.762 144.594 213.722 150.489L213.12 196.885L192 196.885C194.403 183.082 197.823 134.804 200.333 129.553C201.205 127.728 203.378 126.997 205.168 126.44Z"/>
	<path fill="#FF5D15" transform="scale(2 2)" d="M116.803 198.369C115.125 190.393 132.607 153.577 136.361 144.772C138.885 138.852 146.079 117.407 153.678 131.806C153.233 135.488 151.924 139.301 150.986 142.894L140.344 183.649C139.095 188.572 138.146 193.667 136.196 198.369L116.803 198.369Z"/>
	<path fill="#FF5D15" transform="scale(2 2)" d="M328.795 127.288C333.419 126.955 337.45 128.835 341.755 130.267L342.031 130.105L342.116 129.049C342.161 132.599 345.118 138.456 346.425 142.013L359.695 177.719C361.843 183.437 364.686 189.336 366.174 195.25L344.183 195.25C343.882 191.799 342.234 188.029 341.313 184.658C337.515 170.754 333.788 156.824 329.815 142.969C328.27 137.578 323.722 131.258 328.795 127.288Z"/>
	<path fill="#FF5D15" transform="scale(2 2)" d="M269.481 196.01C269.7 183.457 267.991 165.359 266.978 152.507C266.526 146.776 265.6 140.738 265.794 135.011C266.123 125.289 275.223 125.853 280.2 131.806C281.963 138.334 282.576 147.246 283.652 154.146L288.065 182.404C288.736 186.922 289.526 191.462 289.953 196.01C283.147 195.585 276.291 196.317 269.481 196.01Z"/>
	<path fill="#FF5D15" transform="scale(2 2)" d="M348.694 204.039L366.174 204.039C366.169 216.73 365.219 226.404 355.757 235.845C346.244 245.337 332.058 247.818 319.861 242.288C336.925 233.671 349.428 225.758 348.694 204.039Z"/>
	<path fill="#FF5D15" transform="scale(2 2)" d="M421.981 204.039L441.728 204.039C444.159 230.713 422.172 252.611 396.324 242.288C410.052 235.117 427.681 222.104 421.981 204.039Z"/>
	<path fill="#FF5D15" transform="scale(2 2)" d="M270.831 205.347C277.397 204.173 284.569 204.718 291.232 204.743C291.285 216.33 289.04 226.487 280.65 235.039C272.465 243.382 257.344 247.008 246.339 242.288C256.632 238.137 265.977 228.178 269.504 217.714C270.294 215.371 272.672 207.633 271.567 205.409L270.831 205.347Z"/>
	<path fill="#FF5D15" transform="scale(2 2)" d="M194.221 206.004C200.537 206.002 206.837 206.104 213.12 205.347C212.891 217.159 211.574 227.093 202.648 235.697C193.207 244.795 179.394 247.713 167.359 242.288C180.849 232.53 193.848 226.496 194.221 206.004Z"/>
	<path fill="#FF5D15" transform="scale(2 2)" d="M119.686 207.214C125.114 207.197 130.807 206.767 136.196 207.214C136.43 231.638 119.582 252.925 94.1941 243.818C108.678 232.625 116.11 226.418 119.686 207.214Z"/>
	<path transform="scale(2 2)" d="M213.991 358.88C205.375 358.87 142.438 360.054 140.29 359.075C139.254 358.603 138.433 357.612 138.072 356.546C137.781 355.687 136.931 294.625 139.378 291.524C141.462 288.883 156.855 289.747 160.438 289.758L220.803 289.738C233.327 289.736 234.224 287.609 234.819 300.147L236.704 336.207C237.007 341.76 237.928 349.44 237.518 354.833C236.999 361.654 219.211 358.702 213.991 358.88ZM211.93 298.873L168.138 298.873C161.327 298.877 154.158 299.428 147.388 298.873L147.36 332.242C147.318 337.949 146.612 344.349 147.388 349.941C150.837 350.343 154.271 350.132 157.727 349.941L227.802 349.941C228.77 333.747 225.747 315.585 225.958 298.873L211.93 298.873Z"/>
	<path fill="#FF5D15" transform="scale(2 2)" d="M211.93 298.873L225.958 298.873C225.747 315.585 228.77 333.747 227.802 349.941L157.727 349.941C185.675 343.579 205.559 326.719 211.93 298.873Z"/>
	<path transform="scale(2 2)" d="M346.323 344.733C338.355 344.887 340.206 323.693 340.663 322.81C341.36 321.461 342.852 321.023 344.183 320.565C350.831 321.449 350.647 337.044 350.215 341.832C349.171 343.532 348.267 344.233 346.323 344.733Z"/>
</svg>
