<?xml version="1.0" encoding="utf-8" ?>
<svg xmlns="http://www.w3.org/2000/svg" xmlns:xlink="http://www.w3.org/1999/xlink" width="1024" height="1024">
	<path transform="scale(2 2)" d="M171.594 101.455C179.655 83.5677 192.336 76.9933 212.031 75.8843C225.052 75.3156 239.545 79.2412 251.21 84.9117C280.424 99.1123 290.868 125.358 289.68 156.107C289.218 168.062 288.899 162.717 292.445 173.246C298.808 192.135 284.073 209.654 266.594 215.473C259.346 239.789 236.924 257.488 211.287 257.81C192.192 257.677 173.526 246.286 163.199 230.437C155.934 219.287 163.367 222.093 152.435 217.572C133.822 209.875 120.564 186.121 133.934 169.142C135.512 167.139 137.377 165.351 139.001 163.373C139.313 159.18 138.976 154.901 139.021 150.693C139.228 131.119 145.27 96.9703 171.594 101.455ZM273.875 123.709C260.596 88.0345 205.109 71.3272 178.311 101.381C175.351 104.7 174.352 109.428 170.025 104.722C144.364 106.912 144.317 140.647 144.627 159.819C164.195 153.032 181.135 144.996 183.992 122.731C185.715 109.297 186.496 113.618 191.336 121.655C202.714 140.553 246.63 156.589 269.296 157.293C272.779 157.963 276.268 158.527 279.783 158.996C281.103 148.443 278.448 133.071 273.875 123.709ZM191.551 140.181C184.086 153.128 170.683 162.042 156.582 166.536C158.737 182.712 162.846 211.633 171.291 225.031C183.227 243.969 206.298 252.855 227.474 245.201C240.567 239.302 250.815 229.528 256.011 215.829C259.315 207.119 264.227 180.14 264.874 169.927C238.223 167.331 210.62 160.216 191.551 140.181ZM147.058 171.057C133.058 179.326 139.369 196.118 149.681 204.95C151.302 206.263 152.981 207.417 154.728 208.556C152.858 201.433 150.889 194.268 149.644 187.003C149.303 185.014 147.989 172.084 147.213 171.139L147.058 171.057ZM274.818 171.057C273.384 180.86 269.618 196.874 269.355 206.011L269.296 207.631C271.276 206.493 273.068 204.993 274.818 203.531C282.332 195.872 287.771 184.061 282.75 173.64C280.074 172.88 277.45 171.956 274.818 171.057Z"/>
	<path fill="#FF5D15" transform="scale(2 2)" d="M273.875 123.709C278.448 133.071 281.103 148.443 279.783 158.996C276.268 158.527 272.779 157.963 269.296 157.293C264.368 142.116 259.109 131.141 247.392 119.923C238.674 111.576 221.517 101.022 208.689 101.393L206.331 101.455L207.731 100.608C224.69 90.1416 256.852 106.471 269.17 119.091C270.622 120.579 271.946 122.824 273.875 123.709Z"/>
	<path transform="scale(2 2)" d="M349.705 183.623L349.607 182.215C348.601 166.402 360.275 162.692 373.942 161.868C381.365 161.792 391.604 163.393 396.486 169.333C399.524 173.03 398.441 179.189 398.073 183.623C401.589 185.15 404.752 186.89 407.644 189.426C426.334 181.04 432.465 188.013 440.126 207.359C444.989 219.638 440.983 225.073 429.376 229.684C429.44 232.236 429.381 234.805 429.376 237.359C442.336 242.703 442.422 250.115 436.43 260.736C427.92 275.82 423.197 282.966 406.641 272.052C404.337 273.177 402.296 274.456 400.468 276.265C400.63 294.396 398.284 297.916 379.34 298.894C358.969 299.674 354.082 296.213 354.255 277.085C352.386 276.148 350.593 275.046 348.787 273.995C346.273 275.107 343.908 276.537 341.407 277.676C329.071 283.29 319.657 268.53 315.434 259.002C310.683 248.281 313.887 241.859 324.247 237.359C323.829 235.499 323.45 233.631 323.067 231.764C305.294 225.789 307.805 215.836 313.593 201.187C319.556 186.098 326.732 184.632 341.209 190.484C343.775 187.854 346.74 185.768 349.705 183.623ZM388.827 182.295C389.769 179.974 389.806 177.401 389.754 174.931C385.213 171.072 378.457 170.436 372.72 170.894C355.846 172.24 359.35 176.054 359.266 189.426C350.72 192.814 348.959 196.266 342.572 200.429C326.203 193.588 326.088 192.413 319.455 210.286C316.854 217.296 317.388 219.956 324.247 222.871C332.288 225.141 331.498 224.061 331.999 231.764C332.371 235.181 333.159 238.461 333.909 241.809C331.184 243.543 323.056 247.134 322.299 250.023C320.915 255.308 330.691 267.575 334.966 269.695C338.221 271.005 345.609 265.383 348.787 264.072C350.916 265.233 362.153 270.877 362.999 272.052C363.292 276.597 360.7 286.742 366.029 288.729C371.604 290.278 386.462 291.052 390.158 287.754C392.378 285.773 391.04 275.461 391.173 272.052C393.365 269.627 403.334 263.443 406.641 261.861C410.28 263.148 416.867 269.852 420.745 267.855C423.559 266.407 430.428 253.519 431.621 250.197C428.857 245.753 423.977 245.761 421.467 242.554C420.374 241.158 420.08 228.996 420.435 226.658C421.667 218.552 445.366 224.454 425.819 199.572C419.183 188.939 414.919 197.04 406.641 199.572C401.65 197.462 398.56 192.702 391.852 190.484C390.157 188.273 388.986 185.066 388.827 182.295Z"/>
	<path fill="#FF5D15" transform="scale(2 2)" d="M366.029 179.903C372.651 178.714 383.715 176.372 388.827 182.295C388.986 185.066 390.157 188.273 391.852 190.484C393.818 196.961 404.074 204.323 410.183 207.631C414.701 205.068 420.736 200.318 425.819 199.572C445.366 224.454 421.667 218.552 420.435 226.658C420.08 228.996 420.374 241.158 421.467 242.554C423.977 245.761 428.857 245.753 431.621 250.197C430.428 253.519 423.559 266.407 420.745 267.855C416.867 269.852 410.28 263.148 406.641 261.861C403.334 263.443 393.365 269.627 391.173 272.052C391.04 275.461 392.378 285.773 390.158 287.754C386.462 291.052 371.604 290.278 366.029 288.729C366.211 283.286 368.05 275.645 362.999 272.052C362.153 270.877 350.916 265.233 348.787 264.072C345.609 265.383 338.221 271.005 334.966 269.695C330.064 249.204 322.345 260.474 340.284 246.897C339.517 244.451 338.728 241.982 338.186 239.475C337.105 234.474 338.056 229.695 331.999 231.764C331.498 224.061 332.288 225.141 324.247 222.871C324.113 216.474 327.596 209.127 330.533 203.531C335.101 205.646 339.656 207.833 344.383 209.576C348.215 207.034 351.075 203.062 354.911 200.404C365.686 192.934 370.002 197.242 366.029 179.903ZM401.16 240.04Q401.42 239.425 401.65 238.799Q401.88 238.172 402.079 237.535Q402.278 236.898 402.445 236.251Q402.612 235.605 402.748 234.952Q402.883 234.298 402.986 233.638Q403.09 232.979 403.16 232.315Q403.231 231.651 403.269 230.985Q403.307 230.319 403.312 229.651Q403.318 228.984 403.29 228.317Q403.263 227.65 403.203 226.985Q403.143 226.32 403.05 225.659Q402.958 224.998 402.833 224.342Q402.708 223.687 402.551 223.038Q402.394 222.389 402.205 221.749Q402.017 221.108 401.797 220.478Q401.577 219.848 401.327 219.229Q401.076 218.61 400.796 218.005Q400.516 217.399 400.206 216.808Q399.896 216.216 399.557 215.641Q399.219 215.066 398.853 214.508Q398.486 213.95 398.093 213.41Q397.7 212.871 397.281 212.351Q396.862 211.832 396.417 211.334Q395.973 210.835 395.505 210.36Q395.037 209.884 394.546 209.431Q394.055 208.979 393.543 208.551Q393.03 208.124 392.498 207.721Q391.965 207.319 391.413 206.944Q390.861 206.568 390.291 206.221Q389.722 205.873 389.136 205.553Q388.55 205.233 387.949 204.943Q387.348 204.653 386.733 204.392Q386.118 204.131 385.492 203.901Q384.865 203.671 384.228 203.472Q383.591 203.273 382.945 203.105Q382.299 202.938 381.645 202.802Q380.992 202.666 380.332 202.563Q379.673 202.459 379.009 202.388Q378.345 202.317 377.679 202.279Q377.013 202.24 376.345 202.234Q375.678 202.229 375.011 202.256Q374.344 202.283 373.679 202.343Q373.014 202.402 372.353 202.495Q371.692 202.587 371.036 202.712Q370.38 202.836 369.732 202.993Q369.083 203.15 368.442 203.338Q367.802 203.526 367.171 203.746Q366.541 203.965 365.922 204.215Q365.303 204.465 364.697 204.745Q364.092 205.026 363.5 205.335Q362.909 205.645 362.333 205.983Q361.758 206.321 361.2 206.687Q360.641 207.053 360.102 207.446Q359.562 207.839 359.043 208.258Q358.523 208.677 358.024 209.121Q357.526 209.565 357.05 210.033Q356.574 210.501 356.121 210.991Q355.668 211.482 355.241 211.994Q354.813 212.506 354.41 213.039Q354.008 213.572 353.632 214.123Q353.256 214.675 352.908 215.245Q352.56 215.814 352.24 216.4Q351.92 216.986 351.63 217.587Q351.339 218.188 351.078 218.802Q350.817 219.416 350.587 220.043Q350.356 220.669 350.157 221.306Q349.957 221.943 349.789 222.589Q349.621 223.235 349.485 223.889Q349.349 224.542 349.245 225.202Q349.141 225.861 349.07 226.525Q348.999 227.188 348.96 227.855Q348.921 228.521 348.915 229.189Q348.909 229.856 348.936 230.523Q348.963 231.19 349.022 231.855Q349.081 232.52 349.173 233.181Q349.265 233.842 349.39 234.498Q349.514 235.154 349.67 235.802Q349.826 236.451 350.014 237.092Q350.202 237.732 350.421 238.363Q350.641 238.993 350.89 239.612Q351.14 240.231 351.42 240.837Q351.7 241.443 352.009 242.035Q352.318 242.626 352.656 243.202Q352.994 243.778 353.36 244.336Q353.726 244.895 354.118 245.434Q354.511 245.974 354.93 246.494Q355.348 247.014 355.792 247.513Q356.236 248.011 356.703 248.488Q357.171 248.964 357.661 249.417Q358.152 249.87 358.664 250.298Q359.176 250.726 359.708 251.129Q360.24 251.531 360.792 251.907Q361.343 252.283 361.913 252.632Q362.482 252.98 363.068 253.301Q363.653 253.621 364.254 253.912Q364.855 254.203 365.469 254.464C366.977 257.789 368.819 260.574 372.52 261.703C394.924 268.537 414.164 243.357 401.16 240.04Z"/>
	<path transform="scale(2 2)" d="M365.469 254.464Q364.855 254.203 364.254 253.912Q363.653 253.621 363.068 253.301Q362.482 252.98 361.913 252.632Q361.343 252.283 360.792 251.907Q360.24 251.531 359.708 251.129Q359.176 250.726 358.664 250.298Q358.152 249.87 357.661 249.417Q357.171 248.964 356.703 248.488Q356.236 248.011 355.792 247.513Q355.348 247.014 354.93 246.494Q354.511 245.974 354.118 245.434Q353.726 244.895 353.36 244.336Q352.994 243.778 352.656 243.202Q352.318 242.626 352.009 242.035Q351.7 241.443 351.42 240.837Q351.14 240.231 350.89 239.612Q350.641 238.993 350.421 238.363Q350.202 237.732 350.014 237.092Q349.826 236.451 349.67 235.802Q349.514 235.154 349.39 234.498Q349.265 233.842 349.173 233.181Q349.081 232.52 349.022 231.855Q348.963 231.19 348.936 230.523Q348.909 229.856 348.915 229.189Q348.921 228.521 348.96 227.855Q348.999 227.188 349.07 226.525Q349.141 225.861 349.245 225.202Q349.349 224.542 349.485 223.889Q349.621 223.235 349.789 222.589Q349.957 221.943 350.157 221.306Q350.356 220.669 350.587 220.043Q350.817 219.416 351.078 218.802Q351.339 218.188 351.63 217.587Q351.92 216.986 352.24 216.4Q352.56 215.814 352.908 215.245Q353.256 214.675 353.632 214.123Q354.008 213.572 354.41 213.039Q354.813 212.506 355.241 211.994Q355.669 211.482 356.121 210.991Q356.574 210.501 357.05 210.033Q357.526 209.565 358.024 209.121Q358.523 208.677 359.043 208.258Q359.562 207.839 360.102 207.446Q360.641 207.053 361.2 206.687Q361.758 206.321 362.333 205.983Q362.909 205.645 363.5 205.335Q364.092 205.026 364.697 204.745Q365.303 204.465 365.922 204.215Q366.541 203.965 367.171 203.746Q367.802 203.526 368.442 203.338Q369.083 203.15 369.732 202.993Q370.38 202.836 371.036 202.712Q371.692 202.587 372.353 202.495Q373.014 202.402 373.679 202.343Q374.344 202.283 375.011 202.256Q375.678 202.229 376.345 202.234Q377.013 202.24 377.679 202.279Q378.345 202.317 379.009 202.388Q379.673 202.459 380.332 202.563Q380.992 202.666 381.645 202.802Q382.299 202.938 382.945 203.105Q383.591 203.273 384.228 203.472Q384.865 203.671 385.492 203.901Q386.118 204.131 386.733 204.392Q387.348 204.653 387.949 204.943Q388.55 205.233 389.136 205.553Q389.722 205.873 390.291 206.221Q390.861 206.568 391.413 206.944Q391.965 207.319 392.498 207.721Q393.03 208.124 393.543 208.551Q394.055 208.979 394.546 209.431Q395.037 209.884 395.505 210.36Q395.973 210.835 396.417 211.334Q396.862 211.832 397.281 212.351Q397.7 212.871 398.093 213.41Q398.486 213.95 398.853 214.508Q399.219 215.066 399.557 215.641Q399.896 216.216 400.206 216.808Q400.516 217.399 400.796 218.005Q401.076 218.61 401.327 219.229Q401.577 219.848 401.797 220.478Q402.017 221.108 402.205 221.749Q402.394 222.389 402.551 223.038Q402.708 223.687 402.833 224.342Q402.958 224.998 403.05 225.659Q403.143 226.32 403.203 226.985Q403.263 227.65 403.29 228.317Q403.318 228.984 403.312 229.651Q403.307 230.319 403.269 230.985Q403.231 231.651 403.16 232.315Q403.09 232.979 402.986 233.638Q402.883 234.298 402.748 234.952Q402.612 235.605 402.445 236.251Q402.278 236.898 402.079 237.535Q401.88 238.172 401.65 238.799Q401.42 239.425 401.16 240.04Q400.899 240.655 400.609 241.257Q400.318 241.859 399.999 242.446Q399.679 243.033 399.331 243.604Q398.982 244.174 398.607 244.727Q398.231 245.28 397.828 245.813Q397.426 246.347 396.998 246.86Q396.57 247.373 396.117 247.865Q395.664 248.356 395.187 248.825Q394.711 249.294 394.212 249.738Q393.713 250.183 393.193 250.603Q392.673 251.022 392.132 251.416Q391.592 251.81 391.033 252.176Q390.475 252.543 389.898 252.882Q389.322 253.22 388.73 253.53Q388.138 253.84 387.531 254.121Q386.925 254.401 386.305 254.652Q385.685 254.902 385.054 255.122Q384.423 255.342 383.782 255.53Q383.14 255.719 382.491 255.875Q381.841 256.032 381.184 256.157Q380.528 256.281 379.866 256.373Q379.204 256.466 378.538 256.525Q377.872 256.585 377.205 256.611Q376.537 256.638 375.868 256.632Q375.2 256.626 374.533 256.587Q373.866 256.549 373.201 256.477Q372.536 256.405 371.876 256.301Q371.216 256.197 370.562 256.061Q369.908 255.924 369.261 255.756Q368.614 255.588 367.976 255.388Q367.338 255.188 366.711 254.957Q366.084 254.726 365.469 254.464ZM373.366 211.332Q372.92 211.4 372.477 211.489Q372.035 211.578 371.597 211.689Q371.16 211.8 370.728 211.933Q370.297 212.065 369.872 212.218Q369.447 212.372 369.031 212.546Q368.614 212.72 368.207 212.914Q367.799 213.108 367.402 213.322Q367.005 213.536 366.618 213.769Q366.232 214.003 365.857 214.255Q365.483 214.507 365.121 214.777Q364.759 215.047 364.411 215.334Q364.063 215.622 363.729 215.926Q363.396 216.23 363.078 216.55Q362.76 216.87 362.457 217.206Q362.155 217.541 361.87 217.891Q361.585 218.241 361.317 218.604Q361.049 218.968 360.8 219.344Q360.55 219.72 360.319 220.108Q360.089 220.496 359.877 220.895Q359.665 221.293 359.474 221.702Q359.282 222.111 359.111 222.528Q358.939 222.946 358.789 223.371Q358.638 223.797 358.508 224.229Q358.379 224.662 358.27 225.1Q358.162 225.538 358.076 225.981Q357.989 226.424 357.924 226.871Q357.859 227.318 357.817 227.767Q357.774 228.216 357.753 228.667Q357.733 229.118 357.734 229.57Q357.736 230.021 357.759 230.472Q357.783 230.923 357.829 231.372Q357.874 231.821 357.942 232.267Q358.01 232.713 358.099 233.156Q358.189 233.598 358.3 234.036Q358.411 234.473 358.544 234.905Q358.676 235.336 358.83 235.761Q358.983 236.185 359.157 236.602Q359.332 237.018 359.526 237.426Q359.72 237.833 359.935 238.23Q360.149 238.628 360.382 239.014Q360.615 239.4 360.868 239.775Q361.12 240.149 361.39 240.511Q361.66 240.873 361.948 241.221Q362.235 241.568 362.539 241.902Q362.844 242.235 363.164 242.553Q363.484 242.871 363.82 243.173Q364.156 243.475 364.505 243.761Q364.855 244.046 365.219 244.313Q365.582 244.581 365.959 244.83Q366.335 245.08 366.723 245.31Q367.111 245.541 367.51 245.752Q367.909 245.964 368.317 246.155Q368.726 246.347 369.144 246.518Q369.561 246.689 369.987 246.84Q370.413 246.99 370.845 247.12Q371.277 247.249 371.716 247.357Q372.154 247.466 372.597 247.552Q373.04 247.638 373.487 247.703Q373.934 247.768 374.383 247.81Q374.832 247.853 375.283 247.873Q375.734 247.894 376.186 247.892Q376.637 247.89 377.088 247.867Q377.539 247.843 377.988 247.797Q378.437 247.751 378.883 247.683Q379.329 247.615 379.771 247.525Q380.213 247.436 380.651 247.325Q381.088 247.213 381.519 247.081Q381.95 246.948 382.375 246.795Q382.799 246.641 383.215 246.467Q383.631 246.293 384.038 246.098Q384.446 245.904 384.843 245.69Q385.24 245.476 385.626 245.242Q386.012 245.009 386.386 244.757Q386.761 244.505 387.122 244.235Q387.484 243.965 387.831 243.677Q388.179 243.39 388.512 243.085Q388.845 242.781 389.163 242.461Q389.481 242.141 389.783 241.805Q390.085 241.47 390.37 241.12Q390.655 240.771 390.922 240.407Q391.19 240.044 391.439 239.668Q391.688 239.292 391.919 238.904Q392.15 238.516 392.361 238.118Q392.572 237.719 392.764 237.31Q392.955 236.902 393.126 236.484Q393.297 236.067 393.448 235.642Q393.599 235.216 393.728 234.784Q393.857 234.352 393.966 233.914Q394.074 233.476 394.16 233.033Q394.247 232.59 394.311 232.144Q394.376 231.697 394.419 231.248Q394.461 230.799 394.482 230.348Q394.503 229.897 394.501 229.446Q394.5 228.995 394.476 228.544Q394.452 228.094 394.406 227.645Q394.361 227.196 394.293 226.75Q394.225 226.304 394.136 225.862Q394.046 225.42 393.935 224.982Q393.824 224.545 393.692 224.114Q393.559 223.682 393.406 223.258Q393.253 222.834 393.078 222.417Q392.904 222.001 392.71 221.594Q392.516 221.187 392.302 220.789Q392.088 220.392 391.855 220.006Q391.622 219.62 391.37 219.245Q391.118 218.871 390.848 218.51Q390.578 218.148 390.291 217.8Q390.003 217.452 389.699 217.119Q389.395 216.786 389.075 216.468Q388.755 216.15 388.42 215.848Q388.084 215.546 387.735 215.261Q387.385 214.976 387.022 214.708Q386.659 214.44 386.283 214.191Q385.907 213.941 385.519 213.711Q385.131 213.48 384.733 213.269Q384.334 213.057 383.926 212.865Q383.517 212.674 383.1 212.503Q382.682 212.331 382.257 212.18Q381.832 212.03 381.4 211.9Q380.968 211.771 380.53 211.662Q380.092 211.554 379.649 211.467Q379.206 211.381 378.76 211.316Q378.313 211.251 377.864 211.208Q377.415 211.165 376.964 211.144Q376.513 211.124 376.062 211.125Q375.611 211.126 375.16 211.15Q374.71 211.173 374.261 211.219Q373.812 211.264 373.366 211.332Z"/>
	<path transform="scale(2 2)" d="M211.287 282.9C215.235 279.666 219.892 277.257 224.258 274.631L240.691 264.638C246.088 261.414 252.319 256.838 258.094 254.599C263.256 253.637 283.576 265.058 288.733 268.242C321.248 288.314 345.463 322.462 350.596 360.618C351.502 367.351 352.548 389.104 348.298 394.319C345.312 397.982 339.809 395.265 339.628 390.792C339.492 387.417 341.656 379.797 341.777 374.901C338.994 376.519 336.643 378.927 334.125 380.928C311.321 399.04 286.124 413.896 258.752 424.012C218.49 438.891 188.743 439.367 150.329 421.677C122.652 408.448 102.759 392.69 78.7498 374.901C78.6552 380.051 79.2891 385.526 80.2526 390.584C79.5202 392.72 78.7621 394.787 76.3071 395.418C68.7242 397.367 69.3805 382.722 69.2758 378.482C67.8558 320.974 109.103 266.732 165.717 254.599C179.701 262.391 198.113 274.135 211.287 282.9ZM151.803 283.702C150.908 279.333 149.63 274.901 149.681 270.426C123.887 279.302 102.971 300.699 91.1689 324.948C86.3638 334.821 80.1466 352.474 80.2526 363.336C83.1534 367.009 87.9692 369.661 91.7241 372.457C129.301 400.567 169.666 431.13 218.907 424.383C262.558 418.268 309.576 391.573 341.209 361.91C334.283 322.831 308.319 284.59 270.591 269.695C269.756 273.836 269.209 278.04 268.478 282.202C262.026 318.912 238.31 385.34 212.998 414.823C206.602 417.481 202.213 406.145 199.149 401.368C178.274 368.827 158.93 322.42 151.803 283.702ZM259.71 265.313C253.546 267.491 244.547 273.962 238.614 277.499L227.558 284.059C225.055 285.537 222.421 286.889 220.162 288.729C223.484 291.064 226.458 294.114 229.476 296.835C232.582 299.506 235.911 302.035 238.883 304.844C248.287 293.759 258.072 287.409 260.189 272.795C260.473 270.83 261.615 267.539 260.474 265.729L259.71 265.313ZM163.556 265.313C162.708 265.78 161.897 266.225 161.137 266.828C161.426 272.22 161.706 277.794 163.556 282.9C165.832 286.886 170.049 290.154 173.346 293.332L185.202 304.844C187.905 302.453 190.679 299.545 193.806 297.762C196.358 294.428 199.702 291.783 202.573 288.729C189.59 281.515 176.324 271.667 163.556 265.313ZM211.287 293.461C208.362 296.51 205.016 299.475 202.573 302.921C203.997 305.55 205.276 307.875 207.661 309.752C209.442 309.785 211.217 309.783 212.998 309.752L217.834 309.752C219.389 307.518 220.823 305.062 222.488 302.921C218.559 300.517 214.39 295.027 211.287 293.461ZM165.717 299.658C171.271 318.387 178.137 341.701 187.287 359.085C188.318 354.767 189.211 350.224 190.798 346.072C193.306 335.688 196.446 325.467 198.942 315.094C197.522 313.335 196.285 311.421 194.76 309.752C177.368 322.112 179.101 308.764 165.717 299.658ZM253.369 302.921C241.906 316.37 242.813 317.587 229.476 309.752C227.622 312.087 226.164 314.689 224.667 317.261C226.802 324.134 230.129 338.84 231.281 346.072C232.184 349.987 233.034 353.91 233.858 357.843C237.344 351.429 254.598 308.161 253.369 302.921ZM207.661 319.252C206.761 324.196 205.232 329.097 203.914 333.949L199.004 352.439C197.2 359.065 195.909 365.929 193.806 372.457C195.566 377.754 207.419 397.04 211.287 401.191L212.031 399.198C217.851 390.532 222.418 381.512 227.474 372.457C223.564 355.726 219.848 335.35 215.171 319.252C212.676 319.281 210.152 319.394 207.661 319.252Z"/>
	<path fill="#FF5D15" transform="scale(2 2)" d="M91.7241 372.457C92.9634 367.683 93.3808 362.81 94.3118 357.985C99.8598 329.232 116.523 304.443 141.639 289.006C144.903 287 148.118 284.849 151.803 283.702C158.93 322.42 178.274 368.827 199.149 401.368C202.213 406.145 206.602 417.481 212.998 414.823C214.91 417.863 217.44 421.123 218.907 424.383C169.666 431.13 129.301 400.567 91.7241 372.457Z"/>
</svg>
