<?xml version="1.0" encoding="utf-8" ?>
<svg xmlns="http://www.w3.org/2000/svg" xmlns:xlink="http://www.w3.org/1999/xlink" width="1024" height="1024">
	<path transform="scale(2 2)" d="M255.666 40.9971C263.555 40.4491 283.084 41.2862 288.89 46.7952C298.129 55.5603 286.714 81.9243 285.674 93.9071C283.04 124.238 293.726 180.433 303.366 208.55C308.752 224.261 315.496 239.463 320.647 255.258C335.601 301.119 329.017 369.882 322.287 418.585C321.212 426.365 320.603 435.558 318.216 442.957C310.781 466.006 283.879 467.677 263.312 467.755C246.067 468.094 213.845 466.163 199.837 455.617C184.592 444.139 186.866 424.093 185.385 406.741C180.97 355.013 178.767 284.934 199.162 236.688C203.216 227.099 208.207 218.048 212.692 208.67C230.457 171.527 242.893 128.218 241.584 86.6104C241.064 70.0747 232.306 43.3763 255.666 40.9971ZM265.012 310.816C289.156 323.791 298.034 304.21 318.583 297.808C316.139 267.498 306.736 247.252 295.625 219.903C284.072 191.468 270.392 157.425 273.27 126.884C273.618 123.198 274.341 119.466 274.482 115.776C274.865 105.809 274.027 99.1132 275.663 88.6737C267.048 88.7806 260.563 87.4084 252.251 86.6655C252.393 137.432 241.517 174.315 219.329 219.355C206.401 245.597 197.987 265.226 195.881 295.724C209.847 290.974 224.939 286.575 239.105 293.538C248.547 298.179 255.771 305.999 265.012 310.816ZM318.583 333.426C314.68 342.081 300.795 356.264 294.162 362.838C293.439 363.554 291.157 365.772 291.163 365.809L290.734 366.212C291.985 365.866 293.595 364.145 294.675 363.326C299.904 359.358 309.351 355.005 315.558 352.543C279.978 402.45 282.477 353.072 245.076 358.919C237.751 360.064 211.613 371.227 228.729 377.39L229.075 377.277C232.256 376.218 235.049 374.178 238.009 372.635C253.985 364.306 261.773 372.047 274.215 380.425C289.527 390.736 297.131 385.652 311.173 379.33C304.458 386.877 294.608 397.842 286.766 403.962C293.872 401.161 300.579 397.348 307.934 395.205C304.713 399.478 299.411 406.04 295.737 409.989C283.788 399.237 273.421 403.45 260.993 410.465C256.576 412.958 248.758 417.317 255.862 422.631C259.669 425.479 265.822 420.089 268.917 418.222C289.611 405.738 287.409 425.99 296.324 424.077C297.787 423.763 300.86 421.637 302.149 422.235C302.49 427.258 280.025 440.669 275.663 442.82C283.339 441.649 292.893 438.829 300.731 437.141C292.793 444.988 282.193 450.536 271.636 453.909C270.033 454.422 265.545 454.93 264.489 455.724L265.012 455.916C292.228 455.484 306.744 456.203 310.59 426.971L312.5 412.201C315.016 392.247 316.832 372.319 318.3 352.265C319.124 341.006 320.405 329.078 319.636 317.776C313.545 325.144 307.339 332.117 300.505 338.814C298.617 340.664 289.467 348.277 289.106 349.04C299.774 343.617 304.587 337.808 318.583 333.426ZM300.731 320.314C298.293 323.024 295.299 325.115 292.895 327.831C301.133 322.386 310.299 314.606 319.636 311.734C319.603 309.415 319.57 307.101 319.636 304.782C313.154 308.387 306.587 315.474 300.731 320.314ZM252.251 75.9334C260.104 77.231 270.008 78.2581 277.866 77.6041C277.868 77.0758 277.94 76.4501 277.866 75.9334C279.947 69.3576 281.429 63.5207 281.787 56.5922C271.869 56.6742 261.793 56.7886 252.251 53.6081C249.842 60.7382 249.522 68.8523 252.251 75.9334ZM194.501 308.133C194.503 313.547 194.062 318.967 193.841 324.376C192.597 354.906 194.282 385.105 197.034 415.529C198.448 431.163 195.93 444.069 213.661 450.762C222.153 453.967 237.548 455.731 246.797 455.916C244.857 454.934 242.114 454.633 239.98 454.106C211.951 447.183 212.821 443.752 208.056 417.087C201.304 379.304 197.786 343.06 202.537 304.782C199.795 305.76 197.157 306.948 194.501 308.133Z"/>
	<path transform="scale(2 2)" d="M234.288 212.022C238.774 211.776 240.089 213.091 241.532 217.281C234.158 235.362 225.662 245.326 220.395 265.632C219.35 269.661 219.357 275.803 215.133 277.891C199.251 283.256 216.574 243.222 218.344 239.51C220.26 235.492 230.836 213.241 234.288 212.022Z"/>
	<path transform="scale(2 2)" d="M243.384 192.526C247.036 192.382 248.478 194.424 249.386 197.742C247.998 202.021 247.028 207.674 242.3 209.413C232.505 209.09 237.327 198.653 240.478 193.813C241.412 193.253 242.364 192.893 243.384 192.526Z"/>
	<path fill="#FF5D15" transform="scale(2 2)" d="M202.537 304.782C229.424 295.881 233.681 301.872 253.843 316.242C272.719 329.696 282.112 328.236 300.731 320.314C298.293 323.024 295.299 325.115 292.895 327.831C301.133 322.386 310.299 314.606 319.636 311.734C319.675 313.612 319.995 315.951 319.636 317.776C313.545 325.144 307.339 332.117 300.505 338.814C298.617 340.664 289.467 348.277 289.106 349.04C299.774 343.617 304.587 337.808 318.583 333.426C314.68 342.081 300.795 356.264 294.162 362.838C293.439 363.554 291.157 365.772 291.163 365.809L290.734 366.212C291.985 365.866 293.595 364.145 294.675 363.326C299.904 359.358 309.351 355.005 315.558 352.543C279.978 402.45 282.477 353.072 245.076 358.919C237.751 360.064 211.613 371.227 228.729 377.39L229.075 377.277C232.256 376.218 235.049 374.178 238.009 372.635C253.985 364.306 261.773 372.047 274.215 380.425C289.527 390.736 297.131 385.652 311.173 379.33C304.458 386.877 294.608 397.842 286.766 403.962C293.872 401.161 300.579 397.348 307.934 395.205C304.713 399.478 299.411 406.04 295.737 409.989C283.788 399.237 273.421 403.45 260.993 410.465C256.576 412.958 248.758 417.317 255.862 422.631C259.669 425.479 265.822 420.089 268.917 418.222C289.611 405.738 287.409 425.99 296.324 424.077C297.787 423.763 300.86 421.637 302.149 422.235C302.49 427.258 280.025 440.669 275.663 442.82C283.339 441.649 292.893 438.829 300.731 437.141C292.793 444.988 282.193 450.536 271.636 453.909C270.033 454.422 265.545 454.93 264.489 455.724L265.012 455.916L246.797 455.916C244.857 454.934 242.114 454.633 239.98 454.106C211.951 447.183 212.821 443.752 208.056 417.087C201.304 379.304 197.786 343.06 202.537 304.782Z"/>
</svg>
