<?xml version="1.0" encoding="utf-8" ?>
<svg xmlns="http://www.w3.org/2000/svg" xmlns:xlink="http://www.w3.org/1999/xlink" width="1024" height="1024">
	<path transform="scale(2 2)" d="M250.843 37.0004C316.679 33.7904 374.482 81.6712 387.822 145.532C401.799 212.444 362.883 279.519 298.348 301.167C291.645 303.416 284.695 305.008 277.776 306.432C277.36 310.646 277.821 315.082 278.05 319.304L284.709 434.889C285.735 453.456 282.027 468.293 260.807 473.726C243.751 475.108 228.341 464.553 226.665 446.583C226.051 440.001 226.955 432.935 227.379 426.344L233.82 319.753C234.116 315.322 234.283 310.836 234.861 306.432C173.984 297.646 126.488 242.584 122.288 181.768C117.603 113.916 162.806 52.0456 230.162 39.3447C237.012 38.0531 243.895 37.4603 250.843 37.0004ZM237.642 158.48C240.65 159.689 243.657 160.951 246.751 161.926C229.521 124.422 236.156 74.7736 276.651 56.2692C279.655 54.8969 282.842 53.8929 285.816 52.4849C275.677 50.1958 265.314 48.748 254.897 48.8783C242.483 49.3087 217.859 50.6699 209.859 59.2463C183.052 87.985 198.009 135.455 230.103 154.089C232.617 155.548 235.268 156.795 237.642 158.48ZM375.601 144.952C373.565 133.102 370.127 131.189 359.915 123.984C330.801 103.442 293.907 112.265 273.951 140.974C269.657 147.151 263.816 156.315 262.969 163.766L265.255 162.873C293.464 131.406 340.422 114.386 375.601 144.952ZM363.453 112.628C351.819 88.751 327.275 69.5058 303.817 58.5126C278.751 61.3183 261.03 73.343 250.843 97.1863C255.767 94.586 259.679 90.5594 264.493 87.7773C289.813 73.1442 323.411 78.8253 345.601 96.8978C347.706 98.612 361.902 113.124 363.453 112.628ZM139.26 135.648C131.684 160.07 127.598 197.761 152.941 213.705C151.938 211.067 149.902 208.378 148.539 205.854C140.741 191.414 138.209 161.2 143.014 144.952C141.679 141.883 140.271 138.843 139.26 135.648ZM191.476 275.199C206.176 284.643 216.37 287.104 233.877 278.792C268.346 262.426 271.233 218.492 256.338 187.207C255.907 190.057 257.593 192.998 258.154 195.754C266.457 236.559 241.386 278.199 197.632 275.437C195.633 275.311 193.46 274.931 191.476 275.199ZM145.602 220.15C146.683 222.897 147.909 225.485 149.444 228.007C151.903 228.927 154.117 231.5 156.428 232.858C191.377 253.405 229.6 232.687 247.301 199.492C247.721 198.704 247.893 198.435 247.66 197.585C235.951 214.978 219.138 228.723 198.177 232.882C181.08 236.274 158.893 232.108 145.602 220.15ZM241.391 170.016C203.339 154.77 176.441 114.71 190.321 73.634C190.991 71.6529 192.248 69.3468 192.511 67.2999C176.908 77.1221 150.123 102.977 145.602 121.94C148.338 152.292 173.314 169.458 200.941 174.95C216.576 174.91 225.556 174.436 241.391 170.016ZM296.564 166.247C284.083 166.459 278.478 169.547 267.589 172.022C311.376 185.401 340.246 232.096 319.816 276.021C321.956 274.721 324.093 273.377 326.282 272.161C341.302 259.363 350.923 251.425 361.182 233.169C365.55 225.397 365.879 223.749 363.79 214.902C356.497 184.021 328.641 162.715 296.564 166.247ZM265.255 308.004C264.206 307.987 263.146 307.937 262.099 308.004C256.97 308.187 251.874 307.945 246.751 308.004C244.738 332.054 243.599 356.177 242.305 380.272L239.112 433.507C238.455 444.831 236.528 455.929 250.105 461.385C260.34 464.46 269.844 458.939 272.829 448.752C274.339 443.597 271.928 418.219 271.542 411.187L266.396 321.605C266.141 317.072 265.974 312.493 265.255 308.004Z"/>
	<path fill="#ff5d15" transform="scale(2 2)" d="M262.969 180.026C268.643 180.925 276.203 184.993 281.171 187.941C311.163 205.733 328.596 244.112 309.48 275.825C299.134 292.988 287.314 289.405 268.91 294.152L268.44 294.275C252.643 293.589 241.749 294.819 225.202 290.755C271.717 279.012 285.129 226.763 266.303 186.859C265.312 184.758 263.896 182.669 263.128 180.492L262.969 180.026Z"/>
	<path transform="scale(2 2)" d="M254.897 349.265C262.036 349.116 261.218 356.336 261.94 361.433C265.433 386.074 264.183 421.162 250.195 442.708C248.838 444.797 247.531 445.975 245.073 446.482C243.075 446.459 242.236 446.124 240.763 444.792C237.445 439.966 241.216 436.167 243.582 431.812C256.727 407.617 254.442 379.816 250.843 353.706C251.492 351.111 252.262 350.188 254.897 349.265Z"/>
	<path fill="#ff5d15" transform="scale(2 2)" d="M143.014 144.952C163.756 179.574 194.1 189.956 233.794 181.457C238.102 180.535 242.422 179.006 246.751 178.326C238.645 207.372 202.807 231.959 172.166 223.403C167.866 222.202 155.454 217.176 152.941 213.705C151.938 211.067 149.902 208.378 148.539 205.854C140.741 191.414 138.209 161.2 143.014 144.952Z"/>
	<path fill="#ff5d15" transform="scale(2 2)" d="M254.897 184.246C255.431 185.205 255.874 186.213 256.338 187.207C255.907 190.057 257.593 192.998 258.154 195.754C266.457 236.559 241.386 278.199 197.632 275.437C195.633 275.311 193.46 274.931 191.476 275.199C175.861 265.537 156.914 245.445 149.444 228.007C151.903 228.927 154.117 231.5 156.428 232.858C191.377 253.405 229.6 232.687 247.301 199.492C247.721 198.704 247.893 198.435 247.66 197.585C250.079 193.125 252.586 188.774 254.897 184.246Z"/>
	<path fill="#ff5d15" transform="scale(2 2)" d="M265.255 162.873C293.464 131.406 340.422 114.386 375.601 144.952C379.59 162.935 377.018 190.617 371.527 208.176C358.762 166.762 320.521 151.108 280.03 159.239C275.063 160.237 270.237 162.009 265.255 162.873Z"/>
	<path fill="#ff5d15" transform="scale(2 2)" d="M250.843 97.1863C255.767 94.586 259.679 90.5594 264.493 87.7773C289.813 73.1442 323.411 78.8253 345.601 96.8978C347.706 98.612 361.902 113.124 363.453 112.628C364.193 113.802 364.751 115.227 365.355 116.485C362.031 113.784 358.101 111.811 354.21 110.057C317.98 93.7288 280.936 109.563 261.707 143.04C259.093 147.592 257.035 152.434 254.897 157.221C244.963 139.858 244.889 115.673 250.843 97.1863Z"/>
</svg>
