<?xml version="1.0" encoding="utf-8" ?>
<svg xmlns="http://www.w3.org/2000/svg" xmlns:xlink="http://www.w3.org/1999/xlink" width="1024" height="1024">
	<path transform="scale(2 2)" d="M263.199 84.8239C271.731 83.9369 283.333 88.2998 291.323 90.8714C313.703 98.0748 373.377 120.312 384.419 137.37C388.148 143.13 388.098 148.637 386.65 155.133C377.45 196.421 358.215 244.047 335.863 279.232C331.83 285.58 328.66 292.455 322.135 296.604C320.648 299.382 319.639 302.597 318.487 305.537C307.18 334.405 294.222 362.75 279.725 390.149C268.895 410.616 256.693 434.318 235.594 445.952C210.561 458.562 171.57 441.254 149.701 428.531C133.741 419.246 117.474 405.899 116.209 386.1C115.062 368.153 130.883 334.446 138.163 317.675C148.146 294.678 162.62 258.036 179.413 239.082C179.978 221.771 193.445 191.085 200.456 175.497C211.465 151.02 227.943 117.763 244.389 96.2467C249.92 89.0101 254.167 86.0387 263.199 84.8239ZM307.606 280.271C309.707 281.555 312.056 282.762 313.975 284.298C316 279.973 319.093 276.179 321.524 272.071C338.906 242.691 353.517 211.46 366.537 179.913C378.98 149.766 385.811 143.813 351.538 127.921C333.003 119.326 281.119 97.3869 261.958 97.7497C243.037 104.03 196.519 215.297 188.271 237.203C216.511 239.689 283.875 266.039 307.606 280.271ZM179.413 428.661C207.526 441.209 229.361 444.022 249.969 416.382C257.436 406.366 262.903 395.462 268.76 384.498C283.838 356.268 303.712 316.868 313.083 285.859C310.605 285.166 308.141 284.645 305.592 284.298C301.127 282.532 296.391 281.47 291.78 280.154C266.621 272.971 242.088 263.543 217.341 255.093L199.388 249.046C196.073 247.895 192.661 246.854 189.532 245.25C170.968 273.518 160.409 297.612 147.091 328.9C124.484 382.006 112.436 400.39 174.452 426.784C175.866 427.386 177.904 428.489 179.413 428.661Z"/>
	<path transform="scale(2 2)" d="M260.261 110.987C265.442 110.942 271.223 112.35 276.297 113.323C299.415 117.756 346.154 133.753 360.246 154.504C351.884 153.521 332.264 142.463 323.441 138.581C305.701 130.776 282.589 122.232 263.199 119.048C252.29 139.18 241.912 159.461 232.246 180.219C221.834 202.581 212.537 212.993 239.813 227.348C252.078 233.804 291.86 248.967 305.133 244.549C311.268 242.507 313.455 237.458 316.051 232.113C324.308 216.151 332.011 199.851 339.899 183.702C343.255 176.83 349.821 159.821 355.972 155.468C352.429 178.189 336.341 212.528 325.928 232.795C323.996 236.554 322.437 240.911 319.97 244.337C310.618 257.326 294.368 254.675 280.958 251.734C261.919 247.557 215.243 235.275 211.851 210.965C209.335 192.934 249.915 124.713 260.261 110.987Z"/>
	<path transform="scale(2 2)" d="M296.672 154.504C297.01 154.424 298.293 154.072 297.992 154.758C295.423 160.595 260.896 186.926 250.285 193.443C245.582 195.857 251.489 184.63 252.152 183.617C260.747 170.489 281.512 157.593 296.672 154.504Z"/>
	<path transform="scale(2 2)" d="M313.975 168.301C314.375 168.321 314.187 168.247 314.507 168.591C311.05 177.672 274.478 203.29 264.059 202.134C262.814 201.648 263.33 200.48 263.838 199.567C270.64 187.325 300.811 171.944 313.975 168.301Z"/>
	<path fill="#ff5d15" transform="scale(2 2)" d="M189.532 245.25C192.661 246.854 196.073 247.895 199.388 249.046L217.341 255.093C242.088 263.543 266.621 272.971 291.78 280.154C296.391 281.47 301.127 282.532 305.592 284.298C292.614 321.595 267.758 370.456 245.611 402.733C227.296 429.423 219.499 436.382 186.331 429.808C184.235 429.392 181.529 428.077 179.413 428.661C177.904 428.489 175.866 427.386 174.452 426.784C112.436 400.39 124.484 382.006 147.091 328.9C160.409 297.612 170.968 273.518 189.532 245.25ZM230.958 300.871C236.893 298.533 234.676 289.338 228.066 290.977C220.562 292.891 223.919 300.888 230.958 300.871ZM197.937 281.955C201.107 279.674 197.626 276.062 194.55 276.531C190.078 279.808 194.14 281.678 197.937 281.955ZM266.509 311.001C269.478 309.467 268.708 306.255 265.663 305.191C262.493 306.513 262.975 310.601 266.509 311.001ZM267.531 297.678C268.953 298.654 270.284 299.63 271.493 300.871C275.832 301.723 283.515 307.419 287.616 305.975C289.156 305.432 290.207 303.55 289.459 301.996C288.664 300.345 258.544 289.792 254.737 288.11L255.133 288.429C258.5 291.181 265.334 294.17 267.531 297.678Z"/>
	<path transform="scale(2 2)" d="M226.741 281.955C240.557 276.89 252.36 305.315 230.958 310.028C210.9 311.525 209.219 282.408 226.741 281.955ZM230.958 300.871C236.893 298.533 234.676 289.338 228.066 290.977C220.562 292.891 223.919 300.888 230.958 300.871Z"/>
	<path transform="scale(2 2)" d="M195.406 268.332C210.229 267.435 214.302 288.865 197.937 290.977C181.386 291.16 178.569 270.626 195.406 268.332ZM197.937 281.955C201.107 279.674 197.626 276.062 194.55 276.531C190.078 279.808 194.14 281.678 197.937 281.955Z"/>
	<path transform="scale(2 2)" d="M271.493 300.871C274.032 304.242 276.948 307.553 276.141 312.137C275.165 317.677 269.125 320.815 263.86 319.835C251.616 317.557 249.055 293.202 267.531 297.678C268.953 298.654 270.284 299.63 271.493 300.871ZM266.509 311.001C269.478 309.467 268.708 306.255 265.663 305.191C262.493 306.513 262.975 310.601 266.509 311.001Z"/>
	<path transform="scale(2 2)" d="M208.68 321.742C216.599 320.662 234.336 329.888 223.304 335.505C215.224 337.286 197.631 326.811 208.68 321.742Z"/>
	<path transform="scale(2 2)" d="M151.392 363.01C157.974 362.779 176.764 372.745 164.743 377.79C157.377 378.315 138.044 367.396 151.392 363.01Z"/>
	<path transform="scale(2 2)" d="M194.55 348.715C201.835 347.315 218.34 355.394 208.68 363.01C204.249 362.89 188.058 358.076 191.364 351.127C192.044 349.699 193.137 349.255 194.55 348.715Z"/>
	<path transform="scale(2 2)" d="M177.548 307.796C185.401 307.077 203.082 316.064 191.584 321.742C185.082 323.491 165.988 313.035 177.548 307.796Z"/>
	<path transform="scale(2 2)" d="M225.607 361.764C232.061 361.288 249.87 370.88 237.925 376.178C231.105 376.823 213.154 367.368 225.607 361.764Z"/>
	<path transform="scale(2 2)" d="M212.807 390.049C220.18 391.02 237.181 400.671 224.766 404.882C214.12 404.657 200.97 392.933 212.807 390.049Z"/>
	<path transform="scale(2 2)" d="M240.835 334.274C246.406 334.35 254.985 338.338 256.863 343.916C256.173 346.526 255.31 347.729 252.651 348.715C246.003 349.083 228.256 339.274 240.835 334.274Z"/>
	<path transform="scale(2 2)" d="M182.042 377.79C189.857 376.24 206.274 386.184 194.55 391.126C187.186 392.416 170.554 381.188 182.042 377.79Z"/>
	<path transform="scale(2 2)" d="M164.743 335.505C172.164 334.537 188.463 343.597 177.548 348.715C168.242 349.68 154.112 339.915 164.743 335.505Z"/>
	<path transform="scale(2 2)" d="M344.96 60.2502C365.872 58.2181 386.812 71.5103 394.493 90.8972C398.772 101.696 396.789 119.491 384.858 124.146C385.215 120.682 390.46 117.088 390.768 108.896C391.55 88.0899 371.232 71.9451 352.567 67.3226C350.081 66.707 339.831 65.3018 338.652 63.7868C337.358 62.1239 344.116 60.4311 344.96 60.2502Z"/>
	<path transform="scale(2 2)" d="M338.499 79.5935C354.558 77.5254 379.003 95.0791 370.085 114.074L368.984 110.987C363.295 98.6909 351.388 91.1117 339.316 85.9497C332.443 83.0106 327.008 80.7989 338.499 79.5935Z"/>
</svg>
