<?xml version="1.0" encoding="utf-8" ?>
<svg xmlns="http://www.w3.org/2000/svg" xmlns:xlink="http://www.w3.org/1999/xlink" width="1024" height="1024">
	<path transform="scale(2 2)" d="M129.261 413.304C115.133 401.337 117.192 391.794 116.392 374.99L114.457 337.907C112.109 295.921 110.303 254.037 109.496 211.986L108.867 153.117C108.916 134.424 109.668 113.188 111.851 94.6579C113.296 82.3917 119.199 82.6146 129.9 81.864C163.635 79.4979 196.257 76.7539 230.26 76.3932L270.909 76.2489C284.511 76.2236 394.154 77.0439 400.438 86.6751C406.018 95.2274 400.213 196.943 399.092 215.621L391.64 327.827C390.12 348.007 389.225 381.551 384.811 400.814C398.415 404.966 400.671 417.382 387.228 423.995C379.463 427.815 370.921 426.192 362.624 425.698C345.263 424.665 328.067 428.27 310.815 429.644C262.051 433.528 212.831 435.999 163.974 432.695C150.933 431.813 128.417 431.761 129.261 413.304ZM120.33 160.233C118.735 220.903 121.921 281.867 125.834 342.39L127.756 376.197C128.228 385.247 126.625 400.277 137.224 404.416C143.369 406.816 163.126 407.856 170.688 407.006C185.421 408.038 200.197 408.393 214.952 408.987L239.617 409.861C265.66 410.882 291.905 410.963 317.949 410.409C328.35 410.187 338.737 409.198 349.147 409.068C352.689 409.023 356.421 409.614 359.917 408.995C374.493 406.417 373.429 392.273 374.56 380.874C379.116 334.929 382.276 288.811 384.981 242.725L387.592 193.506C388.13 181.195 388.273 168.751 389.638 156.519C378.94 154.975 362.274 155.353 351.338 155.445C347.233 155.48 342.953 155.187 338.873 155.49C269.712 155.099 197.835 168.763 129.553 161.068C126.496 160.724 123.412 160.215 120.33 160.233ZM208.132 89.3512C206.053 89.4251 203.986 89.3977 201.907 89.3512C197.527 90.1366 192.878 90.0668 188.436 90.2561C167.575 91.1454 144.864 94.4806 124.488 94.4818C121.761 114.194 121.354 134.397 120.33 154.26L127.588 154.26C142.906 154.303 158.067 153.774 173.358 152.823L188.202 151.809C193.198 151.429 198.333 150.758 203.327 151.375C199.715 129.963 203.025 110.007 208.132 89.3512ZM210.267 89.3512C210.307 109.598 208.214 129.654 211.122 149.877C215.731 150.196 220.418 149.582 225.01 149.193L242.062 147.866C274.521 145.603 306.832 144.328 339.363 144.495C345.074 144.524 351.163 145.286 356.814 144.499C365.495 146.457 380.172 146.82 389.638 147.876C389.246 130.56 389.811 112.114 389.638 94.4818C383.759 92.6449 377.529 92.5205 371.421 92.0877C327.405 88.9682 284.324 88.5067 240.279 88.5217L210.267 89.3512Z"/>
	<path fill="#ff5d15" transform="scale(2 2)" d="M384.811 400.814C398.415 404.966 400.671 417.382 387.228 423.995C379.463 427.815 370.921 426.192 362.624 425.698C345.263 424.665 328.067 428.27 310.815 429.644C262.051 433.528 212.831 435.999 163.974 432.695C150.933 431.813 128.417 431.761 129.261 413.304C139.326 419.602 151.671 418.697 163.079 419.069L188.638 420.077C240.46 422.347 292.124 425.462 343.96 421.8C360.954 420.6 379.229 421.623 384.811 400.814Z"/>
	<path transform="scale(2 2)" d="M246.602 175.897C288.483 172.89 340.017 206.794 343.853 250.875C344.56 258.992 347.676 263.39 348.502 270.863C353.535 316.363 317.412 355.867 274.692 365.395C269.123 366.637 263.474 367.21 257.812 367.85C228.575 367.127 209.693 364.528 185.89 343.544C123.419 288.475 161.008 180.568 246.602 175.897ZM257.812 339.251C292.764 338.401 323.727 308.57 322.755 273.153C321.804 238.539 289.39 202.594 253.547 207.998C235.414 208.51 217.655 216.395 205.151 229.58C164.268 272.691 199.504 341.13 257.812 339.251ZM286.026 349.419C299.337 345.549 314.216 333.891 322.999 323.707C336.571 307.97 341.519 290.644 342.734 270.272C343.369 259.617 344.276 261.5 340.029 251.24C322.762 209.536 289.498 183.269 242.525 187.303C170.705 193.47 138.563 288.749 195.679 336.203C194.436 333.408 191.828 331.359 189.927 329.023C173.071 308.316 170.072 277.33 178.392 252.604C192.584 210.422 239.462 184.383 282.388 198.957C326.089 213.794 343.398 253.206 328.676 296.384C322.384 314.837 311.11 328.248 296.729 341.057C293.973 343.512 287.974 347.135 286.026 349.419Z"/>
	<path fill="#ff5d15" transform="scale(2 2)" d="M195.679 336.203C194.436 333.408 191.828 331.359 189.927 329.023C173.071 308.316 170.072 277.33 178.392 252.604C192.584 210.422 239.462 184.383 282.388 198.957C326.089 213.794 343.398 253.206 328.676 296.384C322.384 314.837 311.11 328.248 296.729 341.057C293.973 343.512 287.974 347.135 286.026 349.419C261.157 362.392 215.035 355.962 195.679 336.203ZM257.812 339.251C292.764 338.401 323.727 308.57 322.755 273.153C321.804 238.539 289.39 202.594 253.547 207.998C235.414 208.51 217.655 216.395 205.151 229.58C164.268 272.691 199.504 341.13 257.812 339.251Z"/>
	<path transform="scale(2 2)" d="M253.547 207.998C289.39 202.594 321.804 238.539 322.755 273.153C323.727 308.57 292.764 338.401 257.812 339.251C199.504 341.13 164.268 272.691 205.151 229.58C217.655 216.395 235.414 208.51 253.547 207.998ZM198.175 266.693C221.939 260.536 237.405 277.37 254.799 272.576C260.862 270.139 265.589 266.331 270.808 262.527C283.583 253.215 296.676 254.293 310.922 257.824C304.622 232.384 280.297 216.034 254.799 216.373C228.786 218.254 198.644 236.809 198.205 265.248L198.175 266.693ZM199.305 284.82C221.165 269.293 245.434 304.033 274.125 284.14C290.392 272.861 289.655 269.008 312.662 273.591C312.75 265.76 300.987 265.577 294.745 265.589C273.421 265.629 266.799 289.511 239.479 283.037C227.372 280.169 210.128 269.277 198.175 277.833C198.51 280.169 198.819 282.51 199.305 284.82Z"/>
	<path fill="#ff5d15" transform="scale(2 2)" d="M199.305 284.82C221.165 269.293 245.434 304.033 274.125 284.14C290.392 272.861 289.655 269.008 312.662 273.591C310.542 305.645 281.763 330.354 249.714 328.086C225.716 326.388 204.1 308.645 199.305 284.82Z"/>
	<path transform="scale(2 2)" d="M353.792 175.897C369.112 172.998 373.759 200.456 355.109 202.271C336.578 202.658 335.612 175.439 353.792 175.897ZM355.109 191.755C358.619 189.318 357.165 185.236 352.654 185.785C349.611 188.65 350.521 191.868 355.109 191.755Z"/>
	<path transform="scale(2 2)" d="M247.857 102.534L248.115 102.524C253.66 102.304 260.849 101.845 265.197 106.046C272.132 112.744 270.349 129.842 263.802 136.12C259.961 139.803 254.4 139.823 249.439 139.748C244.934 139.852 234.753 138.541 231.311 135.662C225.71 130.976 227.685 111.041 231.536 106.565C234.06 103.632 244.033 102.904 247.857 102.534ZM249.439 129.465C251.581 129.339 253.668 129.521 255.795 129.465C263.575 117.965 260.071 107.68 244.674 109.748C234.932 110.005 234.045 114.467 234.687 123.581C235.199 130.859 244.062 130.137 249.439 129.465Z"/>
	<path transform="scale(2 2)" d="M291.254 113.32C300.523 109.685 309.181 120.23 296.563 123.99C278.808 122.077 281.959 112.656 291.254 113.32Z"/>
	<path transform="scale(2 2)" d="M343.142 114.324C356.004 113.492 357.563 124.482 348.751 125.257C334.656 125.424 332.173 115.967 343.142 114.324Z"/>
	<path transform="scale(2 2)" d="M317.349 113.32C329.924 113.027 333.48 122.793 322.749 123.99C319.747 123.815 316.156 123.935 313.475 122.417C307.111 118.815 312.463 114.077 317.349 113.32Z"/>
	<path transform="scale(2 2)" d="M366.937 116.28C379.67 115.71 383.332 124.791 373.85 127.029C362.305 127.907 356.869 118.785 366.937 116.28Z"/>
</svg>
