<?xml version="1.0" encoding="utf-8" ?>
<svg xmlns="http://www.w3.org/2000/svg" xmlns:xlink="http://www.w3.org/1999/xlink" width="1024" height="1024">
	<path transform="scale(2 2)" d="M234.362 82.4629C237.495 82.348 240.677 82.3783 243.812 82.4629C243.731 86.1146 242.847 89.8499 242.175 93.4371C236.593 123.235 219.26 155.83 185.187 157.675C180.005 157.956 174.654 157.093 169.535 157.692L169.065 157.749C171.735 167.31 173.233 177.325 173.267 187.25C186.6 184.035 197.02 172.962 208.312 165.721C232.994 149.896 263.68 155.311 279.422 180.509C297.696 209.762 293.577 251.498 286.285 283.52C322.528 279.994 361.675 247.419 373.307 213.43C378.889 197.12 379.824 172.451 398.527 166.191C397.302 155.373 394.567 143.705 388.83 134.373C384.098 126.674 374.243 116.102 377.813 106.316C382.101 94.5598 402.619 88.4183 413.439 92.4078C428.179 97.8431 425.654 115.498 426.878 128.307C427.817 138.136 429.389 149.219 433.26 158.361C435.608 163.905 440.628 166.387 444.539 170.648C456.504 183.683 461.462 203.717 463.965 220.665C470.185 262.778 461.045 307.935 439.986 344.96C437.702 348.976 434.572 352.619 433.079 357.044C430.963 359.174 429.353 361.661 427.565 364.057C393.097 410.262 336.381 436.802 278.482 425.968C260.95 422.687 215.57 407.43 204.817 391.757C199.93 392.466 194.477 392.833 189.614 391.757C184.325 395.818 179.361 398.591 172.526 398.772C144.85 399.505 106.017 352.55 90.7572 331.809C72.3423 306.778 49.1466 265.057 48.5397 233.659C48.0691 209.317 61.6628 183.67 86.4132 177.553C115.411 170.386 136.3 189.483 161.088 189.252C156.498 168.135 148.991 145.188 130.442 132.206C124.367 127.954 114.534 125.397 117.203 116.095C119.669 107.503 122.978 103.674 132.12 106.527C147.731 111.401 156.808 129.021 163.794 142.555C168.019 102.062 195.965 87.3236 234.362 82.4629ZM134.433 364.819C154.199 382.532 167.463 393.409 187.849 373.381C190.538 374.756 193.43 376.1 196.316 377.003C195.82 371.959 196.131 367.626 197.623 362.774C194.647 359.127 191.2 355.558 187.849 352.248C190.861 348.351 195.1 345.455 198.607 342.022C200.899 345.348 202.778 348.775 204.817 352.248C215.683 346.382 227.518 344.06 239.374 348.254C259.925 322.481 275.139 281.896 278.44 249.324C280.835 225.682 278.632 193.538 258.706 177.709C252.426 172.72 240.369 167.225 232.171 168.751C211.018 172.336 196.929 195.767 169.19 200.802C138.986 206.286 112.53 178.376 82.4785 190.652C75.7353 193.407 70.0591 197.64 65.8296 203.606C39.5033 240.741 81.416 307.766 105.045 335.638C113.899 346.081 124.028 355.927 134.433 364.819ZM283.517 295.425C279.285 308.935 273.868 321.67 266.55 333.818C263.612 338.693 259.711 343.196 257.149 348.254C262.905 348.256 268.684 348.364 274.438 348.254C312.89 348.517 360.27 325.384 386.763 299.301C393.741 292.431 397.28 285.027 401.094 276.127C410.576 254 428.552 197.935 409.302 178.73C406.921 176.355 403.949 174.346 400.458 174.53C386.411 178.568 384.577 206.458 381.125 217.894C370.277 253.835 340.561 280.969 304.709 291.541C296.8 293.874 290.886 293.874 283.517 295.425ZM125.643 111.785C123.889 114.069 119.393 121.207 125.643 119.707C127.288 118.871 133.02 111.089 125.643 111.785ZM236.909 88.8537C236.108 88.8493 235.143 88.7338 234.362 88.8537C200.246 92.7507 169.823 107.887 170.254 145.842C180.023 126.751 200.309 103.844 222.64 100.34C221.228 101.175 219.575 101.405 218.235 102.286C199.513 114.131 181.812 130.054 174.731 151.762C214.439 152.431 230.92 125.332 236.909 88.8537ZM433.079 174.53C433.239 175.726 435.857 180.514 436.463 182.28C459.366 248.948 438.322 332.224 384 377.932C365.641 393.38 335.127 406.472 310.919 410.524C307.517 411.093 299.104 411.73 296.454 412.774C325.607 415.11 362.912 402.787 386.181 384.567C433.952 347.163 458.751 274.17 450.009 215.476C448.235 203.561 442.772 181.721 433.079 174.53Z"/>
	<path transform="scale(2 2)" d="M99.4862 289.251C98.3074 288.468 97.2661 287.283 96.245 286.294C80.583 271.117 65.8781 246.691 72.175 224.257C81.8255 189.875 121.504 203.472 145.794 210.262C142.848 212.504 136.507 214.831 134.433 217.748L135.13 218.714L135.016 218.994C134.55 219.094 134.026 219.157 133.585 219.335C121.687 220.926 113.532 222.113 105.681 232.39C91.2421 251.286 102.234 268.363 102.334 285.719C103.45 288.705 104.716 291.58 106.021 294.487C104.086 292.915 101.751 290.199 99.4862 289.251Z"/>
	<path fill="#ff5d15" transform="scale(2 2)" d="M99.4862 289.251C98.3074 288.468 97.2661 287.283 96.245 286.294C80.583 271.117 65.8781 246.691 72.175 224.257C81.8255 189.875 121.504 203.472 145.794 210.262C142.848 212.504 136.507 214.831 134.433 217.748C132.152 217.898 128.836 214.819 126.755 213.824C116.143 208.751 101.596 208.323 91.8548 215.63C72.8647 229.873 82.4816 259.845 92.05 276.703C94.4254 280.889 97.517 284.88 99.4862 289.251Z"/>
	<path fill="#ff5d15" transform="scale(2 2)" d="M102.334 285.719C100.398 283.063 99.1881 279.552 97.9164 276.534C91.8527 262.146 80.7947 235.331 95.7587 222.674C104.904 214.938 121.806 218.271 133.585 219.335C121.687 220.926 113.532 222.113 105.681 232.39C91.2421 251.286 102.234 268.363 102.334 285.719Z"/>
	<path fill="#ff5d15" transform="scale(2 2)" d="M388.602 116.938C397.731 117.017 405.122 114.694 412.966 110.205C414.906 126.918 414.59 150.006 423.361 164.089C425.938 168.227 430.46 170.501 433.079 174.53C433.239 175.726 435.857 180.514 436.463 182.28C459.366 248.948 438.322 332.224 384 377.932C365.641 393.38 335.127 406.472 310.919 410.524C307.517 411.093 299.104 411.73 296.454 412.774C280.512 414.093 253.705 407.36 239.68 401.162C227.586 395.818 199.389 383.422 207.923 365.76C214.796 351.536 236.419 358.532 248.126 359.905C294.555 365.35 353.801 344.122 384.009 308.277C388.153 303.36 390.574 298.25 394.236 293.298C402.297 282.397 407.709 276.555 413.829 263.4C425.578 238.148 439.62 182.831 406.102 167.47C409.28 154.687 395.459 127.208 388.602 116.938Z"/>
	<path transform="scale(2 2)" d="M397.222 354.507L397.353 354.648C397.062 356.531 394.973 358.362 393.89 359.889C366.718 398.209 311.283 405.895 268.498 395.614C261.067 393.828 253.882 391.14 246.687 388.592C244.598 387.825 242.563 386.92 240.52 386.041C249.868 387.643 258.929 390.336 268.385 391.651C304.203 396.632 344.02 389.001 375.149 370.483C382.942 365.847 390.003 359.974 397.222 354.507Z"/>
	<path transform="scale(2 2)" d="M406.102 319.535C411.527 320.167 414.236 328.588 408.161 330.213C403.078 328.455 399.232 321.26 406.102 319.535Z"/>
	<path transform="scale(2 2)" d="M369.55 350.031C375.833 349.561 378.134 357.072 373.502 360.684C368.272 360.258 364.261 353.109 369.55 350.031Z"/>
	<path transform="scale(2 2)" d="M323.51 366.544C327.529 365.965 329.225 368.237 330.284 371.843C329.765 373.755 329.296 374.728 327.801 376.044C322.82 377.115 318.588 369.395 323.51 366.544Z"/>
	<path transform="scale(2 2)" d="M422.759 278C427.667 278.031 431.303 284.255 426.47 287.326C421.468 286.984 417.314 280.791 422.759 278Z"/>
	<path transform="scale(2 2)" d="M351.348 289.251C357.273 289.442 361.122 296.545 355.36 300.306C349.881 300.156 345.042 291.945 351.348 289.251Z"/>
	<path transform="scale(2 2)" d="M313.119 310.274C319.158 310.409 322.007 318.46 316.23 321.096C311.127 320.829 306.925 312.331 313.119 310.274Z"/>
	<path transform="scale(2 2)" d="M380.019 256.74C385.794 257.095 387.888 264.637 382.719 267.313C377.813 267.155 373.711 259.014 380.019 256.74Z"/>
	<path fill="#ff5d15" transform="scale(2 2)" d="M401.519 100.34C403.901 100.186 405.856 100.462 408.161 101.041C403.717 104.688 397.991 106.91 392.333 107.674C390.305 108.019 388.075 107.789 386.036 107.674C390.159 103.061 395.498 101.109 401.519 100.34Z"/>
</svg>
