<?xml version="1.0" encoding="utf-8" ?>
<svg xmlns="http://www.w3.org/2000/svg" xmlns:xlink="http://www.w3.org/1999/xlink" width="1024" height="1024">
	<path transform="scale(2 2)" d="M407.192 63.7507C439.915 60.5632 460.397 98.9215 440.148 126.317C435.769 132.242 429.702 136.995 424.23 141.882L341.221 214.781C330.6 224.206 319.697 233.463 309.62 243.47C314.694 248.38 314.433 253.258 307.407 255.377C305.107 254.693 303.482 253.625 301.55 252.257C298.749 254.904 295.977 257.495 292.864 259.781C286.265 314.826 217.304 420.326 168.343 441.599C148.757 450.109 128.793 450.666 108.875 442.841C64.4488 425.539 51.3783 372.193 75.3056 332.164C81.4328 321.913 89.9353 312.917 98.3848 304.562C134.981 268.376 188.328 234.377 239.273 222.118C240.9 221.727 250.929 220.27 250.962 220.257C250.977 220.251 258.389 212.349 259.496 211.414C249.08 200.237 259.808 193.924 267.488 202.45C270.28 199.743 272.831 196.751 275.427 193.857L374.162 84.3053C384.754 72.5396 390.767 66.1947 407.192 63.7507ZM92.1056 410.692C97.8768 407.88 130.947 369.265 139.097 360.989C168.039 331.598 198.324 303.626 228.347 275.355C240.867 263.566 252.71 250.951 265.468 239.434L265.565 239.106L265.394 238.993C255.796 244.174 245.982 248.859 236.45 254.211C190.436 280.049 110.322 330.264 94.2137 384.376C91.699 392.824 90.1563 401.966 92.1056 410.692ZM267.488 219.411C265.147 221.228 263.238 223.06 261.35 225.338C266.646 230.75 271.882 236.191 277.071 241.707C278.505 243.232 285.607 252.186 286.908 250.693C288.89 248.618 290.967 246.582 292.864 244.432C285.291 237.46 274.777 227.92 268.087 220.108L267.488 219.411ZM117.493 433.389C132.368 438.809 150.715 436.165 164.788 429.617C179.622 422.714 188.897 412.109 199.019 399.88C231.656 360.451 262.565 307.28 279.589 259.794C279.866 259.02 280.225 258.281 280.122 257.444C276.119 263.751 272.719 270.493 269.047 276.998C246.442 317.034 221.866 356.675 190.074 390.121C169.295 411.981 145.371 429.367 114.092 431.722C115.21 432.302 116.32 432.926 117.493 433.389ZM249.511 234.793C232.976 241.165 216.502 247.182 200.504 254.87C166.045 271.429 112.383 304.712 89.4023 333.755C75.3896 351.464 72.6493 375.593 78.8997 396.955L80.2125 400.269C80.5232 336.154 173.982 276.452 222.885 249C227.593 246.357 232.209 243.499 237.016 241.046C239.111 239.977 248.873 235.909 249.613 234.849L249.511 234.793ZM269.998 250.693C236.947 281.97 207.065 317.728 174.366 349.743C153.54 370.133 131.915 389.452 110.381 409.08C108.454 410.836 97.5056 418.624 101.586 419.43C138.54 425.596 170.314 395.722 192.602 369.937C218.496 339.981 237.872 309.1 257.252 274.785C259.126 271.468 269.82 252.666 269.998 250.693Z"/>
	<path fill="#FF5D15" transform="scale(2 2)" d="M407.192 75.0832C414.335 74.1209 420.865 76.5986 426.773 80.422L290.009 215.614L284.752 221.165C281.528 217.818 278.117 214.629 274.762 211.414C280.208 205.481 285.389 199.3 290.748 193.287L380.456 93.8854C388.681 84.9259 394.293 76.6589 407.192 75.0832Z"/>
	<path fill="#FF5D15" transform="scale(2 2)" d="M429.443 93.4912C430.986 91.8801 432.568 90.3756 434.254 88.9148C442.868 108.785 432.057 119.573 419.087 131.316L324.535 214.699C316.451 221.948 308.353 229.116 300.503 236.622L295.576 231.879C294.561 231.005 293.73 229.947 292.864 228.93C295.425 225.803 298.468 222.982 301.319 220.12L405.381 117.278C413.394 109.357 421.127 101.098 429.443 93.4912Z"/>
</svg>
