<?xml version="1.0" encoding="utf-8" ?>
<svg xmlns="http://www.w3.org/2000/svg" xmlns:xlink="http://www.w3.org/1999/xlink" width="1024" height="1024">
	<path transform="scale(2 2)" d="M99.6198 105.251C140.565 105.159 204.4 115.5 235.424 145.968C269.024 115.471 328.81 112.23 371.426 119.449C374.177 119.915 376.039 120.589 377.694 122.925C378.142 127.92 378.257 132.936 378.752 137.927C393.351 138.619 395.034 151.522 397.967 162.998C406.749 197.374 421.224 233.789 434.601 266.569L447.839 299.293C453.509 313.246 465.304 335.188 444.466 343.839C438.627 346.264 432.025 346.188 425.876 347.31C412.485 349.755 398.896 352.16 385.648 355.25C380.663 355.998 375.729 357.165 370.778 358.112L314.641 368.028C310.115 368.785 305.512 369.339 301.046 370.399C291.241 381.743 284.591 395.461 275.076 406.95C270.244 404.387 265.632 401.079 261.03 398.116L231.139 378.587C228.517 376.883 226.145 374.023 223.244 372.861C220.006 371.564 204.216 370.648 199.786 370.187L118.721 361.732C110.696 360.873 95.7777 360.462 88.6777 358.582C77.6679 355.667 67.026 343.582 65.5386 332.066C64.6297 325.028 64.6079 317.649 64.1604 310.556L57.2322 206.127C55.5426 183.689 49.9728 162.74 73.5654 149.655C74.2896 134.79 88.5131 129.751 101.333 128.132C100.302 121.607 93.4331 107.716 99.6198 105.251ZM122.173 291.25C166.313 291.209 220.493 301.439 254.161 332.34C256.893 334.847 259.391 337.67 262.39 339.859C265.005 335.678 268.855 332.08 272.498 328.772C302.278 301.734 345.743 288.512 385.648 288.377C391.988 288.125 398.679 288.663 404.977 289.449C403.418 284.74 401.525 280.134 399.778 275.492C383.745 232.873 374.187 192.832 369.865 147.806C369.295 141.872 369.157 135.807 368.319 129.912C336.912 122.444 270.53 128.217 244.867 153.379C241.914 156.275 239.652 159.243 235.424 160.023C230.733 158.701 227.146 153.898 223.385 150.921C196.003 129.252 141.439 115.597 105.559 115.488C118.254 169.539 127.65 221.471 123.504 277.539C123.166 282.098 122.357 286.695 122.173 291.25ZM229.401 372.324C243.681 376.977 259.236 383.153 271.954 391.374C274.373 387.991 276.673 384.527 279.052 381.116C281.142 378.164 283.164 375.054 285.537 372.324C272.627 372.971 264.079 377.54 251.094 375.114C245.9 374.144 234.682 372.051 229.401 372.324ZM71.5095 248.22C75.1066 240.999 67.9487 191.573 76.8702 179.327C76.2638 172.876 75.4781 166.436 74.5607 160.023C61.4723 169.586 66.5536 189.263 67.6693 202.655C68.9347 217.842 69.8865 233.069 71.5095 248.22Z"/>
	<path transform="scale(2 2)" d="M239.892 167.866C246.126 168.396 249.502 225.395 251.393 242.478L254.308 270.972C254.776 275.872 257.032 281.678 252.687 285.279C247.991 287.04 245.123 285.124 244.562 280.299C243.716 273.023 243.411 265.584 242.923 258.274L238.841 197.229C238.439 191.138 236.036 172.686 239.892 167.866Z"/>
	<path transform="scale(2 2)" d="M139.281 195.003C167.672 194.28 193.777 203.661 217.572 218.602C219.722 219.952 223.797 222.151 224.917 224.416C227.678 229.997 220.674 233.359 216.176 231.208L215.858 231.053C193.331 213.087 154.889 197.681 126.804 196.6C130.904 195.353 135.045 195.292 139.281 195.003Z"/>
	<path transform="scale(2 2)" d="M138.123 168.251C161.859 167.092 185.178 173.345 206.032 184.426C210.064 186.569 222.331 192.152 222.835 197.365C223.496 204.198 216.467 204.726 211.422 199.998C208.804 199.049 206.134 196.723 203.8 195.14C177.291 177.158 153.823 172.694 123.363 169.787C128.048 168.728 133.324 168.715 138.123 168.251Z"/>
	<path transform="scale(2 2)" d="M131.171 223.386C134.521 222.785 137.978 223.346 141.351 223.441C167.019 224.168 201.865 236.409 223.207 251.835C226.592 254.281 227.607 257.224 224.936 260.746C219.205 266.159 210.23 255.818 204.324 251.994C186.51 240.461 166.782 231.024 145.956 226.481C141.988 225.615 134.468 225.044 131.171 223.386Z"/>
	<path transform="scale(2 2)" d="M325.317 199.998C330.156 199.687 343.39 199.588 347.373 201.82C351.875 204.342 350.99 211.492 345.62 212.219C342.285 212.671 336.727 211.463 333.097 211.294C325.539 210.942 317.444 212.044 310.063 213.643C304.635 214.892 299.401 217.499 293.995 218.476C290.61 216.702 287.473 212.936 290.512 209.184C295.094 203.525 317.987 200.687 325.317 199.998Z"/>
	<path transform="scale(2 2)" d="M310.063 169.787C315.508 169.483 343.054 169.846 346.211 174.99C348.391 178.539 346.161 181.864 343.024 183.719C338.763 183.947 328.761 180.611 323.483 179.814C314.559 178.467 305.501 178.497 296.5 178.509C283.634 179.043 270.616 180.126 258.199 183.719C273.586 174.161 292.282 171.085 310.063 169.787Z"/>
	<path transform="scale(2 2)" d="M336.36 233.387C340.607 233.201 348.802 233.1 352.64 234.509C357.713 236.372 357.723 244.432 352.092 245.352C349.085 245.844 345.397 244.926 342.328 244.78C334.669 244.413 323.907 245.347 316.814 248.22C312.441 247.874 307.568 252.033 303.498 250.29C299.381 248.527 299.411 244.489 301.046 240.979C308.533 235.983 327.311 233.762 336.36 233.387Z"/>
	<path transform="scale(2 2)" d="M262.39 278.353C265.616 278.676 266.556 285.359 266.671 287.848C267.376 303.056 249.878 306.204 239.892 296.536C238.653 294.943 235.187 290.198 236.729 288.086C241.495 288.574 244.472 297.847 254.755 293.541C263.545 289.86 260.175 282.692 262.39 278.353Z"/>
	<path fill="#FF5D15" transform="scale(2 2)" d="M102.348 131.794C109.562 165.171 113.52 206.922 113.527 240.79C113.53 254.194 113.697 285.241 109.689 297.374C114.727 305.361 120.461 302.427 129.436 302.59C168.841 303.304 212.488 312.682 243.217 338.322C246.658 341.192 259.987 356.521 261.191 356.718C266.981 357.665 267.049 352.491 269.618 349.113C295.482 315.105 356.401 294.851 398.831 300.127C403.467 300.704 412.643 304.894 416.426 302.123C422.549 297.638 413.725 280.915 411.678 275.295C396.974 234.927 381.427 181.487 378.752 137.927C391.656 143.662 391.413 153.328 393.385 165.583C400.108 207.365 414.485 246.877 430.531 285.849L437.869 303.618C439.354 307.161 441.069 310.661 442.227 314.326C414.895 318.575 387.694 323.075 360.495 328.116C327.605 334.212 289.561 338.357 265.639 364.349L265.64 364.6C282.572 348.868 314.006 345.914 335.721 342.321C372.294 336.269 409.871 332.532 446.026 326.135C442.166 336.897 433.662 334.799 423.506 336.525C416.16 337.774 408.819 339.139 401.502 340.546L341.373 352.643C315.13 357.985 282.308 364.587 257.418 374.927C223.763 361.59 167.988 355.775 131.003 352.12L104.504 349.558C93.2525 348.485 82.3461 348.22 77.0884 334.962C75.162 330.104 75.6404 323.876 75.3553 318.751L72.1755 264.328C71.901 258.972 71.3885 253.586 71.5095 248.22C75.1066 240.999 67.9487 191.573 76.8702 179.327C81.2674 201.236 82.1089 228.193 84.4808 250.681C85.1926 257.429 85.2407 265.134 86.9798 271.641C87.018 250.571 87.1646 229.664 85.9285 208.615L83.2175 160.029C82.0128 135.15 89.7989 143.259 102.348 131.794Z"/>
	<path transform="scale(2 2)" d="M89.3284 280.168C92.2931 283.248 88.8765 320.421 111.567 327.403C117.083 329.1 122.886 328.532 128.567 328.501C166.963 328.287 209.933 330.95 241.613 355.256C243.67 356.834 246.883 358.954 248.151 361.218L247.772 361.065C221.934 337.882 164.067 338.452 129.003 338.604C116.519 338.658 105.687 339.63 96.2003 329.25C84.0938 316.003 88.6549 296.371 89.3284 280.168Z"/>
</svg>
