<?xml version="1.0" encoding="utf-8" ?>
<svg xmlns="http://www.w3.org/2000/svg" xmlns:xlink="http://www.w3.org/1999/xlink" width="1024" height="1024">
	<path transform="scale(2 2)" d="M358.948 78.7388C373.875 78.6116 391.904 75.9652 392.24 95.9131C392.684 122.379 399.118 175.296 412.238 199.629C421.979 217.695 437.732 231.331 441.244 252.174C445.53 277.611 423.138 291.261 405.997 304.83C385.077 321.39 368.814 341.9 354.091 364.053C329.233 401.456 313.378 422.655 265.057 431.371C243.248 433.284 222.012 421.518 218.906 398.505C212.537 351.313 275.946 309.782 287.413 266.122C297.298 228.486 274.75 166.965 260.171 131.819C253.47 115.663 249.292 109.398 268.477 99.8801C296.839 85.8102 328.085 82.1256 358.948 78.7388ZM280.749 149.342C286.969 162.218 291.353 181.424 295.453 195.248C301.837 195.179 308.303 195.916 313.478 200.014L313.904 200.107C330.562 203.847 332.101 226.824 353.819 213.305C369.823 203.342 374.325 196.227 394.747 189.759C390.549 174.925 386.858 159.91 384.221 144.712C383.694 141.679 382.186 127.401 381.294 126.31C350 140.884 315.312 149.359 280.749 149.342ZM377.773 215.781C383.147 221.349 373.072 226.783 371.415 220.192C367.319 222.676 363.625 226.376 361.123 230.472C372.595 228.243 362.752 244.734 358.948 235.032C356.015 239.188 354.899 244.826 354.545 249.817C362.881 247.712 361.249 259.676 354.545 256.675C354.485 260.949 354.343 267.111 355.998 271.056C357.278 268.965 359.53 267.509 361.871 269.034C365.787 271.584 361.568 279.107 357.022 275.12C358.547 287.818 365.867 299.035 369.255 310.563C369.944 313.456 371.532 315.936 372.981 318.497C376.781 314.283 380.677 310.217 384.691 306.208C363.383 262.283 358.387 237.864 406.41 213.56C404.341 211.392 402.935 208.682 401.419 206.119C393.525 207.729 384.59 211.58 377.773 215.781ZM275.013 115.5C303.556 115.727 332.171 107.775 358.664 97.7091C363.767 95.7706 369.28 93.982 374.08 91.3921C371.472 91.3571 368.841 91.2488 366.236 91.3921C341.62 92.0796 288.983 100.069 267.623 114.736C270.071 115.22 272.529 115.346 275.013 115.5ZM398.394 295.349C387.669 267.693 388.474 244.794 417.828 230.472C415.888 227.039 413.426 224.068 410.952 221.018C378.551 239.814 372.689 253.124 387.949 287.753C389.655 291.626 391.222 295.524 393.624 299.03C395.167 297.761 396.691 296.397 398.394 295.349ZM267.623 341.214C267.214 339.301 267.05 337.43 269.454 337.389C272.483 333.549 275.804 329.485 278.718 325.669C277.451 322.662 279.549 321.225 282.287 321.582C284.852 317.737 288.055 314.322 290.754 310.563C289.136 307.242 291.119 305.639 294.24 306.208C296.857 299.962 300.581 294.3 303.185 287.785C314.872 258.541 312.202 234.253 304.91 204.305C302.361 203.335 299.665 202.848 296.987 202.38C298.659 211.77 300.87 221.004 301.943 230.503C305.818 264.822 294.064 290.181 273.593 316.236L259.802 333.769C255.402 339.382 250.935 345.106 247.658 351.463C250.811 352.261 253.982 353.096 257.036 354.224C258.809 350.241 263.659 343.262 267.623 341.214ZM239.373 412.209C236.351 391.991 241.396 383.328 250.276 365.054L240.779 362.198C233.13 376.001 224.109 400.119 239.373 412.209ZM282.287 143.776C284.71 143.502 279.292 132.326 278.718 127.506C276.377 127.478 274.098 127.402 271.804 126.899C274.051 132.683 276.31 143.286 282.287 143.776Z"/>
	<path fill="#FF5D15" transform="scale(2 2)" d="M304.91 204.305C324.085 211.37 332.445 230.242 352.499 221.018C343.011 235.112 339.046 245.875 342.497 263.593C346.259 282.904 357.763 307.01 367.857 323.859C362.117 332.288 355.125 339.697 349.587 348.345C340.498 336.979 309.716 306.954 294.24 306.208C296.857 299.962 300.581 294.3 303.185 287.785C314.872 258.541 312.202 234.253 304.91 204.305Z"/>
	<path fill="#FF5D15" transform="scale(2 2)" d="M250.276 365.054C271.055 372.545 287.934 386.958 296.987 407.247C285.348 413.973 249.328 426.396 239.373 412.209C236.351 391.991 241.396 383.328 250.276 365.054Z"/>
	<path fill="#FF5D15" transform="scale(2 2)" d="M278.718 127.506C305.458 129.384 356.991 113.778 379.954 102.242C380.287 108.204 380.893 114.127 381.294 120.08C348.311 133.646 318.182 143.863 282.287 143.776C284.71 143.502 279.292 132.326 278.718 127.506Z"/>
	<path transform="scale(2 2)" d="M302.5 131.287L303.455 131.42C308.692 132.103 308.376 136.214 302.5 136.893C295.873 137.758 297.16 132.852 302.5 131.287Z"/>
	<path transform="scale(2 2)" d="M322.264 127.506C326.402 128.948 322.676 132.83 317.637 133.754C310.335 132.145 319.053 128.347 322.264 127.506Z"/>
	<path transform="scale(2 2)" d="M285.789 133.754C290.871 132.895 291.974 137.171 287.426 138.736C282.685 138.97 280.928 135.006 285.789 133.754Z"/>
	<path transform="scale(2 2)" d="M365.053 286.769C370.419 286.056 371.606 291.5 367.857 294.416C362.019 295.248 360.589 289.692 365.053 286.769Z"/>
	<path fill="#FF5D15" transform="scale(2 2)" d="M417.828 230.472C423.807 235.949 428.96 247.895 429.334 256.054C430.076 272.243 416.517 280.742 405.377 289.763C403.178 291.543 400.812 293.94 398.394 295.349C387.669 267.693 388.474 244.794 417.828 230.472Z"/>
	<path fill="#FF5D15" transform="scale(2 2)" d="M267.623 341.214C271.86 344.324 277.145 345.775 281.663 348.429C297.768 357.885 312.26 370.717 322.264 386.591C318.412 391.659 313.173 396.773 307.808 400.168C297.879 381.184 277.898 361.213 257.036 354.224C258.809 350.241 263.659 343.262 267.623 341.214Z"/>
	<path fill="#FF5D15" transform="scale(2 2)" d="M369.255 310.563C364.248 305.208 357.515 288.96 354.641 281.903C336.082 236.334 354.03 212.227 396.776 195.248C397.791 198.941 399.82 202.63 401.419 206.119C393.525 207.729 384.59 211.58 377.773 215.781C383.147 221.349 373.072 226.783 371.415 220.192C367.319 222.676 363.625 226.376 361.123 230.472C360.038 231.903 359.508 233.346 358.948 235.032C356.015 239.188 354.899 244.826 354.545 249.817C362.881 247.712 361.249 259.676 354.545 256.675C354.485 260.949 354.343 267.111 355.998 271.056C356.294 272.427 356.565 273.792 357.022 275.12C358.547 287.818 365.867 299.035 369.255 310.563Z"/>
	<path transform="scale(2 2)" d="M371.415 220.192C372.698 216.546 373.801 215.569 377.773 215.781C383.147 221.349 373.072 226.783 371.415 220.192Z"/>
	<path transform="scale(2 2)" d="M354.545 249.817C362.881 247.712 361.249 259.676 354.545 256.675C352.377 254.243 352.592 252.37 354.545 249.817Z"/>
	<path fill="#FF5D15" transform="scale(2 2)" d="M269.454 337.389C272.483 333.549 275.804 329.485 278.718 325.669C299.768 335.878 323.404 349.878 334.683 371.122C332.271 374.759 329.315 378.007 326.904 381.64C315.222 365.635 301.349 351.964 283.895 342.415C279.552 340.039 274.607 336.729 269.454 337.389Z"/>
	<path fill="#FF5D15" transform="scale(2 2)" d="M290.754 310.563L291.065 310.746C312.554 323.261 331.356 330.627 345.522 354.224C343.152 357.744 340.646 361.177 338.886 365.054C331.494 352.133 298.182 323.322 282.287 321.582C284.852 317.737 288.055 314.322 290.754 310.563Z"/>
	<path transform="scale(2 2)" d="M355.998 271.056C357.278 268.965 359.53 267.509 361.871 269.034C365.787 271.584 361.568 279.107 357.022 275.12C356.565 273.792 356.294 272.427 355.998 271.056Z"/>
	<path transform="scale(2 2)" d="M361.123 230.472C372.595 228.243 362.752 244.734 358.948 235.032C359.508 233.346 360.038 231.903 361.123 230.472Z"/>
	<path transform="scale(2 2)" d="M207.352 77.8845L207.783 77.8631C240.301 76.4972 237.067 83.6641 238.823 108.59C241.025 139.861 243.11 174.162 258.466 202.093C265.466 214.825 277.095 229.159 280.059 242.895C284.25 262.315 272.019 277.583 257.782 288.735C239.637 302.947 221.242 318.428 207.728 337.257C196.295 353.186 186.903 371.336 172.994 385.195C156.631 401.498 128.851 415.277 105.504 415.249C77.1296 415.885 59.9879 391.31 67.0032 364.154C74.0004 337.069 102.113 308.346 118.328 285.349C144.523 248.199 140.902 216.577 127.131 174.337C124.356 165.825 105.262 116.195 105.028 111.668C103.858 89.0263 184.183 79.0463 207.352 77.8845ZM94.8616 337.389C97.8134 338.539 100.705 339.557 103.422 341.214C106.146 335.897 110.177 331.369 113.677 326.55C114.813 324.857 115.966 323.198 117.211 321.582L124.587 311.865C125.693 310.325 126.865 308.859 128.071 307.396C130.94 304.014 133.511 300.369 136.179 296.826C137.126 295.13 138.165 293.535 139.267 291.935C148.807 279.654 155.479 263.137 157.453 247.746C159.851 229.045 155.991 218.756 153.18 201.286C151.497 200.889 149.824 200.447 148.15 200.014C148.992 206.427 150.258 212.788 150.64 219.256C153.828 273.167 121.928 297.855 94.8616 337.389ZM132.153 147.002C132.548 154.695 144.039 183.104 146.568 194.293C152.431 192.694 157.134 194.546 162.251 197.458L162.643 197.682C172.293 203.696 184.323 218.783 194.475 216.343C208.636 212.94 215.874 191.559 239.373 189.759C232.549 174.758 229.111 146.152 227.722 129.514C227.615 128.231 227.861 124.577 226.498 124.061C196.337 137.902 166.126 148.34 132.153 147.002ZM218.458 90.2488C214.389 90.2334 210.256 90.0629 206.194 90.2488C179.877 92.589 154.818 96.1637 129.919 105.573C120.544 109.116 114.163 112.096 130.617 112.518L132.153 112.55C154.001 112.416 198.062 101.611 218.458 90.2488ZM207.352 286.769C216.237 280.191 216.164 293.61 208.477 291.935C210.166 298.243 213.284 304.197 214.719 310.563C217.547 306.551 221.135 303.399 224.811 300.196C209.726 259.965 206.379 231.366 249.523 211.715C247.473 208.68 245.645 205.596 243.901 202.38C238.015 205.744 229.123 210.644 224.811 215.781C224.196 219.717 220.372 221.13 217.502 218.581C214.834 221.692 212.374 224.925 209.952 228.227C215.103 231.834 211.157 238 206.194 235.032C204.554 239.272 204.433 243.491 203.257 247.719C207.89 248.425 208.526 254.163 203.257 254.841C203.318 258.12 203.089 263.215 204.791 266.089C211.149 265.546 211.351 272.88 205.327 273.134L204.992 273.15C204.925 273.153 204.858 273.154 204.791 273.156C205.809 277.008 206.17 283.762 207.352 286.769ZM239.373 287.192C232.859 260.122 235.813 245.346 260.103 229.027C258.214 226.15 256.115 223.262 254.563 220.192C242.222 225.894 233.437 231.67 228.336 245.383C223.583 258.162 227.577 280.037 233.759 291.935C235.718 290.429 237.552 288.859 239.373 287.192ZM86.6071 396.75C78.9789 379.785 88.3335 366.178 96.4877 351.463C93.4813 350.549 90.6633 349.139 87.6142 348.345C79.5204 361.046 71.649 385.941 86.6071 396.75ZM121.233 124.061C123.863 129.873 126.718 135.744 128.842 141.76C130.22 141.786 131.596 141.821 132.974 141.76C131.487 135.962 128.612 130.767 126.896 125.06L121.233 124.061Z"/>
	<path fill="#FF5D15" transform="scale(2 2)" d="M153.18 201.286C170.793 208.547 176.988 223.975 198.058 222.25C180.766 245.306 189.093 271.136 199.105 294.967C202.063 302.008 205.728 308.759 208.477 315.883C204.427 322.164 197.982 328.577 193.375 335.404C183.692 319.392 155.174 299.918 139.267 291.935C148.807 279.654 155.479 263.137 157.453 247.746C159.851 229.045 155.991 218.756 153.18 201.286Z"/>
	<path fill="#FF5D15" transform="scale(2 2)" d="M96.4877 351.463C116.922 358.859 134.86 370.607 141.908 391.918C128.212 399.499 100.16 409.499 86.6071 396.75C78.9789 379.785 88.3335 366.178 96.4877 351.463Z"/>
	<path fill="#FF5D15" transform="scale(2 2)" d="M126.896 125.06C155.394 125.833 181.244 118.223 207.804 108.712C213.987 106.498 219.952 103.389 226.212 101.479C225.605 106.716 226.305 112.052 226.498 117.306C201.332 131.2 160.838 143.268 132.974 141.76C131.487 135.962 128.612 130.767 126.896 125.06Z"/>
	<path transform="scale(2 2)" d="M139.267 131.287C145.092 130.857 148.163 133.896 141.908 136.893C135.884 136.886 131.672 133.115 139.267 131.287Z"/>
	<path transform="scale(2 2)" d="M158.023 128.598C164.241 128.671 160.981 133.757 155.465 134.347C149.096 133.275 152.764 129.082 158.023 128.598Z"/>
	<path transform="scale(2 2)" d="M172.781 125.537C179.013 125.133 176.53 130.144 171.308 131.287C165.257 131.146 168.12 126.709 172.781 125.537Z"/>
	<path fill="#FF5D15" transform="scale(2 2)" d="M113.677 326.55C116.648 327.056 120.127 329.376 122.772 330.798C136.652 338.258 161.704 356.479 168.358 371.122C163.915 377.181 157.708 381.038 153.18 386.591C148.191 368.652 122.127 344.094 103.422 341.214C106.146 335.897 110.177 331.369 113.677 326.55Z"/>
	<path fill="#FF5D15" transform="scale(2 2)" d="M240.779 194.293C241.548 197.076 242.905 199.672 243.901 202.38C238.015 205.744 229.123 210.644 224.811 215.781C224.196 219.717 220.372 221.13 217.502 218.581C214.834 221.692 212.374 224.925 209.952 228.227C215.103 231.834 211.157 238 206.194 235.032C204.554 239.272 204.433 243.491 203.257 247.719C207.89 248.425 208.526 254.163 203.257 254.841C203.318 258.12 203.089 263.215 204.791 266.089C211.149 265.546 211.351 272.88 205.327 273.134L204.992 273.15C204.925 273.153 204.858 273.154 204.791 273.156C205.809 277.008 206.17 283.762 207.352 286.769C216.237 280.191 216.164 293.61 208.477 291.935C210.166 298.243 213.284 304.197 214.719 310.563L213.33 311.865C202.652 281.964 184.164 260.891 200.847 228.062C210.174 209.708 221.885 200.485 240.779 194.293Z"/>
	<path transform="scale(2 2)" d="M209.952 228.227C215.103 231.834 211.157 238 206.194 235.032C203.511 231.314 205.842 228.354 209.952 228.227Z"/>
	<path transform="scale(2 2)" d="M217.502 218.581C216.396 211.959 221.964 210.178 224.811 215.781C224.196 219.717 220.372 221.13 217.502 218.581Z"/>
	<path transform="scale(2 2)" d="M204.791 266.089C211.149 265.546 211.351 272.88 205.327 273.134L204.992 273.15C204.925 273.153 204.858 273.154 204.791 273.156C200.795 271.666 202.159 267.982 204.791 266.089Z"/>
	<path transform="scale(2 2)" d="M203.257 247.719C207.89 248.425 208.526 254.163 203.257 254.841C197.719 252.926 198.485 249.506 203.257 247.719Z"/>
	<path transform="scale(2 2)" d="M207.352 286.769C216.237 280.191 216.164 293.61 208.477 291.935C207.463 290.051 207.218 288.904 207.352 286.769Z"/>
	<path fill="#FF5D15" transform="scale(2 2)" d="M260.103 229.027C280.024 254.968 260.91 271.709 239.373 287.192C232.859 260.122 235.813 245.346 260.103 229.027Z"/>
	<path fill="#FF5D15" transform="scale(2 2)" d="M124.587 311.865C149.671 324.551 161.387 333.667 179.818 356.192C177.287 359.438 174.883 362.811 172.781 366.352L172.479 366.045C169.092 362.567 166.637 358.203 163.37 354.579C151.501 341.414 134.042 328.102 117.211 321.582L124.587 311.865Z"/>
	<path fill="#FF5D15" transform="scale(2 2)" d="M136.179 296.826C156.846 308.854 174.725 320.953 190.21 339.857C188.097 343.63 185.444 347.163 182.977 350.712C169.369 333.459 148.854 314.301 128.071 307.396C130.94 304.014 133.511 300.369 136.179 296.826Z"/>
</svg>
