<?xml version="1.0" encoding="utf-8" ?>
<svg xmlns="http://www.w3.org/2000/svg" xmlns:xlink="http://www.w3.org/1999/xlink" width="1024" height="1024">
	<path transform="scale(2 2)" d="M102.82 108.592C105.928 108.157 134.063 112.864 138.628 114.01C143.534 115.241 147.631 117.787 150.668 121.879C159.841 134.235 149.844 149.389 151.449 155.51C153.088 156.532 173.695 159.089 177.016 159.308C176.341 148.506 176.799 132.293 182.97 123.553C191.395 111.624 207.328 110.712 218.721 118.684C231.928 105.646 251.468 106.875 260.248 123.862C275.176 117.065 288.589 120.258 296.926 134.986C304.737 132.692 311.55 131.493 319.017 136.178C332.458 144.612 330.195 159.371 333.296 172.753L333.363 173.032C347.232 182.498 357.069 185.791 373.326 188.772C374.94 176.125 377.079 154.085 387.875 147.487C397.588 141.551 408.134 145.399 418.382 147.403C445.015 152.614 456.835 154.605 448.867 185.462C485.521 183.622 466.819 259.745 448.362 270.432C443.38 273.316 438.822 272.327 433.607 270.945L433.557 271.29C432.001 281.441 430.814 292.544 421.764 298.993C412.499 305.596 402.356 300.848 392.448 299.01C382.067 297.084 370.763 298.473 363.928 288.791C357.82 280.138 359.571 270.448 361.219 260.756L363.568 246.983C352.086 244.149 340.618 244.692 328.969 246.104C326.347 262.112 317.381 289.105 317.494 302.562C316.053 334.525 324.427 366.012 314.783 398.831L300.343 395.26C303.876 376.461 305.075 357.825 303.835 338.716C302.833 323.286 301.028 316.469 285.21 310.434C269.391 304.398 243.031 302.071 227.514 309.211C217.803 313.679 217.672 322.754 216.251 332.042C212.655 355.545 205.774 377.444 197.684 399.661C193.34 397.9 188.316 396.37 184.315 393.933C190.584 371.346 198.361 352.189 201.515 328.161C205.013 301.508 200.427 287.151 180.813 268.522C162.899 251.508 161.264 245.243 158.59 219.894C152.992 218.748 147.171 218.182 141.507 217.396C140.171 224.264 139.131 231.218 137.986 238.121C133.244 266.703 126.243 268.02 99.2112 263.414C71.0056 258.608 59.2717 257.423 64.8308 224.3C28.599 228.697 42.5231 149.226 60.9187 137.915C66.6004 134.421 73.3174 135.991 79.3937 137.397C83.134 123.544 84.1555 110.668 102.82 108.592ZM193.509 210.604C191.158 205.558 186.215 202.476 184.315 196.983C197.284 197.401 223.097 195.667 221.035 177.482C210.023 177.298 189.734 179.047 178.92 180.573C175.764 181.018 172.47 181.012 171.743 184.627C170.389 191.359 171.404 207.615 172.101 214.978C177.032 267.06 194.023 246.206 212.72 276.704C223.747 294.69 221.082 292.011 240.117 290.189C250.717 289.174 261.541 289.917 271.973 291.972C295.108 296.527 301.089 300.439 307.791 275.527C313.28 255.12 315.374 235.736 318.713 215.026C306.247 223.471 296.035 222.55 285.001 212.796C275.097 218.378 262.866 219.006 254.397 210.604C245.619 214.932 237.548 216.266 228.879 211.313C224.465 213.85 220.166 215.726 215.364 217.396C223.83 224.647 214.445 231.434 212.067 231.307L212.25 230.895L212.016 231.069C209.234 214.534 192.192 251.72 193.509 210.604ZM236.048 188.772C241.104 190.396 244.958 187.153 246.396 182.442C248.666 175.002 249.907 143.078 248.971 134.89C248.239 128.488 245.559 125.701 239.243 124.117L238.227 123.862C222.402 126.144 225.071 150.87 225.399 163.306C241.45 168.405 231.689 186.559 236.048 188.772ZM273.9 191.396C284.261 184.768 285.918 155.498 284.919 145.388C284.169 137.8 278.186 134.035 271.14 134.986C268.627 135.82 265.921 137.274 264.661 139.729C260.874 147.104 252.123 196.164 273.9 191.396ZM304.256 195.092C307.284 193.954 308.895 192.488 310.249 189.52C313.69 181.978 324.156 145.884 306.033 147.265C300.074 149.016 298.04 153.848 296.644 159.433C294.816 166.752 288.267 197.896 304.256 195.092ZM409.042 160.337C399.387 158.19 393.08 157.211 390.888 168.876C389.274 177.464 388.11 186.141 386.739 194.769L375.976 260.605C374.867 267.626 371.537 276.89 377.643 282.456C378.084 277.645 379.309 272.835 380.208 268.089L384.342 245.065C387.628 225.654 390.726 206.189 394.328 186.835C397.166 171.578 394.135 166.761 409.042 160.337ZM148.525 171.37C149.955 171.872 158.152 172.444 160.875 173.032C161.624 172.449 162.414 171.916 163.189 171.37C159.278 170.816 149.409 167.185 148.525 171.37ZM201.832 164.582C205.399 164.314 208.736 164.161 212.306 164.582C212.644 158.944 212.3 153.278 212.294 147.633C212.285 139.808 214.014 126.565 201.832 127.549C187.806 130.61 190.453 154.338 190.952 165.262C194.585 165.167 198.2 164.731 201.832 164.582ZM68.5352 150.18C57.9195 161.679 51.8 211.115 62.3564 209.702C61.2767 192.189 62.128 165.433 74.4151 151.171C72.4979 150.628 70.507 150.431 68.5352 150.18ZM79.3937 241.408C80.1387 241.576 80.7201 241.675 81.4828 241.597C84.4629 239.495 86.1708 219.662 86.8194 215.632C89.5656 198.574 97.2314 136.455 108.006 125.477C108.555 124.918 109.26 124.539 109.685 123.862C97.3032 121.53 95.3499 127.552 93.4546 138.597C88.2355 169.011 83.4922 199.606 79.1116 230.159C78.5058 234.384 77.0979 237.589 79.3937 241.408Z"/>
	<path fill="#FF5D15" transform="scale(2 2)" d="M109.685 123.862C114.817 124.122 120.006 125.231 125.07 126.078C146.413 129.646 140.09 134.221 137.164 152.84L124.265 232.371C122.945 240.355 124.111 252.397 113.53 250.992C107.005 250.125 100.515 248.938 94.0117 247.927C88.6515 247.094 81.2999 247.788 79.3937 241.408C80.1387 241.576 80.7201 241.675 81.4828 241.597C84.4629 239.495 86.1708 219.662 86.8194 215.632C89.5656 198.574 97.2314 136.455 108.006 125.477C108.555 124.918 109.26 124.539 109.685 123.862Z"/>
	<path fill="#FF5D15" transform="scale(2 2)" d="M409.042 160.337C414.001 161.142 418.93 162.135 423.862 163.088C439.655 166.142 437.537 167.561 434.801 181.845C430.469 204.454 426.708 227.189 422.598 249.843C421.099 258.108 419.233 284.362 411.396 288.158C399.494 286.159 390.296 283.757 377.643 282.456C378.084 277.645 379.309 272.835 380.208 268.089L384.342 245.065C387.628 225.654 390.726 206.189 394.328 186.835C397.166 171.578 394.135 166.761 409.042 160.337Z"/>
	<path fill="#FF5D15" transform="scale(2 2)" d="M254.397 198.838C261.575 209.946 275.439 205.462 285.001 201.862C298.405 210.081 305.664 215.01 319.499 201.862C319.025 206.294 318.599 210.561 318.713 215.026C306.247 223.471 296.035 222.55 285.001 212.796C275.097 218.378 262.866 219.006 254.397 210.604C245.619 214.932 237.548 216.266 228.879 211.313C224.465 213.85 220.166 215.726 215.364 217.396C212.509 215.814 210.684 214.83 207.287 215.026L207.287 209.702C215.021 206.452 219.542 205.184 226.993 200.508C236.514 205.543 245.08 203.304 254.397 198.838Z"/>
	<path fill="#FF5D15" transform="scale(2 2)" d="M334.274 191.396C348.945 199.137 356.133 199.658 370.815 203.274C368.798 212.606 367.612 222.269 366.128 231.707L366.111 231.859C365.581 232.458 363.632 231.894 362.856 231.77C352.147 230.063 342.207 229.693 331.498 231.707C333.124 218.311 334.283 204.896 334.274 191.396Z"/>
	<path fill="#FF5D15" transform="scale(2 2)" d="M452.151 200.508C454.503 202.271 454.495 207.974 454.602 210.652C455.221 226.133 451.634 245.991 440.95 257.585L440.67 257.837L440.286 257.776C435.157 248.332 444.298 205.725 452.151 200.508Z"/>
	<path fill="#FF5D15" transform="scale(2 2)" d="M148.525 171.37C149.955 171.872 158.152 172.444 160.875 173.032C156.163 180.11 156.816 196.718 156.937 205.352L143.401 203.274C144.803 192.61 146.979 182.022 148.525 171.37Z"/>
	<path fill="#FF5D15" transform="scale(2 2)" d="M74.4151 151.171C78.5127 151.598 72.8618 168.976 72.1214 172.958C70.5855 181.22 68.1886 203.509 62.3564 209.702C61.2767 192.189 62.128 165.433 74.4151 151.171Z"/>
</svg>
