<?xml version="1.0" encoding="utf-8" ?>
<svg xmlns="http://www.w3.org/2000/svg" xmlns:xlink="http://www.w3.org/1999/xlink" width="1024" height="1024">
	<path transform="scale(2 2)" d="M286.125 164.225C325.494 162.448 380.879 178.615 415.891 198.686C429.138 206.28 423.643 205.186 438.717 206.296C446.67 206.882 478.202 209.193 483.277 211.928C487.686 214.304 491.366 241.014 491.401 246.062C491.508 261.464 486.777 282.459 481.232 296.828C476.937 307.957 476.192 306.545 465.426 309.61C456.746 312.08 448.097 314.475 439.28 316.421C433.473 313.973 434.8 310.499 434.43 304.896C433.728 294.291 428.37 283.649 420.405 276.675C393.329 252.969 349.426 271.188 349.729 307.249C349.756 310.399 351.009 313.235 348.475 315.858C345.527 318.911 332.404 317.515 328.179 317.537L292.553 317.647C284.988 317.68 277.609 318.318 269.751 318.302L245.678 318.482C237.775 318.557 230 319.094 222.05 319.079C205.528 318.733 189.08 319.492 172.568 319.675C159.253 319.823 161.876 319.155 162.021 308.595C162.5 273.523 123.322 253.137 95.4565 273.502C70.1293 292.013 84.3973 313.01 74.8012 319.079C60.7716 316.237 45.6764 315.62 32.113 312.593C28.2236 311.725 27.2926 309.959 25.557 306.486C-6.64496 242.064 101.994 222.025 143.506 219.553C168.718 218.052 160.51 217.57 182.736 201.372C213.587 178.889 247.388 164.005 286.125 164.225ZM72.4354 255.689C64.9122 279.535 48.1925 276.427 28.8061 280.763C28.5556 289.024 30.31 296.897 34.3117 304.173C45.911 305.134 57.3444 307.915 68.9461 308.744C69.9727 292.329 73.7733 280.493 86.4227 269.267C117.224 241.933 165.841 260.964 170.995 302.248C208.09 302.274 260.293 296.096 295.442 288.068C294.157 290.807 294.774 295.736 298.577 295.868C303.173 296.028 305.927 287.832 308.785 285.026C311.105 286.101 343.789 273.828 348.344 271.87C352.711 269.992 357.125 266.811 361.764 265.749C364.982 264.243 367.954 262.256 371.239 260.895C394.534 251.242 414.805 258.564 431.757 275.301C449.43 275.484 471.314 269.621 476.68 250.25L461.475 250.275C452.815 250.28 444.886 249.174 447.988 237.395C450.297 228.624 465.019 224.074 473.298 219.225C462.147 215.885 445.264 215.735 433.59 214.805C423.853 214.029 424.465 214.787 416.212 209.543C386.519 190.675 337.848 176.292 302.313 173.661C292.598 172.942 282.934 173.518 273.22 173.246C235.95 179.228 213.371 189.304 182.501 212.811C177.304 216.769 169.676 221.965 165.211 226.454C160.005 228.279 154.487 228.043 149.03 228.295C119.326 229.664 81.9605 236.792 55.9029 250.25C63.1385 250.229 70.0455 247.795 72.4354 255.689ZM42.9742 258.796C38.5716 262.002 34.1926 266.203 31.9772 271.258C37.2602 270.635 42.5825 269.569 47.8056 268.559C53.9681 267.232 57.9947 264.565 61.4437 259.252L61.7346 258.796L42.9742 258.796ZM479.08 226.454C472.497 229.092 464.848 234.402 457.666 237.738C457.195 238.896 456.736 240.032 456.396 241.238C457.67 241.252 458.946 241.287 460.219 241.238C467.711 241.196 475.239 241.397 482.724 241.238C481.812 238.234 480.727 228.156 479.316 226.445L479.08 226.454Z"/>
	<path transform="scale(2 2)" d="M286.125 241.238C289.871 241.09 311.185 239.094 305.453 248.271C304.644 249.568 303.825 249.929 302.37 250.25C298.581 250.955 287.581 251.605 284.248 250.125C278.26 247.466 281.517 242.683 286.125 241.238Z"/>
	<path transform="scale(2 2)" d="M165.211 226.454C169.676 221.965 177.304 216.769 182.501 212.811C213.371 189.304 235.95 179.228 273.22 173.246C277.597 176.237 287.742 175.259 292.936 175.802C325.347 179.191 367.745 189.255 397.133 203.189C392.908 206.027 380.584 212.833 375.764 215.195C373.104 232.887 356.775 230.066 343.311 230.283C338.067 230.368 332.785 230.78 327.546 230.718C322.563 247.466 321.617 258.959 312.956 276.197C311.502 279.092 309.778 281.931 308.785 285.026C305.927 287.832 303.173 296.028 298.577 295.868C294.774 295.736 294.157 290.807 295.442 288.068C305.483 278.002 315.335 245.255 318.306 231.658C312.17 231.095 305.758 231.656 299.604 231.915L267.56 233.356C244.235 234.224 221.129 233.506 197.856 231.818C191.49 231.357 178.342 232.726 175.798 226.454C172.342 226.687 168.697 226.415 165.211 226.454ZM194.046 222.481C208.67 223.503 223.461 224.794 238.125 224.75C254.983 224.92 271.705 224.08 288.538 223.323C296.403 222.969 305.328 221.853 313.123 222.481C311.934 213.748 310.95 203.418 308.785 194.965C296.017 191.98 282.126 191.102 269.03 191.5C242.322 193.787 232.314 198.917 208.936 212.937C203.894 215.961 198.75 218.947 194.046 222.481ZM364.222 219.719C373.954 210.117 353.583 205.108 347.815 203.445C338.094 200.643 328.25 198.079 318.306 196.196C319.561 204.648 320.661 213.31 322.274 221.699C328.321 221.794 360.91 221.645 364.222 219.719Z"/>
	<path fill="#FF5D15" transform="scale(2 2)" d="M165.211 226.454C169.676 221.965 177.304 216.769 182.501 212.811C213.371 189.304 235.95 179.228 273.22 173.246C277.597 176.237 287.742 175.259 292.936 175.802C325.347 179.191 367.745 189.255 397.133 203.189C392.908 206.027 380.584 212.833 375.764 215.195C373.395 199.477 360.213 197.445 347.105 193.83C314.353 184.8 284.19 179.169 250.528 184.723C227.947 188.449 204.573 203.739 186.266 216.79C183.078 219.064 176.209 222.086 175.798 226.454C172.342 226.687 168.697 226.415 165.211 226.454Z"/>
	<path fill="#FF5D15" transform="scale(2 2)" d="M308.785 285.026C311.105 286.101 343.789 273.828 348.344 271.87C352.711 269.992 357.125 266.811 361.764 265.749L361.564 265.954C347.781 279.836 341.342 286.092 340.298 308.265C284.398 308.209 226.86 308.763 170.995 310.458C171.232 307.7 171.184 305.006 170.995 302.248C208.09 302.274 260.293 296.096 295.442 288.068C294.157 290.807 294.774 295.736 298.577 295.868C303.173 296.028 305.927 287.832 308.785 285.026Z"/>
	<path fill="#2C2C2C" transform="scale(2 2)" d="M476.68 250.25L482.724 250.25C481.825 256.562 480.55 270.629 477.665 275.991C476.096 283.922 473.472 291.072 470.528 298.579C463.094 301.171 451.155 304.524 443.357 305.943C442.911 298.465 441.026 293.253 439.28 286.183C436.236 283.091 434.241 278.87 431.757 275.301C449.43 275.484 471.314 269.621 476.68 250.25Z"/>
	<path fill="#FF5D15" transform="scale(2 2)" d="M476.68 250.25L482.724 250.25C481.825 256.562 480.55 270.629 477.665 275.991C463.557 281.245 453.396 283.047 439.28 286.183C436.236 283.091 434.241 278.87 431.757 275.301C449.43 275.484 471.314 269.621 476.68 250.25Z"/>
	<path transform="scale(2 2)" d="M387.654 272.994Q388.506 272.882 389.362 272.813Q390.218 272.743 391.076 272.715Q391.935 272.688 392.794 272.702Q393.653 272.717 394.51 272.774Q395.367 272.83 396.22 272.929Q397.073 273.028 397.921 273.169Q398.768 273.309 399.608 273.491Q400.447 273.673 401.277 273.896Q402.106 274.119 402.924 274.383Q403.741 274.646 404.545 274.95Q405.348 275.253 406.136 275.596Q406.924 275.938 407.694 276.319Q408.464 276.699 409.214 277.118Q409.965 277.536 410.693 277.99Q411.422 278.445 412.128 278.934Q412.834 279.424 413.515 279.948Q414.195 280.471 414.85 281.028Q415.504 281.585 416.13 282.173Q416.756 282.761 417.353 283.379Q417.949 283.997 418.515 284.643Q419.08 285.29 419.613 285.964Q420.146 286.637 420.645 287.336Q421.144 288.035 421.609 288.758Q422.073 289.481 422.501 290.225Q422.93 290.97 423.321 291.734Q423.712 292.499 424.065 293.282Q424.418 294.065 424.732 294.865Q425.047 295.664 425.321 296.478Q425.596 297.292 425.83 298.118Q426.065 298.945 426.258 299.781Q426.451 300.618 426.604 301.464Q426.756 302.309 426.866 303.161Q426.976 304.013 427.045 304.869Q427.113 305.725 427.14 306.584Q427.166 307.442 427.15 308.301Q427.134 309.16 427.076 310.017Q427.018 310.874 426.918 311.727Q426.818 312.58 426.676 313.427Q426.534 314.275 426.351 315.114Q426.167 315.953 425.943 316.782Q425.719 317.611 425.454 318.429Q425.189 319.246 424.884 320.049Q424.58 320.852 424.236 321.639Q423.893 322.426 423.511 323.196Q423.129 323.965 422.709 324.715Q422.29 325.465 421.835 326.193Q421.379 326.921 420.888 327.626Q420.398 328.331 419.873 329.011Q419.348 329.691 418.79 330.344Q418.233 330.998 417.644 331.623Q417.055 332.248 416.436 332.844Q415.817 333.439 415.169 334.004Q414.522 334.568 413.848 335.1Q413.173 335.632 412.473 336.13Q411.774 336.628 411.05 337.092Q410.327 337.555 409.582 337.982Q408.836 338.409 408.071 338.799Q407.306 339.189 406.522 339.541Q405.739 339.893 404.939 340.206Q404.139 340.519 403.324 340.793Q402.51 341.066 401.683 341.299Q400.857 341.532 400.019 341.724Q399.182 341.916 398.337 342.067Q397.491 342.218 396.639 342.327Q395.789 342.436 394.934 342.503Q394.079 342.57 393.222 342.595Q392.365 342.62 391.508 342.603Q390.651 342.586 389.796 342.527Q388.941 342.468 388.089 342.368Q387.238 342.267 386.393 342.124Q385.547 341.982 384.71 341.798Q383.872 341.615 383.045 341.39Q382.218 341.166 381.402 340.901Q380.587 340.636 379.785 340.331Q378.984 340.027 378.199 339.684Q377.413 339.34 376.645 338.959Q375.878 338.577 375.129 338.159Q374.381 337.74 373.655 337.285Q372.928 336.83 372.224 336.341Q371.521 335.851 370.842 335.327Q370.163 334.803 369.511 334.247Q368.859 333.69 368.235 333.103Q367.611 332.515 367.016 331.897Q366.422 331.28 365.858 330.634Q365.294 329.988 364.763 329.315Q364.232 328.642 363.734 327.944Q363.237 327.246 362.774 326.524Q362.311 325.802 361.884 325.059Q361.458 324.315 361.068 323.552Q360.678 322.788 360.326 322.007Q359.974 321.225 359.66 320.427Q359.347 319.629 359.073 318.816Q358.8 318.004 358.566 317.179Q358.332 316.354 358.139 315.519Q357.947 314.684 357.795 313.84Q357.643 312.996 357.533 312.146Q357.423 311.296 357.354 310.441Q357.286 309.587 357.26 308.73Q357.233 307.873 357.249 307.016Q357.265 306.159 357.322 305.303Q357.38 304.448 357.479 303.596Q357.579 302.745 357.72 301.899Q357.861 301.054 358.044 300.216Q358.226 299.378 358.449 298.551Q358.672 297.723 358.936 296.907Q359.2 296.091 359.503 295.29Q359.806 294.488 360.148 293.702Q360.49 292.916 360.871 292.147Q361.251 291.379 361.668 290.63Q362.086 289.881 362.54 289.154Q362.993 288.427 363.482 287.722Q363.971 287.018 364.494 286.339Q365.016 285.659 365.572 285.006Q366.127 284.353 366.714 283.728Q367.301 283.103 367.917 282.507Q368.534 281.912 369.179 281.347Q369.824 280.783 370.497 280.251Q371.169 279.718 371.866 279.22Q372.563 278.721 373.284 278.257Q374.005 277.793 374.748 277.365Q375.491 276.937 376.254 276.546Q377.017 276.155 377.798 275.802Q378.579 275.449 379.376 275.134Q380.174 274.82 380.986 274.545Q381.798 274.27 382.622 274.035Q383.447 273.8 384.282 273.606Q385.117 273.411 385.96 273.258Q386.804 273.105 387.654 272.994Z"/>
	<path fill="#FF5D15" transform="scale(2 2)" d="M388.285 282.039Q388.912 281.943 389.543 281.878Q390.174 281.813 390.808 281.78Q391.441 281.746 392.076 281.743Q392.71 281.741 393.344 281.77Q393.978 281.798 394.609 281.858Q395.241 281.918 395.869 282.009Q396.496 282.099 397.119 282.221Q397.742 282.343 398.358 282.495Q398.974 282.647 399.581 282.829Q400.189 283.011 400.787 283.223Q401.385 283.435 401.972 283.675Q402.559 283.916 403.133 284.186Q403.707 284.456 404.268 284.753Q404.828 285.051 405.373 285.375Q405.918 285.7 406.446 286.051Q406.975 286.402 407.485 286.779Q407.996 287.155 408.487 287.557Q408.979 287.958 409.45 288.383Q409.921 288.808 410.37 289.256Q410.82 289.703 411.247 290.172Q411.674 290.642 412.077 291.131Q412.48 291.621 412.859 292.13Q413.238 292.639 413.591 293.166Q413.945 293.692 414.272 294.236Q414.599 294.78 414.899 295.339Q415.198 295.898 415.47 296.471Q415.742 297.044 415.986 297.63Q416.229 298.216 416.444 298.813Q416.658 299.41 416.843 300.017Q417.028 300.624 417.182 301.239Q417.337 301.854 417.461 302.476Q417.586 303.099 417.679 303.726Q417.772 304.353 417.835 304.985Q417.897 305.616 417.929 306.25Q417.96 306.883 417.96 307.518Q417.961 308.152 417.93 308.786Q417.899 309.419 417.836 310.051Q417.774 310.682 417.681 311.31Q417.588 311.937 417.464 312.559Q417.34 313.182 417.186 313.797Q417.032 314.412 416.847 315.019Q416.663 315.626 416.449 316.224Q416.235 316.821 415.992 317.407Q415.748 317.993 415.477 318.566Q415.205 319.139 414.905 319.698Q414.606 320.258 414.279 320.801Q413.953 321.345 413.599 321.872Q413.246 322.399 412.868 322.909Q412.489 323.418 412.086 323.907Q411.683 324.397 411.256 324.867Q410.83 325.336 410.38 325.784Q409.931 326.232 409.46 326.657Q408.99 327.082 408.498 327.484Q408.007 327.886 407.497 328.262Q406.987 328.639 406.459 328.991Q405.93 329.342 405.385 329.667Q404.841 329.992 404.28 330.29Q403.72 330.588 403.146 330.858Q402.572 331.127 401.985 331.369Q401.399 331.61 400.801 331.822Q400.203 332.034 399.595 332.217Q398.988 332.399 398.372 332.552Q397.756 332.704 397.133 332.826Q396.511 332.948 395.883 333.039Q395.258 333.13 394.63 333.19Q394.001 333.25 393.37 333.279Q392.74 333.308 392.108 333.306Q391.477 333.305 390.846 333.272Q390.216 333.239 389.587 333.176Q388.959 333.112 388.335 333.018Q387.711 332.924 387.092 332.799Q386.473 332.675 385.86 332.52Q385.248 332.365 384.644 332.181Q384.041 331.996 383.447 331.783Q382.852 331.569 382.27 331.326Q381.687 331.083 381.116 330.812Q380.546 330.541 379.99 330.243Q379.433 329.944 378.892 329.619Q378.351 329.294 377.827 328.942Q377.302 328.591 376.795 328.214Q376.289 327.837 375.801 327.436Q375.313 327.035 374.846 326.61Q374.379 326.186 373.933 325.739Q373.487 325.292 373.063 324.824Q372.639 324.356 372.239 323.868Q371.839 323.379 371.463 322.872Q371.087 322.365 370.736 321.839Q370.386 321.314 370.061 320.773Q369.737 320.231 369.439 319.674Q369.142 319.117 368.872 318.546Q368.602 317.976 368.36 317.392Q368.119 316.809 367.906 316.214Q367.693 315.62 367.51 315.016Q367.326 314.412 367.173 313.799Q367.019 313.187 366.895 312.568Q366.772 311.948 366.679 311.324Q366.586 310.7 366.524 310.071Q366.461 309.443 366.43 308.812Q366.398 308.182 366.398 307.55Q366.397 306.919 366.427 306.288Q366.457 305.658 366.519 305.029Q366.58 304.401 366.671 303.776Q366.763 303.151 366.886 302.532Q367.008 301.912 367.16 301.3Q367.313 300.687 367.495 300.082Q367.677 299.478 367.889 298.883Q368.101 298.288 368.341 297.704Q368.582 297.12 368.85 296.549Q369.119 295.978 369.416 295.42Q369.712 294.863 370.035 294.32Q370.359 293.778 370.708 293.252Q371.058 292.727 371.433 292.218Q371.808 291.71 372.207 291.221Q372.606 290.732 373.029 290.263Q373.452 289.794 373.897 289.346Q374.342 288.899 374.809 288.473Q375.275 288.048 375.762 287.646Q376.249 287.244 376.755 286.866Q377.261 286.488 377.785 286.136Q378.308 285.783 378.849 285.457Q379.389 285.13 379.945 284.831Q380.501 284.531 381.071 284.259Q381.641 283.987 382.223 283.743Q382.805 283.499 383.399 283.284Q383.993 283.069 384.596 282.884Q385.2 282.698 385.812 282.542Q386.423 282.386 387.042 282.26Q387.661 282.134 388.285 282.039Z"/>
	<path transform="scale(2 2)" d="M391.774 301.35Q391.925 301.337 392.076 301.332Q392.227 301.327 392.378 301.329Q392.529 301.331 392.68 301.341Q392.831 301.35 392.981 301.367Q393.131 301.384 393.281 301.408Q393.43 301.432 393.578 301.464Q393.725 301.495 393.872 301.534Q394.018 301.573 394.162 301.619Q394.306 301.664 394.448 301.717Q394.589 301.77 394.728 301.829Q394.867 301.889 395.003 301.955Q395.139 302.022 395.271 302.095Q395.404 302.168 395.532 302.247Q395.661 302.326 395.786 302.412Q395.91 302.497 396.031 302.589Q396.151 302.68 396.267 302.777Q396.383 302.875 396.493 302.977Q396.604 303.08 396.71 303.188Q396.816 303.296 396.916 303.409Q397.016 303.523 397.111 303.64Q397.205 303.758 397.294 303.881Q397.383 304.003 397.466 304.13Q397.548 304.256 397.625 304.387Q397.701 304.517 397.771 304.651Q397.841 304.785 397.904 304.923Q397.967 305.06 398.024 305.2Q398.08 305.34 398.13 305.483Q398.18 305.626 398.222 305.771Q398.265 305.916 398.3 306.063Q398.335 306.21 398.364 306.358Q398.392 306.507 398.413 306.657Q398.433 306.806 398.447 306.957Q398.461 307.108 398.467 307.259Q398.473 307.41 398.472 307.561Q398.47 307.712 398.462 307.863Q398.453 308.014 398.437 308.164Q398.421 308.314 398.398 308.464Q398.375 308.613 398.344 308.761Q398.313 308.909 398.276 309.056Q398.238 309.202 398.193 309.346Q398.148 309.491 398.096 309.633Q398.044 309.775 397.986 309.914Q397.927 310.053 397.861 310.189Q397.796 310.326 397.724 310.459Q397.652 310.591 397.573 310.721Q397.495 310.85 397.41 310.975Q397.325 311.1 397.234 311.221Q397.144 311.342 397.047 311.458Q396.951 311.575 396.848 311.686Q396.746 311.798 396.639 311.904Q396.531 312.01 396.419 312.111Q396.307 312.212 396.189 312.308Q396.072 312.403 395.95 312.492Q395.828 312.582 395.702 312.665Q395.576 312.749 395.446 312.826Q395.316 312.903 395.183 312.974Q395.049 313.045 394.912 313.109Q394.775 313.173 394.635 313.23Q394.495 313.288 394.353 313.338Q394.21 313.388 394.066 313.432Q393.921 313.475 393.774 313.512Q393.627 313.548 393.479 313.577Q393.331 313.606 393.181 313.628Q393.031 313.65 392.881 313.664Q392.729 313.679 392.577 313.686Q392.425 313.693 392.273 313.692Q392.12 313.692 391.968 313.684Q391.816 313.676 391.664 313.661Q391.513 313.645 391.362 313.622Q391.212 313.599 391.062 313.569Q390.913 313.539 390.765 313.501Q390.618 313.464 390.472 313.419Q390.327 313.374 390.183 313.322Q390.04 313.27 389.9 313.211Q389.759 313.153 389.622 313.087Q389.484 313.021 389.35 312.949Q389.216 312.876 389.086 312.797Q388.956 312.718 388.829 312.633Q388.703 312.548 388.581 312.456Q388.459 312.365 388.342 312.268Q388.225 312.17 388.113 312.067Q388 311.964 387.893 311.856Q387.786 311.748 387.685 311.634Q387.583 311.521 387.487 311.402Q387.391 311.284 387.301 311.161Q387.211 311.038 387.127 310.911Q387.044 310.784 386.966 310.652Q386.889 310.521 386.818 310.386Q386.747 310.252 386.683 310.113Q386.619 309.975 386.561 309.834Q386.504 309.693 386.454 309.549Q386.404 309.405 386.361 309.259Q386.318 309.113 386.282 308.965Q386.246 308.817 386.217 308.667Q386.189 308.518 386.168 308.367Q386.147 308.216 386.133 308.064Q386.119 307.912 386.113 307.76Q386.107 307.608 386.108 307.455Q386.11 307.303 386.119 307.151Q386.127 306.999 386.144 306.847Q386.16 306.696 386.184 306.546Q386.208 306.395 386.239 306.246Q386.27 306.097 386.308 305.949Q386.347 305.802 386.393 305.657Q386.438 305.511 386.491 305.368Q386.544 305.225 386.604 305.085Q386.663 304.945 386.73 304.808Q386.797 304.671 386.87 304.538Q386.943 304.404 387.023 304.274Q387.103 304.144 387.189 304.019Q387.275 303.893 387.367 303.772Q387.459 303.65 387.557 303.534Q387.655 303.417 387.759 303.305Q387.862 303.194 387.971 303.087Q388.08 302.981 388.194 302.88Q388.308 302.779 388.427 302.684Q388.546 302.589 388.67 302.499Q388.793 302.41 388.921 302.327Q389.049 302.244 389.18 302.167Q389.312 302.091 389.447 302.021Q389.583 301.951 389.721 301.887Q389.86 301.824 390.001 301.768Q390.143 301.711 390.287 301.662Q390.431 301.613 390.578 301.57Q390.724 301.528 390.872 301.493Q391.021 301.458 391.17 301.431Q391.32 301.403 391.471 301.383Q391.622 301.363 391.774 301.35Z"/>
	<path transform="scale(2 2)" d="M117.135 273.091Q117.984 273.007 118.835 272.966Q119.687 272.924 120.54 272.924Q121.393 272.924 122.244 272.966Q123.096 273.008 123.945 273.092Q124.793 273.176 125.637 273.302Q126.48 273.427 127.316 273.594Q128.152 273.761 128.979 273.969Q129.806 274.177 130.622 274.426Q131.438 274.674 132.24 274.962Q133.043 275.251 133.83 275.578Q134.618 275.905 135.388 276.271Q136.158 276.637 136.91 277.04Q137.661 277.443 138.392 277.883Q139.122 278.323 139.831 278.798Q140.539 279.273 141.223 279.782Q141.906 280.292 142.564 280.834Q143.222 281.377 143.853 281.951Q144.483 282.525 145.085 283.129Q145.686 283.734 146.257 284.367Q146.828 285.001 147.367 285.661Q147.906 286.322 148.412 287.008Q148.918 287.695 149.39 288.405Q149.861 289.116 150.297 289.849Q150.733 290.582 151.133 291.335Q151.532 292.088 151.894 292.861Q152.256 293.633 152.579 294.422Q152.903 295.211 153.187 296.015Q153.471 296.819 153.715 297.636Q153.96 298.453 154.163 299.281Q154.367 300.109 154.53 300.946Q154.693 301.783 154.814 302.627Q154.935 303.471 155.015 304.32Q155.095 305.169 155.132 306.021Q155.17 306.873 155.166 307.725Q155.162 308.578 155.116 309.43Q155.07 310.281 154.982 311.129Q154.894 311.978 154.764 312.82Q154.634 313.663 154.464 314.499Q154.293 315.334 154.081 316.16Q153.869 316.986 153.617 317.801Q153.364 318.615 153.072 319.416Q152.78 320.217 152.449 321.003Q152.118 321.789 151.749 322.558Q151.379 323.326 150.973 324.076Q150.566 324.825 150.123 325.554Q149.68 326.282 149.201 326.988Q148.723 327.694 148.21 328.375Q147.698 329.057 147.152 329.712Q146.607 330.368 146.029 330.995Q145.452 331.623 144.845 332.222Q144.238 332.82 143.602 333.388Q142.966 333.956 142.302 334.492Q141.639 335.028 140.95 335.531Q140.261 336.034 139.549 336.502Q138.836 336.97 138.101 337.402Q137.366 337.835 136.611 338.231Q135.856 338.627 135.082 338.985Q134.308 339.343 133.518 339.663Q132.727 339.983 131.922 340.263Q131.116 340.543 130.298 340.784Q129.48 341.024 128.651 341.224Q127.822 341.424 126.984 341.583Q126.147 341.742 125.302 341.859Q124.457 341.976 123.608 342.052Q122.764 342.127 121.917 342.161Q121.07 342.195 120.222 342.187Q119.375 342.18 118.528 342.13Q117.682 342.081 116.839 341.991Q115.997 341.901 115.159 341.769Q114.322 341.637 113.492 341.465Q112.662 341.293 111.842 341.08Q111.021 340.867 110.212 340.615Q109.403 340.362 108.607 340.07Q107.811 339.778 107.031 339.448Q106.25 339.117 105.487 338.749Q104.723 338.38 103.979 337.975Q103.234 337.57 102.51 337.129Q101.787 336.688 101.085 336.212Q100.384 335.736 99.7067 335.226Q99.0295 334.716 98.378 334.174Q97.7265 333.632 97.1024 333.058Q96.4782 332.485 95.8828 331.881Q95.2875 331.278 94.7224 330.646Q94.1572 330.014 93.6237 329.356Q93.0901 328.697 92.5894 328.013Q92.0887 327.329 91.6221 326.622Q91.1555 325.914 90.724 325.184Q90.2926 324.455 89.8973 323.705Q89.5021 322.955 89.144 322.187Q88.7859 321.419 88.4658 320.634Q88.1458 319.849 87.8645 319.049Q87.5832 318.25 87.3413 317.437Q87.0995 316.625 86.8977 315.802Q86.6959 314.978 86.5346 314.146Q86.3733 313.314 86.2529 312.475Q86.1325 311.636 86.0533 310.792Q85.9741 309.948 85.9363 309.101Q85.8985 308.255 85.9021 307.407Q85.9058 306.559 85.9509 305.713Q85.996 304.867 86.0825 304.023Q86.169 303.18 86.2966 302.342Q86.4242 301.504 86.5926 300.674Q86.7611 299.843 86.97 299.021Q87.1789 298.2 87.4277 297.39Q87.6765 296.579 87.9647 295.782Q88.2528 294.985 88.5796 294.203Q88.9065 293.421 89.2711 292.656Q89.6358 291.891 90.0375 291.144Q90.4392 290.398 90.8769 289.672Q91.3146 288.946 91.7873 288.243Q92.26 287.539 92.7665 286.859Q93.2731 286.18 93.8122 285.526Q94.3514 284.872 94.9219 284.245Q95.4925 283.618 96.093 283.02Q96.6935 282.422 97.3226 281.854Q97.9516 281.286 98.6077 280.749Q99.2638 280.212 99.9454 279.708Q100.627 279.204 101.332 278.735Q102.038 278.265 102.765 277.83Q103.493 277.395 104.241 276.996Q104.989 276.597 105.755 276.236Q106.522 275.874 107.305 275.55Q108.088 275.226 108.887 274.941Q109.685 274.656 110.496 274.41Q111.307 274.165 112.13 273.959Q112.952 273.753 113.783 273.588Q114.615 273.423 115.453 273.299Q116.291 273.174 117.135 273.091Z"/>
	<path fill="#FF5D15" transform="scale(2 2)" d="M116.749 282.152Q117.371 282.061 117.996 282Q118.621 281.94 119.249 281.91Q119.877 281.881 120.505 281.882Q121.133 281.883 121.761 281.915Q122.388 281.947 123.014 282.01Q123.639 282.073 124.26 282.166Q124.881 282.26 125.497 282.384Q126.113 282.507 126.722 282.661Q127.332 282.815 127.933 282.999Q128.533 283.183 129.125 283.396Q129.716 283.609 130.296 283.851Q130.876 284.092 131.443 284.362Q132.01 284.632 132.564 284.93Q133.117 285.227 133.655 285.551Q134.193 285.876 134.715 286.226Q135.237 286.576 135.74 286.952Q136.244 287.327 136.729 287.727Q137.213 288.127 137.678 288.55Q138.142 288.973 138.585 289.419Q139.029 289.864 139.449 290.331Q139.87 290.798 140.267 291.284Q140.665 291.771 141.037 292.277Q141.41 292.783 141.758 293.306Q142.106 293.829 142.427 294.369Q142.749 294.909 143.043 295.464Q143.338 296.019 143.605 296.588Q143.872 297.157 144.11 297.738Q144.349 298.319 144.559 298.911Q144.769 299.503 144.949 300.105Q145.13 300.707 145.281 301.317Q145.432 301.927 145.552 302.544Q145.673 303.16 145.763 303.782Q145.853 304.404 145.913 305.029Q145.972 305.655 146.001 306.283Q146.03 306.91 146.028 307.539Q146.026 308.167 145.993 308.794Q145.96 309.422 145.896 310.047Q145.832 310.672 145.738 311.293Q145.644 311.914 145.519 312.53Q145.394 313.146 145.239 313.755Q145.084 314.364 144.9 314.964Q144.715 315.565 144.502 316.156Q144.288 316.747 144.045 317.326Q143.803 317.906 143.532 318.473Q143.261 319.04 142.963 319.593Q142.664 320.146 142.339 320.684Q142.014 321.221 141.663 321.742Q141.312 322.263 140.936 322.767Q140.56 323.27 140.159 323.754Q139.758 324.238 139.335 324.702Q138.911 325.166 138.465 325.608Q138.019 326.051 137.551 326.471Q137.084 326.891 136.597 327.287Q136.109 327.684 135.603 328.056Q135.097 328.428 134.573 328.775Q134.049 329.122 133.509 329.443Q132.968 329.763 132.413 330.057Q131.858 330.351 131.288 330.617Q130.719 330.883 130.138 331.121Q129.556 331.359 128.964 331.568Q128.371 331.777 127.769 331.957Q127.167 332.136 126.557 332.286Q125.947 332.436 125.33 332.556Q124.713 332.676 124.091 332.765Q123.47 332.854 122.846 332.913Q122.221 332.971 121.595 332.999Q120.968 333.027 120.341 333.024Q119.714 333.022 119.088 332.988Q118.461 332.954 117.838 332.89Q117.214 332.826 116.594 332.731Q115.974 332.636 115.359 332.511Q114.745 332.386 114.137 332.231Q113.529 332.076 112.93 331.892Q112.33 331.707 111.741 331.493Q111.151 331.28 110.573 331.037Q109.994 330.795 109.428 330.524Q108.863 330.254 108.311 329.956Q107.759 329.658 107.222 329.334Q106.686 329.009 106.165 328.658Q105.645 328.308 105.143 327.932Q104.641 327.557 104.158 327.157Q103.674 326.757 103.211 326.334Q102.748 325.911 102.306 325.466Q101.865 325.021 101.445 324.555Q101.026 324.088 100.63 323.602Q100.234 323.116 99.8618 322.611Q99.4901 322.106 99.1435 321.583Q98.797 321.06 98.4765 320.521Q98.156 319.982 97.8623 319.428Q97.5686 318.874 97.3024 318.306Q97.0362 317.738 96.7982 317.158Q96.5602 316.577 96.3509 315.986Q96.1417 315.395 95.9616 314.794Q95.7816 314.193 95.6312 313.585Q95.4808 312.976 95.3605 312.36Q95.2401 311.745 95.1501 311.124Q95.0601 310.503 95.0006 309.879Q94.9411 309.255 94.9122 308.628Q94.8834 308.002 94.8854 307.374Q94.8873 306.747 94.92 306.121Q94.9526 305.495 95.016 304.871Q95.0793 304.247 95.1732 303.627Q95.267 303.007 95.3911 302.392Q95.5153 301.777 95.6694 301.169Q95.8235 300.561 96.0072 299.962Q96.191 299.362 96.4039 298.772Q96.6168 298.182 96.8584 297.603Q97.0999 297.025 97.3696 296.458Q97.6393 295.892 97.9363 295.34Q98.2334 294.788 98.5572 294.25Q98.8811 293.713 99.2308 293.193Q99.5806 292.672 99.9554 292.169Q100.33 291.667 100.729 291.183Q101.128 290.699 101.551 290.235Q101.973 289.771 102.417 289.329Q102.862 288.887 103.328 288.466Q103.793 288.046 104.279 287.65Q104.765 287.253 105.269 286.88Q105.774 286.508 106.296 286.161Q106.818 285.813 107.357 285.492Q107.895 285.171 108.449 284.876Q109.003 284.582 109.57 284.315Q110.138 284.048 110.718 283.809Q111.298 283.57 111.889 283.36Q112.48 283.15 113.08 282.969Q113.681 282.788 114.289 282.637Q114.898 282.485 115.513 282.364Q116.128 282.243 116.749 282.152Z"/>
	<path transform="scale(2 2)" d="M119.663 301.782Q119.799 301.754 119.936 301.733Q120.073 301.711 120.21 301.696Q120.348 301.682 120.487 301.674Q120.625 301.666 120.764 301.665Q120.902 301.663 121.041 301.669Q121.179 301.675 121.317 301.687Q121.455 301.699 121.593 301.718Q121.73 301.737 121.866 301.763Q122.002 301.789 122.137 301.821Q122.272 301.853 122.405 301.892Q122.538 301.931 122.669 301.976Q122.8 302.021 122.929 302.073Q123.058 302.124 123.184 302.182Q123.309 302.24 123.433 302.304Q123.556 302.368 123.675 302.437Q123.795 302.507 123.911 302.583Q124.027 302.658 124.14 302.739Q124.252 302.821 124.361 302.907Q124.469 302.994 124.573 303.085Q124.677 303.177 124.776 303.274Q124.876 303.37 124.97 303.471Q125.065 303.573 125.154 303.679Q125.244 303.785 125.328 303.895Q125.412 304.005 125.491 304.119Q125.57 304.233 125.643 304.351Q125.716 304.468 125.783 304.589Q125.851 304.711 125.912 304.835Q125.973 304.959 126.028 305.086Q126.084 305.214 126.132 305.343Q126.181 305.473 126.224 305.605Q126.266 305.737 126.302 305.871Q126.339 306.005 126.368 306.14Q126.397 306.275 126.42 306.412Q126.443 306.549 126.459 306.687Q126.475 306.824 126.485 306.962Q126.494 307.101 126.497 307.239Q126.5 307.378 126.496 307.516Q126.492 307.655 126.481 307.793Q126.47 307.931 126.452 308.069Q126.435 308.206 126.411 308.343Q126.386 308.479 126.355 308.615Q126.325 308.75 126.287 308.883Q126.25 309.017 126.206 309.148Q126.162 309.28 126.112 309.409Q126.062 309.538 126.005 309.665Q125.949 309.791 125.886 309.915Q125.824 310.039 125.755 310.159Q125.687 310.28 125.612 310.397Q125.538 310.514 125.458 310.627Q125.378 310.74 125.293 310.849Q125.207 310.959 125.117 311.064Q125.026 311.169 124.931 311.269Q124.835 311.369 124.735 311.465Q124.634 311.561 124.529 311.651Q124.425 311.742 124.315 311.827Q124.206 311.913 124.093 311.993Q123.98 312.073 123.863 312.147Q123.746 312.221 123.625 312.29Q123.505 312.358 123.381 312.421Q123.257 312.484 123.131 312.54Q123.004 312.597 122.875 312.647Q122.746 312.697 122.615 312.741Q122.483 312.785 122.35 312.823Q122.216 312.86 122.081 312.891Q121.715 312.975 121.342 313.01Q120.968 313.044 120.593 313.03Q120.218 313.015 119.849 312.952Q119.479 312.888 119.121 312.776Q118.763 312.665 118.422 312.507Q118.082 312.349 117.765 312.148Q117.448 311.947 117.161 311.706Q116.873 311.465 116.62 311.188Q116.367 310.911 116.152 310.604Q115.937 310.296 115.765 309.963Q115.592 309.63 115.465 309.277Q115.338 308.924 115.258 308.558Q115.178 308.192 115.148 307.818Q115.117 307.444 115.135 307.069Q115.154 306.695 115.221 306.326Q115.289 305.957 115.404 305.6Q115.519 305.243 115.681 304.904Q115.842 304.566 116.047 304.251Q116.251 303.937 116.495 303.652Q116.739 303.367 117.018 303.116Q117.298 302.866 117.608 302.654Q117.917 302.443 118.252 302.274Q118.587 302.105 118.941 301.981Q119.296 301.858 119.663 301.782Z"/>
</svg>
