<?xml version="1.0" encoding="utf-8" ?>
<svg xmlns="http://www.w3.org/2000/svg" xmlns:xlink="http://www.w3.org/1999/xlink" width="1024" height="1024">
	<path transform="scale(2 2)" d="M267.103 68.7573C271.771 68.3361 275.658 73.3832 278.732 76.2291C300.985 96.8349 323.386 117.045 344.434 138.939C346.761 141.36 348.994 143.903 351.439 146.205C352.68 129.85 352.421 128.831 367.653 130.669L400.997 134.796C407.822 135.591 416.728 134.795 416.473 144.11C416.284 151.012 414.634 159.389 413.571 166.294C411.408 180.354 409.258 194.792 405.939 208.642C408.437 212.451 411.473 215.992 414.24 219.611C431.985 242.82 447.992 267.176 463.997 291.586C467.271 296.579 474.076 304.711 468.101 310.387C465.39 312.963 460.908 313.166 458.076 310.655C450.432 303.878 443.509 285.897 435.678 277.76L435.423 277.497C428.034 274.51 415.121 271.153 406.748 268.472C407.091 299.85 399.314 409.046 388.091 421.317C384.171 425.604 376.821 424.639 371.583 425.052L289.435 431.295C279.791 432 270.1 432.91 260.44 433.306C215.991 436.488 171.583 439.344 126.998 437.593C103.717 436.678 104.593 439.396 104.607 414.919C104.622 391.347 104.624 366.782 105.185 343.254L106.232 294.504C106.312 288.418 106.658 282.339 106.521 276.251C95.1913 275.921 83.9423 278.279 72.5061 277.461C68.9738 277.209 67.7991 275.681 65.592 273.148C63.0419 277.024 48.5658 296.969 43.908 293.62C38.6755 289.859 46.1202 282.877 48.6076 279.817C59.2996 266.667 69.73 253.31 80.8415 240.501C96.2222 222.771 92.1004 230.453 97.354 207.569C102.778 183.945 108.656 162.327 111.505 137.874C113.385 121.733 117.2 126.113 130.683 124.844C139.389 124.026 148.052 122.602 156.771 121.927C171.084 120.817 168.578 138.027 169.406 148.781C174.883 144.968 179.711 139.626 184.773 135.258C196.645 125.012 255.555 72.6028 267.103 68.7573ZM121.486 274.033C121.866 278.034 121.568 282.097 121.5 286.109L120.657 324.442C120.569 327.871 120.291 331.297 120.26 334.726L119.709 411.002C119.667 414.903 119.467 418.743 119.75 422.642C125.504 422.021 131.296 422.543 137.071 422.616C159.308 422.896 181.495 422.306 203.702 421.108C214.103 420.547 224.309 419.732 234.722 419.875C235.52 402.076 240.107 381.92 241.434 363.081C242.688 345.28 242.259 322.603 256.575 309.545C272.006 295.469 311.713 291.471 326.855 308.25C337.192 319.704 328.553 349.571 326.556 363.516C324.209 379.907 322.662 396.369 320.647 412.797C337.014 412.62 360.702 410.698 377.089 409.039C387.591 364.198 392.065 310.246 395.177 263.854C368.898 252.754 328.361 209.756 307.998 189.57C301.731 183.358 292.541 172.933 285.411 168.372C264.776 191.567 243.018 213.54 221.447 235.861L200.593 257.397C198.004 260.031 192.362 267.673 188.431 267.824C185.835 267.924 183.227 265.732 183.172 263.074C183.077 258.532 197.27 244.739 200.441 241.041L219.301 219.271L268.941 163.738C272.822 159.39 277.451 151.067 284.095 151.139C295.689 151.264 322.027 181.615 329.908 189.557C349.597 209.398 394.986 255.236 423.089 262.075C417.474 255.581 410.049 250.184 403.612 244.543C380.526 224.313 358.313 203.518 336.623 181.797C323.799 168.955 303.777 146.341 285.411 142.319C270.65 144.562 263.855 155.636 253.791 166.273C243.119 177.554 232.615 189 222.417 200.713L200.401 225.734C171.666 258.362 164.744 267.054 121.486 274.033ZM148.316 138.11C147.588 147.877 145.602 162.874 145.626 172.205C149.004 168.979 152.536 165.918 155.905 162.692C154.707 154.564 154.713 146.175 153.197 138.11C151.518 137.947 149.986 137.778 148.316 138.11ZM307.751 413.87C306.913 393.487 309.95 371.142 312.841 351.067C313.645 345.479 317.993 324.973 315.76 320.075C313.691 315.54 307.542 314.347 303.323 312.724C310.062 336.188 305.346 359.517 300.575 382.957C298.513 393.086 296.262 404.189 296.843 414.57C300.373 414.044 304.182 413.846 307.751 413.87ZM395.177 149.744C393.149 158.736 390.602 180.491 388.128 187.225C390.656 189.586 395.86 195.818 397.811 198.862C400.478 183.598 401.158 166.353 403.397 150.649C400.676 150.271 397.915 149.98 395.177 149.744Z"/>
	<path transform="scale(2 2)" d="M206.625 280.858C225.873 280.043 228.71 280.912 227.626 300.18C227.283 306.293 223.158 353.675 219.754 357.44C216.942 360.549 170.628 364.286 162.813 364.749C150.415 365.401 141.711 367.795 141.739 354.153C141.753 347.333 144.111 291.452 146.614 287.426C148.039 286.48 149.425 286.05 151.062 285.634C154.112 286.549 156.416 285.863 159.463 285.332C175.387 282.552 190.482 281.398 206.625 280.858ZM192.365 302.184C202.39 296.549 203.281 312.912 203.24 318.921C207.833 318.242 210.122 319.732 211.443 324.147C209.599 328.567 206.881 329.298 202.394 329.375C201.288 335.593 200.389 342.06 198.339 348.048C202.71 348.34 207.066 348.022 211.443 348.048C213.216 330.601 215.404 313.122 216.55 295.625C208.906 295.013 201.169 296.018 193.495 295.625C193.235 297.82 192.852 300.028 192.365 302.184ZM177.949 331.376C175.398 331.088 173.046 331.213 170.497 331.376C170.303 337.735 170.813 343.966 171.562 350.273C173.694 350.227 175.817 350.232 177.949 350.273C177.923 344.301 178.588 337.177 177.949 331.376ZM183.818 296.748C180.583 296.368 177.604 296.512 174.37 296.748C172.889 302.854 168.719 321.05 171.562 321.186C174.442 320.865 176.963 320.617 179.834 321.186C181.068 313.622 182.923 304.086 183.818 296.748Z"/>
	<path fill="#FF5D15" transform="scale(2 2)" d="M158.421 296.748C163.712 296.811 169.1 296.366 174.37 296.748C172.889 302.854 168.719 321.05 171.562 321.186C166.615 321.512 161.681 321.796 156.722 321.764C157.912 314.143 158.724 304.452 158.421 296.748Z"/>
	<path fill="#FF5D15" transform="scale(2 2)" d="M156.722 331.376L170.497 331.376C170.303 337.735 170.813 343.966 171.562 350.273C166.383 350.731 161.103 351.083 155.905 350.958C156.188 344.424 156.784 337.922 156.722 331.376Z"/>
	<path fill="#FF5D15" transform="scale(2 2)" d="M188.076 330.102C192.859 330.054 197.623 329.701 202.394 329.375C201.288 335.593 200.389 342.06 198.339 348.048C194.964 348.969 191.558 349.167 188.076 349.219C187.846 342.838 188.581 336.48 188.076 330.102Z"/>
	<path fill="#FF5D15" transform="scale(2 2)" d="M192.365 302.184C202.39 296.549 203.281 312.912 203.24 318.921C198.657 318.856 194.134 319.67 189.545 319.42C190.524 313.674 191.226 307.907 192.365 302.184Z"/>
	<path fill="#FF5D15" transform="scale(2 2)" d="M267.103 87.4943C277.218 96.1137 286.827 105.353 296.521 114.438C341.014 156.135 381.974 200.937 417.757 250.313C420.972 254.749 424.403 259.177 427.256 263.854C425.824 263.325 424.431 262.812 423.089 262.075C417.474 255.581 410.049 250.184 403.612 244.543C380.526 224.313 358.313 203.518 336.623 181.797C323.799 168.955 303.777 146.341 285.411 142.319C288.345 141.232 291.29 140.033 294.285 139.135C289.116 130.695 274.536 127.9 266.27 132.945C260.02 136.761 241.021 157.194 235.974 162.888L193.589 210.952C179.881 226.526 165.658 244.792 145.876 252.643C128.965 259.354 100.491 262.618 82.4087 261.762C94.9919 248.549 106.716 234.502 119.317 221.293C161.701 176.863 204.544 137.043 252.87 98.7135C257.568 94.9872 262.164 90.8777 267.103 87.4943Z"/>
	<path fill="#FF5D15" transform="scale(2 2)" d="M246.464 418.278C251.875 399.162 254.495 379.347 255.637 359.55C257.271 331.203 256.585 314.278 289.851 312.788C294.341 312.587 298.834 312.902 303.323 312.724C310.062 336.188 305.346 359.517 300.575 382.957C298.513 393.086 296.262 404.189 296.843 414.57C295.296 414.996 293.243 414.922 291.621 415.043L259.271 417.646C255.007 417.986 250.747 418.44 246.464 418.278Z"/>
	<path fill="#FF5D15" transform="scale(2 2)" d="M126.853 139.99C133.885 140.477 141.338 138.986 148.316 138.11C147.588 147.877 145.602 162.874 145.626 172.205C143.43 175.56 139.026 178.846 136.146 181.766L113.989 204.571C114.488 201.45 115.517 198.369 116.282 195.297C120.85 176.93 124.199 158.709 126.853 139.99Z"/>
	<path fill="#FF5D15" transform="scale(2 2)" d="M363.832 146.205C371.329 145.85 386.497 148.86 395.177 149.744C393.149 158.736 390.602 180.491 388.128 187.225C379.649 177.904 371.429 168.366 362.809 159.171C363.608 154.883 363.784 150.554 363.832 146.205Z"/>
</svg>
