<?xml version="1.0" encoding="utf-8" ?>
<svg xmlns="http://www.w3.org/2000/svg" xmlns:xlink="http://www.w3.org/1999/xlink" width="1024" height="1024">
	<path transform="scale(2 2)" d="M124.84 119.246C143.828 118.259 184.322 119.328 196.512 132.386C201.347 137.565 198.27 143.887 197.244 150.051C192.311 179.66 187.505 215.263 186.733 245.526C194.489 248.002 212.76 250.936 212.381 262.042C212.288 264.776 210.681 267.196 210.151 269.855C209.27 274.269 208.997 278.987 208.451 283.469C212.653 282.506 216.54 281.787 220.875 281.915C211.502 271.756 216.417 258.847 215.255 246.392C212.542 234.577 211.399 231.796 223.246 223.663C219.8 214.573 221.605 201.508 221.232 191.71C221.008 185.831 217.626 182.904 223.65 176.815C244.157 156.089 340.589 155.321 362.752 177.599C367.375 182.246 366.289 187.784 366.243 193.775C408.498 175.949 456.265 244.989 424.976 276.563C420.147 281.437 415.374 284.891 410.863 290.519C418.277 291.598 438.762 294.768 440.406 304.389C441.153 308.763 437.145 313.013 434.749 316.315C426.515 327.996 428.295 329.274 414.466 333.07C394.405 338.577 373.802 341.596 353.111 343.455C343.397 344.328 341.402 345.659 332.426 347.763C306.13 353.927 276.082 354.638 250.021 347.33C235.178 343.168 214.169 334.385 219.743 315.328C214.414 315.263 209.139 314.644 203.915 313.606C201.37 324.402 199.76 341.193 198.377 352.567C195.813 373.654 199.504 383.428 176.298 389.465C158.639 394.06 125.349 394.679 109.315 385.203C101.002 380.29 101.423 374.9 100.027 366.18L96.034 340.28C95.3138 335.371 94.9132 330.201 93.6704 325.405L93.5744 325.042C87.5017 321.676 85.4468 318.109 81.8503 312.406C72.5801 297.703 72.9371 296.717 88.8381 289.066C88.5261 277.971 85.9296 265.276 85.3557 253.313C84.2061 229.348 81.0293 205.355 78.1438 181.556C76.4627 167.691 73.3376 153.278 71.9559 139.746C70.1824 122.378 113.684 120.291 124.84 119.246ZM94.4209 250.565C116.037 241.434 154.725 241.015 177.955 244.139C178.246 240.833 178.257 237.745 177.955 234.438C179.529 230.206 179.776 219.077 180.19 214.031C181.943 192.704 184.917 171.823 188.206 150.681C160.24 159.573 120.413 160.807 91.6277 153.042C88.6529 152.239 85.7048 151.122 82.6505 150.681C87.0755 184.421 91.5305 216.404 94.4209 250.565ZM221.253 265.249C222.361 275.25 228.344 278.741 236.937 282.207C263.321 292.85 319.98 293.444 346.359 278.605C347.124 278.082 347.905 277.573 348.646 277.017C347.318 275.097 345.844 273.188 344.669 271.175C338.925 273.215 333.548 275.233 327.577 276.558C301.695 282.299 256.443 282.823 231.276 270.958C227.779 269.309 224.731 266.871 221.253 265.249ZM350.331 204.16C352.555 202.758 354.892 201.433 357.003 199.867C350.624 202.37 344.483 204.835 337.772 206.397C310.926 212.643 254.919 214.559 230.715 199.63C230.072 199.233 229.469 198.671 228.82 198.316C227.226 220.077 279.371 221.068 293.597 220.938C302.181 220.859 332.759 219.518 338.957 214.216C342.773 210.951 346.06 206.886 350.331 204.16ZM227.814 185.284C233.701 203.038 286.847 203.312 301.639 203.25C317.74 201.678 347.549 200.221 358.906 187.249C350.461 170.979 299.876 169.271 284.859 169.757C268.445 171.363 237.279 171.641 227.814 185.284ZM340.822 266.749L341.375 266.34C341.427 264.441 338.837 259.921 337.942 258.03C307.879 269.166 253.169 268.616 223.246 252.878C223.663 262.501 229.083 264.346 237.652 267.474C265.143 277.511 313.044 278.044 340.822 266.749ZM328.78 252.878C331.134 251.968 333.479 251.168 335.932 250.565C335.259 247.064 334.57 243.573 334.156 240.029C305.755 247.224 258.243 247.783 233.817 233.29C232.079 232.259 230.594 230.657 228.82 229.74C210.445 238.953 229.555 248.096 239.966 251.29C270.383 260.621 298.47 257.808 328.78 252.878ZM352.698 211.988C323.118 233.312 357.597 298.136 396.778 290.006C399.622 288.254 402.672 286.889 405.482 285.077C374.927 285.242 350.457 254.49 350.364 225.264C350.351 221.081 350.769 216.722 352.446 212.853C352.547 212.619 352.764 212.252 352.698 211.988ZM228.82 213.146C229.687 223.522 233.147 224.829 242.288 228.596C265.585 238.199 309.298 240.31 334.156 231.358C333.422 228.153 333.922 225.784 334.745 222.663C306.408 228.948 253.611 229.893 228.82 213.146ZM90.7106 303.247C90.6095 301.999 90.7031 298.858 89.8157 297.999C88.3745 298.956 86.8772 299.878 85.5162 300.945C86.6156 301.437 87.7112 301.964 88.8381 302.389C89.4534 302.691 90.0636 303.019 90.7106 303.247ZM422.471 307.808C425.085 307.266 427.765 306.547 430.195 305.425C423.866 301.026 406.491 297.876 398.699 297.704C385.106 297.406 379.794 300.975 365.615 291.18C366.328 298.114 366.793 304.222 364.812 311.047C365.315 312.466 365.837 313.878 366.243 315.328C382.489 314.933 407.09 311.249 422.471 307.808ZM237.03 290.519C234.267 289.794 228.127 285.61 228.233 291.104C228.694 315.19 336.293 316.555 355.029 296.353C359.043 292.026 357.439 284.285 352.698 284.254C347.932 286.111 343.512 288.672 338.654 290.347C321.856 296.139 295.013 299.207 276.659 297.999C284.735 300.61 293.15 302.303 301.639 302.389C293.596 304.338 281.99 303.498 274.331 300.494C272.272 299.687 270.354 297.83 268.209 297.38C257.662 295.171 247.129 295.051 237.03 290.519ZM219.743 290.519C215.312 290.851 211.011 291.621 206.883 293.313C206.372 296.636 203.514 304.92 206.883 305.425C211.158 306.14 215.405 306.497 219.743 306.357C219.743 305.049 220.093 290.792 219.946 290.476L219.743 290.519ZM362.358 333.338C369.792 332.802 423.49 326.757 423.797 316.315C408.163 320.549 391.602 322.168 375.462 323.474C371.913 323.761 369.023 324.095 365.615 325.042C365.34 326.331 362.286 333.08 362.358 333.338ZM358.284 318.501C345 326.849 334.412 330.028 318.727 332.198C296.451 335.279 253.173 334.733 232.671 322.566C230.165 321.079 227.973 319.178 225.525 317.617C225.488 321.75 225.816 325.182 228.897 328.29C250.044 349.624 335.651 349.628 357.003 326.744C357.485 324.001 357.911 321.261 358.284 318.501ZM154.619 274.127C165.336 273.677 197.792 272.075 203.915 262.875C196.005 251.226 155.879 251.124 143.542 251.277C122.918 252.748 85.1959 257.534 96.475 265.182C108.385 273.257 140.485 274.175 154.619 274.127ZM358.284 303.709C332.051 321.338 284.725 320.946 254.922 315.108C241.95 312.567 237.819 309.771 226.752 305.425C226.721 308.765 226.505 310.972 228.82 313.606C250.384 332.926 358.243 336.287 358.458 303.918L358.284 303.709ZM132.334 127.874C120.333 128.404 89.1599 130.102 80.9038 138.841C92.4791 147.335 124.586 149.677 138.938 149.014C150.878 148.966 182.561 147.544 190.739 138.841C181.468 129.174 147.049 127.303 132.334 127.874ZM378.189 199.867C338.096 203.88 359.456 275.224 403.052 278.605C442.65 274.642 423.086 197.026 378.189 199.867Z"/>
	<path fill="#FF5D15" transform="scale(2 2)" d="M201.079 274.751C201.221 274.781 201.327 274.906 201.445 274.991C199.206 291.81 195.893 308.527 193.445 325.33L188.816 357.085C187.932 363.045 187.256 369.198 185.897 375.068C170.009 386.23 124.416 385.411 110.604 375.068C109.621 371.52 109.309 367.644 108.808 364.001C104.34 334.304 99.4407 304.614 96.1711 274.751C122.191 286.431 173.024 285.385 201.079 274.751Z"/>
	<path fill="#FEFEFE" transform="scale(2 2)" d="M106.648 312.218C108.701 312.09 122.482 315.646 126.611 316.34C129.8 316.876 133.556 318.098 130.476 321.724C127.138 321.859 100.077 320.046 106.648 312.218Z"/>
	<path fill="#FEFEFE" transform="scale(2 2)" d="M104.596 296.529C108.534 296.01 112.919 298.387 116.712 299.311C121.723 300.532 131.363 299.289 128.727 305.425C124.411 307.137 101.725 304.526 104.596 296.529Z"/>
	<path fill="#FEFEFE" transform="scale(2 2)" d="M108.808 328.264C113.253 327.489 117.97 330.066 122.36 330.8C125.485 331.323 136.031 330.983 131.518 336.822C128.223 336.895 101.137 334.278 108.808 328.264Z"/>
	<path fill="#FEFEFE" transform="scale(2 2)" d="M111.989 342.744C117.216 345.071 131.983 347.267 133.293 348.443C133.895 349.751 133.534 351.123 132.334 351.938C129.021 352.049 102.269 350.546 111.989 342.744Z"/>
	<path fill="#FEFEFE" transform="scale(2 2)" d="M111.989 357.786C114.869 358.15 117.72 359.407 120.559 360.075C124.933 361.105 136.764 360.811 131.518 367.018C127.465 367.017 108.428 365.664 110.321 358.879C110.817 358.214 111.243 358.058 111.989 357.786Z"/>
	<path transform="scale(2 2)" d="M376.953 225.821C391.319 224.609 400.665 238.623 396.778 252.878L396.698 253.296L396.438 253.365C396.06 239.949 391.507 229.358 376.953 225.821Z"/>
	<path transform="scale(2 2)" d="M295.69 185.284C299.726 182.933 307.721 186.082 311.518 187.894C306.338 186.926 300.86 186.844 295.69 187.894C291.851 187.689 285.523 189.943 281.766 191.277C286.135 187.411 289.76 185.531 295.69 185.284Z"/>
</svg>
