<?xml version="1.0" encoding="utf-8" ?>
<svg xmlns="http://www.w3.org/2000/svg" xmlns:xlink="http://www.w3.org/1999/xlink" width="1024" height="1024">
	<path transform="scale(2 2)" d="M54.5642 237.993C36.0783 234.123 41.4416 218.788 43.4225 205.458C44.2797 199.689 43.7314 190.891 49.2014 187.365C54.6998 183.821 62.6268 181.109 68.8739 179.016C126.222 159.801 184.239 174.773 233.672 206.578C247.481 204.226 263.709 202.68 277.465 206.578C280.431 204.798 283.229 202.743 286.202 200.955C327.744 175.985 379.986 163.36 427.795 175.254C434.608 176.949 462.337 185.25 465.326 190.478C468.206 195.514 471.727 223.503 470.034 228.993C468.424 234.214 462.324 237.037 457.219 237.082C452.958 256.433 448.453 275.785 442.564 294.716C434.046 322.098 427.791 332.151 399.654 337.596C350.271 347.151 307.753 337.112 279.288 292.241C272.432 281.433 266.203 269.109 262.122 256.912C256.486 240.067 251.003 251.683 247.758 262.135C241.374 282.698 227.911 304.26 211.592 318.074C183.823 341.579 146.787 344.435 112.519 337.287C98.9871 334.465 89.547 333.003 81.1229 320.97C77.878 316.335 67.3507 296.162 68.3773 291.222C69.1024 287.734 72.694 285.861 76.0143 286.761C81.1653 288.157 85.0589 308.603 93.3556 316.444C92.6302 313.35 91.0879 310.205 90.0597 307.173C82.5554 285.042 77.5005 261.235 75.0932 237.993L67.4416 237.993C67.82 242.346 70.8318 247.534 68.0277 250.936C66.1895 253.166 61.7741 253.671 59.5405 251.766C56.6855 249.331 55.4531 241.592 54.5642 237.993ZM232.012 218.969C239.503 226.256 249.652 225.295 258.976 225.288L271.139 225.296C290.712 225.451 294.875 220.653 312.555 211.937C328.148 204.251 343.76 197.299 360.767 193.368C388.588 186.939 429.678 184.237 455.147 200.171C454.64 195.78 446.92 194.491 442.783 192.864C392.8 173.203 336.891 184.94 291.893 211.682C277.86 220.021 283.283 219.054 266.646 217.224C251.847 215.597 244.525 218.73 232.012 218.969ZM62.1219 225.75C63.4348 208.198 66.6872 204.034 82.1825 198.121C110.963 187.138 151.864 189.15 181.05 197.964C186.23 199.528 214.863 210.744 217.03 210.706C178.059 187.06 130.087 175.862 85.2548 186.863C77.77 188.699 63.2375 193.468 56.8348 197.308L54.5451 213.968C53.0756 224.749 50.7744 225.313 62.1219 225.75ZM110.251 308.31C118.926 322.181 143.488 321.264 157.248 319.145C178.401 315.888 197.128 307.867 210.071 290.138C216.4 281.468 232.525 253.308 230.681 243.268C230.33 241.357 226.95 234.498 224.371 235.026C226.752 249.891 213.996 269.388 205.7 280.833C181.737 313.887 148.177 322.056 110.251 308.31ZM349.301 312.418C358.25 319.994 403.838 319.004 413.174 310.974C425.602 300.285 434.237 252.074 435.352 237.082C433.853 237.419 432.255 237.894 430.724 237.993C427.311 255.704 420.478 296.013 405.019 306.643C395.283 313.338 360.324 314.347 349.301 312.418ZM384.695 215.728C361.039 218.832 328.438 219.999 307.47 230.086C297.814 234.731 299.602 241.309 303.208 250C310.295 267.085 322.308 287.459 339.541 295.985C355.047 303.745 380.634 302.523 397.182 296.928C408.864 292.978 421.165 232.622 418.196 224.303C414.178 213.043 394.188 215.316 384.695 215.728ZM430.724 224.72C433.031 224.816 435.301 224.814 437.608 224.72C436.437 217.034 432.07 212.5 423.998 211.544C427.371 215.559 429.968 219.404 430.724 224.72ZM120.265 215.728C112.722 215.288 97.7191 214.962 93.3556 222.485C90.2289 233.81 99.1766 267.405 102.696 278.263C106.174 288.995 108.501 295.374 120.483 298.609C138.106 303.366 161.319 303.893 176.845 292.96C190.238 283.234 210.401 256.439 212.688 241.784C215.823 221.696 134.078 214.088 120.265 215.728ZM272.217 247.857C272.906 255.652 283.878 277.782 289.04 284.487C288.495 280.284 283.211 269.102 281.555 264.545C279.552 259.033 278.052 253.348 276.036 247.857C274.773 247.762 273.484 247.835 272.217 247.857Z"/>
	<path fill="#FF5D15" transform="scale(2 2)" d="M232.012 218.969C239.503 226.256 249.652 225.295 258.976 225.288L271.139 225.296C290.712 225.451 294.875 220.653 312.555 211.937C328.148 204.251 343.76 197.299 360.767 193.368C388.588 186.939 429.678 184.237 455.147 200.171C455.74 203.517 459.141 222.565 458.031 224.619C453.44 225.037 442.279 224.959 437.608 224.72C436.437 217.034 432.07 212.5 423.998 211.544C421.23 209.176 418.375 206.815 414.927 205.514C395.791 198.296 305.701 210.458 293.851 224.332C285.125 234.546 287.374 243.533 291.921 254.772C301.114 277.494 317.452 301.281 341.5 309.919C344.072 310.843 346.741 311.48 349.301 312.418C358.25 319.994 403.838 319.004 413.174 310.974C425.602 300.285 434.237 252.074 435.352 237.082C438.699 237.128 442.06 236.823 445.4 237.082C441.191 253.586 437.136 270.132 432.28 286.461C424.724 311.868 422.616 321.085 396.118 325.908C359.035 332.658 323.66 328.36 298.296 297.724C294.988 293.728 291.237 289.226 289.04 284.487C288.495 280.284 283.211 269.102 281.555 264.545C279.552 259.033 278.052 253.348 276.036 247.857C274.773 247.762 273.484 247.835 272.217 247.857C269.804 236.281 249.158 232.214 240.92 245.27C238.284 249.447 237.211 254.583 235.739 259.251C232.939 268.137 228.341 276.461 223.512 284.378C198.118 326.01 157.245 334.855 112.241 324.986C105.778 323.569 97.4338 322.313 93.3556 316.444C92.6302 313.35 91.0879 310.205 90.0597 307.173C82.5554 285.042 77.5005 261.235 75.0932 237.993C77.2377 237.957 79.3784 237.91 81.5225 237.993C82.5303 250.925 89.7635 281.291 95.1646 292.748C98.7365 300.325 103.219 304.251 110.251 308.31C118.926 322.181 143.488 321.264 157.248 319.145C178.401 315.888 197.128 307.867 210.071 290.138C216.4 281.468 232.525 253.308 230.681 243.268C230.33 241.357 226.95 234.498 224.371 235.026C220.144 211.308 152.079 203.855 132.933 203.45C119.37 203.164 98.586 202.33 87.9136 209.792C82.3178 213.704 80.9897 219.429 79.8419 225.75C73.9631 225.975 68.0085 225.764 62.1219 225.75C63.4348 208.198 66.6872 204.034 82.1825 198.121C110.963 187.138 151.864 189.15 181.05 197.964C186.23 199.528 214.863 210.744 217.03 210.706C221.965 213.23 226.636 217.559 232.012 218.969Z"/>
	<path transform="scale(2 2)" d="M182.722 235.026C189.66 232.29 194.162 242.526 187.951 245.89C185.099 247.435 180.899 247.8 177.74 248.745C162.297 253.365 146.499 263.593 136.454 276.114C132.996 280.424 130.536 286.633 125.884 289.706C109.84 289.908 122.531 273.262 126.892 268.066C138.592 254.124 163.606 236.696 182.722 235.026Z"/>
	<path transform="scale(2 2)" d="M150.138 224.72C156.077 224.349 160.362 232.132 154.864 235.82C152.308 237.535 144.714 239.956 141.269 241.486C131.723 245.727 122.771 252.543 115.546 260.091C112.876 262.88 110.619 266.522 106.787 267.747C101.245 267.925 97.7518 263.569 100.836 258.288C108.454 245.245 136.434 228.468 150.138 224.72Z"/>
	<path transform="scale(2 2)" d="M399.454 228.529C406.666 227.982 411.092 236.507 401.324 241.86C384.265 251.209 368.985 263.022 359.815 280.507C357.84 284.271 357.492 287.701 353.443 289.706C327.736 292.663 373.82 236.468 399.454 228.529Z"/>
	<path transform="scale(2 2)" d="M360.913 225.75C365.325 225.795 369.45 229.422 367.459 234.151C366.167 237.22 362.945 238.45 360.441 240.32C351.972 246.643 344.021 254.049 338.221 262.949C335.254 267.501 333.79 274.447 328.382 276.564C324.334 276.371 322.253 274.037 321.484 270.212C325.615 256.109 346.788 231.853 360.913 225.75Z"/>
	<path transform="scale(2 2)" d="M67.4416 264.258C76.1624 263.956 77.3243 274.053 69.6854 276.564C62.6354 278.083 58.6158 267.295 67.4416 264.258Z"/>
</svg>
