<?xml version="1.0" encoding="utf-8" ?>
<svg xmlns="http://www.w3.org/2000/svg" xmlns:xlink="http://www.w3.org/1999/xlink" width="4854" height="4854">
	<path transform="scale(9.48025 9.48025)" d="M328.925 172.629C316.924 168.085 302.828 160.498 292.826 152.317C273.718 136.688 257.946 107.87 276.379 85.7167C288.221 71.4842 306.014 66.1059 323.788 64.4921C335.291 64.2309 346.236 65.0385 357.162 68.9711C380.615 77.4128 397.831 97.264 388.223 122.8C379.313 146.48 355.53 160.636 333.635 170.628L328.925 172.629ZM323.788 80.2478C310.761 82.0863 296.612 84.8679 288.146 96.0346C269.532 120.585 312.341 152.542 328.925 164.889L332.878 162.21C347.075 150.88 372.895 130.754 375.064 111.68C377.908 86.6788 343.224 79.1965 323.788 80.2478Z"/>
	<path transform="scale(9.48025 9.48025)" d="M431.719 209.623C425.234 199.293 411.661 191.587 400.007 188.892C355.648 178.634 348.358 223.057 325.522 217.991C315.797 215.834 310.412 206.66 303.165 200.689C270.715 173.946 223.056 189.661 214.166 230.582C209.932 250.074 219.78 274.274 230.406 290.547C233.933 295.948 240.861 298.722 246.248 302.132C249.329 302.736 256.352 307.844 261.322 309.311C268.422 307.901 283.284 302.798 289.755 299.813C264.516 269.084 304.974 229.869 333.635 261.048C340.633 274.247 339.916 287.113 332.878 299.813L336.664 299.813C340.047 299.654 342.108 297.06 344.574 295.016L356.38 285.23C363.783 278.998 368.492 273.457 378.712 279.586C382.421 284.159 384.134 289.994 381.273 295.433C376.03 305.401 355.869 322.74 344.762 329.002C343.712 333.571 343.905 338.352 343.814 343.021L343.587 360.084C343.523 371.875 343.529 374.711 345.84 386.124C348.379 398.664 355.578 427.087 343.911 434.185C337.894 437.845 328.827 435.68 325.42 429.523C321.593 422.606 319.98 411.573 316.463 403.954C311.941 413.654 306.842 433.537 297.304 437.053C289.883 439.788 281.622 434.748 279.219 427.531C277.457 422.24 279.335 415.71 280.054 410.385C281.925 396.523 283.652 382.618 283.439 368.603C280.533 365.027 259.753 345.152 256.051 342.923C251.89 340.418 246.931 339.767 242.764 336.548C237.927 338.865 233.464 339.513 228.335 337.672C213.532 332.359 187.478 313.76 176.753 302.132C175.759 331.549 178.882 360.503 181.806 389.703L184.191 411.683C185.463 423.031 188.274 432.485 178.873 441.183C170.367 449.053 157.439 447.941 149.81 439.425C145.44 434.546 135.56 405.37 132.313 396.971C127.421 410.585 122.534 439.097 109.545 445.095C99.3577 449.8 87.2071 444.487 82.6637 434.497C79.3999 427.321 81.0313 418.64 81.4619 411.071L82.6943 387.788C83.0489 381.743 83.6303 375.604 83.497 369.549C61.839 374.811 56.9565 358.352 54.6031 341.051C53.5806 333.534 52.5401 326.265 52.745 318.656C53.7116 282.769 75.3378 244.152 107.734 227.386C89.238 213.283 83.2321 188.035 97.9129 168.842C120.119 139.811 167.241 150.355 171.452 188.388C174.925 219.741 140.819 243.158 112.607 230.448C87.3194 245.803 66.3188 292.96 67.5481 323.503C67.715 327.65 69.7581 349.706 71.716 352.935C74.837 358.082 84.176 355.955 85.227 350.154C85.7277 347.39 84.2783 340.723 83.8588 337.678C81.3223 319.272 82.9118 306.287 90.0856 288.563C91.0976 286.063 92.1119 282.933 94.2462 281.186C95.7623 289.94 96.0392 299.106 96.8276 307.969L98.9565 333.446C99.8255 343.166 100.231 347.477 99.7546 357.25L98.6891 377.616C98.3661 382.862 95.4104 423.995 96.2793 427.289C97.3384 431.304 103.179 432.853 105.787 429.478C107.467 427.304 109.916 417.679 110.995 414.379L121.637 382.255C122.753 378.809 129.253 355.798 131.597 354.719C133.576 355.891 139.964 375.153 141.003 377.958L153.737 411.677C155.584 416.635 161.95 441.798 170.747 427.369C170.876 420.438 169.437 410.403 168.669 403.327L165.341 370.669C163.452 352.167 163.155 346.543 165.04 328.047L169.673 284.122C169.938 281.689 170.514 279.281 170.747 276.859C179.869 289.221 195.592 303.604 208.118 311.761C212.613 314.689 227.457 323.511 232.265 324.23C237.958 325.082 240.813 317.279 237.265 313.395C235.278 311.219 224.296 305.772 220.701 303.302C206.939 293.847 190.949 279.352 181.154 265.568C172.476 253.356 166.025 240.209 154.107 230.448C175.843 237.339 193.746 267.41 213.924 281.186C204.116 259.801 199.074 240.864 207.871 217.45C225.238 171.225 283.692 158.79 319.382 193.116C334.19 207.358 328.723 202.453 343.628 189.267C375.33 161.221 421.585 166.973 446.054 201.248C464.579 227.197 462.381 251.19 449.173 277.816C429.889 316.687 395.616 357.028 363.527 386.998C360.014 390.279 356.291 393.471 353.005 396.971C352.363 390.559 351.165 384.136 349.269 377.971C353.096 376.229 362.108 365.703 365.469 362.215C386.808 340.07 441.713 277.464 443.684 245.071C444.376 233.697 439.235 218.171 431.719 209.623ZM129.367 166.65Q128.694 166.728 128.027 166.839Q127.359 166.95 126.697 167.094Q126.035 167.238 125.382 167.414Q124.728 167.59 124.084 167.799Q123.439 168.007 122.806 168.247Q122.173 168.487 121.552 168.758Q120.932 169.028 120.325 169.329Q119.719 169.63 119.128 169.961Q118.537 170.292 117.963 170.651Q117.389 171.01 116.834 171.398Q116.279 171.785 115.743 172.199Q115.207 172.613 114.693 173.053Q114.178 173.493 113.686 173.958Q113.193 174.423 112.725 174.911Q112.256 175.4 111.812 175.911Q111.368 176.422 110.95 176.955Q110.531 177.487 110.14 178.039Q109.748 178.592 109.384 179.163Q109.02 179.734 108.685 180.322Q108.35 180.91 108.044 181.514Q107.738 182.119 107.463 182.737Q107.187 183.355 106.942 183.987Q106.697 184.618 106.484 185.261Q106.271 185.903 106.089 186.555Q105.908 187.208 105.759 187.868Q105.609 188.529 105.493 189.196Q105.377 189.863 105.294 190.535Q105.21 191.207 105.16 191.882Q105.11 192.557 105.094 193.234Q105.077 193.911 105.094 194.588Q105.11 195.265 105.161 195.94Q105.211 196.615 105.294 197.287Q105.377 197.959 105.494 198.626Q105.61 199.293 105.759 199.953Q105.908 200.614 106.09 201.266Q106.271 201.919 106.485 202.561Q106.698 203.204 106.943 203.835Q107.188 204.466 107.464 205.085Q107.74 205.703 108.045 206.307Q108.351 206.911 108.687 207.499Q109.022 208.088 109.386 208.659Q109.75 209.23 110.141 209.782Q110.533 210.334 110.951 210.867Q111.37 211.399 111.814 211.91Q112.258 212.421 112.727 212.91Q113.196 213.398 113.688 213.863Q114.18 214.328 114.695 214.768Q115.21 215.208 115.746 215.622Q116.281 216.036 116.837 216.423Q117.392 216.811 117.966 217.17Q118.54 217.529 119.131 217.86Q119.722 218.19 120.329 218.491Q120.935 218.792 121.556 219.063Q122.176 219.334 122.81 219.573Q123.443 219.813 124.087 220.021Q124.731 220.23 125.385 220.406Q126.039 220.582 126.701 220.726Q127.362 220.87 128.03 220.981Q128.698 221.092 129.371 221.169Q130.043 221.247 130.719 221.292Q131.395 221.337 132.072 221.348Q132.749 221.359 133.425 221.337Q134.102 221.315 134.777 221.259Q135.452 221.204 136.123 221.115Q136.787 221.027 137.447 220.907Q138.106 220.787 138.759 220.635Q139.412 220.483 140.056 220.299Q140.701 220.115 141.336 219.9Q141.97 219.685 142.594 219.439Q143.217 219.193 143.828 218.917Q144.439 218.641 145.036 218.335Q145.632 218.03 146.213 217.696Q146.794 217.361 147.358 216.999Q147.922 216.637 148.468 216.248Q149.013 215.858 149.539 215.443Q150.065 215.027 150.57 214.587Q151.075 214.146 151.558 213.681Q152.041 213.216 152.501 212.729Q152.96 212.241 153.395 211.731Q153.831 211.221 154.241 210.691Q154.65 210.161 155.034 209.611Q155.417 209.061 155.774 208.494Q156.13 207.926 156.458 207.341Q156.786 206.757 157.085 206.157Q157.384 205.557 157.654 204.944Q157.923 204.33 158.162 203.704Q158.402 203.078 158.61 202.441Q158.818 201.804 158.995 201.157Q159.172 200.511 159.318 199.856Q159.463 199.202 159.576 198.542Q159.689 197.881 159.77 197.215Q159.851 196.55 159.899 195.882Q159.947 195.213 159.962 194.543Q159.978 193.873 159.961 193.203Q159.943 192.533 159.893 191.865Q159.844 191.196 159.761 190.531Q159.678 189.866 159.564 189.206Q159.449 188.545 159.302 187.891Q159.155 187.237 158.976 186.591Q158.797 185.945 158.587 185.309Q158.377 184.672 158.136 184.047Q157.895 183.422 157.624 182.809Q157.353 182.196 157.052 181.597Q156.752 180.998 156.422 180.414Q156.093 179.831 155.735 179.264Q155.377 178.697 154.992 178.148Q154.607 177.6 154.196 177.07Q153.785 176.541 153.348 176.033Q152.911 175.524 152.451 175.038Q151.99 174.551 151.506 174.087Q151.021 173.624 150.515 173.185Q150.009 172.745 149.482 172.331Q148.955 171.917 148.408 171.529Q147.862 171.141 147.297 170.781Q146.732 170.42 146.15 170.087Q145.568 169.755 144.971 169.451Q144.374 169.147 143.762 168.872Q143.151 168.598 142.526 168.354Q141.902 168.11 141.267 167.896Q140.632 167.683 139.987 167.5Q139.342 167.318 138.688 167.168Q138.035 167.017 137.376 166.899Q136.716 166.781 136.051 166.695Q135.387 166.608 134.718 166.555Q134.05 166.501 133.38 166.481Q132.711 166.46 132.04 166.472Q131.37 166.484 130.702 166.528Q130.033 166.573 129.367 166.65ZM311.908 264.352C287.876 266.643 291.171 298.322 310.153 298.538C327.656 297.999 331.679 277.359 321.266 268.067C319.177 266.203 314.806 263.723 311.908 264.352ZM370.607 287.676C365.14 292.091 350.204 304.839 344.762 306.981C326.451 304.158 320.302 314.47 299.902 309.311C282.248 310.757 273.521 323.227 252.639 318.934C243.483 326.274 258.049 331.152 264.098 331.288C272.509 331.476 280.383 327.986 288.597 327.12L289.755 326.994C290.868 348.768 296.141 365.82 293.586 388.022L291.05 409.139C290.383 414.358 288.596 420.581 289.755 425.786C294.44 429.15 296.79 427.957 298.755 422.687L311.81 389.683C313.651 385.153 315.232 380.196 317.547 375.9C319.968 381.706 334.671 428.257 337.646 429.496C339.606 430.313 342.37 428.831 343.035 426.873C343.562 425.322 331.528 383.043 330.621 376.382C330.019 371.962 331.108 366.877 331.59 362.447L333.201 346.86C334.068 338.488 334.432 329.906 335.594 321.582C347.184 317.12 358.403 305.461 366.814 296.546C368.981 294.25 375.144 290.393 370.607 287.676ZM281.741 342.572C280.406 342.537 278.709 342.307 277.419 342.572L281.741 346.583L283.439 348.187C283.45 347.007 284.332 340.741 281.741 342.572Z"/>
	<path fill="#FF5D15" transform="scale(9.48025 9.48025)" d="M246.248 302.132C240.48 288.628 235.095 282.109 230.968 265.755C218.307 215.575 278.536 174.282 319.14 218.912C325.354 225.742 329.708 233.369 339.954 233.422C352.495 233.487 358.237 221.49 366.607 214.256C386.542 197.027 409.999 196.555 431.719 209.623C439.235 218.171 444.376 233.697 443.684 245.071C441.713 277.464 386.808 340.07 365.469 362.215C362.108 365.703 353.096 376.229 349.269 377.971C349.016 363.485 349.275 348.948 349.269 334.457C362.743 331.132 387.331 305.765 389.349 294.732C390.705 287.317 386.175 280.789 378.712 279.586C368.492 273.457 363.783 278.998 356.38 285.23L344.574 295.016C342.108 297.06 340.047 299.654 336.664 299.813C344.042 289.802 345.6 265.809 333.635 261.048C304.974 229.869 264.516 269.084 289.755 299.813C283.284 302.798 268.422 307.901 261.322 309.311C256.352 307.844 249.329 302.736 246.248 302.132Z"/>
	<path fill="#FF5D15" transform="scale(9.48025 9.48025)" d="M277.419 342.572C278.709 342.307 280.406 342.537 281.741 342.572C284.332 340.741 283.45 347.007 283.439 348.187L281.741 346.583L277.419 342.572Z"/>
</svg>
