<?xml version="1.0" encoding="utf-8" ?>
<svg xmlns="http://www.w3.org/2000/svg" xmlns:xlink="http://www.w3.org/1999/xlink" width="1024" height="1024">
	<path transform="scale(2 2)" d="M300.517 94.0144C325.472 93.9504 391.034 92.586 405.421 114.36C418.515 134.176 415.412 151.353 396.105 164.184C396.484 167.999 397.454 171.816 398.112 175.594C407.434 229.075 408.473 284.355 403.057 338.292C402.364 345.2 399.391 361.081 399.834 366.644C400.44 374.267 424.119 388.791 408.268 408.883C392.344 429.066 349.71 429.505 324.937 432.255C295.018 432.193 230.703 432.6 216.337 405.643C209.97 393.695 214.685 377.276 226.853 370.963C226.41 364.728 225.408 358.479 224.697 352.265C217.809 292.08 215.099 223.579 229.65 164.184C219.568 156.287 214.17 156.323 212.943 140.116C209.233 91.0931 267.735 96.2341 300.517 94.0144ZM234.532 383.24C225.732 386.35 228.897 399.074 234.532 404.187C236.951 406.364 242.124 407.305 245.25 408.285C273.01 416.983 302.553 417.971 331.42 416.439C344.352 415.753 386.325 411.384 394.943 401.595C399.425 396.504 395.527 384.467 391.778 381.094C349.178 400.739 290.5 401.894 245.83 386.899C242.121 385.654 238.366 384.024 234.532 383.24ZM394.086 148.011C398 143.203 398.222 138.146 397.675 132.291C358.701 144.968 294.247 145.38 255.261 137.956C245.155 136.031 237.524 132.244 228.5 130.132C228.317 135.847 227.774 142.773 232.022 147.244C243.705 159.544 293.116 162.171 310.233 162.246C329.938 162.332 379.756 162.913 394.086 148.011Z"/>
	<path fill="#FF5D15" transform="scale(2 2)" d="M383.262 168.053L383.492 168.08C384.471 168.993 385.649 177.532 385.912 179.342C363.127 212.086 294.442 246.129 258.262 256.186C250.408 258.369 242.414 259.377 234.532 261.294C233.683 261.38 232.854 261.332 232.003 261.294C231.645 255.492 232.443 249.697 232.003 243.918C238.036 242.436 244.105 241.334 250.086 239.602C293.36 227.066 324.798 205.683 360.64 180.404C370.423 173.504 371.375 170.85 383.262 168.053Z"/>
	<path fill="#FF5D15" transform="scale(2 2)" d="M387.688 193.73C388.951 195.459 389.605 206.287 389.765 209.005C360.342 253.952 285.403 282.807 234.532 284.308C229.966 284.592 231.998 276.865 232.003 272.263C242.115 270.329 252.04 268.744 262.022 266.033C309.369 253.174 352.553 227.751 387.688 193.73Z"/>
	<path fill="#FF5D15" transform="scale(2 2)" d="M392.83 256.452C394.578 266.458 393.039 272.685 386.744 280.292C358.782 314.082 292.068 333.903 247.938 334.261C243.644 334.296 239.367 333.809 235.077 334.215C234.526 329.271 234.16 323.686 234.532 318.748C288.074 318.878 356.878 296.777 392.83 256.452Z"/>
	<path fill="#FF5D15" transform="scale(2 2)" d="M391.224 224.732L391.446 224.962C392.21 229.029 392.31 235.617 391.778 239.722C389.149 245.423 384.132 250.253 379.736 254.637C344.781 289.49 282.36 308.347 232.882 308.238C233.15 303.805 232.755 299.25 232.538 294.817C235.914 294.986 239.312 294.779 242.678 294.518C295.192 290.442 356.227 265.628 391.224 224.732Z"/>
	<path fill="#FF5D15" transform="scale(2 2)" d="M298.367 106.277C316.788 106.264 375.005 106.73 389.765 118.422C374.666 127.502 346.252 125.615 328.284 128.159L327.812 128.228C295.719 127.32 266.427 129.241 235.077 117.115C253.31 107.748 278.232 107.161 298.367 106.277Z"/>
	<path fill="#FF5D15" transform="scale(2 2)" d="M392.83 290.478L392.997 290.669C392.985 294.545 392.677 299 391.778 302.771C389.213 307.73 378.555 316.295 373.801 319.73C342.934 342.036 287.307 358.764 248.115 355.655C244.929 355.402 241.667 354.184 238.476 353.67C235.365 353.37 236.425 346.991 236.43 344.756C246.106 344.77 255.877 344.935 265.521 343.991C303.82 340.24 353.637 325.139 383.231 298.992C386.31 296.271 389.191 293.253 392.458 290.76L392.83 290.478Z"/>
	<path fill="#FF5D15" transform="scale(2 2)" d="M350.391 172.35L353.978 172.35C347.275 176.317 341.139 181.339 334.715 185.748C307.555 204.388 278.558 220.437 246.785 229.722C243.331 230.731 239.622 231.44 236.43 233.129L232.882 233.129C233.204 227.15 233.827 221.151 234.532 215.205C263.106 210.987 293.616 196.7 317.732 180.631C327.929 173.837 325.536 174.298 337.733 173.445C341.96 173.15 346.174 172.76 350.391 172.35Z"/>
	<path fill="#FF5D15" transform="scale(2 2)" d="M314.395 358.336C316.264 358.262 365.053 375.567 373.016 377.373C365.151 381.304 339.394 385.969 331.015 384.427C316.561 382.119 284.47 373.027 271.54 364.777C286.348 365.415 300.017 360.446 314.395 358.336Z"/>
	<path fill="#FF5D15" transform="scale(2 2)" d="M367.027 336.52C374.384 341.982 381.682 346.508 389.765 350.899C388.731 357.493 388.483 364.296 388.486 370.963C379.78 368.887 371.372 365.155 362.592 363.532C356.599 360.8 337.729 354.354 331.921 353.67C342.136 347.409 355.038 344.082 367.027 336.52Z"/>
	<path fill="#FF5D15" transform="scale(2 2)" d="M277.541 172.786C286.368 172.097 299.091 173.741 308.441 174.006C292.275 183.727 276.979 191.387 259.302 197.997C251.294 200.743 243.45 203.255 235.077 204.611C235.953 199.682 236.899 195.192 236.43 190.128C243.134 188.047 249.415 186.155 255.877 183.258C260.258 181.295 274.399 173.365 277.541 172.786Z"/>
	<path fill="#FF5D15" transform="scale(2 2)" d="M238.476 363.532C248.864 365.188 257.887 370.923 267.405 375.081C270.379 376.38 287.895 383.271 288.885 384.427C271.734 381.369 255.263 379.478 239.121 371.948C238.76 369.152 238.438 366.355 238.476 363.532Z"/>
	<path fill="#FF5D15" transform="scale(2 2)" d="M391.778 318.748C391.79 318.769 391.225 337.245 391.224 339.2C388.179 337.633 385.205 335.88 382.21 334.215C380.393 332.96 378.554 331.779 376.659 330.644C381.765 326.808 386.544 322.363 391.778 318.748Z"/>
	<path fill="#FF5D15" transform="scale(2 2)" d="M241.059 166.582C247.139 167.63 253.232 168.825 259.302 169.952C257.052 171.343 254.555 172.496 252.207 173.726C247.923 175.549 243.666 177.46 239.121 178.541C239.632 174.544 240.423 170.563 241.059 166.582Z"/>
	<path transform="scale(2 2)" d="M180.721 38.066C191.314 38.0693 184.121 55.5301 182.677 60.6241C171.874 98.7457 156.569 120.848 133.777 150.985C142.136 158.498 145.416 168.923 149.536 179.038C172.147 234.552 194.755 294.456 203.129 353.953C204.501 363.701 205.756 373.369 205.739 383.24C181.083 356.15 156.382 298.956 142.148 264.885C132.678 242.217 123.068 219.508 114.632 196.428C112.574 190.796 110.422 185.262 109.352 179.342C102.275 185.863 93.936 200.682 91.0614 209.885C82.1962 238.27 96.7034 267.755 112.278 290.908C122.624 306.288 138.866 325.361 142.429 344.049C148.022 373.38 117.321 395.31 109.352 421.064C105.483 432.488 108.051 445.471 119.039 451.878C142.033 465.284 175.077 451.215 196.675 441.547C202.859 438.779 209.159 435.01 215.72 433.321C218.447 433.964 220.928 435.107 221.733 438.086C223.35 444.068 215.103 446.696 211.104 448.672C183.125 462.495 145.601 478.584 115.695 461.606C108.306 457.411 102.192 449.534 99.941 441.363C89.4475 403.27 136.697 379.029 133.331 347.934C131.701 332.875 115.56 312.386 107.032 300.291C77.8289 258.873 65.361 219.689 99.377 175.76C101.208 173.396 103.506 170.959 104.932 168.341C109.756 159.484 100.894 130.811 94.101 124.519C92.3121 122.862 89.7189 121.881 87.5702 120.777C62.4555 107.874 98.4643 80.6534 116.912 90.9644C129.678 98.0994 119.925 110.041 120.586 117.153C120.976 121.344 122.517 125.725 123.664 129.774L127.465 143.52C145.647 119.786 161.534 89.0336 170.446 60.2528C172.56 53.4275 173.493 39.2351 180.721 38.066ZM112.292 141.126C113.18 143.416 114.022 145.745 114.968 148.011C116.12 147.19 117.227 146.332 118.535 145.773C112.513 123.534 108.38 122.018 114.968 100.905C111.244 99.0558 108.603 98.5457 104.405 98.8043C99.3744 99.7561 91.9264 102.341 88.8528 106.732C85.9152 110.929 94.1055 113.724 96.6491 115.219C105.491 120.419 108.994 131.975 112.292 141.126Z"/>
	<path fill="#FF5D15" transform="scale(2 2)" d="M116.96 155.266C131.666 154.318 135.51 169.676 140.044 180.761C160.053 229.675 177.85 280.066 189.316 331.696C190.048 334.997 192.34 342.615 191.933 345.567L191.611 345.41C177.332 320.657 165.711 294.821 154.495 268.606C143.312 242.465 132.168 216.217 122.371 189.517C117.717 176.834 114.527 168.982 116.96 155.266Z"/>
</svg>
