<?xml version="1.0" encoding="utf-8" ?>
<svg xmlns="http://www.w3.org/2000/svg" xmlns:xlink="http://www.w3.org/1999/xlink" width="1024" height="1024">
	<path transform="scale(2 2)" d="M370.811 115.236C346.127 129.463 358.502 68.6025 390.019 61.2878C396.664 61.3946 395.778 73.5873 395.749 77.9151L424.512 92.1064C436.158 97.8647 447.628 101.116 451.155 115.236C456.763 118.246 458.058 120.904 458.635 127.431C460.888 128.563 463.336 129.396 465.683 130.317C463.957 134.139 462.431 138.024 460.952 141.947C458.466 140.245 455.999 139.113 453.197 138.011C448.947 143.559 443.611 142.052 438.449 138.551C434.604 139.343 430.86 139.867 426.925 139.708C425.598 143.554 422.969 156.282 419.106 158.025C410.352 161.974 416.655 147.358 417.587 145.29C409.01 151.666 407.655 151.949 401.082 160.288L392.236 171.354C388.882 175.531 386.531 179.101 381.124 180.388C377.087 179.406 374.05 177.195 370.811 174.709L368.611 176.828C365.181 180.169 344.163 204.389 341.429 204.873C339.844 205.153 338.118 203.337 338.034 201.849C337.761 196.962 368.525 165.382 373.242 159.875C382.417 149.163 390.318 138.031 400.161 127.431C392.999 124.789 377.128 119.221 370.811 115.236ZM387.614 69.4327C377.584 75.2457 370.045 85.3066 367.036 96.4505C366.562 98.205 363.779 109.801 366.35 109.848C374.854 103.237 393.751 80.7904 388.085 69.5589L387.614 69.4327ZM393.995 86.1817L393.784 86.5255C388.055 95.963 387.149 100.727 378.373 109.848C386.465 113.456 394.741 116.627 402.807 120.287L417.154 126.88C420.766 128.552 424.265 130.437 428.147 131.403L428.809 131.574C436.054 132.404 442.613 126.508 443.124 119.34C443.935 107.955 430.303 104.112 422.254 100.061L393.995 86.1817ZM449.971 124.328C448.845 127.115 444.894 132.457 444.637 133.62L445.098 134.083C447.937 133.223 452.712 127.155 449.971 124.328ZM408.084 131.574C404.121 134.456 401.217 138.456 398.106 142.196L387.298 155.422C383.628 159.968 379.761 164.394 376.253 169.066C377.764 171.054 379.437 172.872 381.124 174.709C381.901 173.246 382.629 171.69 383.64 170.377L397.682 149.73C404.163 144.692 411.007 141.501 417.587 135.46C414.785 133.766 411.218 132.491 408.084 131.574Z"/>
	<path transform="scale(2 2)" d="M263.957 259.771C253.948 259.728 247.948 256.864 239.968 251.163C209.326 258.436 190.584 283.565 168.427 303.592C150.785 317.637 135.597 325.425 116.423 335.749C109.066 331.541 100.759 328.568 92.5294 326.578C86.2229 331.743 80.4889 338.954 79.4947 347.296C80.1705 348.421 80.8922 349.488 81.6518 350.557C84.5068 344.317 89.13 336.579 94.7097 332.357C102.744 337.87 119.446 345.834 108.763 354.261L110.247 356.895C134.079 352.657 157.138 344.408 178.307 332.68C181.043 331.164 183.73 329.481 186.595 328.22C190.715 324.673 210.124 311.689 214.073 310.708C215.707 311.227 217.233 311.691 218.084 313.318C220.249 317.454 224.227 352.59 224.573 357.926C225.471 371.773 222.779 427.376 217.775 441.558C215.836 447.056 209.658 446.448 206.862 442.23C204.921 439.304 208.372 424.406 208.841 420.767C212.353 393.527 216.016 355.036 208.644 328.22C205.43 329.46 202.513 331.835 199.598 333.673C173.867 349.896 145.516 363.142 115.279 368.018C122.362 380.92 115.912 393.736 102.759 389.676C95.5602 387.455 93.509 379.086 90.1836 373.175C75.3981 363.972 60.4739 349.603 73.0436 332.357C68.4688 325.317 65.3411 316.311 61.3461 308.772C42.3613 317.762 37.8483 292.579 31.6204 279.017C26.8542 268.638 24.6811 261.217 36.7998 255.65C41.3563 253.557 56.1303 246.968 60.3252 246.472C71.8821 245.106 75.4066 258.498 78.9716 266.648C83.5776 277.177 92.2496 288.867 84.0073 298.977C86.2731 304.313 88.7181 309.647 91.3952 314.792C97.4488 314.232 110.526 319.953 116.423 322.307C130.414 315.775 152.856 302.924 164.425 292.102C157.785 288.49 150.987 285.458 144.623 281.325C103.451 254.591 89.8405 213.89 84.4554 167.896C83.8166 162.44 83.8464 156.663 82.8842 151.282C81.7588 151.756 80.5708 152.185 79.4947 152.76C79.6702 154.185 79.8184 155.616 80.1405 157.017C75.2538 160.449 67.8078 164.104 62.3096 166.597C58.2286 157.839 52.933 149.416 49.2847 140.498C55.5204 137.621 61.681 134.698 67.7977 131.574C69.2855 133.555 70.2464 135.898 71.5292 138.011C74.9488 136.323 78.2704 134.475 81.6518 132.717C77.7481 126.326 79.8896 121.732 87.21 119.87C90.9479 112.325 93.5538 116.962 97.1482 114.776C98.1191 114.186 98.7342 113.008 99.6687 112.351C104.214 109.153 110.024 113.295 114.347 115.236C117.162 114.734 119.623 113.186 122.347 112.365C119.621 106.925 117.266 101.998 116.423 95.9064C112.908 96.0617 109.564 95.5843 106.884 93.0695C91.8381 78.9488 126.313 60.2192 125.745 89.1222C127.006 90.8627 128.299 92.4459 130.026 93.7497C152.596 81.0874 170.469 75.5321 196.743 86.5903C201.255 88.4893 218.552 95.555 217.293 101.455C215.15 103.012 207.646 103.991 204.46 104.905C184.537 110.624 156.961 130.263 168.975 153.548C171.13 157.725 193.752 192.949 193.699 193.305C192.485 201.408 183.918 188.024 183.013 186.812C173.367 173.883 162.018 162.484 151.252 150.515C147.282 146.103 141.724 139.092 137.281 135.46C136.278 135.854 135.139 136.194 134.25 136.806C134.353 146.629 132.213 154.657 123.991 160.54C141.489 204.244 151.682 235.137 204.483 247.58C207.354 248.256 210.291 248.683 213.149 249.387C219.37 247.076 224.756 243.729 231.538 241.359C225.529 230.941 222.447 222.375 225.667 210.364C228.172 201.02 234.818 177.433 239.996 169.97C263.271 136.422 325.824 162.314 313.988 204.721C308.504 224.372 298.877 236.386 286.875 251.163C313.012 261.803 334.888 297.251 343.39 323.853C359.636 330.517 381.854 335.934 399.446 335.749C405.095 329.093 416.942 316.216 426.925 320.369C429.007 315.62 430.648 310.72 432.345 305.825C426.376 289.461 432.454 267.757 449.695 261.534C473.838 252.821 482.826 297.158 453.197 314.792C450.577 320.999 446.779 330.691 445.098 337.067C454.614 342.079 445.067 358.1 442.127 366.093C438.358 376.337 436.559 384.119 424.072 379.967L409.713 410.055C408.047 413.567 406.18 417.003 404.578 420.539L401.162 419.015C404.148 405.003 407.521 390.901 409.776 376.758C378.677 383.528 350.047 384.22 320.086 372.36C314.02 369.958 308.5 366.591 302.58 363.936C300.672 379.589 297.433 395.364 294.445 410.837C292.815 419.282 292.334 441.153 282.936 442.495C279.491 441.192 277.882 439.478 277.115 435.952C283.51 407.875 288.658 379.249 292.706 350.74L295.945 327.221C296.897 319.943 295.649 309.576 303.548 307.733C306.43 308.383 308.059 309.6 309.909 311.827C308.86 324.782 305.96 337.63 304.646 350.557C318.6 359.581 333.479 365.718 349.878 368.386C351.282 368.615 352.769 368.698 354.14 369.063C374.507 370.683 388.211 368.937 408.084 364.869C409.928 358.292 411.923 351.858 414.866 345.677C417.484 340.18 420.842 335.503 422.548 329.566C417.341 331.955 407.148 342.07 404.578 347.296C390.911 347.427 378.076 345.998 364.737 342.993C359.925 341.739 337.875 335.874 335.345 333.557C333.179 331.574 330.579 322.335 329.19 319.141C324.26 307.809 318.876 296.863 310.996 287.237C305.32 276.29 285.28 262.337 274.473 257.619C271.08 258.902 267.544 259.408 263.957 259.771ZM297.703 178.788C288.811 166.224 267.743 162.462 255.175 171.392C245.219 178.465 243.572 191.277 240.182 202.182C238.707 206.928 236.66 211.977 235.873 216.873C234.633 224.583 239.657 235.121 245.565 240.333C259.778 256.302 277.745 246.765 288.04 231.35C292.281 225.001 303.053 203.557 303.469 196.623C303.837 190.502 301.764 183.426 297.703 178.788ZM131.3 207.759C124.053 195.645 116.075 176 112.527 162.324C116.474 156.4 121.421 150.056 123.097 143.042C121.687 136.645 107.66 122.864 102.843 124.16C100.784 124.714 100.042 126.975 99.4384 128.772C105.824 131.696 109.815 135.394 112.527 141.947C106.838 144.487 100.914 146.846 95.3991 149.73C94.7989 170.316 100.959 199.576 107.721 218.392L107.83 218.669C121.757 253.671 144.235 270.14 176.9 284.257C184.259 276.414 194.255 266.688 202.217 259.771C199.993 258.887 197.657 258.282 195.369 257.587C167.409 249.095 145.286 233.955 131.3 207.759ZM58.1907 253.146C54.4012 255.055 50.4861 256.71 46.5779 258.357C30.1474 265.28 34.2872 267.419 40.3567 281.087C42.9542 286.937 48.0854 305.599 55.8047 303.373C61.0946 301.848 73.2791 296.209 78.2177 293.709C85.1769 289.419 74.81 273.16 72.1579 267.231C69.5009 261.291 67.0066 249.951 58.1907 253.146ZM114.347 79.7458C106.326 82.2865 108.338 91.3772 116.423 90.2076C122.323 87.5147 121.159 80.0493 114.347 79.7458ZM165.956 87.1474C157.307 87.6754 139.792 91.2814 134.25 99.0537C136.647 101.807 138.519 105.02 140.737 107.918C146.374 104.243 152.239 101.351 158.56 99.0537C172.535 93.8378 184.358 92.9104 199.147 94.7588C189.847 88.9915 176.867 86.3627 165.956 87.1474ZM122.347 93.7497C119.46 105.555 148.577 139.497 156.887 148.565C159.203 151.092 161.613 154.203 164.425 156.166C160.247 148.491 126.694 95.6682 122.347 93.7497ZM186.595 99.7535C167.87 99.9505 159.088 105.125 143.499 112.365C148.007 119.705 153.229 126.519 157.402 134.083C158.414 135.31 159.063 136.603 159.775 138.011C163.347 124.012 172.377 113.889 184.667 106.541C188.471 104.266 192.806 102.929 196.519 100.59C193.192 99.7363 190.021 99.433 186.595 99.7535ZM128.194 121.483C126.25 122.441 124.315 123.422 122.347 124.328C123.37 125.896 124.419 127.438 125.745 128.772C127.593 127.794 129.435 126.8 131.3 125.855C130.29 124.424 129.324 122.812 128.194 121.483ZM95.8144 124.328C91.7492 125.184 87.8901 127.285 91.3952 131.574C97.6232 134.767 96.8081 126.457 95.877 124.38L95.8144 124.328ZM88.3606 136.806C83.2034 138.787 78.3152 141.353 73.0436 143.042C73.9353 145.077 74.8875 146.776 76.1925 148.584L78.2177 147.495C83.7492 145.02 89.3988 142.628 94.7097 139.708C92.3589 139.302 90.3446 138.444 88.5707 136.799L88.3606 136.806ZM65.6418 139.708C62.8872 140.785 60.2016 142.13 57.3897 143.042C59.8027 148.224 62.411 153.729 65.6418 158.445C68.1306 157.141 70.4195 155.683 73.0436 154.63C72.2703 151.962 67.5608 141.146 65.6418 139.708ZM454.129 267.324C438.535 271.867 432.927 292.215 439.719 305.825C436.422 314.514 433.405 323.523 430.507 332.357C431.964 332.608 437.502 334.354 438.449 334.124C441.039 326.649 443.988 316.541 447.73 309.614C456.329 304.258 461.753 299.141 464.125 288.855C465.896 281.176 465.097 266.547 454.129 267.324ZM76.1925 302.514C73.7815 303.463 71.3765 304.412 69.1914 305.825C72.3623 311.759 75.3294 317.777 78.2177 323.853L78.6106 323.808C80.7652 320.144 80.9714 320.271 84.0073 317.12C82.5534 314.223 78.4609 304.198 76.7255 302.511L76.1925 302.514ZM428.809 341.731C426.56 342.905 420.695 362.005 419.722 365.972C421.586 368.138 423.916 370.108 426.925 369.731C429.404 367.401 435.828 348.692 436.031 345.677C436.229 342.735 430.877 341.696 428.809 341.731ZM96.6639 348.22C95.2548 351.404 93.4167 354.079 91.3952 356.895C94.4855 362.467 97.0581 368.304 99.7831 374.06C101.494 377.675 102.443 382.711 106.821 383.537C109.644 382.692 112.535 380.628 111.515 377.326C110.197 373.063 99.3938 351.803 96.6639 348.22Z"/>
	<path fill="#FF5D15" transform="scale(2 2)" d="M143.499 112.365C159.088 105.125 167.87 99.9505 186.595 99.7535C190.021 99.433 193.192 99.7363 196.519 100.59C192.806 102.929 188.471 104.266 184.667 106.541C172.377 113.889 163.347 124.012 159.775 138.011C159.063 136.603 158.414 135.31 157.402 134.083C153.229 126.519 148.007 119.705 143.499 112.365Z"/>
	<path fill="#FF5D15" transform="scale(2 2)" d="M131.3 207.759C124.092 209.391 114.849 215.313 107.721 218.392C100.959 199.576 94.7989 170.316 95.3991 149.73C100.914 146.846 106.838 144.487 112.527 141.947C109.815 135.394 105.824 131.696 99.4384 128.772C100.042 126.975 100.784 124.714 102.843 124.16C107.66 122.864 121.687 136.645 123.097 143.042C121.421 150.056 116.474 156.4 112.527 162.324C116.075 176 124.053 195.645 131.3 207.759Z"/>
	<path fill="#FF5D15" transform="scale(2 2)" d="M91.3952 131.574C87.8901 127.285 91.7492 125.184 95.8144 124.328L95.877 124.38C96.8081 126.457 97.6232 134.767 91.3952 131.574Z"/>
	<path fill="#FF5D15" transform="scale(2 2)" d="M297.703 178.788C301.764 183.426 303.837 190.502 303.469 196.623C303.053 203.557 292.281 225.001 288.04 231.35C277.745 246.765 259.778 256.302 245.565 240.333C264.913 238.757 270.473 230.411 278.059 214.966C282.021 206.898 291.412 184.766 297.703 178.788Z"/>
	<path transform="scale(2 2)" d="M387.614 219.988L387.088 218.923C379.257 202.834 379.551 205.277 394.132 197.477C406.863 190.667 422.142 181.791 436.422 178.788C441.467 178.366 442.93 180.304 446.559 183.412C465.361 199.512 484.988 217.955 484.747 244.324C479.806 243.174 469.946 241.212 465.683 239.273C449.607 253.49 425.806 244.859 409.776 234.952C405.536 235.883 401.866 238.403 397.682 239.273C393.46 237.677 391.965 231.438 390.019 227.645C386.18 230.084 381.881 232.05 378.373 234.952C373.596 237.182 369.218 239.807 364.644 242.408L344.272 253.75C342.596 254.674 333.567 260.959 332.034 258.387C329.017 253.329 355.411 240.118 360.532 236.861C369.344 231.256 378.376 224.772 387.614 219.988ZM393.995 205.352C392.629 206.108 391.304 206.87 390.019 207.759C390.909 211.718 397.149 227.51 399.446 231.522C404.895 229.011 406.517 227.147 412.589 229.356C427.11 234.636 439.555 245.279 456.682 237.373C461.961 234.935 463.059 232.729 459.625 227.645C451.543 216.494 426.89 223.517 423.951 212.23C423.494 210.474 424.056 207.398 426.32 207.248C428.673 207.093 430.187 209.929 431.855 211.162C439.355 216.703 467.302 209.478 468.487 233.308L477.499 235.552C471.652 211.031 453.996 201.183 438.701 185.618L438.449 185.358C423.707 189.742 407.414 197.451 393.995 205.352Z"/>
	<path fill="#FF5D15" transform="scale(2 2)" d="M390.019 207.759C391.304 206.87 392.629 206.108 393.995 205.352C398.633 224.03 402.535 221.599 416.509 225.65C435.388 231.124 440.245 239.119 459.625 227.645C463.059 232.729 461.961 234.935 456.682 237.373C439.555 245.279 427.11 234.636 412.589 229.356C406.517 227.147 404.895 229.011 399.446 231.522C397.149 227.51 390.909 211.718 390.019 207.759Z"/>
	<path fill="#FF5D15" transform="scale(2 2)" d="M78.2177 293.709C73.2791 296.209 61.0946 301.848 55.8047 303.373C48.0854 305.599 42.9542 286.937 40.3567 281.087C34.2872 267.419 30.1474 265.28 46.5779 258.357C50.4861 256.71 54.4012 255.055 58.1907 253.146C60.0409 254.391 62.1285 255.599 63.3808 257.499C65.6983 261.015 78.2686 289.769 78.2177 293.709Z"/>
	<path fill="#FF5D15" transform="scale(2 2)" d="M263.957 259.771C267.544 259.408 271.08 258.902 274.473 257.619C285.28 262.337 305.32 276.29 310.996 287.237C309.831 295.054 310.866 303.752 309.909 311.827C308.059 309.6 306.43 308.383 303.548 307.733C295.649 309.576 296.897 319.943 295.945 327.221L292.706 350.74C288.658 379.249 283.51 407.875 277.115 435.952C266.264 443.619 247.367 447.511 234.175 447.22C242.195 445.889 242.966 445.529 247.777 438.041C267.364 407.549 272.218 364.398 272.178 328.478C272.151 303.96 269.205 283.865 263.957 259.771Z"/>
	<path fill="#FF5D15" transform="scale(2 2)" d="M116.423 335.749C135.597 325.425 150.785 317.637 168.427 303.592C172.77 311.277 180.206 322.245 186.595 328.22C183.73 329.481 181.043 331.164 178.307 332.68C157.138 344.408 134.079 352.657 110.247 356.895L108.763 354.261C119.446 345.834 102.744 337.87 94.7097 332.357C89.13 336.579 84.5068 344.317 81.6518 350.557C80.8922 349.488 80.1705 348.421 79.4947 347.296C80.4889 338.954 86.2229 331.743 92.5294 326.578C100.759 328.568 109.066 331.541 116.423 335.749Z"/>
	<path fill="#FF5D15" transform="scale(2 2)" d="M364.737 342.993C378.076 345.998 390.911 347.427 404.578 347.296C407.148 342.07 417.341 331.955 422.548 329.566C420.842 335.503 417.484 340.18 414.866 345.677C411.923 351.858 409.928 358.292 408.084 364.869C388.211 368.937 374.507 370.683 354.14 369.063C358.246 360.723 361.713 351.77 364.737 342.993Z"/>
	<path fill="#FF5D15" transform="scale(2 2)" d="M419.722 365.972C420.695 362.005 426.56 342.905 428.809 341.731C430.877 341.696 436.229 342.735 436.031 345.677C435.828 348.692 429.404 367.401 426.925 369.731C423.916 370.108 421.586 368.138 419.722 365.972Z"/>
</svg>
