<?xml version="1.0" encoding="utf-8" ?>
<svg xmlns="http://www.w3.org/2000/svg" xmlns:xlink="http://www.w3.org/1999/xlink" width="957" height="957">
	<path transform="scale(1.86985 1.86985)" d="M186.217 139.533C186.326 132.206 186.1 119.532 184.704 112.25C181.444 95.2499 175.395 82.2619 189.255 66.3577C204.132 49.2851 229.038 46.692 250.178 45.2613C279.216 44.5533 324.82 50.7594 330.22 85.2785C331.476 93.3075 329.523 103.922 328.728 112.118L326.282 139.533C348.695 137.591 341.331 181.88 325.03 189.003C323.353 189.736 321.445 189.744 319.707 190.303C313.738 212.799 307.201 220.673 294.187 237.706L294.036 237.907C296.267 246.692 295.901 247.319 305.025 251.135C310.099 253.259 314.689 256.612 318.426 260.638C327.861 270.804 324.416 267.262 338.225 272.55C379.578 288.386 405.601 313.577 403.689 361.622C403.336 370.512 401.492 379.269 401.515 388.185C401.556 404.048 403.671 419.839 403.767 435.652C403.879 454.236 385.525 453.661 372.227 455.416C335.493 460.263 297.961 462.108 260.955 462.001C221.432 462.348 180.878 460.707 141.638 455.937C129.11 454.414 109.452 454.326 108.767 437.175C108.123 421.057 111.211 403.204 110.746 386.191C110.621 381.616 109.44 377.243 108.693 372.754C100.413 322.997 131.015 286.072 177.361 270.909C180.372 269.924 183.483 269.103 186.41 267.896L186.745 267.756C190.751 261.519 196.339 255.55 203.145 252.364C214.029 247.268 213.298 250.502 217.226 237.349L217.307 237.084C204.645 223.679 196.897 208.117 192.545 190.303C165.419 180.465 165.333 139.411 186.217 139.533ZM313.319 74.8767C295.84 58.4627 272.228 56.5195 249.159 57.2353C217.693 58.2117 183.97 66.9825 194.843 104.863C201.104 103.092 207.63 101.681 214.037 100.522C218.487 99.4261 223.242 99.1599 227.805 98.9844C233.151 66.6794 275.795 63.6506 283.828 98.9844C297.15 100.728 304.861 102.405 317.445 106.256C319.057 90.5773 320.962 88.5871 313.319 74.8767ZM232.344 117.743C231.015 115.28 229.758 112.874 228.843 110.22C218.157 111.106 207.681 113.871 197.264 116.265C197.747 120.828 198.205 125.476 198.499 130.052C204.754 131.232 210.992 132.322 217.307 133.141C250.246 138.557 283.484 135.038 315.564 126.884C315.733 124.057 316.022 121.265 316.357 118.453C305.136 113.835 294.246 112.097 282.358 110.22C272.472 134.257 249.159 135.924 232.344 117.743ZM207.973 279.961C207.508 274.609 206.753 269.244 205.995 263.926C195.047 273.083 193.491 280.923 190.03 293.999L184.371 315.298C183.37 319.218 182.551 323.444 180.977 327.179C192.262 333.168 205.595 338.394 217.307 343.955C212.887 349.142 207.671 355.239 204.518 361.258C218.12 377.443 230.275 394.526 244.436 410.612C237.768 395.305 232.226 379.35 227.388 363.372C225.065 355.701 223.508 347.526 220.697 340.043C216.314 319.735 212.026 300.4 207.973 279.961ZM318.97 284.319C315.402 277.34 311.959 269.232 305.114 264.808C304.514 270.415 304.119 276.035 303.437 281.635C298.127 325.235 284.059 368.665 268.331 409.664C271.019 406.244 273.88 402.928 276.786 399.692C277.556 399.263 307.644 363.566 309.546 361.258C305.299 356.695 300.761 351.657 299.037 345.625L298.931 345.263L298.931 343.955C304.154 338.895 323.027 330.624 330.478 327.179C328.146 318.811 326.845 309.534 324.431 300.719C322.94 295.278 319.964 289.756 318.97 284.319ZM330.478 282.27C331.251 285.376 332.383 288.135 333.853 290.975C336.182 298.799 344.949 326.858 341.373 333.293C338.442 338.566 320.526 344.486 314.486 348.665C317.35 351.718 321.818 357.983 321.779 362.374C321.738 367.021 304.382 385.751 300.73 390.084L280.134 414.072C274.206 420.982 268.361 427.977 262.252 434.728L262.252 450.139C301.36 450.171 336.027 448.406 375.214 443.356C390.152 441.431 392.556 443.971 391.866 428.943C390.804 405.828 389.258 390.068 391.539 367.034C393.423 348.008 389.357 330.23 378.839 314.068C377.063 311.34 375.098 307.9 372.24 306.157C366.277 296.679 341.237 285.463 330.478 282.27ZM174.221 306.157C176.734 301.157 179.215 288.218 180.977 282.27C141.552 292.718 112.621 328.907 120.104 370.404C123.612 389.851 122.321 401.783 121.37 421.616C121.14 426.397 120.04 434.061 120.859 438.474C124.464 442.745 129.328 441.866 134.249 443.082C174.304 447.023 209.279 450.246 250.178 450.139L250.178 434.728C248.267 432.128 245.992 429.748 243.853 427.332L232.728 414.795C226.662 407.888 221.078 400.568 215.244 393.467C216.79 398.083 219.134 402.357 220.401 407.09C226.74 430.754 200.274 436.476 197.989 426.122C196.536 419.537 201.126 419.538 206.086 418.641C213.774 417.252 206.414 402.843 204.851 399L198.025 382.189C196.141 377.571 194.624 372.397 192.187 368.068C188.114 360.834 177.462 361.035 173.344 368.009C170.404 372.987 167.54 381.487 165.285 387.006C162.753 393.199 153.961 409.808 155.887 416.417C157.364 421.487 165.53 416.519 167.468 424.345L167.555 424.706C167.048 427.46 166.016 429.244 163.516 430.716C128.352 433.215 150.208 392.413 156.892 376.713C161.133 366.756 163.79 354.862 175.943 352.098L175.943 337.753C172.328 336.195 168.277 334.339 168.546 329.8C168.878 324.179 172.871 312.483 174.221 306.157ZM253.366 85.6871C244.498 86.9767 238.365 95.2264 239.686 104.09C241.007 112.954 249.278 119.057 258.137 117.705C266.952 116.36 273.018 108.139 271.704 99.319C270.39 90.4994 262.19 84.4039 253.366 85.6871ZM313.319 139.533C279.652 148.896 243.371 149.493 208.954 143.905C205.491 143.343 201.984 142.475 198.499 142.14C198.455 167.825 202.808 198.236 218.474 219.448C240.385 248.525 266.599 253.301 290.75 222.905C303.256 207.166 308.658 189.17 311.365 169.494C311.847 165.991 314.69 141.366 313.802 139.532L313.319 139.533ZM186.217 151.748C181.611 156.777 184.858 168.4 187.707 173.596L188.217 173.869C188.796 173.092 186.954 152.693 186.217 151.748ZM325.429 151.748C323.763 159.096 324.598 166.907 322.992 174.356C323.543 173.506 324.117 172.683 324.515 171.747C326.418 168.43 333.008 151.532 325.429 151.748ZM227.805 245.909C225.51 251.991 222.804 255.754 217.307 259.251C218.976 265.638 217.852 274.116 220.697 279.961C234.137 297.571 265.993 297.516 283.828 285.715C286.563 283.945 289.194 282.016 291.723 279.961C292.107 273.509 292.591 265.456 294.036 259.251C288.576 256.679 285.337 252.558 283.828 246.839C263.563 259.131 247.047 258.538 227.805 245.909ZM288.917 296.544C268.054 309.038 243.464 309.604 222.907 296.544C229.031 323.629 235.051 351.047 244.436 377.238C247.431 386.002 251.913 399.915 256.289 407.99C269.04 369.53 281.462 337.868 289.217 296.924L288.917 296.544ZM187.707 343.955L187.707 351.305C190.248 351.93 192.502 352.893 194.843 354.046L195.989 352.098L198.499 348.665C194.944 347.108 191.383 345.167 187.707 343.955Z"/>
	<path fill="#FF5D15" transform="scale(1.86985 1.86985)" d="M313.319 74.8767C320.962 88.5871 319.057 90.5773 317.445 106.256C304.861 102.405 297.15 100.728 283.828 98.9844C275.795 63.6506 233.151 66.6794 227.805 98.9844C223.242 99.1599 218.487 99.4261 214.037 100.522C212.85 82.6091 224.797 73.1982 241.718 70.0606C256.647 67.2925 290.903 67.5397 306.31 72.5774C308.661 73.3462 310.873 74.408 313.319 74.8767Z"/>
	<path fill="#FF5D15" transform="scale(1.86985 1.86985)" d="M232.344 117.743C249.159 135.924 272.472 134.257 282.358 110.22C294.246 112.097 305.136 113.835 316.357 118.453C316.022 121.265 315.733 124.057 315.564 126.884C283.484 135.038 250.246 138.557 217.307 133.141C217.466 133.002 217.387 133.101 217.463 132.796C213.112 129.277 211.558 123.651 217.839 120.917C221.102 119.497 228.459 118.533 232.344 117.743Z"/>
	<path transform="scale(1.86985 1.86985)" d="M229.635 160.996C230.912 158.93 231.578 157.8 234.211 157.551C244.167 155.438 242.023 176.672 224.067 170.338C220.723 168.807 219.02 167.627 218.474 163.707C219.441 156.421 225.152 157.613 229.635 160.996Z"/>
	<path transform="scale(1.86985 1.86985)" d="M291.723 170.338C273.838 175.628 267.836 161.904 276.786 157.551C280.049 157.311 281.708 158.565 283.828 160.996C285.83 160.17 287.641 159.227 289.756 158.683C295.278 160.583 296.408 166.347 291.723 170.338Z"/>
	<path fill="#FF5D15" transform="scale(1.86985 1.86985)" d="M192.545 327.937C195.615 315.73 202.371 291.271 207.973 279.961C212.026 300.4 216.314 319.735 220.697 340.043C211.118 336.923 201.731 332.037 192.545 327.937Z"/>
	<path fill="#FF5D15" transform="scale(1.86985 1.86985)" d="M318.97 284.319C319.964 289.756 322.94 295.278 324.431 300.719C326.845 309.534 328.146 318.811 330.478 327.179C323.027 330.624 304.154 338.895 298.931 343.955C301.591 329.506 308.843 312.177 312.297 296.432C313.25 292.086 314.027 287.701 315.564 283.513C316.697 283.844 317.795 284.163 318.97 284.319Z"/>
	<path fill="#FF5D15" transform="scale(1.86985 1.86985)" d="M333.853 290.975C346.835 295.864 359.681 300.127 372.24 306.157C375.098 307.9 377.063 311.34 378.839 314.068C389.357 330.23 393.423 348.008 391.539 367.034C389.258 390.068 390.804 405.828 391.866 428.943C392.556 443.971 390.152 441.431 375.214 443.356C336.027 448.406 301.36 450.171 262.252 450.139L262.252 434.728C268.361 427.977 274.206 420.982 280.134 414.072L300.73 390.084C304.382 385.751 321.738 367.021 321.779 362.374C321.818 357.983 317.35 351.718 314.486 348.665C320.526 344.486 338.442 338.566 341.373 333.293C344.949 326.858 336.182 298.799 333.853 290.975ZM314.486 387.192C313.927 390.927 313.807 394.769 314.486 398.5C314.577 403.717 314.502 408.942 314.486 414.16L361.494 414.16C361.488 408.996 361.197 403.643 361.494 398.5C362.072 396.813 361.503 389.56 361.494 387.192L314.486 387.192Z"/>
	<path fill="#FF5D15" transform="scale(1.86985 1.86985)" d="M222.907 296.544C243.464 309.604 268.054 309.038 288.917 296.544L289.217 296.924C281.462 337.868 269.04 369.53 256.289 407.99C251.913 399.915 247.431 386.002 244.436 377.238C235.051 351.047 229.031 323.629 222.907 296.544Z"/>
	<path fill="#FF5D15" transform="scale(1.86985 1.86985)" d="M134.249 443.082C134.512 438.594 133.976 434.101 134.226 429.597C134.94 416.749 136.681 404.136 136.067 391.228C135.48 378.907 134.04 366.597 137.28 354.508C142.607 334.635 156.347 316.499 174.221 306.157C172.871 312.483 168.878 324.179 168.546 329.8C168.277 334.339 172.328 336.195 175.943 337.753L175.943 352.098C163.79 354.862 161.133 366.756 156.892 376.713C150.208 392.413 128.352 433.215 163.516 430.716C166.016 429.244 167.048 427.46 167.555 424.706L167.468 424.345C165.53 416.519 157.364 421.487 155.887 416.417C153.961 409.808 162.753 393.199 165.285 387.006C167.54 381.487 170.404 372.987 173.344 368.009C177.462 361.035 188.114 360.834 192.187 368.068C194.624 372.397 196.141 377.571 198.025 382.189L204.851 399C206.414 402.843 213.774 417.252 206.086 418.641C201.126 419.538 196.536 419.537 197.989 426.122C200.274 436.476 226.74 430.754 220.401 407.09C219.134 402.357 216.79 398.083 215.244 393.467C221.078 400.568 226.662 407.888 232.728 414.795L243.853 427.332C245.992 429.748 248.267 432.128 250.178 434.728L250.178 450.139C209.279 450.246 174.304 447.023 134.249 443.082Z"/>
	<path fill="#FF5D15" transform="scale(1.86985 1.86985)" d="M298.931 345.263L299.037 345.625C300.761 351.657 305.299 356.695 309.546 361.258C307.644 363.566 277.556 399.263 276.786 399.692C277.776 396.739 279.59 394.007 281.048 391.264C289.223 375.887 292.5 360.666 298.931 345.263Z"/>
	<path transform="scale(1.86985 1.86985)" d="M314.486 398.5C313.807 394.769 313.927 390.927 314.486 387.192L361.494 387.192C361.503 389.56 362.072 396.813 361.494 398.5L314.486 398.5Z"/>
</svg>
