<?xml version="1.0" encoding="utf-8" ?>
<svg xmlns="http://www.w3.org/2000/svg" xmlns:xlink="http://www.w3.org/1999/xlink" width="1024" height="1024">
	<path transform="scale(2 2)" d="M202.758 203.764C203.794 183.034 205.074 167.608 222.353 151.853C252.237 124.606 296.231 138.007 325.189 159.595C329.381 162.72 333.021 166.424 337.094 169.661C341.498 170.451 345.993 170.674 350.432 171.218C389.371 175.998 429.007 194.761 458.993 219.55C468.271 227.221 480.156 232.586 477.654 246.357C476.763 251.258 473.576 254.834 470.559 258.599C471.72 277.954 459.901 283.154 444.474 291.537C410.149 310.189 387.556 315.541 351.252 323.397C348.942 326.335 347.33 329.731 345.322 332.866C341.914 338.188 326.777 356.69 320.07 357.505C298.203 376.161 265.264 372.144 241.946 358.564C238.141 356.348 231.656 353.414 231.846 348.132C232.117 340.603 241.304 341.397 246.517 339.955C256.519 337.189 270.616 329.539 278.243 322.451C272.182 320.842 264.098 320.049 257.674 318.801C241.536 315.668 225.907 311.422 210.656 305.249C199.573 323.686 177.041 333.477 156.331 335.314C152.266 335.674 145.935 336.644 143.293 332.602C139.419 326.676 147.249 320.432 149.875 315.726C155.111 306.343 156.653 295.781 158.57 285.38C166.402 296.778 165.265 309.837 161.253 322.451C162.413 322.168 163.428 321.651 164.498 321.137C173.739 312.424 170.673 298.633 164.498 288.984C174.202 295.089 184.402 299.303 195.019 303.499C198.178 304.748 202.208 305.247 205.06 306.969C206.461 306.314 207.965 305.801 209.411 305.249C203.717 301.886 197.182 299.618 191.191 296.766C181.603 292.201 172.227 287.215 162.817 282.3C152.079 276.692 139.338 267.884 126.757 271.83C121.742 279.101 117.757 286.957 112.795 294.217C109.968 298.354 92.7627 317.842 87.7479 318.935C75.7202 327.664 63.425 335.063 49.1762 339.536C34.811 344.046 32.885 338.606 34.9901 325.417C39.2546 298.698 53.7319 276.995 73.9986 259.927C71.6222 257.165 69.0071 254.638 66.5901 251.916C49.5142 232.684 37.6006 206.718 33.6324 181.47C30.7774 163.306 38.0202 163.873 52.9862 169.134C77.7285 177.832 100.328 195.952 113.14 218.979C117.546 226.899 120.744 233.443 130.48 235.385C145.029 238.286 173.314 220.06 186.361 212.807C191.768 209.801 197.64 207.218 202.758 203.764ZM290.155 310.29C300.753 303.734 318.137 286.153 326.146 275.475C317.075 310.616 287.609 338.7 253.834 350.533C255.037 351.287 256.133 351.925 257.479 352.402C278.307 348.85 287.554 345.19 306.259 333.561C313.763 328.896 326.108 319.634 333.848 317.212C339.961 305.483 346.324 290.14 351.252 277.632C351.891 288.179 351.075 299.023 349.181 309.401L349.464 309.313C351.887 308.537 355.176 305.729 356.094 309.401C361.442 308.904 366.921 307.443 372.134 306.19C358.379 286.561 351.733 271.195 350.099 246.37C348.652 224.394 353.331 205.648 363.859 186.48C305.372 173.077 251.196 191.917 200.595 219.417L183.769 228.661C180.134 230.68 176.217 232.571 172.953 235.15C167.4 245.095 161.85 254.725 157.143 265.153C166.975 269.657 176.214 275.382 185.902 280.169C222.827 298.411 248.59 306.377 290.155 310.29ZM446.37 275.475C451.321 272.341 456.322 270.137 457.498 263.852C450.324 265.517 443.832 265.423 436.626 263.852C444.354 255.848 473.571 249.042 462.268 238.187C442.391 219.096 402.623 197.913 376.826 190.123C356.274 222.738 357.456 275.002 386.723 302.12C406.986 296.952 428.69 286.618 446.37 275.475ZM307.439 157.161C286.907 149.595 261.783 143.054 240.882 152.674C221.115 161.773 207.373 182.551 203.849 203.764C206.694 201.762 209.868 200.55 212.777 198.715C225.858 160.227 265.06 145.305 301.944 156.064C303.433 156.498 305.925 157.866 307.439 157.161ZM81.9255 258.599C80.265 262.924 72.8458 272.308 69.8145 276.682C58.3698 293.195 51.9296 307.094 47.1201 326.603C50.4829 325.856 53.4858 324.158 56.8041 323.397C60.1668 306.897 73.0273 287.467 82.24 273.23C92.1534 257.909 93.1113 262.083 82.67 247.843C71.7773 232.988 57.6311 202.81 55.1268 183.896C52.3083 182.454 49.3201 181.301 46.3183 180.301C49.052 200.757 57.8357 221.424 69.2439 238.401C72.6762 243.509 80.4968 253.337 81.9255 258.599Z"/>
	<path transform="scale(2 2)" d="M282.199 221.514L282.416 221.783C282.066 230.647 286.494 247.246 293.204 253.058C299.111 258.174 310.573 259.145 318.141 258.599C315.828 261.622 312.759 263.619 309.322 265.153C286.403 276.566 262.278 242.515 282.199 221.514Z"/>
	<path transform="scale(2 2)" d="M248.86 235.15C249.878 236.064 253.329 244.109 254.505 246.07C262.757 259.836 270.357 263.272 282.199 271.83C281.202 271.877 280.207 271.848 279.209 271.83C256.522 277.478 240.25 257.987 248.86 235.15Z"/>
	<path transform="scale(2 2)" d="M315.042 222.384C316.116 223.542 319.997 233.061 321.247 235.352C327.269 246.393 336.305 252.203 345.461 259.927C343.887 259.975 342.303 259.935 340.727 259.927C319.274 260.543 302.282 241.171 315.042 222.384Z"/>
	<path transform="scale(2 2)" d="M218.519 239.651C219.645 240.698 225.075 250.937 226.667 253.42C229.996 258.613 233.991 263.495 238.288 267.914C241.52 271.237 249.88 275.666 244.302 276.481C221.339 278.948 212.146 259.651 218.519 239.651Z"/>
	<path fill="#FF5D15" transform="scale(2 2)" d="M55.1268 183.896C74.3381 191.483 92.2739 208.112 102.728 226.005C107.336 233.893 110.814 240.308 119.353 244.676C139.508 254.986 155.633 242.093 172.953 235.15C167.4 245.095 161.85 254.725 157.143 265.153C130.49 252.501 117.753 254.934 103.099 280.037C88.9913 304.204 77.9503 309.567 56.8041 323.397C60.1668 306.897 73.0273 287.467 82.24 273.23C92.1534 257.909 93.1113 262.083 82.67 247.843C71.7773 232.988 57.6311 202.81 55.1268 183.896Z"/>
	<path fill="#FF5D15" transform="scale(2 2)" d="M333.848 317.212C325.161 334.881 316.545 348.399 296.905 355.075C285.413 358.981 268.06 359.086 257.479 352.402C278.307 348.85 287.554 345.19 306.259 333.561C313.763 328.896 326.108 319.634 333.848 317.212Z"/>
	<path fill="#FF5D15" transform="scale(2 2)" d="M164.498 288.984C174.202 295.089 184.402 299.303 195.019 303.499C198.178 304.748 202.208 305.247 205.06 306.969C197.318 311.115 172.47 320.831 164.498 321.137C173.739 312.424 170.673 298.633 164.498 288.984Z"/>
	<path fill="#FF5D15" transform="scale(2 2)" d="M349.181 309.401L349.464 309.313C351.887 308.537 355.176 305.729 356.094 309.401C354.102 313.735 352.675 318.824 351.252 323.397C348.942 326.335 347.33 329.731 345.322 332.866C341.914 338.188 326.777 356.69 320.07 357.505C338.097 343.362 341.63 328.835 349.094 309.622L349.181 309.401Z"/>
	<path fill="#FF5D15" transform="scale(2 2)" d="M87.7479 318.935C95.968 310.118 101.826 305.005 109.111 294.463C114.053 287.314 117.947 275.141 126.757 271.83C121.742 279.101 117.757 286.957 112.795 294.217C109.968 298.354 92.7627 317.842 87.7479 318.935Z"/>
	<path transform="scale(2 2)" d="M406.633 213.605Q406.972 213.563 407.313 213.537Q407.654 213.512 407.996 213.503Q408.338 213.494 408.679 213.502Q409.021 213.51 409.362 213.535Q409.703 213.559 410.043 213.601Q410.382 213.642 410.719 213.7Q411.056 213.758 411.389 213.833Q411.723 213.907 412.053 213.998Q412.382 214.088 412.707 214.195Q413.032 214.302 413.351 214.424Q413.67 214.547 413.983 214.685Q414.296 214.823 414.602 214.976Q414.907 215.129 415.205 215.297Q415.503 215.465 415.792 215.648Q416.081 215.83 416.361 216.026Q416.641 216.223 416.911 216.432Q417.181 216.642 417.44 216.865Q417.699 217.088 417.947 217.323Q418.195 217.558 418.432 217.805Q418.668 218.053 418.892 218.311Q419.116 218.569 419.326 218.838Q419.537 219.108 419.735 219.387Q419.932 219.666 420.116 219.954Q420.299 220.243 420.469 220.54Q420.638 220.837 420.792 221.142Q420.947 221.447 421.086 221.759Q421.225 222.071 421.349 222.39Q421.473 222.708 421.581 223.033Q421.689 223.357 421.781 223.686Q421.873 224.016 421.949 224.349Q422.025 224.682 422.084 225.019Q422.143 225.356 422.186 225.695Q422.229 226.034 422.255 226.375Q422.281 226.716 422.29 227.058Q422.3 227.399 422.292 227.741Q422.285 228.083 422.261 228.424Q422.237 228.765 422.196 229.104Q422.155 229.444 422.097 229.781Q422.04 230.118 421.966 230.452Q421.892 230.786 421.802 231.115Q421.712 231.445 421.606 231.77Q421.499 232.095 421.377 232.414Q421.255 232.734 421.118 233.047Q420.98 233.36 420.828 233.666Q420.675 233.971 420.507 234.269Q420.34 234.567 420.158 234.857Q419.976 235.146 419.78 235.427Q419.584 235.707 419.375 235.977Q419.166 236.247 418.943 236.507Q418.721 236.767 418.486 237.015Q418.251 237.263 418.004 237.5Q417.758 237.737 417.5 237.961Q417.242 238.185 416.973 238.397Q416.704 238.608 416.425 238.806Q416.147 239.004 415.859 239.188Q415.57 239.372 415.274 239.541Q414.977 239.711 414.672 239.866Q414.367 240.021 414.055 240.161Q413.743 240.3 413.425 240.425Q413.106 240.549 412.782 240.658Q412.458 240.766 412.129 240.859Q411.8 240.951 411.467 241.028Q411.133 241.104 410.797 241.164Q410.46 241.224 410.121 241.267Q409.781 241.31 409.44 241.337Q409.098 241.364 408.756 241.373Q408.413 241.383 408.071 241.376Q407.728 241.369 407.387 241.345Q407.045 241.322 406.705 241.281Q406.365 241.241 406.027 241.183Q405.689 241.126 405.355 241.052Q405.02 240.979 404.69 240.889Q404.359 240.798 404.034 240.692Q403.708 240.586 403.388 240.464Q403.068 240.342 402.754 240.204Q402.44 240.067 402.134 239.914Q401.827 239.761 401.529 239.593Q401.23 239.425 400.94 239.243Q400.65 239.061 400.369 238.865Q400.088 238.668 399.818 238.458Q399.547 238.249 399.287 238.026Q399.027 237.803 398.778 237.568Q398.529 237.332 398.292 237.085Q398.055 236.838 397.83 236.579Q397.606 236.32 397.394 236.051Q397.182 235.782 396.984 235.502Q396.786 235.223 396.602 234.934Q396.418 234.645 396.248 234.348Q396.078 234.05 395.923 233.745Q395.768 233.439 395.629 233.126Q395.489 232.814 395.365 232.494Q395.24 232.175 395.132 231.85Q395.023 231.525 394.931 231.195Q394.839 230.866 394.763 230.532Q394.687 230.198 394.627 229.86Q394.568 229.523 394.525 229.183Q394.482 228.843 394.456 228.502Q394.43 228.16 394.421 227.818Q394.411 227.475 394.419 227.133Q394.426 226.79 394.451 226.449Q394.475 226.107 394.516 225.767Q394.557 225.427 394.615 225.089Q394.673 224.751 394.747 224.417Q394.821 224.082 394.912 223.752Q395.002 223.422 395.109 223.096Q395.216 222.771 395.338 222.451Q395.461 222.131 395.599 221.818Q395.737 221.504 395.89 221.198Q396.044 220.891 396.212 220.593Q396.38 220.295 396.563 220.005Q396.746 219.715 396.942 219.435Q397.139 219.154 397.349 218.884Q397.559 218.613 397.783 218.353Q398.006 218.093 398.242 217.845Q398.477 217.596 398.725 217.36Q398.973 217.123 399.232 216.899Q399.491 216.675 399.76 216.463Q400.03 216.252 400.31 216.055Q400.59 215.857 400.879 215.673Q401.168 215.489 401.466 215.32Q401.763 215.151 402.069 214.996Q402.375 214.842 402.688 214.702Q403.001 214.563 403.32 214.439Q403.64 214.316 403.965 214.208Q404.29 214.1 404.62 214.008Q404.95 213.916 405.284 213.841Q405.618 213.765 405.956 213.706Q406.293 213.647 406.633 213.605ZM410.619 230.752Q410.73 230.733 410.841 230.709Q410.951 230.685 411.06 230.656Q411.169 230.626 411.277 230.591Q411.384 230.556 411.49 230.516Q411.596 230.476 411.699 230.431Q411.803 230.386 411.904 230.335Q412.005 230.285 412.104 230.23Q412.203 230.175 412.298 230.115Q412.394 230.055 412.487 229.99Q412.58 229.926 412.669 229.857Q412.759 229.788 412.845 229.714Q412.931 229.641 413.013 229.563Q413.095 229.486 413.173 229.404Q413.252 229.323 413.326 229.238Q413.4 229.153 413.47 229.064Q413.54 228.975 413.606 228.883Q413.671 228.791 413.732 228.696Q413.793 228.601 413.849 228.503Q413.906 228.405 413.957 228.304Q414.008 228.203 414.055 228.1Q414.101 227.997 414.142 227.892Q414.183 227.786 414.219 227.679Q414.255 227.572 414.286 227.463Q414.317 227.355 414.342 227.245Q414.367 227.134 414.387 227.023Q414.407 226.912 414.421 226.8Q414.435 226.688 414.444 226.575Q414.453 226.462 414.456 226.349Q414.46 226.236 414.457 226.123Q414.455 226.01 414.447 225.898Q414.44 225.785 414.426 225.673Q414.413 225.56 414.394 225.449Q414.375 225.338 414.351 225.227Q414.327 225.117 414.297 225.008Q414.267 224.899 414.232 224.791Q414.197 224.684 414.157 224.578Q414.117 224.473 414.071 224.369Q414.026 224.266 413.975 224.164Q413.925 224.063 413.87 223.965Q413.814 223.866 413.754 223.77Q413.694 223.675 413.63 223.582Q413.565 223.489 413.496 223.4Q413.426 223.311 413.353 223.225Q413.279 223.139 413.202 223.057Q413.124 222.975 413.043 222.896Q412.961 222.818 412.876 222.744Q412.79 222.67 412.702 222.6Q412.613 222.53 412.521 222.465Q412.428 222.399 412.333 222.339Q412.238 222.278 412.14 222.222Q412.042 222.166 411.941 222.115Q411.84 222.063 411.737 222.017Q411.634 221.971 411.528 221.93Q411.423 221.889 411.316 221.853Q411.209 221.818 411.1 221.787Q410.991 221.757 410.881 221.731Q410.771 221.706 410.659 221.687Q410.548 221.667 410.436 221.653Q410.324 221.639 410.211 221.63Q410.098 221.621 409.985 221.618Q409.872 221.615 409.759 221.618Q409.646 221.62 409.534 221.628Q409.421 221.636 409.309 221.65Q409.196 221.663 409.085 221.682Q408.974 221.701 408.864 221.725Q408.753 221.75 408.645 221.78Q408.536 221.809 408.429 221.844Q408.321 221.879 408.216 221.92Q408.111 221.96 408.007 222.005Q407.904 222.051 407.803 222.101Q407.702 222.152 407.604 222.207Q407.506 222.262 407.41 222.322Q407.315 222.382 407.222 222.447Q407.13 222.512 407.041 222.581Q406.951 222.65 406.866 222.723Q406.78 222.797 406.698 222.874Q406.616 222.952 406.538 223.033Q406.46 223.114 406.386 223.2Q406.312 223.285 406.242 223.374Q406.173 223.462 406.107 223.554Q406.042 223.646 405.981 223.741Q405.921 223.836 405.865 223.934Q405.809 224.032 405.758 224.133Q405.706 224.233 405.66 224.336Q405.614 224.439 405.573 224.544Q405.532 224.65 405.496 224.757Q405.461 224.863 405.43 224.972Q405.4 225.081 405.374 225.191Q405.349 225.301 405.33 225.412Q405.31 225.523 405.296 225.635Q405.281 225.747 405.273 225.859Q405.264 225.972 405.26 226.084Q405.257 226.197 405.26 226.31Q405.262 226.423 405.27 226.535Q405.278 226.648 405.291 226.76Q405.304 226.872 405.323 226.983Q405.342 227.094 405.366 227.204Q405.39 227.315 405.42 227.423Q405.45 227.532 405.484 227.64Q405.519 227.747 405.56 227.852Q405.6 227.958 405.645 228.061Q405.69 228.164 405.741 228.265Q405.791 228.366 405.846 228.465Q405.901 228.563 405.961 228.659Q406.021 228.754 406.086 228.847Q406.15 228.939 406.219 229.029Q406.288 229.118 406.361 229.204Q406.435 229.289 406.512 229.372Q406.589 229.454 406.671 229.532Q406.752 229.61 406.837 229.684Q406.922 229.758 407.011 229.828Q407.099 229.898 407.191 229.963Q407.283 230.029 407.378 230.089Q407.473 230.15 407.571 230.206Q407.669 230.262 407.769 230.314Q407.87 230.365 407.973 230.411Q408.076 230.457 408.181 230.499Q408.286 230.54 408.393 230.576Q408.5 230.612 408.608 230.642Q408.717 230.673 408.827 230.698Q408.937 230.724 409.048 230.743Q409.159 230.763 409.271 230.778Q409.383 230.792 409.495 230.801Q409.607 230.81 409.72 230.813Q409.833 230.817 409.946 230.815Q410.059 230.812 410.171 230.805Q410.284 230.797 410.396 230.784Q410.508 230.771 410.619 230.752Z"/>
	<path fill="#FF5D15" transform="scale(2 2)" d="M212.777 198.715C225.858 160.227 265.06 145.305 301.944 156.064C303.433 156.498 305.925 157.866 307.439 157.161C316.514 160.401 325.654 164.568 333.848 169.661C294.02 169.454 259.529 176.753 223.034 193.896C219.642 195.489 216.265 197.359 212.777 198.715Z"/>
</svg>
