<?xml version="1.0" encoding="utf-8" ?>
<svg xmlns="http://www.w3.org/2000/svg" xmlns:xlink="http://www.w3.org/1999/xlink" width="1024" height="1024">
	<path transform="scale(2 2)" d="M299.543 108.799C303.28 101.276 309.071 78.6337 315.425 76.2493C319.57 76.0866 321.543 80.3112 323.758 83.1772C332.713 94.7644 356.811 130.672 361.048 145.247C361.144 146.126 361.054 147.096 361.048 147.985C358.108 150.609 340.605 157.392 336.187 159.395L301.276 175.448C294.07 178.806 286.829 182.357 279.509 185.45C268.784 189.98 272.026 179.536 273.416 174.069C275.426 166.159 278.398 157.953 279.544 149.899L279.586 149.583C272.816 146.073 264.457 148.446 257.311 149.498C200.528 157.855 143.571 206.911 145.528 267.505C146.576 299.937 164.912 311.854 185.1 330.796C185.789 331.057 186.477 331.545 187.116 331.921C176.119 340.509 164.843 348.93 153.536 357.114C143.573 364.326 143.706 363.741 132.879 356.299C87.0594 324.806 85.3528 285.49 101.821 234.533C127.583 154.821 211.475 80.2428 299.543 108.799ZM260.253 113.366C257.282 112.701 254.03 113.171 251.016 113.366C248.406 113.661 245.795 113.93 243.21 114.409C239.742 114.661 231.708 116.278 228.558 117.616C225.222 118.423 221.824 119.082 218.978 121.118C213.291 121.714 203.301 126.124 199.264 129.592C196.208 131.172 189.772 133.787 188.394 137.002C183.26 138.496 179.094 142.461 175.048 145.827C144.521 171.229 122.001 205.078 109.657 242.706C108.367 246.636 106.781 250.977 106.502 255.112C105.713 257.529 105.338 260.01 104.868 262.502C103.635 267.579 102.466 273.868 102.333 279.062C102.235 282.025 102.221 285.019 102.333 287.981C102.213 290.207 102.973 295.126 102.333 296.934C103.305 299.944 103.947 303.02 104.868 306.032C105.372 307.808 105.845 309.599 106.502 311.326C107.641 314.157 108.728 317.062 110.209 319.734C110.886 320.821 111.522 322.039 112.334 323.025C113.881 325.777 115.869 328.177 117.607 330.796L119.926 332.83C122.051 334.957 124.162 337.099 126.36 339.151C127.206 339.898 128.037 340.724 128.956 341.377C131.289 343.193 133.614 345.019 136.001 346.764C136.76 347.248 137.519 347.813 138.35 348.159C139.647 349.159 141.007 350.032 142.386 350.913C148.41 345.399 154.897 341.44 161.22 336.42C164.235 335.189 167.29 332.936 169.733 330.796L167.714 329.315L162.316 324.226C161.041 322.684 159.754 321.183 158.375 319.734C157.164 317.98 155.431 316.371 153.993 314.784C152.816 313.048 151.508 311.391 150.245 309.716C149.066 307.99 147.946 306.217 146.799 304.469C145.871 302.473 144.759 300.574 143.674 298.66L141.102 293.021C140.122 290.399 138.972 287.763 138.35 285.031C137.767 283.259 137.328 281.422 136.787 279.633C136.457 276.086 135.557 272.663 135.338 269.079C134.917 267.323 134.709 265.558 134.492 263.768L134.492 249.652C134.651 247.695 135.219 245.808 135.338 243.819C136.672 240.156 138.795 230.014 139.66 225.939C140.293 225.319 140.671 224.556 141.102 223.793C140.59 219.059 145.417 210.843 147.428 206.667C160.117 180.312 181.123 161.273 206.249 146.924C208.537 146.037 210.78 144.562 212.947 143.396C218.074 142.078 226.557 138.834 231.966 137.002C234.851 136.513 237.72 135.99 240.586 135.4C244.065 135.332 247.542 134.943 251.016 134.738C253.871 134.739 256.491 134.888 259.294 135.4C261.585 135.479 264.139 135.761 266.402 135.4L274.319 137.781C276.142 137.762 277.814 138.541 279.586 138.775C283.532 140.23 289.531 140.389 290.57 145.247C290.189 146.669 289.819 148.118 289.645 149.583C288.489 153.524 287.478 157.493 286.647 161.516C285.486 165.419 284.541 169.265 283.89 173.292C288.368 170.394 293.364 167.421 298.707 166.651C299.417 166.063 299.97 165.581 300.454 164.791C309.508 162.024 325.591 154.109 334.679 149.817C339.431 147.572 344.334 144.688 349.436 143.396C348.646 141.473 347.823 139.616 346.843 137.781C345.86 135.821 344.718 133.931 343.627 132.028C343.197 131.043 342.604 130.382 341.894 129.592C340.61 126.656 339.048 123.905 337.474 121.118C337.178 120.279 336.701 119.524 336.258 118.756C330.012 109.12 323.038 99.4094 317.028 89.9936C314.664 95.8719 312.349 101.774 310.127 107.708C308.432 112.234 307.997 118.583 302.577 119.775C301.407 119.245 299.96 119.048 298.707 118.756C296.022 117.846 293.3 117.091 290.57 116.334C289.286 116.14 287.912 115.665 286.647 115.34C283.086 114.572 279.522 114.07 275.884 114.409C273.668 113.803 271.644 113.474 269.345 113.366C266.249 113.167 263.337 112.801 260.253 113.366Z"/>
	<path fill="#FF5D15" transform="scale(2 2)" d="M290.57 145.247C291.905 143.708 293.479 141.55 295.379 140.687C298.079 137.231 326.711 113.08 330.732 110.682C328.247 114.813 321.325 120.041 317.52 123.698L303.514 137.063C301.265 139.172 299.021 141.52 296.581 143.396C294.641 145.585 292.155 148.058 289.645 149.583C289.819 148.118 290.189 146.669 290.57 145.247Z"/>
	<path fill="#FF5D15" transform="scale(2 2)" d="M251.016 113.366C254.03 113.171 257.282 112.701 260.253 113.366C255.889 115.785 234.871 133.113 231.966 137.002C226.557 138.834 218.074 142.078 212.947 143.396C214.294 140.531 220.518 137.519 223.165 135.529C231.966 128.914 242.611 120.623 251.016 113.366Z"/>
	<path fill="#FF5D15" transform="scale(2 2)" d="M269.345 113.366C271.644 113.474 273.668 113.803 275.884 114.409C267.373 119.403 258.703 128.323 251.016 134.738C247.542 134.943 244.065 135.332 240.586 135.4C250.383 128.354 259.544 120.452 269.345 113.366Z"/>
	<path fill="#FF5D15" transform="scale(2 2)" d="M228.558 117.616C231.708 116.278 239.742 114.661 243.21 114.409C239.856 116.976 207.159 144.278 206.249 146.924C181.123 161.273 160.117 180.312 147.428 206.667C145.417 210.843 140.59 219.059 141.102 223.793L141.054 223.903L140.665 223.66C134.324 226.341 115.742 248.585 106.502 255.112C106.781 250.977 108.367 246.636 109.657 242.706C122.001 205.078 144.521 171.229 175.048 145.827C179.094 142.461 183.26 138.496 188.394 137.002C180.601 145.337 169.36 151.287 163.771 161.516C170.087 157.718 197.959 132.525 199.264 129.592C203.301 126.124 213.291 121.714 218.978 121.118C216.023 123.427 213.446 126.199 210.779 128.828L198.732 140.598C193.925 145.244 187.644 150.089 183.591 155.302C189.061 153.064 196.157 145.61 200.857 141.705L218.66 126.765C221.529 124.32 226.518 120.527 228.558 117.616Z"/>
	<path fill="#FF5D15" transform="scale(2 2)" d="M286.647 115.34C287.912 115.665 289.286 116.14 290.57 116.334C285.033 121.597 272.619 131.014 266.402 135.4C264.139 135.761 261.585 135.479 259.294 135.4C262.937 131.792 282.295 117.567 286.647 115.34Z"/>
	<path fill="#FF5D15" transform="scale(2 2)" d="M298.707 118.756C299.96 119.048 301.407 119.245 302.577 119.775C296.389 124.691 284.57 132.957 279.586 138.775C277.814 138.541 276.142 137.762 274.319 137.781C279.253 132.689 292.821 122.788 298.707 118.756Z"/>
	<path fill="#FF5D15" transform="scale(2 2)" d="M286.647 161.516C289.102 159.797 291.338 157.677 293.604 155.719L305.052 145.859C315.55 136.924 326.368 128.387 336.258 118.756C336.701 119.524 337.178 120.279 337.474 121.118C331.453 127.145 300.283 158.949 298.707 166.651C293.364 167.421 288.368 170.394 283.89 173.292C284.541 169.265 285.486 165.419 286.647 161.516Z"/>
	<path fill="#FF5D15" transform="scale(2 2)" d="M341.894 129.592C342.604 130.382 343.197 131.043 343.627 132.028C340.043 138.582 334.513 143.845 330.732 150.337C335.096 147.754 343.312 141.369 346.843 137.781C347.823 139.616 348.646 141.473 349.436 143.396C344.334 144.688 339.431 147.572 334.679 149.817C325.591 154.109 309.508 162.024 300.454 164.791C301.864 162.136 310.041 156.666 312.756 154.281C319.238 148.588 335.106 132.654 341.894 129.592Z"/>
	<path fill="#FEFEFE" transform="scale(2 2)" d="M188.394 137.002C189.772 133.787 196.208 131.172 199.264 129.592C197.959 132.525 170.087 157.718 163.771 161.516C169.36 151.287 180.601 145.337 188.394 137.002Z"/>
	<path transform="scale(2 2)" d="M244.631 362.565C290.871 363.403 334.782 338.659 358.827 299.237C379.22 265.8 382.602 225.573 354.541 194.78C349.466 189.211 334.304 180.705 343.769 174.18C348.829 170.692 371.653 157.983 377.447 156.279C384.032 155.955 402.002 177.538 405.218 182.491C421.215 207.13 422.603 238.527 416.631 266.582C398.114 353.574 311.127 425.636 220.641 406.046C219.45 409.954 218.272 413.85 217.341 417.829C216.244 422.52 215.456 435.184 208.173 433.705C197.905 431.621 171.575 397.758 163.771 386.083C155.162 372.76 151.208 371.494 165.567 363.207L220.936 330.782C226.902 327.268 240.474 318.23 246.358 316.866C254.063 318.691 250.281 327.611 249.387 333.172C247.815 342.957 245.817 352.726 244.631 362.565ZM377.447 166.651C372.317 168.861 366.283 171.291 362.206 175.157C358.897 176.069 356.174 177.841 353.117 179.32C354.593 180.672 355.761 182.259 356.974 183.841C358.621 184.997 359.801 186.409 361.048 187.968C361.839 188.97 362.615 189.906 363.546 190.786C364.934 192.345 366.27 193.928 367.571 195.56C368.18 196.432 368.765 197.335 369.438 198.157C370.926 200.273 372.303 202.445 373.431 204.776L374.76 207.312C376.173 209.917 377.229 212.617 378.306 215.371C378.739 215.97 379.201 216.554 379.558 217.2C380.034 220.941 381.35 224.54 382.545 228.103L382.545 230.755C383.541 234.649 383.713 238.689 383.981 242.684C383.958 244.135 383.906 245.589 383.981 247.04C384.14 251.487 383.645 255.875 383.981 260.328C383.037 262.033 382.614 264.53 382.545 266.465C381.731 270.697 380.619 274.886 379.558 279.062C378.319 282.883 376.257 286.877 375.561 290.801C373.751 294.493 372.177 298.293 370.353 301.979C367.331 306.611 362.154 314.835 359.558 319.734C353.738 329.009 339.801 343.334 331.804 350.147C316.177 361.259 311.056 365.118 291.725 371.366L289.645 372.131C285.878 372.653 272.821 374.041 270.313 374.946L268.296 374.946C262.862 374.988 257.242 374.428 251.846 374.946L249.957 374.946C246.522 374.123 235.858 372.033 234.791 370.399C232.759 367.29 239.314 335.578 240.586 330.796C232.039 333.739 212.345 346.843 204.03 351.799C200.064 354.162 193.896 357.179 190.478 359.856C184.724 362.941 172.014 369.722 167.714 373.965C168.705 376.429 170.074 378.504 171.587 380.672C173.392 383.625 175.652 386.307 177.597 389.173L179.818 392.75C182.205 394.76 183.876 397.456 186.054 399.675L188.394 402.398C190.343 404.739 192.28 406.992 194.658 408.909C196.117 410.546 197.564 411.973 199.264 413.356C200.049 414.449 200.785 415.439 201.8 416.341C203.232 417.64 204.707 418.831 206.249 419.998C207.034 416.772 207.514 413.471 208.265 410.232C212.808 398.479 209.866 392.909 223.407 397.286C225.474 397.779 227.545 398.327 229.633 398.722C232.268 399.316 235.437 399.88 238.133 399.675C241.624 400.21 244.989 400.294 248.511 400.243C251.831 400.236 255.122 399.944 258.427 399.675C262.069 399.368 265.685 398.792 269.345 398.722C273.269 398.046 277.89 396.909 281.716 395.767C285.622 395.114 289.355 394.045 293.091 392.75C299.047 391.268 304.818 388.374 310.508 386.083C314.407 384.372 318.349 381.816 322.442 380.672C343.658 368.969 364.344 349.925 378.378 330.345C380.925 326.792 384.168 322.834 385.671 318.718C388.362 314.558 390.446 310.069 393.319 306.032C394.404 302.163 396.463 298.536 397.959 294.8C400.465 290.146 402.181 284.206 403.398 279.062C404.08 276.775 404.825 274.573 405.714 272.355C406.178 267.342 407.735 262.556 408.356 257.582C409.003 255.838 409.271 253.769 409.484 251.922C409.704 247.935 409.721 243.936 409.875 239.945C410.061 238.61 409.943 237.278 409.875 235.937C410.347 231.898 409.894 227.849 409.875 223.793C409.575 222.534 409.595 220.968 409.484 219.665C408.58 215.53 407.657 211.41 406.594 207.312C406.34 206.455 406.019 205.617 405.714 204.776C404.407 201.403 403.172 197.906 401.447 194.724C401.118 193.817 400.721 193.036 400.225 192.21C398.666 189.279 396.737 186.563 394.845 183.841C394.366 183.121 393.834 182.432 393.319 181.737C391.564 179.335 389.42 177.249 387.318 175.157C386.922 174.461 386.231 173.867 385.671 173.292C383.93 171.888 382.223 170.461 380.55 168.977C379.767 168.302 378.433 166.809 377.447 166.651Z"/>
	<path fill="#FF5D15" transform="scale(2 2)" d="M377.447 166.651C378.433 166.809 379.767 168.302 380.55 168.977C375.722 174.774 366.825 184.502 363.546 190.786C362.615 189.906 361.839 188.97 361.048 187.968C365.525 181 372.448 173.816 377.447 166.651Z"/>
	<path fill="#FF5D15" transform="scale(2 2)" d="M385.671 173.292C386.231 173.867 386.922 174.461 387.318 175.157C384.02 180.866 373.936 192.697 369.438 198.157C368.765 197.335 368.18 196.432 367.571 195.56C373.866 189.203 380.009 178.306 385.671 173.292Z"/>
	<path fill="#FF5D15" transform="scale(2 2)" d="M353.117 179.32C356.174 177.841 358.897 176.069 362.206 175.157C359.927 177.811 358.425 180.681 356.974 183.841C355.761 182.259 354.593 180.672 353.117 179.32Z"/>
	<path fill="#FF5D15" transform="scale(2 2)" d="M393.319 181.737C393.834 182.432 394.366 183.121 394.845 183.841C389.833 191.158 380.693 199.874 374.76 207.312L373.431 204.776C379.524 196.662 387.694 190.129 393.319 181.737Z"/>
	<path fill="#FF5D15" transform="scale(2 2)" d="M400.225 192.21C400.721 193.036 401.118 193.817 401.447 194.724C397.415 199.352 384.43 213.176 379.558 217.2C379.201 216.554 378.739 215.97 378.306 215.371C385.412 208.419 393.762 199.6 400.225 192.21Z"/>
	<path fill="#FF5D15" transform="scale(2 2)" d="M405.714 204.776C406.019 205.617 406.34 206.455 406.594 207.312C399.796 214.006 389.85 225.53 382.545 230.755L382.545 228.103C385.581 224.404 401.688 207.578 405.714 204.776Z"/>
	<path fill="#FF5D15" transform="scale(2 2)" d="M409.484 219.665C409.595 220.968 409.575 222.534 409.875 223.793L409.415 223.592C402.712 227.259 392.831 241.598 383.981 247.04C383.906 245.589 383.958 244.135 383.981 242.684C392.307 236.988 400.862 226.413 409.484 219.665Z"/>
	<path fill="#FF5D15" transform="scale(2 2)" d="M104.868 262.502C109.166 261.518 131.53 231.277 139.66 225.939C138.795 230.014 136.672 240.156 135.338 243.819C126.089 255.74 112.541 267.253 102.333 279.062C102.466 273.868 103.635 267.579 104.868 262.502Z"/>
	<path fill="#FF5D15" transform="scale(2 2)" d="M383.981 260.328C384.016 260.492 383.981 260.377 384.183 260.628C388.905 256 405.457 238.034 409.875 235.937C409.943 237.278 410.061 238.61 409.875 239.945L398.575 251.404C393.659 256.478 388.509 262.66 382.545 266.465C382.614 264.53 383.037 262.033 383.981 260.328Z"/>
	<path fill="#FF5D15" transform="scale(2 2)" d="M102.333 287.981C104.234 285.085 132.468 250.867 134.492 249.652L134.492 263.768L112.837 286.787C109.645 290.114 106.372 294.258 102.53 296.802L102.333 296.934C102.973 295.126 102.213 290.207 102.333 287.981Z"/>
	<path fill="#FF5D15" transform="scale(2 2)" d="M379.558 279.062C383.858 278.575 401.318 256.983 409.484 251.922C409.271 253.769 409.003 255.838 408.356 257.582C405.952 258.813 386.869 279.654 383.963 282.639C381.541 285.127 378.468 289.007 375.561 290.801C376.257 286.877 378.319 282.883 379.558 279.062Z"/>
	<path fill="#FF5D15" transform="scale(2 2)" d="M135.338 269.079C135.557 272.663 136.457 276.086 136.787 279.633C129.322 289.037 115.532 302.37 106.502 311.326C105.845 309.599 105.372 307.808 104.868 306.032C107.64 301.338 130.663 272.8 135.338 269.079Z"/>
	<path fill="#FF5D15" transform="scale(2 2)" d="M370.353 301.979C380.457 295.943 398.882 275.184 405.714 272.355C404.825 274.573 404.08 276.775 403.398 279.062C396.623 285.253 389.809 291.361 383.31 297.847L368.862 312.088C366.213 314.653 363.265 318.734 359.558 319.734C362.154 314.835 367.331 306.611 370.353 301.979Z"/>
	<path fill="#FF5D15" transform="scale(2 2)" d="M110.209 319.734C112.251 316.632 114.677 313.889 117.012 311.013L123.635 302.723C128.423 296.821 133.067 290.484 138.35 285.031C138.972 287.763 140.122 290.399 141.102 293.021C134.09 299.655 118.929 319.048 112.334 323.025C111.522 322.039 110.886 320.821 110.209 319.734Z"/>
	<path fill="#FF5D15" transform="scale(2 2)" d="M331.804 350.147L332.196 350.511C334.737 350.566 340.332 343.791 342.285 342.056L366.603 320.576C372.749 315.094 390.863 297.964 397.959 294.8C396.463 298.536 394.404 302.163 393.319 306.032C385.644 309.055 361.939 337.172 353.483 345.408C349.07 349.706 311.739 383.983 310.508 386.083C304.818 388.374 299.047 391.268 293.091 392.75C296.352 385.689 311.825 373.052 315.875 365.127L315.521 365.062C310.511 369.223 306.057 374.091 301.194 378.433C294.793 384.147 287.657 389.583 281.716 395.767C277.89 396.909 273.269 398.046 269.345 398.722C271.189 395.835 292.014 372.911 291.725 371.366C311.056 365.118 316.177 361.259 331.804 350.147Z"/>
	<path fill="#FF5D15" transform="scale(2 2)" d="M143.674 298.66C144.759 300.574 145.871 302.473 146.799 304.469C143.656 308.522 123.652 330.283 119.926 332.83L117.607 330.796C119.174 328.242 140.871 300.612 143.674 298.66Z"/>
	<path fill="#FF5D15" transform="scale(2 2)" d="M150.245 309.716C151.508 311.391 152.816 313.048 153.993 314.784C148.928 321.722 135.141 335.882 128.956 341.377C128.037 340.724 127.206 339.898 126.36 339.151C133.783 329.319 142.542 319.769 150.245 309.716Z"/>
	<path fill="#FF5D15" transform="scale(2 2)" d="M322.442 380.672C323.357 377.421 341.457 358.116 344.176 355.424C353.063 346.626 363.021 338.568 372.409 330.278C375.856 327.234 382.205 320.848 385.671 318.718C384.168 322.834 380.925 326.792 378.378 330.345C364.344 349.925 343.658 368.969 322.442 380.672Z"/>
	<path fill="#FF5D15" transform="scale(2 2)" d="M158.375 319.734C159.754 321.183 161.041 322.684 162.316 324.226C156.319 331.275 145.687 341.965 138.35 348.159C137.519 347.813 136.76 347.248 136.001 346.764C142.427 339.65 153.541 327.335 158.375 319.734Z"/>
	<path fill="#FF5D15" transform="scale(2 2)" d="M167.714 329.315L169.733 330.796C167.29 332.936 164.235 335.189 161.22 336.42C162.107 334.329 165.798 330.56 167.714 329.315Z"/>
	<path fill="#FF5D15" transform="scale(2 2)" d="M190.478 359.856C193.896 357.179 200.064 354.162 204.03 351.799C212.345 346.843 232.039 333.739 240.586 330.796C239.314 335.578 232.759 367.29 234.791 370.399C235.858 372.033 246.522 374.123 249.957 374.946C244.429 378.006 228.276 392.161 223.407 397.286C209.866 392.909 212.808 398.479 208.265 410.232C206.21 412.368 204.185 414.564 201.8 416.341C200.785 415.439 200.049 414.449 199.264 413.356C201.433 408.773 212.536 394.342 215.903 390.327L224.299 380.437C226.096 378.348 228.125 376.267 229.633 373.965C217.516 384.364 208.161 397.93 194.658 408.909C192.28 406.992 190.343 404.739 188.394 402.398C190.744 399.122 209.58 377.84 209.671 376.296C208.5 376.865 204.613 381.718 203.361 383.014C197.88 388.685 191.934 394.395 186.054 399.675C183.876 397.456 182.205 394.76 179.818 392.75C181.7 389.598 184.063 386.947 186.31 384.063L196.234 371.366C193.245 373.391 180.476 386.245 177.597 389.173C175.652 386.307 173.392 383.625 171.587 380.672C176.99 374.712 186.133 366.294 190.478 359.856Z"/>
	<path fill="#FF5D15" transform="scale(2 2)" d="M270.313 374.946C272.821 374.041 285.878 372.653 289.645 372.131C285.664 377.315 264.416 394.809 258.667 398.972L258.756 399.237L258.466 399.116L258.226 399.523L258.427 399.675C255.122 399.944 251.831 400.236 248.511 400.243C251.957 395.068 266.284 378.756 270.313 374.946Z"/>
	<path fill="#FF5D15" transform="scale(2 2)" d="M251.846 374.946C257.242 374.428 262.862 374.988 268.296 374.946C258.127 382.844 248.483 391.561 238.133 399.675C235.437 399.88 232.268 399.316 229.633 398.722C232.078 395.356 249.586 376.443 251.846 374.946Z"/>
</svg>
