<?xml version="1.0" encoding="utf-8" ?>
<svg xmlns="http://www.w3.org/2000/svg" xmlns:xlink="http://www.w3.org/1999/xlink" width="1024" height="1024">
	<path transform="scale(2 2)" d="M177.383 156.305C179.915 154.761 182.095 152.613 184.338 150.687L195.074 141.521C201.67 135.888 245.796 97.8142 252.384 96.5729C257.174 96.6417 263.01 103.671 266.476 106.621L288.772 125.535C339.253 168.273 393.281 214.679 437.966 262.897C441.164 266.349 454.639 278.577 448.492 283.908C442.292 289.285 427.239 270.796 423.566 267.185C417.183 260.911 410.444 254.832 404.414 248.217C402.702 258.874 401.785 269.496 400.432 280.188C420.608 295.7 433.234 315.147 447.154 336.184C456.597 350.453 465.977 355.71 457.999 372.13C456.272 375.683 450.041 377.619 446.763 379.336C429.766 388.241 411.07 398.234 394.889 408.619C380.641 417.762 377.263 419.41 365.381 405.729C355.435 405.343 345.328 405.726 335.363 405.727L275.187 405.729C264.169 406.379 253.037 406.245 241.999 406.468C216.091 406.993 190.121 408.667 164.301 410.847C142.982 412.648 116.697 417.514 109.851 388.74C108.222 381.895 108.931 366.632 108.923 359.109C108.885 322.313 104.46 286.105 97.5804 250.049C91.3491 256.291 63.6329 284.372 55.7973 286.48C42.5754 281.682 61.2276 265.763 65.567 261.285C78.1334 248.317 94.3483 234.399 105.826 221.371C96.5503 206.388 105.657 191.915 104.831 177.641C104.293 168.351 98.3894 159.826 100.694 150.295C105.04 132.32 123.667 137.562 136.089 135.54C147.79 133.634 167.981 121.077 177.278 137.687C180.601 143.624 177.421 147.459 175.757 153.091C176.212 154.252 176.736 155.247 177.383 156.305ZM450.001 367.131C453.471 358.404 445.41 351.478 440.623 343.585C426.397 320.134 408.862 291.29 382.591 280.064C363.558 271.932 346.66 275.836 338.363 295.708C324.246 325.824 347.428 361.502 363.258 386.108C365.406 389.448 367.529 393.397 370.145 396.374C378.319 410.819 385.5 403.043 395.682 396.938C413.7 386.136 431.726 377.084 450.001 367.131ZM252.384 113.573C248.676 115.9 245.296 118.958 241.928 121.743C193.768 161.564 147.323 203.191 101.759 245.945C116.06 274.655 121.907 336.482 122.234 367.664C122.362 379.828 120.4 393.245 135.446 398.189C140.852 399.966 172.004 396.597 180.091 396.125L200.955 395.052C205.055 394.852 209.226 394.828 213.291 394.255C213.972 385.715 213.363 373.922 213.302 365.111L213.265 303.622C213.187 287.317 215.392 289.775 230.901 290.222L246.652 290.591C253.226 290.762 287.291 290.563 290.964 292.984C292.457 295.103 291.697 298.867 291.357 301.338C291.561 307.536 290.932 313.714 290.798 319.904L289.222 370.818C288.976 378.293 288.052 388.526 288.751 395.741C292.661 396.209 296.599 396.306 300.526 396.555C321.364 397.874 342.041 400.322 362.838 402.025C345.298 370.098 315.77 337.859 327.451 297.438C337.57 262.421 366.931 262.634 395.267 277.407C395.383 267.118 396.559 254.466 400.432 244.852C393.086 236.949 384.839 229.899 376.845 222.664L343.698 192.788C313.984 166.383 283.368 138.465 252.384 113.573ZM161.065 142.388C150.894 144.195 144.385 149.64 132.721 149.78C126.633 149.853 119.062 147.771 114.656 153.091C113.909 158.066 116.002 162.056 117.253 166.765C122.123 185.092 114.288 195.98 115.75 211.8C117.042 210.739 118.396 209.705 119.601 208.547C136.164 193.996 154.511 177.752 170.423 162.514C167.798 158.321 165.448 154.452 166.637 149.286C167.971 143.485 168.256 141.233 161.065 142.388ZM276.593 300.374C259.2 299.324 240.371 301.899 223.672 300.374C223.113 305.375 223.388 310.339 223.503 315.356L224.304 373.73C224.383 380.576 224.758 387.394 224.731 394.255L228.437 394.255C244.56 394.24 262.943 395.643 278.634 394.993C278.426 387.936 279.041 380.884 279.22 373.834L280.82 321.011C280.974 314.174 281.721 307.197 281.278 300.374C279.698 300.291 278.173 300.266 276.593 300.374Z"/>
	<path transform="scale(2 2)" d="M175.757 254.361C173.023 243.391 188.773 227.072 195.193 218.926L213.504 195.371C222.065 184.35 230.549 173.317 239.335 162.472C243.777 156.988 247.991 147.702 255.218 155.505C258.091 158.606 260.697 162.054 263.374 165.33L281.925 188.476C292.392 201.472 306.543 217.69 315.563 231.547C315.841 232.82 315.864 234.716 314.711 235.587C309.675 231.565 303.784 224.128 299.206 219.242C282.615 201.536 266.727 183.236 250.675 165.046C236.15 182.834 222.351 201.273 208.274 219.419C202.679 226.631 189.256 242.17 185.575 250.049L187.057 254.361C195.366 264.952 181.136 266.545 175.757 254.361Z"/>
	<path fill="#FF5D15" transform="scale(2 2)" d="M315.563 231.547C315.897 229.47 316.02 227.373 316.325 225.296C328.975 237.053 320.643 258.072 303.162 258.59C291.964 258.921 286.093 248.478 279.762 240.983L258.607 216.217C255.607 212.736 252.802 208.788 249.321 205.779C246.179 210.685 242.504 215.161 238.92 219.742L207.444 260.143C200.727 268.599 192.147 282.73 179.081 274.201C173.369 270.472 168.223 258.465 175.757 254.361C181.136 266.545 195.366 264.952 187.057 254.361L228.299 202.995C233.954 195.965 242.76 183.641 249.321 177.842C253.878 184.147 259.619 189.743 264.617 195.715L285.136 219.786C289.664 225.121 294.036 230.681 298.776 235.824C304.571 242.111 308.912 241.326 314.711 235.587C315.864 234.716 315.841 232.82 315.563 231.547Z"/>
	<path transform="scale(2 2)" d="M360.446 304.773C349.334 306.955 342.813 290.38 357.203 285.261C369.562 284.748 371.638 301.907 360.446 304.773ZM357.203 292.142C355.172 294.273 355.256 298.339 358.724 298.876C361.23 296.482 360.975 292.969 357.203 292.142Z"/>
	<path fill="#FF5D15" transform="scale(2 2)" d="M338.363 295.708C338.625 296.242 338.659 296.651 338.66 297.25C338.694 320.737 379.28 321.818 378.182 295.629C378.1 293.653 377.877 291.672 377.687 289.703C403.119 299.815 419.528 332.575 433.92 353.921C435.5 356.264 437.201 358.543 438.578 361.014C419.683 371.477 402.438 382.285 382.39 391.271C378.451 393.037 374.301 395.249 370.145 396.374C367.529 393.397 365.406 389.448 363.258 386.108C347.428 361.502 324.246 325.824 338.363 295.708ZM366.175 323.282C362.65 325.783 365.895 329.442 367.17 332.279C358.391 340.467 359.014 355.396 371.896 355.725C375.752 355.823 378.771 353.942 382.284 352.726C385.379 355.599 388.403 359.201 390.655 362.777C388.594 364.2 386.096 366.015 383.603 366.562C380.575 367.226 374.265 367.623 378.448 372.582C382.006 376.8 391.376 371.364 394.503 369.082L396.387 371.197C402.385 377.587 407.175 375.109 400.432 364.887C415.264 347.891 403.1 335.326 383.535 342.669C381.776 339.819 379.851 337.118 377.687 334.561C390.576 333.165 387.519 322.806 373.794 328.612C371.662 325.441 370.321 322.855 366.175 323.282Z"/>
	<path transform="scale(2 2)" d="M367.17 332.279C365.895 329.442 362.65 325.783 366.175 323.282C370.321 322.855 371.662 325.441 373.794 328.612C387.519 322.806 390.576 333.165 377.687 334.561C379.851 337.118 381.776 339.819 383.535 342.669C403.1 335.326 415.264 347.891 400.432 364.887C407.175 375.109 402.385 377.587 396.387 371.197L394.503 369.082C391.376 371.364 382.006 376.8 378.448 372.582C374.265 367.623 380.575 367.226 383.603 366.562C386.096 366.015 388.594 364.2 390.655 362.777C388.403 359.201 385.379 355.599 382.284 352.726C378.771 353.942 375.752 355.823 371.896 355.725C359.014 355.396 358.391 340.467 367.17 332.279ZM371.553 338.202C369.149 342.068 368.738 349.178 375.32 347.155L377.687 346.229C375.8 343.787 373.722 340.283 371.553 338.202ZM393.263 348.068C391.789 348.277 390.582 348.604 389.192 349.159C391.243 351.865 393.212 354.635 395.267 357.335L395.804 357.751C398.907 356.044 398.278 348.53 393.263 348.068Z"/>
	<path transform="scale(2 2)" d="M270.771 352.726C261.371 353.365 260.981 336.853 267.612 334.561C276.846 333.341 277.259 349.755 270.771 352.726Z"/>
	<path fill="#FF5D15" transform="scale(2 2)" d="M375.32 347.155C368.738 349.178 369.149 342.068 371.553 338.202C373.722 340.283 375.8 343.787 377.687 346.229L375.32 347.155Z"/>
	<path fill="#FF5D15" transform="scale(2 2)" d="M389.192 349.159C390.582 348.604 391.789 348.277 393.263 348.068C398.278 348.53 398.907 356.044 395.804 357.751L395.267 357.335C393.212 354.635 391.243 351.865 389.192 349.159Z"/>
</svg>
