<?xml version="1.0" encoding="utf-8" ?>
<svg xmlns="http://www.w3.org/2000/svg" xmlns:xlink="http://www.w3.org/1999/xlink" width="3500" height="3500">
	<path transform="scale(6.83658 6.83658)" d="M413.644 351.515C413.691 365.018 415.049 385.798 405.833 395.702C397.144 405.04 386.682 404.179 375.045 404.819C338.955 406.804 302.577 407.362 266.423 406.78C201.971 405.744 138.041 399.405 74.1222 391.411C67.7875 390.619 60.3071 390.269 54.2527 388.352C32.757 381.545 34.2962 360.42 35.0508 342.918L38.7166 273.273C41.2574 231.924 45.139 190.813 50.0643 149.668C51.9633 133.804 52.6739 106.624 75.6162 106.24C79.4118 105.949 83.367 106.198 87.1819 106.191C128.886 106.107 170.819 110.233 212.318 113.833C233.695 115.688 255.165 117.933 276.639 118.222C307.245 118.634 337.271 116.147 367.635 112.917C374.497 112.188 381.925 110.343 388.789 111.578C409.489 115.303 410.022 131.587 411.244 147.644L413.018 171.457C413.152 173.408 413.147 178.742 414.114 180.119L414.312 179.896C414.347 178.651 422.723 162.867 423.787 160.643C419.608 158.097 422.501 157.354 425.815 156.604C437.473 153.965 448.197 154.224 458.547 160.858C491.051 181.693 469.448 204.852 455.097 228.596C441.761 250.661 427.876 273.437 413.644 294.917L413.644 351.515ZM332.287 330.062C333.378 323.401 332.931 310.325 334.655 305.053C335.655 301.996 341.643 293.686 343.706 290.322C361.362 261.536 380.487 233.697 398.065 204.877C399.791 202.047 401.407 199.139 403.285 196.406C403.276 192.66 402.865 188.904 402.57 185.171L399.65 144.775C399.338 140.918 399.388 136.563 398.389 132.829C394.679 118.976 380.265 122.9 370.505 124.079C337.805 128.027 304.673 130.077 271.748 129.338C244.046 128.715 215.551 125.48 187.884 123.003C154.304 119.998 120.265 117.658 86.5495 117.505C90.247 121.036 93.2784 124.411 95.1869 129.237C100.076 141.599 101.372 182.872 101.697 197.491C102.686 241.871 100.42 288.327 95.3062 332.563C93.3783 349.241 91.6073 366.73 81.4576 380.699C89.5982 381.325 97.7928 382.74 105.916 383.689C188.362 393.325 271.356 397.645 354.327 394.359L374.393 393.468C388.712 392.868 400.469 393.425 401.2 375.701C401.848 359.986 401.922 344.221 401.767 328.498C401.716 323.376 402.382 318.371 401.76 313.254C400.249 316.399 388.492 334.517 386.174 336.615C383.504 339.031 379.315 340.849 376.155 342.58C368.623 346.705 343.186 363.181 336.516 364.795C327.471 362.564 331.288 351.026 331.558 344.223C332.226 339.618 332.327 334.711 332.287 330.062ZM73.5024 117.505C61.838 124.108 63.3271 132.387 61.9513 144.04C54.0523 210.95 48.792 277.912 46.5171 345.261C46.0245 359.846 43.6272 378.603 65.3312 378.269C83.6227 378.374 86.0389 332.642 87.1781 320.592C91.7742 271.977 93.1972 222.938 92.3457 174.125C92.1695 164.025 91.9296 139.405 89.516 131.355C87.7634 125.509 84.3594 122.496 81.4576 117.505C78.8043 117.44 76.1558 117.472 73.5024 117.505ZM426.83 159.627C424.187 165.124 421.564 171.017 418.326 176.181C421.737 176.773 425.236 176.513 428.699 177.132C440.684 179.275 453.166 186.153 460.042 196.406L461.391 198.257C463.929 194.183 467.386 188.304 466.142 183.293C462.745 169.62 439.967 158.397 426.83 159.627ZM415.98 183.136C414.31 186.777 412.462 192.912 408.731 194.689C396.384 214.806 385.03 236.141 372.787 256.522L351.447 291.26C349.161 295.046 346.541 298.791 344.477 302.683C356.363 303.335 368.075 309.94 375.94 318.706C377.332 320.258 380.802 325.106 382.162 325.796L382.523 325.371C387.536 316.625 393.313 308.368 398.636 299.815L447.505 221.506C449.997 217.511 453.059 213.418 454.88 209.083C446.385 194.082 432.282 186.795 415.98 183.136ZM344.477 313.254C342.653 316.362 341.725 333.305 341.714 338.392C346.947 339.792 348.702 341.798 351.906 345.81C355.965 342.756 360.643 340.586 364.624 337.523C367.925 336.022 371.391 334.1 374.343 331.986C366.615 322.961 357.267 312.997 344.477 313.254Z"/>
	<path transform="scale(6.83658 6.83658)" d="M304.351 329.525C304.504 322.4 303.967 315.268 303.766 308.149C303.125 285.352 301.53 259.131 302.75 236.5C268.592 235.127 234.339 234.51 200.156 234.498L173.181 234.488C168.77 234.486 164.248 234.251 159.853 234.5C160.717 247.175 160.656 259.776 160.643 272.473L160.431 300.377C160.37 311.377 160.249 325.603 159.181 336.239C158.093 342.097 156.688 342.014 155.363 336.239C153.588 328.82 153.516 320.587 153.023 312.988C151.434 288.488 149.592 252.88 154.014 228.979C149.298 233.48 136.87 244.138 131.676 245.58C127.933 244.88 124.501 241.957 126.61 237.784C128.109 234.818 137.075 228.696 139.885 226.259C161.822 207.23 183.696 187.771 204.177 167.16C213.052 158.229 221.17 145.226 233.874 141.604C240.596 144.217 247.41 152.447 252.535 157.428L277.547 182.109C275.867 160.46 273.127 162.426 291.925 159.876C309.951 157.432 311.348 162.718 311.03 178.413L310.677 198.749C310.568 204.123 310.211 209.428 310.743 214.791C314.385 220.061 348.465 246.021 335.261 247.802C331.592 248.297 316.864 234.73 313.004 231.711C313.268 235.101 313.033 238.502 313.017 241.898L313.004 329.525C312.839 331.56 314.593 348.601 306.835 343.065C304.169 341.163 304.754 332.758 304.351 329.525ZM232.692 153.98C227.426 157.708 223.403 163.117 219.142 167.915C200.656 188.734 178.757 206.063 158.424 224.966C159.24 227.392 159.607 230.224 159.853 232.77C169.153 225.792 210.86 225.624 223.703 225.5L281.749 225.553C288.75 225.605 295.726 226.266 302.75 226.234L304.351 224.066C287.184 208.309 270.793 191.72 254.326 175.242C247.26 168.173 239.358 161.346 232.692 153.98ZM296.8 170.752C293.083 170.806 289.344 170.949 285.648 171.363C286.199 178.174 286.626 184.672 286.499 191.521C289.301 194.112 292.123 196.715 294.819 199.415C296.713 201.308 298.584 203.241 300.522 205.089C300.85 200.899 300.562 196.697 300.53 192.5L300.522 170.752C299.283 170.747 298.038 170.714 296.8 170.752Z"/>
	<path fill="#FF5D15" transform="scale(6.83658 6.83658)" d="M408.731 194.689C412.462 192.912 414.31 186.777 415.98 183.136C432.282 186.795 446.385 194.082 454.88 209.083C453.059 213.418 449.997 217.511 447.505 221.506L398.636 299.815C393.313 308.368 387.536 316.625 382.523 325.371L382.162 325.796C380.802 325.106 377.332 320.258 375.94 318.706C368.075 309.94 356.363 303.335 344.477 302.683C346.541 298.791 349.161 295.046 351.447 291.26L372.787 256.522C385.03 236.141 396.384 214.806 408.731 194.689Z"/>
	<path transform="scale(6.83658 6.83658)" d="M254.63 329.525C253.472 318.061 252.631 306.468 252.763 294.942C252.835 288.62 257.127 270.469 248.28 270.32C242.075 270.216 235.701 271.226 229.475 271.444C226.472 271.549 213.831 269.912 212.312 272.659C209.1 278.471 211.031 324.763 212.713 331.986C212.611 337.441 215.018 344.741 207.971 346.304C207.22 346.256 206.466 346.288 205.714 346.304C201.665 342.951 202.066 338.03 201.907 333.249C200.108 318.849 198.328 287.433 200.709 273.795C203.597 257.255 215.395 261.088 227.832 260.791C236.659 260.58 252.502 257.56 259.292 263.041C267.375 269.566 263.624 286.838 263.511 295.651C263.368 306.827 264.108 318.428 265.428 329.525C265.697 332.315 266.759 337.333 265.192 339.73C263.61 342.151 260.295 342.924 257.95 341.13C254.965 338.845 255.145 332.931 254.63 329.525Z"/>
	<path fill="#FF5D15" transform="scale(6.83658 6.83658)" d="M254.63 329.525C255.145 332.931 254.965 338.845 257.95 341.13C260.295 342.924 263.61 342.151 265.192 339.73C266.759 337.333 265.697 332.315 265.428 329.525L304.351 329.525C304.754 332.758 304.169 341.163 306.835 343.065C314.593 348.601 312.839 331.56 313.004 329.525C319.453 329.508 325.846 329.81 332.287 330.062C332.327 334.711 332.226 339.618 331.558 344.223C324.725 344.137 318.04 345.226 311.245 345.639C296.372 346.543 281.552 347.058 266.715 348.608C259.272 349.386 252.004 350.481 244.501 350.877C242.128 351.002 239.638 350.826 237.305 351.282C246.377 352.771 262.497 350.944 271.808 350.389C285.134 349.594 298.426 349.708 311.752 349.375C314.354 349.31 319.998 348.489 319.002 353.141C318.179 356.988 312.396 355.989 309.559 356.125L212.94 360.861C195.901 361.999 178.239 363.862 161.325 364.646C156.408 364.874 153.792 363.567 152.474 358.435C154.615 350.007 162.118 351.866 169.245 351.2C173.722 350.781 205.284 348.257 207.971 346.304C215.018 344.741 212.611 337.441 212.713 331.986C221.209 330.755 234.356 330.49 243.095 330.136C246.559 329.996 251.335 330.277 254.63 329.525Z"/>
	<path fill="#FF5D15" transform="scale(6.83658 6.83658)" d="M159.181 336.239C172.372 336.494 188.135 333.746 201.907 333.249C202.066 338.03 201.665 342.951 205.714 346.304C196.029 347.27 183.702 347.085 173.573 347.632C169.612 347.847 138.066 350.614 136.187 349.667C133.232 348.178 131.328 344.53 132.97 341.398C135.734 336.125 149.27 338.097 155.363 336.239C156.688 342.014 158.093 342.097 159.181 336.239Z"/>
</svg>
