<?xml version="1.0" encoding="utf-8" ?><svg xmlns="http://www.w3.org/2000/svg" xmlns:xlink="http://www.w3.org/1999/xlink" width="3663" height="3663" viewBox="0 0 3663 3663"><path transform="scale(7.15518 7.15518)" d="M170.153 279.284C167.333 272.469 169.031 266.069 170.072 259.008L187.282 140.657C189.917 123.257 189.467 104.203 212.355 100.841C214.236 100.552 224.291 101.842 226.752 102.098L445.218 125.017C454.718 126.05 460.961 130.282 465.237 139.051C469.797 148.404 465.231 163.005 463.542 173.008L455.255 221.126C451.607 242.423 448.252 263.77 444.112 284.996C442.382 293.867 442.025 300.968 438.796 309.527C445.458 315.187 447.683 326.438 446.929 334.816C446.463 339.988 431.865 350.188 427.847 353.448L375.001 397.224C357.14 411.92 356.538 412.769 331.22 408.598C325.028 407.578 318.752 406.8 312.551 405.734C296.585 403.552 280.41 400.68 264.448 398.321L84.3296 370.851C69.589 368.514 54.1938 368.438 47.278 352.887C45.0223 347.814 43.8559 338.424 49.728 335.407C60.1937 330.03 71.1861 325.489 81.8131 320.422L156.01 285.882C160.643 283.702 165.468 281.298 170.153 279.284ZM142.545 308.86C144.681 308.838 146.056 308.656 148.254 308.86C152.49 309.536 156.557 309.773 160.795 310.346L379.227 339.454C382.16 339.841 385.959 340.251 388.781 340.859C398.625 333.81 417.049 323.821 425.251 316.177C425.747 315.947 425.595 316.03 426.011 315.659C424.748 314.818 396.694 311.7 393.062 311.275L207.414 290.977C199.428 290.172 191.06 289.682 183.163 288.506L160.341 299.292C154.524 302.068 147.444 304.95 142.545 308.86ZM128.438 318.246C127.53 317.092 127.171 316.596 126.414 315.293C111.011 321.866 92.0096 330.722 77.6247 338.676C82.4696 339.022 87.1537 339.372 91.7703 340.859C98.5862 340.579 109.45 342.19 116.625 342.935L164.745 348.081C172.951 341.822 185.178 334.249 193.976 328.415C173.605 326.705 148.752 321.786 128.438 318.246ZM212.355 114.499C206.053 116.243 204.266 119.475 203.358 125.552L184.201 256.418C183.625 260.231 182.083 269.036 182.241 272.298C183.565 274.081 184.324 274.743 186.619 275.007L399.305 297.932C406.942 298.776 416.627 299.702 424.056 301.186C425.045 301.121 425.608 301.131 426.6 301.186C428.417 289.039 431.158 276.144 433.29 263.921L445.022 195.425C447.763 179.898 450.638 164.265 452.77 148.627C453.59 142.604 448.081 139.427 442.926 138.798C430.484 137.279 417.929 136.298 405.473 135L247.835 118.327C236.505 117.112 223.654 115.3 212.355 114.499ZM431.385 329.239C415.699 338.243 399.126 352.135 384.017 362.492C372.158 370.62 360.979 381.659 345.569 380.463C331.383 379.362 317.149 377.454 302.991 375.985L66.9501 350.122C65.1162 349.901 63.1398 349.729 61.3272 349.415C65.8688 352.84 68.0192 353.519 73.625 354.896L335.924 394.481C353.472 396.971 352.551 398.867 367.097 386.257C375.369 379.085 431.895 332.376 432.29 331.13C432.237 330.158 432.228 330.206 431.75 329.424L431.385 329.239ZM214.596 331.2C208.188 335.016 191.337 345.754 186.015 350.909C200.584 351.675 216.338 353.531 230.932 354.947L326.482 364.353C332.918 365.046 340.141 365.896 346.577 365.782C356.727 367.439 366.513 358.753 373.99 352.412C370.107 352.143 365.977 351.424 362.087 350.902L225.882 332.817C224.089 332.555 215.949 331.208 214.596 331.2Z"/><path transform="scale(7.15518 7.15518)" d="M410.029 294.948C403.88 294.474 397.767 293.376 391.626 292.741C365.991 290.089 205.902 273.927 198.738 268.95C190.308 263.093 194.977 250.277 196.093 242.091C199.597 216.385 203.568 190.713 207.556 165.077C209.527 152.403 208.484 130.972 224.318 128.589C227.259 128.257 232.796 128.925 235.879 129.239L389.153 144.541C401.876 145.81 414.608 147.002 427.312 148.462C444.733 148.659 438.671 169.791 437.222 179.874L425.151 264.076C423.461 275.845 424.811 293.787 410.029 294.948ZM224.318 136.269C218.302 138.619 218.474 146.276 217.687 151.859L205.44 236.283C204.671 241.926 202.527 253.304 202.455 258.375C218.604 260.535 235.345 262.134 251.56 263.919L319.144 271.454C328.089 272.436 408.04 281.653 408.445 281.355L408.655 280.438C410.497 270.074 412.738 259.647 414.744 249.288L429.38 173.607C430.248 169.367 432.061 161.592 432.376 157.465C428.239 156.53 420.957 155.957 416.464 155.47L244.363 138.208C239.818 137.745 228.034 136.103 224.318 136.269Z"/><path transform="scale(7.15518 7.15518)" d="M324.082 135.323C320.042 136.238 313.654 134.787 316.832 129.492C320.609 129.63 327.945 129.281 324.082 135.323Z"/><path fill="#FF5D15" transform="scale(7.15518 7.15518)" d="M216.999 212.015C221.13 191.322 225.807 167.964 228.667 147.153C242.333 150.001 262.717 148.106 274.77 152.952C265.867 159.187 246.668 179.92 239.084 188.032C232.187 195.108 223.595 205.881 216.999 212.015Z"/><path fill="#FF5D15" transform="scale(7.15518 7.15518)" d="M213.681 235.274C219.398 219.022 268.413 167.958 282.702 152.952C288.217 153.033 296.324 153.965 301.613 155.239C299.353 156.871 297.325 159.036 295.251 160.91C271.493 182.372 248.074 204.236 224.318 225.697C220.954 228.782 217.184 232.464 213.681 235.274Z"/><path fill="#FF5D15" transform="scale(7.15518 7.15518)" d="M244.898 224.138C266.505 201.113 288.585 176.653 311.704 155.239C315.713 155.156 322.597 156.397 327.226 156.536C325.386 158.625 321.481 161.268 319.249 163.137L254.808 216.452C251.94 218.74 247.849 222.19 244.898 224.138Z"/><path fill="#FF5D15" transform="scale(7.15518 7.15518)" d="M148.254 308.86C151.727 309.005 180.24 293.151 186.155 291.401C192.221 289.606 203.602 293.502 210.208 293.836C261.708 301.165 314 308.599 365.633 314.055C380.213 315.596 394.653 318.084 409.367 318.359C415.444 318.472 420.384 316.448 425.251 316.177C417.049 323.821 398.625 333.81 388.781 340.859C385.959 340.251 382.16 339.841 379.227 339.454L160.795 310.346C156.557 309.773 152.49 309.536 148.254 308.86Z"/><path fill="#FF5D15" transform="scale(7.15518 7.15518)" d="M128.438 318.246C148.752 321.786 173.605 326.705 193.976 328.415C185.178 334.249 172.951 341.822 164.745 348.081L116.625 342.935C109.45 342.19 98.5862 340.579 91.7703 340.859C94.532 337.436 123.768 320.109 128.438 318.246Z"/><path fill="#FF5D15" transform="scale(7.15518 7.15518)" d="M186.015 350.909C191.337 345.754 208.188 335.016 214.596 331.2C215.949 331.208 224.089 332.555 225.882 332.817L362.087 350.902C365.977 351.424 370.107 352.143 373.99 352.412C366.513 358.753 356.727 367.439 346.577 365.782C340.141 365.896 332.918 365.046 326.482 364.353L230.932 354.947C216.338 353.531 200.584 351.675 186.015 350.909Z"/></svg>