<?xml version="1.0" encoding="utf-8" ?>
<svg xmlns="http://www.w3.org/2000/svg" xmlns:xlink="http://www.w3.org/1999/xlink" width="1024" height="1024">
	<path transform="scale(2 2)" d="M252.215 104.628C283.241 104.583 313.833 105.778 344.739 108.988C356.499 110.21 368.125 112.548 379.871 113.793C390.703 114.94 402.927 110.772 411.787 119.162C421.662 128.512 416.582 144.861 418.561 157.113C423.395 187.033 473.105 192.685 464.211 226.368C462.364 233.363 456.651 242.133 448.373 239.676C448.594 270.275 444.886 301.41 438.874 331.367C434.119 355.064 436.115 358.127 413.416 367.247C416.48 375.305 422.28 395.517 421.325 403.857C414.141 414.142 406.067 400.643 401.479 395.143C394.079 386.273 386.972 377.156 379.644 368.225C369.531 368.157 359.399 368.754 349.291 369.088L301.82 370.595C288.734 371.054 273.838 370.644 260.625 370.627L210.026 370.601C205.103 370.573 200.172 370.713 195.25 370.602L154.078 369.308C146.763 369.069 139.452 368.709 132.131 368.748L131.737 369.118C121.977 378.184 109.162 400.362 99.3443 406.472C96.4151 408.295 92.2046 407.103 90.5751 404.072C87.7825 398.878 96.2781 373.723 98.3273 367.247C76.776 359.114 77.666 353.718 73.2804 332.699C67.9031 306.928 61.6889 268.902 62.5854 242.641C51.1664 241.225 46.7711 228.785 46.7585 218.558C46.7293 194.69 71.8061 188.546 85.7134 174.408C102.027 157.825 86.6237 132.452 100.198 118.949C107.12 112.064 118.417 114.053 127.211 114.118C144.188 114.244 161.634 110.433 178.504 108.652C203 106.066 227.584 104.612 252.215 104.628ZM397.579 340.162C396.595 342.558 395.003 344.494 392.206 343.047C388.215 340.984 387.442 320.015 387.714 315.895C364.133 327.041 353.086 329.34 326.149 330.407C264.768 332.839 202.959 327.997 142.495 317.257C133.189 315.604 130.102 315.996 122.909 309.673C123.407 315.025 122.991 320.167 122.737 325.525C122.574 328.966 123.733 345.99 116.538 343.114C114.085 340.691 115.813 322.765 115.775 318.22C115.624 300.208 110.88 237.676 97.313 224.509C93.7676 219.608 85.588 213.852 79.6528 218.413C73.9729 222.777 76.052 251.33 76.4038 257.782C77.0787 270.159 84.372 340.258 91.9477 349.464C97.1166 355.745 112.407 354.44 119.965 354.722L155.223 355.823C186.253 356.737 217.138 357.391 248.18 357.284L301.31 356.752C336.299 356.345 371.285 355.418 406.242 353.701C422.573 352.899 422.371 350.139 425.688 334.397C432.275 303.144 435.444 270.869 435.385 238.92C435.372 231.813 437.293 215.865 426.811 215.628C422.191 216.048 418.221 218.307 415.256 221.841C399.911 240.133 390.235 313.091 397.579 340.162ZM426.015 199.033C403.898 202.16 396.177 227.431 396.277 246.837C399.604 235.505 403.54 221.256 412.13 212.782C425.536 200.068 444.642 202.767 447.561 223.184C447.806 224.898 447.92 226.639 448.373 228.315C459.955 213.128 441.751 196.224 426.015 199.033ZM62.5854 227.231L62.7105 226.875C65.4848 218.87 65.5732 210.842 74.5552 206.457C86.9824 200.391 99.0826 210.079 105.628 220.133C109.871 227.183 112.613 234.5 114.424 242.501C115.084 245.42 115.302 249.014 116.598 251.712C114.673 235.632 113.597 215.186 99.742 204.372C95.1814 200.812 86.5154 197.112 80.6677 199.033C65.9122 198.946 55.0316 214.1 62.5854 227.231ZM404.322 382.019L408.008 386.365C406.943 381.775 404.964 366.474 400.293 367.247C397.743 367.319 395.196 367.202 392.648 367.247C395.144 371.315 401.109 378.249 404.322 382.019ZM358.764 250.879C356.197 254.823 350.435 254.543 346.313 255.645C336.764 258.199 327.55 262.268 318.43 266.042C315.85 267.11 306.746 271.995 304.89 271.959C302.468 271.911 300.888 268.598 302.367 266.668C306.54 261.223 344.783 249.777 352.414 247.746C340.949 244.019 333.93 240.607 322.167 243.228C308.554 246.261 293.772 250.92 282.074 258.832C279.925 260.285 274.585 265.422 271.724 264.286C265.188 261.691 273.499 256.198 275.678 254.804C285.789 248.338 297.318 241.724 309.305 239.676C298.223 234.968 258.062 234.231 245.947 234.249C210.681 236.075 168.069 242.767 137.992 261.095C134.713 263.093 128.47 266.449 127.223 270.416L127.323 270.995C130.337 272.839 143.759 271.928 147.634 271.988C207.239 272.901 266.115 284.674 325.75 285.474C344.924 285.731 364.629 284.568 383.101 279.043C384.008 275.541 383.415 270.327 381.517 267.166C378.465 262.086 354.45 272.649 350.312 274.484C348.905 275.176 337.003 280.816 340.258 273.642C342.594 268.491 367.771 261.498 375.539 259.516C370.459 256.23 364.63 252.562 358.764 250.879ZM103.542 385.468C105.064 383.907 106.447 382.51 107.5 380.582C110.986 377.154 115.654 372.245 118.315 368.225C114.989 367.731 112.218 367.756 108.898 368.225C107.049 373.951 105.197 379.682 103.542 385.468ZM105.628 166.747C112.504 165.28 119.821 167.586 126.827 167.444C136.48 167.249 146.063 164.428 154.761 160.328C174.696 150.93 185.818 145.779 195.124 170.719C227.617 166.994 274.464 164.891 307.12 171.699C308.275 164.955 309.084 157.757 313.495 152.22C324.189 138.795 342.123 149.251 354.995 152.494C371.466 156.644 395.912 152.128 406.233 160.457C404.003 150.069 405.89 141.49 404.573 132.419C403.525 125.194 394.503 127.028 389.361 127.172C377.211 127.51 365.113 124.576 353.152 122.861C294.239 114.413 227.784 114.243 168.5 122.153C152.887 124.237 137.658 126.672 121.88 126.896C101.623 127.184 108.222 133.058 107.464 150.794C107.235 156.167 105.945 161.393 105.628 166.747Z"/>
	<path fill="#FF5D15" transform="scale(2 2)" d="M323.091 156.053C328.987 155.48 338.753 160.032 344.477 161.993C356.525 166.12 368.028 166.802 380.732 166.764C389.074 166.74 403.239 163.329 404.754 174.179C404.068 178.645 401.125 182.469 399.076 186.43C394.656 194.973 391.459 204.189 389.02 213.478C386.832 221.814 385.845 232.684 378.803 238.546C370.808 243.963 363.721 239.83 355.748 237.145C345.233 233.605 334.186 230.759 323.29 228.652C318.041 227.637 312.069 227.217 307.142 225.077C290.352 217.785 307.125 197.979 311.074 187.755C314.794 178.123 314.295 159.276 323.091 156.053Z"/>
	<path fill="#FF5D15" transform="scale(2 2)" d="M122.394 282.83C130.173 286.516 146.779 284.538 155.79 284.895C217.235 287.332 278.02 299.418 339.678 298.329C355.038 298.057 373.575 296.038 387.714 290.498C387.863 295.122 386.794 300.083 387.714 304.602C386.076 305.286 384.582 305.954 383.101 306.945C351.719 322.581 308.488 320.929 274.126 319.94C225.707 318.547 170.173 312.676 122.909 303.627C123.68 296.739 122.126 289.755 122.394 282.83Z"/>
	<path fill="#FF5D15" transform="scale(2 2)" d="M173.501 161.287C182.181 160.276 183.385 170.503 184.593 176.679C186.387 185.847 188.827 194.695 193.42 202.896C196.65 208.662 201.68 213.588 203.191 220.133C200.024 228.439 187.193 228.811 179.248 230.974C169.793 233.549 159.957 236.927 151.103 241.194C145.217 244.032 138.976 248.926 132.131 246.837C121.4 242.003 120.922 229.12 118.372 219.054C116.711 212.501 114.896 205.843 112.469 199.527C109.825 192.646 105.035 187.065 102.581 180.076C105.464 170.428 115.054 175.09 122.895 175.736C147.954 177.798 154.684 166.283 173.501 161.287Z"/>
	<path fill="#FF5D15" transform="scale(2 2)" d="M195.124 170.719C227.617 166.994 274.464 164.891 307.12 171.699C306.08 178.208 304.312 184.588 301.364 190.505C295.516 202.24 287.931 211.436 295.468 224.509C271.462 220.304 235.673 220.304 212.409 224.509C214.759 215.826 210.005 209.215 206.038 201.801C200.63 191.693 196.872 182.171 195.124 170.719Z"/>
	<path fill="#FF5D15" transform="scale(2 2)" d="M418.881 188.103C423.312 187.582 427.169 187.587 431.044 189.973C427.172 189.833 423.31 190.183 419.439 189.973C417.019 190.432 410.134 192.342 408.027 190.469L408.135 190.152C410.34 188.213 415.976 188.332 418.881 188.103Z"/>
	<path fill="#FF5D15" transform="scale(2 2)" d="M95.1284 183.946C97.1993 186.25 98.2508 189.619 100.46 192.199C98.6715 191.796 96.9007 191.297 95.1284 190.827C92.668 190.26 90.3238 190.045 87.8012 189.973C90.2436 187.947 92.6014 185.872 95.1284 183.946Z"/>
	<path fill="#FF5D15" transform="scale(2 2)" d="M413.416 180.076C415.315 179.891 420.569 179.538 421.237 182.096L421.127 182.252C420.445 182.683 419.657 182.557 418.881 182.541C416.741 182.667 406.359 183.691 413.416 180.076Z"/>
</svg>
