<?xml version="1.0" encoding="utf-8" ?>
<svg xmlns="http://www.w3.org/2000/svg" xmlns:xlink="http://www.w3.org/1999/xlink" width="1024" height="1024">
	<path transform="scale(2 2)" d="M403.58 203.378L404.003 203.265C403.604 202.218 402.434 201.388 401.755 200.48C403.199 200.306 404.141 202.839 405.61 203.378C415.886 213.962 428.014 239.269 414.812 251.874C401.863 264.237 357.459 268.584 339.393 269.192C330.606 269.488 321.767 268.71 313.002 269.228C327.046 281.372 343.251 302.664 327.833 319.954C303.255 347.515 219.063 348.583 180.998 345.555C160.165 343.898 92.5844 336.172 91.1266 307.156C90.1458 287.635 109.07 266.992 125.396 257.965L125.201 258.312C122.692 262.701 117.845 266.617 114.383 270.39C100.259 285.78 84.2079 309.581 108.586 323.133C150.079 346.201 247.355 345.858 293.053 332.575C305.17 329.053 320.975 323.861 327.354 312.044C340.094 288.442 297.431 259.629 280.857 251.01C256.39 238.286 239.29 235.134 212.659 236.784L212.659 235.006C215.643 235.142 218.668 233.838 221.586 233.306C249.627 228.189 276.814 242.601 299.367 257.774C303.734 260.712 307.345 264.697 311.948 267.297C333.795 269.504 371.525 264.599 391.971 258.824C403.004 255.707 415.661 251.925 417.544 238.834C419.266 226.862 410.471 212.618 403.58 203.378Z"/>
	<path transform="scale(2 2)" d="M250.708 163.641C274.859 162.773 288.904 175.421 296.358 197.893C302.063 215.09 302.1 225.754 321.934 226.635C319.678 227.117 317.34 227.501 315.045 227.725C286.083 221.159 303.888 170.147 251.412 164.841C249.439 164.642 247.051 163.878 245.104 164.368L244.998 164.175L244.603 164.151L244.701 164.265L244.851 163.989L244.85 164.335L244.958 164.375L245.194 163.927C246.99 163.652 248.889 163.698 250.708 163.641Z"/>
	<path transform="scale(2 2)" d="M228.251 172.158C253.092 169.285 260.679 193.942 268.497 211.238C273.627 222.587 277.48 226.293 290.463 226.635C284.873 227.926 280.491 227.702 275.548 224.616C263.491 215.394 261.971 196.197 251.24 184.84C238.855 171.733 226.94 174.471 211.811 174.018C216.987 172.736 222.938 171.931 228.251 172.158Z"/>
	<path transform="scale(2 2)" d="M278.488 159.599C280.479 160.141 282.935 160.156 284.999 160.433C301.218 162.608 316.283 170.481 323.492 185.88C328.521 196.622 329.511 210.098 335.485 219.982C339.761 227.057 344.221 225.79 351.011 227.59L351.504 227.725C327.93 228.838 330.257 209.611 322.458 191.152C315.533 174.762 303.852 167.178 286.992 162.203C284.15 161.364 281.083 161.135 278.488 159.599Z"/>
	<path transform="scale(2 2)" d="M406.81 218.439C409.363 220.468 411.213 230.098 411.453 233.389C412.346 245.614 405.848 247.869 395.504 251.165C362.589 261.654 337.053 256.738 305.439 258.796C304.41 258.583 303.376 258.241 302.36 257.965C311.723 257.524 321.173 258.135 330.55 257.962C342.627 257.739 400.836 253.369 407.826 241.347C411.227 235.498 408.424 224.576 406.81 218.439Z"/>
	<path transform="scale(2 2)" d="M129.923 257.015C171.585 251.72 193.608 330.071 147.318 299.27C153.177 301.228 168.044 310.443 170.834 300.133C175.382 283.326 154.506 262.977 138.885 259.99C137.576 260.019 136.284 259.746 135.645 261.092C133.373 260.28 131.419 260.101 129.019 259.99L128.464 260.141L127.969 261.092C124.543 258.632 127.242 257.707 129.923 257.015Z"/>
	<path transform="scale(2 2)" d="M127.969 261.092C124.543 258.632 127.242 257.707 129.923 257.015L129.421 258.211L129.644 258.624C130.135 258.626 130.786 258.502 131.179 258.796C130.372 258.955 129.503 258.971 128.893 259.533L129.019 259.99L128.464 260.141L127.969 261.092Z"/>
	<path transform="scale(2 2)" d="M129.019 259.99L128.893 259.533C129.503 258.971 130.372 258.955 131.179 258.796C133.696 258.981 136.438 259.367 138.885 259.99C137.576 260.019 136.284 259.746 135.645 261.092C133.373 260.28 131.419 260.101 129.019 259.99Z"/>
	<path transform="scale(2 2)" d="M316.298 163.641C322.194 163.685 328.211 166.527 333.505 168.873C366.615 183.55 354.948 211.408 371.725 228.507C362.272 224.921 359.283 206.052 356.051 197.475C347.825 175.646 334.608 171.926 316.298 163.641Z"/>
	<path transform="scale(2 2)" d="M169.799 245.57C168.992 241.122 179.031 243.752 181.347 244.312C200.501 248.939 216.545 273.665 211.819 292.666C210.636 297.423 204.994 304.011 200.572 299.9L200.337 299.275C202.524 299.068 203.938 302.373 207.188 298.501C220.366 282.799 200.162 252.058 180.825 247.152C180.805 247.553 180.761 247.739 180.629 248.105L179.71 247.918L179.447 248.163C177.359 247.34 173.153 246.378 171.635 245.57C171.016 245.611 170.416 245.672 169.799 245.57Z"/>
	<path transform="scale(2 2)" d="M171.635 245.57C174.671 244.796 178.048 245.854 180.825 247.152C180.805 247.553 180.761 247.739 180.629 248.105L179.71 247.918L179.447 248.163C177.359 247.34 173.153 246.378 171.635 245.57Z"/>
	<path transform="scale(2 2)" d="M218.192 242.261C219.056 240.012 221.22 240.567 223.285 240.76C260.457 244.234 276.636 296.904 256.781 301.826C255.354 301.135 253.943 300.314 252.686 299.342L252.465 298.444L252.586 299.253L252.259 298.685L252.539 298.473L252.886 298.758C266.146 309.523 272.293 268.125 239.748 249.338C236.26 247.325 223.951 241.621 220.104 242.261L219.755 242.526C219.223 242.469 218.715 242.372 218.192 242.261Z"/>
	<path transform="scale(2 2)" d="M218.192 242.261C218.715 242.372 219.223 242.469 219.755 242.526L220.104 242.261C222.259 243.754 225.289 244.679 227.658 245.887C241.944 253.17 260.114 267.782 259.178 285.652C253.848 258.216 223.148 252.102 218.192 242.261Z"/>
	<path transform="scale(2 2)" d="M171.635 245.57C173.153 246.378 177.359 247.34 179.447 248.163C180.286 248.798 181.498 249.25 182.427 249.786C197.476 258.466 205.403 269.888 206.954 286.844L206.46 287.349C206.625 287.317 206.801 287.19 206.957 287.256L206.886 287.611L206.576 287.616C205.312 274.727 193.653 261.383 183.132 254.582C179.761 252.403 172.148 248.485 169.799 245.57C170.416 245.672 171.016 245.611 171.635 245.57Z"/>
	<path transform="scale(2 2)" d="M206.478 185.761C243.144 184.477 224.037 225.516 256.781 228.507C254.77 228.604 252.705 228.813 250.708 228.507C225.386 227.019 238.937 182.763 199.868 187.34C202.055 186.574 204.202 186.152 206.478 185.761Z"/>
	<path transform="scale(2 2)" d="M351.504 172.158C353.833 172.624 356.451 173.864 358.739 174.643C393.843 186.596 383.497 203.444 394.914 226.635C390.161 223.386 386.101 203.67 383.229 197.485C376.401 182.783 363.928 180.235 351.504 172.158Z"/>
	<path transform="scale(2 2)" d="M165.334 241.035C166.828 240.971 168.304 240.994 169.799 241.035C157.191 246.224 139.695 248.282 127.969 255.759C127.066 256.442 126.238 257.21 125.396 257.965C133.099 245.89 151.831 240.931 165.334 241.035Z"/>
	<path transform="scale(2 2)" d="M194.631 233.273C200.08 233.283 207.571 233.158 212.659 235.006L212.659 236.784C198.242 237.556 184.15 237.192 169.799 239.363C176.348 235.249 184.6 234.456 192.074 233.273C192.931 233.68 193.759 233.616 194.631 233.273Z"/>
	<path transform="scale(2 2)" d="M129.019 259.99C131.419 260.101 133.373 260.28 135.645 261.092C143.613 263.652 152.511 268.641 157.637 275.444L157.206 275.585C153.458 272.654 156.663 278.371 156.704 278.476C144.609 268.943 141.246 267.911 127.969 261.092L128.464 260.141L129.019 259.99Z"/>
	<path transform="scale(2 2)" d="M192.074 233.273C189.276 231.973 180.422 236.19 181.236 224.846C181.882 215.843 191.024 199.118 198.18 192.847C195.19 200.923 179.225 218.193 184.249 228.931C185.793 232.23 190.72 231.986 194.631 233.273C193.759 233.616 192.931 233.68 192.074 233.273Z"/>
	<path transform="scale(2 2)" d="M156.704 278.476C156.663 278.371 153.458 272.654 157.206 275.585L157.637 275.444C162.708 280.479 166.527 287.161 167.913 294.167L167.754 293.919C166.11 291.31 165 288.322 163.183 285.835C161.716 283.828 157.545 280.056 156.704 278.476Z"/>
	<path transform="scale(2 2)" d="M403.58 203.378C401.661 201.867 399.878 199.298 398.124 197.517C394.579 193.916 389.504 190.604 386.458 187.055C391.517 188.683 402.32 198.885 405.61 203.378C404.141 202.839 403.199 200.306 401.755 200.48C402.434 201.388 403.604 202.218 404.003 203.265L403.58 203.378Z"/>
	<path transform="scale(2 2)" d="M304.406 285.652C306.344 286.065 309.357 288.157 309.036 290.444C306.137 291.179 303.952 288.36 304.406 285.652Z"/>
	<path transform="scale(2 2)" d="M292.77 269.899C295.154 270.203 298.101 271.236 297.509 274.087C294.917 274.306 292.589 272.597 292.77 269.899Z"/>
	<path transform="scale(2 2)" d="M112.459 284.231C114.845 284.167 116.777 285.489 114.63 287.845C112.212 288.254 111.051 286.353 112.459 284.231Z"/>
	<path transform="scale(2 2)" d="M276.515 265.403C279.195 265.948 279.967 267.715 278.488 269.899C275.93 269.53 274.587 267.332 276.515 265.403Z"/>
	<path transform="scale(2 2)" d="M138.885 294.167C141.975 294.413 142.421 296.145 140.648 298.391C137.96 298.258 137.557 296.136 138.885 294.167Z"/>
	<path transform="scale(2 2)" d="M273.409 278.476C275.902 278.561 276.868 280.396 275.548 282.393C273.091 282.398 272.435 280.347 273.409 278.476Z"/>
	<path transform="scale(2 2)" d="M141.761 282.393C143.818 282.875 144.148 284.134 142.862 285.652C140.619 285.425 140.225 284.264 141.761 282.393Z"/>
	<path transform="scale(2 2)" d="M273.409 298.391C275.591 298.586 275.21 300.301 274.256 301.826C272.082 301.577 272.083 299.902 273.409 298.391Z"/>
	<path transform="scale(2 2)" d="M127.969 283.359C130.112 283.854 130.013 285.049 129.019 286.665C127.013 286.365 127.029 284.751 127.969 283.359Z"/>
	<path transform="scale(2 2)" d="M127.969 271.887C130.043 272.363 130.391 273.674 129.019 275.444C127.228 274.497 126.77 273.538 127.969 271.887Z"/>
	<path transform="scale(2 2)" d="M289.462 290.444L290.255 290.625C291.565 291.619 291.214 292.861 290.463 294.167C288.412 293.483 288.389 292.063 289.462 290.444Z"/>
	<path transform="scale(2 2)" d="M288.274 277.197C290.193 277.265 291.016 277.299 290.463 279.392C288.576 279.753 287.803 279.033 288.274 277.197Z"/>
</svg>
