<?xml version="1.0" encoding="utf-8" ?>
<svg xmlns="http://www.w3.org/2000/svg" xmlns:xlink="http://www.w3.org/1999/xlink" width="1024" height="1024">
	<path fill="#303030" transform="scale(2 2)" d="M192.295 67.1283L308.789 67.1208C314.528 67.1201 320.538 66.7999 326.218 67.6523C343.729 70.2803 357.721 84.9581 359.582 102.624C360.197 108.469 359.786 114.588 359.768 120.477L359.768 385.958C359.767 399.942 360.638 411.621 351.089 423.338C343.143 433.089 332.268 437.651 320.053 438.933L199.9 438.952C195.092 438.957 189.626 439.451 184.924 438.49C164.722 434.362 152.537 417.677 151.833 397.449C151.557 389.533 151.75 381.556 151.756 373.634L151.75 117.062C151.75 112.323 151.551 107.497 152.142 102.788C154.733 82.1576 171.58 67.6928 192.295 67.1283ZM179.677 397.312C180.334 414.016 198.723 410.523 210.022 410.52L295.805 410.521C303.929 410.519 313.146 411.006 321.153 410.328C333.931 409.246 332.287 393.53 332.277 384.711L332.261 293.051C332.262 281.002 331.796 268.446 332.405 256.444L332.263 256.23C312.896 273.917 311.684 270.733 285.896 270.74L222.979 270.741C204.705 270.751 192.964 272.294 179.677 256.23C179.42 271.713 179.684 287.25 179.683 302.738L179.677 397.312ZM305.063 248.408C318.667 246.06 315.627 232.388 315.614 222.113L315.607 170.181C315.598 148.512 312.29 150.071 289.837 150.114L226.74 150.123C220.548 150.12 214.258 149.857 208.081 150.13C194.788 150.802 196.975 164.528 196.971 173.867L196.97 224.35C196.983 247.971 198.173 248.427 219.899 248.423L305.063 248.408ZM179.677 143.022C190.697 128.154 199.194 128.736 215.618 128.737L287.533 128.743C298.196 128.736 309.811 127.179 320.053 130.745C325.124 133.711 329.069 136.779 332.263 141.782L332.276 114.52C332.304 101.95 332.885 94.9889 317.692 95.0164L202.087 95.0386C198.391 95.0305 194.081 94.5721 190.448 95.0399C177.741 97.1962 179.656 108.32 179.671 117.446L179.677 143.022Z"/>
	<path fill="#303030" transform="scale(2 2)" d="M298.284 370.509C328.876 368.752 319.045 394.73 306.312 394.994C300.889 395.033 294.868 395.907 290.491 392.003C281.686 384.148 286.891 370.775 298.284 370.509Z"/>
	<path fill="#303030" transform="scale(2 2)" d="M205.686 328.392C210.838 328.28 216.807 327.64 221.103 331.022C230.776 338.638 224.576 352.172 213.314 353.158C208.33 353.2 202.992 353.913 198.781 350.684C189.01 343.189 193.759 329.224 205.686 328.392Z"/>
	<path fill="#303030" transform="scale(2 2)" d="M296.485 328.392C301.023 328.34 307.207 327.624 311.38 329.698C322.558 335.256 318.513 350.224 307.749 353.158C302.913 353.259 296.328 354.08 292.111 351.465C282.677 345.613 285.378 330.489 296.485 328.392Z"/>
	<path fill="#303030" transform="scale(2 2)" d="M251.81 370.509C256.581 370.314 263.388 369.749 267.465 372.623C276.208 378.785 271.768 393.472 261.623 394.994C256.297 395.01 249.584 395.883 245.016 392.616C235.355 385.707 241.034 371.72 251.81 370.509Z"/>
	<path fill="#303030" transform="scale(2 2)" d="M253.594 328.392C258.508 328.27 263.389 327.886 267.45 331.205C276.539 338.633 271.648 352.117 258.353 353.158C253.163 352.935 248.5 353.573 244.276 349.854C235.709 342.311 240.156 328.894 253.594 328.392Z"/>
	<path fill="#303030" transform="scale(2 2)" d="M204.916 286.511C210.059 286.464 216.592 285.509 220.969 288.701C229.934 295.242 225.29 309.486 214.813 310.841C209.718 310.877 203.557 311.666 199.108 308.742C189.169 302.211 193.787 288.06 204.916 286.511Z"/>
	<path fill="#303030" transform="scale(2 2)" d="M251.81 286.511C281.215 284.667 273.708 308.713 261.623 310.841C256.406 311.163 249.615 311.69 245.234 308.418C235.527 301.167 240.414 287.73 251.81 286.511Z"/>
	<path fill="#303030" transform="scale(2 2)" d="M297.429 286.511C301.908 286.473 307.706 285.779 311.818 287.885C322.193 293.199 318.716 307.969 307.749 310.841C302.471 310.894 296.072 311.844 291.531 308.615C281.834 301.721 285.891 287.793 297.429 286.511Z"/>
	<path fill="#303030" transform="scale(2 2)" d="M205.686 370.509C210.681 371.006 216.147 369.975 220.44 373.158C229.528 379.896 225.642 393.779 213.314 394.994C190.096 398.305 186.693 373.981 205.686 370.509Z"/>
</svg>
