<?xml version="1.0" encoding="utf-8" ?>
<svg xmlns="http://www.w3.org/2000/svg" xmlns:xlink="http://www.w3.org/1999/xlink" width="1024" height="1024">
	<path transform="scale(2 2)" d="M427.109 89.7588C440.046 89.2228 422.911 102.519 420.666 104.784C411.985 113.541 399.34 131.24 394.309 143.091C403.592 144.273 419.748 148.596 427.257 154.085C454.125 173.726 428.202 213.797 413.295 233.749C433.057 246.862 442.252 277.001 437.671 299.273C454.231 304.549 456.019 323.584 451.994 338.146C445.159 362.872 428.688 388.196 406.038 401.009C387.746 411.356 341.672 416.315 320.728 418.261C261.397 423.774 200.894 422.26 142.086 412.31C137.118 411.469 132.115 410.756 127.254 409.407C93.9023 402.399 72.3387 372.558 61.9273 341.735C58.4973 331.581 55.5951 321.775 62.3393 312.027C65.9204 306.851 71.4369 302.656 77.6667 301.503C65.1052 268.664 92.8767 234.201 120.145 218.802C133.857 211.059 128.317 216.049 136.7 204.449C153.877 180.682 183.319 166.29 211.75 161.673C246.215 156.077 299.682 166.168 327.617 186.311C333.77 170.398 332.388 147.912 349.129 138.264C358.12 133.083 367.469 135.569 376.83 138.071L390.084 141.598C391.183 121.097 408.146 96.1259 427.109 89.7588ZM399.238 244.989C392.063 248.844 385.137 249.399 377.206 247.534C372.152 258.835 370.613 266 355.968 258.989C347.907 255.13 335.648 243.881 326.158 247.286C311.186 252.656 312.097 283.953 285.111 289.942C269.426 293.422 255.251 283.992 249.689 269.397C246.424 260.831 245.138 248.762 235.578 244.584C219.644 237.62 215.036 274.458 197.139 277.313C185.519 279.166 177.872 269.877 177.723 258.724C177.621 251.047 182.061 228.927 166.859 235.886C154.05 241.751 151.587 257.741 142.74 266.121C136.221 272.296 127.549 271.517 123.94 263.049C119.154 251.819 123.447 238.239 126.783 227.166C127.006 226.428 128.573 221.77 128.195 221.532C105.488 238.685 75.6272 267.616 82.1572 299.273C102.195 293.49 123.425 297.535 143.732 299.397C177.007 302.447 210.456 303.67 243.838 304.85C287.55 306.396 323.322 305.95 367.085 299.858L388.783 296.629C400.09 294.847 410.682 293.573 422.119 293.749C422.462 272.259 419.238 257.704 404.908 241.078C403.067 242.478 401.231 243.814 399.238 244.989ZM77.6667 350.567C84.8377 362.164 93.8505 375.019 105.746 382.184C105.771 352.433 159.725 318.796 183.549 312.288C186.31 311.534 190.152 312.902 192.933 313.258L227.12 317.306C230.753 317.723 234.371 317.787 237.958 318.559L237.622 318.76C234.943 320.334 231.929 321.46 229.084 322.706C200.664 335.156 146.032 367.13 133.486 393.115C145.752 393.127 167.371 398.517 181.481 399.784C183.21 370.174 256.892 335.266 281.404 324.802C284.164 323.624 287.262 322.672 289.863 321.225L290.298 320.978C276.707 318.954 260.296 319.432 245.978 317.862L189.092 311.251C172.386 309.23 155.824 307.118 139.032 305.885C137.092 306.873 135.021 307.438 132.971 308.139C114.644 314.405 98.1172 324.364 85.7036 339.543C82.81 343.081 80.4735 346.991 77.6667 350.567ZM394.309 228.471C397.616 225.7 400.787 222.991 403.658 219.751C411.366 211.048 430.498 180.019 420.509 168.544C414.9 162.101 365.468 140.914 356.434 143.091C338.401 145.564 334.725 174.961 331.414 188.833C346.332 200.449 355.645 208.344 367.573 224.054C369.876 227.087 371.071 230.814 373.391 233.749C382.472 233.912 386.327 232.836 394.309 228.471ZM198.922 401.187C218.472 402.938 238.258 402.737 257.865 402.612C260.283 401.844 262.581 400.45 264.836 399.285C300.911 380.659 335.974 358.983 367.559 333.44C374.727 327.643 382.275 321.613 388.074 314.388C374.173 316.341 361.061 318.214 347.027 319.913C343.511 323.278 339.556 325.89 335.567 328.639C298.401 354.25 247.747 386.36 204.522 399.587C203.144 400.009 199.943 400.502 198.922 401.187ZM209.752 183.757C213.968 183.048 218.582 183.281 222.855 183.253C217.674 174.947 234.671 172.672 230.209 182.553C235.72 182.461 241.289 183.559 246.736 183.253C249.199 178.251 255.151 178.472 256.723 183.757C257.552 184.674 273.384 187.855 275.606 188.068C279.435 183.643 284.814 184.624 284.826 190.714L285.021 190.784C294.125 193.974 303.163 197.854 311.824 200.824C315.201 197.185 322.358 199.746 319.444 205.03C324.771 207.345 330.397 210.906 334.968 214.487C338.089 212.814 331.524 208.68 329.624 207.009C294.654 176.257 223.26 160.536 180.65 182.553C180.198 188.109 175.189 190.288 172.093 184.66C160.769 189.637 146.646 202.562 139.735 212.585C132.229 223.472 123.448 246.014 128.791 258.204C132.395 266.429 138.454 263.875 142.169 257.036C140.64 255.737 139.861 254.479 139.032 252.695C134.989 255.32 132.57 252.249 131.632 248.498C132.742 244.466 135.429 242.024 139.032 244.989C140.452 241.343 144.799 233.35 145.562 230.668C137.687 227.558 144.976 216.797 151.234 223.075C154.164 218.898 158.215 215.076 160.768 210.732C152.176 213.09 152.833 201.763 158.53 201.487C162.127 201.313 163.589 204.67 163.435 207.735C163.908 208.03 170.52 202.179 171.98 201.072C179.713 195.21 190.535 188.725 200.107 187.068C199.61 180.932 206.676 178.682 209.752 183.757ZM377.206 393.115C381.278 389.482 386.128 386.535 390.357 383.032C402.032 373.361 413.225 362.571 423.45 351.349C426.547 347.95 430.412 342.517 434.347 340.19C441.383 326.45 440.383 315.703 424.796 311.357C414.503 339.643 363.45 377.058 338.879 391.368C335.795 393.163 329.361 396.44 326.851 398.675C331.015 398.691 335.207 398.104 339.343 397.663L359.898 395.306C365.53 394.633 371.717 394.453 377.206 393.115ZM81.0062 306.583C64.8569 311.422 62.0196 323.212 70.2376 337.491C79.2685 327.89 84.0236 320.717 81.0062 306.583Z"/>
	<path fill="#FF5D15" transform="scale(2 2)" d="M222.855 183.253C217.674 174.947 234.671 172.672 230.209 182.553C235.72 182.461 241.289 183.559 246.736 183.253C249.199 178.251 255.151 178.472 256.723 183.757C257.552 184.674 273.384 187.855 275.606 188.068C279.435 183.643 284.814 184.624 284.826 190.714L285.021 190.784C294.125 193.974 303.163 197.854 311.824 200.824C315.201 197.185 322.358 199.746 319.444 205.03C324.771 207.345 330.397 210.906 334.968 214.487C326.208 217.537 332.93 230.512 340.583 218.176C345.133 222.197 360.884 240.167 360.937 246.274C360.971 250.115 349.519 243.056 348.388 242.502C306.63 222.054 310.892 275.187 283.533 280.284C272.915 282.263 261.986 277.027 257.308 267.122C252.298 256.514 252.23 241.784 239.099 237.065C213.782 227.966 207.889 273.613 192.695 268.534C178.487 263.786 193.074 233.344 178.591 227.551C160.311 220.239 149.125 246.261 142.169 257.036C140.64 255.737 139.861 254.479 139.032 252.695C134.989 255.32 132.57 252.249 131.632 248.498C132.742 244.466 135.429 242.024 139.032 244.989C140.452 241.343 144.799 233.35 145.562 230.668C137.687 227.558 144.976 216.797 151.234 223.075C154.164 218.898 158.215 215.076 160.768 210.732C161.855 209.854 162.701 208.923 163.435 207.735C163.908 208.03 170.52 202.179 171.98 201.072C179.713 195.21 190.535 188.725 200.107 187.068C199.61 180.932 206.676 178.682 209.752 183.757C213.968 183.048 218.582 183.281 222.855 183.253Z"/>
	<path transform="scale(2 2)" d="M200.107 187.068C199.61 180.932 206.676 178.682 209.752 183.757C209.754 189.87 203.609 193.906 200.107 187.068Z"/>
	<path transform="scale(2 2)" d="M275.606 188.068C279.435 183.643 284.814 184.624 284.826 190.714C281.624 197.596 273.575 195.314 275.606 188.068Z"/>
	<path transform="scale(2 2)" d="M131.632 248.498C132.742 244.466 135.429 242.024 139.032 244.989C141.616 247.568 141.155 249.957 139.032 252.695C134.989 255.32 132.57 252.249 131.632 248.498Z"/>
	<path transform="scale(2 2)" d="M145.562 230.668C137.687 227.558 144.976 216.797 151.234 223.075C152.526 227.702 150.252 230.318 145.562 230.668Z"/>
	<path transform="scale(2 2)" d="M246.736 183.253C249.199 178.251 255.151 178.472 256.723 183.757C254.696 190.262 246.627 190.659 246.736 183.253Z"/>
	<path transform="scale(2 2)" d="M222.855 183.253C217.674 174.947 234.671 172.672 230.209 182.553C227.351 184.427 225.869 184.524 222.855 183.253Z"/>
	<path transform="scale(2 2)" d="M311.824 200.824C315.201 197.185 322.358 199.746 319.444 205.03C314.595 209.117 310.258 206.839 311.824 200.824Z"/>
	<path transform="scale(2 2)" d="M305.246 222.294C312.367 221.413 312.784 229.151 306.941 231.721C299.611 232.199 299.868 224.939 305.246 222.294Z"/>
	<path transform="scale(2 2)" d="M288.066 200.824C294.453 200.112 295.667 207.345 290.298 209.839C282.632 211.328 282.665 203.713 288.066 200.824Z"/>
	<path transform="scale(2 2)" d="M245.331 200.02C251.962 200.08 249.913 207.924 245.331 209.839C237.744 209.203 239.302 201.913 245.331 200.02Z"/>
	<path transform="scale(2 2)" d="M278.411 246.749C285.328 246.649 283.255 254.558 278.411 257.036C271.074 256.011 272.736 249.133 278.411 246.749Z"/>
	<path transform="scale(2 2)" d="M215.951 209.839C221.762 209.118 221.602 217.895 215.951 219.522C208.327 218.794 210.382 212.148 215.951 209.839Z"/>
	<path transform="scale(2 2)" d="M180.65 203.256C186.99 202.763 186.566 210.33 181.481 212.598C174.925 213.54 174.544 206.016 180.65 203.256Z"/>
	<path transform="scale(2 2)" d="M266.516 224.264C273.223 224.863 271.337 231.853 266.516 233.749C259.364 233.745 260.929 226.142 266.516 224.264Z"/>
	<path transform="scale(2 2)" d="M411.554 171.519C424.063 169.876 413.897 208.594 394.939 218.176C388.256 220.15 390.389 214.2 392.62 210.885C396.908 204.514 401.469 198.014 404.127 190.744C405.718 186.393 407.59 173.761 411.554 171.519Z"/>
	<path fill="#FF5D15" transform="scale(2 2)" d="M290.298 320.978C291.814 320.741 293.623 320.911 295.167 320.905L308.109 320.983C321.117 321.009 334.053 321.007 347.027 319.913C343.511 323.278 339.556 325.89 335.567 328.639C298.401 354.25 247.747 386.36 204.522 399.587C203.144 400.009 199.943 400.502 198.922 401.187C195.223 401.525 185.616 400.257 181.481 399.784C183.21 370.174 256.892 335.266 281.404 324.802C284.164 323.624 287.262 322.672 289.863 321.225L290.298 320.978Z"/>
	<path fill="#FF5D15" transform="scale(2 2)" d="M388.074 314.388C397.909 311.594 415.389 309.524 424.796 311.357C414.503 339.643 363.45 377.058 338.879 391.368C335.795 393.163 329.361 396.44 326.851 398.675C322.591 400.096 263.074 403.586 257.865 402.612C260.283 401.844 262.581 400.45 264.836 399.285C300.911 380.659 335.974 358.983 367.559 333.44C374.727 327.643 382.275 321.613 388.074 314.388Z"/>
	<path fill="#FF5D15" transform="scale(2 2)" d="M105.746 382.184C105.771 352.433 159.725 318.796 183.549 312.288C186.31 311.534 190.152 312.902 192.933 313.258L227.12 317.306C230.753 317.723 234.371 317.787 237.958 318.559L237.622 318.76C234.943 320.334 231.929 321.46 229.084 322.706C200.664 335.156 146.032 367.13 133.486 393.115C128.993 389.847 114.256 387.693 105.746 382.184Z"/>
	<path fill="#FF5D15" transform="scale(2 2)" d="M81.0062 306.583C95.9991 304.063 123.278 303.457 139.032 305.885C137.092 306.873 135.021 307.438 132.971 308.139C114.644 314.405 98.1172 324.364 85.7036 339.543C82.81 343.081 80.4735 346.991 77.6667 350.567C74.9794 346.35 72.5913 341.902 70.2376 337.491C79.2685 327.89 84.0236 320.717 81.0062 306.583Z"/>
	<path fill="#FF5D15" transform="scale(2 2)" d="M377.206 393.115C381.278 389.482 386.128 386.535 390.357 383.032C402.032 373.361 413.225 362.571 423.45 351.349C426.547 347.95 430.412 342.517 434.347 340.19C428.436 361.856 402.205 392.508 377.206 393.115Z"/>
	<path transform="scale(2 2)" d="M160.768 210.732C152.176 213.09 152.833 201.763 158.53 201.487C162.127 201.313 163.589 204.67 163.435 207.735C162.701 208.923 161.855 209.854 160.768 210.732Z"/>
</svg>
