<?xml version="1.0" encoding="utf-8" ?>
<svg xmlns="http://www.w3.org/2000/svg" xmlns:xlink="http://www.w3.org/1999/xlink" width="1024" height="1024">
	<path transform="scale(2 2)" d="M207.594 90.1201L307.454 90.1106C323.027 90.1066 338.722 91.5761 342.002 111.299C342.752 115.807 342.339 120.829 342.328 125.41L342.305 241.75L384.759 241.75C385.23 249.506 384.495 257.545 384.354 265.329C383.935 288.465 382.73 311.605 382.51 334.743C372.967 334.926 363.39 334.75 353.845 334.743C355.047 349.144 355.682 363.618 356.788 378.033L358.691 405.502C359.036 410.77 359.991 416.107 359.124 421.352L334.83 421.352L329.071 345.002C328.802 341.587 328.355 338.164 328.234 334.743C320.474 334.632 312.699 334.738 304.937 334.743L183.842 334.743C182.957 338.643 182.997 343.112 182.745 347.131L181.483 365.621C180.169 384.189 178.267 402.772 177.267 421.352C169.015 421.242 160.743 421.301 152.49 421.352C152.524 415.035 153.281 408.589 153.727 402.286L156.641 358.921C157.129 350.906 157.914 342.771 157.747 334.743L129.381 334.743C129.464 327.439 128.863 320.107 128.623 312.807L127.175 269.807C126.798 260.556 125.978 250.989 126.525 241.75L169.755 241.75L169.729 240.256L169.739 124.532C169.716 93.9734 178.361 90.0901 207.594 90.1201ZM153.842 309.52L304.658 309.516C310.594 309.516 356.315 309.953 358.039 309.226L358.234 308.711C357.574 294.796 358.807 280.692 358.742 266.749L153.842 266.749C153.394 271.505 153.816 276.2 153.829 280.961L153.842 309.52ZM195.25 185.495C208.019 176.894 217.785 176.987 232.456 176.985L279.297 176.979C291.579 176.953 299.562 176.738 310.843 182.15L316.508 185.495C316.872 162.27 316.502 138.981 316.508 115.749L195.25 115.749L195.25 185.495ZM195.25 241.75L289.875 241.75L316.508 241.75C316.567 219.957 311.27 202.5 285.775 202.482L228.528 202.476C226.454 202.473 224.169 202.269 222.119 202.5C213.848 203.499 206.487 207.221 201.273 213.809C193.331 223.844 196.269 230.519 195.25 241.75Z"/>
</svg>
