<?xml version="1.0" encoding="utf-8" ?>
<svg xmlns="http://www.w3.org/2000/svg" xmlns:xlink="http://www.w3.org/1999/xlink" width="1024" height="1024">
	<path fill="#303030" transform="scale(2 2)" d="M180.216 67.8105L310.907 67.8038C317.155 67.8036 323.434 67.6772 329.679 67.8819C350.263 68.5568 368.267 82.9542 372.261 103.378C373.737 110.924 373.212 119.264 373.211 126.943L373.198 217.773C373.199 227.384 373.546 237.099 373.198 246.693C391.668 257.113 398.339 271.973 398.373 291.979L398.375 326.455C398.361 350.043 397.739 352.119 373.727 351.998L373.738 419.729C373.738 423.335 373.929 427.048 373.285 430.609C370.319 447.011 345.56 447.401 342.349 430.711C341.554 426.579 341.746 422.257 341.745 418.066L341.748 351.998C338.747 352.053 335.753 352.038 332.751 351.998L224.359 351.991C206.346 351.991 188.315 352.192 170.308 351.998L170.311 418.495C170.309 422.595 170.52 426.841 169.705 430.877C166.389 447.288 141.832 447.336 138.376 430.795C137.527 426.733 137.749 422.439 137.747 418.311L137.751 351.998C109.782 354.453 114.239 340.191 114.241 319.79L114.251 298.124C114.264 275.076 116.14 258.568 138.725 245.194C138.504 242.245 138.713 239.262 138.715 236.308L138.718 125.638C138.718 109.811 137.619 95.1123 148.856 82.3075C157.22 72.7766 167.814 68.6374 180.216 67.8105ZM301.625 179.129L316.623 179.149C342.435 179.229 341.773 173.889 341.73 148.375C341.714 138.325 344.642 110.631 337.74 103.865C331.65 97.8945 325.251 99.1811 317.392 99.1909L209.596 99.207L192.4 99.186C188.631 99.1844 184.159 98.723 180.493 99.6615C167.835 102.902 170.295 116.555 170.292 126.145L170.314 157.485C170.505 178.259 181.093 179.153 198.539 179.144L301.625 179.129ZM145.926 319.766L321.375 319.766L366.309 319.766L366.324 299.857C366.328 271.625 359.39 269.359 331.905 269.374L191.369 269.386L173.725 269.371C158.738 269.372 145.883 269.943 145.866 288.467L145.926 319.766ZM272.366 209.901L272.366 237.486L341.03 237.486L341.546 237.382C342.055 236.472 341.747 212.968 341.748 209.901L272.366 209.901ZM239.541 209.901L198.51 209.901L170.308 209.901C170.316 219.093 170.41 228.294 170.308 237.486L211.625 237.486L239.541 237.486L239.541 209.901Z"/>
</svg>
