<?xml version="1.0" encoding="utf-8" ?>
<svg xmlns="http://www.w3.org/2000/svg" xmlns:xlink="http://www.w3.org/1999/xlink" width="1024" height="1024">
	<path transform="scale(2 2)" d="M353.218 79.0008C388.298 76.1536 423.172 98.508 405.472 135.73C395.011 157.728 364.535 179.107 341.294 187.257C350.945 187.866 361.008 186.622 370.703 186.407C380.547 186.188 390.439 186.806 400.266 186.374C402.386 184.558 403.677 184.184 406.402 184.258C411.999 187.166 415.39 192.668 409.384 196.837C406.778 213.256 405.45 230.123 402.828 246.753C402.231 250.541 400.928 272.606 392.961 262.214C391.391 262.456 389.828 262.791 388.26 263.056C387.487 266.834 387.449 270.992 387.105 274.841L385.035 298.542C382.374 330.449 379.87 362.306 378.046 394.269C377.773 399.062 378.575 406.013 374.062 409.153C366.363 414.507 310.866 421.683 298.85 423.326C249.936 430.016 187.656 435.634 138.396 429.769C132.275 429.04 121.407 428.825 120.703 420.578C120.328 416.182 121.895 393.858 122.755 390.187C122.759 350.427 121.266 314.337 116.655 274.495C104.682 274.823 105.225 267.414 104.665 258.43C103.851 245.362 102.478 232.347 101.601 219.287C101.232 213.798 98.7937 202.711 106.901 201.649C108.957 201.379 110.114 202.139 111.67 203.346C133.279 200.951 159.557 198.641 181.45 198.563C151.922 190.687 114.092 174.161 102.598 143.936C94.3439 122.234 109.442 104.77 129.186 97.4275C169.558 82.4127 222.515 108.431 244.002 143.715C248.552 151.186 251.885 159.287 254.915 167.463C267.645 117.564 302.519 84.7159 353.218 79.0008ZM224.439 416.546C230.639 416.337 237.053 415.144 243.221 415.873C242.914 399.958 243.216 383.973 243.214 368.053L243.407 335.11C243.445 327.596 243.706 321.936 244.067 314.502L245.189 288.159C246.399 261.811 247.787 232.63 251.334 206.458C243.955 207.596 236.053 207.682 228.587 207.711C227.229 216.685 226.741 225.823 226.17 234.873L224.341 266.654C221.966 316.427 221.559 366.786 224.439 416.546ZM313.546 183.107C324.518 178.53 336.17 175.844 346.709 170.158C356.614 160.35 364.041 156.115 372.326 142.832C382.302 126.837 387.935 104.13 369.094 92.4175C358.367 89.0676 342.63 90.8035 331.971 94.0438C306.01 101.936 284.955 122.702 272.782 146.481C288.217 129.379 322.165 116.879 341.125 134.178C363.157 154.28 326.729 173.574 313.546 183.107ZM187.893 139.783C182.775 139.932 172.856 142.161 173.357 149.027C174.371 162.957 219.24 182.839 230.179 186.374C233.896 187.554 237.614 188.691 241.375 189.723C238.097 166.757 213.095 137.955 187.893 139.783ZM282.373 181.879C301.015 168.957 314.846 161.756 323.9 138.031C320.758 138.036 317.562 137.828 314.429 138.002C286.993 139.519 271.846 164.901 261.585 187.257C268.198 187.49 276.155 184.163 282.373 181.879ZM287.197 256.251C292.994 256.419 298.798 256.198 304.597 256.251C302.871 240.023 308.569 219.887 308.209 203.346C302.925 203.453 297.612 204.222 292.364 204.273C289.943 221.492 288.523 238.915 287.197 256.251ZM111.67 216.078C113.629 232.08 113.493 248.076 115.211 263.757C120.53 264.022 125.924 263.731 131.254 263.757C131.269 258.069 130.477 252.168 130.024 246.487L127.59 216.078C135.911 213.981 145.046 211.878 153.622 211.623C147.371 210.752 124.616 212.106 117.286 213.583C115.201 214.003 113.725 215.582 111.67 216.078ZM127.59 274.495C135.568 314.627 137.607 365.421 135.093 406.753C134.909 409.767 134.875 412.901 134.375 415.873C138.427 416.057 142.748 416.304 146.656 417.456C155.332 369.983 149.828 320.75 139.46 273.957C135.506 274.628 131.584 274.519 127.59 274.495ZM287.197 266.983C284.723 275.855 284.67 292.104 284.194 301.673L282.118 349.689C281.436 369.87 282.713 391.598 281.5 411.235C286.936 410.607 292.383 410.027 297.81 409.339C297.195 392.701 298.326 375.779 299.036 359.163L301.515 297.836C301.984 287.634 303.426 277.182 303.234 266.983C299.986 267.17 289.848 267.483 287.197 266.983ZM171.748 183.107C160.782 172.078 138.349 162.284 144.031 141.2C149.416 121.217 168.294 121.748 184.608 126.25C202.93 126.002 219.659 133.964 232.926 146.481C214.696 115.458 158.807 90.8119 125.265 110.764C111.954 118.681 107.602 131.527 115.782 145.1C127.16 163.98 150.954 177.345 171.748 183.107Z"/>
	<path fill="#FF5D15" transform="scale(2 2)" d="M303.234 266.983C314.218 266.831 325.125 266.639 336.088 265.839L362.339 263.977C366.346 263.693 370.353 263.147 374.369 263.056C369.287 299.658 367.226 339.391 364.898 376.247C364.434 383.597 363.687 390.993 363.758 398.361C348.606 401.248 333.429 403.851 318.194 406.259L304.531 408.354C302.315 408.686 300.042 409.168 297.81 409.339C297.195 392.701 298.326 375.779 299.036 359.163L301.515 297.836C301.984 287.634 303.426 277.182 303.234 266.983Z"/>
	<path fill="#FF5D15" transform="scale(2 2)" d="M139.46 273.957C160.79 275.131 190.364 272.144 212.557 271.435C211.627 313.765 211.174 356.225 212.914 398.543C213.171 404.779 213.801 411.235 213.317 417.456C200.639 417.063 186.015 417.963 173.007 417.956C164.269 417.952 155.331 416.826 146.656 417.456C155.332 369.983 149.828 320.75 139.46 273.957Z"/>
	<path fill="#FF5D15" transform="scale(2 2)" d="M251.334 206.458C261.386 206.901 271.44 205.159 281.5 205.283C278.601 219.914 277.949 236.167 276.693 251.068C274.038 282.591 271.504 318.18 271.418 349.834L271.41 393.376C271.412 399.711 272.045 406.234 271.418 412.527C262.368 413.841 251.898 413.494 243.221 415.873C242.914 399.958 243.216 383.973 243.214 368.053L243.407 335.11C243.445 327.596 243.706 321.936 244.067 314.502L245.189 288.159C246.399 261.811 247.787 232.63 251.334 206.458Z"/>
	<path fill="#FF5D15" transform="scale(2 2)" d="M153.622 211.623C158.061 209.36 209.903 208.128 217.102 208.275C215.228 223.832 212.926 244.21 213.317 259.708C205.597 259.6 197.888 260.651 190.189 261.117L160.374 262.649C150.718 263.152 140.922 263.78 131.254 263.757C131.269 258.069 130.477 252.168 130.024 246.487L127.59 216.078C135.911 213.981 145.046 211.878 153.622 211.623Z"/>
	<path fill="#FF5D15" transform="scale(2 2)" d="M308.209 203.346C311.899 202.274 322.328 202.329 326.621 202.085C344.276 201.083 365.831 198.996 383.41 200.145C379.648 217.272 378.589 233.258 375.925 250.117C361.755 251.708 347.464 252.986 333.24 253.982L317.796 255.159C313.402 255.457 308.951 255.575 304.597 256.251C302.871 240.023 308.569 219.887 308.209 203.346Z"/>
	<path fill="#FF5D15" transform="scale(2 2)" d="M171.748 183.107C160.782 172.078 138.349 162.284 144.031 141.2C149.416 121.217 168.294 121.748 184.608 126.25C175.911 128.299 168.808 130.224 163.741 138.3C149.85 160.441 185.886 180.687 203.097 188.771C206.254 190.253 209.556 191.509 212.557 193.292C205.626 191.962 177.328 186.46 171.748 183.107Z"/>
	<path fill="#FF5D15" transform="scale(2 2)" d="M369.094 92.4175C372.098 91.7453 384.011 97.1553 386.754 98.9062C400.866 107.915 398.48 122.847 390.359 135.46C384.232 144.977 358.136 168.232 346.709 170.158C356.614 160.35 364.041 156.115 372.326 142.832C382.302 126.837 387.935 104.13 369.094 92.4175Z"/>
	<path fill="#FF5D15" transform="scale(2 2)" d="M323.9 138.031C328.729 139.928 334.425 141.569 336.727 146.7L336.882 147.041C336.912 147.109 336.941 147.179 336.971 147.247C332.966 158.137 293.746 182.113 282.373 181.879C301.015 168.957 314.846 161.756 323.9 138.031Z"/>
	<path fill="#FF5D15" transform="scale(2 2)" d="M395.323 200.145C396.977 200.041 398.61 200.09 400.266 200.145C400.045 205.752 395.852 248.74 394.219 250.117L389.174 250.117C390.242 233.295 393.002 216.808 395.323 200.145Z"/>
</svg>
