<?xml version="1.0" encoding="utf-8" ?>
<svg xmlns="http://www.w3.org/2000/svg" xmlns:xlink="http://www.w3.org/1999/xlink" width="1024" height="1024">
	<path transform="scale(2 2)" d="M182.31 144.62C171.854 138.954 158.57 130.436 160.061 116.89C160.769 110.453 164.037 97.6121 169.4 93.501C184.133 82.2082 226.764 120.595 237.142 134.656C244.786 132.294 263.305 127.078 269.335 134.656C271.834 132.315 274.63 130.349 277.04 127.896C277.715 127.67 278.285 127.129 278.735 126.601C287.992 114.636 326.493 91.5808 339.002 101.801C347.312 108.591 342.463 135.199 337.523 141.004C335.397 143.502 332.259 145.587 329.464 147.272C343.855 152.814 379.705 163.447 387.829 171.072C388.933 172.099 389.956 173.197 390.989 174.293C392.616 186.672 396.633 208.771 386.592 217.409C386.029 217.688 385.479 217.925 385.022 218.367C369.958 225.314 352.357 237.666 336.692 241.538C335.864 243.658 337.741 247.841 338.194 250.055C341.835 267.851 344.32 285.914 346.485 303.939C347.416 311.698 347.902 319.749 349.562 327.376C349 338.62 352.291 356.054 352.527 368.787C358.05 365.855 363.424 362.657 368.89 359.622C391.048 347.32 390.345 352.576 388.696 328.637L387.145 304.703C385.752 281.31 384.921 257.763 385.022 234.329C385.133 233.066 384.809 229.085 385.825 228.314C386.416 229.667 385.612 231.292 386.592 232.527C387.56 240.128 387.472 247.901 387.851 255.55L392.35 327.25C394.137 352.968 396.2 348.712 371.763 361.657C365.317 365.072 359.033 368.826 352.527 372.121C352.074 374.156 351.685 376.233 350.958 378.191C346.926 388.105 338.746 396.721 328.268 399.774C323.151 401.264 315.926 402.377 314.427 395.892C310.283 397.718 306.315 400.163 302.399 402.441L286.437 411.761C282.956 413.802 279.367 416.253 275.575 417.641C260.808 423.048 240.736 412.602 227.377 407.125C219.422 403.864 211.445 400.692 203.631 397.101C194.361 408.813 198.974 406.009 189.189 391.263C174.91 383.795 144.555 374.59 135.8 363.793C130.149 356.824 131.21 337.861 130.745 329.165C129.097 298.396 129.754 268.338 129.078 237.753C128.986 233.569 128.587 229.512 129.112 225.336C130.801 235.8 130.543 251.136 130.985 261.917L134.402 332.622C136.23 364.056 132.722 361.372 162.975 375.18C170.761 378.734 178.49 382.367 186.317 385.833C178.581 366.661 173.671 372.621 176.014 350.291L177.967 331.665C180.926 302.802 183.626 275.61 188.098 246.902C189.702 236.603 191.683 221.128 195.699 211.841C182.853 208.071 163.946 201.618 151.591 195.88L151.73 195.542C153.628 194.844 154.516 196.036 156.17 196.631L169.361 201.23C178.089 204.277 186.951 206.929 195.699 209.921C203.754 192.734 221.434 172.021 237.142 161.409C234.949 160.325 233.637 159.537 232.203 157.512C213.355 157.642 199.946 151.245 183.305 145.522C182.265 145.972 181.377 146.631 180.449 147.272L180.449 146.043L182.31 144.62ZM270.635 156.122L268.252 161.409C285.625 165.914 312.952 183.146 321.673 197.92C322.71 199.677 323.756 202.183 325.178 203.612C334.193 198.089 374.297 176.756 383.618 175.259L383.711 175.433C363.796 183.856 346.392 195.872 325.178 204.366C332.082 217.948 331.987 229.005 336.692 241.538C342.947 237.779 386.25 215.22 388.056 210.68C390.722 203.981 388.312 183.816 389.983 174.293C389.066 173.983 388.25 173.624 387.402 173.157L325.178 149.721C304.502 157.341 292.406 155.746 270.635 156.122ZM216.878 217.409C224.404 217.948 257.081 229.576 260.373 232.552L260.428 232.849C256.132 233.116 225.927 222.157 216.878 219.398C215.22 262.073 216.831 308.718 221.871 351.388C222.511 356.809 223.956 363.408 223.764 368.787C217.346 376.592 211.815 386.583 205.418 393.785C217.191 398.1 229.336 403.754 241.16 408.4C274.132 421.353 271.577 415.516 299.085 400.662C304.137 397.928 309.598 395.368 314.427 392.288C313.377 379.67 313.528 364.697 313.296 351.804C312.712 319.403 310.696 288.175 309.07 256.004C301.129 259.957 270.586 279.146 265.314 273.788C266.022 271.085 277.091 268.145 279.742 266.989C287.027 263.812 302.737 255.4 309.07 253.922C307.423 241.072 306.749 228.024 304.244 215.299C296.385 219.394 276.26 231.797 270.083 231.889L269.756 231.622C270.562 227.693 297.267 216.723 304.244 214.246C301.612 208.211 298.251 202.535 294.116 197.405C288.828 190.843 260.443 162.921 253.096 162.779C244.67 180.938 220.866 202.665 216.878 217.409ZM231.514 143.16C232.438 140.968 233.292 138.734 234.519 136.69L234.687 136.405C234.721 136.348 234.757 136.292 234.791 136.235C229.688 131.578 225.35 126.083 220.293 121.332C212.368 113.886 184.898 92.0354 174.135 94.0594C164.425 95.521 162.916 113.614 162.901 121.041C178.565 109.219 201.417 122.704 215.34 131.361C218.421 133.277 221.382 135.813 224.743 137.198C226.958 139.222 229.343 141.099 231.514 143.16ZM184.675 134.656C178.86 131.852 168.481 128.306 170.482 120.191C150.543 127.696 200.948 154.227 231.514 153.976C231.124 151.046 231.214 148.465 231.514 145.522C214.948 136.412 190.61 115.12 170.482 120.191C172.949 128.815 178.362 129.465 184.675 134.656ZM238.815 161.409L238.502 161.75C224.294 177.13 209.482 187.912 199.218 208.12C189.482 227.29 182.361 316.355 180.048 339.457C179.255 347.376 177.869 355.326 177.236 363.237C182.829 375.442 191.053 386.884 196.595 399.678L196.859 400.081C197.095 399.922 217.926 371.749 220.556 366.856C215.339 328.244 213.183 286.167 213.311 247.339C213.459 202.359 216.322 211.895 241.843 175.843C244.842 171.606 247.321 167.017 250.303 162.779C246.396 162.7 242.614 162.341 238.815 161.409ZM260.813 162.779C272.235 170.428 296.405 193.359 302.394 203.777C314.369 224.611 315.629 316.794 315.756 341.99C315.838 358.027 315.422 374.116 315.798 390.144C315.967 397.364 316.412 400.103 324.457 398.318C333.95 396.212 345.864 387.518 349.562 378.191C354.481 368.235 349.707 339.645 347.909 327.376C344.163 296.735 339.123 266.161 332.071 236.099C326.802 213.636 323.691 199.054 304.63 184.185C293.708 175.664 274.918 164.915 260.813 162.779ZM244.693 159.357C251.706 159.197 258.736 159.385 265.752 159.357C269.46 152.004 271.631 128.911 257.978 134.656C251.947 134.334 243.621 135.673 237.774 137.198C234.39 140.594 231.613 152.722 235.592 156.732C237.518 158.673 242.143 158.543 244.693 159.357ZM270.635 137.198C271.993 142.573 271.465 147.34 271.748 152.769C276.646 153.399 281.604 152.84 286.523 152.716C299.622 152.386 331.436 150.72 336.692 135.263C335.636 133.089 334.444 131.833 332.364 130.568C328.931 143.783 311.274 143.049 300.495 144.62L300.784 144.511C308.899 141.353 327.565 143.841 330.965 130.568L330.676 130.383C324.409 126.467 303.802 132.727 296.007 135.258L286.416 138.413C285.133 138.829 284.029 139.632 282.66 139.74L282.547 139.493C284.159 137.719 310.473 128.898 314.082 127.935C324.54 125.144 332.546 124.245 339.384 133.485C340.482 126.694 343.026 110.802 338.932 105.247C331.771 95.5291 306.287 109.626 299.252 114.108C288.801 120.766 280.398 129.705 270.635 137.198Z"/>
	<path transform="scale(2 2)" d="M387.829 171.072C388.933 172.099 389.956 173.197 390.989 174.293C392.616 186.672 396.633 208.771 386.592 217.409C386.029 217.688 385.479 217.925 385.022 218.367C369.958 225.314 352.357 237.666 336.692 241.538L336.692 241.538C342.947 237.779 386.25 215.22 388.056 210.68C390.722 203.981 388.312 183.816 389.983 174.293C389.066 173.983 388.25 173.624 387.402 173.157L387.764 172.946C388.584 173.263 389.35 173.853 389.02 172.807L388.752 172.866C388.034 172.328 387.894 171.981 387.829 171.072Z"/>
	<path transform="scale(2 2)" d="M264.744 278.201C265.728 282.744 265.52 288.089 265.721 292.736L267.802 343.209C268.385 358.609 268.621 374.253 268.252 389.672L267.871 389.002L267.571 389.053C266.78 390.185 266.723 390.929 266.731 392.288C264.929 383.002 265.955 366.774 265.742 356.979L265.144 306.71C265.016 297.212 264.388 287.707 264.744 278.201Z"/>
	<path transform="scale(2 2)" d="M263.79 237.656C265.611 239.943 265.73 271.167 263.79 273.292C260.056 270.034 263.111 243.507 263.79 237.656Z"/>
	<path transform="scale(2 2)" d="M243.315 269.62C238.681 268.42 221.754 261.748 218.99 259.928C220.728 260.601 222.56 260.925 224.33 261.496L236.551 265.458C239.543 266.405 242.64 267.242 245.554 268.407C248.12 269.07 258.214 271.254 259.691 272.789C259.556 276.808 244.59 270.204 243.315 269.62Z"/>
	<path transform="scale(2 2)" d="M245.554 268.407C248.12 269.07 258.214 271.254 259.691 272.789C259.556 276.808 244.59 270.204 243.315 269.62C244.675 268.956 249.44 271.657 251.377 271.898L251.452 271.287C250.496 269.287 247.068 269.938 245.443 268.687L245.554 268.407Z"/>
	<path transform="scale(2 2)" d="M266.731 392.288C266.723 390.929 266.78 390.185 267.571 389.053L267.871 389.002L268.252 389.672C267.576 396.985 267.765 404.328 267.112 411.646C266.313 410.86 266.71 394.674 266.731 392.288Z"/>
	<path transform="scale(2 2)" d="M330.965 130.568C331.449 130.547 331.882 130.525 332.364 130.568C328.931 143.783 311.274 143.049 300.495 144.62L300.784 144.511C308.899 141.353 327.565 143.841 330.965 130.568Z"/>
	<path transform="scale(2 2)" d="M170.482 120.191L170.482 120.191C172.949 128.815 178.362 129.465 184.675 134.656C178.86 131.852 168.481 128.306 170.482 120.191Z"/>
	<path transform="scale(2 2)" d="M120.964 181.526C123.505 190.119 115.712 212.896 126.339 219.488C133.795 224.113 186.819 241.834 187.842 243.33L187.135 243.23C176.291 239.916 126.163 226.744 120.571 218.073C117.772 213.733 119.45 188.998 120.964 181.526Z"/>
	<path transform="scale(2 2)" d="M180.449 147.272C176.679 148.613 173.477 150.83 170.005 152.771L156.123 160.531C146.729 165.865 136.64 170.381 127.676 176.419C126.526 177.194 124.216 179.759 122.823 178.999L122.559 179.474L122.613 179.462C128.685 173.42 170.622 150.091 180.449 146.043L180.449 147.272Z"/>
	<path transform="scale(2 2)" d="M277.04 127.896C271.347 125.551 265.281 123.92 259.474 121.851C246.541 117.243 246.443 114.704 232.447 119.596C231.305 119.995 230.186 120.564 228.982 120.723L228.969 120.563C233.772 118.311 239.308 115.845 244.656 115.962C249.342 116.064 273.694 124.553 278.735 126.601C278.285 127.129 277.715 127.67 277.04 127.896Z"/>
	<path transform="scale(2 2)" d="M385.022 218.367C385.479 217.925 386.029 217.688 386.592 217.409C386.324 222.457 386.87 227.48 386.592 232.527C385.612 231.292 386.416 229.667 385.825 228.314C384.809 229.085 385.133 233.066 385.022 234.329C384.089 229.822 384.956 223.107 385.022 218.367Z"/>
</svg>
