<?xml version="1.0" encoding="utf-8" ?>
<svg xmlns="http://www.w3.org/2000/svg" xmlns:xlink="http://www.w3.org/1999/xlink" width="1024" height="1024">
	<path fill="#303030" transform="scale(2 2)" d="M386.765 68.2476C397.781 67.4662 411.255 68.5326 414.859 81.1198C418.109 92.4732 409.385 115.55 403.619 125.768C392.315 145.801 376.394 159.173 354.046 165.311C347.303 167.164 340.26 167.881 333.571 169.78L333.258 169.872C334.019 173.302 334.535 176.793 334.999 180.274C338.702 179.64 342.336 178.4 345.99 177.511C377.615 169.818 405.307 183.86 425.465 207.691C439.86 224.707 444.468 245.062 442.608 267.083C438.007 321.519 403.663 412.826 335.735 407.982C323.983 407.144 320.711 404.807 309.178 408.015C304.129 409.42 298.628 410.202 293.389 409.752C287.721 413.458 282.253 417.467 276.258 420.65C244.02 437.77 205.204 444.159 169.827 433.237C134.069 422.198 102.727 397.415 85.1635 364.164C77.7687 349.693 73.3773 336.344 69.7473 320.508C65.8278 303.411 65.865 292.034 79.0207 278.17C88.2721 268.421 85.3466 268.156 86.442 255.387C86.9101 249.931 90.735 232.441 93.0846 226.953C97.3782 216.926 111.146 215.518 118.419 222.976C127.249 232.03 122.096 238.499 120.252 248.66C119.772 251.302 118.298 265.882 119.413 268.013C120.632 270.339 126.902 273.651 129.181 275.498C137.577 282.302 138.913 287.542 143.469 296.958C156.318 323.513 188.991 341.878 218.01 341.748C215.023 332.775 210.646 323.912 207.452 314.885C199.768 293.171 192.259 258.89 199.111 236.407C210.871 197.819 250.259 169.214 291.078 176.81C295.357 177.606 299.524 179.003 303.681 180.274C301.97 149.568 273.516 127.542 274.281 114.624C274.783 106.137 282.217 100.053 290.579 100.467C301.111 100.99 306.59 112.805 312.909 119.817C325.899 88.7277 355.225 73.2923 386.765 68.2476ZM252.079 335.503C261.013 331.804 266.191 328.347 274.263 324.357C304.973 309.178 339.259 340.794 325.464 374.772C333.997 375.396 342.594 378.225 350.906 374.772C361.893 373.111 371.94 361.363 378.206 352.815C396.271 328.169 414.976 278.402 409.902 246.752C406.412 224.989 378.484 203.145 356.323 206.972C351.85 207.744 347.59 210.093 343.195 211.304C326.907 215.788 308.882 215.21 292.708 210.326C287.408 208.725 282.701 206.353 277.015 206.749C260.684 209.188 247.83 215.651 237.663 229.349C219.024 254.464 234.868 298.438 246.001 323.856C247.762 327.877 250.359 331.447 252.079 335.503ZM100.116 304.183C101.584 330.249 117.233 360.621 136.386 377.746C176.504 413.615 227.577 415.857 271.469 385.735C275.621 382.885 279.724 380.213 282.913 376.257C287.172 373.491 294.874 365.573 295.901 360.494C297.062 354.751 291.537 352.288 286.684 354.29C283.867 355.453 281.448 357.328 278.792 358.791C217.707 392.435 147.622 372.26 114.129 311.676C111.4 306.741 112.101 300.738 105.312 300.101C102.627 300.404 101.14 301.787 100.116 304.183Z"/>
</svg>
