<?xml version="1.0" encoding="utf-8" ?>
<svg xmlns="http://www.w3.org/2000/svg" xmlns:xlink="http://www.w3.org/1999/xlink" width="1024" height="1024">
	<path transform="scale(2 2)" d="M206.139 45.7792C210.152 46.0106 214.309 45.7864 218.334 45.7846L317.12 45.7792C334.253 61.3574 353.429 74.6294 371.494 89.0827C358.988 101.074 343.389 123.862 332.848 137.967C324.913 148.586 316.463 158.906 308.989 169.859C322.793 175.608 336.37 182.152 348.514 190.962C409.828 235.447 423.478 313.329 389.697 379.869C370.579 417.527 337.042 443.727 297.221 456.728C264.331 467.125 218.6 464.111 187.05 450.305C76.4212 401.893 80.0866 252.481 178.567 189.414C190.001 182.092 202.289 176.369 214.91 171.45C209.838 164.34 204.173 157.642 198.788 150.77L159.205 99.691C156.45 96.1675 153.81 92.1826 150.591 89.0827C155.419 83.838 201.739 46.7832 206.139 45.7792ZM251.31 419.252C259.387 418.353 267.228 417.426 275.088 415.246C322.033 402.227 365.307 351.384 359.262 300.998C353.523 253.164 306.683 219.514 259.875 222.143C203.94 224.475 150.026 278.283 152.46 335.249C154.775 389.403 200.284 420.502 251.31 419.252ZM219.23 180.964C180.592 194.612 147.198 224.656 129.612 261.552C106.984 309.024 109.521 366.026 144.305 406.635C146.54 409.245 148.82 411.934 151.379 414.233C150.441 411.588 145.255 405.308 143.444 402.363C117.464 360.124 119.359 304.101 141.228 260.512C154.612 233.836 171.853 215.092 196.034 197.813C201.35 194.015 207.586 189.214 213.806 187.148C215.823 185.238 217.579 183.198 219.23 180.964ZM262.375 101.556L299.788 101.556C288.065 88.8107 271.328 71.8 260.945 58.2061C258.01 60.9328 255.443 64.0382 252.792 67.036L240.996 80.4341C235.519 86.6751 227.514 94.6213 223.129 101.556L262.375 101.556ZM358.335 260.29C372.775 285.936 375.024 313.546 367.147 341.739C354.625 386.562 321.363 416.1 277.954 429.025C280.37 429.693 283.196 428.62 285.555 428.079C308.88 422.734 330.06 411.404 346.571 393.967C378.114 360.654 389.906 308.945 364.662 268.424C363.568 266.668 359.935 260.666 358.335 260.29ZM306.315 92.2338C307.543 80.0727 310.924 68.3054 312.493 56.2433L266.056 56.2433C279.16 70.3641 291.806 84.888 304.921 98.9996C305.475 96.7561 305.8 94.4794 306.315 92.2338ZM354.372 87.7546C348.319 83.1444 341.742 79.0945 335.574 74.6081C331.434 71.5973 321.269 62.9575 317.12 61.0756C314.513 73.4851 311.727 88.5163 310.119 100.949C313.538 100.203 316.878 98.9432 320.217 97.9014L338.566 92.2338C343.772 90.6312 349.016 88.7762 354.372 87.7546ZM217.657 109.451C220.149 116.182 223.685 122.782 226.73 129.296C234.719 146.393 243.401 163.447 250.441 180.964C250.086 174.126 236.146 137.573 233.4 130.191C230.852 123.341 227.459 116.486 225.534 109.451C222.927 109.414 220.257 109.254 217.657 109.451ZM230.091 187.148C228.518 185.988 227.018 184.778 225.534 183.507C222.349 187.217 218.539 191.038 216.054 195.233C219.355 195.653 222.278 197.134 225.534 197.661L225.393 197.39C222.207 196.089 228.452 189.905 230.091 187.148ZM255.007 56.2433L210.22 56.2433C210.461 60.9078 211.688 65.6841 212.558 70.2723L215.903 88.9325C216.492 92.2737 217.215 95.6389 217.657 98.9996C223.384 92.369 229.142 85.823 235.045 79.3476L246.54 66.4215C249.417 63.208 252.753 59.9261 255.007 56.2433ZM330.981 199.472C322.557 192.546 312.206 187.668 302.205 183.507C303.859 186.016 305.498 188.502 307.227 190.962C311.795 192.131 329.041 199.427 330.981 199.472ZM168.738 96.5095C171.351 99.7411 173.755 103.127 176.327 106.39L211.548 151.443C215.951 157.057 219.949 162.999 224.622 168.4C231.23 176.04 239.199 182.331 246.169 189.618C246.129 188.793 245.516 187.883 245.137 187.148C236.223 169.275 207.97 132.582 193.407 116.814C189.134 112.188 184.243 108.369 179.836 103.934C189 105.537 202.822 111.652 211.427 111.485C211.268 110.63 211.215 109.651 210.559 109.029C201.413 105.061 178.127 98.2012 168.738 96.5095ZM204.103 59.189C195.767 65.308 175.282 80.426 168.738 87.7546C173.954 90.1055 179.879 91.4931 185.31 93.3472L200.221 98.0828C204.42 99.4353 208.515 100.905 212.894 101.556C212.122 97.522 206.191 60.5272 204.103 59.189Z"/>
	<path fill="#FF5D15" transform="scale(2 2)" d="M151.379 414.233C150.441 411.588 145.255 405.308 143.444 402.363C117.464 360.124 119.359 304.101 141.228 260.512C154.612 233.836 171.853 215.092 196.034 197.813C201.35 194.015 207.586 189.214 213.806 187.148C211.727 190.831 208.682 194.272 206.139 197.661C215.047 202.913 224.716 206.906 233.734 211.992C203.303 222.966 179.389 238.135 160.094 265.304C120.869 320.534 135.609 393.611 198.017 422.89C221.211 433.772 248.217 435.423 273.08 430.05C274.635 429.714 276.377 429.141 277.954 429.025C280.37 429.693 283.196 428.62 285.555 428.079C308.88 422.734 330.06 411.404 346.571 393.967C378.114 360.654 389.906 308.945 364.662 268.424C363.568 266.668 359.935 260.666 358.335 260.29C342.599 236.86 312.55 214.342 283.506 211.992C289.361 207.325 303.949 199.969 310.965 197.661C309.62 195.478 308.261 193.313 307.227 190.962C311.795 192.131 329.041 199.427 330.981 199.472C359.597 218.128 383.757 249.866 390.805 283.378C400.339 328.708 384.297 376.057 351.503 408.064C307 451.498 226.947 467.737 173.182 432.404C166.9 428.276 155.751 420.119 151.379 414.233Z"/>
	<path fill="#FF5D15" transform="scale(2 2)" d="M225.534 109.451C234.214 109.656 242.942 109.442 251.627 109.441L303.57 109.451C291.858 131.042 280.025 155.833 270.432 178.643C267.057 186.67 264.226 194.87 260.945 202.923C257.154 195.768 253.719 188.367 250.441 180.964C250.086 174.126 236.146 137.573 233.4 130.191C230.852 123.341 227.459 116.486 225.534 109.451Z"/>
	<path fill="#FF5D15" transform="scale(2 2)" d="M354.372 96.5095L354.506 96.563C354.501 96.8147 306.63 154.899 297.53 166.416C288.161 178.274 277.828 192.441 266.928 202.923L266.582 202.799C266.868 200.549 268.723 197.525 269.623 195.372C280.489 169.372 292.319 143.479 305.498 118.553C307.145 115.439 308.661 112.139 310.965 109.451C315.385 106.675 323.078 105.272 328.223 103.829L354.372 96.5095Z"/>
	<path fill="#FF5D15" transform="scale(2 2)" d="M179.836 103.934C189 105.537 202.822 111.652 211.427 111.485C214.365 113.908 242.944 179.113 247.426 188.177C248.515 190.838 249.969 193.272 251.31 195.807C249.602 193.883 247.433 191.863 246.169 189.618C246.129 188.793 245.516 187.883 245.137 187.148C236.223 169.275 207.97 132.582 193.407 116.814C189.134 112.188 184.243 108.369 179.836 103.934Z"/>
	<path fill="#FF5D15" transform="scale(2 2)" d="M293.534 184.941C295.512 185.939 300.537 193.09 302.205 195.233L275.324 206.552C272.875 207.417 270.649 208.597 268.373 209.838C276.239 200.949 285.373 193.521 293.534 184.941Z"/>
	<path fill="#FF5D15" transform="scale(2 2)" d="M230.091 187.148C236.624 195.454 245.329 201.826 252.154 209.838C249.472 208.876 228.41 199.41 225.534 197.661L225.393 197.39C222.207 196.089 228.452 189.905 230.091 187.148Z"/>
	<path transform="scale(2 2)" d="M404.317 95.2824L404.574 95.4411L404.484 95.8948C397.527 103.717 385.741 112.383 375.761 114.7C373.825 113.315 377.989 109.892 378.888 109.079C386.256 102.413 395.05 98.5106 404.317 95.2824Z"/>
	<path transform="scale(2 2)" d="M364.435 139.616C371.84 143.666 373.387 161.509 373.43 169.859C368.455 166.259 363.814 145.744 364.435 139.616Z"/>
	<path transform="scale(2 2)" d="M382.703 129.811C391.007 128.932 400.809 133.258 407.75 137.434C406.61 137.475 405.458 137.436 404.317 137.434C396.04 137.954 385.497 136.679 379.128 130.889C380.298 130.429 381.488 130.127 382.703 129.811Z"/>
</svg>
