<?xml version="1.0" encoding="utf-8" ?>
<svg xmlns="http://www.w3.org/2000/svg" xmlns:xlink="http://www.w3.org/1999/xlink" width="1024" height="1024">
	<path fill="#303030" transform="scale(2 2)" d="M137.335 67.614C147.653 67.4797 152.65 75.271 159.33 81.99L422.901 345.303C428.398 350.799 434.006 356.198 439.426 361.77C452.216 374.918 437.246 384.532 428.267 393.55L387.327 435.264C383.104 439.621 380.254 443.51 374.054 444.731C365.474 445.116 361.649 438.819 356.076 433.238L87.3042 163.954C82.3247 158.977 77.1895 154.079 72.3855 148.934C59.4968 135.13 74.7115 125.16 83.9596 115.931L110.535 89.3633C117.92 82.023 127.552 68.8489 137.335 67.614ZM147.845 178.753C161.923 193.498 176.718 207.67 191.228 221.996L313.656 343.781C319.803 349.992 325.916 356.279 332.471 362.064C341.148 354.967 355.396 339.811 362.962 331.56L184.826 153.421C183.511 152.104 180.486 148.511 179.016 147.679C174.605 151.678 170.544 156.02 166.349 160.241L147.845 178.753ZM354.766 385.424C356.891 387.543 372.131 403.613 374.054 403.693C376.051 400.463 379.018 397.874 381.678 395.192L391.723 385.068C395.881 380.863 400.006 375.937 404.624 372.278C402.44 370.188 386.827 354.088 386.07 353.874C378.614 360.817 360.395 377.974 354.766 385.424ZM108.369 139.251C113.394 144.233 119.169 150.563 124.493 155.013C135.09 145.406 145.206 134.725 155.04 124.32C149.644 119.052 144.411 113.583 138.922 108.418C131.561 117.487 116.91 130.991 108.369 139.251Z"/>
</svg>
