<?xml version="1.0" encoding="utf-8" ?>
<svg xmlns="http://www.w3.org/2000/svg" xmlns:xlink="http://www.w3.org/1999/xlink" width="1024" height="1024">
	<path transform="scale(2 2)" d="M142.535 243.307C112.613 231.813 87.0255 223.888 72.3385 191.176C53.5487 149.326 78.8847 98.1628 119.299 80.2338C163.282 60.7219 210.472 78.0026 229.881 122.367C233.832 131.398 238.418 145.051 240.252 154.885C265.758 129.462 338.2 82.3838 367.674 112.198C395.101 139.942 353.127 206.123 335.395 229C358.798 228.938 391.471 245.372 407.63 261.419C449.313 302.811 462.937 368.006 418.074 412.332C375.376 454.518 302.57 444.31 262.681 403.495C241.378 381.698 233.637 362.681 229.403 333.823L229.008 334.073C225.831 336.107 222.913 338.558 219.89 340.812C191.421 362.039 145.219 390.95 109.574 383.291C99.9693 381.227 90.7637 375.513 85.4194 367.164C64.7376 334.856 107.282 274.283 127.471 251.532C130.566 248.044 133.867 243.717 137.685 241.027C132.267 248.666 126.157 255.827 120.814 263.541C107.614 282.598 69.6033 347.413 97.6571 366.844C123.497 384.742 178.595 354.172 199.683 339.731C202.987 337.468 206.879 335.148 209.756 332.372C206.176 333.227 200.281 337.742 196.676 339.645C175.386 350.882 130.853 374.745 108.772 353.719C80.6443 326.936 123.332 263.647 142.535 243.307ZM243.037 161.53C246.309 158.091 250.31 155.214 254.033 152.283C273.96 136.594 328.956 100.268 354.972 120.89C365.028 128.861 363.411 133.823 364.977 143.77C366.994 136.632 367.027 128.863 363.295 122.247C351.481 101.307 315.53 112.279 298.684 119.238C282.023 126.121 266.651 135.844 252.045 146.319C248.25 149.041 244.456 152.95 240.252 154.885C241.266 157.079 242.247 159.242 243.037 161.53ZM167.466 255.939C157.173 266.09 137.809 295.508 166.374 293.358C179.573 292.364 195.447 284.605 206.876 278.056C238.605 259.197 267.705 234.115 285.646 201.373C289.003 195.247 302.626 171.566 289.528 168.698C277.389 166.039 263.39 176.853 253.087 182.312C261.454 193.752 266.635 197.602 276.885 206.017C278.059 206.981 278.528 208.588 276.453 208.099C273.94 207.507 271.356 205.949 269.107 204.695C217.129 175.725 234.007 102.918 171.774 85.3093C166.114 83.7079 153.603 81.8705 147.902 82.7026C142.152 83.5016 136.535 84.4449 131 86.2585C77.525 103.78 60.0091 178.202 106.823 212.836C116.221 219.789 127.553 223.919 138.133 228.688C161.666 239.294 171.383 247.735 189.349 265.851C191.423 267.943 198.738 274.422 199.144 276.709C199.469 278.539 195.903 276.434 195.482 276.174C186.073 270.37 177.229 262.138 167.466 255.939ZM270.13 325.127C265.953 333.295 266.116 341.698 268.878 350.372C277.755 378.247 304.002 395.686 333.06 391.75C353.751 386.64 383.839 357.602 393.944 340.882C408.726 316.424 386.723 288.964 365.943 276.554C353.43 269.081 344.473 267.209 330.574 266.225C326.035 299.009 301.921 320.361 270.13 325.127ZM240.252 325.127C240.158 342.98 243.436 355.546 252.325 370.583C256.876 386.516 281.452 405.631 295.651 411.752C344.795 432.939 402.317 413.108 423.644 362.928C431.681 344.017 433.057 323.65 425.307 304.552C424.394 302.302 422.023 295.168 419.842 294.249C404.577 262.68 362.492 239.625 328.339 239.751C325.46 242.402 329.707 250.5 330.574 255.242C332.928 255.189 335.27 255.198 337.625 255.242C359.629 256.627 379.764 268.012 394.21 284.397C408.019 300.06 413.774 324.871 404.827 344.249C399.299 356.22 383.572 374.16 373.555 382.862C358.539 395.908 341.855 404.077 321.416 402.532C289.443 400.116 260.568 375.986 256.346 343.611C255.933 340.447 256.584 336.79 255.914 333.823C256.539 330.215 257.552 326.885 259.016 323.527C255.028 322.532 251.367 320.739 247.487 319.455C245.115 321.387 242.777 323.396 240.252 325.127ZM319.228 249.978C308.675 260.636 299.181 272.442 288.289 283.19C277.899 293.441 266.569 302.152 256.169 311.948L256.331 312.279C289.766 310.092 318.77 284.907 319.43 250.269L319.228 249.978Z"/>
	<path fill="#FF5D15" transform="scale(2 2)" d="M243.037 161.53C246.309 158.091 250.31 155.214 254.033 152.283C273.96 136.594 328.956 100.268 354.972 120.89C365.028 128.861 363.411 133.823 364.977 143.77C365.082 151.121 352.789 179.889 349.098 186.793C343.248 197.736 332.698 212.029 325.164 221.707C297.866 256.772 266.092 287.685 231.594 315.606C229.199 317.545 211.383 331.805 209.756 332.372C206.176 333.227 200.281 337.742 196.676 339.645C175.386 350.882 130.853 374.745 108.772 353.719C80.6443 326.936 123.332 263.647 142.535 243.307C150.243 246.104 157.48 249.858 164.545 253.986C156.584 261.166 147.476 271.885 145.899 282.87C144.358 293.612 149.601 300.461 160.282 301.72C185.448 304.686 224.852 277.977 244.03 262.902C265.641 245.914 299.988 207.75 303.344 178.503C304.312 170.069 300.79 162.887 291.77 161.954C278.13 160.541 262.273 172.81 252.325 181.003C248.879 174.789 245.626 168.147 243.037 161.53Z"/>
	<path transform="scale(2 2)" d="M153.972 94.2541C168.818 93.5405 195.647 107.322 198.461 121.569C199.022 124.406 193.824 118.704 193.492 118.375C182.386 108.251 169.933 101.593 155.001 99.1599C152.648 98.7765 146.472 98.7893 144.804 97.9273C144.249 95.2682 152.188 94.533 153.972 94.2541Z"/>
	<path transform="scale(2 2)" d="M99.2714 147.843L99.8947 147.982C100.838 149.041 100.104 157.005 100.265 159.041C101.659 176.676 116.613 185.813 117.086 188.831L116.792 189.214L115.579 189.22C100.356 184.565 91.5292 160.68 99.2714 147.843Z"/>
	<path transform="scale(2 2)" d="M121.077 165.088C122.733 165.95 122.844 169.537 123.355 171.162C127.418 184.105 139.347 190.07 138.6 192.372L137.685 192.773C124.934 192.489 115.144 173.883 121.077 165.088Z"/>
	<path fill="#FF5D15" transform="scale(2 2)" d="M337.625 255.242C351.959 252.519 373.198 256.662 384.982 264.659C400.509 275.197 412.55 297.961 415.995 316.175C416.522 318.963 416.783 327.268 421.701 325.818C429.86 323.413 421.508 299.423 419.842 294.249C422.023 295.168 424.394 302.302 425.307 304.552C433.057 323.65 431.681 344.017 423.644 362.928C402.317 413.108 344.795 432.939 295.651 411.752C281.452 405.631 256.876 386.516 252.325 370.583C252.41 368.492 251.301 366.096 251.235 363.862C250.932 353.632 252.132 343.369 255.914 333.823C256.584 336.79 255.933 340.447 256.346 343.611C260.568 375.986 289.443 400.116 321.416 402.532C341.855 404.077 358.539 395.908 373.555 382.862C383.572 374.16 399.299 356.22 404.827 344.249C413.774 324.871 408.019 300.06 394.21 284.397C379.764 268.012 359.629 256.627 337.625 255.242ZM344.732 409.243C346.317 411.273 347.534 412.068 350.08 412.679C365.701 414.818 380.385 399.016 368.135 399.605C361.334 400.181 348.57 403.075 344.732 409.243ZM391.562 390.359C397.529 388.247 401.292 383.124 402.971 377.26C401.576 374.16 400.661 373.578 397.359 373.786C395.325 375.546 394.572 378.41 392.641 380.253C391.019 381.801 387.125 383.913 386.954 386.285C386.792 388.547 389.493 390.468 391.562 390.359ZM414.976 356.651C420.524 353.332 426.314 338.146 417.012 338.5C413.712 340.369 405.893 358.308 414.976 356.651Z"/>
</svg>
