<?xml version="1.0" encoding="utf-8" ?>
<svg xmlns="http://www.w3.org/2000/svg" xmlns:xlink="http://www.w3.org/1999/xlink" width="1024" height="1024">
	<path transform="scale(2 2)" d="M176.405 67.4993C194.578 66.9466 211.335 71.8155 228.685 76.7044C292.212 94.6059 349.964 124.689 395.512 173.72C420.166 200.26 447.739 240.356 415.273 271.729C410.438 276.401 404.889 281.09 401.178 286.752C396.738 293.528 394.768 304.27 389.162 309.331C378.348 319.093 363.124 310.326 364.267 296.131C352.583 301.3 341.228 302.809 329.388 307.032C303.333 316.324 272.045 332.262 248.577 347.866C241.749 351.298 233.636 356.61 226.966 360.612C202.531 375.272 177.819 389.203 150.739 398.403C134.407 403.952 124.206 403.009 118.467 422.486C115.704 431.865 111.945 447.007 97.7088 441.998C69.6419 432.122 83.9697 335.399 87.5192 314.43C97.75 253.99 113.306 194.038 133.765 136.283C117.434 126.487 127.039 100.055 136.315 88.7623C146.532 76.3247 160.446 69.1185 176.405 67.4993ZM149.674 136.283C148.125 139.641 147.119 143.364 146.007 146.892C152.635 153.314 156.944 158.649 159.515 167.672C167.072 194.189 148.073 224.743 121.021 230.011C118.281 241.296 115.579 252.597 113.16 263.956C122.272 274.893 127.027 285.375 125.729 299.875C124.498 313.629 114.347 329.676 100.394 333.725C96.7564 354.229 92.9676 406.074 101.783 425.475L102.016 425.171C107.194 418.355 108.484 409.588 114.516 402.033C129.126 383.736 152.078 385.266 171.754 372.96C171.176 356.907 176.664 337.66 191.743 329.542C204.699 317.43 233.959 318.862 246.679 330.604C272.753 314.622 305.393 297.557 334.28 289.316C342.543 286.958 352.286 285.652 359.677 281.108C379.673 268.818 374.95 246.238 364.314 229.045C333.443 179.146 262.853 148.123 206.856 135.021C198.279 133.014 172.984 129.145 164.855 130.249C159.318 130.926 154.304 133.249 149.674 136.283ZM314.962 130.249C314.489 127.092 305.828 123.854 303.219 122.422C275.5 107.21 247.279 97.3849 216.82 89.1348C191.086 82.1641 164.591 75.2888 146.599 100.791C142.197 107.031 138.104 116.27 141.313 123.82C162.234 109.968 185.225 115.565 208.797 120.364C268.608 132.542 353.376 170.818 382.31 229.448C390.444 245.93 391.528 266.318 381.24 282.114C379.837 284.268 378.145 286.255 376.797 288.436C377.226 291.519 377.42 294.789 379.097 297.498C382.867 290.609 384.785 283.091 389.5 276.623C401.644 259.962 420.2 253.401 413.027 228.751C411.548 223.668 399.652 199.801 394.824 197.494C379.259 175.403 341.09 141.729 314.962 130.249Z"/>
	<path transform="scale(2 2)" d="M247.955 240.75C255.389 239.973 263.535 242.885 269.362 247.387C293.021 265.668 282.644 302.032 253.06 305.484C211.945 306.586 204.587 248.166 247.955 240.75Z"/>
	<path fill="#FF5D15" transform="scale(2 2)" d="M248.577 250.588C277.817 248.12 282.13 292.296 253.06 296.131C223.601 298.104 219.373 254.68 248.577 250.588Z"/>
	<path transform="scale(2 2)" d="M248.577 266.308C256.22 265.114 257.613 275.245 250.993 277.819C247.099 277.76 245.297 275.875 244.295 272.167C244.836 269.33 245.951 267.718 248.577 266.308Z"/>
	<path transform="scale(2 2)" d="M206.977 168.593C212.628 167.886 219.283 170.286 223.838 173.527C244.323 188.102 237.266 219.237 211.597 223.199C176.509 225.823 169.528 171.57 206.977 168.593Z"/>
	<path fill="#FF5D15" transform="scale(2 2)" d="M206.977 178.099C227.193 176.479 235.64 207.406 210.4 214.09C186.107 213.112 183.817 180.396 206.977 178.099Z"/>
	<path transform="scale(2 2)" d="M208.81 192.29C216.394 191.552 217.886 200.361 211.597 203.384C204.229 204.039 202.179 195.535 208.81 192.29Z"/>
	<path transform="scale(2 2)" d="M162.901 248.583C195.954 244.959 203.597 296.762 168.307 300.899C135.494 305.004 127.206 253.015 162.901 248.583Z"/>
	<path fill="#FF5D15" transform="scale(2 2)" d="M162.901 258.074C185.322 255.889 189.761 287.012 168.307 291.335C145.238 294.193 141.77 261.918 162.901 258.074Z"/>
	<path transform="scale(2 2)" d="M164.855 272.167C172.153 271.053 174.415 280.439 167.285 282.756C159.858 283.239 157.033 273.722 164.855 272.167Z"/>
	<path transform="scale(2 2)" d="M325.064 214.09C355.884 210.686 365.261 260.396 332.02 265.441C299.021 267.689 291.575 217.815 325.064 214.09Z"/>
	<path fill="#FF5D15" transform="scale(2 2)" d="M325.064 223.199C345.159 222.866 351.232 252.183 331.073 255.827C310.297 256.808 305.08 228.483 325.064 223.199Z"/>
	<path transform="scale(2 2)" d="M328.382 235.273C336.786 234.938 337.51 243.354 331.073 248.583C323.388 247.601 319.627 238.26 328.382 235.273Z"/>
	<path transform="scale(2 2)" d="M128.54 342.596C155.768 339.103 158.372 382.628 131.53 383.826C106.768 386.795 98.8211 345.838 128.54 342.596Z"/>
	<path fill="#FF5D15" transform="scale(2 2)" d="M128.54 351.526C143.377 350.036 147.395 369.71 132.221 374.541C118.056 377.099 111.93 355.8 128.54 351.526Z"/>
	<path transform="scale(2 2)" d="M128.54 359.272C134.1 358.966 136.568 365.226 131.53 368.254C125.097 368.579 122.588 362.005 128.54 359.272Z"/>
	<path transform="scale(2 2)" d="M297.55 187.563C308.15 187.344 300.072 203.37 292.903 205.775C281.813 206.13 290.329 189.929 297.55 187.563Z"/>
	<path transform="scale(2 2)" d="M309.414 276.545C313.273 275.98 315.267 277.27 316.285 281.003C315 286.349 310.58 289.076 305.837 291.335C304.41 291.621 303.122 291.483 301.693 291.335C295.327 285.183 303.086 278.542 309.414 276.545Z"/>
	<path transform="scale(2 2)" d="M187.936 143.24C198.316 143.857 192.06 157.859 184.373 159.751C172.897 159.998 181.809 145.323 187.936 143.24Z"/>
	<path transform="scale(2 2)" d="M244.295 160.791C252.806 159.965 262.936 169.654 254.27 173.659C247.265 175.784 234.75 165.55 244.295 160.791Z"/>
	<path transform="scale(2 2)" d="M165.712 224.792C173.927 224.173 172.385 235.883 159.952 239.447L159.698 239.492C151.093 241.096 154.386 227.955 165.712 224.792Z"/>
	<path transform="scale(2 2)" d="M259.997 209.526C267.929 209.14 277.188 217.012 268.731 223.199C262.244 224.744 250.682 213.35 259.997 209.526Z"/>
	<path transform="scale(2 2)" d="M196.892 293.251C203.644 294.406 210.414 305.341 202.962 309.857C195.78 311.015 189.038 296.281 196.892 293.251Z"/>
	<path transform="scale(2 2)" d="M162.901 320.752C171.504 320.431 166.383 332.345 158.335 336.389C147.843 334.609 156.048 322.806 162.901 320.752Z"/>
	<path transform="scale(2 2)" d="M138.614 309.857C145.445 310.549 150.868 323.646 142.725 325.485C135.593 324.474 129.415 312.27 138.614 309.857Z"/>
	<path fill="#FF5D15" transform="scale(2 2)" d="M141.313 123.82C138.104 116.27 142.197 107.031 146.599 100.791C164.591 75.2888 191.086 82.1641 216.82 89.1348C247.279 97.3849 275.5 107.21 303.219 122.422C305.828 123.854 314.489 127.092 314.962 130.249C309.922 127.511 303.102 124.15 297.55 122.781C282.426 129.092 301.448 136.898 306.632 139.836C334.018 155.355 362.898 176.787 382.854 200.96C386.951 205.923 395.271 222.467 398.205 223.446C413.416 228.518 395.683 199.348 394.824 197.494C399.652 199.801 411.548 223.668 413.027 228.751C420.2 253.401 401.644 259.962 389.5 276.623C384.785 283.091 382.867 290.609 379.097 297.498C377.42 294.789 377.226 291.519 376.797 288.436C378.145 286.255 379.837 284.268 381.24 282.114C391.528 266.318 390.444 245.93 382.31 229.448C353.376 170.818 268.608 132.542 208.797 120.364C185.225 115.565 162.234 109.968 141.313 123.82ZM254.27 117.833C255.829 117.45 256.924 117.155 257.804 115.735C262.191 108.658 251.487 106.648 246.873 104.793C232.678 99.0871 202.195 88.1858 186.645 88.8025C181.118 90.2489 179.033 96.954 184.501 100.267C187.255 101.936 194.265 101.528 197.477 101.837C211.845 103.219 225.944 107.205 239.423 112.254C244.302 114.081 249.132 116.887 254.27 117.833ZM280.814 128.61C293.623 125.035 279.153 113.081 269.913 112.968C256.579 118.585 273.93 128.035 280.814 128.61Z"/>
	<path fill="#FF5D15" transform="scale(2 2)" d="M215.177 330.604L215.531 330.567C222.52 329.884 232.183 331.88 237.7 336.389C224.582 342.711 210.183 352.896 196.892 360.165C191.893 362.939 186.783 365.525 181.758 368.254C180.055 348.585 196.126 332.258 215.177 330.604Z"/>
	<path fill="#FF5D15" transform="scale(2 2)" d="M142.725 156.425C160.367 174.86 149.665 203.681 130.142 216.476C128.127 217.76 126.036 218.948 123.829 219.867C128.102 200.331 135.617 175.6 142.725 156.425Z"/>
	<path fill="#FF5D15" transform="scale(2 2)" d="M110.543 276.545C114.845 280.088 116.51 288.342 116.792 293.638C117.421 305.468 112.704 312.444 105.15 320.752C103.983 321.58 102.889 322.56 101.783 323.472C102.087 311.757 107.178 287.937 110.543 276.545Z"/>
</svg>
