<?xml version="1.0" encoding="utf-8" ?>
<svg xmlns="http://www.w3.org/2000/svg" xmlns:xlink="http://www.w3.org/1999/xlink" width="1024" height="1024">
	<path fill="#252525" transform="scale(2 2)" d="M182.234 168.24C181.799 164.502 184.982 160.14 188.514 159.187C201.737 155.621 215.19 193.271 263.79 179.327C266.527 173.528 271.064 167.798 277.099 165.235L277.099 165.235C272.179 169.572 267.837 175.745 264.328 181.265C269.923 178.871 279.713 175.29 284.013 182.253L284.502 183.273L284.206 183.2C283.721 183.084 283.235 182.992 282.745 182.898C274.237 178.871 268.406 182.42 261.001 186.637C241.063 197.993 218.168 209.638 197.812 191.956C190.085 185.243 183.991 176.406 183.246 165.992L182.234 169.037C181.092 172.489 179.813 175.621 180.141 179.327L179.355 181.359C175.36 191.488 172.621 208.423 178.316 217.861C186.811 214.53 185.278 208.148 199.777 204.68C192.895 208.48 187.353 213.161 183.246 220C194.834 215.433 197.715 215.912 205.3 224.318L206.538 224.318L207.966 223.619C209.206 222.615 210.408 221.605 211.562 220.502C208.337 217.543 200.89 208.479 200.322 204.183L200.562 203.826C202.851 204.34 211.54 216.749 214.093 219.18C232.751 211.163 241.844 226.025 234.317 228.314C231.496 229.172 224.842 226.875 220.309 227.076L220.309 227.076C225.852 229.363 230.455 235.926 234.473 240.226C266.56 225.513 287.73 251.987 316.879 257.276C319.476 257.747 326.114 257.693 328.012 258.771C301.116 261.149 260.255 225.247 236.771 242.225C237.016 242.526 255.396 256.719 256.343 257.264C263.637 261.46 271.751 263.813 279.004 268.232C290.12 275.004 297.672 282.993 310.901 286.118C314.758 287.03 326.805 291.534 327.569 291.605C347.933 293.501 388.883 288.707 405.566 274.814C416.785 265.473 408.961 248.613 394.282 245.125L394.282 245.125C406.469 247.015 412.513 253.559 413.47 265.512C422.263 269.595 420.403 282.186 414.46 288.084C417.09 281.048 419.647 279.865 416.61 270.609C412.642 289.963 376.012 299.229 360.298 299.405C376.075 297.934 400.459 290.39 410.373 278.522C416.781 270.85 413.91 265.175 412.779 268.903C407.291 286.982 363.509 294.131 348.128 294.601C341.706 294.797 335.186 294.265 328.793 294.665C331.84 298.131 333.077 302.002 334.175 306.412C350.797 311.815 381.666 306.354 396.933 299.178C398.569 298.409 402.585 295.341 404.173 296.135L403.962 295.918C384.745 308.233 360.162 312.386 337.777 310.176C338.565 311.537 339.181 312.864 339.739 314.334C340.973 319.512 339.473 325.893 336.427 330.223L336.263 330.123C337.915 325.604 339.916 319.136 338.578 314.334L338.32 314.725C330.614 326.531 325.495 332.222 310.925 337.346C298.044 342.699 282.921 344.709 269.145 345.489C271.084 345.015 273.228 345.041 275.214 344.768C288.38 342.961 297.807 340.899 310.393 335.884C311.6 334.884 313.843 334.19 315.271 333.443C321.083 330.399 339.089 317.483 334.685 309.197C334.193 308.961 334.459 308.989 333.883 309.186C331.687 322.429 311.952 330.532 300.917 334.226C276.012 342.563 244.064 342.459 219.087 334.509C195.004 326.845 175.848 310.083 153.775 298.499C132.212 287.183 103.612 287.885 95.3525 262.983C92.9821 269.667 92.7362 290.751 94.6847 295.694L94.6847 295.694C90.9771 293.078 90.7247 270.223 91.6331 266.308C92.1805 263.949 93.3168 262.012 94.6847 260.049C92.2484 243.607 95.2792 227.975 101.188 212.473C116.204 173.078 135.262 226.503 176.151 217.861C167.193 208.098 173.208 189.628 178.316 179.327C179.006 175.32 180.414 171.859 182.234 168.24ZM140.06 289.346C141.437 287.825 142.102 285.889 143.257 284.224C155.879 266.019 188.679 282.055 202.824 289.384C207.161 291.631 211.807 294.394 216.508 295.694C226.718 301.238 233.897 300.28 242.919 303.521C248.776 291.393 250.291 284.885 243.99 271.953C242.15 272.949 238.914 274.46 238.119 276.496L238.177 277.023C239.147 283.744 231.934 285.992 228.796 281.051C226.573 277.348 227.774 274.226 231.634 272.63C233.97 272.055 236.758 269.041 238.177 267.193C234.705 264.662 232.089 261.418 228.796 258.734C226.703 258.91 224.928 259.181 222.991 260.049C221.728 260.768 216.777 263.18 216.502 264.332C215.862 267.02 218.765 268.598 221.401 265.512C221.112 264.356 221.299 263.194 221.401 262.02C222.852 264.756 223.768 268.13 221.401 270.609C211.267 272.618 210.923 257.693 218.499 260.049C219.444 260.538 220.413 260.215 221.401 260.049C223.138 258.569 224.778 257.432 226.83 256.424C224.389 252.722 221.312 248.557 218.499 245.125C215.533 245.329 213.119 245.797 210.483 247.239C211.076 248.289 211.241 249.187 211.438 250.364L211.562 251.063C211.244 251.809 210.969 252.61 210.483 253.265C210.446 253.324 210.409 253.385 210.371 253.444L210.176 253.737C209.127 255.34 208.315 255.795 206.538 256.424C200.848 254.865 198.68 248.646 203.754 245.125C205.21 244.134 206.243 244.436 207.233 245.792C209.351 243.973 211.358 242.876 214.093 242.225C214.65 242.032 215.129 241.763 215.646 241.485C212.209 236.858 209.202 232.184 205.3 227.883C203.358 227.374 199.426 230.694 198.804 232.276C199.347 251.571 179.676 227.408 196.139 228.822C194.528 231.229 192.856 232.589 193.147 235.761C194.635 236.248 195.803 235.432 197.177 235.853L197.371 236.17C197.564 236.476 197.759 236.75 197.984 237.032C198.446 235.661 198.091 233.711 197.984 232.276L197.984 232.276C196.839 232.738 196.605 233.964 195.637 234.752L195.305 234.797C194.933 234.092 195.078 233.531 195.319 232.821C195.539 231.899 195.825 231.025 196.139 230.13C198.261 227.894 201.064 226.372 203.754 224.935C187.596 206.259 163.585 248.674 131.391 234.759C121.367 230.426 107.577 219.751 106.588 207.837C97.3064 223.588 90.4978 265.962 108.596 276.449C118.429 282.147 131.328 283.891 140.06 289.346ZM243.99 265.512L242.919 265.512L239.647 268.082C236.859 270.026 234.792 272.526 232.247 274.713C231.443 275.4 230.928 276.137 230.359 277.023C231.644 279.527 232.515 280.113 235.288 279.785C238.545 274.094 236.594 275.938 242.919 270.609L243.101 270.401C246.993 269.675 253.15 267.406 257.743 266.32C259.65 265.691 261.795 265.667 263.79 265.512C262.858 264.997 261.815 264.636 260.829 264.234C255.738 263.894 246.288 265.869 243.99 265.512ZM251.96 188.317C255.138 186.635 259.877 184.291 262.742 182.41L262.856 182.53L263.087 181.862C258.417 182.836 253.977 184.308 249.202 184.899C215.43 189.079 203.011 160.972 189.327 161.307C184.225 162.97 183.904 166.586 185.496 171.287C189.039 181.753 198.355 190.488 208.104 195.25C221.888 201.983 239.97 196.807 251.96 188.317ZM168.823 227.076C172.751 225.101 176.693 223.27 180.141 220.502C137.127 225.076 131.323 201.022 112.301 200.742C107.639 202.046 107.947 204.33 109.354 208.554C112.623 218.37 121.62 226.19 130.672 230.67C145.04 237.779 155.786 233.843 168.823 227.076ZM274.633 277.023C281.682 278.235 288.168 282.281 295.587 283.515C289.472 279.266 275.238 268.171 270.14 267.193C273.316 270.427 274.294 272.501 274.633 277.023ZM205.3 247.239C201.659 251.383 206.144 252.952 209.752 252.472C210.993 251.465 210.023 248.959 209.752 247.668L209.037 248.388C205.572 252.325 204.522 251.26 207.966 247.668L207.966 247.239C206.982 247.012 206.288 247.047 205.3 247.239ZM236.771 253.265C234.896 251.583 227.289 243.551 225.308 243.958C223.968 244.245 222.696 244.683 221.401 245.125C223.454 248.692 226.18 252.296 228.796 255.48L232.247 254.364C233.75 253.99 235.255 253.582 236.771 253.265ZM238.177 264.234C240.532 263.029 242.741 262.096 245.302 261.437C244.064 259.978 241.809 256.179 239.647 256.424C236.721 256.827 234.364 257.602 231.634 258.734C233.918 260.476 235.948 262.447 238.177 264.234ZM239.647 252.472C241.547 252.577 243.408 252.734 245.302 252.472C242.815 250.61 232.502 244.571 229.69 243.958C233.106 246.648 236.538 249.428 239.647 252.472ZM219.549 230.13C222.412 234.04 225.321 238.094 228.796 241.485L231.634 241.485C227.918 238.231 223.642 232.474 219.549 230.13ZM242.159 303.521C233.234 302.313 224.72 301.24 216.508 297.213C193.203 290.31 162.089 262.529 141.701 289.346C171.074 300.039 191.832 322.979 223.559 332.261C250.035 340.007 285.666 338.463 310.781 326.759C321.625 321.706 335.04 312.678 328.065 299.018C323.003 289.103 311.709 289.067 302.201 287.588C289.211 285.567 276.303 280.824 264.858 274.405C261.757 272.666 259.138 270.302 255.813 268.937C252.78 269.616 249.967 270.833 247.079 271.953C257.26 291.85 244.1 307.884 229.848 321.426C232.139 316.778 238.685 309.917 242.159 303.521ZM242.919 255.48C243.478 257.095 246.023 259.096 247.079 261.437C249.208 260.866 251.307 260.252 253.511 260.049L253.795 259.925C251.561 258.456 249.413 256.78 247.079 255.48C245.693 255.456 244.304 255.405 242.919 255.48ZM223.928 221.454C222.164 221.691 219.987 221.792 218.519 222.897L218.389 223.28C219.762 225.332 227.477 225.356 229.69 225.623C238.346 228.271 233.488 219.774 223.928 221.454ZM272.496 275.821C270.536 269.754 269.267 270.727 266.499 267.193C264.067 266.211 260.034 266.909 257.743 268.082C262.783 270.303 267.43 273.505 272.496 275.821ZM207.966 227.883C211.667 232.154 215.512 236.686 218.499 241.485C220.234 240.766 221.71 240.661 223.518 240.309L223.928 240.226C221.364 235.808 217.995 232.955 215.646 227.883C213.066 227.393 210.552 227.556 207.966 227.883ZM213.1 221.872C211.91 222.529 210.526 223.152 209.752 224.318L210.483 224.318C219.569 222.184 219.975 218.041 232.247 220.502C225.806 216.455 219.439 218.315 213.1 221.872Z"/>
	<defs>
		<linearGradient id="gradient_0" gradientUnits="userSpaceOnUse" x1="200.98676" y1="249.0938" x2="209.53691" y2="253.10576">
			<stop offset="0" stop-color="#5C5153"/>
			<stop offset="1" stop-color="#837C7B"/>
		</linearGradient>
	</defs>
	<path fill="url(#gradient_0)" transform="scale(2 2)" d="M203.754 245.125C204.37 245.785 205.012 246.361 205.3 247.239C201.659 251.383 206.144 252.952 209.752 252.472L210.483 253.265C210.446 253.324 210.409 253.385 210.371 253.444L210.176 253.737C209.127 255.34 208.315 255.795 206.538 256.424C200.848 254.865 198.68 248.646 203.754 245.125Z"/>
	<path fill="#5D5757" transform="scale(2 2)" d="M228.796 281.051C229.595 279.942 229.81 278.298 230.359 277.023C231.644 279.527 232.515 280.113 235.288 279.785C237.502 280.455 237.321 278.455 238.177 277.023C239.147 283.744 231.934 285.992 228.796 281.051Z"/>
	<path fill="#7A7676" transform="scale(2 2)" d="M242.919 270.609L243.99 271.953C242.15 272.949 238.914 274.46 238.119 276.496L238.177 277.023C237.321 278.455 237.502 280.455 235.288 279.785C238.545 274.094 236.594 275.938 242.919 270.609Z"/>
	<path fill="#8E8787" transform="scale(2 2)" d="M238.177 267.193C238.664 267.491 239.146 267.808 239.647 268.082C236.859 270.026 234.792 272.526 232.247 274.713L231.634 272.63C233.97 272.055 236.758 269.041 238.177 267.193Z"/>
	<path fill="#ADA9A9" transform="scale(2 2)" d="M209.752 247.668L210.483 247.239C211.076 248.289 211.241 249.187 211.438 250.364L211.562 251.063C211.244 251.809 210.969 252.61 210.483 253.265L209.752 252.472C210.993 251.465 210.023 248.959 209.752 247.668Z"/>
	<path fill="#ADA9A9" transform="scale(2 2)" d="M207.966 247.668L207.966 247.668L209.037 248.388C205.572 252.325 204.522 251.26 207.966 247.668Z"/>
	<path fill="#8E8787" transform="scale(2 2)" d="M195.319 232.821C195.98 232.348 196.673 231.923 197.36 231.489L197.984 232.276C196.839 232.738 196.605 233.964 195.637 234.752L195.305 234.797C194.933 234.092 195.078 233.531 195.319 232.821Z"/>
	<path fill="#8E8787" transform="scale(2 2)" d="M218.499 260.049C219.444 260.538 220.413 260.215 221.401 260.049L222.991 260.049C221.728 260.768 216.777 263.18 216.502 264.332C215.862 267.02 218.765 268.598 221.401 265.512C221.112 264.356 221.299 263.194 221.401 262.02C222.852 264.756 223.768 268.13 221.401 270.609C211.267 272.618 210.923 257.693 218.499 260.049Z"/>
	<defs>
		<linearGradient id="gradient_1" gradientUnits="userSpaceOnUse" x1="215.57677" y1="260.48242" x2="218.07886" y2="270.42072">
			<stop offset="0" stop-color="#4C4141"/>
			<stop offset="1" stop-color="#676162"/>
		</linearGradient>
	</defs>
	<path fill="url(#gradient_1)" transform="scale(2 2)" d="M221.401 270.609C211.267 272.618 210.923 257.693 218.499 260.049C217.47 263.069 211.184 264.875 217.239 268.937C218.601 269.064 221.389 268.771 221.401 270.609Z"/>
	<defs>
		<linearGradient id="gradient_2" gradientUnits="userSpaceOnUse" x1="221.41002" y1="269.02258" x2="222.11195" y2="264.05112">
			<stop offset="0" stop-color="#716C6B"/>
			<stop offset="1" stop-color="#848182"/>
		</linearGradient>
	</defs>
	<path fill="url(#gradient_2)" transform="scale(2 2)" d="M221.401 262.02C222.852 264.756 223.768 268.13 221.401 270.609C221.389 268.771 218.601 269.064 217.239 268.937C219.57 268.743 221.899 268.464 221.401 265.512C221.112 264.356 221.299 263.194 221.401 262.02Z"/>
	<path fill="#FEFEFE" transform="scale(2 2)" d="M223.928 240.226C224.402 240.956 225.519 242.233 223.928 242.225C222.487 242.555 221.021 242.972 219.549 243.129L218.499 243.129C218.463 243.795 218.391 244.464 218.499 245.125C215.533 245.329 213.119 245.797 210.483 247.239L209.752 247.668L209.037 248.388L207.966 247.668L207.966 247.668L207.966 247.239C206.982 247.012 206.288 247.047 205.3 247.239C205.012 246.361 204.37 245.785 203.754 245.125C205.21 244.134 206.243 244.436 207.233 245.792C209.351 243.973 211.358 242.876 214.093 242.225C214.65 242.032 215.129 241.763 215.646 241.485C216.795 242.211 217.363 242.301 218.499 241.485C220.234 240.766 221.71 240.661 223.518 240.309L223.928 240.226Z"/>
	<path fill="#ADA9A9" transform="scale(2 2)" d="M207.233 245.792C209.351 243.973 211.358 242.876 214.093 242.225L214.093 243.129C212.068 244.006 208.967 245.081 207.966 247.239C206.982 247.012 206.288 247.047 205.3 247.239C205.012 246.361 204.37 245.785 203.754 245.125C205.21 244.134 206.243 244.436 207.233 245.792Z"/>
	<path fill="#5D5757" transform="scale(2 2)" d="M223.928 240.226C224.402 240.956 225.519 242.233 223.928 242.225C222.738 241.587 220.768 241.727 219.549 242.225C217.692 242.341 215.857 242.488 214.093 243.129L214.093 243.129L214.093 242.225C214.65 242.032 215.129 241.763 215.646 241.485C216.795 242.211 217.363 242.301 218.499 241.485C220.234 240.766 221.71 240.661 223.518 240.309L223.928 240.226Z"/>
	<path fill="#7A7676" transform="scale(2 2)" d="M215.646 243.958C216.564 243.595 217.545 243.379 218.499 243.129C218.463 243.795 218.391 244.464 218.499 245.125C215.533 245.329 213.119 245.797 210.483 247.239L209.752 247.668L209.037 248.388L207.966 247.668C210.347 246.142 213.058 245.081 215.646 243.958Z"/>
	<path fill="#5D5757" transform="scale(2 2)" d="M198.804 232.276C199.347 251.571 179.676 227.408 196.139 228.822C194.528 231.229 192.856 232.589 193.147 235.761C194.635 236.248 195.803 235.432 197.177 235.853L197.371 236.17C197.564 236.476 197.759 236.75 197.984 237.032C198.446 235.661 198.091 233.711 197.984 232.276L198.804 232.276Z"/>
	<path fill="#ADA9A9" transform="scale(2 2)" d="M193.147 235.761C194.635 236.248 195.803 235.432 197.177 235.853L197.371 236.17C197.564 236.476 197.759 236.75 197.984 237.032C196.104 238.239 193.141 238.693 193.147 235.761Z"/>
	<path fill="#5D5757" transform="scale(2 2)" d="M205.3 227.883L207.966 227.883C211.667 232.154 215.512 236.686 218.499 241.485C217.363 242.301 216.795 242.211 215.646 241.485C212.209 236.858 209.202 232.184 205.3 227.883Z"/>
	<path fill="#ADA9A9" transform="scale(2 2)" d="M205.3 224.318L206.538 224.318C203.871 227.126 200.315 228.981 197.36 231.489C196.673 231.923 195.98 232.348 195.319 232.821C195.539 231.899 195.825 231.025 196.139 230.13C198.261 227.894 201.064 226.372 203.754 224.935C204.183 225.202 204.603 225.166 205.053 225.002L205.3 224.318Z"/>
	<path fill="#8E8787" transform="scale(2 2)" d="M257.743 262.983C258.784 263.235 260.141 263.346 260.829 264.234C255.738 263.894 246.288 265.869 243.99 265.512C248.246 262.117 254.829 264.064 257.743 262.983Z"/>
	<path fill="#ADA9A9" transform="scale(2 2)" d="M242.919 265.512C245.964 262.489 254.062 260.748 257.743 262.983C254.829 264.064 248.246 262.117 243.99 265.512L242.919 265.512Z"/>
	<defs>
		<linearGradient id="gradient_3" gradientUnits="userSpaceOnUse" x1="262.43954" y1="267.82202" x2="259.20468" y2="265.05151">
			<stop offset="0" stop-color="#413B3F"/>
			<stop offset="1" stop-color="#5C5958"/>
		</linearGradient>
	</defs>
	<path fill="url(#gradient_3)" transform="scale(2 2)" d="M263.79 265.512L264.329 265.462C265.049 266.127 265.868 266.483 266.739 266.911L266.499 267.193C264.067 266.211 260.034 266.909 257.743 268.082C257.792 267.505 257.748 266.901 257.743 266.32C259.65 265.691 261.795 265.667 263.79 265.512Z"/>
	<path fill="#8E8787" transform="scale(2 2)" d="M213.1 225.623C214.913 224.346 218.817 225.892 220.309 227.076L220.309 227.076C218.452 227.043 214.62 226.615 213.1 225.623Z"/>
	<path fill="#5D5757" transform="scale(2 2)" d="M211.562 220.502C212.051 221.031 212.483 221.483 213.1 221.872C211.91 222.529 210.526 223.152 209.752 224.318C209.386 223.872 209.494 224.133 209.457 223.523L209.644 223.265C209.087 223.396 208.527 223.507 207.966 223.619C209.206 222.615 210.408 221.605 211.562 220.502Z"/>
	<defs>
		<linearGradient id="gradient_4" gradientUnits="userSpaceOnUse" x1="201.83351" y1="307.54059" x2="172.38142" y2="349.50937">
			<stop offset="0" stop-color="#433534"/>
			<stop offset="1" stop-color="#544D4F"/>
		</linearGradient>
	</defs>
	<path fill="url(#gradient_4)" transform="scale(2 2)" d="M94.6847 295.694L94.6847 295.694C104.097 302.129 133.256 312.909 145.945 315.521C140.894 281.81 195.905 333.324 202.742 338.331C233.956 361.193 283.306 355.763 317.731 342.937C298.142 355.847 248.339 358.194 227.305 352.877C197.574 345.361 185.787 323.718 161.093 308.941C156.062 312.09 151.137 315.548 145.945 318.425C133.378 314.421 102.695 304.994 94.6847 295.694ZM147.538 314.334C149.893 313.362 151.999 312.114 154.137 310.739C155.939 309.968 157.686 309.148 159.421 308.238C156.386 306.596 152.797 304.291 149.26 304.241C147.525 307.222 147.444 310.973 147.538 314.334Z"/>
	<path fill="#5D5757" transform="scale(2 2)" d="M336.754 219.18C339.788 219.563 343.525 219.748 346.152 221.454C350.072 223.919 350.965 228.575 351.609 232.821C350.141 229.618 348.594 226.894 346.152 224.318C343.809 224.772 341.783 225.068 339.739 226.371C348.238 233.505 373.335 242.274 383.661 243.958L383.661 245.125C366.148 242.435 353.302 238.099 338.578 227.076C335.744 228.281 333.018 229.386 330.02 230.13C331.96 232.41 334.012 234.808 334.877 237.73C333.721 236.932 333.669 234.889 332.577 234.415C332.747 236.005 333.908 236.969 333.533 238.829C332.559 235.678 331.248 232.796 329.272 230.138L328.793 230.13L327.05 230.13C328.99 228.171 331.156 226.956 333.533 225.623C334.351 224.308 335.289 224.022 333.099 223.912L332.837 223.9L332.798 223.675C334.317 222.602 337.354 224.198 334.877 220.502L334.877 220.502L336.754 220.502L336.754 219.18Z"/>
	<path fill="#FEFEFE" transform="scale(2 2)" d="M336.754 219.18C339.788 219.563 343.525 219.748 346.152 221.454C345.331 221.979 344.646 222.351 343.709 222.625L340.85 223.619C338.356 224.181 335.96 224.809 333.533 225.623C334.351 224.308 335.289 224.022 333.099 223.912L332.837 223.9L332.798 223.675C334.317 222.602 337.354 224.198 334.877 220.502L334.877 220.502L336.754 220.502L336.754 219.18Z"/>
	<path fill="#ADA9A9" transform="scale(2 2)" d="M336.754 219.18C339.788 219.563 343.525 219.748 346.152 221.454C345.331 221.979 344.646 222.351 343.709 222.625L343.576 222.276C342.668 221.785 341.862 221.627 340.85 221.454C339.53 220.994 338.123 220.777 336.754 220.502L336.754 219.18Z"/>
	<path fill="#5D5757" transform="scale(2 2)" d="M310.925 216.577C312.658 212.934 315.37 208.925 318.681 206.554L319.579 206.95L319.709 207.837L318.681 209.398C324.937 212.527 331.007 215.076 336.754 219.18L336.754 220.502L334.877 220.502C334.412 220.364 333.979 220.189 333.533 220C330.261 217.808 326.391 216.2 322.854 214.46C323.538 215.693 327.51 219.449 328.793 220.502C328.849 221.027 328.925 221.36 328.793 221.872C327.396 222.549 326.195 223.412 324.942 224.318L324.942 224.318C324.239 224.736 323.508 225.132 322.854 225.623L322.854 224.935C322.234 223.593 317.134 220.502 315.743 219.224C314.824 218.379 313.596 216.384 312.547 215.989L312.015 216.577L310.925 216.577ZM313.76 214.46C317.71 217.103 320.751 221.404 324.942 223.619C328.273 220.866 323.181 218.111 321.435 215.9L321.269 215.685C319.698 214.251 318.27 212.669 316.88 211.06C315.905 212.276 314.872 213.368 313.76 214.46Z"/>
	<path fill="#5D5757" transform="scale(2 2)" d="M321.269 215.685L321.243 215.16C321.59 214.885 321.899 214.885 322.322 214.815L322.427 214.526L322.854 214.46C323.538 215.693 327.51 219.449 328.793 220.502C328.849 221.027 328.925 221.36 328.793 221.872C327.396 222.549 326.195 223.412 324.942 224.318L324.942 223.619C328.273 220.866 323.181 218.111 321.435 215.9L321.269 215.685Z"/>
	<defs>
		<linearGradient id="gradient_5" gradientUnits="userSpaceOnUse" x1="296.16855" y1="184.14595" x2="297.89212" y2="198.35406">
			<stop offset="0" stop-color="#4E4545"/>
			<stop offset="1" stop-color="#6B696A"/>
		</linearGradient>
	</defs>
	<path fill="url(#gradient_5)" transform="scale(2 2)" d="M296.097 182.898L296.097 182.898C296.295 183.648 296.214 183.751 296.86 184.155L298.649 184.047L298.764 184.908C299.147 185.046 299.45 185.107 299.856 185.13C299.155 185.547 298.511 185.893 297.983 186.534C298.605 187.01 299.218 187.021 299.98 187.066L300.21 187.341C298.7 190.74 303.898 193.749 305.595 196.084L304.509 196.084C304.018 195.657 303.611 195.416 303.014 195.16C302.343 196.679 301.356 197.819 299.856 198.58L298.649 199.265C298.023 199.139 297.752 198.997 297.27 198.58C296.742 195.799 291.062 189.145 288.924 187.082C289.634 185.957 291.907 185.076 292.998 184.047L292.998 184.047C294.07 183.434 294.846 183.038 296.097 182.898ZM301.174 195.16C299.729 193.106 295.254 187.222 292.993 186.637L292.703 186.913C292.838 189.814 297.745 194.974 299.856 196.941C300.767 196.574 300.9 196.071 301.174 195.16Z"/>
	<path fill="#ADA9A9" transform="scale(2 2)" d="M296.097 182.898L296.097 182.898C296.295 183.648 296.214 183.751 296.86 184.155L298.649 184.047L298.764 184.908C299.147 185.046 299.45 185.107 299.856 185.13C299.155 185.547 298.511 185.893 297.983 186.534C297.535 185.636 296.733 184.824 296.097 184.047C295.068 183.955 294.03 184.019 292.998 184.047L292.998 184.047C294.07 183.434 294.846 183.038 296.097 182.898Z"/>
	<path fill="#ADA9A9" transform="scale(2 2)" d="M301.174 195.16C301.787 195.17 302.401 195.193 303.014 195.16C302.343 196.679 301.356 197.819 299.856 198.58L299.856 196.941C300.767 196.574 300.9 196.071 301.174 195.16Z"/>
	<path fill="#FEFEFE" transform="scale(2 2)" d="M291.316 181.265C291.87 181.812 292.415 182.381 292.998 182.898C292.994 183.275 292.97 183.67 292.998 184.047L292.998 184.047L292.998 184.047C291.907 185.076 289.634 185.957 288.924 187.082C288.554 187.616 288.3 188.097 287.653 188.317C284.892 189.718 282.179 191.085 279.798 193.099C279.445 194.091 279.066 195.082 278.743 196.084L279.798 196.941C281.662 196.072 284.338 191.778 284.013 196.941C283.65 197.567 283.368 198.175 282.745 198.58C274.918 204.182 269.852 189.8 278.458 190.008C279.123 190.024 279.641 190.009 280.265 189.782C280.895 189.158 281.893 188.555 282.745 188.317C284.276 187.131 286.008 186.153 287.653 185.13C286.036 184.337 284.399 183.611 282.745 182.898C283.235 182.992 283.721 183.084 284.206 183.2L284.502 183.273L284.013 182.253C287.848 184.383 287.676 184.476 290.69 181.265L291.316 181.265Z"/>
	<path fill="#5D5757" transform="scale(2 2)" d="M280.265 189.782C279.006 190.945 277.723 192.037 276.378 193.099C275.751 194.61 275.886 195.392 276.378 196.941L277.138 195.604C277.805 195.469 278.148 195.793 278.743 196.084L279.798 196.941C281.662 196.072 284.338 191.778 284.013 196.941C283.65 197.567 283.368 198.175 282.745 198.58C274.918 204.182 269.852 189.8 278.458 190.008C279.123 190.024 279.641 190.009 280.265 189.782Z"/>
	<path fill="#7A7676" transform="scale(2 2)" d="M279.798 196.941C281.662 196.072 284.338 191.778 284.013 196.941C283.65 197.567 283.368 198.175 282.745 198.58C282.042 197.178 278.096 198.182 276.378 196.941L277.138 195.604C277.805 195.469 278.148 195.793 278.743 196.084L279.798 196.941Z"/>
	<path fill="#ADA9A9" transform="scale(2 2)" d="M279.798 196.941C281.662 196.072 284.338 191.778 284.013 196.941C282.564 197.159 281.251 197.339 279.798 196.941Z"/>
	<path fill="#5D5757" transform="scale(2 2)" d="M291.316 181.265C291.87 181.812 292.415 182.381 292.998 182.898C292.994 183.275 292.97 183.67 292.998 184.047C290.194 185.66 285.844 187.178 282.745 188.317C284.276 187.131 286.008 186.153 287.653 185.13C286.036 184.337 284.399 183.611 282.745 182.898C283.235 182.992 283.721 183.084 284.206 183.2L284.502 183.273L284.013 182.253C287.848 184.383 287.676 184.476 290.69 181.265L291.316 181.265Z"/>
	<path fill="#ADA9A9" transform="scale(2 2)" d="M276.378 193.099C276.724 193.613 276.791 194.165 277.064 194.71L277.335 194.76C280.485 192.451 282.347 189.067 287.653 188.317C284.892 189.718 282.179 191.085 279.798 193.099C279.445 194.091 279.066 195.082 278.743 196.084C278.148 195.793 277.805 195.469 277.138 195.604L276.378 196.941C275.886 195.392 275.751 194.61 276.378 193.099Z"/>
	<path fill="#5D5757" transform="scale(2 2)" d="M305.595 196.084C308.721 199.711 312.235 202.727 315.619 206.076C315.16 207.295 315.051 207.634 313.76 207.837C299.779 191.377 300.096 203.759 310.925 211.06C311.444 211.266 311.658 211.451 312.015 211.877L310.393 213.669C309.979 213.635 309.583 213.654 309.17 213.669C308.159 212.508 301.079 202.76 300.529 202.598L299.856 203.096C299.467 203.151 299.04 203.106 298.649 203.096C300.182 200.091 302.076 198.337 304.509 196.084L305.595 196.084Z"/>
	<defs>
		<linearGradient id="gradient_6" gradientUnits="userSpaceOnUse" x1="316.43079" y1="239.55081" x2="324.23581" y2="232.63728">
			<stop offset="0" stop-color="#6D6566"/>
			<stop offset="1" stop-color="#7A797A"/>
		</linearGradient>
	</defs>
	<path fill="url(#gradient_6)" transform="scale(2 2)" d="M322.854 224.935L322.854 225.623C321.456 227.483 313.45 240.863 321.339 238.573C323.92 236.466 324.658 232.632 327.05 230.13L328.793 230.13C325.516 233.457 325.955 233.891 324.987 238.226C322.921 247.481 306.724 236.394 318.681 231.489C319.862 229.141 321.251 227.016 322.854 224.935Z"/>
	<path fill="#252525" transform="scale(2 2)" d="M333.533 238.829C333.908 236.969 332.747 236.005 332.577 234.415C333.669 234.889 333.721 236.932 334.877 237.73C339.496 250.111 328.439 262.288 321.269 271.953L321.446 271.55C326.819 259.454 335.282 255.095 333.533 238.829Z"/>
	<defs>
		<linearGradient id="gradient_7" gradientUnits="userSpaceOnUse" x1="289.05655" y1="212.37608" x2="294.3251" y2="208.08171">
			<stop offset="0" stop-color="#5C5253"/>
			<stop offset="1" stop-color="#706B6A"/>
		</linearGradient>
	</defs>
	<path fill="url(#gradient_7)" transform="scale(2 2)" d="M298.649 203.096C299.04 203.106 299.467 203.151 299.856 203.096C292.9 210.49 299.134 210.07 296.424 213.168C290.841 219.549 282.228 207.109 292.022 204.68L292.022 206.076C290.973 206.885 290.812 207.562 290.69 208.802C291.458 210.877 292.692 211.704 294.83 211.877C296.127 209.607 294.928 206.966 298.649 203.096Z"/>
	<path fill="#ADA9A9" transform="scale(2 2)" d="M290.69 208.802C291.458 210.877 292.692 211.704 294.83 211.877C291.846 214.968 289.512 212.254 290.69 208.802Z"/>
	<path fill="#5D5757" transform="scale(2 2)" d="M310.925 216.577L312.015 216.577C310.737 218.591 309.867 220.341 309.17 222.625C312.99 237.879 289.607 222.799 303.575 219.18C303.289 220.092 303.091 220.918 303.014 221.872C302.854 222.786 302.823 223.407 303.014 224.318C303.794 225.269 304.39 225.972 305.595 226.371C306.226 225.861 306.896 225.403 307.557 224.935C307.357 222.983 309.997 218.543 310.925 216.577Z"/>
	<path fill="#ADA9A9" transform="scale(2 2)" d="M303.014 224.318C303.794 225.269 304.39 225.972 305.595 226.371C306.226 225.861 306.896 225.403 307.557 224.935C308.614 227.271 306.192 226.931 304.509 227.076C302.599 227.05 302.971 225.897 303.014 224.318Z"/>
	<path fill="#7A7676" transform="scale(2 2)" d="M297.27 180.558C310.408 171.005 322.685 193.062 305.595 187.082L304.863 186.494L304.909 186.325C305.801 186.539 306.645 186.618 307.557 186.534C309.627 186.536 311.895 187.905 313.354 185.797C314.622 179.733 302.637 178.815 297.27 181.265L297.27 180.558Z"/>
	<defs>
		<linearGradient id="gradient_8" gradientUnits="userSpaceOnUse" x1="282.5708" y1="174.86795" x2="288.4292" y2="174.38205">
			<stop offset="0" stop-color="#413F3A"/>
			<stop offset="1" stop-color="#60585F"/>
		</linearGradient>
	</defs>
	<path fill="url(#gradient_8)" transform="scale(2 2)" d="M277.099 165.235L277.546 164.955C278.979 165.307 289.769 178.434 291.316 180.558L291.316 181.265L290.69 181.265C286.037 175.93 281.393 170.924 277.099 165.235L277.099 165.235Z"/>
	<path fill="#252525" transform="scale(2 2)" d="M231.634 272.63L232.247 274.713C231.443 275.4 230.928 276.137 230.359 277.023C229.81 278.298 229.595 279.942 228.796 281.051C226.573 277.348 227.774 274.226 231.634 272.63Z"/>
	<path fill="#8E8787" transform="scale(2 2)" d="M299.856 181.265C302.312 179.97 301.373 183.413 301.652 184.675C301.755 185.143 306.791 186.284 307.557 186.534C306.645 186.618 305.801 186.539 304.909 186.325L304.863 186.494L305.595 187.082C303.623 186.635 301.642 186.103 299.856 185.13C299.45 185.107 299.147 185.046 298.764 184.908L298.649 184.047C299.419 183.563 299.8 183.222 299.856 182.253C299.76 181.881 299.81 181.642 299.856 181.265Z"/>
	<path fill="#ADA9A9" transform="scale(2 2)" d="M333.533 220C333.979 220.189 334.412 220.364 334.877 220.502L334.877 220.502C332.897 221.695 330.818 222.538 328.793 223.619C328.903 222.949 328.973 222.543 328.793 221.872C328.925 221.36 328.849 221.027 328.793 220.502C330.217 220.081 332.037 220.115 333.533 220Z"/>
	<path fill="#FEFEFE" transform="scale(2 2)" d="M328.793 221.872C328.973 222.543 328.903 222.949 328.793 223.619C327.305 226.054 324.033 227.798 322.093 230.13C322.983 228.281 323.86 226.212 325.232 224.661L324.942 224.318L324.942 224.318C326.195 223.412 327.396 222.549 328.793 221.872Z"/>
	<path fill="#ADA9A9" transform="scale(2 2)" d="M309.17 213.669C309.583 213.654 309.979 213.635 310.393 213.669C308.629 216.463 305.591 219.811 303.014 221.872C303.091 220.918 303.289 220.092 303.575 219.18C305.404 218.906 307.936 215.053 309.17 213.669Z"/>
	<path fill="#ADA9A9" transform="scale(2 2)" d="M291.316 180.558C291.982 179.385 295.168 172.029 296.097 179.327L295.587 179.327C293.651 174.72 293.261 181.577 292.998 182.898C292.415 182.381 291.87 181.812 291.316 181.265L291.316 180.558Z"/>
	<path fill="#ADA9A9" transform="scale(2 2)" d="M292.022 204.68C294.036 203.132 295.124 200.253 297.27 198.58C297.752 198.997 298.023 199.139 298.649 199.265C296.202 201.374 294.327 203.897 292.022 206.076L292.022 204.68Z"/>
	<path fill="#7A7676" transform="scale(2 2)" d="M315.619 206.076C318.341 204.646 322.484 203.706 319.709 207.837L319.579 206.95L318.681 206.554L318.848 206.024L318.68 205.833C316.971 206.467 315.913 207.388 314.785 208.802C314.365 208.552 314.087 208.195 313.76 207.837L313.76 207.837C315.051 207.634 315.16 207.295 315.619 206.076Z"/>
	<path fill="#5D5757" transform="scale(2 2)" d="M383.661 243.958C387.217 244.084 390.811 244.298 394.282 245.125L394.282 245.125C390.747 245.283 387.199 245.121 383.661 245.125L383.661 243.958Z"/>
	<path fill="#ADA9A9" transform="scale(2 2)" d="M295.587 179.327L296.097 179.327L296.379 180.4C296.807 180.593 296.767 180.631 297.27 180.558L297.27 181.265L297.147 181.794C297.997 182.393 299.112 181.74 299.856 181.265C299.81 181.642 299.76 181.881 299.856 182.253C298.72 182.528 297.606 182.71 296.434 182.659L296.097 182.898L296.097 182.898L295.279 182.362C294.786 181.268 295.213 180.387 295.587 179.327Z"/>
	<path fill="#7A7676" transform="scale(2 2)" d="M310.925 211.06C311.972 210.166 312.875 208.892 313.76 207.837C314.087 208.195 314.365 208.552 314.785 208.802C313.856 209.822 312.915 210.832 312.015 211.877C311.658 211.451 311.444 211.266 310.925 211.06Z"/>
</svg>
