<?xml version="1.0" encoding="utf-8" ?>
<svg xmlns="http://www.w3.org/2000/svg" xmlns:xlink="http://www.w3.org/1999/xlink" width="1024" height="1024">
	<path fill="#303030" transform="scale(2 2)" d="M249.855 68.0053C348.225 65.5349 408.689 174.755 351.476 254.842C331.589 282.68 303.599 298.116 270.491 303.602L270.493 412.501C270.512 422.929 272.452 432.741 260.997 438.15C255.266 440.005 249.586 438.993 245.24 434.514C239.758 428.866 241.245 419.44 241.243 412.27L241.247 303.602C236.563 302.52 231.796 302.026 227.123 300.813C178.823 288.272 143.668 244.24 139.484 194.858C133.822 128.026 184.022 73.407 249.855 68.0053ZM234.706 181.265C234.86 171.801 236.194 162.456 240.242 153.803C254.6 124.267 282.921 113.011 314.058 118.473C301.911 108.185 274.428 94.8768 257.545 96.0015C231.971 96.8231 208.859 118.994 209.899 145.08C210.675 164.529 219.838 172.452 234.706 181.265ZM272.998 197.579C272.89 201.577 273.302 205.566 273.09 209.558C271.657 236.527 250.19 259.127 223.728 263.382C220.111 263.964 216.445 264.107 212.828 264.627C222.877 269.692 231.704 274.079 242.988 275.953C252.729 277.317 276.225 277.503 282.941 272.368C290.921 266.266 301.049 247.489 302.052 237.821C303.936 219.642 291.536 200.673 272.998 197.579ZM184.673 132.933C168.552 161.296 164.023 182.025 172.687 213.107C175.071 221.662 186.017 228.872 193.348 232.972C203.934 238.892 218.043 239.467 228.87 233.746C239.643 228.191 245.151 219.644 247.033 208.053C212.295 208.044 183.803 181.962 183.881 146.575C183.886 144.307 185.484 133.963 184.673 132.933ZM297.362 142.373C278.697 144.098 267.773 154.323 261.946 171.251C266.136 171.208 270.438 170.987 274.613 171.375C300.67 173.794 322.391 194.921 327.052 220.448C328.107 226.334 328.474 232.93 328.123 238.913C338.765 219.06 344.841 205.316 344.004 181.393C343.482 166.453 340.49 162.82 327.538 152.319C319.367 145.695 307.887 141.4 297.362 142.373Z"/>
</svg>
