<?xml version="1.0" encoding="utf-8" ?>
<svg xmlns="http://www.w3.org/2000/svg" xmlns:xlink="http://www.w3.org/1999/xlink" width="1024" height="1024">
	<path transform="scale(2 2)" d="M303.949 109.251C315.048 107.716 330.233 112.959 334.342 124.261C339.756 139.155 320.099 156.74 335.606 153.893C349.399 151.361 362.889 151.063 376.813 152.933C391.279 154.875 387.291 155.381 387.412 169.42C387.494 178.874 388.625 203.408 391.822 211.667L391.971 212.045C402.379 202.719 411.704 194.209 426.941 201.013C450.585 211.573 450.552 249.318 425.974 258.401C416.093 262.053 407.354 258.113 398.393 254.044C400.39 275.259 405.681 292.344 411.577 312.253C406.874 315.06 398.473 318.18 393.088 320.261C358.125 333.776 311.839 342.336 273.758 340.499C259.13 357.515 238.848 369.905 219.191 380.292C205.021 387.78 167.068 405.902 151.359 402.871C138.214 400.334 129.316 380.844 122.395 370.19C118.861 364.751 112.966 356.851 110.755 351.031C106.223 339.101 117.822 329.353 129.122 332.12L129.47 332.208C142.093 336.332 154.99 331.981 159.231 318.57C167.138 293.563 134.347 277.551 118.147 295.523C114.971 299.047 113.262 303.315 108.845 305.648C94.7003 313.118 86.2385 299.313 80.3653 288.954C75.0941 279.656 65.1978 265.131 68.7964 254.375C74.1605 238.343 108.32 225.436 123.542 217.783C114.902 213.683 107.935 212.316 103.124 203.019C90.9898 179.568 122.999 150.461 148.549 159.213C159.264 162.884 166.759 172.889 166.288 184.412C165.696 198.886 158.484 201.172 175.679 194.747C190.287 189.288 206.385 184.93 222.067 184.745C231.35 198.288 242.96 222.796 243.011 238.426C246.49 239.179 249.871 240.262 253.378 240.928C249.289 217.066 243.006 199.989 230.407 178.682C243.879 169.749 272.649 162.244 288.794 161.595C284.722 152.564 275.557 151.875 273.884 138.827C271.63 121.244 288.632 111.123 303.949 109.251ZM325.501 324.97C346.94 321.803 368.595 316.931 388.685 308.613C391.331 307.518 393.954 306.212 396.647 305.247C391.977 291.131 389.187 276.651 386.89 261.995C380.439 220.826 409.775 252.491 423.835 245.785C437.133 239.443 434.513 218.538 422.603 211.946C407.647 203.667 397.464 227.33 386.369 221.31C376.609 216.014 381.103 166.414 383.24 157.605C367.067 157.5 357.274 155.69 340.083 159.936C335.09 161.169 328.277 164.172 323.94 159.812C314.771 150.593 332.277 136.492 323.049 126.895C318.139 121.788 310.673 120.796 303.949 121.325C295.842 122.481 283.987 127.852 285.41 137.843C286.692 146.839 299.99 150.819 298.594 160.813C297.924 165.604 295.187 167.765 290.438 168.374C274.399 170.43 255.281 173.506 242 183.19C249.818 195.427 268.33 233.313 266.168 243.6C262.123 262.843 235.687 240.768 224.692 247.394C210.772 255.782 216.495 279.946 232.299 283.536C244.926 286.404 262.965 257.437 271.708 271.441C275.189 277.017 278.329 316.764 278.25 328.248C293.965 328.305 309.951 327.236 325.501 324.97ZM247.84 292.94C251.804 304.665 256.144 323.085 264.591 332.208C270.138 323.388 262.313 292.238 261.18 279.138L261.153 278.803L257.85 281.892C240.786 297.696 222.081 300.405 209.158 278.027C205.229 271.223 204.854 266.429 205.235 258.767C195.542 276.291 216.105 304.768 235.577 298.986C240.051 297.657 243.582 294.643 247.84 292.94ZM164.832 209.594C144.531 207.55 160.028 184.491 151.791 174.693C144.879 166.47 131.243 167.409 123.542 173.946C130.259 174.604 139.731 170.263 145.965 177.569C154.809 187.935 143.249 199.888 149.835 208.534C153.268 213.04 161.463 213.737 165.684 209.937L165.541 209.703L164.832 209.594ZM156.68 392.102C154.285 387.591 150.989 383.241 148.194 378.946C140.851 367.66 132.158 354.901 125.961 343.084C122.925 341.776 121.801 344.069 120.827 346.629C122.373 350.648 125.114 354.267 127.45 357.869L135.452 370.302C140.21 377.642 146.693 393.193 156.68 392.102ZM111.968 192.408C111.616 207.098 130.643 203.463 135.194 215.688C135.901 214.425 135.232 212.466 134.965 211.145C133.274 202.76 124.41 204.02 118.695 200.239C115.691 198.251 113.972 195.292 111.968 192.408ZM140.661 277.008C157.981 280.691 169.185 291.289 171.725 308.862C175.805 293.228 156.385 272.703 140.661 277.008ZM209.769 197.533C210.973 200.65 213.366 203.665 214.977 206.64C219.216 214.467 224.19 225.619 225.858 234.297C227.907 234.114 230.039 234.265 232.097 234.297C230.082 221.69 222.477 207.433 215.646 196.699L209.769 197.533ZM85.1313 251.56C81.9844 253.876 80.0881 256.007 78.7325 259.744C79.9734 264.956 96.1933 308.045 106.282 292.94C97.9447 288.153 87.0375 266.997 85.2028 259.041C84.629 256.553 84.7979 254.066 85.1313 251.56Z"/>
	<path fill="#FF5D15" transform="scale(2 2)" d="M123.542 173.946C130.259 174.604 139.731 170.263 145.965 177.569C154.809 187.935 143.249 199.888 149.835 208.534C153.268 213.04 161.463 213.737 165.684 209.937L165.541 209.703L164.832 209.594C170.87 209.506 180.371 204.948 186.595 203.027C194.14 200.7 201.969 198.766 209.769 197.533C210.973 200.65 213.366 203.665 214.977 206.64C219.216 214.467 224.19 225.619 225.858 234.297C213.22 237.76 208.289 247.027 205.235 258.767C195.542 276.291 216.105 304.768 235.577 298.986C240.051 297.657 243.582 294.643 247.84 292.94C251.804 304.665 256.144 323.085 264.591 332.208C256.697 341.51 244.678 350.037 234.737 356.857C230.068 338.504 218.875 310.511 194.739 316.722C192.013 317.424 189.749 319.126 187.137 320.06C195.083 302.019 192.135 276.99 172.607 268.4C169.914 267.215 165.819 267.174 164.627 270.444C162.484 276.318 168.341 277.752 171.712 280.641C191.49 297.592 172.363 316.255 177.382 325.863C183.174 336.948 191.511 329.956 198.365 327.759C214.457 322.602 222.296 352.802 224.144 363.371C204.702 374.237 178.921 389.06 156.68 392.102C154.285 387.591 150.989 383.241 148.194 378.946C140.851 367.66 132.158 354.901 125.961 343.084C146.489 348.726 167.215 339.771 171.035 317.237C171.504 314.473 171.55 311.655 171.725 308.862C175.805 293.228 156.385 272.703 140.661 277.008C126.663 275.721 114.184 281.555 106.282 292.94C97.9447 288.153 87.0375 266.997 85.2028 259.041C84.629 256.553 84.7979 254.066 85.1313 251.56C89.3128 246.822 110.331 235.812 116.741 232.944C124.517 229.463 137.042 226.879 135.194 215.688C135.901 214.425 135.232 212.466 134.965 211.145C133.274 202.76 124.41 204.02 118.695 200.239C115.691 198.251 113.972 195.292 111.968 192.408C112.863 184.957 116.474 177.34 123.542 173.946Z"/>
</svg>
