<?xml version="1.0" encoding="utf-8" ?>
<svg xmlns="http://www.w3.org/2000/svg" xmlns:xlink="http://www.w3.org/1999/xlink" width="1024" height="1024">
	<path fill="#303030" transform="scale(2 2)" d="M320.121 94.0048L320.605 93.9856C359.926 92.7735 395.286 120.992 399.559 160.717C400.201 166.688 399.848 172.658 399.981 178.646C407.88 180.976 429.505 186.03 435.047 189.267C445.79 195.542 444.252 207.08 444.247 217.658L444.244 371.969C444.254 384.61 448.23 403.259 435.545 410.359C428.929 414.062 422.568 411.541 415.931 409.655L319.275 383.101C305.129 379.131 295.822 385.282 281.705 389.503L228.12 405.665C217.254 409.03 207.221 414.122 196.279 410.965C189.248 408.803 182.143 406.903 175.09 404.816L89.0684 379.333C70.413 373.84 66.9993 372.552 69.1172 350.506L83.9583 187.32C84.9729 175.378 86.2582 158.102 103.644 159.371C109.02 159.763 122.925 164.69 128.803 166.588L178.221 182.023C184.584 183.961 194.107 187.488 200.323 188.614L200.791 188.696C204.12 189.304 244.672 176.653 249.258 175.137C248.736 130.567 275.763 99.7105 320.121 94.0048ZM102.544 349.088C116.866 353.405 131.329 357.26 145.726 361.314L175.161 369.864C184.348 372.471 193.614 374.856 202.73 377.703L300.095 348.925C316.93 343.989 315.683 347.048 333.275 351.784L378.061 364.099C388.811 367.044 399.661 369.711 410.254 373.194L410.254 295.187L410.254 217.139C402.339 215.397 392.139 212.966 384.372 210.57C371.63 233.813 343.816 269.765 324.666 289.947C302.814 268.011 277.231 231.829 260.879 206.209C250.259 210.699 230.041 216.035 218.73 219.019L218.73 249.974C214.516 250.297 210.227 249.998 206 249.98L185.127 249.974C185.135 239.661 185.264 229.329 185.127 219.019C163.184 211.294 138.757 203.919 116.483 197.498C115.432 203.431 115.337 209.665 114.736 215.675L104.623 323.173C103.909 331.713 102.393 340.539 102.544 349.088ZM321.165 127.603C296.486 129.826 280.585 151.815 282.827 175.822C283.513 183.158 319.56 232.728 324.666 238.637L325.889 236.627C336.097 222.249 345.842 207.744 355.462 192.978C363.438 180.736 367.965 176.865 365.326 161.444C363.545 151.033 357.318 141.107 348.678 135.007C342.069 130.34 329.304 125.422 321.165 127.603Z"/>
	<path fill="#303030" transform="scale(2 2)" d="M185.127 281.354C196.327 281.202 207.532 281.549 218.73 281.354L218.719 316.097C218.719 318.468 219.179 338.375 218.73 338.88L185.127 338.88L185.127 281.354Z"/>
	<path fill="#303030" transform="scale(2 2)" d="M308.756 153.066C319.429 153.237 330.136 153.074 340.812 153.066L340.812 185.482C338.567 186.011 334.752 185.506 332.314 185.501L308.756 185.482L308.756 153.066Z"/>
</svg>
