<?xml version="1.0" encoding="utf-8" ?><svg xmlns="http://www.w3.org/2000/svg" xmlns:xlink="http://www.w3.org/1999/xlink" width="1844" height="1844" viewBox="0 0 1844 1844"><path transform="scale(3.60172 3.60172)" d="M187.717 129.071C186.805 117.095 185.81 105.217 185.303 93.2105C184.152 65.9161 187.252 71.184 211.163 70.1396C232.977 69.1867 304.253 62.126 314.934 55.7799C322.288 51.4102 329.732 39.2115 335.854 36.2313C348.627 36.0134 327.714 54.4552 326.796 63.2688C326.185 69.1376 326.74 77.1304 326.979 83.1353L327.627 104.263C327.868 113.538 328.181 123.082 326.75 132.265C348.826 131.11 347.483 134.197 346.752 152.624C346.181 167.034 345.423 181.578 343.521 195.878C362.196 195.82 357.807 203.796 357.759 219.265C357.7 238.204 357.667 257.435 355.154 276.241C370.073 277.316 367.61 285.118 366.9 296.562C366.048 310.302 364.954 326.195 362.096 339.61C374.615 340.211 373.337 348.634 373.833 358.246L374.819 374.661C376.745 403.787 379.879 432.711 374.351 461.605C384.239 464.331 398.824 465.909 409.491 468.129C411.111 468.466 424.256 469.635 421.595 473.051C418.604 474.131 412.583 472.602 409.396 472.299L390.803 470.686C319.298 464.638 253.258 462.479 181.939 467.69C157.591 468.641 133.336 472.216 108.991 473.544C106.183 473.697 91.2179 476.404 90.3693 472.414C89.2203 467.013 102.334 466.534 105.334 466.074C114.28 464.702 123.358 463.23 132.385 462.547C128.427 428.195 130.837 406.001 134.429 371.354C136.078 355.455 132.768 347.28 150.248 344.669C145.847 326.667 144.143 311.113 141.498 293.088C138.824 274.863 133.653 266.514 157.423 266.763C153.737 249.465 152.64 230.675 152.557 213.007C152.501 201.159 162.066 200.963 171.251 201C168.429 190.413 168.863 167.233 168.291 155.745C167.321 136.287 163.684 126.739 187.717 129.071ZM316.389 71.8159C316.289 70.029 316.336 68.2605 316.389 66.4727C278.352 75.303 232.937 80.1365 194.373 79.8825C193.482 97.4516 195.354 110.739 190.951 129.071C193.15 129.236 195.308 129.438 197.487 129.792C200.525 129.783 203.567 129.742 206.604 129.792C211.089 130.458 215.804 130.448 220.338 130.608L258.731 131.778C280.719 132.485 302.642 132.272 324.645 132.265C322.796 118.959 320.056 106.247 318.348 92.5053C317.558 85.6265 316.939 78.7178 316.389 71.8159ZM337.045 145.74L337.045 142.029C331.276 141.477 325.216 142.033 319.4 142.032L280.06 142.034C254.468 142.029 228.928 140.634 203.383 139.12L186.606 138.145C183.197 137.971 176.946 136.014 176.677 140.962C176.404 145.971 177.09 151.088 177.213 156.105C177.528 168.942 177.501 188.287 174.718 201C177.158 201.016 179.516 200.826 181.939 200.571L197.487 200.571C208.771 200.697 220.11 199.923 231.39 199.593L302.804 197.092C315.077 196.716 327.225 196.5 339.518 196.508C338.056 184.975 337.604 173.671 337.045 162.081C336.99 156.645 336.892 151.173 337.045 145.74ZM347.53 210.99L347.53 206.246C329.235 205.366 308.64 206.689 290.298 207.301L204.765 210.341C200.132 210.516 163.931 211.122 162.066 211.95C161 214.805 162.205 220.458 162.36 223.573C163.118 238.779 161.602 252.293 161.773 266.763L167.445 266.763L180.449 266.763C187.511 267.515 194.614 267.192 201.702 267.374C251.641 268.656 300.008 273.322 349.512 276.241C350.27 262.265 348.329 242.702 347.741 228.22C347.748 222.475 347.805 216.73 347.53 210.99ZM356.834 290.065L356.834 286.276C349.625 286.263 342.336 285.138 335.141 284.59L289.62 281.27C277.77 280.453 155.323 273.925 148.755 277.365C147.735 280.037 149.481 284.902 149.928 287.633C152.995 306.361 154.29 325.751 155.321 344.669C157.079 344.597 158.8 344.545 160.556 344.669C163.73 343.576 166.91 343.358 170.241 343.212C221.697 337.86 273.682 337.526 325.358 338.847L345.894 339.215C349.846 339.262 353.798 339.444 357.747 339.205C355.644 332.831 356.243 313.914 356.253 306.471C356.241 300.97 356.309 295.542 356.834 290.065ZM288.664 454.281C290.363 454.765 292.323 454.426 294.057 454.281C298.074 455.287 302.15 455.211 306.264 455.175C328.633 457.64 349.82 457.111 372.666 461.605C367.776 432.485 367.698 405.356 365.461 376.096C364.808 367.566 364.535 358.689 363.165 350.254C357.157 349.07 351.005 349.313 344.909 349.104L295.835 347.887C247.532 347.038 201.963 349.941 154.134 354.403C151.34 354.664 148.433 354.8 145.71 355.494C141.002 384.428 137.837 419.984 137.99 449.066C138.012 453.237 138.322 457.444 137.998 461.605C139.721 461.624 141.511 461.74 143.227 461.605C150.054 460.325 157.013 459.765 163.923 459.115C182.897 457.129 201.954 456.118 221.003 455.175C220.881 438.404 219.403 400.961 229.078 388.081C239.156 374.664 262.375 372.559 275.413 382.587C288.952 393.003 288.973 419.674 288.728 434.901C288.626 441.272 287.833 447.961 288.664 454.281ZM252.297 386.603C242.989 387.685 235.823 393.532 233.674 402.593C230.502 415.968 230.977 440.309 231.003 454.281C238.7 455.348 251.453 454.268 259.875 454.281C266.93 454.282 274.135 454.747 281.16 454.281C280.171 442.948 279.479 431.591 278.448 420.261C276.951 403.792 275.3 383.269 252.297 386.603Z"/><path fill="#FF5D15" transform="scale(3.60172 3.60172)" d="M316.389 71.8159C316.939 78.7178 317.558 85.6265 318.348 92.5053C314.01 92.4856 309.44 92.1644 305.126 92.5053C299.601 89.1477 281.766 89.7443 277.708 93.9504C270.363 94.5155 262.857 93.3355 255.524 93.9504C252.376 87.9959 234.609 90.7325 230.303 93.3275C228.455 94.4411 227.938 96.6379 227.012 98.4476C224.911 99.6055 222.588 100.251 220.456 101.337C209.493 106.923 209.815 119.648 206.604 129.792C203.567 129.742 200.525 129.783 197.487 129.792C199.407 122.65 200.987 85.9694 201.703 85.5583C202.372 85.1736 239.659 83.5229 243.096 83.2871C251.626 82.702 312.257 75.9195 316.389 71.8159Z"/><path transform="scale(3.60172 3.60172)" d="M227.012 98.4476C227.938 96.6379 228.455 94.4411 230.303 93.3275C234.609 90.7325 252.376 87.9959 255.524 93.9504C253.383 101.716 238.451 94.5368 236.53 100.973C235.436 104.636 238.196 113.431 234.224 115.524C224.583 120.606 226.981 102.485 227.012 98.4476Z"/><path transform="scale(3.60172 3.60172)" d="M277.708 93.9504C281.766 89.7443 299.601 89.1477 305.126 92.5053C307.158 100.7 291.59 98.2968 285.791 99.8576C284.66 103.946 287.052 113.072 282.976 115.547C272.805 121.723 275.407 99.2383 277.708 93.9504Z"/><path fill="#FEFEFE" transform="scale(3.60172 3.60172)" d="M305.126 92.5053C309.44 92.1644 314.01 92.4856 318.348 92.5053C320.056 106.247 322.796 118.959 324.645 132.265C302.642 132.272 280.719 132.485 258.731 131.778L220.338 130.608C215.804 130.448 211.089 130.458 206.604 129.792C209.815 119.648 209.493 106.923 220.456 101.337C222.588 100.251 224.911 99.6055 227.012 98.4476C226.981 102.485 224.583 120.606 234.224 115.524C238.196 113.431 235.436 104.636 236.53 100.973C238.451 94.5368 253.383 101.716 255.524 93.9504C262.857 93.3355 270.363 94.5155 277.708 93.9504C275.407 99.2383 272.805 121.723 282.976 115.547C287.052 113.072 284.66 103.946 285.791 99.8576C291.59 98.2968 307.158 100.7 305.126 92.5053Z"/><path fill="#FF5D15" transform="scale(3.60172 3.60172)" d="M183.283 145.74C188.679 145.324 194.42 145.722 199.845 145.732C217.932 145.762 234.584 146.692 252.551 147.306C279.208 148.217 310.835 147.935 337.045 145.74C336.892 151.173 336.99 156.645 337.045 162.081C325.649 161.592 316.542 160.177 304.332 160.265C306.11 151.156 283.22 153.313 278.594 159.25C271.028 159.248 263.037 159.906 255.524 159.25C256.482 151.743 231.158 153.556 227.012 160.265C201.41 166.187 196.904 175.161 197.487 200.571L181.939 200.571C181.5 192.994 182.965 185.48 183.216 177.921C183.57 167.204 182.99 156.456 183.283 145.74Z"/><path transform="scale(3.60172 3.60172)" d="M227.012 160.265C231.158 153.556 256.482 151.743 255.524 159.25C251.192 164.181 237.131 159.992 235.156 165.024C233.552 169.109 234.471 174.405 234.27 178.728C233.3 180.055 232.342 181.178 230.645 181.475C221.338 183.106 225.505 164.51 227.012 160.265Z"/><path transform="scale(3.60172 3.60172)" d="M278.594 159.25C283.22 153.313 306.11 151.156 304.332 160.265C301.265 162.611 291.64 161.939 286.48 163.722C285.601 168.582 286.167 172.858 285.791 177.649C284.034 180.825 279.361 182.277 277.508 178.217C275.564 173.958 276.947 163.682 278.594 159.25Z"/><path fill="#FEFEFE" transform="scale(3.60172 3.60172)" d="M255.524 159.25C263.037 159.906 271.028 159.248 278.594 159.25C276.947 163.682 275.564 173.958 277.508 178.217C279.361 182.277 284.034 180.825 285.791 177.649C286.167 172.858 285.601 168.582 286.48 163.722C291.64 161.939 301.265 162.611 304.332 160.265C316.542 160.177 325.649 161.592 337.045 162.081C337.604 173.671 338.056 184.975 339.518 196.508C327.225 196.5 315.077 196.716 302.804 197.092L231.39 199.593C220.11 199.923 208.771 200.697 197.487 200.571C196.904 175.161 201.41 166.187 227.012 160.265C225.505 164.51 221.338 183.106 230.645 181.475C232.342 181.178 233.3 180.055 234.27 178.728C234.471 174.405 233.552 169.109 235.156 165.024C237.131 159.992 251.192 164.181 255.524 159.25Z"/><path fill="#FF5D15" transform="scale(3.60172 3.60172)" d="M167.445 266.763C167.241 263.463 167.64 260.093 167.819 256.793L168.699 239.439C168.987 233.153 168.496 224.984 169.616 219.006C172.303 217.5 224.888 215.809 232.291 215.615L290.591 213.614C310.016 213.058 327.956 212.737 347.53 210.99C347.805 216.73 347.748 222.475 347.741 228.22C344.083 228.357 331.801 226.654 329.796 227.468C324.368 222.491 309.505 219.256 304.332 226.458C296.282 226.868 287.922 226.584 279.859 226.458C273.476 220.812 258.452 220.44 252.297 227.468C244.304 228.461 235.569 227.287 227.913 229.515C226.727 221.42 207.494 219.473 201.499 230.658C183.627 238.247 180.116 247.863 180.449 266.763L167.445 266.763Z"/><path transform="scale(3.60172 3.60172)" d="M252.297 227.468C258.452 220.44 273.476 220.812 279.859 226.458C277.193 234.068 263.864 225.703 260.491 233.345C258.504 237.847 262.48 246.778 258.09 248.434C247.796 252.318 250.034 232.475 252.297 227.468Z"/><path transform="scale(3.60172 3.60172)" d="M304.332 226.458C309.505 219.256 324.368 222.491 329.796 227.468C327.628 232.077 316.644 229.004 311.82 232.183C308.786 237.573 311.732 244.035 309.567 247.064C303.465 255.604 295.44 237.87 304.332 226.458Z"/><path transform="scale(3.60172 3.60172)" d="M201.499 230.658C207.494 219.473 226.727 221.42 227.913 229.515C223.313 232.504 211.941 227.65 210.47 235.07C209.77 238.597 211.985 246.488 209.514 248.301C200.123 255.192 200.593 235.372 201.499 230.658Z"/><path fill="#FF5D15" transform="scale(3.60172 3.60172)" d="M155.321 283.305C169.562 283.743 183.856 282.76 198.112 282.833C225.21 282.973 256.192 284.321 283.109 286.023L316.172 288.138C329.715 289.014 343.238 290.252 356.834 290.065C356.309 295.542 356.241 300.97 356.253 306.471C345.167 306.056 332.006 302.237 321.238 302.781C313.315 296.216 304.745 295.202 295.604 300.408C287.733 301.162 279.722 299.96 271.833 299.949C265.736 295.728 252.488 293.269 246.975 299.949C244.217 299.188 216.716 297.694 214.204 298.446C207.666 298.164 202.686 296.729 196.505 299.949C177.277 297.269 165.888 318.915 169.008 336.112C169.432 338.448 170.17 340.832 170.241 343.212C166.91 343.358 163.73 343.576 160.556 344.669C159.792 322.808 158.924 304.781 155.321 283.305Z"/><path transform="scale(3.60172 3.60172)" d="M246.975 299.949C252.488 293.269 265.736 295.728 271.833 299.949C272.325 305.985 258.288 300.763 253.8 307.49C253.326 313.48 258.055 321.454 250.787 323.349C242.188 320.669 243.337 306.053 246.975 299.949Z"/><path transform="scale(3.60172 3.60172)" d="M295.604 300.408C304.745 295.202 313.315 296.216 321.238 302.781C319.486 306.173 309.561 304.238 306.095 305.435C296.415 308.779 309.322 321.024 298.707 324.424C290.056 321.043 292.311 306.946 295.604 300.408Z"/><path transform="scale(3.60172 3.60172)" d="M196.505 299.949C202.686 296.729 207.666 298.164 214.204 298.446C217.501 300.033 220.398 303.53 215.171 304.395C210.879 305.106 204.634 304.065 201.66 308.107C198.662 312.18 203.958 323.532 197.627 324.881C189.252 326.666 189.05 305.371 196.505 299.949Z"/><path fill="#FF5D15" transform="scale(3.60172 3.60172)" d="M356.834 356.095C347.654 357.627 338.644 358.105 329.377 358.773L272.51 362.831C261.672 363.643 250.825 364.806 240.015 365.909C170.465 373.005 159.337 382.344 163.327 449.446C163.435 451.264 163.382 457.763 163.923 459.115C157.013 459.765 150.054 460.325 143.227 461.605C142.652 447.45 148.38 369.787 152.785 361.786C171.985 359.763 190.526 357.244 209.972 355.994C249.019 353.484 288.212 353.968 327.283 355.451C337.138 355.825 346.969 355.364 356.834 356.095Z"/><path fill="#FF5D15" transform="scale(3.60172 3.60172)" d="M294.057 454.281C293.314 448.373 294.069 441.975 294.069 436.004C294.07 418.806 293.38 405.881 288.97 389.2C300.035 399.874 307.569 441.335 306.264 455.175C302.15 455.211 298.074 455.287 294.057 454.281Z"/></svg>