<?xml version="1.0" encoding="utf-8" ?>
<svg xmlns="http://www.w3.org/2000/svg" xmlns:xlink="http://www.w3.org/1999/xlink" width="3303" height="3303">
	<path transform="scale(6.45128 6.45128)" d="M98.8225 103.042C99.8903 102.976 100.938 103.012 102.006 103.046C140.388 104.261 178.997 107.507 216.989 113.241C235.98 116.107 243.582 121.211 244.68 141.525C245.47 156.155 241.602 154.638 229.715 154.408C198.742 153.807 167.619 151.527 136.805 148.517C150.723 161.922 207.904 209.435 202.947 219.642C196.76 220.52 188.287 210.394 184.294 206.614C164.571 187.943 144.794 170.785 124.794 152.745C124.676 160.607 125.628 168.636 125.845 176.518C126.115 186.303 126.265 236.414 121.903 242.156C118.938 246.059 113.877 244.263 109.864 243.685C86.0097 240.253 84.223 237.019 81.5871 212.561L79.6808 194.33C77.917 176.401 77.3719 158.32 77.4667 140.314C77.5505 124.38 77.0025 104.937 98.8225 103.042ZM233.735 137.912C232.39 126.385 225.202 125.26 215.319 123.905L201.865 122.07C175.624 118.49 136.402 113.179 109.981 114.371C110.889 114.981 195.633 129.024 204.326 130.915C210.933 132.352 217.507 133.998 223.906 136.195C227.45 137.412 233.335 141.689 233.735 137.912ZM101.429 231.659C105.424 232.514 109.424 233.15 113.482 233.609C113.828 224.752 114.811 215.919 115.202 207.056C116.077 187.203 115.772 160.878 113.482 141.68C113.247 142.096 107.003 209.672 104.614 220.866C103.822 224.572 102.248 228.023 101.429 231.659Z"/>
	<path fill="#FE5D15" transform="scale(6.45128 6.45128)" d="M101.429 231.659C99.0914 231.536 96.7136 230.589 95.3216 228.627C90.3207 221.578 88.1928 157.813 88.2009 139.774C88.2086 122.585 87.7149 109.476 109.981 114.371C110.889 114.981 195.633 129.024 204.326 130.915C210.933 132.352 217.507 133.998 223.906 136.195C227.45 137.412 233.335 141.689 233.735 137.912C233.583 139.787 233.522 141.535 233.735 143.41C197.714 143.447 161.454 140.073 125.647 136.461C119.641 135.855 115.464 135.051 113.482 141.68C113.247 142.096 107.003 209.672 104.614 220.866C103.822 224.572 102.248 228.023 101.429 231.659Z"/>
	<path transform="scale(6.45128 6.45128)" d="M392.552 267.052C400.728 265.917 416.385 268.271 422.368 273.692C430.059 280.662 429.804 290.686 430.778 300.264C432.725 319.403 437.045 373.22 432.124 391.584C427.625 408.377 414.363 409.532 400.332 408.366L301.971 399.057C292.944 398.148 283.383 398.403 276.295 391.775C270.108 385.989 261.001 359.562 271.947 357.306C284.881 354.64 302.978 357.749 316.693 357.735C334.704 360.991 353.665 360.397 372.925 364.233C364.897 352.156 341.123 330.096 330.487 319.221C326.599 315.245 300.678 290.867 311.383 291.373C321.324 291.842 365.334 339.905 376.334 351.529C380.155 355.567 383.522 360.117 387.458 364.02L387.677 364.233C387.776 361.169 387.539 358.074 387.431 355.008L386.676 335.067C386.352 324.042 385.315 277.887 388.922 269.68C389.562 268.225 391.144 267.536 392.552 267.052ZM284.525 384.703C307.191 376.378 340.944 375.552 364.813 375.797C368.862 375.838 382.767 377.757 385.269 376.884C355.409 370.114 308.695 367.422 278.828 367.502C278.72 373.288 279.716 380.833 284.525 384.703ZM422.701 383.053C423.064 355.548 423.359 331.947 420.944 304.303C419.14 283.655 422.258 279.1 399.444 278.195C409.804 289.709 417.537 314.918 419.503 330.231C420.363 336.925 420.549 380.67 422.701 383.053Z"/>
	<path fill="#FE5D15" transform="scale(6.45128 6.45128)" d="M385.269 376.884C389.435 377.088 397.06 379.515 398.58 373.607C399.835 368.73 397.436 341.467 397.272 332.842C397.14 325.939 396.871 281.028 398.846 278.18L399.444 278.195C409.804 289.709 417.537 314.918 419.503 330.231C420.363 336.925 420.549 380.67 422.701 383.053C420.103 402.015 407.17 397.889 393.024 396.766L314.341 389.439C307.663 388.758 289.85 388.443 284.525 384.703C307.191 376.378 340.944 375.552 364.813 375.797C368.862 375.838 382.767 377.757 385.269 376.884Z"/>
	<path transform="scale(6.45128 6.45128)" d="M406.946 103.042C414.247 101.886 421.732 104.143 426.979 109.459C435.912 118.509 434.262 133.551 434.047 145.325C433.63 168.28 433.042 188.238 430.644 211.439C429.703 220.545 430.265 229.916 423.179 236.754C415.554 244.111 402.712 244.433 392.552 244.249C385.653 240.706 387.468 226.413 387.232 219.155C386.482 196.055 386.849 173.212 387.677 150.135C384.297 153.788 380.3 156.788 376.637 160.141L332.721 201.848C327.47 206.903 322.333 212.045 316.693 216.676C315.547 217.443 308.884 222.134 309.128 217.823C309.779 206.345 361.915 158.534 374.02 148.517C343.548 149.432 313.309 154.106 282.017 154.423C268.561 154.559 266.624 154.715 267.844 140.402C269.635 119.389 278.221 115.417 297.889 113.059L365.501 106.039C379.293 104.733 393.092 103.444 406.946 103.042ZM401.764 232.794C408.812 232.078 417.414 232.719 419.01 223.981C423.348 200.242 424.619 163.166 424.29 139.536C423.85 107.865 417.007 112.079 390.915 114.059C362.684 116.201 334.487 119.318 306.395 122.81C293.896 124.363 280.378 122.077 278.828 138.741L278.945 139.4C280.268 139.82 290.233 135.306 292.408 134.586C316.011 126.777 386.639 120.649 407.463 128.116C422.377 133.463 419.167 171.02 417.858 183.16C415.974 200.644 410.866 217.66 401.764 232.794Z"/>
	<path fill="#FE5D15" transform="scale(6.45128 6.45128)" d="M278.828 138.741L278.945 139.4C280.268 139.82 290.233 135.306 292.408 134.586C316.011 126.777 386.639 120.649 407.463 128.116C422.377 133.463 419.167 171.02 417.858 183.16C415.974 200.644 410.866 217.66 401.764 232.794L399.444 233.609C398.196 228.646 398.428 223.299 398.137 218.219C397.174 201.377 397.443 181.848 397.781 164.853C397.928 157.473 398.806 150.034 398.473 142.644C398.035 132.944 387.551 136.455 380.327 137.026L354.379 139.3C330.663 141.508 302.647 143.945 278.828 143.695C278.772 142.035 278.755 140.399 278.828 138.741Z"/>
	<path transform="scale(6.45128 6.45128)" d="M115.26 267.052C124.877 263.08 124.333 279.799 124.677 284.893C126.429 310.867 125.859 336.89 124.208 362.855C135.024 352.08 190.221 292.514 201.662 291.214C202.558 291.113 203.391 291.362 203.415 292.363C203.578 298.924 177.635 323.628 172.924 328.416L137.964 364.233C155.373 362.912 171.901 358.67 189.979 358.646C198.509 356.327 240.316 355.713 243.158 358.601C249.655 365.206 241.271 394.073 224.802 397.531C218.649 398.823 211.005 398.913 204.64 399.489L124.604 407.128C108.752 408.772 87.1212 414.225 80.3158 393.488C74.5883 376.034 79.8652 319.073 82.2043 298.714C84.8785 275.437 88.3298 266.555 115.26 267.052ZM227.404 384.703C231.968 380.81 232.342 372.941 233.735 367.502C224.241 367.137 214.56 367.924 205.075 368.444C176.227 370.026 151.406 373.039 123.107 377.888C112.373 379.727 113.184 370.849 113.611 362.939L114.348 348.534C115.237 327.092 116.958 298.696 113.482 277.429C109.51 277.979 105.297 278.037 101.429 279.127C102.56 283.274 104.338 287.234 105.807 291.27C112.163 308.729 112.562 322.367 112.542 340.905C112.535 346.897 110.14 376.751 114.899 379.35C119.22 381.71 156.596 378.25 164.533 378.017C179.584 377.574 213.492 378.152 227.404 384.703Z"/>
	<path fill="#FE5D15" transform="scale(6.45128 6.45128)" d="M227.404 384.703C219.55 388.976 188.46 390.057 178.007 391.088L131.875 395.698C122.375 396.736 112.709 398.349 103.172 398.727C89.2208 399.281 89.6736 386.731 89.1377 377.277C87.6273 350.636 89.6806 323.962 92.9686 297.533C93.8906 290.122 92.5131 281.293 101.429 279.127C102.56 283.274 104.338 287.234 105.807 291.27C112.163 308.729 112.562 322.367 112.542 340.905C112.535 346.897 110.14 376.751 114.899 379.35C119.22 381.71 156.596 378.25 164.533 378.017C179.584 377.574 213.492 378.152 227.404 384.703Z"/>
</svg>
