<?xml version="1.0" encoding="utf-8" ?>
<svg xmlns="http://www.w3.org/2000/svg" xmlns:xlink="http://www.w3.org/1999/xlink" width="1024" height="1024">
	<path transform="scale(2 2)" d="M392.391 323.482C401.441 322.434 438.64 323.392 443.154 325.357C444.921 327.734 443.997 388.843 444.119 395.755C444.21 400.913 445.98 419.234 443.419 422.912C438.267 424.341 404.685 424.232 398.062 424.251C394.821 424.26 391.394 424.649 388.188 424.249C378.281 425.403 368.196 424.338 358.259 424.14C352.164 424.019 338.181 426.913 337.226 419.877C334.455 399.46 335.369 371.422 335.415 350.76C335.431 343.66 334.588 334.005 335.87 327.222C337.927 325.251 386.799 323.511 392.391 323.482ZM353.435 403.676C353.121 402.217 353.082 400.905 353.435 399.45C353.587 388.579 353.195 377.931 352.194 367.105C362.283 376.24 366.478 379.659 378.759 386.901C387.436 380.44 395.216 373.421 402.684 365.617C409.88 358.096 408.506 357.241 413.752 366.034C417.36 372.081 421.648 378.591 426.056 384.061C428.79 384.639 431.254 385.48 434.066 385.771C434.324 378.038 434.421 370.291 434.778 362.563L436.514 331.235C414.667 330.746 392.64 334.622 369.462 333.615C360.209 333.213 350.978 332.348 341.721 332.135C341.787 335.213 342.18 338.289 342.433 341.358L343.482 355.286C344.691 371.776 347.562 398.605 346.51 414.815C348.929 415.075 351.021 415.226 353.435 414.815C353.366 411.107 353.433 407.386 353.435 403.676ZM418.828 383.036C415.314 378.582 412.462 373.698 409.222 369.061C405.715 371.338 386.281 388.012 382.839 391.545C403.75 394.386 400.218 390.163 418.828 383.036Z"/>
	<path fill="#FF5D15" transform="scale(2 2)" d="M361.833 343.047Q362.126 342.989 362.421 342.95Q362.717 342.911 363.015 342.892Q363.313 342.873 363.611 342.873Q363.91 342.874 364.207 342.894Q364.505 342.914 364.801 342.954Q365.097 342.993 365.389 343.053Q365.682 343.112 365.969 343.19Q366.257 343.269 366.54 343.366Q366.822 343.463 367.097 343.578Q367.372 343.694 367.639 343.828Q367.906 343.961 368.163 344.112Q368.421 344.263 368.668 344.43Q368.914 344.597 369.15 344.781Q369.385 344.964 369.608 345.163Q369.831 345.361 370.04 345.574Q370.249 345.787 370.444 346.013Q370.639 346.239 370.818 346.478Q370.997 346.716 371.161 346.966Q371.324 347.215 371.47 347.475Q371.617 347.735 371.746 348.005Q371.874 348.274 371.985 348.551Q372.096 348.828 372.189 349.111Q372.281 349.395 372.354 349.684Q372.428 349.973 372.482 350.267Q372.536 350.56 372.571 350.856Q372.606 351.153 372.621 351.451Q372.636 351.749 372.631 352.047Q372.627 352.345 372.603 352.643Q372.578 352.94 372.535 353.235Q372.491 353.53 372.428 353.822Q372.365 354.114 372.282 354.4Q372.2 354.687 372.099 354.968Q371.998 355.249 371.879 355.522Q371.759 355.796 371.622 356.061Q371.485 356.326 371.331 356.581Q371.176 356.837 371.006 357.082Q370.835 357.326 370.648 357.559Q370.461 357.792 370.26 358.012Q370.058 358.232 369.843 358.438Q369.627 358.645 369.398 358.836Q369.169 359.028 368.929 359.204Q368.688 359.38 368.436 359.54Q368.184 359.7 367.922 359.843Q367.659 359.985 367.389 360.111Q367.118 360.236 366.839 360.343Q366.561 360.45 366.276 360.538Q365.991 360.627 365.7 360.696Q365.41 360.766 365.116 360.816Q364.899 360.853 364.681 360.879Q364.463 360.906 364.243 360.921Q364.024 360.937 363.804 360.942Q363.584 360.947 363.365 360.942Q363.145 360.936 362.925 360.92Q362.706 360.903 362.488 360.876Q362.27 360.849 362.053 360.812Q361.836 360.774 361.622 360.726Q361.407 360.678 361.195 360.62Q360.983 360.561 360.774 360.493Q360.566 360.424 360.36 360.345Q360.155 360.267 359.954 360.178Q359.753 360.089 359.556 359.991Q359.359 359.893 359.167 359.785Q358.976 359.677 358.79 359.56Q358.603 359.443 358.423 359.317Q358.243 359.191 358.069 359.057Q357.895 358.922 357.728 358.779Q357.561 358.637 357.401 358.486Q357.241 358.335 357.088 358.177Q356.935 358.018 356.791 357.853Q356.646 357.687 356.51 357.515Q356.373 357.342 356.245 357.163Q356.118 356.984 355.999 356.799Q355.88 356.615 355.77 356.424Q355.66 356.234 355.559 356.038Q355.459 355.842 355.368 355.642Q355.277 355.442 355.196 355.238Q355.115 355.033 355.044 354.825Q354.973 354.617 354.913 354.406Q354.852 354.194 354.801 353.98Q354.751 353.766 354.711 353.55Q354.671 353.334 354.642 353.116Q354.612 352.898 354.594 352.679Q354.575 352.46 354.567 352.24Q354.559 352.02 354.561 351.801Q354.564 351.581 354.577 351.361Q354.591 351.142 354.615 350.923Q354.639 350.705 354.673 350.488Q354.708 350.271 354.753 350.055Q354.798 349.84 354.854 349.627Q354.909 349.415 354.975 349.205Q355.041 348.995 355.117 348.789Q355.193 348.582 355.278 348.38Q355.364 348.178 355.46 347.98Q355.556 347.782 355.661 347.588Q355.766 347.395 355.88 347.208Q355.995 347.02 356.118 346.838Q356.241 346.656 356.374 346.48Q356.506 346.304 356.646 346.135Q356.787 345.966 356.935 345.804Q357.084 345.642 357.24 345.487Q357.396 345.333 357.56 345.186Q357.723 345.039 357.894 344.9Q358.064 344.761 358.242 344.631Q358.419 344.501 358.602 344.379Q358.785 344.258 358.974 344.145Q359.163 344.033 359.357 343.93Q359.551 343.826 359.75 343.733Q359.949 343.639 360.152 343.555Q360.356 343.472 360.563 343.398Q360.77 343.324 360.98 343.26Q361.191 343.197 361.404 343.143Q361.617 343.09 361.833 343.047Z"/>
	<path fill="#FF5D15" transform="scale(2 2)" d="M378.759 386.901C387.436 380.44 395.216 373.421 402.684 365.617C409.88 358.096 408.506 357.241 413.752 366.034C417.36 372.081 421.648 378.591 426.056 384.061C428.79 384.639 431.254 385.48 434.066 385.771L434.066 413.192C428.953 413.702 423.761 413.649 418.625 413.699L373.703 414.576C366.988 414.796 360.147 415.192 353.435 414.815C353.366 411.107 353.433 407.386 353.435 403.676C353.121 402.217 353.082 400.905 353.435 399.45C353.587 388.579 353.195 377.931 352.194 367.105C362.283 376.24 366.478 379.659 378.759 386.901ZM418.828 383.036C415.314 378.582 412.462 373.698 409.222 369.061C405.715 371.338 386.281 388.012 382.839 391.545C403.75 394.386 400.218 390.163 418.828 383.036Z"/>
	<path transform="scale(2 2)" d="M378.759 386.901C387.436 380.44 395.216 373.421 402.684 365.617C409.88 358.096 408.506 357.241 413.752 366.034C417.36 372.081 421.648 378.591 426.056 384.061C426.419 384.743 432.512 392.827 427.041 392.296C424.426 392.042 420.31 385.25 418.828 383.036C415.314 378.582 412.462 373.698 409.222 369.061C405.715 371.338 386.281 388.012 382.839 391.545C373.667 394.432 365.616 404.36 353.435 403.676C353.121 402.217 353.082 400.905 353.435 399.45C353.587 388.579 353.195 377.931 352.194 367.105C362.283 376.24 366.478 379.659 378.759 386.901Z"/>
	<path fill="#FF5D15" transform="scale(2 2)" d="M352.194 367.105C362.283 376.24 366.478 379.659 378.759 386.901C370.412 392.762 362.455 395.443 353.435 399.45C353.587 388.579 353.195 377.931 352.194 367.105Z"/>
	<path transform="scale(2 2)" d="M390.374 204.75C396.004 204.645 440.911 204.733 443.202 207.576C444.897 209.679 444.106 224.274 444.106 227.298L444.089 284.119C444.087 286.487 444.803 302.503 442.976 303.817C440.448 305.636 394.561 306.351 390.374 306.012C385.377 306.513 340.598 306.214 338.444 304.509C335.34 302.05 336.132 284.68 335.977 280.814C335.021 257.052 334.615 232.106 336.243 208.374C349.691 205.453 375.795 205.788 390.374 204.75ZM353.435 296.199C353.712 293.852 353.386 291.284 353.436 288.904C353.727 275.155 352.311 262.603 352.194 249.294C358.473 253.058 371.31 263.387 377.558 268.447C384.16 264.769 394.289 256.072 399.377 250.334C402.671 246.619 406.227 238.303 410.764 243.451C416.74 250.233 427.142 265.156 431.479 272.668L431.479 274.452L431.641 274.94C432.648 275.271 433.257 275.027 434.066 274.452L434.066 272.668C435.11 261.588 435.022 250.352 435.476 239.228L436.112 225.211C436.323 221.337 436.663 217.383 436.514 213.505C430.792 213.173 425.204 214 419.499 214.228C399.223 215.039 378.817 215.03 358.542 214.211C352.981 213.986 347.271 213.174 341.721 213.505C342.032 219.93 342.99 226.348 343.494 232.766C345.072 252.877 346.839 276.136 346.51 296.199C348.817 296.347 351.126 296.256 353.435 296.199ZM384.529 271.191C396.249 276.879 408.555 268.963 418.828 263.372C415.382 258.925 411.737 253.378 408.121 249.294C405.257 251.795 403.065 254.974 400.282 257.566C395.205 262.294 389.501 266.379 384.529 271.191Z"/>
	<path fill="#FF5D15" transform="scale(2 2)" d="M363.787 223.604Q364.077 223.591 364.366 223.597Q364.656 223.604 364.945 223.629Q365.234 223.654 365.52 223.698Q365.807 223.743 366.09 223.806Q366.373 223.869 366.651 223.95Q366.929 224.032 367.201 224.131Q367.473 224.231 367.738 224.348Q368.003 224.466 368.26 224.6Q368.517 224.735 368.764 224.886Q369.012 225.037 369.249 225.205Q369.485 225.372 369.711 225.554Q369.936 225.736 370.149 225.933Q370.362 226.13 370.561 226.34Q370.76 226.551 370.946 226.774Q371.131 226.997 371.301 227.232Q371.471 227.467 371.625 227.712Q371.779 227.958 371.917 228.213Q372.055 228.468 372.175 228.731Q372.296 228.995 372.399 229.266Q372.502 229.537 372.586 229.814Q372.671 230.091 372.738 230.374Q372.804 230.656 372.852 230.942Q372.9 231.228 372.928 231.516Q372.957 231.805 372.967 232.094Q372.977 232.384 372.967 232.674Q372.958 232.964 372.93 233.252Q372.901 233.541 372.854 233.827Q372.806 234.113 372.74 234.395Q372.674 234.677 372.59 234.955Q372.505 235.232 372.402 235.503Q372.3 235.774 372.18 236.038Q372.059 236.302 371.922 236.557Q371.785 236.812 371.631 237.058Q371.477 237.304 371.307 237.539Q371.138 237.774 370.953 237.997Q370.768 238.22 370.569 238.431Q370.37 238.642 370.157 238.839Q369.945 239.036 369.72 239.218Q369.495 239.401 369.258 239.569Q369.022 239.736 368.775 239.888Q368.528 240.039 368.271 240.174Q368.014 240.309 367.75 240.427Q367.485 240.545 367.213 240.645Q366.941 240.745 366.663 240.827Q366.385 240.909 366.102 240.972Q365.819 241.035 365.533 241.08Q365.246 241.125 364.958 241.151Q364.669 241.176 364.379 241.183Q364.165 241.188 363.95 241.182Q363.736 241.177 363.522 241.161Q363.308 241.145 363.095 241.119Q362.882 241.092 362.671 241.056Q362.46 241.019 362.251 240.972Q362.041 240.925 361.835 240.868Q361.628 240.811 361.424 240.744Q361.221 240.677 361.02 240.6Q360.82 240.523 360.624 240.436Q360.428 240.349 360.236 240.253Q360.044 240.157 359.858 240.052Q359.671 239.947 359.489 239.832Q359.308 239.718 359.132 239.595Q358.956 239.472 358.787 239.341Q358.617 239.209 358.455 239.07Q358.292 238.93 358.136 238.783Q357.98 238.636 357.831 238.481Q357.683 238.326 357.542 238.165Q357.401 238.003 357.269 237.834Q357.136 237.666 357.011 237.491Q356.887 237.317 356.771 237.136Q356.656 236.956 356.549 236.77Q356.442 236.584 356.344 236.393Q356.247 236.202 356.159 236.006Q356.071 235.811 355.992 235.611Q355.913 235.412 355.845 235.208Q355.776 235.005 355.717 234.799Q355.659 234.593 355.61 234.384Q355.561 234.175 355.523 233.964Q355.485 233.753 355.457 233.54Q355.428 233.328 355.411 233.114Q355.393 232.9 355.386 232.686Q355.379 232.472 355.382 232.257Q355.385 232.043 355.399 231.829Q355.413 231.615 355.437 231.402Q355.461 231.189 355.495 230.977Q355.53 230.765 355.575 230.556Q355.619 230.346 355.674 230.139Q355.729 229.931 355.794 229.727Q355.859 229.523 355.934 229.322Q356.009 229.121 356.093 228.924Q356.178 228.726 356.272 228.534Q356.366 228.341 356.469 228.153Q356.572 227.965 356.685 227.783Q356.797 227.6 356.918 227.423Q357.039 227.246 357.169 227.075Q357.299 226.904 357.436 226.74Q357.574 226.576 357.72 226.418Q357.865 226.261 358.018 226.111Q358.172 225.961 358.332 225.818Q358.492 225.676 358.659 225.541Q358.826 225.406 358.999 225.28Q359.173 225.154 359.352 225.036Q359.531 224.919 359.716 224.81Q359.901 224.701 360.091 224.602Q360.281 224.502 360.475 224.412Q360.67 224.322 360.869 224.241Q361.067 224.16 361.27 224.09Q361.472 224.019 361.678 223.958Q361.883 223.897 362.092 223.846Q362.3 223.795 362.511 223.755Q362.721 223.714 362.933 223.684Q363.146 223.653 363.359 223.633Q363.573 223.613 363.787 223.604Z"/>
	<path fill="#FF5D15" transform="scale(2 2)" d="M377.558 268.447C384.16 264.769 394.289 256.072 399.377 250.334C402.671 246.619 406.227 238.303 410.764 243.451C416.74 250.233 427.142 265.156 431.479 272.668L431.479 274.452L431.641 274.94C432.648 275.271 433.257 275.027 434.066 274.452C434.056 281.46 433.766 288.578 434.066 295.575C426.3 294.854 418.354 295.484 410.556 295.545L381.429 295.804C372.099 295.965 362.767 296.282 353.435 296.199C353.712 293.852 353.386 291.284 353.436 288.904C353.727 275.155 352.311 262.603 352.194 249.294C358.473 253.058 371.31 263.387 377.558 268.447ZM384.529 271.191C396.249 276.879 408.555 268.963 418.828 263.372C415.382 258.925 411.737 253.378 408.121 249.294C405.257 251.795 403.065 254.974 400.282 257.566C395.205 262.294 389.501 266.379 384.529 271.191Z"/>
	<path transform="scale(2 2)" d="M377.558 268.447C384.16 264.769 394.289 256.072 399.377 250.334C402.671 246.619 406.227 238.303 410.764 243.451C416.74 250.233 427.142 265.156 431.479 272.668L431.479 274.452C427.814 278.06 421.642 266.693 418.828 263.372C415.382 258.925 411.737 253.378 408.121 249.294C405.257 251.795 403.065 254.974 400.282 257.566C395.205 262.294 389.501 266.379 384.529 271.191C378.815 273.837 361.324 286.891 357.066 283.583C353.671 278.188 372.356 273.451 377.558 268.447Z"/>
	<path transform="scale(2 2)" d="M268.44 86.7497C274.531 86.7787 305.376 86.2265 308.818 88.443C311.481 90.1578 310.791 129.873 310.791 134.55L310.79 168.389C310.793 170.732 311.799 183.098 310.286 184.7C308.244 186.863 250.652 187.349 245.212 187.373C239.361 187.397 207.342 187.717 204.333 186.135C202.083 184.951 202.762 176.076 202.713 173.933L202.346 155.973C202.226 149.923 200.327 93.758 202.303 90.5267C207.715 88.2225 261.567 86.673 268.44 86.7497ZM213.501 178.679L220.075 178.679C220.651 163.404 217.001 148.153 218.208 132.809C225.801 137.083 235.76 145.958 243.719 151.423C252.007 146.03 270.528 127.45 274.952 125.558C280.557 128.15 289.391 144.306 293.062 149.99C295.698 149.106 298.41 148.486 301.158 148.079C302.381 131.985 303.737 111.65 303.673 95.5199C295.444 94.8228 286.882 95.8985 278.629 96.1991C256.379 97.0094 229.189 98.3699 207.368 94.7863C207.511 100.823 208.196 106.909 208.672 112.93L212.15 162.743C212.498 168.032 212.535 173.467 213.501 178.679ZM286 149.99C284.049 145.53 278.171 136.519 274.952 132.809C273.084 133.746 252.738 151.719 250.736 154.138C266.178 156.867 275.125 149.749 286 149.99Z"/>
	<path fill="#FF5D15" transform="scale(2 2)" d="M228.008 107.49Q228.285 107.423 228.566 107.374Q228.847 107.326 229.131 107.296Q229.414 107.266 229.699 107.255Q229.984 107.244 230.27 107.252Q230.555 107.259 230.839 107.286Q231.123 107.312 231.404 107.357Q231.686 107.402 231.964 107.466Q232.242 107.53 232.515 107.611Q232.788 107.693 233.055 107.793Q233.323 107.893 233.583 108.01Q233.843 108.127 234.095 108.261Q234.346 108.395 234.589 108.545Q234.831 108.695 235.063 108.861Q235.295 109.027 235.515 109.208Q235.736 109.389 235.944 109.584Q236.152 109.779 236.347 109.987Q236.542 110.195 236.722 110.416Q236.903 110.637 237.069 110.869Q237.234 111.101 237.384 111.343Q237.534 111.586 237.668 111.838Q237.802 112.09 237.919 112.35Q238.035 112.61 238.135 112.877Q238.234 113.145 238.316 113.418Q238.397 113.691 238.46 113.969Q238.524 114.247 238.569 114.529Q238.614 114.811 238.64 115.095Q238.666 115.378 238.673 115.664Q238.681 115.949 238.669 116.234Q238.658 116.519 238.628 116.802Q238.597 117.086 238.549 117.367Q238.5 117.648 238.433 117.925Q238.365 118.202 238.28 118.474Q238.195 118.746 238.091 119.012Q237.988 119.278 237.868 119.536Q237.747 119.795 237.61 120.045Q237.473 120.295 237.319 120.535Q237.166 120.776 236.997 121.005Q236.828 121.235 236.644 121.453Q236.46 121.671 236.263 121.877Q236.065 122.082 235.854 122.274Q235.643 122.466 235.42 122.644Q235.197 122.822 234.963 122.984Q234.729 123.147 234.484 123.294Q234.24 123.441 233.986 123.571Q233.732 123.701 233.47 123.815Q233.209 123.928 232.94 124.024Q232.672 124.12 232.397 124.197Q232.123 124.275 231.844 124.335Q231.638 124.379 231.431 124.413Q231.223 124.447 231.014 124.471Q230.805 124.494 230.596 124.508Q230.386 124.522 230.175 124.525Q229.965 124.528 229.755 124.521Q229.545 124.515 229.335 124.497Q229.126 124.48 228.917 124.453Q228.709 124.426 228.502 124.388Q228.295 124.351 228.09 124.304Q227.885 124.256 227.683 124.199Q227.48 124.142 227.281 124.074Q227.082 124.007 226.886 123.931Q226.69 123.854 226.498 123.768Q226.306 123.682 226.119 123.586Q225.932 123.491 225.749 123.386Q225.566 123.282 225.389 123.169Q225.212 123.056 225.04 122.934Q224.869 122.813 224.703 122.683Q224.538 122.553 224.379 122.415Q224.22 122.277 224.068 122.132Q223.916 121.987 223.771 121.834Q223.627 121.682 223.489 121.522Q223.352 121.363 223.223 121.197Q223.094 121.031 222.973 120.859Q222.852 120.687 222.739 120.51Q222.627 120.332 222.523 120.149Q222.419 119.966 222.324 119.778Q222.23 119.591 222.144 119.398Q222.059 119.206 221.983 119.01Q221.907 118.814 221.84 118.615Q221.774 118.415 221.717 118.213Q221.661 118.01 221.614 117.805Q221.567 117.6 221.531 117.393Q221.494 117.186 221.467 116.977Q221.441 116.769 221.425 116.559Q221.408 116.349 221.402 116.139Q221.396 115.929 221.4 115.719Q221.404 115.508 221.419 115.299Q221.433 115.089 221.457 114.88Q221.482 114.671 221.517 114.464Q221.551 114.256 221.596 114.051Q221.641 113.845 221.695 113.642Q221.75 113.439 221.814 113.239Q221.879 113.039 221.953 112.842Q222.027 112.645 222.111 112.452Q222.194 112.26 222.287 112.071Q222.38 111.882 222.482 111.698Q222.584 111.514 222.695 111.336Q222.806 111.157 222.925 110.984Q223.044 110.811 223.172 110.644Q223.299 110.476 223.435 110.316Q223.571 110.155 223.714 110.001Q223.857 109.847 224.008 109.7Q224.158 109.554 224.316 109.414Q224.474 109.275 224.638 109.144Q224.802 109.012 224.972 108.889Q225.143 108.766 225.319 108.651Q225.495 108.536 225.676 108.43Q225.858 108.324 226.044 108.226Q226.231 108.129 226.422 108.041Q226.613 107.953 226.808 107.875Q227.003 107.796 227.201 107.727Q227.4 107.658 227.602 107.599Q227.804 107.539 228.008 107.49Z"/>
	<path fill="#FF5D15" transform="scale(2 2)" d="M274.952 125.558C280.557 128.15 289.391 144.306 293.062 149.99C295.698 149.106 298.41 148.486 301.158 148.079C301.174 157.339 301.884 167.155 300.323 176.289C293.588 176.867 286.722 176.847 279.963 177.009L240.684 177.825C234.299 177.997 226.206 177.69 220.075 178.679C220.651 163.404 217.001 148.153 218.208 132.809C225.801 137.083 235.76 145.958 243.719 151.423C252.007 146.03 270.528 127.45 274.952 125.558ZM286 149.99C284.049 145.53 278.171 136.519 274.952 132.809C273.084 133.746 252.738 151.719 250.736 154.138C266.178 156.867 275.125 149.749 286 149.99Z"/>
	<path transform="scale(2 2)" d="M274.952 125.558C280.557 128.15 289.391 144.306 293.062 149.99C293.815 151.152 298.715 158.471 294.382 158.578C290.982 158.661 288.362 152.435 286.266 150.262L286 149.99C284.049 145.53 278.171 136.519 274.952 132.809C273.084 133.746 252.738 151.719 250.736 154.138C244.739 156.319 230.247 168.569 225.245 166.123C221.936 161.357 230.136 159.098 233.299 157.498C236.905 155.674 240.373 153.692 243.719 151.423C252.007 146.03 270.528 127.45 274.952 125.558Z"/>
	<path transform="scale(2 2)" d="M132.791 204.75C143.588 204.689 164.332 204.046 174.769 206.509L176.187 257.45C176.388 266.613 176.126 275.794 176.496 284.945C176.712 290.297 179.557 303.637 172.676 304.554C167.985 305.18 160.73 305.033 155.785 305.213C140.947 305.755 126.28 306.022 111.437 306.012C105.51 306.546 71.1873 306.247 69.9807 305.019C67.1075 302.094 68.1341 290.542 68.1287 286.667L68.1141 266.082C68.1136 246.645 67.866 227.175 68.1142 207.741C86.1771 208.885 113.896 206.144 132.791 204.75ZM82.952 251.091C90.6032 254.944 103.361 263.972 108.983 270.401C119.059 263.608 132.265 248.285 139.245 244.398C152.275 251.219 156.317 266.727 163.595 272.668C164.484 271.42 165.45 270.641 167.002 270.401C166.539 263.223 167.226 255.824 167.459 248.634L168.219 230.113C168.416 224.58 168.509 219.026 168.944 213.505C141.35 215.247 113.184 215.837 85.5572 214.018C81.9253 213.778 78.1755 213.251 74.5396 213.505C73.9395 220.81 75.5049 233.581 75.8948 241.491L77.515 274.844C77.8286 281.948 77.9816 289.11 78.4931 296.199C80.4097 296.318 82.2265 296.335 84.1406 296.199C85.7556 281.281 81.4135 264.431 82.952 251.091ZM151.254 265.2C147.948 260.213 143.859 255.825 140.217 251.091C130.664 259.224 123.828 266.815 113.277 274.452C120.294 279.961 143.892 268.395 151.254 265.2Z"/>
	<path fill="#FF5D15" transform="scale(2 2)" d="M94.4845 224.249Q94.6926 224.233 94.9012 224.227Q95.1098 224.221 95.3185 224.226Q95.5272 224.23 95.7354 224.244Q95.9436 224.259 96.1509 224.283Q96.3581 224.308 96.564 224.342Q96.7698 224.376 96.9737 224.421Q97.1777 224.465 97.3792 224.52Q97.5807 224.574 97.7794 224.638Q97.9781 224.702 98.1734 224.775Q98.3687 224.849 98.5603 224.932Q98.7518 225.014 98.9391 225.107Q99.1264 225.199 99.3091 225.3Q99.4917 225.401 99.6692 225.511Q99.8467 225.62 100.019 225.739Q100.191 225.857 100.357 225.983Q100.523 226.11 100.682 226.244Q100.842 226.378 100.995 226.52Q101.148 226.662 101.294 226.811Q101.44 226.961 101.579 227.117Q101.717 227.273 101.848 227.435Q101.979 227.598 102.102 227.767Q102.224 227.936 102.339 228.11Q102.453 228.285 102.559 228.465Q102.665 228.644 102.762 228.829Q102.859 229.014 102.947 229.203Q103.035 229.393 103.114 229.586Q103.192 229.779 103.261 229.976Q103.331 230.173 103.39 230.373Q103.45 230.573 103.5 230.776Q103.549 230.978 103.589 231.183Q103.629 231.388 103.659 231.595Q103.689 231.801 103.709 232.009Q103.729 232.217 103.739 232.425Q103.748 232.634 103.748 232.842Q103.748 233.051 103.737 233.26Q103.727 233.468 103.706 233.676Q103.686 233.883 103.655 234.09Q103.625 234.296 103.584 234.501Q103.543 234.706 103.493 234.908Q103.443 235.111 103.382 235.311Q103.322 235.51 103.252 235.707Q103.183 235.904 103.103 236.097Q103.024 236.29 102.936 236.479Q102.847 236.668 102.749 236.852Q102.652 237.037 102.545 237.216Q102.439 237.396 102.324 237.57Q102.209 237.744 102.086 237.913Q101.963 238.081 101.831 238.243Q101.7 238.405 101.561 238.561Q101.422 238.717 101.275 238.865Q101.129 239.014 100.976 239.156Q100.822 239.297 100.662 239.431Q100.502 239.565 100.336 239.691Q100.169 239.817 99.9968 239.934Q99.8244 240.052 99.6466 240.161Q99.4688 240.271 99.2859 240.371Q99.1029 240.472 98.9154 240.563Q98.7278 240.655 98.536 240.737Q98.3442 240.819 98.1487 240.892Q97.9531 240.965 97.7543 241.028Q97.5554 241.092 97.3537 241.145Q97.152 241.199 96.948 241.243Q96.7439 241.286 96.538 241.32Q96.332 241.354 96.1247 241.378Q95.8415 241.411 95.5567 241.424Q95.272 241.438 94.9869 241.433Q94.7019 241.428 94.4178 241.404Q94.1337 241.38 93.8518 241.337Q93.5699 241.294 93.2915 241.233Q93.0131 241.172 92.7393 241.092Q92.4656 241.012 92.1977 240.915Q91.9298 240.817 91.669 240.702Q91.4081 240.587 91.1555 240.455Q90.9028 240.323 90.6595 240.174Q90.4161 240.026 90.1831 239.862Q89.9501 239.697 89.7285 239.518Q89.5069 239.339 89.2976 239.145Q89.0884 238.951 88.8924 238.744Q88.6964 238.537 88.5146 238.318Q88.3327 238.098 88.1658 237.867Q87.9989 237.636 87.8477 237.394Q87.6964 237.152 87.5615 236.901Q87.4266 236.65 87.3086 236.391Q87.1906 236.131 87.09 235.864Q86.9895 235.597 86.9068 235.324Q86.8242 235.052 86.7597 234.774Q86.6953 234.496 86.6494 234.215Q86.6035 233.933 86.5763 233.649Q86.5491 233.366 86.5408 233.081Q86.5325 232.796 86.543 232.511Q86.5536 232.226 86.583 231.942Q86.6124 231.659 86.6605 231.378Q86.7085 231.097 86.7751 230.819Q86.8417 230.542 86.9265 230.27Q87.0113 229.998 87.114 229.732Q87.2166 229.466 87.3366 229.207Q87.4566 228.948 87.5935 228.698Q87.7303 228.448 87.8835 228.208Q88.0366 227.967 88.2053 227.737Q88.374 227.508 88.5575 227.289Q88.7411 227.071 88.9386 226.866Q89.1362 226.66 89.347 226.468Q89.5577 226.276 89.7807 226.098Q90.0037 225.921 90.238 225.758Q90.4722 225.596 90.7167 225.449Q90.9612 225.303 91.2149 225.172Q91.4686 225.042 91.7303 224.929Q91.992 224.816 92.2607 224.721Q92.5293 224.625 92.8037 224.548Q93.078 224.47 93.3569 224.411Q93.6358 224.352 93.918 224.311Q94.2002 224.271 94.4845 224.249Z"/>
	<path fill="#FF5D15" transform="scale(2 2)" d="M139.245 244.398C152.275 251.219 156.317 266.727 163.595 272.668C164.484 271.42 165.45 270.641 167.002 270.401C165.95 278.22 166.397 286.338 166.417 294.227C156.7 294.184 147.011 294.664 137.305 295.039L111.492 295.887C103.691 296.153 91.8026 296.933 84.1406 296.199C85.7556 281.281 81.4135 264.431 82.952 251.091C90.6032 254.944 103.361 263.972 108.983 270.401C119.059 263.608 132.265 248.285 139.245 244.398ZM151.254 265.2C147.948 260.213 143.859 255.825 140.217 251.091C130.664 259.224 123.828 266.815 113.277 274.452C120.294 279.961 143.892 268.395 151.254 265.2Z"/>
	<path transform="scale(2 2)" d="M139.245 244.398C152.275 251.219 156.317 266.727 163.595 272.668C159.151 280.766 154.139 269.33 151.254 265.2C147.948 260.213 143.859 255.825 140.217 251.091C130.664 259.224 123.828 266.815 113.277 274.452C108.403 277.024 94.3929 284.398 89.2991 283.624C86.9174 283.261 86.0112 279.865 88.25 278.762C94.9538 275.462 100.625 275.519 108.983 270.401C119.059 263.608 132.265 248.285 139.245 244.398Z"/>
	<path transform="scale(2 2)" d="M135.594 86.7497C140.062 86.6417 172.205 86.4313 174.957 88.5455C176.801 94.6165 176.136 110.537 176.271 117.521L176.809 174.238C176.843 178.891 178.78 185.069 173.413 185.68C168.141 186.281 162.689 186.151 157.382 186.362C141.482 186.995 125.761 187.452 109.841 187.373L85.663 187.388C80.9114 187.388 73.0897 188.705 68.9591 185.809C67.3811 180.693 68.1076 159.595 68.1093 153.024L68.1142 90.5386C73.6171 89.4435 79.6596 89.4324 85.2569 89.0466C102.036 87.8898 118.821 87.7143 135.594 86.7497ZM78.4931 178.679C80.9196 178.886 83.1497 179.034 85.5724 178.679C86.0262 162.889 82.9302 147.095 83.6989 131.335C92.3315 136.638 100.16 145.554 109.841 151.423C117.832 146.506 125.585 140.002 132.352 133.532C134.95 131.047 137.228 127.53 140.217 125.558C148.9 130.369 158.581 146.001 163.595 154.66C164.58 154.016 165.597 153.824 166.725 153.56L167.002 153.047C167.936 139.672 168.105 125.707 168.327 112.293C168.418 106.778 169.141 100.97 168.261 95.5199C163.044 95.0009 157.68 95.5777 152.455 95.8483C133.223 96.8443 113.932 97.5037 94.6773 96.7252C87.9634 96.4537 81.2501 95.6518 74.5396 95.5199C74.3417 99.1419 74.674 102.825 74.8983 106.443L77.6217 154.957C77.9939 162.856 78.5779 170.767 78.4931 178.679ZM114.503 155.171C121.071 157.99 145.849 150.229 151.254 145.756C147.987 141.299 144.682 136.871 140.925 132.809C133.257 141.424 123.954 148.627 114.503 155.171Z"/>
	<path fill="#FF5D15" transform="scale(2 2)" d="M93.2039 107.021Q93.4104 106.973 93.6191 106.935Q93.8277 106.897 94.038 106.869Q94.2483 106.841 94.4596 106.824Q94.671 106.807 94.883 106.8Q95.095 106.793 95.307 106.796Q95.5191 106.8 95.7307 106.814Q95.9423 106.828 96.153 106.852Q96.3637 106.876 96.5729 106.911Q96.7822 106.946 96.9894 106.99Q97.1967 107.035 97.4016 107.09Q97.6064 107.145 97.8082 107.21Q98.0101 107.275 98.2085 107.35Q98.407 107.425 98.6015 107.51Q98.796 107.594 98.9861 107.688Q99.1762 107.782 99.3615 107.886Q99.5468 107.989 99.7267 108.101Q99.9067 108.213 100.081 108.334Q100.255 108.455 100.423 108.584Q100.591 108.714 100.753 108.851Q100.914 108.989 101.069 109.134Q101.223 109.279 101.371 109.432Q101.518 109.584 101.657 109.744Q101.797 109.904 101.929 110.07Q102.06 110.237 102.183 110.409Q102.306 110.582 102.421 110.76Q102.536 110.939 102.641 111.123Q102.747 111.307 102.843 111.496Q102.94 111.684 103.027 111.878Q103.114 112.071 103.191 112.269Q103.269 112.466 103.336 112.667Q103.404 112.868 103.462 113.072Q103.519 113.276 103.567 113.483Q103.615 113.69 103.652 113.898Q103.689 114.107 103.716 114.318Q103.743 114.528 103.76 114.739Q103.777 114.951 103.783 115.163Q103.789 115.375 103.785 115.587Q103.781 115.799 103.766 116.01Q103.752 116.222 103.727 116.433Q103.702 116.643 103.667 116.852Q103.631 117.061 103.586 117.269Q103.54 117.476 103.485 117.68Q103.429 117.885 103.363 118.087Q103.298 118.288 103.222 118.486Q103.147 118.685 103.062 118.879Q102.976 119.073 102.882 119.263Q102.787 119.453 102.683 119.638Q102.58 119.823 102.467 120.002Q102.354 120.182 102.233 120.356Q102.111 120.53 101.981 120.697Q101.852 120.865 101.714 121.026Q101.576 121.187 101.43 121.341Q101.284 121.495 101.131 121.642Q100.978 121.789 100.818 121.928Q100.658 122.067 100.491 122.198Q100.324 122.329 100.151 122.452Q99.9781 122.574 99.7993 122.688Q99.6205 122.802 99.4362 122.907Q99.252 123.012 99.0629 123.108Q98.8737 123.204 98.68 123.291Q98.4864 123.377 98.2887 123.454Q98.0911 123.531 97.8898 123.598Q97.6886 123.665 97.4844 123.722Q97.2801 123.779 97.0733 123.826Q96.8673 123.873 96.6592 123.909Q96.4512 123.946 96.2416 123.972Q96.032 123.999 95.8213 124.015Q95.6107 124.031 95.3995 124.037Q95.1883 124.042 94.9771 124.038Q94.7659 124.033 94.5552 124.018Q94.3445 124.003 94.1347 123.978Q93.925 123.953 93.7167 123.918Q93.5085 123.882 93.3022 123.836Q93.0959 123.791 92.8921 123.735Q92.6884 123.679 92.4875 123.614Q92.2867 123.548 92.0894 123.473Q91.892 123.398 91.6986 123.313Q91.5051 123.228 91.3161 123.133Q91.127 123.039 90.9428 122.936Q90.7586 122.832 90.5797 122.72Q90.4008 122.608 90.2276 122.487Q90.0544 122.366 89.8874 122.236Q89.7203 122.107 89.5598 121.97Q89.3992 121.832 89.2456 121.687Q89.092 121.542 88.9456 121.39Q88.7993 121.238 88.6606 121.078Q88.5219 120.919 88.3912 120.753Q88.2605 120.587 88.1381 120.415Q88.0156 120.243 87.9018 120.065Q87.7879 119.887 87.6829 119.704Q87.5779 119.52 87.482 119.332Q87.3861 119.144 87.2995 118.951Q87.2129 118.758 87.1359 118.562Q87.0589 118.365 86.9915 118.165Q86.9242 117.964 86.8668 117.761Q86.8094 117.558 86.762 117.352Q86.7146 117.146 86.6773 116.938Q86.6401 116.73 86.613 116.521Q86.586 116.311 86.5693 116.101Q86.5526 115.89 86.5461 115.679Q86.5397 115.468 86.5437 115.257Q86.5476 115.045 86.5619 114.835Q86.5762 114.624 86.6007 114.414Q86.6253 114.204 86.6602 113.996Q86.695 113.787 86.74 113.581Q86.785 113.375 86.84 113.171Q86.8951 112.967 86.96 112.766Q87.025 112.565 87.0997 112.367Q87.1745 112.17 87.2588 111.976Q87.3431 111.782 87.4368 111.593Q87.5305 111.404 87.6334 111.219Q87.7362 111.035 87.848 110.855Q87.9598 110.676 88.0802 110.502Q88.2006 110.329 88.3294 110.161Q88.4582 109.994 88.595 109.833Q88.7318 109.672 88.8764 109.518Q89.0209 109.364 89.1728 109.217Q89.3247 109.07 89.4836 108.931Q89.6425 108.792 89.8081 108.661Q89.9736 108.529 90.1454 108.407Q90.3172 108.284 90.4947 108.169Q90.6723 108.055 90.8553 107.949Q91.0383 107.844 91.2262 107.747Q91.4141 107.651 91.6066 107.563Q91.799 107.476 91.9954 107.399Q92.1919 107.321 92.3919 107.253Q92.5919 107.185 92.7951 107.127Q92.9982 107.069 93.2039 107.021Z"/>
	<path fill="#FF5D15" transform="scale(2 2)" d="M140.217 125.558C148.9 130.369 158.581 146.001 163.595 154.66C164.58 154.016 165.597 153.824 166.725 153.56L167.002 153.047L167.002 176.289C159.522 176.273 152.009 176.781 144.533 177.051L114.411 177.905C104.8 178.221 95.1899 178.709 85.5724 178.679C86.0262 162.889 82.9302 147.095 83.6989 131.335C92.3315 136.638 100.16 145.554 109.841 151.423C117.832 146.506 125.585 140.002 132.352 133.532C134.95 131.047 137.228 127.53 140.217 125.558ZM114.503 155.171C121.071 157.99 145.849 150.229 151.254 145.756C147.987 141.299 144.682 136.871 140.925 132.809C133.257 141.424 123.954 148.627 114.503 155.171Z"/>
	<path transform="scale(2 2)" d="M140.217 125.558C148.9 130.369 158.581 146.001 163.595 154.66C163.584 156.121 162.326 158.172 160.636 157.951C157.844 157.586 153.367 148.589 151.496 146.078L151.254 145.756C147.987 141.299 144.682 136.871 140.925 132.809C133.257 141.424 123.954 148.627 114.503 155.171C111.664 156.835 88.8635 171.351 88.0312 163.398C88.7311 160.866 105.683 153.829 109.841 151.423C117.832 146.506 125.585 140.002 132.352 133.532C134.95 131.047 137.228 127.53 140.217 125.558Z"/>
	<path transform="scale(2 2)" d="M401.517 86.7497C407.42 86.59 439.92 86.4696 442.684 88.5528C445 90.2993 443.91 107.985 443.903 111.498L444.101 162.297C444.102 168.723 444.339 175.24 443.879 181.652C443.59 185.679 442.568 185.958 438.704 186.2C419.334 187.414 397.292 186.833 377.558 187.373C371.423 187.137 340.671 188.187 337.506 186.779C334.133 185.278 335.395 150.863 335.396 146.274C335.4 118.728 334.074 91.4977 336.93 90.7819C340.066 89.9958 347.972 89.9102 351.601 89.6428C368.233 88.4168 384.899 87.9369 401.517 86.7497ZM346.51 177.874C348.884 178.088 351.067 178.279 353.435 177.874C353.117 164.318 350.76 146.488 351.787 133.415C359.702 140.264 368.356 146.441 377.558 151.423C385.187 147.154 393.656 139.427 399.845 133.331C401.504 131.697 406.145 125.247 408.624 125.402C412.422 125.639 422.357 142.785 425.087 146.314L425.26 146.533C428.364 146.395 431.484 146.734 434.577 146.533C436.318 133.072 437.214 108.485 437.018 94.7863C410.712 97.2148 368.2 98.8577 341.721 95.5199C341.737 102.098 342.685 108.809 343.098 115.393L345.313 153.221C345.783 161.426 346.438 169.656 346.51 177.874ZM419.464 148.079C416.391 142.749 412.497 137.997 409.222 132.809C401.305 140.403 393.375 147.625 384.529 154.138C393.852 159.977 409.88 150.876 419.004 148.211L419.464 148.079Z"/>
	<path fill="#FF5D15" transform="scale(2 2)" d="M362.507 108.251Q362.719 108.237 362.931 108.233Q363.144 108.229 363.356 108.235Q363.569 108.241 363.78 108.258Q363.992 108.275 364.203 108.303Q364.414 108.33 364.623 108.367Q364.832 108.405 365.039 108.453Q365.246 108.501 365.451 108.559Q365.655 108.617 365.856 108.685Q366.058 108.753 366.255 108.83Q366.453 108.908 366.647 108.995Q366.841 109.083 367.03 109.18Q367.219 109.277 367.403 109.383Q367.587 109.489 367.766 109.603Q367.945 109.718 368.117 109.842Q368.29 109.966 368.457 110.097Q368.623 110.229 368.783 110.369Q368.943 110.509 369.096 110.657Q369.249 110.805 369.394 110.96Q369.54 111.115 369.677 111.276Q369.815 111.438 369.944 111.607Q370.074 111.775 370.195 111.95Q370.316 112.125 370.428 112.305Q370.54 112.486 370.643 112.671Q370.747 112.857 370.841 113.048Q370.935 113.238 371.019 113.433Q371.104 113.628 371.179 113.827Q371.253 114.026 371.318 114.228Q371.383 114.43 371.438 114.636Q371.493 114.841 371.538 115.049Q371.583 115.256 371.617 115.466Q371.652 115.676 371.676 115.887Q371.7 116.098 371.714 116.31Q371.728 116.522 371.731 116.735Q371.734 116.947 371.727 117.159Q371.72 117.372 371.703 117.583Q371.685 117.795 371.657 118.006Q371.629 118.217 371.591 118.426Q371.552 118.635 371.504 118.841Q371.455 119.048 371.397 119.253Q371.338 119.457 371.27 119.658Q371.201 119.859 371.123 120.057Q371.044 120.254 370.956 120.447Q370.868 120.641 370.771 120.83Q370.673 121.019 370.567 121.202Q370.46 121.386 370.344 121.565Q370.229 121.743 370.105 121.915Q369.981 122.088 369.848 122.254Q369.716 122.42 369.575 122.58Q369.435 122.739 369.287 122.891Q369.139 123.044 368.983 123.189Q368.828 123.334 368.665 123.471Q368.503 123.608 368.334 123.737Q368.165 123.865 367.99 123.986Q367.815 124.106 367.634 124.218Q367.453 124.33 367.267 124.432Q367.081 124.535 366.89 124.628Q366.699 124.722 366.504 124.806Q366.309 124.89 366.11 124.964Q365.911 125.038 365.708 125.102Q365.506 125.167 365.3 125.221Q365.095 125.275 364.887 125.319Q364.679 125.363 364.469 125.397Q364.259 125.431 364.048 125.454Q363.837 125.478 363.625 125.491Q363.189 125.518 362.752 125.501Q362.315 125.483 361.883 125.422Q361.45 125.361 361.026 125.256Q360.601 125.152 360.19 125.005Q359.778 124.858 359.384 124.67Q358.989 124.482 358.615 124.256Q358.241 124.029 357.893 123.766Q357.544 123.503 357.223 123.206Q356.902 122.909 356.614 122.581Q356.325 122.253 356.07 121.898Q355.816 121.543 355.599 121.163Q355.381 120.784 355.204 120.385Q355.026 119.986 354.889 119.571Q354.753 119.156 354.658 118.729Q354.564 118.302 354.514 117.868Q354.463 117.434 354.457 116.997Q354.454 116.792 354.461 116.587Q354.467 116.383 354.484 116.178Q354.5 115.974 354.526 115.771Q354.552 115.568 354.588 115.366Q354.623 115.164 354.669 114.965Q354.714 114.765 354.768 114.567Q354.823 114.37 354.887 114.175Q354.951 113.98 355.024 113.789Q355.097 113.598 355.179 113.41Q355.261 113.222 355.352 113.039Q355.443 112.855 355.542 112.676Q355.642 112.497 355.749 112.323Q355.857 112.148 355.973 111.98Q356.089 111.811 356.213 111.647Q356.337 111.484 356.468 111.327Q356.6 111.17 356.738 111.019Q356.877 110.868 357.023 110.724Q357.169 110.581 357.321 110.444Q357.473 110.307 357.632 110.177Q357.791 110.048 357.956 109.926Q358.12 109.804 358.29 109.69Q358.461 109.576 358.636 109.47Q358.812 109.365 358.992 109.267Q359.172 109.17 359.357 109.081Q359.542 108.993 359.73 108.913Q359.919 108.833 360.111 108.762Q360.304 108.692 360.499 108.63Q360.694 108.569 360.892 108.516Q361.091 108.464 361.291 108.421Q361.491 108.379 361.693 108.345Q361.896 108.312 362.099 108.289Q362.303 108.265 362.507 108.251Z"/>
	<path fill="#FF5D15" transform="scale(2 2)" d="M377.558 151.423C385.187 147.154 393.656 139.427 399.845 133.331C401.504 131.697 406.145 125.247 408.624 125.402C412.422 125.639 422.357 142.785 425.087 146.314L425.26 146.533C428.364 146.395 431.484 146.734 434.577 146.533C435.08 156.065 433.8 167.043 433.537 176.784C426.623 176.253 419.476 176.716 412.545 176.849L378.327 177.407C370.026 177.617 361.751 178.236 353.435 177.874C353.117 164.318 350.76 146.488 351.787 133.415C359.702 140.264 368.356 146.441 377.558 151.423ZM419.464 148.079C416.391 142.749 412.497 137.997 409.222 132.809C401.305 140.403 393.375 147.625 384.529 154.138C393.852 159.977 409.88 150.876 419.004 148.211L419.464 148.079Z"/>
	<path transform="scale(2 2)" d="M377.558 151.423C385.187 147.154 393.656 139.427 399.845 133.331C401.504 131.697 406.145 125.247 408.624 125.402C412.422 125.639 422.357 142.785 425.087 146.314L425.26 146.533C426.634 148.737 430.999 154.63 430.688 157.068C429.997 162.488 420.402 148.928 419.464 148.079C416.391 142.749 412.497 137.997 409.222 132.809C401.305 140.403 393.375 147.625 384.529 154.138C377.917 156.769 367.029 166.322 359.478 166.391C356.41 166.42 355.605 163.225 358.073 161.443C363.106 157.808 371.354 155.763 377.558 151.423Z"/>
	<path transform="scale(2 2)" d="M132.032 323.482C139.177 323.477 169.958 322.9 174.697 325C176.594 330.401 176.878 416.508 175.085 421.33C172.011 424.276 118.589 424.261 111.437 424.249C106.312 423.91 70.3324 424.017 69.0924 422.99C66.6759 417.581 67.3084 380.931 67.3084 373.079L67.3168 327.264C86.69 327.357 112.248 324.812 132.032 323.482ZM77.8725 414.815C80.0125 415.014 82.0006 415.147 84.1406 414.815L84.1394 384.367C84.1365 379.282 83.9145 374.138 84.1406 369.061C93.6433 373.744 100.706 381.847 108.983 388.173C116.57 383.84 137.661 361.666 141.031 362.276C144.974 362.989 157.124 381.102 160.013 385.473L167.002 385.771C166.716 381.518 167.112 377.227 167.248 372.972L168.259 346.981C168.455 342.103 168.987 336.973 168.261 332.135C163.48 332.059 158.668 332.485 153.895 332.731C134.913 333.711 115.823 334.217 96.8174 333.67C89.3969 333.456 81.6426 332.472 74.2462 332.963L73.7411 332.994C73.6907 340.343 74.7924 347.871 75.1985 355.231L76.9531 391.796C77.2918 399.467 77.7663 407.135 77.8725 414.815ZM152.069 384.061C149.129 378.523 144.944 373.828 140.925 369.061C132.899 375.828 121.963 384.623 114.503 391.545C126.768 397.993 140.186 386.607 152.069 384.061Z"/>
	<path fill="#FF5D15" transform="scale(2 2)" d="M93.7735 343.306Q93.9901 343.268 94.2082 343.241Q94.4264 343.214 94.6456 343.197Q94.8649 343.181 95.0847 343.175Q95.3044 343.169 95.5242 343.174Q95.744 343.18 95.9633 343.195Q96.1826 343.211 96.4008 343.238Q96.6191 343.264 96.8357 343.302Q97.0524 343.339 97.267 343.387Q97.4816 343.434 97.6936 343.493Q97.9056 343.551 98.1145 343.619Q98.3234 343.688 98.5286 343.767Q98.7339 343.846 98.935 343.934Q99.1362 344.023 99.3328 344.121Q99.5294 344.22 99.7209 344.328Q99.9124 344.436 100.098 344.553Q100.284 344.67 100.464 344.796Q100.644 344.923 100.818 345.057Q100.992 345.192 101.158 345.336Q101.325 345.479 101.485 345.63Q101.644 345.781 101.796 345.94Q101.948 346.099 102.092 346.265Q102.236 346.431 102.372 346.604Q102.508 346.777 102.635 346.957Q102.762 347.136 102.88 347.321Q102.998 347.507 103.107 347.698Q103.216 347.889 103.315 348.085Q103.415 348.281 103.504 348.482Q103.594 348.682 103.674 348.887Q103.753 349.092 103.823 349.301Q103.893 349.509 103.952 349.721Q104.011 349.933 104.06 350.147Q104.109 350.362 104.147 350.578Q104.185 350.794 104.213 351.013Q104.24 351.231 104.257 351.45Q104.274 351.669 104.28 351.889Q104.286 352.109 104.282 352.329Q104.277 352.548 104.262 352.768Q104.246 352.987 104.22 353.205Q104.194 353.424 104.157 353.64Q104.12 353.857 104.073 354.072Q104.025 354.286 103.968 354.499Q103.91 354.711 103.841 354.92Q103.773 355.129 103.695 355.334Q103.617 355.54 103.528 355.741Q103.44 355.942 103.342 356.139Q103.244 356.336 103.136 356.528Q103.028 356.719 102.911 356.905Q102.795 357.092 102.669 357.272Q102.543 357.452 102.408 357.626Q102.274 357.8 102.131 357.967Q101.988 358.134 101.837 358.294Q101.686 358.454 101.527 358.606Q101.369 358.758 101.203 358.903Q101.037 359.047 100.864 359.183Q100.691 359.319 100.512 359.446Q100.333 359.574 100.148 359.692Q99.9625 359.811 99.7717 359.92Q99.5809 360.029 99.3849 360.129Q99.189 360.229 98.9884 360.319Q98.7878 360.409 98.583 360.489Q98.3783 360.569 98.1698 360.639Q97.9614 360.709 97.7497 360.768Q97.5381 360.828 97.3238 360.877Q97.1095 360.926 96.8931 360.965Q96.6762 361.004 96.4576 361.032Q96.239 361.06 96.0193 361.077Q95.7996 361.094 95.5794 361.101Q95.3591 361.107 95.1388 361.103Q94.9185 361.098 94.6986 361.083Q94.4788 361.068 94.26 361.042Q94.0412 361.016 93.8239 360.979Q93.6066 360.943 93.3914 360.895Q93.1761 360.848 92.9635 360.79Q92.7509 360.732 92.5413 360.664Q92.3318 360.596 92.1259 360.517Q91.92 360.439 91.7181 360.35Q91.5163 360.262 91.3191 360.164Q91.1218 360.065 90.9296 359.958Q90.7375 359.85 90.5508 359.733Q90.3642 359.615 90.1835 359.489Q90.0029 359.363 89.8286 359.228Q89.6544 359.093 89.487 358.95Q89.3195 358.807 89.1594 358.655Q88.9992 358.504 88.8467 358.345Q88.6941 358.186 88.5496 358.02Q88.405 357.853 88.2688 357.68Q88.1326 357.507 88.0051 357.327Q87.8776 357.147 87.7591 356.962Q87.6405 356.776 87.5312 356.584Q87.422 356.393 87.3222 356.197Q87.2225 356 87.1325 355.799Q87.0425 355.598 86.9626 355.392Q86.8826 355.187 86.8128 354.978Q86.743 354.769 86.6836 354.557Q86.6241 354.345 86.5752 354.13Q86.5262 353.915 86.4879 353.698Q86.4496 353.481 86.4219 353.262Q86.3943 353.044 86.3775 352.824Q86.3606 352.604 86.3546 352.384Q86.3485 352.164 86.3533 351.943Q86.3581 351.723 86.3737 351.503Q86.3893 351.284 86.4157 351.065Q86.4421 350.846 86.4792 350.629Q86.5163 350.412 86.564 350.196Q86.6117 349.981 86.67 349.769Q86.7282 349.556 86.7968 349.347Q86.8654 349.137 86.9442 348.932Q87.023 348.726 87.1118 348.524Q87.2007 348.323 87.2993 348.125Q87.3979 347.928 87.5061 347.736Q87.6143 347.544 87.7318 347.358Q87.8492 347.172 87.9757 346.991Q88.1022 346.811 88.2374 346.637Q88.3727 346.463 88.5162 346.296Q88.6598 346.128 88.8115 345.969Q88.9631 345.809 89.1224 345.656Q89.2817 345.504 89.4483 345.36Q89.6149 345.216 89.7883 345.08Q89.9618 344.944 90.1418 344.817Q90.3217 344.69 90.5077 344.571Q90.6936 344.453 90.8852 344.344Q91.0767 344.235 91.2734 344.136Q91.4701 344.036 91.6714 343.947Q91.8727 343.857 92.0782 343.778Q92.2837 343.698 92.4928 343.629Q92.702 343.559 92.9142 343.5Q93.1265 343.441 93.3415 343.393Q93.5564 343.344 93.7735 343.306Z"/>
	<path fill="#FF5D15" transform="scale(2 2)" d="M108.983 388.173C116.57 383.84 137.661 361.666 141.031 362.276C144.974 362.989 157.124 381.102 160.013 385.473L167.002 385.771C165.931 393.731 165.843 405.562 165.91 413.741C142.164 411.67 107.581 412.894 84.1406 414.815L84.1394 384.367C84.1365 379.282 83.9145 374.138 84.1406 369.061C93.6433 373.744 100.706 381.847 108.983 388.173ZM152.069 384.061C149.129 378.523 144.944 373.828 140.925 369.061C132.899 375.828 121.963 384.623 114.503 391.545C126.768 397.993 140.186 386.607 152.069 384.061Z"/>
	<path transform="scale(2 2)" d="M108.983 388.173C116.57 383.84 137.661 361.666 141.031 362.276C144.974 362.989 157.124 381.102 160.013 385.473C160.469 386.26 167.058 396.533 161.393 395.719C157.955 395.225 154.381 386.688 152.069 384.061C149.129 378.523 144.944 373.828 140.925 369.061C132.899 375.828 121.963 384.623 114.503 391.545C110.185 393.743 90.9901 406.514 87.1496 400.53C85.1367 397.395 94.0715 395.442 95.7392 394.799C100.303 393.039 104.851 390.786 108.983 388.173Z"/>
	<path transform="scale(2 2)" d="M255.5 323.482C264.285 323.48 304.02 322.662 309.418 325.873C311.191 328.178 310.31 338.351 310.335 341.458L310.402 370.448C310.4 374.873 310.993 419.749 309.266 421.639C303.945 423.787 264.937 424.273 256.437 424.249C245.708 424.687 235.133 423.947 224.425 423.725C219.252 423.617 205.578 426.148 204.262 421.148C202.24 413.464 201.392 330.451 203.27 327.188C212.033 324.245 244.698 324.236 255.5 323.482ZM220.075 414.815C219.886 410.428 219.601 406.098 220.075 401.721C220.041 400.964 220.065 400.207 220.075 399.45C218.548 392.49 218.955 377.38 218.744 369.061C225.2 374.593 237.149 383.096 245.212 385.771C256.735 381.378 264.606 368.628 273.475 362.45C277.615 359.567 281.861 368.055 283.756 370.697L294.356 385.771L300.323 385.473C302.082 368.897 300.406 346.61 303.673 331.235C299.832 331.28 295.973 331.73 292.143 332.022C267.136 333.926 233.668 335.073 208.402 332.135C209.31 351.806 210.788 372.486 212.169 392.147C212.695 399.634 212.467 407.39 213.501 414.815C215.785 415.108 217.795 415.112 220.075 414.815ZM285.286 381.671C281.819 378.353 277.724 372.457 274.952 368.384C268.015 376.176 259.931 382.908 251.445 388.952C265.141 394.87 274.236 387.326 284.886 381.873L285.286 381.671Z"/>
	<path fill="#FF5D15" transform="scale(2 2)" d="M228.088 343.227Q228.316 343.203 228.545 343.19Q228.774 343.178 229.003 343.176Q229.232 343.175 229.461 343.185Q229.69 343.195 229.918 343.216Q230.146 343.237 230.373 343.269Q230.6 343.301 230.825 343.344Q231.05 343.387 231.273 343.441Q231.496 343.495 231.715 343.56Q231.935 343.625 232.151 343.701Q232.368 343.777 232.58 343.863Q232.793 343.949 233 344.046Q233.208 344.142 233.411 344.249Q233.614 344.355 233.812 344.471Q234.009 344.588 234.201 344.714Q234.392 344.84 234.577 344.975Q234.762 345.11 234.941 345.254Q235.119 345.398 235.29 345.55Q235.461 345.703 235.624 345.863Q235.788 346.024 235.943 346.193Q236.098 346.361 236.245 346.537Q236.392 346.713 236.53 346.896Q236.668 347.079 236.797 347.268Q236.926 347.458 237.046 347.653Q237.165 347.849 237.275 348.05Q237.385 348.251 237.485 348.458Q237.585 348.664 237.674 348.875Q237.764 349.086 237.843 349.301Q237.922 349.516 237.991 349.735Q238.059 349.953 238.117 350.175Q238.175 350.397 238.222 350.621Q238.269 350.845 238.305 351.072Q238.34 351.298 238.365 351.526Q238.39 351.754 238.403 351.983Q238.417 352.211 238.419 352.441Q238.421 352.67 238.412 352.899Q238.403 353.128 238.383 353.356Q238.363 353.584 238.332 353.811Q238.301 354.038 238.258 354.264Q238.216 354.489 238.163 354.712Q238.109 354.935 238.045 355.155Q237.981 355.375 237.906 355.591Q237.831 355.808 237.746 356.02Q237.66 356.233 237.565 356.441Q237.469 356.65 237.363 356.853Q237.258 357.056 237.142 357.254Q237.026 357.452 236.901 357.644Q236.776 357.836 236.642 358.022Q236.507 358.207 236.364 358.386Q236.221 358.565 236.069 358.737Q235.917 358.908 235.757 359.072Q235.597 359.236 235.429 359.392Q235.261 359.548 235.086 359.695Q234.91 359.843 234.728 359.982Q234.545 360.121 234.356 360.25Q234.168 360.38 233.972 360.5Q233.777 360.62 233.577 360.731Q233.376 360.842 233.17 360.942Q232.964 361.043 232.753 361.133Q232.543 361.224 232.328 361.304Q232.113 361.384 231.895 361.453Q231.677 361.522 231.455 361.581Q231.233 361.64 231.009 361.687Q230.785 361.735 230.559 361.772Q230.333 361.808 230.105 361.834Q229.876 361.86 229.646 361.874Q229.416 361.889 229.186 361.892Q228.956 361.895 228.726 361.887Q228.496 361.878 228.266 361.859Q228.037 361.839 227.809 361.808Q227.58 361.778 227.354 361.736Q227.128 361.694 226.904 361.641Q226.679 361.587 226.458 361.523Q226.237 361.459 226.019 361.385Q225.801 361.31 225.588 361.224Q225.374 361.139 225.164 361.043Q224.955 360.947 224.751 360.841Q224.546 360.735 224.347 360.619Q224.148 360.503 223.955 360.377Q223.762 360.252 223.576 360.117Q223.389 359.982 223.21 359.838Q223.03 359.694 222.857 359.541Q222.685 359.389 222.52 359.228Q222.356 359.067 222.199 358.898Q222.042 358.729 221.894 358.553Q221.746 358.376 221.607 358.193Q221.468 358.01 221.338 357.819Q221.208 357.629 221.087 357.433Q220.967 357.237 220.856 357.035Q220.745 356.833 220.644 356.626Q220.544 356.419 220.453 356.207Q220.363 355.995 220.283 355.779Q220.203 355.563 220.134 355.344Q220.065 355.124 220.007 354.901Q219.948 354.679 219.901 354.453Q219.854 354.228 219.818 354Q219.782 353.773 219.757 353.544Q219.732 353.315 219.719 353.085Q219.705 352.855 219.703 352.625Q219.701 352.395 219.71 352.164Q219.719 351.934 219.739 351.705Q219.76 351.476 219.791 351.247Q219.823 351.019 219.866 350.793Q219.909 350.567 219.963 350.343Q220.017 350.119 220.081 349.898Q220.146 349.677 220.222 349.459Q220.298 349.242 220.384 349.028Q220.47 348.815 220.567 348.606Q220.664 348.397 220.771 348.193Q220.877 347.989 220.994 347.79Q221.111 347.592 221.237 347.399Q221.364 347.207 221.499 347.021Q221.635 346.834 221.78 346.655Q221.924 346.476 222.078 346.304Q222.231 346.132 222.393 345.968Q222.554 345.804 222.724 345.648Q222.893 345.492 223.07 345.345Q223.247 345.197 223.431 345.059Q223.615 344.92 223.806 344.791Q223.996 344.662 224.193 344.542Q224.39 344.422 224.592 344.312Q224.794 344.202 225.002 344.102Q225.209 344.002 225.422 343.913Q225.634 343.823 225.85 343.744Q226.066 343.665 226.286 343.597Q226.506 343.529 226.729 343.471Q226.953 343.414 227.178 343.368Q227.404 343.321 227.631 343.286Q227.859 343.251 228.088 343.227Z"/>
	<path fill="#FF5D15" transform="scale(2 2)" d="M245.212 385.771C256.735 381.378 264.606 368.628 273.475 362.45C277.615 359.567 281.861 368.055 283.756 370.697L294.356 385.771L300.323 385.473C301.329 394.32 299.641 403.626 299.982 412.561L274.046 413.267C255.987 413.871 238.212 414.07 220.075 414.815C219.886 410.428 219.601 406.098 220.075 401.721C220.041 400.964 220.065 400.207 220.075 399.45C218.548 392.49 218.955 377.38 218.744 369.061C225.2 374.593 237.149 383.096 245.212 385.771ZM285.286 381.671C281.819 378.353 277.724 372.457 274.952 368.384C268.015 376.176 259.931 382.908 251.445 388.952C265.141 394.87 274.236 387.326 284.886 381.873L285.286 381.671Z"/>
	<path transform="scale(2 2)" d="M245.212 385.771C256.735 381.378 264.606 368.628 273.475 362.45C277.615 359.567 281.861 368.055 283.756 370.697L294.356 385.771C295.125 387.214 297.087 389.38 296.736 391.087C295.11 398.993 286.135 383.792 285.286 381.671C281.819 378.353 277.724 372.457 274.952 368.384C268.015 376.176 259.931 382.908 251.445 388.952C241.376 395.023 233.492 399.411 222.432 403.676C221.625 403.045 220.819 402.427 220.075 401.721C220.041 400.964 220.065 400.207 220.075 399.45C218.548 392.49 218.955 377.38 218.744 369.061C225.2 374.593 237.149 383.096 245.212 385.771Z"/>
	<path fill="#FF5D15" transform="scale(2 2)" d="M218.744 369.061C225.2 374.593 237.149 383.096 245.212 385.771C238.388 391.829 223.164 396.023 220.075 399.45C218.548 392.49 218.955 377.38 218.744 369.061Z"/>
	<path transform="scale(2 2)" d="M267.332 204.75C274.539 204.571 304.685 204.289 309.52 207.699C311.226 210.472 310.399 226.891 310.4 230.821L310.407 283.799C310.396 289.277 310.53 295.009 309.882 300.447C309.167 306.453 295.354 304.609 290.231 304.867C275.215 305.624 260.247 306.049 245.212 306.012C240.897 305.981 206.967 306.111 204.707 304.503C200.875 301.776 202.431 227.068 202.667 219.261C202.747 216.598 201.283 209.428 204.937 208.786C209.954 207.905 215.944 208.039 221.12 207.693L249.492 205.754C255.432 205.404 261.412 205.355 267.332 204.75ZM219.235 286.203C217.83 284.719 218.303 282.49 219.235 280.867C219.155 271.717 218.054 259.521 218.744 251.091C223.341 253.627 241.257 265.258 245.212 268.447C251.861 263.398 258.197 258.227 264.131 252.334C266.471 250.01 271.342 242.26 275.009 242.592C277.905 242.854 293.779 266.909 297.208 272.668C298.449 272.156 299.073 272.261 300.323 272.668C301.729 252.969 301.356 233.146 303.673 213.505C281.34 213.413 259.347 215.44 236.703 214.703C227.284 214.396 217.816 213.617 208.402 213.505C208.361 240.563 212.336 269.137 212.779 296.789C215.231 296.921 217.623 297.031 220.075 296.789C220.264 292.99 220.194 289.9 219.235 286.203ZM285.286 265.2C282.062 259.814 277.477 255.037 274.952 249.294C267.325 257.261 259.619 264.64 250.736 271.191C267.321 277.02 271.7 271.039 285.286 265.2Z"/>
	<path fill="#FF5D15" transform="scale(2 2)" d="M228.953 224.61Q229.169 224.569 229.387 224.538Q229.605 224.508 229.824 224.488Q230.043 224.468 230.263 224.459Q230.483 224.449 230.703 224.451Q230.923 224.452 231.142 224.464Q231.362 224.476 231.581 224.499Q231.8 224.522 232.017 224.555Q232.235 224.588 232.45 224.632Q232.666 224.676 232.879 224.73Q233.092 224.784 233.303 224.849Q233.513 224.914 233.72 224.988Q233.927 225.063 234.13 225.148Q234.333 225.232 234.532 225.327Q234.73 225.421 234.924 225.525Q235.118 225.629 235.307 225.742Q235.496 225.855 235.678 225.977Q235.861 226.1 236.038 226.231Q236.215 226.362 236.385 226.501Q236.555 226.64 236.719 226.788Q236.882 226.935 237.038 227.091Q237.194 227.246 237.342 227.409Q237.49 227.571 237.63 227.741Q237.77 227.91 237.902 228.087Q238.033 228.263 238.156 228.445Q238.279 228.628 238.393 228.816Q238.507 229.004 238.612 229.198Q238.717 229.391 238.812 229.589Q238.907 229.788 238.993 229.99Q239.078 230.193 239.154 230.4Q239.229 230.607 239.295 230.817Q239.36 231.027 239.415 231.24Q239.47 231.453 239.515 231.668Q239.56 231.883 239.594 232.101Q239.628 232.318 239.652 232.537Q239.675 232.756 239.688 232.975Q239.701 233.195 239.704 233.415Q239.706 233.635 239.698 233.855Q239.689 234.074 239.67 234.294Q239.651 234.513 239.622 234.731Q239.592 234.949 239.552 235.165Q239.511 235.381 239.461 235.595Q239.41 235.809 239.349 236.021Q239.288 236.232 239.217 236.44Q239.146 236.649 239.065 236.853Q238.983 237.057 238.892 237.258Q238.801 237.458 238.701 237.654Q238.6 237.849 238.49 238.04Q238.38 238.23 238.261 238.415Q238.142 238.6 238.014 238.779Q237.886 238.958 237.749 239.131Q237.613 239.303 237.468 239.469Q237.323 239.635 237.171 239.793Q237.018 239.951 236.858 240.102Q236.698 240.253 236.531 240.396Q236.363 240.539 236.19 240.674Q236.016 240.808 235.835 240.934Q235.655 241.06 235.469 241.178Q235.282 241.295 235.091 241.403Q234.899 241.511 234.702 241.609Q234.506 241.708 234.304 241.797Q234.103 241.885 233.898 241.964Q233.693 242.043 233.484 242.112Q233.275 242.181 233.063 242.24Q232.851 242.299 232.636 242.347Q232.344 242.413 232.048 242.459Q231.751 242.506 231.453 242.532Q231.154 242.559 230.855 242.566Q230.555 242.573 230.256 242.56Q229.956 242.547 229.658 242.514Q229.36 242.482 229.065 242.429Q228.77 242.377 228.479 242.305Q228.188 242.234 227.902 242.143Q227.617 242.052 227.338 241.943Q227.059 241.833 226.787 241.706Q226.516 241.578 226.254 241.433Q225.992 241.287 225.74 241.125Q225.488 240.963 225.247 240.784Q225.007 240.605 224.778 240.411Q224.55 240.217 224.335 240.008Q224.12 239.8 223.919 239.577Q223.718 239.354 223.533 239.119Q223.347 238.884 223.177 238.637Q223.008 238.39 222.855 238.132Q222.702 237.874 222.566 237.607Q222.43 237.339 222.313 237.064Q222.195 236.788 222.096 236.505Q221.997 236.222 221.917 235.933Q221.837 235.644 221.776 235.351Q221.715 235.057 221.673 234.761Q221.632 234.464 221.61 234.165Q221.588 233.866 221.587 233.566Q221.585 233.266 221.603 232.967Q221.62 232.668 221.658 232.371Q221.696 232.073 221.753 231.779Q221.81 231.485 221.887 231.195Q221.963 230.905 222.059 230.621Q222.155 230.337 222.269 230.06Q222.383 229.783 222.515 229.514Q222.647 229.245 222.797 228.985Q222.947 228.725 223.113 228.476Q223.28 228.227 223.462 227.989Q223.645 227.752 223.843 227.527Q224.041 227.301 224.253 227.09Q224.466 226.879 224.692 226.682Q224.918 226.485 225.156 226.303Q225.394 226.121 225.644 225.956Q225.894 225.79 226.155 225.642Q226.415 225.493 226.684 225.362Q226.954 225.231 227.232 225.118Q227.509 225.005 227.794 224.911Q228.078 224.817 228.368 224.741Q228.659 224.666 228.953 224.61Z"/>
	<path fill="#FF5D15" transform="scale(2 2)" d="M245.212 268.447C251.861 263.398 258.197 258.227 264.131 252.334C266.471 250.01 271.342 242.26 275.009 242.592C277.905 242.854 293.779 266.909 297.208 272.668C298.449 272.156 299.073 272.261 300.323 272.668L300.323 294.227C273.254 294.202 246.936 296.454 220.075 296.789C220.264 292.99 220.194 289.9 219.235 286.203C217.83 284.719 218.303 282.49 219.235 280.867C219.155 271.717 218.054 259.521 218.744 251.091C223.341 253.627 241.257 265.258 245.212 268.447ZM285.286 265.2C282.062 259.814 277.477 255.037 274.952 249.294C267.325 257.261 259.619 264.64 250.736 271.191C267.321 277.02 271.7 271.039 285.286 265.2Z"/>
	<path transform="scale(2 2)" d="M245.212 268.447C251.861 263.398 258.197 258.227 264.131 252.334C266.471 250.01 271.342 242.26 275.009 242.592C277.905 242.854 293.779 266.909 297.208 272.668C297.559 274.327 296.786 276.731 294.621 276.432C292.106 276.085 287.198 267.331 285.286 265.2C282.062 259.814 277.477 255.037 274.952 249.294C267.325 257.261 259.619 264.64 250.736 271.191C241.561 276.901 230.119 284.588 219.235 286.203C217.83 284.719 218.303 282.49 219.235 280.867C219.155 271.717 218.054 259.521 218.744 251.091C223.341 253.627 241.257 265.258 245.212 268.447Z"/>
	<path fill="#FF5D15" transform="scale(2 2)" d="M218.744 251.091C223.341 253.627 241.257 265.258 245.212 268.447C237.155 273.421 228.468 278.431 219.235 280.867C219.155 271.717 218.054 259.521 218.744 251.091Z"/>
</svg>
