<?xml version="1.0" encoding="utf-8" ?>
<svg xmlns="http://www.w3.org/2000/svg" xmlns:xlink="http://www.w3.org/1999/xlink" width="1024" height="1024">
	<path transform="scale(2 2)" d="M335.862 120.999C367.956 118.903 407.549 128.53 441.059 129.705C447.061 129.916 454.501 127.732 454.914 136.368C455.151 141.334 454.515 146.491 454.454 151.481C453.818 203.381 457.894 263.838 469.4 313.724C472.933 329.044 483.556 354.238 460.094 359.94C455.146 361.143 449.476 360.621 444.392 360.637L419.511 360.653C380.787 360.639 312.227 361.231 276.231 377.425C272.346 379.173 269.276 382.233 265.603 384.331C265.635 393.067 257.78 394.079 254.536 386.749C231.131 373.213 168.707 376.048 142.545 379.508C129.251 379.692 104.89 385.109 91.6219 387.647C63.835 392.961 54.7666 392.377 55.2053 360.674C55.667 327.307 55.8474 293.524 53.0634 260.286C49.9308 222.888 44.3356 185.912 36.6476 149.182C38.2735 142.284 43.7417 142.831 49.7725 142.332C65.9565 140.994 81.7053 136.86 97.6806 134.129C142.239 126.511 196.284 123.043 233.37 153.497C238.043 157.335 242.131 161.772 246.255 166.177C263.018 132.235 300.077 121.654 335.862 120.999ZM67.2474 345.099C113.865 335.553 155.234 335.025 202.324 345.606C214.342 348.306 229.846 352.529 240.491 358.568C244.769 360.154 249.416 362.65 253.299 365.078C252.57 359.404 252.407 353.583 252.025 347.87C249.081 303.819 246.936 258.949 245.337 214.874C245.003 205.676 245.538 196.444 245.135 187.272C241.987 185.483 239.484 179.29 237.481 176.17C209.06 131.9 135.584 140.596 91.7947 146.36C78.0247 148.173 62.5683 149.932 49.1367 153.122C53.3999 177.141 58.2795 199.987 61.3481 224.454C66.3667 264.469 67.2718 304.823 67.2474 345.099ZM436.807 175.785C423.016 169.017 395.554 169.306 380.15 169.471C369.617 170.642 353.186 171.56 343.718 175.785C344.653 182.12 349.684 227.971 351.935 229.6C354.758 231.642 403.74 231.543 410.445 231.216C415.722 232.107 440.496 234.41 443.712 231.239C447.453 227.551 438.473 180.84 436.807 175.785ZM247.514 186.498C251.22 202.927 252.496 224.457 253.942 241.416L262.283 346.219C262.65 351.695 262.808 357.29 263.905 362.682C266.898 359.89 270.792 356.633 274.491 354.838C276.717 353.122 279.408 351.806 281.861 350.437C327.226 325.121 381.255 317.568 432.529 320.218C441.156 320.664 450.052 320.889 458.551 322.583C458.062 317.838 456.792 313.129 455.784 308.466C450.563 284.326 448.411 262.282 445.437 238.171C435.139 239.845 424.109 238.957 413.708 238.953L358.058 239.015L358.029 239.449C357.828 242.684 358.203 245.979 358.395 249.21L359.521 267.282C359.995 275.771 359.691 284.705 360.831 293.106C362.297 303.91 372.592 300.246 380.482 300.06C391.629 299.798 402.817 300.035 413.967 300.069C418.257 300.082 432.332 298.461 435.433 301.688C436.789 303.1 436.106 305.789 434.627 306.833C432.309 308.469 423.442 307.365 420.584 307.354L388.762 307.333C382.391 307.38 369.074 308.803 363.625 307.637C350.812 304.897 353.935 280.965 353.65 269.571L353.167 249.853C353.101 246.25 352.775 242.6 353.251 239.015C350.49 238.259 348.364 237.073 346.867 234.534C341.644 225.68 330.809 175.407 343.234 168.47C361.783 158.114 422.305 158.342 442.261 170.754C442.462 162.998 442.99 149.803 442.261 142.294C438.484 141.679 434.627 141.577 430.813 141.328C374.04 137.618 287.227 111.738 253.163 176.063C251.316 179.551 249.641 183.171 247.514 186.498Z"/>
	<path transform="scale(2 2)" d="M84.4773 178.758L84.7821 178.516C86.038 177.498 87.0214 176.117 88.2255 175.031C94.2045 169.638 108.919 171.495 116.171 171.584L187.563 172.651C197.736 172.806 216.921 170.531 218.19 184.95C219.666 201.729 219.026 221.641 219.946 239.07L222.94 287.352C223.94 301.822 229.817 313.653 210.631 314.608C201.075 315.084 191.289 314.228 181.695 314.226C159.141 314.221 136.779 314.59 114.27 316.136C109.082 316.492 98.3279 319.007 94.9728 313.545C89.7903 305.109 90.8567 276.351 89.042 264.972C87.9785 273.828 91.037 301.6 88.275 307.855L87.9286 307.889C85.1692 306.118 83.4508 265.835 82.9349 260.363L80.1079 232.387C79.1802 222.958 78.4722 213.515 77.2606 204.113C76.0424 194.659 72.4491 182.65 84.4773 178.758ZM215.681 278.612C212.329 274.606 198.491 261.963 194.24 259.007C188.782 263.652 184.862 269.788 180.155 275.132C169.522 287.205 154.945 294.708 140.004 300.063C150.049 293.871 163.938 281.253 171.493 272.184C166.093 268.513 160.991 264.285 157.092 259.007C155.412 261.408 153.622 263.741 151.96 266.151C145.284 275.97 138.151 285.965 127.623 292C118.768 297.076 105.67 300.84 98.4322 307.777C101.679 296.828 115.254 291.226 124.007 285.099C137.485 275.664 147.522 254.125 154.961 250.078C158.825 247.976 172.784 262.632 176.936 266.151C180.974 259.883 191.102 245.882 199.942 251.686C206.477 255.977 210.148 266.326 215.681 272.184C214.141 265.874 213.864 258.991 213.187 252.539L207.742 198.881C207.377 194.853 208.253 187.472 202.966 186.813C173.145 183.095 139.644 180.794 109.749 179.141C106.124 178.941 102.022 178.379 98.4322 178.758C89.4949 180.523 91.3116 184.306 91.5469 191.807L94.3866 266.685C94.6173 275.024 94.4776 283.46 94.4546 291.809C94.4419 296.43 92.4779 313.514 100.072 313.73C110.633 314.031 121.617 312.085 132.1 310.842C150.833 308.621 169.636 307.27 188.502 307.215C193.26 307.202 214.75 308.882 217.059 304.216C218.242 301.825 216.346 282.221 215.681 278.612Z"/>
	<path fill="#FF5D15" transform="scale(2 2)" d="M89.042 264.972C87.9785 273.828 91.037 301.6 88.275 307.855L87.9286 307.889C85.1692 306.118 83.4508 265.835 82.9349 260.363L80.1079 232.387C79.1802 222.958 78.4722 213.515 77.2606 204.113C76.0424 194.659 72.4491 182.65 84.4773 178.758C83.3417 184.925 84.4297 191.81 84.8257 198.053L88.5089 250.937C88.8367 255.412 89.6519 260.519 89.042 264.972Z"/>
	<path fill="#FF5D15" transform="scale(2 2)" d="M118.925 198.009C127.267 197.749 133.759 207.873 139.103 212.927C142.388 216.034 154.693 221.895 150.595 227.924C147.611 232.316 136.8 233.355 131.81 234.257C123.138 233.857 110.826 235.422 103.26 230.63C94.9459 225.365 102.452 214.97 111.403 213.576C110.812 207.343 112.28 200.139 118.925 198.009Z"/>
	<path fill="#FF5D15" transform="scale(2 2)" d="M168.85 199.998C173.588 200.286 177.217 205.524 180.549 208.375C183.581 210.97 193.104 215.4 188.61 220.422C185.769 223.597 180.068 224.273 176.062 224.508C173.092 224.551 150.61 223.872 154.638 216.374C156.431 213.037 161.931 212.924 165.175 212.063C165.232 207.083 163.991 202.956 168.85 199.998Z"/>
	<path fill="#FF5D15" transform="scale(2 2)" d="M316.497 272.184C321.029 272.167 338.256 270.789 340.066 276.241C339.742 283.619 321.393 281.786 316.918 281.88C310.563 282.013 304.52 282.678 298.306 284.035C295.321 284.587 282.797 288.719 280.721 287.383C278.93 286.231 277.877 283.081 279.328 281.306C283.576 276.107 308.193 273.315 316.497 272.184Z"/>
	<path transform="scale(2 2)" d="M397.782 288.213C394.849 288.917 380.827 291.739 379.075 291.043C377.338 290.354 375.935 287.811 376.96 286.063C382.068 277.357 418.61 279.236 426.776 280.879C430.566 281.641 433.828 281.667 434.65 285.885C436.406 288.512 435.151 290.223 432.344 291.213C421.303 288.869 409.069 287.384 397.782 288.213Z"/>
	<path fill="#FF5D15" transform="scale(2 2)" d="M397.782 288.213C394.849 288.917 380.827 291.739 379.075 291.043C377.338 290.354 375.935 287.811 376.96 286.063C382.068 277.357 418.61 279.236 426.776 280.879C430.566 281.641 433.828 281.667 434.65 285.885C418.448 280.719 402.607 280.494 386.423 285.885C390.098 287.062 394.093 286.915 397.652 288.169L397.782 288.213Z"/>
	<path fill="#FF5D15" transform="scale(2 2)" d="M309.267 221.49C303.837 222.772 298.223 222.82 292.745 224.289C288.541 225.417 279.396 229.082 275.507 228.898C271.262 228.696 270.389 224.565 273.511 222.227C280.605 216.913 306.287 211.548 314.957 212.757C318.639 212.76 326.051 212.574 328.841 215.224C331.569 217.817 328.859 221.614 325.621 221.941C321.312 222.375 314.488 221.212 309.267 221.49Z"/>
	<path transform="scale(2 2)" d="M309.945 232.773C313.298 232.802 338.604 231.177 332.353 240.351C329.495 244.547 319.763 241.04 315.743 240.814C308.554 240.411 301.067 241.834 294.002 243.036C288.617 244.293 281.945 246.841 277.098 247.728C274.626 248.18 272.808 245.218 274.243 243.141C278.059 237.619 301.725 234.423 309.945 232.773Z"/>
	<path transform="scale(2 2)" d="M309.267 192.258C313.56 192.114 320.919 191.919 324.925 193.139C330.089 194.712 327.923 200.271 323.525 200.804C320.087 201.221 315.511 199.97 311.789 199.981C302.59 200.01 293.535 202.029 284.634 204.151C281.372 205.062 271.7 209.387 269.021 206.1C266.516 198.981 303.764 192.879 309.267 192.258Z"/>
	<path transform="scale(2 2)" d="M325.121 289.541C328.119 289.273 344.348 288.489 338.923 296.071C336.881 298.926 331.36 297.912 328.372 297.819C316.675 297.458 305.519 298.582 294.002 300.787C291.484 301.293 284.677 304.172 282.417 302.413C281.398 301.619 281.393 299.653 282.261 298.761C286.033 294.884 316.096 289.688 325.121 289.541Z"/>
	<path transform="scale(2 2)" d="M394.015 245.74C397.226 245.335 440.546 244.669 428.519 254.739C426.017 255.467 410.712 253.253 406.993 252.848C398.254 253.335 390.065 252.487 381.432 255.165C379.365 255.807 375.405 257.477 373.409 256.181C364.205 250.201 392.276 245.997 394.015 245.74Z"/>
	<path transform="scale(2 2)" d="M396.507 263.014C402.37 262.95 441.952 263.521 432.391 271.58C430.246 273.388 414.433 270.392 410.445 269.992C397.906 269.738 390.627 270.257 378.284 273.587C376.41 273.014 373.458 271.264 375.374 268.961C378.45 265.266 391.581 263.476 396.507 263.014Z"/>
	<path transform="scale(2 2)" d="M302.753 254.801C307.322 253.404 345.121 248.09 337.764 258.784C335.497 262.08 328.499 260.106 325.377 259.729C316.532 258.663 307.73 258.567 299.21 261.584C297.474 257.794 299.514 256.655 302.753 254.801Z"/>
	<path fill="#FF5D15" transform="scale(2 2)" d="M294.002 255.898C296.739 255.475 300.001 254.613 302.753 254.801C299.514 256.655 297.474 257.794 299.21 261.584C298.184 262.057 297.153 262.522 296.136 263.014C292.585 263.713 281.341 268.923 278.636 267.511C267.847 261.878 292.224 256.339 294.002 255.898Z"/>
	<path fill="#FF5D15" transform="scale(2 2)" d="M362.877 180.082C373.197 180.075 383.534 179.892 393.844 180.393C407.599 181.063 405.015 178.87 406.591 191.378C406.955 194.265 411.653 222.471 411.091 223.484C410.359 223.933 409.64 223.887 408.812 223.912C400.979 224.349 375.422 223.569 367.005 222.437L367.105 222.35L366.106 222.294C364.246 218.818 358.807 182.473 359.974 180.636C360.842 180.101 361.883 180.151 362.877 180.082ZM376.589 210.22L390.506 210.251C392.901 210.261 395.401 210.462 397.782 210.22C395.636 203.816 395.251 196.993 394.015 190.373L374.291 190.373C374.267 198.208 375.58 202.797 376.589 210.22Z"/>
	<path fill="#FF5D15" transform="scale(2 2)" d="M67.2474 356.687C117.656 344.088 181.693 344.147 231.505 356.026C234.534 356.748 237.408 358.065 240.491 358.568C244.769 360.154 249.416 362.65 253.299 365.078C253.52 367.573 253.318 370.224 253.299 372.736C202.805 356.609 134.885 368.023 84.0276 376.836C72.4329 378.846 66.932 382.143 67.1967 366.484C67.2519 363.219 67.2384 359.951 67.2474 356.687Z"/>
	<path fill="#FF5D15" transform="scale(2 2)" d="M274.491 354.838C279.654 353.724 284.53 351.042 289.485 349.246C334.62 332.887 383.632 329.707 431.229 332.12C440.366 332.583 453.103 333.084 462.052 335.075C464.832 352.105 452.086 348.753 439.638 348.74L412.256 348.719C375.378 348.713 295.975 349.906 263.905 371.027C263.898 368.249 263.844 365.459 263.905 362.682C266.898 359.89 270.792 356.633 274.491 354.838Z"/>
</svg>
