<?xml version="1.0" encoding="utf-8" ?>
<svg xmlns="http://www.w3.org/2000/svg" xmlns:xlink="http://www.w3.org/1999/xlink" width="2176" height="2176">
	<path transform="scale(4.25086 4.25086)" d="M96.2816 180.13C99.7165 180.147 107.555 179.498 109.922 182.164C113.35 186.023 113.859 221.513 113.75 227.749C126.495 228.924 141.764 227.439 155.431 228.205C182.69 229.735 176.743 231.834 176.324 255.749C176.122 267.319 176.249 278.92 176.25 290.494C185.363 290.543 227.35 289.282 232.976 294.293C235.447 296.494 234.689 300.054 234.611 302.967L233.388 348.819C233.146 357.352 233.488 366.578 233.417 375.234L233.363 409.733C233.366 415.946 233.207 422.177 233.364 428.387C238.645 428.577 245.432 427.93 249.569 431.68L249.569 434.254C248.924 435.844 248.213 436.941 246.965 438.133C243.187 439.239 238.919 438.307 235.055 438.09C220.479 437.27 205.907 437.263 191.312 437.309C150.519 437.156 109.949 440.973 69.2315 442.616C63.474 442.848 51.557 444.973 46.7501 441.026C40.2635 435.7 53.9239 434.401 56.2934 434.254L56.0689 433.22C50.2318 406.148 52.079 378.449 52.0822 350.781L52.0878 243.506C52.0866 233.547 50.8166 184.608 51.4374 183.647C51.9058 183.376 92.3726 180.185 96.2816 180.13ZM175.865 322.743C188.721 320.655 213.912 314.996 225.103 322.743C215.465 327.993 193.908 326.17 182.775 325.28C181.815 325.203 176.292 324.433 176.051 325.211C175.231 327.868 176.279 343.227 176.25 347.5C192.282 343.507 209.099 340.586 225.103 346.283C219.612 348.842 215.503 348.729 210.748 350.454C198.267 350.995 188.55 350.724 176.25 350.454C176.838 356.538 177.491 363.639 176.726 369.72C192.752 367.316 209.392 362.508 225.103 368.953C224.984 346.045 226.481 322.843 226.243 300.16C214.332 298.571 188.109 297.765 175.865 298.38L175.865 322.743ZM110.268 431.68C109.944 430.057 109.406 428.5 108.896 426.928C97.4693 426.595 75.095 429.318 66.187 425.813C65.1922 420.054 65.7967 412.139 65.8012 406.131L65.7923 367.289C65.7767 364.596 65.5178 361.936 65.3936 359.249L64.6077 340.427C63.8481 320.265 63.489 290.658 65.7923 271.255C79.4271 271.811 92.3531 266.691 107.535 270.533C107.537 266.591 107.968 236.466 107.282 235.833C106.464 235.077 105.462 234.869 105.086 233.664C102.776 226.254 107.436 197.593 105.151 185.752C91.4271 185.242 65.888 189.768 54.2464 185.752C58.9909 242.621 59.6464 296.447 60.0331 353.551C60.1671 373.338 60.7047 393.135 60.6674 412.922C60.6537 420.166 58.8567 427.33 58.8725 434.254L92.5185 432.554C98.4014 432.24 104.384 431.587 110.268 431.68ZM111.783 274.711C129.399 271.866 150.808 268.887 168.321 273.605C169.078 266.94 168.285 259.825 168.321 253.099C154.218 255.381 144.874 254.079 132.442 255.321C125.1 253.791 117.632 253.241 110.268 251.568C128.268 249.4 151.526 243.952 168.321 253.099C168.334 248.01 168.492 242.874 168.321 237.79C149.903 236.492 128.631 235.428 110.268 235.526C110.118 248.596 111.782 261.648 111.783 274.711ZM169.836 318.892C149.632 327.673 133.271 322.097 113.75 322.743C113.004 333.109 114.013 344.469 114.365 354.886C115.011 374 115.943 395.325 115.158 414.433C114.928 420.015 114.39 425.625 114.502 431.212C133.557 428.432 152.888 429.674 171.968 427.75C171.759 426.669 171.534 425.606 171.474 424.504L135.484 425.863C115.498 426.475 118.532 429.675 118.538 409.179L118.531 350.147C118.522 345.653 117.299 339.061 119.091 334.815C126.386 329.572 157.992 330.098 169.342 329.301L169.836 329.264L169.836 318.892ZM169.437 299.191C153.024 302.465 129.458 303.207 112.75 299.191C112.736 301.85 112.76 320.312 113.75 321.379C131.481 317.539 152.14 312.792 169.836 318.892C169.69 312.697 169.039 305.481 169.543 299.399L169.437 299.191ZM168.321 277.704C156.902 278.573 145.878 279.256 134.366 278.617C126.788 278.197 119.326 277.061 111.783 276.516C111.889 283.685 112.032 291.256 112.75 298.38C123.284 295.078 155.507 290.599 166.441 295.809C167.459 295.735 168.419 295.728 169.437 295.809C168.93 289.836 169.218 283.599 168.321 277.704ZM177.592 373.648C177.32 380.214 177.858 386.76 177.592 393.33L180.062 393.33C194.096 389.962 211.196 388.428 225.103 393.33C225.06 390.501 225.487 371.415 224.725 370.501C213.999 375.539 189.511 375.112 177.592 373.648ZM176.25 417C190.624 412.066 211.331 409.664 225.103 416.157C222.292 417.04 219.481 417.916 216.653 418.743C203.039 420.917 189.622 421.425 175.865 420.506C175.637 422.937 175.701 425.318 175.865 427.75C183.48 428.353 191.353 427.741 199.003 427.741L213.783 427.787C217.762 427.838 221.668 428.007 225.645 427.75C225.174 416.988 225.315 406.273 225.037 395.52C224.938 395.429 224.856 395.292 224.725 395.264C209.257 401.339 193.598 399.134 177.592 399.982C177.389 405.64 176.879 411.376 176.25 417Z"/>
	<path fill="#FE5D15" transform="scale(4.25086 4.25086)" d="M65.7923 271.255C79.4271 271.811 92.3531 266.691 107.535 270.533C107.327 290.029 107.526 309.538 107.597 329.035L107.769 381.424C107.928 395.831 109.4 412.957 108.896 426.928C97.4693 426.595 75.095 429.318 66.187 425.813C65.1922 420.054 65.7967 412.139 65.8012 406.131L65.7923 367.289C65.7767 364.596 65.5178 361.936 65.3936 359.249L64.6077 340.427C63.8481 320.265 63.489 290.658 65.7923 271.255Z"/>
	<path transform="scale(4.25086 4.25086)" d="M87.4418 224.295C90.3664 223.996 91.6407 224.125 93.37 226.692C94.3798 230.654 95.4147 237.584 91.132 240.005C89.1091 240.31 88.1078 240.004 86.3454 239.045C84.2714 235.457 83.0001 226.749 87.4418 224.295Z"/>
	<path transform="scale(4.25086 4.25086)" d="M88.7472 247.542C91.3233 247.118 93.2731 247.854 95.1669 249.649C95.3743 254.303 96.3137 259.795 92.2846 263.127C83.0367 262.635 83.9585 250.025 88.7472 247.542Z"/>
	<path transform="scale(4.25086 4.25086)" d="M87.4418 201.269C90.2665 201.115 91.7216 202.048 93.37 204.395C93.4476 208.6 94.5762 214.12 90.3713 216.682C82.4884 217.952 81.4117 203.784 87.4418 201.269Z"/>
	<path transform="scale(4.25086 4.25086)" d="M71.1779 248.25C80.1232 247.137 79.671 260.693 74.7949 263.553C67.0188 265.063 66.1973 251.332 71.1779 248.25Z"/>
	<path transform="scale(4.25086 4.25086)" d="M71.1779 202.737C79.7679 201.371 78.7368 215.852 73.3637 217.895C65.8283 217.878 65.7959 203.317 71.1779 202.737Z"/>
	<path transform="scale(4.25086 4.25086)" d="M71.1779 225.192C78.5173 224.244 79.0365 237.401 73.3637 240.005C66.1764 241.461 64.7549 226.867 71.1779 225.192Z"/>
	<path fill="#FE5D15" transform="scale(4.25086 4.25086)" d="M171.474 424.504L135.484 425.863C115.498 426.475 118.532 429.675 118.538 409.179L118.531 350.147C118.522 345.653 117.299 339.061 119.091 334.815C126.386 329.572 157.992 330.098 169.342 329.301L169.836 329.264C169.54 350.753 169.787 372.398 170.375 393.881C170.653 404.013 171.922 414.391 171.474 424.504Z"/>
	<path transform="scale(4.25086 4.25086)" d="M137.643 162.181C131.376 162.393 114.406 166.547 111.677 158.697C110.57 155.512 108.448 125.449 114.194 123.078C117.594 121.675 135.396 121.595 140.581 121.4L184.885 120.079C199.414 119.516 199.401 120.054 213.314 115.471L306.93 83.4758C323.483 77.7389 340.004 71.8772 356.731 66.6648C359.856 67.7209 362.917 69.6043 365.889 71.0636L387.764 82.0282C399.66 88.1277 430.007 101.71 439.611 109.75C442.497 109.747 445.396 109.787 448.279 109.682C459.889 109.259 459.442 108.07 460.018 119.518C469.091 121.898 463.352 151.307 462.1 151.903C458.308 153.704 435.358 151.183 429.25 151.256C428.98 155.51 429.197 159.723 429.225 163.978L429.334 184.216C429.384 188.495 429.594 192.815 429.25 197.083C425.244 198.908 430.992 197.85 433.34 198.813C439.496 201.34 439.856 213.718 432.128 216.078C432.541 219.134 432.702 222.112 432.717 225.192C439.354 229.001 466.716 251.121 466.204 256.426C465.451 264.226 442.493 262.324 436.779 262.521C429.5 262.77 395.368 265.486 391.464 260.026C387.559 254.563 396.794 248.382 400.151 245.419C407.375 239.043 418.197 229.433 426.365 224.295C425.942 221.535 425.117 218.875 424.963 216.078C413.287 213.721 415.371 199.918 424.963 198.374C424.924 195.012 425.159 191.653 425.139 188.291L424.963 150.399L424.791 148.769C413.405 148.498 399.934 148.553 388.623 148.928C383.371 148.928 378.097 149.307 372.858 148.928C374.288 157.805 373.949 166.594 373.94 175.554L374.761 399.415C374.764 405.273 374.027 413.548 374.75 419.118C382.318 419.364 401.248 417.397 407.4 419.093C411.609 420.254 413.59 425.172 415.937 428.387C419.686 428.402 424.374 427.698 427.276 430.492C430.669 440.739 417.211 438.528 411.194 438.777L327.998 442.702C314.847 443.369 301.649 444.321 288.489 444.671C282.915 444.82 278.437 442.23 281.943 436.475L282.038 436.316C284.933 434.496 287.785 434.466 291.079 434.254L291.262 433.976C294.024 429.72 295.655 422.394 301.228 421.176C308.059 419.683 328.394 419.988 336.37 419.747L334.463 160.439C334.448 157.244 334.059 153.537 334.475 150.399C333.092 148.387 289.527 151.557 286.18 152.328C277.63 152.094 268.29 153.417 259.699 153.965L236.716 155.477C230.322 155.881 223.911 156.173 217.553 156.971C209.624 156.592 180.755 158.12 173.288 159.767C170.243 159.811 167.317 160.033 164.3 160.471C155.986 160.231 145.927 161.075 137.643 162.181ZM119.663 154.628C121.391 154.53 123.081 154.392 124.792 154.131C125.335 147.737 124.794 141.205 124.792 134.785C130.211 133.89 135.854 133.727 141.329 133.289C172.818 130.772 204.482 129.553 236.068 129.554L290.642 129.563C305.051 129.57 319.698 127.721 334.475 127.748C334.37 125.642 334.371 123.584 334.475 121.478C318.986 121.813 303.416 122.076 287.945 122.798L138.204 130.19C132.046 130.466 125.804 130.401 119.663 130.937L119.663 154.628ZM424.963 110.761C420.686 108.093 416.165 105.935 411.732 103.55L367.103 79.82C364.923 78.6372 362.53 76.9172 360.212 76.1186C363.116 88.6987 366.627 101.942 371.707 113.764C386.207 113.586 407.903 112.533 421.92 110.761L424.963 110.761ZM339.373 116.574C343.189 115.832 346.953 115.533 350.83 115.307C355.903 114.959 361.054 114.238 366.142 114.375C364.158 107.224 355.493 77.7541 354.876 77.1742C350.359 89.6917 342.372 104.623 339.373 116.574ZM340.873 280.932C344.728 282.725 348.462 284.936 351.831 287.54C357.047 290.748 362.454 293.856 367.248 297.682L367.259 272.803C367.267 270.421 367.758 265.071 367.248 263.127C358.864 266.816 349.202 275.925 340.873 280.932ZM354.876 309.471C358.419 307.049 361.749 304.329 365.18 301.753C361.887 298.386 345.568 287.629 340.455 284.417C339.824 295.184 340.4 309.066 340.873 320.142C345.617 316.759 350.411 313.214 354.876 309.471ZM300.733 434.254C304.314 434.27 307.881 434.036 311.438 433.625C316.343 433.76 321.297 433.385 326.198 433.157L345.101 432.409C365.634 431.653 386.268 431.155 406.753 429.559C405.971 428.474 405.214 427.72 404.143 426.928C401.314 426.801 398.477 426.657 395.653 426.928C369.032 427.306 342.382 428.352 315.765 428.421C311.98 428.431 308.202 428.622 304.422 428.387C303.141 430.302 301.78 432.197 300.733 434.254ZM340.873 163.009C344.763 166.102 348.965 168.765 352.955 171.72C357.252 174.634 361.596 177.617 366.142 180.13C366.424 176.618 366.157 173.025 366.148 169.5L366.142 148.928L362.309 148.928C354.346 152.326 348.225 158.72 340.873 163.009ZM342.258 239.045C345.65 241.713 349.247 244.304 352.955 246.514C357.547 250.132 362.56 253.168 367.248 256.648C367.035 251.976 366.629 222.838 366.142 222.284L352.813 231.223C349.367 233.546 345.012 235.934 342.258 239.045ZM342.258 399.982C346.387 396.689 350.579 393.448 354.876 390.379C357.773 388.32 360.659 386.243 363.602 384.252C355.926 379.754 349.191 372.92 342.258 368.953C341.117 379.153 342.938 389.689 342.258 399.982ZM340.873 328.023C340.501 338.987 341.496 350.008 341.42 360.985C346.84 358.243 351.396 353.994 356.731 351.123C359.755 348.366 363.229 346.201 366.632 343.953C359.216 339.439 348.443 331.419 340.873 328.023ZM346.331 402.901L354.876 409.077C358.799 411.492 362.183 414.659 366.142 417C365.185 407.674 366.657 398.084 366.142 388.696C359.55 393.392 353.409 398.933 346.331 402.901ZM432.717 234.576C431.324 233.55 429.846 232.561 428.616 231.342C420.007 239.838 408.784 245.877 401.116 255.321C402.69 255.31 404.274 255.264 405.846 255.321C414.827 249.846 422.855 240.736 432.717 234.576ZM339.373 199.486C344.745 197.172 349.816 193.289 354.876 190.311C358.257 188.291 361.759 186.366 364.721 183.746C356.035 178.947 346.385 170.555 339.373 166.956C338.549 172.111 338.993 193.601 339.373 199.486ZM366.632 216.078C366.674 212.889 366.901 189.457 366.142 188.268C357.986 192.718 350.34 198.156 342.258 202.737L351.831 207.874C356.616 210.865 361.647 213.444 366.632 216.078ZM451.772 117.653C444.604 117.64 437.443 118.252 430.28 118.532L395.073 119.667C388.043 119.916 379.781 120.871 372.858 120.139C372.846 122.001 372.782 123.88 372.858 125.74C380.738 126.123 388.934 124.828 396.804 124.266C411.462 123.219 430.473 121.797 444.864 121.898C447.03 121.913 449.675 122.364 451.772 121.996C451.752 120.549 451.706 119.099 451.772 117.653ZM334.475 116.574C336.356 112.072 351.851 75.1268 351.331 72.5275L350.83 72.5124C343.684 74.7758 336.641 77.4057 329.568 79.8885L226.253 116.072C218.677 118.787 215.804 120.043 216.653 120.139C224.271 119.79 231.904 119.77 239.527 119.567L296.357 118.171C309.043 117.862 321.803 116.549 334.475 116.574ZM338.721 127.3C347.9 127.56 357.014 125.806 366.142 126.214C366.185 124.399 366.287 122.563 366.142 120.753C356.973 121.234 347.902 121.494 338.721 121.478C338.717 123.418 338.686 125.361 338.721 127.3ZM363.602 219.064C355.864 214.36 347.548 209.783 339.373 205.841L339.373 235.526C344.227 232.287 349.013 228.888 353.954 225.787C357.144 223.708 360.829 221.665 363.602 219.064ZM338.721 150.399C338.898 153.536 338.824 156.63 338.721 159.767C343.646 156.914 347.91 153.155 352.955 150.399L354.876 148.928C351.412 149.17 338.732 147.943 338.721 150.399ZM342.749 364.294C346.16 366.587 349.774 368.722 352.955 371.329C357.631 374.433 361.808 378.336 366.632 381.189C366.554 378.157 367.019 349.328 366.632 348.956C363.492 350.515 345.458 361.965 342.749 364.294ZM367.248 305.257C358.987 311.536 350.54 317.518 342.258 323.749C345.261 325.95 348.219 328.204 351.831 329.264C356.114 333.167 361.734 336.135 366.632 339.254C367.35 332.904 368.066 307.594 367.248 305.257ZM358.605 419.118C358.45 418.77 344.129 408.494 342.749 407.456C342.613 411.552 342.76 415.651 342.749 419.747C348.08 419.762 353.292 419.519 358.605 419.118ZM426.365 204.395C421.063 206.017 422.509 209.929 428.616 209.751C429.435 209.763 430.253 209.782 431.072 209.751C431.426 205.054 431.522 203.462 426.365 204.395ZM339.764 242.321L339.789 263.181C339.832 267.57 339.663 272.196 340.455 276.516C345.182 273.012 349.938 269.504 354.876 266.302C358.017 263.79 361.374 261.603 364.721 259.381C359.189 255.895 344.14 244.221 339.764 242.321Z"/>
	<path fill="#FE5D15" transform="scale(4.25086 4.25086)" d="M460.018 119.518C469.091 121.898 463.352 151.307 462.1 151.903C458.308 153.704 435.358 151.183 429.25 151.256C428.544 144.449 453.574 152.256 458.505 148.255C461.165 146.097 459.916 123.825 460.018 119.518Z"/>
	<path fill="#FE5D15" transform="scale(4.25086 4.25086)" d="M334.475 127.748L334.475 141.688C326.976 141.4 319.353 141.99 311.86 142.356L144.645 152.769C138.049 153.239 131.402 154.042 124.792 154.131C125.335 147.737 124.794 141.205 124.792 134.785C130.211 133.89 135.854 133.727 141.329 133.289C172.818 130.772 204.482 129.553 236.068 129.554L290.642 129.563C305.051 129.57 319.698 127.721 334.475 127.748Z"/>
	<path fill="#FE5D15" transform="scale(4.25086 4.25086)" d="M451.772 121.996L451.789 132.837C451.815 135.314 451.986 137.846 451.772 140.314L372.858 140.314C373.067 135.449 372.701 130.599 372.858 125.74C380.738 126.123 388.934 124.828 396.804 124.266C411.462 123.219 430.473 121.797 444.864 121.898C447.03 121.913 449.675 122.364 451.772 121.996Z"/>
	<path fill="#FE5D15" transform="scale(4.25086 4.25086)" d="M432.717 234.576L446.395 246.085C449.721 248.874 453.14 251.569 456.156 254.699C440.128 253.795 421.463 257.348 405.846 255.321C414.827 249.846 422.855 240.736 432.717 234.576Z"/>
	<path fill="#FE5D15" transform="scale(4.25086 4.25086)" d="M366.142 126.214L366.142 140.314C357.617 140.73 347.114 141.435 338.721 141.066L338.721 127.3C347.9 127.56 357.014 125.806 366.142 126.214Z"/>
</svg>
