<?xml version="1.0" encoding="utf-8" ?>
<svg xmlns="http://www.w3.org/2000/svg" xmlns:xlink="http://www.w3.org/1999/xlink" width="1024" height="1024">
	<path fill="#303030" transform="scale(2 2)" d="M251.127 68.1694C263.525 67.5991 276.478 68.6193 288.647 70.9908C362.476 85.378 421.533 141.354 438.857 214.225C459.002 298.958 415.624 386.935 337.512 424.634C301.163 442.177 258 446.977 218.556 439.309C198.466 433.52 186.197 430.901 166.489 420.947C161.371 422.118 156.317 424.031 151.265 425.511L110.55 437.758C100.588 440.778 90.3197 446.119 80.0349 441.555C61.0284 433.12 69.9282 413.736 74.4964 400.001C77.3658 391.373 80.0266 382.667 82.8367 374.018L88.513 356.256C89.5134 353.101 90.348 349.669 91.7119 346.658C57.5102 280.292 61.0365 203.41 106.712 142.896C140.553 98.0609 194.785 69.4293 251.127 68.1694ZM119.197 392.634C130.717 389.63 142.043 385.801 153.454 382.39C175.762 375.722 169.807 377.303 190.886 387.569C204.086 393.998 217.331 398.272 231.756 400.94C275.675 408.035 319.424 395.25 353.237 366.197C411.537 316.105 419.794 230.71 374.779 168.891C347.294 131.145 301.224 107.373 254.339 108.377C148.433 111.442 76.9551 220.742 122.737 318.715C126.085 325.881 133.516 335.193 133.276 343.012C133.05 350.377 122.339 382.49 119.197 392.634Z"/>
	<path fill="#303030" transform="scale(2 2)" d="M203.152 177.871C222.873 176.377 226.271 193.807 231.595 207.634C233.386 212.283 236.018 216.501 238.105 221.01C245.301 236.56 229.876 236.57 225.941 247.847C228.592 259.131 243.928 273.694 253.427 280.296C273.587 294.311 270.852 272.973 286.731 274.133C291.624 274.491 299.36 278.526 304.354 280.152C310.326 282.096 317.094 282.612 322.738 285.33C339.971 293.627 338.722 313.863 324.896 325.691C300.514 344.476 263.997 332.886 240.233 319.031C206.218 299.201 182.601 264.525 177.969 225.179C175.49 204.124 177.741 180.826 203.152 177.871Z"/>
</svg>
