<svg width="160" height="35" viewBox="0 0 160 35" fill="none" xmlns="http://www.w3.org/2000/svg">
<path d="M20.6721 23.9861C20.6721 23.9861 15.4993 26.7189 11.6485 26.2427C9.19958 25.9381 9.43915 22.4156 9.39182 21.0877C9.06945 11.7446 12.2932 0.141968 12.2932 0.141968H2.79047C2.79047 0.141968 0.436227 7.5123 0.0517397 17.5415C-0.270638 25.9204 1.01887 33.6515 1.01887 33.6515H23.5735C23.5735 33.6515 23.5735 30.4307 22.9287 28.4964C22.284 26.5622 20.6721 23.9861 20.6721 23.9861Z" fill="#3D87DB"/>
<path d="M40.136 6.44164C43.5195 6.60431 48.0298 8.37591 48.0298 8.37591L50.6089 1.12684C50.6089 1.12684 42.715 0 39.0092 0C39.0358 0 29.6632 0.804466 29.6632 0.804466C29.6632 0.804466 27.2468 7.40878 26.4394 15.6279C25.7177 22.9864 27.0841 33.8349 27.0841 33.8349H48.6746C48.6746 33.8349 49.1596 31.9006 48.6746 29.1619C48.4498 27.8931 46.4179 25.2963 46.4179 25.2963L37.2346 25.9411C37.2346 25.9411 35.1406 25.9411 34.4959 23.0426C34.2445 21.9069 34.8183 20.1442 36.7525 19.3368C38.6868 18.5293 43.8419 19.3368 43.8419 19.3368C43.8419 19.3368 46.0985 18.3696 46.2582 15.9533C46.3736 14.2231 45.2911 12.4101 45.2911 12.4101C45.2911 12.4101 36.3769 14.439 34.6585 12.4101C34.0256 11.6618 34.4988 9.67134 35.3033 8.54449C35.9658 7.61581 36.7525 6.28785 40.136 6.45052V6.44164Z" fill="#3D87DB"/>
<path d="M64.7848 0.322355C64.7848 0.322355 52.7 7.41171 52.0553 17.0771C51.5939 24.0068 53.6672 33.6722 53.6672 33.6722H62.2057C62.2057 33.6722 59.9491 29.644 60.2715 27.2276C60.5938 24.8112 61.0789 23.1994 65.4266 23.1994C69.7742 23.1994 70.0996 24.1665 69.2921 28.0321C68.4877 31.8976 67.5205 33.6722 67.5205 33.6722H77.671C77.671 33.6722 78.8067 20.153 77.1889 13.0489C75.0949 3.86555 64.7848 0.319397 64.7848 0.319397V0.322355ZM60.9192 15.7906C60.9192 15.7906 60.9192 13.6966 61.8863 11.7623C62.5488 10.4344 64.7877 8.70122 64.7877 8.70122C64.7877 8.70122 67.2041 10.1504 68.3309 12.0847C69.1354 13.4629 69.298 15.7906 69.298 15.7906H60.9192Z" fill="#3D87DB"/>
<path d="M95.3334 0.70982C86.9901 -0.53237 82.6661 1.24219 82.6661 1.24219C82.6661 1.24219 80.5425 7.63355 80.5721 17.3995C80.5987 25.4767 82.184 33.6722 82.184 33.6722C82.184 33.6722 91.1011 34.8523 95.2329 33.6722C98.6164 32.7051 107.034 29.9634 106.028 17.5622C104.919 3.90698 97.7646 1.0736 95.3334 0.70982ZM96.0433 24.3233C93.1951 26.5148 89.9181 25.5122 89.9181 25.5122C89.9181 25.5122 88.951 25.7784 88.6286 17.7219C88.3831 11.5701 89.2733 8.24282 89.2733 8.24282C89.2733 8.24282 94.2687 6.56586 96.3982 12.1587C97.8622 15.9976 98.3502 22.5457 96.0433 24.3203V24.3233Z" fill="#3D87DB"/>
<path d="M152.915 17.7189C152.915 17.7189 157.484 14.6933 157.322 9.18036C157.12 2.30691 154.033 1.31908 151.261 0.842903C142.741 -0.621106 136 1.60892 136 1.60892C136 1.60892 133.152 8.58589 133.421 17.0771C133.631 23.6815 133.581 33.5894 133.581 33.5894H143.246C143.246 33.5894 143.087 25.6187 143.087 24.6515C143.087 23.6844 143.409 22.2352 144.536 22.5576C145.663 22.8799 150.336 33.5628 150.336 33.5628H159.359C159.359 33.5628 158.715 27.5529 157.425 24.4918C156.136 21.4307 152.915 17.7249 152.915 17.7249V17.7189ZM147.437 13.8534C146.31 14.4981 142.12 14.4981 142.12 14.4981C141.957 13.531 142.279 10.1475 142.764 9.18036C143.246 8.21323 145.663 6.44163 148.082 8.37294C150.498 10.3072 148.564 13.2057 147.437 13.8504V13.8534Z" fill="#3D87DB"/>
<path d="M122.2 6.44164C125.584 6.60431 130.094 8.37591 130.094 8.37591L132.673 1.12684C132.673 1.12684 124.779 0 121.074 0C121.1 0 111.731 0.804466 111.731 0.804466C111.731 0.804466 109.314 7.40878 108.51 15.6279C107.788 22.9864 109.154 33.8349 109.154 33.8349H130.742C130.742 33.8349 131.227 31.9006 130.742 29.1619C130.517 27.8931 128.485 25.2963 128.485 25.2963L119.302 25.9411C119.302 25.9411 117.208 25.9411 116.563 23.0426C116.312 21.9069 116.886 20.1442 118.82 19.3368C120.754 18.5323 125.909 19.3368 125.909 19.3368C125.909 19.3368 128.166 18.3696 128.326 15.9533C128.441 14.2231 127.358 12.4101 127.358 12.4101C127.358 12.4101 118.444 14.439 116.726 12.4101C116.093 11.6618 116.566 9.67134 117.371 8.54449C118.033 7.61581 118.82 6.28785 122.203 6.45052L122.2 6.44164Z" fill="#3D87DB"/>
</svg>
