<?xml version="1.0" encoding="utf-8" ?>
<svg xmlns="http://www.w3.org/2000/svg" xmlns:xlink="http://www.w3.org/1999/xlink" width="1024" height="1024">
	<path fill="#303030" transform="scale(2 2)" d="M181.216 67.2529C215.926 64.7683 241.876 100.139 256.3 127.029C266.496 102.121 295.405 67.7061 324.423 67.2247C352.578 66.7575 378.405 88.3342 378.525 117.331C378.609 137.365 369.804 149.25 356.348 162.74C368.558 162.616 380.779 162.761 392.991 162.745C412.619 162.719 434.215 161.455 440.173 186.839C441.916 194.264 441.162 206.988 441.158 215.029C441.147 236.907 441.428 257.509 414.971 263.685C414.697 267.838 414.943 272.081 414.959 276.245L414.983 392.993C414.999 412.046 411.908 433.903 387.313 435.865C368.861 436.869 347.99 435.865 329.263 435.865L137.556 435.873C119.628 435.866 102.292 431.918 98.0835 410.725C97.0287 405.414 97.5521 399.331 97.5548 393.927L97.57 263.008C67.8007 255.938 70.6351 235.705 70.6526 212.322C70.6626 198.967 68.684 183.993 78.6576 173.391C89.2958 162.083 103.342 163.756 117.534 163.753C131.092 163.75 144.738 164.102 158.285 163.763C146.581 153.217 137.206 142.401 134.563 126.247C129.631 96.0985 152.276 71.7858 181.216 67.2529ZM271.731 263.685L271.731 405.872L363.688 405.872L376.503 405.895C378.722 405.899 381.061 406.064 383.264 405.872L383.264 263.685L291.129 263.685L271.731 263.685ZM129.044 405.872C142.587 405.515 156.201 405.873 169.751 405.876L240.549 405.872C240.97 404.988 240.547 390.718 240.547 388.748L240.544 277.367C240.543 272.818 240.375 268.228 240.549 263.685L129.044 263.685C128.566 268.402 129.047 273.069 129.054 277.797L129.044 405.872ZM102.336 232.376L240.549 232.376L240.549 193.844L102.336 193.844L102.336 232.376ZM325.748 97.5657C303.459 99.9715 277.514 141.284 273.291 160.75C280.511 161.141 287.524 159.057 293.31 159.463C297.826 157.324 302.733 156.34 307.378 154.514C321.714 148.879 341.305 137.664 346.816 122.517C351.498 109.649 339.356 94.3697 325.748 97.5657ZM182.396 97.5657C170.909 99.4194 162.745 109.621 164.746 121.323C168.443 142.94 204.403 155.146 222.271 159.463C227.79 160.526 232.971 160.783 238.572 160.75C235.01 139.476 205.094 95.1206 182.396 97.5657ZM271.731 193.844C271.333 197.765 271.719 201.979 271.724 205.94L271.731 232.376C276.761 232.588 281.848 232.381 286.887 232.378L409.226 232.376C409.408 228.799 409.265 225.165 409.251 221.582L409.206 203.052C409.197 199.996 409.012 196.891 409.226 193.844L286.826 193.84C281.814 193.839 276.735 193.657 271.731 193.844Z"/>
</svg>
