<?xml version="1.0" encoding="utf-8" ?>
<svg xmlns="http://www.w3.org/2000/svg" xmlns:xlink="http://www.w3.org/1999/xlink" width="1024" height="1024">
	<path fill="#303030" transform="scale(2 2)" d="M167.628 140.003C176.914 139.733 186.294 139.996 195.589 139.999L280.022 139.997C309.345 140.001 310.718 141.253 333.507 161.749C347.36 174.208 361.178 186.816 374.552 199.794C377.034 202.202 379.324 204.893 382.239 206.803C386.008 207.598 389.906 207.809 393.697 208.63C425.005 215.414 444.409 242.932 444.716 274.069L444.734 304.264C444.757 315.065 447.128 330.24 432.805 333.063C426.364 334.333 403.566 333.323 396.188 333.236C389.452 366.666 347.014 377.899 320.635 357.125C312.888 350.807 307.156 342.916 304.354 333.236L208.101 333.236C197.997 367.23 155.258 378.622 128.683 354.465C123.004 349.303 116.4 341.237 116.048 333.236C108.806 333.631 101.542 333.236 94.2947 333.238C86.6993 333.24 77.9454 335.166 71.9197 329.364C65.0869 322.785 67.5387 306.602 67.5396 297.403L67.5233 230.81C67.451 203.034 74.821 206.747 98.3775 206.803C99.6981 203.696 102.199 200.766 104.097 197.97L115.554 181.081C130.488 159.289 137.306 143.987 167.628 140.003ZM98.3775 303.026L116.048 303.026C123.227 289.344 132.21 279.056 147.64 274.199C171.266 266.761 197.172 280.075 206.581 302.555L305.216 302.555C317.879 275.152 348.729 262.624 375.302 278.777C383.633 284.128 392.115 292.886 395.117 302.555C400.492 302.319 408.224 302.113 413.586 302.555L413.602 282.039C413.612 256.736 405.769 236.743 376.737 236.726L98.3775 236.749L98.3775 303.026ZM159.63 301.592C136.96 304.384 137.236 337.08 163.714 338.023C192.356 327.118 177.017 298.783 159.63 301.592ZM348.939 301.592C325.597 302.548 326.565 339.13 352.063 338.023C377.332 334.16 371.882 299.088 348.939 301.592ZM209.49 170.672L182.002 170.666C177.619 170.665 173.062 170.41 168.695 170.672C152.506 174.335 150.238 183.886 141.509 196.892C139.282 200.21 136.627 203.288 134.709 206.803L176.812 206.803L209.49 206.803L209.473 181.943C209.47 178.282 209.132 174.297 209.49 170.672ZM239.81 206.803L324.574 206.81C328.49 206.827 332.398 207.006 336.313 206.803C340.629 207.389 330.979 200.196 330.35 199.626L317.607 188.046C297.194 169.749 298.262 170.615 272.623 170.663L241.869 170.672C237.975 170.787 239.793 179.652 239.799 183.674L239.81 206.803Z"/>
</svg>
