<?xml version="1.0" encoding="utf-8" ?>
<svg xmlns="http://www.w3.org/2000/svg" xmlns:xlink="http://www.w3.org/1999/xlink" width="1024" height="1024">
	<path fill="#303030" transform="scale(2 2)" d="M272.613 67.1663C274.038 67.7336 295.576 88.859 297.153 90.7238C291.812 96.4749 278.144 108.415 274.556 114.226C274.452 115.838 274.392 117.364 274.556 118.975C303.396 126.518 319.654 147.012 324.569 175.215C348.547 175.173 364.987 175.271 383.893 194.216C405.945 216.314 403.497 238.047 403.471 266.505C413.392 269.213 416.232 276.156 416.267 285.868L416.265 408.708C416.261 436.634 411.191 438.197 384.051 438.193L262.875 438.188L124.617 438.184C119.539 438.18 113.967 438.825 109.005 437.654C92.5828 433.778 96.5395 414.447 96.5379 401.892L96.525 304.6C96.5237 284.997 91.5398 276.571 109.254 266.505C109.239 238.246 106.39 216.042 128.372 194.199C147.052 175.638 162.696 175.177 186.357 175.215C191.514 147.699 212.348 123.114 241.041 118.975C241.119 97.8321 247.8 91.3477 262.645 76.914C265.977 73.6734 268.952 70.0549 272.613 67.1663ZM129.75 404.531L286.375 404.531L381.999 404.531L381.999 300.136C361.946 299.999 360.464 300.042 344.257 311.993C323.83 327.056 292.974 328.764 270.899 316.284C260.202 310.237 249.875 298.231 236.312 300.136C226.203 301.032 222.326 304.561 214.64 310.285C190.285 328.418 153.585 330.214 129.75 309.996L129.75 404.531ZM219.064 269.208C247.146 261.338 262.346 269.553 283.506 284.539C303.309 298.564 316.807 290.627 333.134 278.064C343.394 270.17 355.226 265.547 368.146 265.697L368.161 249.431C368.163 243.28 368.713 236.287 366.947 230.353C362.825 216.502 348.843 209.38 335.067 209.464L295.28 209.416L185.645 209.42C153.892 209.371 143.535 217.32 143.558 249.636L143.516 267.011C143.553 291.778 174.503 297.135 192.991 283.433C201.901 276.83 207.96 272.492 219.064 269.208ZM222.074 175.215L258.935 175.215L290.122 175.215C286.755 159.91 269.107 148.947 253.924 150.993C239.771 151.715 225.927 161.226 222.074 175.215Z"/>
</svg>
