<?xml version="1.0" encoding="utf-8" ?>
<svg xmlns="http://www.w3.org/2000/svg" xmlns:xlink="http://www.w3.org/1999/xlink" width="1024" height="1024">
	<path fill="#303030" transform="scale(2 2)" d="M135.723 67.2524C153.928 67.0273 172.166 67.2522 190.373 67.2533L367.933 67.2331C388.765 67.2081 406.675 76.378 407.889 99.8972C408.269 107.26 407.966 114.777 407.958 122.153L407.964 393.66C407.965 398.933 408.205 404.362 407.59 409.605C405.751 425.275 391.254 438.546 375.547 439.395C371.039 439.705 366.314 439.412 361.784 439.408L148.565 439.41C129.055 439.419 108.178 436.575 104.751 411.978C103.939 406.156 104.238 400.131 104.243 394.26L104.245 119.38C104.246 106.22 102.419 92.5743 110.939 81.3757C117.305 73.0083 125.437 68.662 135.723 67.2524ZM136.987 190.218L136.987 407.503L212.875 407.503L375.547 407.503L375.547 190.218C371.91 189.912 368.185 190.202 364.533 190.211L313.99 190.21C309.353 190.205 304.63 189.942 300.008 190.218L196.478 190.215C176.661 190.214 156.798 189.898 136.987 190.218ZM136.987 99.6619L136.987 157.743C145.082 157.904 153.205 157.745 161.303 157.744L355.125 157.743L375.547 157.743L375.547 99.6619L156.906 99.6619L136.987 99.6619Z"/>
	<path fill="#303030" transform="scale(2 2)" d="M250.865 205.749C299.531 201.335 345.294 244.568 348.24 292.322C351.461 344.553 312.52 388.294 260.725 391.269C254.848 391.299 249.07 391.295 243.228 390.552C197.199 384.702 163.877 345.253 163.096 299.248C162.283 251.413 202.435 206.481 250.865 205.749ZM196.225 300.286L266.739 300.286C266.746 311.253 266.889 322.238 266.739 333.204L227.445 333.204C220.694 333.215 213.865 333.44 207.123 333.204C209.715 337.076 213.158 340.689 216.739 343.678C258.622 378.058 321.568 346.465 315.987 293.023C312.593 260.533 283.413 236.1 250.865 238.244C218.88 242.101 195.397 267.475 196.225 300.286Z"/>
	<path fill="#303030" transform="scale(2 2)" d="M246.946 112.502C252.525 112.487 265.078 111.798 269.766 113.245C286.485 118.408 283.6 144.847 264.187 145.269C256.343 145.844 242.431 146.261 236.671 141.149C225.709 131.421 232.666 113.041 246.946 112.502Z"/>
	<path fill="#303030" transform="scale(2 2)" d="M176.361 112.502C181.893 112.389 194.041 111.954 199.097 113.027C215.368 116.481 216.127 141.34 197.14 145.269C191.901 145.253 178.946 145.887 174.612 144.928C157.274 141.094 158.755 115.11 176.361 112.502Z"/>
</svg>
