<?xml version="1.0" encoding="utf-8" ?>
<svg xmlns="http://www.w3.org/2000/svg" xmlns:xlink="http://www.w3.org/1999/xlink" width="1024" height="1024">
	<path fill="#303030" transform="scale(2 2)" d="M139.597 66.9427C142.884 68.4509 150.081 80.4526 152.576 83.9085L304.989 292.099C308.666 296.94 312.659 301.667 315.691 306.948C382.937 263.313 459.352 336.541 424.31 403.48C406.406 437.681 360.834 452.997 326.364 434.719C308.659 425.332 294.122 408.448 288.276 389.117C284.282 375.909 283.9 351.852 290.717 339.13C285.85 329.961 277.559 319.357 271.677 309.978C271.011 309.265 242.163 309.744 240.048 309.978C236.166 314.092 222.491 335.124 220.845 339.13C222.825 342.231 223.732 346.059 224.598 349.606C234.372 389.628 211.046 430.787 170.423 440.473C106.522 455.709 54.9568 384.96 90.0238 329.198C112.672 293.184 159.864 284.538 195.214 306.948C201.842 295.514 212.673 281.122 220.845 270.983C218.831 268.438 217.146 265.665 215.28 263.014L144.781 161.937C129.974 140.85 115.673 125.635 122.288 97.0226C124.47 87.5859 131.283 72.0994 139.597 66.9427ZM156.628 404.245C190.292 398.528 200.198 357.721 173.433 339.058C168.109 335.346 155.246 330.172 148.885 333.009C131.131 332.974 116.661 350.883 116.793 367.877C116.963 389.824 134.925 405.645 156.628 404.245ZM361.062 404.245C379.759 404.022 395.032 385.725 394.53 367.572C393.978 347.646 376.911 331.405 356.8 333.009C337.681 333.764 322.172 350.628 323.037 369.776C323.924 389.418 341.179 405.857 361.062 404.245ZM256.264 282.011C275.098 277.479 269.176 251.946 252.651 254.589C234.57 256.772 237.91 284.692 255.943 282.061L256.264 282.011Z"/>
	<path fill="#303030" transform="scale(2 2)" d="M372.208 66.9427C375.627 67.0982 377.907 71.4219 379.597 73.9376C391.884 92.225 395.126 113.885 386.239 134.497C383.371 141.15 378.843 146.292 374.847 152.197C351.06 187.343 325.034 226.536 299.359 259.671C297.339 257.154 295.506 254.465 293.626 251.841C285.015 240.181 274.521 225.17 266.711 213.012C289.55 179.88 313.589 147.629 337.136 115.002L360.985 82.0583C364.275 77.5343 368.461 70.8891 372.208 66.9427Z"/>
</svg>
