<?xml version="1.0" encoding="utf-8" ?>
<svg xmlns="http://www.w3.org/2000/svg" xmlns:xlink="http://www.w3.org/1999/xlink" width="1024" height="1024">
	<path fill="#303030" transform="scale(2 2)" d="M238.335 67.3358L262.098 67.3276C275.094 67.3263 287.391 67.1835 299.837 71.5575C349.602 89.047 366.221 155.287 316.887 178.181L316.887 214.552C347.303 220.492 365.654 247.19 365.694 277.528L365.709 373.739C365.711 381.65 366.103 389.737 364.283 397.497C358.888 420.498 339.923 438.916 316.492 442.944C310.202 444.026 303.767 443.823 297.41 443.824L275.375 443.814L227.44 443.823C216.588 443.823 204.707 444.688 194.029 442.514C170.294 437.682 151.016 416.773 147.214 393.002C145.967 385.209 146.549 376.886 146.555 368.993L146.564 288.945C146.563 269.387 145.556 254.495 157.859 237.69C165.926 226.672 180.109 216.623 193.798 214.552C193.247 203.054 193.681 189.754 193.798 178.181C177.075 167.053 166.471 153.773 165.677 132.478C164.197 92.8011 202.173 68.6348 238.335 67.3358ZM306.327 410.788C333.808 407.819 332.189 384.554 332.176 364.57L332.175 292.027C332.176 272.26 332.683 250.411 306.509 245.993C300.848 245.037 294.483 245.491 288.737 245.493L223.723 245.51C217.999 245.499 211.92 244.783 206.244 245.504C193.158 247.033 182.133 257.139 180.422 270.37C179.676 276.136 180.182 284.148 180.182 290.097L180.182 367.05C180.182 373.746 179.643 381.003 180.488 387.622C183.127 408.295 198.32 410.926 214.726 410.817L306.327 410.788ZM277.812 150.761L289.791 150.793C327.079 150.862 316.934 108.798 284.152 100.928C277.06 99.2258 268.88 99.9418 261.583 99.9381L234.783 99.9502C218.204 101.823 196.651 114.317 198.822 133.671C201.109 154.061 220.34 150.757 234.746 150.755L277.812 150.761ZM227.001 213.028L285.277 213.028L285.741 212.824C285.583 202.762 285.261 193.02 285.277 182.822L227.001 182.822L226.714 183.109L226.761 183.462C227.234 187.201 227.022 191.143 227.021 194.911L227.001 213.028Z"/>
	<path fill="#303030" transform="scale(2 2)" d="M214.543 265.892C217.999 267.34 296.514 347.306 302.795 353.803C307.42 358.587 313.886 363.508 317.609 368.924C310.401 376.978 302.257 384.609 294.464 392.089L294.218 392.068C285.104 384.161 276.871 374.998 268.374 366.423L203.023 300.886C199.386 297.238 194.421 293.231 191.395 289.176C194.886 286.476 212.708 268.844 214.543 265.892Z"/>
</svg>
