<?xml version="1.0" encoding="utf-8" ?>
<svg xmlns="http://www.w3.org/2000/svg" xmlns:xlink="http://www.w3.org/1999/xlink" width="1024" height="1024">
	<path fill="#303030" transform="scale(2 2)" d="M255.391 83.5841L411.626 83.5802C436.715 83.5772 443.858 82.9873 443.862 110.524L443.896 404.608C443.951 426.279 428.913 424.366 412.997 424.385L227.159 424.398L100.248 424.404C88.1381 424.409 68.8431 427.363 68.2691 409.591C67.9173 398.698 68.259 387.694 68.2593 376.788L68.2491 252.029C68.2445 241.731 67.8976 231.306 68.3062 221.025C68.7663 209.448 79.5675 207.15 88.1654 202.843C109.385 192.214 131.052 182.513 152.323 171.985C166.847 164.797 167.827 161.891 183.94 169.435L221.741 187.196C227.662 189.983 233.495 192.966 239.469 195.637L239.463 107.498C239.43 95.2748 239.999 84.9989 255.391 83.5841ZM410.497 390.769C410.261 380.599 410.496 370.369 410.496 360.193L410.497 116.238L273.076 116.238L273.076 390.769L395.375 390.766C400.393 390.763 405.491 390.526 410.497 390.769ZM137.606 390.769C137.854 372.898 137.611 354.986 137.613 337.111L137.582 324.718C137.4 300.097 149.704 304.166 170.43 304.199L180.731 304.175C197.857 304.155 202.302 308.005 202.264 325.268L202.242 390.769L227.387 390.779C231.398 390.786 235.467 390.984 239.469 390.769L239.469 231.904C217.182 223.45 192.763 209.226 170.43 199.261C154.888 207.258 139.073 214.808 123.376 222.502L108.322 229.95C106.001 231.115 103.531 232.191 101.304 233.521L101.304 390.769L137.606 390.769Z"/>
	<path fill="#303030" transform="scale(2 2)" d="M308.646 267.758L374.65 267.758L374.65 300.95L308.646 300.95L308.646 267.758Z"/>
	<path fill="#303030" transform="scale(2 2)" d="M308.646 206.265L374.65 206.265C374.605 217.11 374.781 227.961 374.65 238.804L308.646 238.804C308.65 227.965 308.462 217.1 308.646 206.265Z"/>
	<path fill="#303030" transform="scale(2 2)" d="M308.646 329.749L374.65 329.749L374.656 353.045C374.664 355.268 375.194 360.29 374.65 362.109C367.303 362.382 359.837 362.117 352.478 362.115L308.646 362.109C308.454 358.538 308.628 354.88 308.631 351.299L308.646 329.749Z"/>
	<path fill="#303030" transform="scale(2 2)" d="M308.646 144.753L374.65 144.753L374.65 176.866L308.646 176.866L308.646 144.753Z"/>
</svg>
