<?xml version="1.0" encoding="utf-8" ?>
<svg xmlns="http://www.w3.org/2000/svg" xmlns:xlink="http://www.w3.org/1999/xlink" width="1024" height="1024">
	<path fill="#303030" transform="scale(2 2)" d="M193.429 87.0156C245.911 83.4159 294.843 118.923 315.136 166.234C423.055 166.364 486.974 297.552 412.909 380.373C387.323 408.983 356.116 422.612 318.607 424.697C266.136 425.484 213.727 394.692 195.364 344.459C164.778 344.962 130.363 330.67 108.314 309.638C55.9672 259.705 52.9078 179.508 103.538 127.101C126.624 103.206 160.046 87.58 193.429 87.0156ZM322.238 399.766C330.105 398.441 337.882 397.538 345.582 395.35C396.231 380.958 427.441 329.119 418.64 277.583C409.685 225.146 360.954 188.693 308.622 190.745C303.71 191.275 298.788 191.729 293.941 192.712C241.133 203.419 205.386 253.531 211.304 306.977C217.652 364.299 265.268 402.379 322.238 399.766ZM187.628 315.397C185.887 310.747 185.75 306.038 185.481 301.129C182.061 238.709 226.503 180.219 288.567 168.524C270.142 131.04 232.893 110.881 192.101 111.499C132.583 116.437 88.0724 164.521 93.1053 224.838C97.3982 276.285 137.49 313.429 187.628 319.358C187.481 318.011 187.651 316.735 187.628 315.397Z"/>
	<path fill="#303030" transform="scale(2 2)" d="M259.634 268.092C262.796 268.232 264.46 269.022 266.212 271.866C266.318 273.178 266.458 274.663 265.902 275.9C264.841 278.264 244.421 299.67 240.255 301.156C235.842 300.968 231.32 296.543 234.284 292.104C236.234 289.183 256.072 268.794 259.634 268.092Z"/>
	<path fill="#303030" transform="scale(2 2)" d="M302.846 310.603C307.218 310.489 310.934 314.772 308.774 319.069C307.008 322.583 289.068 341.385 284.579 342.8C279.226 343.05 275.354 338.124 278.929 333.213C281.378 329.849 299.678 311.088 302.846 310.603Z"/>
	<path fill="#303030" transform="scale(2 2)" d="M372.42 249.75C376.954 249.541 381.057 254.144 378.637 258.447C377.139 261.11 357.607 281.439 353.967 282.444C349.461 282.731 345.341 279.432 347.455 274.514C348.597 271.857 368.236 251.503 372.42 249.75Z"/>
	<path fill="#303030" transform="scale(2 2)" d="M316.677 216.755C321.506 216.607 325.805 220.426 323.092 225.486C321.479 228.495 303.845 246.463 299.911 247.742C295.962 247.866 291.451 245 292.944 240.412C294.034 237.064 311.819 219.303 316.677 216.755Z"/>
	<path fill="#303030" transform="scale(2 2)" d="M381.817 312.277C386.15 312.04 390.714 314.978 388.945 319.944C388.023 322.534 369.105 341.659 366.597 342.8C362.334 342.153 358.048 339.419 359.858 334.38C360.941 331.367 377.468 314.335 381.817 312.277Z"/>
	<path fill="#303030" transform="scale(2 2)" d="M322.238 359.76C326.228 359.556 330.436 363.364 328.635 367.496C327.375 370.386 313.495 384.693 309.5 386.323C303.972 387.098 301.918 383.993 302.846 378.893C304.27 374.099 316.69 361.658 322.238 359.76Z"/>
	<path fill="#303030" transform="scale(2 2)" d="M157.812 202.558C162.184 202.265 166.164 205.872 164.091 210.451C163.151 212.528 141.676 234.849 137.807 236.236C133.452 236.415 129.576 232.877 131.553 228.28C132.764 225.465 153.627 204.116 157.812 202.558Z"/>
	<path fill="#303030" transform="scale(2 2)" d="M237.248 144.769C241.625 144.396 245.696 148.931 242.951 153.089C240.714 156.477 220.617 176.789 216.153 177.708C212.151 177.675 210.635 175.463 209.889 171.747C210.998 168.033 232.727 145.737 237.248 144.769Z"/>
	<path fill="#303030" transform="scale(2 2)" d="M156.988 144.769C161.244 144.533 165.278 147.514 163.822 152.236C162.754 155.7 141.583 176.166 138.842 177.708C134.855 177.796 129.83 175.266 131.501 170.461C132.44 167.762 152.365 147.104 156.988 144.769Z"/>
	<path fill="#303030" transform="scale(2 2)" d="M169.999 266.574C174.715 266.613 177.594 271.749 174.665 275.745C171.951 279.447 159.554 292.887 154.65 293.658C150.116 293.57 147.621 288.295 150.3 284.574C153.107 280.674 165.117 267.431 169.999 266.574Z"/>
</svg>
