<?xml version="1.0" encoding="utf-8" ?>
<svg xmlns="http://www.w3.org/2000/svg" xmlns:xlink="http://www.w3.org/1999/xlink" width="1024" height="1024">
	<path fill="#303030" transform="scale(2 2)" d="M147.022 68.0511C233.682 64.7335 322.898 103.027 384.627 163.07L393.794 172.164C412.434 190.512 410.424 193.308 391.446 212.44L263.875 340.015L181.103 422.538C172.061 431.593 160.623 447.007 146.41 435.412C139.354 429.656 139.746 420.247 138.779 412.001L112.962 192.719C110.029 168.635 106.731 144.564 104.429 120.41C101.849 93.346 119.784 70.6031 147.022 68.0511ZM170.361 384.24C176.165 378.6 181.668 372.596 187.393 366.862L244.587 309.56L316.166 238.196C319.249 235.134 322.279 231.981 325.573 229.144C316.401 220.615 307.2 211.813 297.147 204.324C256.983 174.403 200.858 153.393 150.012 155.203L143.192 155.203C143.407 160.91 144.395 166.694 145.073 172.372L170.361 384.24ZM139.787 119.279C212.876 119.195 276.009 138.194 332.415 187.62C338.595 193.035 345.033 198.925 350.168 205.383L351.828 203.581C355.668 199.928 360.073 196.376 363.498 192.349C361.203 189.815 358.478 187.576 355.949 185.277C318.057 150.835 280.083 128.101 230.28 113.712C209.079 107.586 171.791 100.047 149.184 102.001C140.374 104.354 138.772 111.143 139.787 119.279Z"/>
	<path fill="#303030" transform="scale(2 2)" d="M218.541 223.155C257.556 219.335 265.442 273.485 227.361 280.553C188.125 284.609 180.964 229.25 218.541 223.155Z"/>
	<path fill="#303030" transform="scale(2 2)" d="M285.484 208.341C307.288 205.939 313.663 238.692 289.824 243.731C264.627 244.683 263.013 211.928 285.484 208.341Z"/>
	<path fill="#303030" transform="scale(2 2)" d="M183.749 170.336C207.451 168.697 210.392 202.251 188.287 205.383C165.621 207.438 160.057 175.413 183.749 170.336Z"/>
	<path fill="#303030" transform="scale(2 2)" d="M186.718 295.843C210.073 296.697 208.955 330.2 188.287 330.284C164.933 330.527 162.368 298.441 186.718 295.843Z"/>
</svg>
