<?xml version="1.0" encoding="utf-8" ?>
<svg xmlns="http://www.w3.org/2000/svg" xmlns:xlink="http://www.w3.org/1999/xlink" width="1024" height="1024">
	<path fill="#303030" transform="scale(2 2)" d="M162.7 67.5023C169.55 66.9725 176.65 67.4947 183.529 67.4998L246.852 67.4913C265.396 67.4903 282.962 70.1923 288.664 92.008C290.406 98.6756 289.76 106.144 289.759 113.004L289.745 134.865C299.153 130.686 308.854 131.77 318.895 131.77L385.598 131.769C392.027 131.768 399.018 131.284 405.37 132.341C432.718 136.891 434.029 158.514 434.12 179.934C434.194 197.526 436.201 207.296 424.75 221.525C424.57 224.014 424.737 226.616 424.738 229.117L424.757 292.907C424.791 331.952 422.825 336.909 393.348 366.765L366.217 394.174C356.241 404.227 344.425 417.94 333.762 426.562C275.874 473.372 197.738 411.286 229.759 343.658C233.317 335.357 239.174 329.017 245.421 322.718L278.44 288.926C282.178 285.046 285.739 281.005 289.745 277.395C289.271 272.337 289.734 266.432 289.737 261.264L289.745 226.69C286.685 224.751 284.087 222.214 281.196 220.039C281.254 258.562 279.63 268.099 253.838 294.607L201.954 346.846C197.678 351.094 193.492 355.695 188.823 359.511C131.451 406.402 49.2204 335.546 88.9085 270.3C98.1045 255.182 132.444 224.43 145.745 210.962C145.747 193.586 145.529 176.181 145.745 158.809C128.302 148.207 130.288 130.435 130.251 113.383C130.22 99.4393 128.902 89.2317 139.139 78.047C145.32 71.2943 153.629 67.8632 162.7 67.5023ZM315.069 399.946C317.855 397.339 320.313 394.418 322.974 391.689L361.133 352.979C392.85 321.449 390.756 324.687 390.745 283.76L390.75 231.026C383.535 231.166 376.302 231.027 369.084 231.024L323.404 231.026L323.409 264.742C323.423 278.046 326.466 288.76 316.631 298.606C304.921 310.327 293.381 322.25 281.843 334.142L273.226 342.988C268.793 347.451 264.405 351.497 261.213 357.016C241.255 391.525 285.021 427.869 315.069 399.946ZM164.29 101.325L164.29 130.968L257.294 130.968C257.558 121.11 257.293 111.19 257.294 101.325L164.29 101.325ZM169.785 332.042C187.082 315.502 204.593 297.815 221.24 280.672C227.747 273.971 235.125 268.368 240.115 260.325C249.446 245.284 247.355 227.858 247.358 210.967L247.358 163.747L180.744 163.747L180.757 196.827C180.757 210.428 182.467 222.392 172.058 232.812L138.493 266.07C132.122 272.367 122.246 280.801 117.67 288.246C97.9348 320.35 138.061 359.611 169.785 332.042ZM306.248 166.294L306.248 197.511L399.754 197.511L399.754 166.294L306.248 166.294Z"/>
</svg>
