<?xml version="1.0" encoding="utf-8" ?>
<svg xmlns="http://www.w3.org/2000/svg" xmlns:xlink="http://www.w3.org/1999/xlink" width="1024" height="1024">
	<path fill="#303030" transform="scale(2 2)" d="M83.6836 82.8475C87.1256 82.6524 90.674 82.8332 94.1262 82.8374L127.085 82.8232C148.583 82.7028 146.292 92.1826 151.287 110.848C153.041 117.399 155.978 125.979 156.866 132.37C163.611 132.076 170.475 132.367 177.233 132.368L417.831 132.36C422.358 132.355 427.435 131.987 431.849 133.012C449.431 137.099 443.036 154.682 439.87 166.065L421.584 234.625C415.824 256.236 409.856 277.824 404.566 299.557C402.034 308.26 402.091 321.755 391.472 324.933C387.368 326.161 373.267 325.509 368.254 325.505L233.671 325.505C217.297 325.505 200.84 325.857 184.476 325.474C168.505 325.1 169.389 310.353 166.267 297.9L132.543 162.295C128.401 146.102 123.733 130.01 119.891 113.744L95.7793 113.756C88.4604 113.77 80.4188 114.991 74.2355 110.162C63.2039 101.547 68.2891 84.4226 83.6836 82.8475ZM199.017 292.485C202.435 292.281 205.911 292.459 209.337 292.476L363.68 292.479C366.926 292.478 370.237 292.311 373.474 292.485C374.501 288.157 375.489 283.815 376.61 279.511L389.599 226.233L188.098 226.202C185.86 226.175 183.472 225.919 181.253 226.233C185.421 248.007 193.905 270.549 199.017 292.485ZM399.697 193.76C399.569 191.291 400.119 189.153 400.808 186.806C402.617 179.475 404.593 172.031 406.862 164.83L165.088 164.83C167.638 174.425 170.56 184.059 172.647 193.76L399.697 193.76Z"/>
	<path fill="#303030" transform="scale(2 2)" d="M347.77 334.251C406.769 331.81 417.917 407.935 369.136 425.385C365.573 426.66 361.82 427.208 358.188 428.249C292.326 431.34 287.41 342.348 347.77 334.251ZM354.181 396.241C374.126 391.672 370.145 365.378 350.552 366.304C330.843 370.491 334.017 395.479 354.181 396.241Z"/>
	<path fill="#303030" transform="scale(2 2)" d="M205.712 334.251C217.71 334.245 227.844 336.058 237.936 342.922C273.703 367.248 260.507 420.503 216.741 428.249C176.474 430.751 149.726 389.983 170.927 356.434C179.428 342.982 191.038 337.522 205.712 334.251ZM212.097 396.241C232.514 393.155 228.3 364.683 209.164 366.304C189.275 369.768 191.067 396.863 212.097 396.241Z"/>
</svg>
