<?xml version="1.0" encoding="utf-8" ?>
<svg xmlns="http://www.w3.org/2000/svg" xmlns:xlink="http://www.w3.org/1999/xlink" width="1024" height="1024">
	<path fill="#303030" transform="scale(2 2)" d="M276.355 73.009C292.409 72.3214 305.053 76.2197 317.745 86.1181C333.513 98.4147 338.075 112.284 340.359 130.869L394.695 130.866C410.814 130.866 438.992 126.111 443.144 147.524C444.285 153.411 443.821 159.91 443.82 165.899L443.821 222.422C443.837 242.976 444.791 254.287 419.606 254.266L406.93 254.238C398.824 254.217 391.161 254.025 384.765 259.842C375.862 267.938 374.549 282.612 382.913 291.574C398.514 308.29 425.435 289.935 439.659 305.715C444.882 311.51 443.817 319.104 443.819 326.274L443.816 384.502C443.818 398.844 446.618 417.753 426.721 420.598C420.62 421.47 414.197 421.084 408.04 421.081L339.735 421.061C330.346 421.065 317.599 423.241 309.751 416.981C294.369 404.711 310.861 383.897 295.679 366.372C287.86 358.328 274.274 357.943 265.816 365.318C246.585 382.086 273.846 421.752 234.098 421.982L161.233 421.988C157.548 421.986 153.547 422.246 149.919 421.541C130.783 417.82 134.801 391.939 134.799 377.911L134.809 336.334C132.769 336.38 130.725 336.435 128.685 336.416C95.5432 336.107 68.1609 309.176 68.6653 276.002C69.0977 247.564 91.2714 223.214 119.242 219.084C124.395 218.323 129.616 218.389 134.809 218.491L134.76 150.859C134.765 126.91 158.613 130.886 174.942 130.884L221.323 130.869C223.759 98.7776 244.167 77.4573 276.355 73.009ZM172.29 168.604L172.297 229.239C172.291 241.782 169.788 254.916 153.333 254.772C140.395 254.658 123.142 251.268 113 261.149C104.233 269.69 102.9 283.316 111.843 292.279C124.703 305.167 143.129 295.702 158.648 300.258C167.207 302.771 172.253 310.722 172.307 319.482L172.29 382.078L221.323 382.078C221.522 343.452 260.963 312.773 298.484 325.218C324.044 333.948 340.602 356.912 340.359 383.747L405.762 383.747C406.771 369.009 405.575 351.424 405.762 336.334C385.962 336.353 370.052 331.986 355.435 317.313C317.199 278.928 348.902 212.306 405.762 216.745L405.75 183.876C405.748 179.05 405.336 173.305 405.762 168.604L329.312 168.604C283.432 168.579 315.962 130.529 293.699 114.483C289.608 111.535 284.23 109.969 279.19 110.355C245.411 114.39 266.449 150.197 251.427 163.902C245.918 168.929 240.125 168.696 233.229 168.628L221.746 168.595C205.285 168.592 188.742 168.242 172.29 168.604Z"/>
</svg>
