<?xml version="1.0" encoding="utf-8" ?>
<svg xmlns="http://www.w3.org/2000/svg" xmlns:xlink="http://www.w3.org/1999/xlink" width="1024" height="1024">
	<path fill="#303030" transform="scale(2 2)" d="M248.118 68.2342C348.492 65.0074 398.101 163.545 399.172 253.294C399.346 267.872 398.342 284.257 399.236 298.582C399.512 303.016 402.351 309.307 403.371 314.203C412.061 355.881 392.804 400.484 357.319 423.714C347.14 430.378 322.505 445.819 310.073 441.488C293.176 435.602 296.789 418.078 291.088 407.153C315.981 394.382 332.756 371.889 326.567 342.348C325.79 338.644 324.717 334.958 324.164 331.215C320.434 305.976 335.326 278.599 337.43 252.272C340.709 211.224 314.378 161.985 272.46 151.185C270.475 150.673 265.292 148.565 263.593 150.051C239.679 174.413 211.972 180.023 182.03 189.906C167.235 224.452 173.034 253.707 181.419 288.806C187.556 314.499 189.718 317.138 184.556 342.612C178.102 374.469 195.956 392.466 220.385 407.153C215.185 419.845 215.144 439.774 197.927 442.39C189.588 443.656 174.649 433.908 166.737 429.963C161.137 427.172 155.112 425.357 150.039 421.594C117.232 397.252 99.6158 350.215 109.484 310.529C110.688 305.687 112.939 300.479 113.226 295.507C114.175 279.089 112.691 261.372 113.245 244.602C115.646 171.82 152.959 89.1151 229.935 70.9823C235.983 69.5576 241.988 69.068 248.118 68.2342Z"/>
</svg>
