<?xml version="1.0" encoding="utf-8" ?>
<svg xmlns="http://www.w3.org/2000/svg" xmlns:xlink="http://www.w3.org/1999/xlink" width="1024" height="1024">
	<path fill="#303030" transform="scale(2 2)" d="M207.312 67.7679L293.245 67.7506C317.884 67.7382 318.27 72.8941 318.26 93.9947L318.265 118.988C318.266 128.512 318.007 127.689 322.258 136.292C337.545 167.23 351.403 209.635 349.682 244.903C347.463 290.409 314.777 323.649 271.39 332.392L271.39 412.753L304.875 412.736C310.233 412.735 317.847 412.131 322.924 413.203C336.76 416.126 342.423 444.092 314.622 444.027L305.684 443.992L203.928 443.998C196.696 443.995 188.056 445.233 182.339 439.769C176.411 434.103 175.987 423.47 181.7 417.528C188.116 410.855 198.37 412.738 206.715 412.738C218.031 412.739 229.363 412.917 240.676 412.753L240.675 362.972C240.675 352.783 240.544 342.579 240.676 332.392C202.04 326.996 171.542 294.331 164.717 256.55C158.788 223.735 172.419 171.576 186.063 142.797C192.119 130.022 193.25 131.66 193.255 117.578L193.261 94.1182C193.225 81.3571 191.918 70.432 207.312 67.7679ZM200.935 193.268L220.803 193.258C228.673 193.261 236.694 193.036 244.403 194.876C262.683 199.24 270.404 207.972 291.437 208.714L315.601 208.714C310.669 188.159 304.251 168.631 294.545 149.856C285.626 132.604 287.204 136.054 287.208 116.266C287.209 110.635 286.942 104.863 287.226 99.2491L224.699 99.2491L224.714 121.283C224.714 138.594 224.194 134.698 217.029 150.137C210.619 163.948 204.086 178.295 200.935 193.268ZM300.001 284.92C311.809 273.072 319.221 257.287 319.557 240.442L293.464 240.448C286.092 240.457 278.738 240.749 271.461 239.32C259.739 237.019 250.428 230.237 239.477 226.286C231.201 223.3 222.245 223.928 213.592 223.93L195.234 223.941C191.705 243.424 193.218 259.842 204.8 276.455C226.657 307.804 272.906 312.384 300.001 284.92Z"/>
</svg>
